<?xml version="1.0" encoding="UTF-8" standalone="no"?>
<!-- Created with Inkscape (http://www.inkscape.org/) -->

<svg
   xmlns:dc="http://purl.org/dc/elements/1.1/"
   xmlns:cc="http://creativecommons.org/ns#"
   xmlns:rdf="http://www.w3.org/1999/02/22-rdf-syntax-ns#"
   xmlns:svg="http://www.w3.org/2000/svg"
   xmlns="http://www.w3.org/2000/svg"
   xmlns:xlink="http://www.w3.org/1999/xlink"
   xmlns:sodipodi="http://sodipodi.sourceforge.net/DTD/sodipodi-0.dtd"
   xmlns:inkscape="http://www.inkscape.org/namespaces/inkscape"
   width="1920"
   height="1080"
   viewBox="0 0 507.99999 285.75001"
   version="1.1"
   id="svg8"
   inkscape:version="0.92.2 (5c3e80d, 2017-08-06)"
   sodipodi:docname="screenshot-figetquest-mainmenu.svg"
   inkscape:export-filename="C:\Users\acer\Pictures\The Inkscape place\Render\Fidget-Title-EN.png"
   inkscape:export-xdpi="96"
   inkscape:export-ydpi="96">
  <defs
     id="defs2">
    <linearGradient
       inkscape:collect="always"
       id="linearGradient4658">
      <stop
         style="stop-color:#00ff00;stop-opacity:1;"
         offset="0"
         id="stop4654" />
      <stop
         style="stop-color:#ffff00;stop-opacity:1"
         offset="1"
         id="stop4656" />
    </linearGradient>
    <linearGradient
       inkscape:collect="always"
       xlink:href="#linearGradient4658"
       id="linearGradient4660"
       x1="330.20001"
       y1="78.983315"
       x2="330.20001"
       y2="239.84998"
       gradientUnits="userSpaceOnUse" />
  </defs>
  <sodipodi:namedview
     id="base"
     pagecolor="#ffffff"
     bordercolor="#666666"
     borderopacity="1.0"
     inkscape:pageopacity="0.0"
     inkscape:pageshadow="2"
     inkscape:zoom="0.35355339"
     inkscape:cx="767.2708"
     inkscape:cy="659.97356"
     inkscape:document-units="mm"
     inkscape:current-layer="layer1"
     showgrid="true"
     units="px"
     inkscape:pagecheckerboard="false"
     borderlayer="true"
     inkscape:showpageshadow="true"
     inkscape:window-width="1366"
     inkscape:window-height="745"
     inkscape:window-x="-8"
     inkscape:window-y="-8"
     inkscape:window-maximized="1"
     showguides="false">
    <inkscape:grid
       type="xygrid"
       id="grid3699"
       empspacing="4"
       originy="-2.1166667"
       snapvisiblegridlinesonly="true"
       dotted="false" />
  </sodipodi:namedview>
  <metadata
     id="metadata5">
    <rdf:RDF>
      <cc:Work
         rdf:about="">
        <dc:format>image/svg+xml</dc:format>
        <dc:type
           rdf:resource="http://purl.org/dc/dcmitype/StillImage" />
        <dc:title />
        <cc:license
           rdf:resource="http://creativecommons.org/licenses/by/4.0/" />
      </cc:Work>
      <cc:License
         rdf:about="http://creativecommons.org/licenses/by/4.0/">
        <cc:permits
           rdf:resource="http://creativecommons.org/ns#Reproduction" />
        <cc:permits
           rdf:resource="http://creativecommons.org/ns#Distribution" />
        <cc:requires
           rdf:resource="http://creativecommons.org/ns#Notice" />
        <cc:requires
           rdf:resource="http://creativecommons.org/ns#Attribution" />
        <cc:permits
           rdf:resource="http://creativecommons.org/ns#DerivativeWorks" />
      </cc:License>
    </rdf:RDF>
  </metadata>
  <g
     inkscape:label="Layer 1"
     inkscape:groupmode="layer"
     id="layer1"
     transform="translate(0,-11.249983)">
    <rect
       style="fill:url(#linearGradient4660);stroke-width:0.26458332;fill-opacity:1"
       id="rect4652"
       width="508"
       height="287.86667"
       x="0"
       y="11.249983" />
    <path
       style="fill:#00ffff;stroke:#000000;stroke-width:0.26458332px;stroke-linecap:butt;stroke-linejoin:miter;stroke-opacity:1"
       d="m 0,214.44998 h 507.99999 v 59.26666 H 0 Z"
       id="path3703"
       inkscape:connector-curvature="0" />
    <rect
       style="fill:#0000ff;stroke-width:0.26458332"
       id="rect4510"
       width="127"
       height="76.199997"
       x="16.933332"
       y="205.98331" />
    <rect
       style="fill:#000080;stroke-width:0.26458332"
       id="rect4512"
       width="76.199997"
       height="42.333332"
       x="152.39999"
       y="222.91664" />
    <rect
       style="fill:#000080;stroke-width:0.26458332"
       id="rect4512-4"
       width="76.199997"
       height="42.333332"
       x="237.06667"
       y="222.91666" />
    <rect
       style="fill:#000080;stroke-width:0.26458332"
       id="rect4512-2"
       width="76.199997"
       height="42.333332"
       x="321.73331"
       y="222.91666" />
    <rect
       style="fill:#000080;stroke-width:0.26458332"
       id="rect4512-3"
       width="76.199997"
       height="42.333332"
       x="406.39999"
       y="222.91666" />
    <flowRoot
       xml:space="preserve"
       id="flowRoot4541"
       style="font-style:normal;font-weight:normal;font-size:40px;line-height:1.25;font-family:sans-serif;letter-spacing:0px;word-spacing:0px;fill:#000000;fill-opacity:1;stroke:none"
       transform="matrix(0.26458333,0,0,0.26458333,0,11.249983)"><flowRegion
         id="flowRegion4543"><rect
           id="rect4545"
           width="416"
           height="96.000015"
           x="128"
           y="960" /></flowRegion><flowPara
         id="flowPara4547">Item to be selected</flowPara></flowRoot>    <flowRoot
       xml:space="preserve"
       id="flowRoot4549"
       style="fill:black;fill-opacity:1;stroke:none;font-family:sans-serif;font-style:normal;font-weight:normal;font-size:14.66666667px;line-height:1.25;letter-spacing:0px;word-spacing:0px;"><flowRegion
         id="flowRegion4551"
         style="font-size:14.66666667px;"><rect
           id="rect4553"
           width="160"
           height="96"
           x="224"
           y="832"
           style="font-size:14.66666667px;" /></flowRegion><flowPara
         id="flowPara4555" /></flowRoot>    <text
       xml:space="preserve"
       style="font-style:normal;font-weight:normal;font-size:10.58333302px;line-height:1.25;font-family:sans-serif;letter-spacing:0px;word-spacing:0px;fill:#000000;fill-opacity:1;stroke:none;stroke-width:0.26458332"
       x="69.056252"
       y="248.58122"
       id="text4559"><tspan
         sodipodi:role="line"
         id="tspan4557"
         x="69.056252"
         y="248.58122"
         style="font-size:25.39999962px;stroke-width:0.26458332">1</tspan></text>
    <text
       xml:space="preserve"
       style="font-style:normal;font-weight:normal;font-size:26.21212959px;line-height:1.25;font-family:sans-serif;letter-spacing:0px;word-spacing:0px;fill:#000000;fill-opacity:1;stroke:none;stroke-width:0.65530324"
       x="179.68216"
       y="252.08046"
       id="text4563"><tspan
         sodipodi:role="line"
         id="tspan4561"
         x="179.68216"
         y="252.08046"
         style="stroke-width:0.65530324">2</tspan></text>
    <text
       xml:space="preserve"
       style="font-style:normal;font-weight:normal;font-size:30.34425545px;line-height:1.25;font-family:sans-serif;letter-spacing:0px;word-spacing:0px;fill:#000000;fill-opacity:1;stroke:none;stroke-width:0.75860637"
       x="246.52251"
       y="270.53391"
       id="text4567"
       transform="scale(1.069584,0.93494289)"><tspan
         sodipodi:role="line"
         id="tspan4565"
         x="246.52251"
         y="270.53391"
         style="stroke-width:0.75860637">3</tspan></text>
    <rect
       style="fill:#000080;stroke-width:0.26458332"
       id="rect4512-3-0"
       width="76.199997"
       height="42.333332"
       x="491.06668"
       y="222.91664" />
    <rect
       style="fill:#000080;stroke-width:0.26458332"
       id="rect4512-3-01"
       width="76.199997"
       height="42.333332"
       x="-67.73333"
       y="222.91666" />
    <path
       style="fill:none;stroke:#000000;stroke-width:0.26458332px;stroke-linecap:butt;stroke-linejoin:miter;stroke-opacity:1"
       d="m 148.16666,222.91665 c -0.0882,-0.0882 -0.23433,-0.14358 -0.26458,-0.26459 -0.004,-0.014 -0.003,-1.84174 0,-1.85208 0.20112,-0.60334 0.80781,-1.00294 1.05833,-1.5875 0.14325,-0.33423 0.12135,-0.7241 0.26459,-1.05833 0.12526,-0.29228 0.36556,-0.52108 0.52916,-0.79375 0.10147,-0.16911 0.16313,-0.36006 0.26459,-0.52917 0.1636,-0.27267 0.42861,-0.49208 0.52916,-0.79375 0.0837,-0.251 -0.0519,-0.5343 0,-0.79375 0.094,-0.47018 0.48198,-0.74656 0.79375,-1.05833 0.44098,-0.44098 0.92368,-0.84384 1.32292,-1.32292 0.20357,-0.24429 0.33052,-0.54544 0.52917,-0.79375 0.15583,-0.19479 0.37333,-0.33438 0.52916,-0.52917 0.19865,-0.2483 0.30432,-0.56889 0.52917,-0.79375 0.31182,-0.31181 0.80202,-0.43491 1.05833,-0.79375 0.21136,-0.2959 0.0629,-0.75577 0.26459,-1.05833 1.70064,-2.55097 0.0487,0.79907 1.32291,-0.79375 0.2464,-0.30799 0.28278,-0.75034 0.52917,-1.05833 0.029,-0.0362 0.97596,-0.46739 1.05833,-0.52917 0.29935,-0.22451 0.52917,-0.52917 0.79375,-0.79375 0.52917,-0.52917 1.05834,-1.05833 1.5875,-1.5875 0.0882,-0.0882 0.16081,-0.1954 0.26459,-0.26458 0.16408,-0.10939 0.4277,-0.0955 0.52916,-0.26459 0.18709,-0.31181 0.0775,-0.74652 0.26459,-1.05833 0.10146,-0.16911 0.36508,-0.15519 0.52916,-0.26458 0.60785,-0.40523 -0.11345,-0.15113 0.52917,-0.79375 0.13945,-0.13945 0.38972,-0.12514 0.52917,-0.26459 1.0326,-1.03259 -0.0613,-0.14209 0.26458,-0.79375 0.39688,-0.79375 0.26458,0.52917 0.79375,-0.79375 0.2701,-0.67525 0.35278,-1.41111 0.52917,-2.11666"
       id="path4590"
       inkscape:connector-curvature="0" />
    <path
       style="fill:none;stroke:#000000;stroke-width:0.26458332px;stroke-linecap:butt;stroke-linejoin:miter;stroke-opacity:1"
       d="m 160.86666,197.51665 c -0.26458,-0.35278 -1.14652,-0.79375 -0.79375,-1.05834 0.35278,-0.26458 0.48194,0.74652 0.79375,1.05834 0.39932,0.39931 0.88909,0.69681 1.32292,1.05833 0.28745,0.23954 0.52917,0.52917 0.79375,0.79375 0.26458,0.26458 0.50157,0.56 0.79375,0.79375 0.30799,0.24639 0.77944,0.25027 1.05833,0.52917 0.0624,0.0624 -0.0394,0.1857 0,0.26458 0.0558,0.11156 0.17639,0.17639 0.26459,0.26458 0.17639,0.17639 0.35277,0.35278 0.52916,0.52917 0.26459,0.26458 0.45908,0.62641 0.79375,0.79375 0.15777,0.0789 0.36183,-0.0558 0.52917,0 0.23665,0.0789 0.30605,0.41761 0.52917,0.52917 0.0789,0.0394 0.18091,-0.0279 0.26458,0 0.18709,0.0624 0.34208,0.20222 0.52917,0.26458 0.0837,0.0279 0.20222,-0.0624 0.26458,0 0.13945,0.13945 0.12514,0.38972 0.26458,0.52917 0.0624,0.0624 0.17639,0 0.26459,0 0.17639,0.17639 0.37949,0.3296 0.52916,0.52916 0.11833,0.15777 0.12514,0.38972 0.26459,0.52917 0.0624,0.0624 0.20222,-0.0624 0.26458,0 0.0624,0.0624 -0.0624,0.20222 0,0.26458 0.0624,0.0624 0.22514,0.0789 0.26458,0 0.20672,-0.41343 -0.15223,-0.72128 -0.26458,-1.05833 -0.0279,-0.0837 0,-0.17639 0,-0.26458 0,-0.26459 0,-0.52917 0,-0.79375 0,-1.41111 0,-2.82223 0,-4.23334 0,-0.52916 0,-1.05833 0,-1.5875 0,-0.26458 -0.0642,-0.53706 0,-0.79375 0.0478,-0.19132 0.21675,-0.33784 0.26458,-0.52916 0.0488,-0.19497 -0.0775,-1.16791 0,-1.32292 0.0558,-0.11156 0.20881,-0.15302 0.26459,-0.26458 0.0394,-0.0789 0,-0.17639 0,-0.26459 0,-0.26458 0.11832,-0.55709 0,-0.79375 -0.0394,-0.0789 -0.1857,0.0394 -0.26459,0 -0.11155,-0.0558 -0.15302,-0.2088 -0.26458,-0.26458 -0.0785,-0.0392 -1.33159,0 -1.5875,0 -0.31718,0 -1.96983,-0.0489 -2.11667,0 -0.11832,0.0394 -0.14625,0.22514 -0.26458,0.26458 -0.16734,0.0558 -0.3562,-0.0346 -0.52917,0 -0.30733,0.0615 -1.02053,0.32758 -1.32291,0.52917 -0.74919,0.49946 0.50144,0.16984 -1.05834,0.79375 -0.16377,0.0655 -0.36182,-0.0558 -0.52916,0 -0.23665,0.0789 -0.32161,0.3908 -0.52917,0.52917 -0.16409,0.10939 -0.36508,0.15519 -0.52917,0.26458 -0.20755,0.13837 -0.29251,0.45028 -0.52916,0.52917 -0.16734,0.0558 -0.3824,-0.0978 -0.52917,0 -0.16409,0.10939 -0.12513,0.38972 -0.26458,0.52916 -0.13945,0.13945 -0.38972,0.12514 -0.52917,0.26459 -0.13945,0.13945 -0.12513,0.38972 -0.26458,0.52916 -0.12473,0.12473 -0.3714,-0.0789 -0.52917,0 -0.11156,0.0558 -0.17639,0.17639 -0.26458,0.26459 -0.0882,0.0882 -0.20881,0.15302 -0.26459,0.26458 -0.0394,0.0789 0.0873,0.27706 0,0.26458 -0.63561,-0.0908 -1.23472,-0.35277 -1.85208,-0.52916"
       id="path4592"
       inkscape:connector-curvature="0" />
    <flowRoot
       xml:space="preserve"
       id="flowRoot4594"
       style="font-style:normal;font-weight:normal;font-size:40px;line-height:1.25;font-family:sans-serif;letter-spacing:0px;word-spacing:0px;fill:#000000;fill-opacity:1;stroke:none"
       transform="matrix(0.26458333,0,0,0.26458333,0,11.249983)"><flowRegion
         id="flowRegion4596"><rect
           id="rect4598"
           width="352"
           height="64"
           x="656"
           y="656" /></flowRegion><flowPara
         id="flowPara4600">The hoop scrolls</flowPara></flowRoot>    <path
       style="fill:none;stroke:#000000;stroke-width:0.26458332px;stroke-linecap:butt;stroke-linejoin:miter;stroke-opacity:1"
       d="m 135.46666,210.21665 c -0.52916,-0.17639 -1.15899,-0.17208 -1.5875,-0.52917 -0.20325,-0.16938 0,-0.52917 0,-0.79375 0,-0.26458 0,-0.52917 0,-0.79375 0,-0.89856 -0.10253,-1.78923 0.26459,-2.64583 0.25052,-0.58456 0.77391,-1.01866 1.05833,-1.5875 0.2124,-0.4248 0.2442,-0.94297 0.52917,-1.32292 0.26458,-0.35278 0.81372,-0.42684 1.05833,-0.79375 0.30941,-0.46411 0.30945,-1.07481 0.52917,-1.5875 0.0491,-0.11464 0.2088,-0.15302 0.26458,-0.26458 0.12473,-0.24945 0.13986,-0.5443 0.26458,-0.79375 0.22999,-0.45997 0.53861,-0.87642 0.79375,-1.32292 0.29308,-0.51288 0.50068,-1.07462 0.79375,-1.5875 0.48693,-0.85211 0.89521,-1.11868 1.32292,-2.11667 0.0695,-0.16212 -0.0908,-0.37791 0,-0.52916 0.19252,-0.32086 0.60124,-0.4729 0.79375,-0.79375 0.0908,-0.15125 -0.10583,-0.38806 0,-0.52917 0.1908,-0.25439 0.5689,-0.30431 0.79375,-0.52917 0.13945,-0.13944 0.16312,-0.36006 0.26458,-0.52916 0.16361,-0.27268 0.33838,-0.53936 0.52917,-0.79375 0.0748,-0.0998 0.20881,-0.15303 0.26458,-0.26459 0.89419,-1.78836 0.0964,-0.92868 1.32292,-2.64583 0.14499,-0.20299 0.3908,-0.32161 0.52917,-0.52917 0.21878,-0.32817 0.25027,-0.77943 0.52916,-1.05833 0.44971,-0.4497 1.1378,-0.60863 1.5875,-1.05833 0.2789,-0.2789 0.25028,-0.77944 0.52917,-1.05834 0.19721,-0.19721 0.5617,-0.10987 0.79375,-0.26458 0.31134,-0.20755 0.55421,-0.5063 0.79375,-0.79375 0.20357,-0.24429 0.25649,-0.63014 0.52917,-0.79375 0.22688,-0.13613 0.56687,0.13613 0.79375,0 0.27267,-0.1636 0.28086,-0.5951 0.52916,-0.79375 0.21779,-0.17422 0.5443,-0.13986 0.79375,-0.26458 0.11156,-0.0558 0.17639,-0.17639 0.26459,-0.26459 0.26458,-0.26458 0.50156,-0.56 0.79375,-0.79375 0.61251,-0.49 1.06296,-0.17047 1.85208,-0.52916 0.57898,-0.26317 1.00634,-0.80004 1.5875,-1.05834 0.24178,-0.10745 0.59286,0.17219 0.79375,0 2.00967,-1.72256 0.0352,-1.42284 2.11667,-2.11666 0.81671,-0.59939 1.79359,-0.0211 2.64583,-0.26459 0.23985,-0.0685 0.32161,-0.39079 0.52917,-0.52916 0.32817,-0.21879 0.70555,-0.35278 1.05833,-0.52917 0.17639,-0.0882 0.34208,-0.20222 0.52917,-0.26458 0.28115,-0.0937 0.77718,0.0937 1.05833,0 0.11833,-0.0394 0.15303,-0.20881 0.26458,-0.26459 0.0789,-0.0394 0.17639,0 0.26459,0 0.0882,0 0.17639,0 0.26458,0 0.52917,0 1.05833,0 1.5875,0 1.23472,0 2.46944,0 3.70417,0 0.0882,0 0.17639,0 0.26458,0 0.0882,0 0.20651,0.0664 0.26458,0 0.58077,-0.66373 1.05834,-1.41111 1.5875,-2.11666"
       id="path4602"
       inkscape:connector-curvature="0" />
    <path
       style="fill:none;stroke:#000000;stroke-width:0.26458332px;stroke-linecap:butt;stroke-linejoin:miter;stroke-opacity:1"
       d="m 169.33333,167.88331 c 0.52917,-0.17639 1.0886,-0.77861 1.5875,-0.52916 0.0354,0.0177 0,2.47138 0,3.43958 0,1.94028 0,3.88056 0,5.82083 0,0.79375 0,1.5875 0,2.38125 0,0.17639 0.0346,0.35621 0,0.52917 -0.0547,0.27348 -0.26458,0.51486 -0.26458,0.79375 0,0.0882 0.17639,0 0.26458,0 0.17639,0 0.35278,0 0.52917,0 0.17639,0 0.35277,0 0.52916,0 0.17639,0 0.37141,0.0789 0.52917,0 0.22312,-0.11156 0.32161,-0.39079 0.52917,-0.52917 0.0734,-0.0489 0.17639,0 0.26458,0 0.26458,0 0.53431,0.0519 0.79375,0 0.19338,-0.0387 0.33785,-0.21675 0.52917,-0.26458 0.34224,-0.0856 0.72366,0.11156 1.05833,0 0.11833,-0.0394 0.14358,-0.23433 0.26458,-0.26458 0.33203,-0.083 0.72631,0.083 1.05834,0 2.20226,-0.55057 -0.31938,0.0182 1.32291,-0.52917 0.0837,-0.0279 0.1857,0.0394 0.26459,0 0.28442,-0.14221 0.50933,-0.38696 0.79375,-0.52917 0.15027,-0.0751 1.87287,0.0488 2.11666,0 0.19338,-0.0387 0.34208,-0.20222 0.52917,-0.26458 0.16734,-0.0558 0.36183,0.0558 0.52917,0 0.18709,-0.0624 0.34207,-0.20222 0.52916,-0.26458 0.16734,-0.0558 0.38241,0.0978 0.52917,0 0.20756,-0.13837 0.32161,-0.3908 0.52917,-0.52917 0.091,-0.0607 0.73575,0.058 0.79375,0 0.0624,-0.0624 -0.0624,-0.20222 0,-0.26458 0.0624,-0.0624 0.17902,0.0214 0.26458,0 0.27057,-0.0676 0.52318,-0.19695 0.79375,-0.26459 0.72028,-0.18007 -0.37817,0.59732 1.05833,-0.26458 0.21391,-0.12834 0.32162,-0.39079 0.52917,-0.52917 0.14677,-0.0978 0.36183,0.0558 0.52917,0 0.18709,-0.0624 0.34207,-0.20222 0.52916,-0.26458 0.16734,-0.0558 0.40445,0.12473 0.52917,0 0.0624,-0.0624 -0.0624,-0.20222 0,-0.26458 0.0706,-0.0706 1.15395,0.0563 1.32292,0 0.18709,-0.0624 0.36508,-0.15519 0.52916,-0.26459 0.10378,-0.0692 0.26459,-0.13985 0.26459,-0.26458 0,-0.0882 -0.17639,0 -0.26459,0 -0.26458,0 -0.53276,0.0435 -0.79375,0 -0.2751,-0.0459 -0.517,-0.22999 -0.79375,-0.26458 -0.43756,-0.0547 -0.8905,0.0865 -1.32291,0 -0.46572,-0.0931 -0.86625,-0.39869 -1.32292,-0.52917 -0.1696,-0.0485 -0.35278,0 -0.52917,0 -0.26458,0 -0.52916,0 -0.79375,0 -0.0882,0 -0.1857,0.0394 -0.26458,0 -0.11156,-0.0558 -0.14626,-0.22514 -0.26458,-0.26458 -0.001,-5.3e-4 -0.7935,2.5e-4 -0.79375,0 -0.13945,-0.13945 -0.1005,-0.41978 -0.26459,-0.52917 -0.19065,-0.1271 -1.04453,0.0928 -1.32291,0 -0.18709,-0.0624 -0.34208,-0.20222 -0.52917,-0.26458 -0.16734,-0.0558 -0.3824,0.0978 -0.52917,0 -0.17639,-0.17639 -0.35277,-0.35278 -0.52916,-0.52917 -0.0882,0 -0.1857,0.0394 -0.26459,0 -0.11155,-0.0558 -0.14625,-0.22514 -0.26458,-0.26458 -0.16734,-0.0558 -0.3824,0.0978 -0.52917,0 -0.16408,-0.10939 -0.12513,-0.38972 -0.26458,-0.52917 -2.5e-4,-2.5e-4 -0.79255,5.3e-4 -0.79375,0 -0.11832,-0.0394 -0.14626,-0.22514 -0.26458,-0.26458 -0.16734,-0.0558 -0.3714,0.0789 -0.52917,0 -0.0789,-0.0394 0.0624,-0.20222 0,-0.26459 -0.13945,-0.13944 -0.38972,-0.12513 -0.52917,-0.26458 -0.13944,-0.13945 -0.12513,-0.38972 -0.26458,-0.52917 -0.0624,-0.0624 -0.18091,0.0279 -0.26458,0 -0.18709,-0.0624 -0.34208,-0.20222 -0.52917,-0.26458 -0.16734,-0.0558 -0.35804,0.0428 -0.52917,0 -0.34421,-0.0861 -0.99445,-0.31019 -1.32291,-0.52917 -1.2121,-0.80806 1.12463,0.43003 -0.79375,-0.52916 -0.17639,-0.0882 -0.34208,-0.20222 -0.52917,-0.26459 -0.0837,-0.0279 -0.20222,0.0624 -0.26458,0 -0.13945,-0.13944 -0.12514,-0.38971 -0.26459,-0.52916 -0.13944,-0.13945 -0.34207,-0.20222 -0.52916,-0.26459 -0.0837,-0.0279 -0.35278,0 -0.26459,0 0.52917,0 1.05834,0 1.5875,0"
       id="path4606"
       inkscape:connector-curvature="0" />
    <flowRoot
       xml:space="preserve"
       id="flowRoot4608"
       style="font-style:normal;font-weight:normal;font-size:40px;line-height:1.25;font-family:sans-serif;letter-spacing:0px;word-spacing:0px;fill:#000000;fill-opacity:1;stroke:none"
       transform="matrix(0.26458333,0,0,0.26458333,0,11.249983)"><flowRegion
         id="flowRegion4610"><rect
           id="rect4612"
           width="432"
           height="48.000008"
           x="720"
           y="592" /></flowRegion><flowPara
         id="flowPara4614">Selector lens stays</flowPara></flowRoot>    <path
       style="fill:none;stroke:#000000;stroke-width:0.26458332px;stroke-linecap:butt;stroke-linejoin:miter;stroke-opacity:1"
       d="m 169.33333,231.38331 c 0.0563,-1.32677 -0.30545,-2.73999 0.169,-3.98031 0.18374,-0.48032 1.13308,-0.0106 1.49671,-0.37418 0.87148,-0.87148 0.0592,-2.04836 0.37418,-2.99342 0.14221,-0.42663 0.58134,-0.70499 0.74835,-1.12253 0.0927,-0.23161 0,-0.4989 0,-0.74836 0,-0.4989 0,-0.9978 0,-1.49671 0,-0.37417 -0.0907,-0.75952 0,-1.12253 0.16291,-0.65161 0.44798,-1.27013 0.74836,-1.87089 0.0789,-0.15776 0.3314,-0.20305 0.37418,-0.37417 0.0907,-0.36301 0,-0.74836 0,-1.12253 0.24945,-0.49891 0.54119,-0.97882 0.74835,-1.49671 0.0463,-0.11581 0,-0.24945 0,-0.37418 0,-0.49891 -0.0978,-1.0075 0,-1.49671 0.0346,-0.17296 0.27633,-0.22741 0.37418,-0.37418 0.1547,-0.23205 0.30653,-0.47778 0.37417,-0.74835 0.15126,-0.60501 -0.1223,-1.25937 0,-1.87089 0.47257,-2.36284 0.0762,-0.0762 0.74836,-0.74835 0.94514,-0.94514 0.14378,-0.43135 0.37418,-1.12254 0.0882,-0.26458 0.28598,-0.48377 0.37417,-0.74835 0.0395,-0.11833 -0.0394,-0.25585 0,-0.37418 0.12473,-0.24945 0.24946,-0.4989 0.37418,-0.74835 0.12473,0 0.28598,0.0882 0.37418,0 0.0882,-0.0882 -0.0882,-0.28599 0,-0.37418 0.0882,-0.0882 0.28598,0.0882 0.37418,0 0.0882,-0.0882 -0.0882,-0.28598 0,-0.37418 0.59104,-0.59104 2.11423,-0.37418 2.99342,-0.37418 1.37198,0 2.74396,0 4.11595,0 0.37417,0 0.74835,0 1.12253,0 0.12472,0 0.30588,-0.10436 0.37417,0 0.19602,0.29952 0.20036,0.68731 0.30053,1.03096"
       id="path4616"
       inkscape:connector-curvature="0" />
    <path
       style="fill:none;stroke:#000000;stroke-width:0.26458332px;stroke-linecap:butt;stroke-linejoin:miter;stroke-opacity:1"
       d="m 186.26666,201.74998 c -0.34962,0.0696 -0.97923,0.55858 -1.04888,0.20896 -0.0696,-0.34963 1.1188,-0.55853 1.04888,-0.20896 -0.16474,0.82372 -1.00166,1.35316 -1.42306,2.07984 -0.12147,0.20948 0.11108,1.38564 0,1.49671 -0.19721,0.19721 -0.59365,0.14212 -0.74835,0.37418 -0.13837,0.20756 0,0.4989 0,0.74836 0,0.87308 0,1.74616 0,2.61924 0,0.23464 -0.0462,1.45049 0,1.49671 0.0363,0.0363 1.7283,0 1.87088,0 1.37199,0 2.74397,0 4.11596,0 0.2156,0 1.7345,0.0682 1.87088,0 0.40223,-0.20112 0.70499,-0.58134 1.12253,-0.74836 0.26127,-0.1045 1.36797,0.12875 1.49671,0 0.17639,-0.17639 -0.11155,-0.52524 0,-0.74835 0.0789,-0.15777 0.24945,-0.24946 0.37418,-0.37418 0.12473,-0.12473 0.21641,-0.29529 0.37418,-0.37418 0.22311,-0.11156 0.57196,0.17639 0.74835,0 0.4989,-0.4989 -0.79375,-0.35905 0.37418,-0.74835 0.4733,-0.15777 1.02341,0.15776 1.49671,0 0.16734,-0.0558 0.20684,-0.3184 0.37418,-0.37418 0.23665,-0.0789 0.52523,0.11156 0.74835,0 0.11156,-0.0558 -0.0882,-0.28598 0,-0.37418 0.58233,-0.58233 1.16028,-0.11324 1.49671,-1.12253 0.0558,-0.16734 -0.21641,-0.29529 -0.37418,-0.37418 -0.11155,-0.0558 -0.24945,0 -0.37417,0 -0.24946,0 -0.49891,0 -0.74836,0 -0.19566,0 -1.39832,0.0492 -1.49671,0 -0.15776,-0.0789 -0.21641,-0.29529 -0.37417,-0.37418 -0.22312,-0.11155 -0.52524,0.11156 -0.74836,0 -0.15777,-0.0789 -0.20684,-0.31839 -0.37418,-0.37417 -0.23665,-0.0789 -0.52524,0.11156 -0.74835,0 -0.31554,-0.15777 -0.45483,-0.55267 -0.74836,-0.74836 -0.10377,-0.0692 -0.26261,0.0558 -0.37417,0 -0.15777,-0.0789 -0.21641,-0.29529 -0.37418,-0.37417 -0.23868,-0.11934 -1.77085,0.10003 -1.87089,0 -0.19721,-0.19721 -0.14212,-0.59365 -0.37418,-0.74836 -0.20755,-0.13837 -0.5117,0.0789 -0.74835,0 -0.16734,-0.0558 -0.21641,-0.29529 -0.37418,-0.37418 -0.11155,-0.0558 -0.25585,0.0394 -0.37417,0 -0.26459,-0.0882 -0.48378,-0.28598 -0.74836,-0.37417 -0.23665,-0.0789 -0.52524,0.11155 -0.74835,0 -0.15777,-0.0789 -0.24945,-0.24945 -0.37418,-0.37418 0,-0.12473 0.11156,-0.3184 0,-0.37418 -0.56228,-0.28114 -1.61414,0.39041 -1.94454,0.5394 z"
       id="path4618"
       inkscape:connector-curvature="0" />
    <flowRoot
       xml:space="preserve"
       id="flowRoot4620"
       style="font-style:normal;font-weight:normal;font-size:40px;line-height:1.25;font-family:sans-serif;letter-spacing:0px;word-spacing:0px;fill:#000000;fill-opacity:1;stroke:none"
       transform="matrix(0.26458333,0,0,0.26458333,0,11.249983)"><flowRegion
         id="flowRegion4622"><rect
           id="rect4624"
           width="752"
           height="48.000011"
           x="752"
           y="720" /></flowRegion><flowPara
         id="flowPara4626">Menu scrolls according to the hoop</flowPara></flowRoot>    <flowRoot
       xml:space="preserve"
       id="flowRoot4628"
       style="fill:black;fill-opacity:1;stroke:none;font-family:'Times New Roman';font-style:normal;font-weight:normal;font-size:40px;line-height:1.25;letter-spacing:0px;word-spacing:0px;-inkscape-font-specification:'Times New Roman, ';font-stretch:normal;font-variant:normal;"><flowRegion
         id="flowRegion4630"
         style="-inkscape-font-specification:'Times New Roman, ';font-family:'Times New Roman';font-weight:normal;font-style:normal;font-stretch:normal;font-variant:normal;"><rect
           id="rect4632"
           width="1296"
           height="160"
           x="16"
           y="16"
           style="-inkscape-font-specification:'Times New Roman, ';font-family:'Times New Roman';font-weight:normal;font-style:normal;font-stretch:normal;font-variant:normal;" /></flowRegion><flowPara
         id="flowPara4634" /></flowRoot>    <flowRoot
       xml:space="preserve"
       id="flowRoot4636"
       style="font-style:normal;font-weight:normal;font-size:40px;line-height:1.25;font-family:sans-serif;letter-spacing:0px;word-spacing:0px;fill:#000000;fill-opacity:1;stroke:none"
       transform="matrix(0.26458333,0,0,0.26458333,0,11.249983)"><flowRegion
         id="flowRegion4638"><rect
           id="rect4640"
           width="1360"
           height="176"
           x="16"
           y="16" /></flowRegion><flowPara
         id="flowPara4642"
         style="font-style:normal;font-variant:normal;font-weight:normal;font-stretch:normal;font-family:'Times New Roman';-inkscape-font-specification:'Times New Roman, ';font-size:96.00000121px">The Quest of Fidgets</flowPara></flowRoot>    <flowRoot
       xml:space="preserve"
       id="flowRoot4644"
       style="font-style:normal;font-weight:normal;font-size:40px;line-height:1.25;font-family:sans-serif;letter-spacing:0px;word-spacing:0px;fill:#000000;fill-opacity:1;stroke:none"
       transform="matrix(0.26458333,0,0,0.26458333,0,11.249983)"><flowRegion
         id="flowRegion4646"><rect
           id="rect4648"
           width="1200"
           height="48.000015"
           x="560"
           y="1008" /></flowRegion><flowPara
         id="flowPara4650">[DLEFT][DRIGHT] Navigate  [YES] Select  [NO] Back</flowPara></flowRoot>    <flowRoot
       xml:space="preserve"
       id="flowRoot4662"
       style="font-style:normal;font-weight:normal;font-size:40px;line-height:1.25;font-family:sans-serif;letter-spacing:0px;word-spacing:0px;fill:#000000;fill-opacity:1;stroke:none"
       transform="matrix(0.26458333,0,0,0.26458333,0,11.249983)"><flowRegion
         id="flowRegion4664"><rect
           id="rect4666"
           width="288"
           height="48"
           x="1616"
           y="16" /></flowRegion><flowPara
         id="flowPara4668"
         style="-inkscape-font-specification:'Courier New';font-family:'Courier New';font-weight:normal;font-style:normal;font-stretch:normal;font-variant:normal">PROTOTYPE</flowPara></flowRoot>  </g>
</svg>
