<?xml version="1.0" encoding="UTF-8" standalone="no"?>
<!-- Created with Inkscape (http://www.inkscape.org/) -->

<svg
   xmlns:dc="http://purl.org/dc/elements/1.1/"
   xmlns:cc="http://creativecommons.org/ns#"
   xmlns:rdf="http://www.w3.org/1999/02/22-rdf-syntax-ns#"
   xmlns:svg="http://www.w3.org/2000/svg"
   xmlns="http://www.w3.org/2000/svg"
   xmlns:xlink="http://www.w3.org/1999/xlink"
   xmlns:sodipodi="http://sodipodi.sourceforge.net/DTD/sodipodi-0.dtd"
   xmlns:inkscape="http://www.inkscape.org/namespaces/inkscape"
   width="1920"
   height="1080"
   viewBox="0 0 1920 1080"
   version="1.1"
   id="svg8"
   inkscape:version="0.92.4 (5da689c313, 2019-01-14)"
   sodipodi:docname="AfterChurchThumb.svg"
   inkscape:export-filename="C:\Users\joelr\Documents\starring codes\After Church\Rendered\Thumb\AfterChurchThumb-10may2020.png"
   inkscape:export-xdpi="96"
   inkscape:export-ydpi="96">
  <defs
     id="defs2">
    <linearGradient
       inkscape:collect="always"
       id="linearGradient9372">
      <stop
         style="stop-color:#000001;stop-opacity:1"
         offset="0"
         id="stop9368" />
      <stop
         id="stop9376"
         offset="0.5"
         style="stop-color:#7f2d40;stop-opacity:1" />
      <stop
         style="stop-color:#e570ec;stop-opacity:1"
         offset="0.75"
         id="stop9378" />
      <stop
         id="stop9380"
         offset="0.875"
         style="stop-color:#f2c9b6;stop-opacity:1" />
      <stop
         style="stop-color:#ffed80;stop-opacity:1"
         offset="1"
         id="stop9370" />
    </linearGradient>
    <linearGradient
       id="linearGradient4561"
       inkscape:collect="always">
      <stop
         id="stop4557"
         offset="0"
         style="stop-color:#0affff;stop-opacity:1" />
      <stop
         style="stop-color:#ff7d00;stop-opacity:1"
         offset="0.5"
         id="stop4565" />
      <stop
         id="stop4569"
         offset="0.75"
         style="stop-color:#7fbeff;stop-opacity:1" />
      <stop
         id="stop4559"
         offset="1"
         style="stop-color:#0007ff;stop-opacity:1" />
    </linearGradient>
    <linearGradient
       id="linearGradient4551"
       inkscape:collect="always">
      <stop
         id="stop4547"
         offset="0"
         style="stop-color:#ff00ff;stop-opacity:1" />
      <stop
         style="stop-color:#bafffb;stop-opacity:1"
         offset="0.25"
         id="stop4567" />
      <stop
         style="stop-color:#00fff8;stop-opacity:1"
         offset="0.5"
         id="stop4555" />
      <stop
         id="stop4549"
         offset="1"
         style="stop-color:#00ff00;stop-opacity:1" />
    </linearGradient>
    <linearGradient
       gradientUnits="userSpaceOnUse"
       y2="779.1333"
       x2="2048"
       y1="779.1333"
       x1="0"
       id="linearGradient4553"
       xlink:href="#linearGradient4551"
       inkscape:collect="always" />
    <linearGradient
       gradientUnits="userSpaceOnUse"
       y2="715.1333"
       x2="2048"
       y1="715.1333"
       x1="0"
       id="linearGradient4563"
       xlink:href="#linearGradient4561"
       inkscape:collect="always" />
    <linearGradient
       inkscape:collect="always"
       xlink:href="#linearGradient9372"
       id="linearGradient9374"
       x1="0"
       y1="560"
       x2="1920"
       y2="560"
       gradientUnits="userSpaceOnUse" />
  </defs>
  <sodipodi:namedview
     id="base"
     pagecolor="#ffffff"
     bordercolor="#666666"
     borderopacity="1.0"
     inkscape:pageopacity="0.0"
     inkscape:pageshadow="2"
     inkscape:zoom="0.49497475"
     inkscape:cx="991.56593"
     inkscape:cy="642.72368"
     inkscape:document-units="px"
     inkscape:current-layer="layer3"
     showgrid="true"
     units="px"
     inkscape:window-width="1920"
     inkscape:window-height="1051"
     inkscape:window-x="-9"
     inkscape:window-y="-9"
     inkscape:window-maximized="1"
     inkscape:snap-bbox="true"
     inkscape:bbox-paths="true"
     inkscape:bbox-nodes="true"
     inkscape:snap-bbox-edge-midpoints="true"
     inkscape:snap-bbox-midpoints="true">
    <inkscape:grid
       type="xygrid"
       id="grid4747" />
  </sodipodi:namedview>
  <metadata
     id="metadata5">
    <rdf:RDF>
      <cc:Work
         rdf:about="">
        <dc:format>image/svg+xml</dc:format>
        <dc:type
           rdf:resource="http://purl.org/dc/dcmitype/StillImage" />
        <dc:title></dc:title>
        <cc:license
           rdf:resource="http://creativecommons.org/licenses/by-sa/4.0/" />
      </cc:Work>
      <cc:License
         rdf:about="http://creativecommons.org/licenses/by-sa/4.0/">
        <cc:permits
           rdf:resource="http://creativecommons.org/ns#Reproduction" />
        <cc:permits
           rdf:resource="http://creativecommons.org/ns#Distribution" />
        <cc:requires
           rdf:resource="http://creativecommons.org/ns#Notice" />
        <cc:requires
           rdf:resource="http://creativecommons.org/ns#Attribution" />
        <cc:permits
           rdf:resource="http://creativecommons.org/ns#DerivativeWorks" />
        <cc:requires
           rdf:resource="http://creativecommons.org/ns#ShareAlike" />
      </cc:License>
    </rdf:RDF>
  </metadata>
  <g
     inkscape:groupmode="layer"
     id="layer2"
     inkscape:label="Date">
    <g
       inkscape:groupmode="layer"
       id="layer3"
       inkscape:label="10may2020">
      <rect
         style="opacity:1;fill:url(#linearGradient9374);fill-opacity:1;stroke:none;stroke-width:1.04999995;stroke-linecap:round;stroke-linejoin:round;stroke-miterlimit:4;stroke-dasharray:none;stroke-dashoffset:9.44881916;stroke-opacity:1"
         id="rect9366"
         width="1920"
         height="1080"
         x="0"
         y="0"
         ry="1.6613799e-07" />
      <text
         xml:space="preserve"
         style="font-style:normal;font-variant:normal;font-weight:500;font-stretch:normal;font-size:96px;line-height:1.25;font-family:Ubuntu;-inkscape-font-specification:'Ubuntu Medium';text-align:start;letter-spacing:0px;word-spacing:0px;text-anchor:start;fill:#000000;fill-opacity:1;stroke:#ffffff;stroke-width:2;stroke-miterlimit:4;stroke-dasharray:none;stroke-opacity:1"
         x="40"
         y="520"
         id="text9384"><tspan
           sodipodi:role="line"
           id="tspan9382"
           x="40"
           y="520">The Weeks of Bad Lucks</tspan></text>
      <path
         style="fill:#ff0000;stroke:#000000;stroke-width:1px;stroke-linecap:butt;stroke-linejoin:miter;stroke-opacity:1"
         d="m 280,480 c 3.63669,2.45534 -3.1455,7.99471 -1.42857,11.42857 0.21296,0.42592 0.95238,0 1.42857,0 1.42857,0 2.93045,-0.45175 4.28571,0 0.63888,0.21296 0.82624,1.1274 1.42858,1.42857 0.91123,0.45562 6.76093,-0.38192 7.14285,0 0.33672,0.33672 -0.33671,1.09186 0,1.42857 0.47091,0.47092 4.68051,-0.34459 5.71429,0 0.63888,0.21296 0.82623,1.12741 1.42857,1.42858 0.42592,0.21295 0.95238,0 1.42857,0 0.47619,0 0.95238,0 1.42857,0 2.38096,0 4.76191,0 7.14286,0 0.95238,0 1.90476,0 2.85714,0 0.47619,0 1.09186,-0.33672 1.42857,0 0.75293,0.75292 0.67565,2.10422 1.42858,2.85714 0.33671,0.33672 0.95238,0 1.42857,0 2.38095,0 4.7619,0 7.14285,0 8.57143,0 17.14286,0 25.71429,0 3.33333,0 6.66667,0 10,0 0.95238,0 1.90476,0 2.85714,0 0.47619,0 1.00266,-0.21296 1.42857,0 0.60234,0.30117 0.82624,1.1274 1.42858,1.42857 0.42591,0.21296 0.95238,0 1.42857,0 0.95238,0 1.90476,0 2.85714,0 3.80952,0 7.61905,0 11.42857,0 8.09524,0 0.47619,-0.95238 2.85714,1.42857 0.33672,0.33672 0.95239,0 1.42858,0 0.47619,0 1.90476,0 1.42857,0 -3.80953,0 -7.61905,0 -11.42857,0 -0.93846,0 -5.37836,-0.16796 -5.71429,0 -0.42592,0.21296 0.33672,1.09186 0,1.42857 -0.0459,0.046 -3.93925,0 -4.28571,0 -1.90477,0 -3.80953,0 -5.71429,0 -0.47619,0 -1.21561,-0.42592 -1.42857,0 -0.42592,0.85184 0.67343,2.18371 0,2.85715 -0.67344,0.67343 -1.90476,0 -2.85714,0 -3.33334,0 -6.66667,0 -10,0 -9.52381,0 -19.04762,0 -28.57143,0 -2.85715,0 -5.71429,0 -8.57143,0 -0.95238,0 -1.90476,0 -2.85714,0 -0.47619,0 -1.00266,0.21295 -1.42858,0 -0.60233,-0.30117 -0.82623,-1.12741 -1.42857,-1.42858 -0.42591,-0.21295 -0.95238,0 -1.42857,0 -0.95238,0 -1.90476,0 -2.85714,0 -2.38095,0 -4.76191,0 -7.14286,0 -0.47619,0 -0.95238,0 -1.42857,0 -0.47619,0 -1.09185,0.33672 -1.42857,0 -1.90476,-1.90476 2.38095,-1.42857 -1.42857,-1.42857 -1.42857,0 -2.85715,0 -4.28572,0 -0.47619,0 -1.09185,0.33672 -1.42857,0 -0.33672,-0.33671 0.33672,-1.09185 0,-1.42857 -0.33187,-0.33188 -5.65906,0.11045 -5.71428,0 -0.42592,-0.85183 0.42591,-2.00531 0,-2.85714 -0.21296,-0.42592 -1.09186,0.33672 -1.42858,0 -0.33671,-0.33672 0.33672,-1.09186 0,-1.42857 -0.33671,-0.33672 -1.42857,0.47619 -1.42857,0 0,-0.47619 0.95238,0 1.42857,0 0.95239,0 1.90477,0 2.85715,0 2.85714,0 5.71428,0 8.57143,0 1.12444,0 7.02814,0.11471 7.14285,0 0.33672,-0.33672 -0.33671,-1.09186 0,-1.42857 0.33672,-0.33672 0.95238,0 1.42857,0 0.47619,0 0.95239,0 1.42858,0 3.80952,0 7.61904,0 11.42857,0 6.66666,0 13.33333,0 20,0 1.28298,0 8.29917,-0.18151 8.57143,0 1.12066,0.7471 1.65246,2.2548 2.85714,2.85714 0.85183,0.42592 1.90476,0 2.85714,0 2.38095,0 4.76191,0 7.14286,0 0.93872,0 3.47972,-0.26867 4.28571,0 1.01016,0.33672 1.82414,1.17032 2.85715,1.42857 1.38591,0.34648 2.93045,-0.45175 4.28571,0 1.01015,0.33672 1.84699,1.09185 2.85714,1.42857 0.90351,0.30117 1.90476,0 2.85715,0 2.38095,0 4.7619,0 7.14285,0 0.47619,0 0.96163,-0.0934 1.42857,0 1.92526,0.38505 3.78903,1.04352 5.71429,1.42857 2.72109,0.54422 1.36054,-1.63265 5.71429,0 2.59985,0.97495 4.65935,3.04396 7.14285,4.28572 0.86746,0.43373 7.70397,-0.43373 8.57143,0 0.60234,0.30117 0.7897,1.21561 1.42857,1.42857 1.28572,0.42857 3,-0.42857 4.28572,0 1.01015,0.33672 1.82414,1.17032 2.85714,1.42857 1.47984,0.36996 4.0762,0 5.71429,0 0.47619,0 1.21561,-0.42592 1.42857,0 0.42592,0.85184 -0.67344,2.18371 0,2.85714 1.42857,1.42857 2.85714,-0.71428 4.28571,0 0.60234,0.30117 0.82623,1.1274 1.42857,1.42857 0.42592,0.21296 0.95238,0 1.42857,0 0.95239,0 1.90477,0 2.85715,0 0.47619,0 -0.95238,0 -1.42857,0 -4.59851,0 2.43872,-0.33671 -2.85715,1.42858 -0.9035,0.30116 -1.90476,0 -2.85714,0 -1.65361,0 -5.86745,-0.31886 -7.14286,0 -8.26979,2.06744 3.7552,1.42857 -7.14285,1.42857 -0.46915,0 -4.07287,-0.14191 -4.28572,0 -1.12066,0.74711 -1.73648,2.11003 -2.85714,2.85714 -0.21285,0.1419 -3.81657,0 -4.28572,0 -2.38095,0 -4.7619,0 -7.14285,0 -1.42857,0 -2.8715,-0.20203 -4.28572,0 -2.86744,0.40963 -5.69259,1.1087 -8.57143,1.42857 -1.41983,0.15776 -2.85714,0 -4.28571,0 -3.33333,0 -6.66667,0 -10,0 -0.98646,0 -5.27995,-0.21717 -5.71429,0 -0.60233,0.30117 -0.75847,1.36156 -1.42857,1.42857 -4.26444,0.42645 -8.57143,0 -12.85714,0 -5.71429,0 -11.42857,0 -17.14286,0 -19.04762,0 -38.09524,0 -57.14285,0 -4.76191,0 -9.52381,0 -14.28572,0 -0.20391,0 -6.89677,0.16406 -7.14286,0 -1.65457,-1.10305 -3.83814,-3.30471 -2.85714,-4.28571 0.0459,-0.0459 3.93925,0 4.28572,0 1.42857,0 2.85714,0 4.28571,0 0.47619,0 1.09185,0.33672 1.42857,0 1.90476,-1.90476 -2.38095,-1.42857 1.42857,-1.42857 0.95238,0 1.90476,0 2.85715,0 0.47619,0 1.09185,0.33671 1.42857,0 0.33671,-0.33672 -0.33672,-1.09186 0,-1.42857 0.67343,-0.67344 2.43122,0.85183 2.85714,0 0.42592,-0.85184 -0.67343,-2.18371 0,-2.85715 0.27558,-0.27558 4.55824,0.23121 5.71429,0 1.4766,-0.29532 2.82482,-1.06335 4.28571,-1.42857 0.92395,-0.23099 2.00531,0.42592 2.85714,0 0.60234,-0.30117 0.7897,-1.21561 1.42857,-1.42857 0.90351,-0.30117 1.90477,0 2.85715,0 0.47619,0 1.00265,0.21296 1.42857,0 0.60234,-0.30117 0.82623,-1.1274 1.42857,-1.42857 0.42592,-0.21296 0.95238,0 1.42857,0 0.95238,0 1.90476,0 2.85714,0 3.33334,0 6.66667,0 10,0 3.80953,0 7.61905,0 11.42858,0 0.95238,0 2.06471,0.52828 2.85714,0 0.88596,-0.59064 0.47619,-2.38095 1.42857,-2.85714 0.46032,-0.23016 8.74172,0 10,0 6.19048,0 12.38095,0 18.57143,0 1.16784,0 9.27595,-0.24135 10,0 0.63888,0.21295 0.82623,1.1274 1.42857,1.42857 0.42592,0.21296 1.00265,-0.21296 1.42857,0 0.60234,0.30117 0.7897,1.21561 1.42857,1.42857 0.006,0.002 4.28435,-0.001 4.28572,0 0.33671,0.33672 0,0.95238 0,1.42857 0.47619,0.95238 0.67565,2.10422 1.42857,2.85714 0.33672,0.33672 1.09185,-0.33671 1.42857,0 0.33672,0.33672 -0.42592,1.21562 0,1.42857 2.93764,1.46882 4.28571,-2.42773 4.28571,1.42858 0,0.47619 0.33672,1.09185 0,1.42857 -0.33671,0.33671 -0.95238,0 -1.42857,0 -0.97169,0 -6.85848,-0.18959 -7.14285,0 -0.88597,0.59064 -0.67565,2.10422 -1.42858,2.85714 -0.33671,0.33672 -0.95238,0 -1.42857,0 -0.47619,0 -0.95238,0 -1.42857,0 -5.71428,0 -11.42857,0 -17.14286,0 -4.60171,0 -9.76964,0.32258 -14.28571,0 -4.77349,-0.34096 -9.51971,-0.9953 -14.28571,-1.42857 -0.94847,-0.0862 -2.00531,0.42592 -2.85715,0 -0.60234,-0.30117 -0.78969,-1.21561 -1.42857,-1.42857 -1.78642,-0.59548 -8.21357,0.59547 -10,0 -0.63887,-0.21296 -0.82623,-1.12741 -1.42857,-1.42857 -0.85184,-0.42592 -2.06471,0.52828 -2.85714,0 -1.12067,-0.74711 -1.56708,-2.47013 -2.85715,-2.85715 -3.67725,-1.10317 -7.66395,-0.67565 -11.42857,-1.42857 C 271.81303,511.21975 271.01015,510.33672 270,510 c -0.45175,-0.15058 -1.00265,0.21296 -1.42857,0 -0.60234,-0.30117 -0.82623,-1.1274 -1.42857,-1.42857 -0.88488,-0.44244 -5.2916,0.42269 -5.71429,0 -0.75292,-0.75292 -0.67565,-2.10422 -1.42857,-2.85714 -0.33672,-0.33672 -0.97682,0.15058 -1.42857,0 -1.01015,-0.33672 -1.84699,-1.09186 -2.85714,-1.42858 -0.90351,-0.30117 -1.97288,0.35371 -2.85715,0 -13.49206,-5.39682 -1.3492,0.0794 -7.14285,-5.71428 -0.33672,-0.33672 -0.97682,0.15058 -1.42858,0 -1.01015,-0.33672 -1.82414,-1.17032 -2.85714,-1.42857 -0.92394,-0.23099 -2.00531,0.42591 -2.85714,0 -0.42592,-0.21296 0.39621,-1.16443 0,-1.42857 -1.25294,-0.8353 -3.08104,-0.52507 -4.28572,-1.42858 -0.85183,-0.63887 -0.67564,-2.10422 -1.42857,-2.85714 -0.33671,-0.33672 -1.09185,0.33672 -1.42857,0 -0.33672,-0.33672 0.33672,-1.09185 0,-1.42857 -0.33672,-0.33672 -1.09185,0.33672 -1.42857,0 -0.33672,-0.33672 0.42592,-1.21561 0,-1.42857 -0.85184,-0.42592 -2.00531,0.42592 -2.85714,0 -0.42592,-0.21296 0,-0.95238 0,-1.42857 0,-0.95238 0,-1.90477 0,-2.85715 0,-0.47619 -0.33672,-1.09185 0,-1.42857 0.33671,-0.33671 0.95238,0 1.42857,0 2.38095,0 4.7619,0 7.14286,0 0.47619,0 0.95238,0 1.42857,0 0.47619,0 1.09185,-0.33671 1.42857,0 0.33672,0.33672 -0.42592,1.21562 0,1.42857 0.85183,0.42592 1.95363,-0.30117 2.85714,0 0.63888,0.21296 0.82623,1.12741 1.42857,1.42858 0.85184,0.42591 1.95364,-0.30117 2.85715,0 10.34773,3.44924 -2.2523,-0.41187 4.28571,2.85714 0.42592,0.21296 1.09185,-0.33672 1.42857,0 0.75292,0.75292 0.67565,2.10422 1.42857,2.85714 5.57534,5.57534 0.76722,-0.33068 4.28572,1.42857 1.20467,0.60234 1.57939,2.43123 2.85714,2.85715 0.90351,0.30116 2.06471,-0.52829 2.85714,0 0.88597,0.59064 0.67565,2.10422 1.42857,2.85714 0.33672,0.33672 1.00266,-0.21296 1.42858,0 0.60233,0.30117 0.78969,1.21561 1.42857,1.42857 0.90351,0.30117 2.0053,-0.42592 2.85714,0 0.42592,0.21296 -0.33672,1.09185 0,1.42857 0.33672,0.33672 1.09185,-0.33672 1.42857,0 0.33672,0.33672 -0.33672,1.09186 0,1.42857 0.33672,0.33672 1.09186,-0.33671 1.42857,0 0.75293,0.75293 0.54261,2.2665 1.42857,2.85715 0.79243,0.52828 2.00531,-0.42592 2.85715,0 0.42591,0.21295 -0.33672,1.09185 0,1.42857 0.33671,0.33671 1.00265,-0.21296 1.42857,0 0.60234,0.30117 0.95238,0.95238 1.42857,1.42857 0.47619,0.47619 0.95238,0.95238 1.42857,1.42857 0.95238,0 2.06472,-0.52829 2.85714,0 0.88597,0.59064 0.67565,2.10422 1.42858,2.85714 0.33671,0.33672 1.00265,-0.21296 1.42857,0 3.53806,-0.79199 3.58469,3.22092 5.71428,4.28572 0.42592,0.21296 1.21562,-0.42592 1.42857,0 0.42592,0.85183 -0.42591,2.0053 0,2.85714 0.21296,0.42592 0.97682,-0.15058 1.42858,0 1.01015,0.33672 1.84699,1.09185 2.85714,1.42857 0.45175,0.15059 1.09185,-0.33672 1.42857,0 0.33672,0.33672 -0.33672,1.09186 0,1.42857 0.33672,0.33672 1.09185,-0.33671 1.42857,0 0.33672,0.33672 -0.33672,1.09186 0,1.42857 0.33188,0.33188 5.65906,-0.11044 5.71429,0 0.42592,0.85184 -0.42592,2.00531 0,2.85715 0.42592,0.85183 2.18371,-0.67344 2.85714,0 0.33672,0.33671 -0.42592,1.21561 0,1.42857 0.85184,0.42592 1.90476,0 2.85714,0 0.47619,0 0.95238,0 1.42857,0 0.47619,0 1.09186,0.33672 1.42858,0 0.33671,-0.33672 0,-0.95238 0,-1.42857 0,-2.38096 0,-4.76191 0,-7.14286 0,-0.47619 0.33671,-1.09185 0,-1.42857 -0.75293,-0.75292 -2.10422,-0.67565 -2.85715,-1.42857 -0.11471,-0.11471 0,-6.01841 0,-7.14286 0,-0.76316 0.20443,-6.734 0,-7.14286 -0.30117,-0.60234 -1.21561,-0.78969 -1.42857,-1.42857 -0.45175,-1.35526 0,-2.85714 0,-4.28571 0,-3.33334 0,-6.66667 0,-10 0,-1.90477 0,-3.80953 0,-5.71429 0,-0.47619 -0.33672,-1.09185 0,-1.42857 0.33672,-0.33672 0.95238,0 1.42857,0 0.47619,0 1.09186,-0.33672 1.42857,0 0.33672,0.33672 -0.33671,1.09185 0,1.42857 0.33672,0.33672 1.21562,-0.42592 1.42858,0 0.42591,0.85184 -0.42592,2.00531 0,2.85714 0.21295,0.42592 1.09185,-0.33671 1.42857,0 0.33671,0.33672 -0.42592,1.21562 0,1.42858 0.85183,0.42591 2.0053,-0.42592 2.85714,0 0.42592,0.21295 -0.33672,1.09185 0,1.42857 0.33672,0.33671 1.09185,-0.33672 1.42857,0 0.33672,0.33671 -0.33672,1.09185 0,1.42857 0.33672,0.33672 1.16443,-0.39622 1.42857,0 0.8353,1.25294 0.52507,3.08104 1.42857,4.28571 0.63888,0.85184 2.10422,0.67565 2.85715,1.42857 0.33671,0.33672 -0.33672,1.09186 0,1.42858 0.33671,0.33671 1.21561,-0.42592 1.42857,0 0.42592,0.85183 -0.42592,2.0053 0,2.85714 0.60234,1.20468 1.90476,1.90476 2.85714,2.85714 1.90476,1.90476 4.03152,3.61083 5.71429,5.71429 0.29747,0.37184 -0.21296,1.00265 0,1.42857 0.30117,0.60234 0.95238,0.95238 1.42857,1.42857 1.42857,1.42857 3.07353,2.66947 4.28571,4.28571 0.28572,0.38096 -0.33671,1.09186 0,1.42858 0.33672,0.33671 1.00266,-0.21296 1.42857,0 4.993,2.49649 -2.65989,0.19724 1.42858,4.28571 1.06479,1.06479 3.03277,0.59328 4.28571,1.42857 0.39621,0.26414 -0.21296,1.00265 0,1.42857 0.30117,0.60234 0.95238,0.95238 1.42857,1.42857 1.42857,1.42858 2.85714,2.85715 4.28572,4.28572 0.95238,0.95238 2.2548,1.65246 2.85714,2.85714 0.42592,0.85184 -0.42592,2.00531 0,2.85714 0.21296,0.42592 1.09185,-0.33671 1.42857,0 0.33672,0.33672 0,0.95238 0,1.42858 0.95238,0 2.00531,-0.42592 2.85714,0 0.42592,0.21295 -0.21296,1.00265 0,1.42857 0.30117,0.60234 0.82624,1.1274 1.42857,1.42857 0.42592,0.21296 1.21562,-0.42592 1.42858,0 0.42591,0.85183 -0.30117,1.95363 0,2.85714 0.9197,2.7591 2.42717,0.4993 4.28571,1.42857 0.42592,0.21296 -0.33672,1.09186 0,1.42857 0.33672,0.33672 1.42857,-0.47619 1.42857,0 0,0.47619 -0.95238,0 -1.42857,0 -0.47619,0 -0.95238,0 -1.42857,0 -0.47619,0 -1.21561,0.42592 -1.42857,0 -0.42592,-0.85183 0.30117,-1.95363 0,-2.85714 -0.65769,-1.97305 -3.23559,-1.45697 -4.28572,-2.85714 -0.9035,-1.20468 -0.75513,-2.93885 -1.42857,-4.28572 -0.30117,-0.60233 -1.1274,-0.82623 -1.42857,-1.42857 -0.21296,-0.42592 0.33672,-1.09185 0,-1.42857 -0.33672,-0.33672 -1.09185,0.33672 -1.42857,0 -0.71429,-0.71428 0.71428,-3.57143 0,-4.28571 -0.67344,-0.67344 -2.00531,0.42591 -2.85714,0 -0.85184,-0.42592 0.42591,-2.00531 0,-2.85715 -0.30117,-0.60233 -0.95239,-0.95238 -1.42858,-1.42857 0,-0.95238 0.30117,-1.95363 0,-2.85714 -0.21295,-0.63888 -1.1274,-0.82623 -1.42857,-1.42857 -0.21296,-0.42592 0.21296,-1.00266 0,-1.42857 -0.30117,-0.60234 -1.21561,-0.7897 -1.42857,-1.42857 -0.30117,-0.90351 0.52829,-2.06472 0,-2.85715 -0.59064,-0.88596 -2.10422,-0.67565 -2.85714,-1.42857 -0.33672,-0.33672 0.11549,-0.9666 0,-1.42857 -0.36522,-1.46089 -0.99587,-2.84338 -1.42857,-4.28571 -0.99616,-3.32052 -1.30678,-6.89928 -2.85715,-10 -0.47619,-0.95239 -2.38095,-0.4762 -2.85714,-1.42858 -0.63887,-1.27775 0.34648,-2.89979 0,-4.28571 -0.16333,-0.65333 -1.26524,-0.77524 -1.42857,-1.42857 -0.34648,-1.38592 0.28017,-2.88489 0,-4.28572 -0.20882,-1.04411 -1.03312,-1.8685 -1.42857,-2.85714 -0.55926,-1.39814 -1.06335,-2.82483 -1.42857,-4.28571 -0.1155,-0.46198 0.33671,-1.09186 0,-1.42857 -0.75293,-0.75293 -2.10422,-0.67565 -2.85715,-1.42858 -10e-4,-10e-4 0.002,-4.27924 0,-4.28571 -0.21295,-0.63888 -1.21561,-0.7897 -1.42857,-1.42857 -0.30117,-0.90351 0.42592,-2.00531 0,-2.85714 -0.21296,-0.42592 -1.21561,0.42591 -1.42857,0 -0.57143,-1.14286 0.57143,-3.14286 0,-4.28572 C 331.1274,460.82623 330.30117,460.60234 330,460 c -0.21296,-0.42592 0,-0.95238 0,-1.42857 -0.95238,-0.95238 -2.11003,-1.73648 -2.85714,-2.85714 -0.32753,-0.49129 0.31317,-3.97254 0,-4.28572 -2.38096,-2.38095 -1.42857,5.2381 -1.42857,-2.85714 0,-0.47619 -0.21296,1.00265 0,1.42857 0.30117,0.60234 1.02451,0.88982 1.42857,1.42857 0.66967,0.8929 2.6476,4.62221 4.28571,5.71429 0.75009,0.50006 3.81779,1.45336 4.28572,2.85714 0.30117,0.90351 -0.42592,2.00531 0,2.85714 0.21295,0.42592 1.09185,-0.33671 1.42857,0 0.33671,0.33672 -0.33672,1.09186 0,1.42857 0.33671,0.33672 1.09185,-0.33671 1.42857,0 0.33672,0.33672 -0.33672,1.09186 0,1.42858 0.75292,0.75292 2.10422,0.67564 2.85714,1.42857 0.75292,0.75292 0.83793,1.97118 1.42857,2.85714 0.37356,0.56033 0.95238,0.95238 1.42857,1.42857 0.47619,0.47619 0.86824,1.05502 1.42858,1.42857 0.88596,0.59064 2.10422,0.67565 2.85714,1.42857 1.33935,1.33935 2.38494,4.44711 4.28571,5.71429 11.42857,7.61905 -5.23809,-5.2381 4.28572,4.28571 0.33671,0.33672 1.09185,-0.33671 1.42857,0 0.33672,0.33672 -0.21296,1.00266 0,1.42858 1.09398,2.18796 2.54574,1.11716 4.28571,2.85714 0.75293,0.75292 0.67565,2.10422 1.42857,2.85714 0.33672,0.33672 1.09186,-0.33672 1.42858,0 0.33671,0.33672 -0.33672,1.09186 0,1.42857 0.33671,0.33672 1.09185,-0.33671 1.42857,0 0.33671,0.33672 -0.42592,1.21562 0,1.42857 3.80952,1.90477 1.98646,-2.0203 4.28571,1.42858 0.59064,0.88596 0.67565,2.10422 1.42857,2.85714 0.33672,0.33672 0.97682,-0.15059 1.42857,0 10.34774,3.44924 -2.25229,-0.41186 4.28572,2.85714 0.42592,0.21296 1.09185,-0.33672 1.42857,0 0.33672,0.33672 -0.33672,1.09186 0,1.42857 0.33672,0.33672 1.03236,-0.26414 1.42857,0 1.12067,0.74711 1.73648,2.11004 2.85714,2.85715 0.39622,0.26414 0.98644,-0.17686 1.42858,0 1.97727,0.7909 3.73701,2.06623 5.71428,2.85714 0.44213,0.17685 1.09186,-0.33672 1.42857,0 0.33672,0.33672 -0.33671,1.09185 0,1.42857 0.67344,0.67343 2.00531,-0.42592 2.85715,0 1.53566,0.76783 2.75004,2.08931 4.28571,2.85714 0.42592,0.21296 1.00265,-0.21296 1.42857,0 0.60234,0.30117 0.7897,1.21562 1.42857,1.42857 0.006,0.002 4.28435,-10e-4 4.28572,0 0.33671,0.33672 -0.33672,1.09186 0,1.42858 0.43855,0.43855 6.7043,-0.43856 7.14285,0 0.33672,0.33671 -0.33671,1.09185 0,1.42857 0.33672,0.33671 0.95239,0 1.42858,0 1.42857,0 2.85714,0 4.28571,0 0.47619,0 -0.95238,0 -1.42857,0 -0.47619,0 -0.95238,0 -1.42857,0 -0.47619,0 -1.09186,0.33671 -1.42857,0 -0.33672,-0.33672 0,-0.95238 0,-1.42857 -0.95239,0 -2.06472,0.52828 -2.85715,0 -0.88596,-0.59065 -0.67565,-2.10422 -1.42857,-2.85715 -0.33672,-0.33671 -1.00265,0.21296 -1.42857,0 -6.53801,-3.269 6.06202,0.59211 -4.28571,-2.85714 -0.45176,-0.15058 -1.09186,0.33672 -1.42858,0 -0.33671,-0.33672 0.33672,-1.09185 0,-1.42857 -0.33671,-0.33672 -0.95238,0 -1.42857,0 0,-0.95238 0.42592,-2.00531 0,-2.85714 -0.21296,-0.42592 -0.97681,0.15058 -1.42857,0 -1.01015,-0.33672 -1.97118,-0.83793 -2.85714,-1.42858 -1.12066,-0.74711 -1.65247,-2.2548 -2.85714,-2.85714 -0.42592,-0.21296 -1.21562,0.42592 -1.42858,0 -0.42591,-0.85183 0.67344,-2.18371 0,-2.85714 -0.38085,-0.38086 -3.90485,0.38086 -4.28571,0 -0.33672,-0.33672 0.33672,-1.09186 0,-1.42857 -0.33672,-0.33672 -1.09185,0.33671 -1.42857,0 -0.33672,-0.33672 0.33672,-1.09186 0,-1.42857 -0.33672,-0.33672 -1.09186,0.33671 -1.42857,0 -0.33672,-0.33672 0.42592,-1.21562 0,-1.42858 -1.4212,-0.71059 -4.00312,0.56521 -4.28572,0 -0.42591,-0.85183 0.42592,-2.0053 0,-2.85714 -0.21296,-0.42592 -1.00265,0.21296 -1.42857,0 C 380.82623,491.1274 380.56033,490.37355 380,490 c -0.88596,-0.59064 -1.84699,-1.09185 -2.85714,-1.42857 -0.90351,-0.30117 -2.18371,0.67343 -2.85715,0 -0.33671,-0.33672 0.33672,-1.09186 0,-1.42857 -0.71428,-0.71429 -3.57142,0.71428 -4.28571,0 -0.67343,-0.67344 0.42592,-2.00531 0,-2.85715 -0.2965,-0.59299 -3.78706,0.49866 -4.28571,0 -0.33672,-0.33671 0.42591,-1.21561 0,-1.42857 -0.85184,-0.42592 -1.90477,0 -2.85715,0 -0.47619,0 -1.09185,0.33672 -1.42857,0 -0.33672,-0.33671 0.33672,-1.09185 0,-1.42857 -0.67343,-0.67343 -2.18371,0.67344 -2.85714,0 C 356.19048,479.04762 363.80952,480 355.71429,480 c -1.40817,0 -4.26531,0 -2.85715,0 18.09524,0 36.19048,0 54.28572,0 6.66666,0 13.33333,0 20,0 0.47619,0 0.95238,0 1.42857,0 0.47619,0 1.09185,-0.33672 1.42857,0 0.33672,0.33672 -0.33672,1.09185 0,1.42857 0.33672,0.33672 0.95238,0 1.42857,0 1.90476,0 3.80953,0 5.71429,0 6.19047,0 12.38095,0 18.57143,0 2.85714,0 5.71428,0 8.57142,0 0.95239,0 3.80953,0 2.85715,0 -8.57143,0 -17.14286,0 -25.71429,0 -3.33333,0 -6.66667,0 -10,0 -1.42857,0 -2.93045,0.45176 -4.28571,0 -0.63888,-0.21296 -0.82624,-1.1274 -1.42857,-1.42857 -0.32019,-0.16009 -5.37482,0 -5.71429,0 -3.33333,0 -6.66667,0 -10,0 -0.47619,0 -0.95238,0 -1.42857,0 -0.95238,0 -2.06472,0.52829 -2.85714,0 -0.88597,-0.59064 -0.67565,-2.10422 -1.42858,-2.85714 -0.33671,-0.33672 -0.95529,0.0526 -1.42857,0 -3.81569,-0.42397 -7.61288,-1.00461 -11.42857,-1.42857 -2.20548,-0.24506 -5.06898,0 -7.14286,0 -0.47619,0 -0.95238,0 -1.42857,0 -0.47619,0 -1.00265,0.21295 -1.42857,0 -0.60234,-0.30117 -0.77524,-1.26524 -1.42857,-1.42858 -1.38592,-0.34648 -2.85714,0 -4.28571,0 -0.47619,0 -1.09186,0.33672 -1.42858,0 -0.33671,-0.33671 0.33672,-1.09185 0,-1.42857 -0.43795,-0.43795 -6.70136,0.4415 -7.14285,0 -0.75293,-0.75292 -0.54261,-2.2665 -1.42857,-2.85714 -0.79243,-0.52829 -1.90477,0 -2.85715,0 -0.47619,0 -1.09185,0.33672 -1.42857,0 -0.33672,-0.33672 0.33672,-1.09185 0,-1.42857 -0.67343,-0.67344 -2.18371,0.67343 -2.85714,0 -0.33672,-0.33672 0,-0.95238 0,-1.42857 -0.95238,-0.47619 -1.84699,-1.09186 -2.85714,-1.42857 -0.85332,-0.28444 -2.66862,0.37704 -2.85715,0 -0.42591,-0.85184 0.42592,-2.00531 0,-2.85715 -0.21296,-0.42592 -0.97681,0.15059 -1.42857,0 -1.01015,-0.33671 -1.84699,-1.09185 -2.85714,-1.42857 -0.45176,-0.15058 -1.09186,0.33672 -1.42857,0 -0.33672,-0.33672 0.33671,-1.09185 0,-1.42857 -0.33672,-0.33672 -0.95238,0 -1.42857,0 -1.42858,0 -2.85715,0 -4.28572,0 -3.80952,0 0.47619,0.47619 -1.42857,-1.42857 -0.33672,-0.33672 -1.90476,0 -1.42857,0 2.40106,0 4.2428,-0.77865 5.71428,1.42857 0.59065,0.88596 0.54261,2.2665 1.42858,2.85714 1.42857,0.95238 2.85714,-0.47619 4.28571,0 2.02031,0.67344 3.69398,2.18371 5.71429,2.85715 0.9035,0.30116 2.0053,-0.42592 2.85714,0 0.60234,0.30116 0.78969,1.21561 1.42857,1.42857 0.90351,0.30117 1.90476,0 2.85714,0 0.47619,0 1.21562,-0.42592 1.42857,0 0.42592,0.85183 -0.42591,2.0053 0,2.85714 0.18853,0.37705 2.00383,-0.28444 2.85715,0 0.95238,0.47619 1.90476,0.95238 2.85714,1.42857 0.47619,0 0.97682,-0.15058 1.42857,0 1.01015,0.33672 1.82414,1.17032 2.85714,1.42857 1.06038,0.2651 5.2758,-0.43849 5.71429,0 0.33672,0.33672 -0.40833,1.18358 0,1.42857 5.05666,3.034 5.04799,2.85715 8.57143,2.85715 0.95238,0 1.95363,-0.30117 2.85714,0 0.63888,0.21296 0.82623,1.1274 1.42857,1.42857 0.86746,0.43373 7.70397,-0.43373 8.57143,0 0.60234,0.30117 0.7897,1.21561 1.42857,1.42857 0.65341,0.2178 5.07861,-0.31784 5.71429,0 0.60234,0.30117 0.78969,1.21561 1.42857,1.42857 1.94522,0.64841 8.68651,-0.87566 10,0 0.79243,0.52829 -0.42592,2.00531 0,2.85714 0.21296,0.42592 0.95238,0 1.42857,0 1.90476,0 3.80953,0 5.71429,0 0.47619,0 0.95238,0 1.42857,0 0.47619,0 1.00265,-0.21295 1.42857,0 0.60234,0.30117 0.7897,1.21562 1.42857,1.42858 0.90351,0.30116 1.90476,0 2.85714,0 0.47619,0 1.00266,-0.21296 1.42858,0 0.60233,0.30116 0.82623,1.1274 1.42857,1.42857 0.42592,0.21296 0.95238,0 1.42857,0 0.95238,0 1.95363,-0.30117 2.85714,0 0.63888,0.21296 0.82623,1.1274 1.42857,1.42857 0.42592,0.21296 0.99089,-0.18758 1.42857,0 2.93611,1.25833 5.58044,3.16409 8.57143,4.28571 1.01248,0.37968 5.22989,-0.48439 5.71429,0 2.85714,2.85715 -9.04762,1.42857 4.28571,1.42857 0.47619,0 0.95238,0 1.42857,0 0.4762,0 1.00266,-0.21295 1.42858,0 0.60233,0.30117 0.88982,1.02451 1.42857,1.42858 1.37354,1.03015 2.75004,2.0893 4.28571,2.85714 0.63568,0.31784 5.06088,-0.21781 5.71429,0 0.63887,0.21296 0.82623,1.1274 1.42857,1.42857 0.85183,0.42592 1.92326,-0.18678 2.85714,0 1.92526,0.38505 3.78903,1.04352 5.71429,1.42857 0.46694,0.0934 0.97681,-0.15058 1.42857,0 1.01015,0.33672 1.84699,1.09186 2.85714,1.42857 0.90351,0.30117 1.90476,0 2.85714,0 0.4762,0 1.90477,0 1.42858,0 -13.80953,0 -27.61905,0 -41.42858,0 -1.12444,0 -7.02814,0.11471 -7.14285,0 -0.33672,-0.33671 0.33671,-1.09185 0,-1.42857 -0.43856,-0.43855 -6.7043,0.43856 -7.14286,0 -0.75292,-0.75292 -0.41842,-2.52042 -1.42857,-2.85714 -2.25877,-0.75292 -4.7943,0.39142 -7.14286,0 -0.66427,-0.11071 -0.78969,-1.21561 -1.42857,-1.42857 -1.18143,-0.39381 -8.6768,0.26464 -10,0 -1.04412,-0.20883 -1.84699,-1.09186 -2.85714,-1.42857 -1.19732,-0.39911 -4.76754,0.47337 -5.71429,0 -0.60234,-0.30117 -0.82623,-1.12741 -1.42857,-1.42858 -0.90671,-0.45335 -6.67972,0.46315 -7.14286,0 -0.75292,-0.75292 -0.47619,-2.38095 -1.42857,-2.85714 -0.85933,-0.42966 -8.87967,0.28008 -10,0 C 390.77524,491.26524 390.60234,490.30117 390,490 c -0.42592,-0.21296 -0.95238,0 -1.42857,0 -0.0399,0 -10.70844,0.18003 -11.42857,0 -0.65333,-0.16333 -0.82624,-1.1274 -1.42857,-1.42857 -0.85184,-0.42592 -1.91059,0.10517 -2.85715,0 -3.81569,-0.42397 -7.60845,-1.04656 -11.42857,-1.42857 -0.49216,-0.0492 -5.60857,0.0529 -5.71428,0 -1.20468,-0.60234 -1.60661,-2.35693 -2.85715,-2.85715 -0.67725,-0.2709 -10.49487,0 -11.42857,0 -0.47619,0 -1.00265,0.21296 -1.42857,0 -0.60234,-0.30117 -0.77524,-1.26524 -1.42857,-1.42857 -0.31147,-0.0779 -6.49286,0.325 -7.14286,0 -0.60234,-0.30117 -0.76821,-1.2965 -1.42857,-1.42857 -1.65111,-0.33022 -8.94481,0 -11.42857,0 -0.47619,0 -1.09186,0.33672 -1.42857,0 -0.33672,-0.33672 0.33671,-1.09185 0,-1.42857 -0.33672,-0.33672 -0.95238,0 -1.42857,0 -0.86655,0 -9.63874,0.24084 -10,0 -0.88597,-0.59064 -0.67565,-2.10422 -1.42858,-2.85714 -0.33671,-0.33672 -1.90476,0 -1.42857,0 0.79818,0 6.29982,-0.28102 7.14286,0 1.01015,0.33671 1.84699,1.09185 2.85714,1.42857 0.84304,0.28101 6.34468,0 7.14286,0 0.47619,0 1.09185,-0.33672 1.42857,0 0.33672,0.33672 -0.33672,1.09185 0,1.42857 0.47091,0.47091 4.6805,-0.34459 5.71429,0 0.63887,0.21296 0.82623,1.1274 1.42857,1.42857 0.82446,0.41223 6.55487,-0.39199 7.14286,0 1.12066,0.74711 1.65246,2.25481 2.85714,2.85714 0.35084,0.17542 9.14865,0 10,0 0.47619,0 1.00265,-0.21295 1.42857,0 0.60234,0.30117 0.82623,1.12741 1.42857,1.42858 0.42592,0.21295 0.95238,0 1.42857,0 0.95238,0 1.90476,0 2.85715,0 2.85714,0 5.71428,0 8.57142,0 0.95239,0 1.90477,0 2.85715,0 1.42857,0 2.89979,-0.34648 4.28571,0 0.65333,0.16333 0.82623,1.1274 1.42857,1.42857 0.43434,0.21717 4.72783,0 5.71429,0 4.28571,0 8.57143,0 12.85714,0 0.34647,0 4.23977,-0.046 4.28572,0 0.33671,0.33671 -0.42592,1.21561 0,1.42857 0.60716,0.30358 5.94571,0 7.14285,0 0.95238,0 2.06472,-0.52829 2.85715,0 0.88596,0.59064 0.67564,2.10422 1.42857,2.85714 0.33671,0.33672 0.95238,0 1.42857,0 2.38095,0 4.7619,0 7.14286,0 0.47619,0 1.09185,-0.33672 1.42857,0 0.33671,0.33672 -0.42592,1.21561 0,1.42857 0.35084,0.17542 9.14865,0 10,0 0.47619,0 1.00265,-0.21296 1.42857,0 0.60234,0.30117 0.82623,1.1274 1.42857,1.42857 1.14286,0.57143 3.14286,-0.57142 4.28571,0 0.42592,0.21296 -0.33671,1.09186 0,1.42858 0.29206,0.29205 3.7193,-0.28321 4.28572,0 1.53567,0.76783 2.75004,2.0893 4.28571,2.85714 0.85184,0.42592 1.95364,-0.30117 2.85715,0 1.01015,0.33672 1.84699,1.09185 2.85714,1.42857 0.45175,0.15058 0.95238,0 1.42857,0 0.47619,0.47619 0.82623,1.1274 1.42857,1.42857 0.42592,0.21296 1.90476,0 1.42857,0 -10.95238,0 -21.90476,0 -32.85714,0 -2.85714,0 -5.71429,0 -8.57143,0 -0.47619,0 -0.95238,0 -1.42857,0 -0.47619,0 -1.03236,0.26414 -1.42857,0 -1.12066,-0.74711 -1.73648,-2.11003 -2.85714,-2.85714 -0.39622,-0.26414 -0.95239,0 -1.42858,0 -1.90476,0 -3.80952,0 -5.71428,0 -0.47619,0 -0.95238,0 -1.42857,0 -0.47619,0 -1.00266,0.21296 -1.42857,0 -0.60234,-0.30117 -0.7897,-1.21561 -1.42858,-1.42857 -1.32035,-0.44012 -5.81029,0.44418 -7.14285,0 -1.01016,-0.33672 -1.82414,-1.17032 -2.85715,-1.42857 -0.92394,-0.23099 -1.90476,0 -2.85714,0 -1.42857,0 -2.85714,0 -4.28571,0 -0.47619,0 -0.95238,0 -1.42857,0 -0.47619,0 -1.00266,0.21295 -1.42858,0 -0.60233,-0.30117 -0.78969,-1.21562 -1.42857,-1.42858 -1.03378,-0.34459 -5.24337,0.47092 -5.71428,0 -0.75293,-0.75292 -0.54261,-2.2665 -1.42857,-2.85714 -0.46475,-0.30983 -6.06398,0 -7.14286,0 -10.13247,0 -0.83684,1.01015 -5.71429,-1.42857 -0.84431,-0.42216 -5.82311,0.37707 -7.14285,0 -2.89582,-0.82738 -5.64966,-2.1267 -8.57143,-2.85714 -0.80477,-0.2012 -5.38342,0.22058 -5.71429,0 -0.88596,-0.59064 -0.47619,-2.38096 -1.42857,-2.85715 -1.70367,-0.85183 -3.80952,0 -5.71429,0 -0.47619,0 -1.09185,0.33672 -1.42857,0 -0.33671,-0.33671 0.42592,-1.21561 0,-1.42857 -1.14285,-0.57143 -3.14285,0.57143 -4.28571,0 -0.60234,-0.30117 -0.82623,-1.1274 -1.42857,-1.42857 -0.42592,-0.21296 -0.95238,0 -1.42857,0 -0.95239,0 -1.95364,0.30117 -2.85715,0 -0.63887,-0.21296 -0.82623,-1.1274 -1.42857,-1.42857 -0.91124,-0.45562 -6.76093,0.38193 -7.14286,0 -0.75292,-0.75292 -0.67564,-2.10422 -1.42857,-2.85714 -0.33671,-0.33672 -0.95238,0 -1.42857,0 -3.33333,0 -6.66667,0 -10,0 -0.47619,0 0.95238,0 1.42857,0 3.95599,0 -1.09884,1.42857 2.85715,1.42857 0.79818,0 6.29982,-0.28101 7.14285,0 1.01016,0.33672 1.84699,1.09185 2.85715,1.42857 0.55589,0.1853 4.06401,-0.2217 4.28571,0 0.33672,0.33672 -0.45175,1.27799 0,1.42857 1.00913,0.33638 8.29344,0 10,0 0.47619,0 1.03236,-0.26414 1.42857,0 1.12067,0.74711 1.65247,2.25481 2.85714,2.85714 0.60717,0.30359 5.94572,0 7.14286,0 6.19048,0 12.38095,0 18.57143,0 3.33333,0 6.66667,0 10,0 0.95238,0 1.90476,0 2.85714,0 0.47619,0 1.00266,0.21296 1.42857,0 3.53058,-1.76528 -0.49311,-1.42857 2.85715,-1.42857 0.33947,0 5.3941,0.1601 5.71428,0 0.60234,-0.30117 0.7897,-1.21561 1.42857,-1.42857 0.90351,-0.30117 1.90477,0 2.85715,0 2.44203,0 6.33852,0.37215 8.57143,0 2.39506,-0.39918 4.74779,-1.02939 7.14285,-1.42857 0.93943,-0.15657 2.06472,0.52829 2.85715,0 1.12066,-0.74711 1.73648,-2.11003 2.85714,-2.85714 0.53562,-0.35708 6.45945,0.13668 7.14286,0 1.4766,-0.29532 2.80035,-1.18101 4.28571,-1.42857 1.40913,-0.23486 2.85714,0 4.28571,0 2.85715,0 5.71429,0 8.57143,0 1.42857,0 3.00796,0.63887 4.28572,0 0.42592,-0.21296 -0.33672,-1.09186 0,-1.42858 0.33671,-0.33671 0.95238,0 1.42857,0 0.47619,0 0.95238,0 1.42857,0 1.90476,0 3.80952,0 5.71429,0 0.47619,0 1.09185,0.33672 1.42857,0 0.33671,-0.33671 -0.33672,-1.09185 0,-1.42857 0.11471,-0.11471 6.01841,0 7.14285,0 5.2381,0 10.4762,0 15.71429,0 0.95238,0 1.90476,0 2.85714,0 0.47619,0 1.09186,-0.33671 1.42857,0 0.33672,0.33672 -0.33671,1.09186 0,1.42857 0.33672,0.33672 0.95239,0 1.42858,0 1.42857,0 2.85714,0 4.28571,0 0.95238,0 -1.90476,0 -2.85714,0 -4.04762,0 1.90476,-0.47619 -1.42857,2.85715 -0.67344,0.67343 -1.90477,0 -2.85715,0 -8.09523,0 -16.19047,0 -24.28571,0 -5.2381,0 -10.47619,0 -15.71429,0 -0.95238,0 -1.90476,0 -2.85714,0 -0.47619,0 -1.09185,-0.33672 -1.42857,0 -0.33672,0.33671 0.33672,1.09185 0,1.42857 -0.33672,0.33672 -0.95238,0 -1.42857,0 -0.47619,0 -0.95238,0 -1.42857,0 -6.66667,0 -13.33334,0 -20,0 -9.52381,0 -19.04762,0 -28.57143,0 -3.80953,0 -7.61905,0 -11.42857,0 -0.47619,0 -0.95239,0 -1.42858,0 -0.47619,0 -1.09185,0.33672 -1.42857,0 -0.33671,-0.33672 0.33672,-1.09186 0,-1.42857 -0.17646,-0.17647 -4.81844,0 -5.71428,0 -6.66667,0 -13.33334,0 -20,0 -2.38096,0 -4.76191,0 -7.14286,0 -0.47619,0 -0.96163,0.0934 -1.42857,0 -1.92526,-0.38505 -3.78903,-1.04352 -5.71429,-1.42857 -1.63374,-0.32675 -5.51807,0 -7.14285,0 -0.47619,0 -0.95239,0 -1.42858,0 -0.47619,0 -1.09185,0.33671 -1.42857,0 -0.33671,-0.33672 0.33672,-1.09186 0,-1.42858 -0.42269,-0.42268 -4.82941,0.44244 -5.71428,0 -0.60234,-0.30117 -0.82624,-1.1274 -1.42857,-1.42857 -0.4237,-0.21184 -7.18967,0 -8.57143,0 -1.42857,0 -2.85715,0 -4.28572,0 -0.47619,0 -1.09185,0.33672 -1.42857,0 C 280.67565,472.10422 280.88596,470.59064 280,470 c -0.79243,-0.52829 -1.90476,0 -2.85714,0 -0.47619,0 -0.95238,0 -1.42857,0 -2.38096,0 -4.76191,0 -7.14286,0 -0.95238,0 -2.00531,0.42592 -2.85714,0 -0.42592,-0.21296 0.42591,-1.21561 0,-1.42857 -0.52165,-0.26082 -6.8648,0.27806 -7.14286,0 -2.38095,-2.38095 5.23809,-1.42857 -2.85714,-1.42857 -2.38096,0 -4.76191,0 -7.14286,0 -0.47619,0 -1.42857,0.47619 -1.42857,0 0,-0.47619 0.95238,0 1.42857,0 0.95238,0 1.90476,0 2.85714,0 2.38095,0 4.76191,0 7.14286,0 4.7619,0 9.52381,0 14.28571,0 1.90476,0 3.94576,-0.70741 5.71429,0 0.98864,0.39545 0.67565,2.10422 1.42857,2.85714 0.33672,0.33672 0.95238,0 1.42857,0 1.16785,0 9.27596,-0.24135 10,0 6.30602,2.10201 -5.19023,1.42857 4.28572,1.42857 6.70062,0 13.30569,1.42857 20,1.42857 6.66666,0 13.33333,0 20,0 3.33333,0 6.6924,-0.41345 10,0 1.05657,0.13207 1.84699,1.09186 2.85714,1.42857 0.45175,0.15059 0.95238,0 1.42857,0 0.95238,0 1.90476,0 2.85714,0 3.33334,0 6.66667,0 10,0 0.93873,0 3.47972,-0.26866 4.28572,0 2.43277,0.81093 4.67716,2.15266 7.14285,2.85715 0.91574,0.26164 1.90477,0 2.85715,0 0.47619,0 1.00265,-0.21296 1.42857,0 0.60234,0.30117 0.82623,1.1274 1.42857,1.42857 0.42592,0.21296 0.95238,0 1.42857,0 0.85135,0 9.64916,-0.17542 10,0 0.42592,0.21296 -0.42592,1.21561 0,1.42857 0.85483,0.42741 7.68107,-0.44518 8.57143,0 0.60234,0.30117 0.76821,1.2965 1.42857,1.42857 1.86777,0.37356 3.80953,0 5.71429,0 0.47619,0 1.09185,-0.33672 1.42857,0 0.75292,0.75292 0.54261,2.2665 1.42857,2.85714 0.79243,0.52829 1.90476,0 2.85714,0 2.38096,0 4.76191,0 7.14286,0 0.47619,0 0.95238,0 1.42857,0 0.47619,0 1.00266,-0.21295 1.42857,0 0.60234,0.30117 0.7897,1.21562 1.42857,1.42858 1.32035,0.44011 5.8103,-0.44419 7.14286,0 1.01015,0.33671 1.84699,1.09185 2.85714,1.42857 0.45176,0.15058 0.95886,-0.0783 1.42858,0 2.39506,0.39917 4.74779,1.02939 7.14285,1.42857 0.93943,0.15657 1.90476,0 2.85715,0 3.33333,0 6.66666,0 10,0 0.47619,0 0.95238,0 1.42857,0 0.47619,0 1.09185,-0.33672 1.42857,0 0.75292,0.75292 0.54261,2.2665 1.42857,2.85714 0.79243,0.52829 1.90476,0 2.85714,0 1.34549,0 6.3302,-0.27089 7.14286,0 0.63888,0.21296 0.82623,1.1274 1.42857,1.42857 0.42592,0.21296 0.95238,0 1.42857,0 0.47619,0 0.95238,0 1.42857,0 1.90477,0 3.80953,0 5.71429,0 0.47619,0 1.09185,-0.33671 1.42857,0 0.33672,0.33672 -0.42592,1.21562 0,1.42857 1.27775,0.63888 2.85714,0 4.28572,0 2.38095,0 4.7619,0 7.14285,0 0.47619,0 1.09186,-0.33671 1.42857,0 0.33672,0.33672 -0.33671,1.09186 0,1.42858 0.17647,0.17646 4.81845,0 5.71429,0 0.47619,0 1.21561,-0.42592 1.42857,0 0.42592,0.85183 -0.42592,2.0053 0,2.85714 0.0979,0.19573 4.23011,0 5.71429,0 3.80952,0 -0.47619,-0.47619 1.42857,1.42857 0.43735,0.43735 5.82902,-0.32846 7.14286,0 1.46088,0.36522 2.82482,1.06335 4.28571,1.42857 0.51854,0.12964 4.11072,-0.17499 4.28571,0 0.33672,0.33672 -0.42591,1.21561 0,1.42857 0.60717,0.30358 5.94572,0 7.14286,0 0.95238,0 2.06472,-0.52828 2.85714,0 0.88597,0.59064 0.67565,2.10422 1.42858,2.85715 0.67343,0.67343 2.1837,-0.67344 2.85714,0 0.33672,0.33671 -0.42592,1.21561 0,1.42857 0.35084,0.17542 9.14865,0 10,0 0.47619,0 -0.95238,0 -1.42857,0 -0.95238,0 -1.90476,0 -2.85715,0 -3.80952,0 -7.61904,0 -11.42857,0 -1.27674,0 -6.68761,0.22762 -7.14285,0 -0.60234,-0.30117 -0.82624,-1.12741 -1.42858,-1.42857 -0.42591,-0.21296 -0.95238,0 -1.42857,0 -0.79818,0 -6.29982,0.28101 -7.14285,0 -1.01016,-0.33672 -1.84699,-1.09186 -2.85715,-1.42858 -0.9035,-0.30117 -1.90476,0 -2.85714,0 -1.90476,0 -3.80952,0 -5.71429,0 -0.95238,0 -1.91433,0.13469 -2.85714,0 -2.4037,-0.34338 -4.73915,-1.08518 -7.14286,-1.42857 -0.9428,-0.13468 -1.90476,0 -2.85714,0 -0.47619,0 -1.00265,0.21296 -1.42857,0 -0.60234,-0.30117 -0.77524,-1.26524 -1.42857,-1.42857 -0.85591,-0.21398 -8.04825,0.34879 -8.57143,0 -1.12066,-0.74711 -1.73648,-2.11003 -2.85714,-2.85714 -0.79243,-0.52829 -2.00531,0.42592 -2.85715,0 -0.60233,-0.30117 -0.78969,-1.21561 -1.42857,-1.42857 -5.12621,-1.70874 -6.72542,-1.42857 -11.42857,-1.42857 -1.2095,0 -4.94628,0.256 -5.71428,0 -0.63888,-0.21296 -0.82624,-1.12741 -1.42858,-1.42858 -0.32018,-0.16009 -5.37481,0 -5.71428,0 -0.47619,0 -0.95238,0 -1.42857,0 -0.47619,0 -1.21562,0.42592 -1.42857,0 -0.42592,-0.85183 0.42591,-2.0053 0,-2.85714 -0.21296,-0.42592 -0.95239,0 -1.42858,0 -0.95238,0 -1.92325,0.18678 -2.85714,0 -1.4766,-0.29532 -2.80035,-1.18101 -4.28571,-1.42857 -1.29931,-0.21655 -8.78036,0.40655 -10,0 -0.63888,-0.21296 -0.82624,-1.1274 -1.42857,-1.42857 -0.42592,-0.21296 -0.95239,0 -1.42858,0 -0.47619,0 -0.95238,0 -1.42857,0 -3.80952,0 -7.61904,0 -11.42857,0 -9.52381,0 -19.04762,0 -28.57143,0 -0.47619,0 -0.95238,0 -1.42857,0 -3.80952,0 -7.61905,0 -11.42857,0 -0.47619,0 -1.21561,-0.42592 -1.42857,0 -0.42592,0.85183 0.42592,2.00531 0,2.85714 -0.21296,0.42592 -0.95238,0 -1.42857,0 -1.42857,0 -2.85715,0 -4.28572,0 -4.7619,0 -9.52381,0 -14.28571,0 -1.34548,0 -6.3302,0.27089 -7.14286,0 C 340.7897,491.21561 340.60234,490.30117 340,490 c -0.5632,-0.2816 -5.73184,0 -7.14286,0 -0.47619,0 -1.09185,0.33672 -1.42857,0 -0.33672,-0.33672 0.33672,-1.09185 0,-1.42857 -0.33672,-0.33672 -0.95886,0.0783 -1.42857,0 -2.39507,-0.39918 -4.73916,-1.08519 -7.14286,-1.42857 -1.74148,-0.24879 -3.91199,0 -5.71428,0 -3.80953,0 -7.61905,0 -11.42857,0 -2.38096,0 -4.76191,0 -7.14286,0 -1.40816,0 -4.26531,0 -2.85714,0 4.7619,0 9.52381,0 14.28571,0 0.79818,0 6.29982,-0.28102 7.14286,0 1.01015,0.33671 1.82414,1.17032 2.85714,1.42857 0.71033,0.17758 6.72096,-0.28127 7.14286,0 0.88596,0.59064 0.67565,2.10422 1.42857,2.85714 0.10341,0.10341 4.92753,-0.11239 5.71428,0 2.40371,0.34339 4.74779,1.02939 7.14286,1.42857 1.8332,0.30554 5.31345,0 7.14286,0 0.47619,0 0.97682,-0.15058 1.42857,0 1.01015,0.33672 1.82414,1.17032 2.85714,1.42857 1.27541,0.31886 5.48925,0 7.14286,0 0.95238,0 1.9332,-0.23098 2.85714,0 12.52897,3.13225 -20.62015,1.42858 14.28572,1.42858 0.46914,0 4.07286,-0.14191 4.28571,0 1.12067,0.7471 1.73648,2.11003 2.85714,2.85714 0.39622,0.26414 0.95239,0 1.42858,0 0.95238,0 1.90476,0 2.85714,0 1.58773,0 10.59274,-0.27861 11.42857,0 1.01015,0.33672 1.82414,1.17032 2.85714,1.42857 1.10002,0.275 11.37821,0 11.42857,0 0.47619,0 1.00266,-0.21296 1.42858,0 4.20401,2.10201 -2.21755,1.42857 4.28571,1.42857 1.4585,0 9.30596,-0.23135 10,0 0.63888,0.21296 0.7897,1.21561 1.42857,1.42857 0.81266,0.27089 5.79738,0 7.14286,0 0.95238,0 2.18371,-0.67343 2.85714,0 0.67344,0.67344 -0.42592,2.00531 0,2.85715 0.21296,0.42591 0.95238,0 1.42857,0 2.21306,0 5.07279,-0.34502 7.14286,0 2.39507,0.39917 4.74779,1.02939 7.14286,1.42857 1.83712,0.30618 3.91111,-0.4508 5.71428,0 1.03301,0.25825 1.84699,1.09185 2.85715,1.42857 1.28571,0.42857 3,-0.42857 4.28571,0 0.63888,0.21296 0.82623,1.1274 1.42857,1.42857 0.42592,0.21296 0.95238,0 1.42857,0 0.47619,0 0.95238,0 1.42857,0 1.90477,0 3.80953,0 5.71429,0 0.47619,0 1.21561,-0.42592 1.42857,0 0.42592,0.85184 -0.67343,2.18371 0,2.85714 0.44756,0.44756 6.69714,-0.44572 7.14286,0 0.33672,0.33672 -0.42592,1.21562 0,1.42857 0.85183,0.42592 1.90476,0 2.85714,0 0.47619,0 1.42857,-0.47619 1.42857,0 0,2.50643 -3.30071,0.93608 -4.28571,1.42858 -4.20401,2.102 2.21755,1.42857 -4.28572,1.42857 -0.47619,0 -0.95238,0 -1.42857,0 -0.47619,0 -1.21561,-0.42592 -1.42857,0 -0.42592,0.85183 0.42592,2.0053 0,2.85714 -0.21296,0.42592 -0.95238,0 -1.42857,0 -0.95238,0 -1.95363,-0.30117 -2.85714,0 -0.63888,0.21296 -0.82624,1.1274 -1.42857,1.42857 -0.42592,0.21296 -0.9666,-0.11549 -1.42858,0 -1.46088,0.36522 -2.82482,1.06335 -4.28571,1.42857 -1.42857,0.35715 -2.85714,-0.71428 -4.28571,0 -0.42592,0.21296 0.42591,1.21562 0,1.42857 -1.24718,0.62359 -9.04577,-0.63615 -10,0 -0.79243,0.52829 0.42591,2.00531 0,2.85715 -0.11796,0.23591 -3.90564,0 -4.28572,0 -7.14286,0 -14.28571,0 -21.42857,0 -5.71429,0 -11.42857,0 -17.14286,0 -1.34548,0 -6.33019,0.27088 -7.14285,0 -0.63888,-0.21296 -0.82624,-1.12741 -1.42858,-1.42857 -0.89788,-0.44895 -4.81639,0.44894 -5.71428,0 -0.42592,-0.21296 0.33672,-1.09186 0,-1.42858 -0.33672,-0.33671 -0.95238,0 -1.42857,0 -1.90476,0 -3.80953,0 -5.71429,0 -0.47619,0 -1.00265,0.21296 -1.42857,0 -0.60234,-0.30117 -0.82623,-1.1274 -1.42857,-1.42857 -0.88488,-0.44244 -5.2916,0.42269 -5.71429,0 -0.75292,-0.75292 -0.67565,-2.10422 -1.42857,-2.85714 -0.43795,-0.43796 -6.70136,0.44149 -7.14286,0 -0.33671,-0.33672 0.33672,-1.09185 0,-1.42857 -10e-4,-10e-4 -4.27923,0.002 -4.28571,0 -0.63888,-0.21296 -0.82623,-1.1274 -1.42857,-1.42857 -0.73385,-0.36693 -6.92595,0.2169 -7.14286,0 -0.33672,-0.33672 0.33672,-1.09186 0,-1.42857 -0.33672,-0.33672 -0.95238,0 -1.42857,0 -0.47619,0 -0.95238,0 -1.42857,0 -0.95238,0 -1.90476,0 -2.85714,0 -0.47619,0 -1.21562,0.42591 -1.42858,0 -0.42591,-0.85184 0.85184,-2.43123 0,-2.85715 -1.70367,-0.85183 -3.86639,0.46198 -5.71428,0 -0.46197,-0.11549 0.33672,-1.09185 0,-1.42857 -0.33672,-0.33672 -0.95238,0 -1.42857,0 -1.27675,0 -6.68761,0.22762 -7.14286,0 -0.60234,-0.30117 -0.82623,-1.1274 -1.42857,-1.42857 -0.42592,-0.21296 -0.9666,0.11549 -1.42857,0 -1.46089,-0.36522 -2.82483,-1.06335 -4.28572,-1.42857 -1.44877,-0.36219 -4.58074,0.75569 -5.71428,0 -0.88597,-0.59064 -0.67565,-2.10422 -1.42857,-2.85714 -0.33672,-0.33672 -0.95239,0 -1.42858,0 -0.76316,0 -6.73399,0.20443 -7.14285,0 -0.60234,-0.30117 -0.7897,-1.21562 -1.42857,-1.42858 -0.76038,-0.25346 -10.20245,0 -11.42858,0 -0.95238,0 -1.95363,0.30117 -2.85714,0 -1.01015,-0.33671 -1.84699,-1.09185 -2.85714,-1.42857 -0.55589,-0.18529 -4.06402,0.2217 -4.28572,0 -0.33671,-0.33671 0.42592,-1.21561 0,-1.42857 -1.27775,-0.63888 -2.85714,0 -4.28571,0 -0.47619,0 -1.21561,0.42592 -1.42857,0 -0.42592,-0.85183 0.42592,-2.00531 0,-2.85714 -0.21296,-0.42592 -0.95238,0 -1.42857,0 -1.42857,0 -2.85715,0 -4.28572,0 -0.47619,0 -1.09185,0.33672 -1.42857,0 -0.33672,-0.33672 0.33672,-1.09186 0,-1.42857 -0.33672,-0.33672 -0.97682,0.15058 -1.42857,0 -4.92459,-1.64153 -1.05823,-1.42857 -4.28571,-1.42857 -0.47619,0 -0.95239,0 -1.42858,0 -0.47619,0 -1.42857,0.47619 -1.42857,0 0,-0.4762 0.95238,0 1.42857,0 0.95239,0 1.90477,0 2.85715,0 2.85714,0 5.71428,0 8.57143,0 7.14285,0 14.28571,0 21.42857,0 10.47619,0 20.95238,0 31.42857,0 3.33333,0 6.66667,0 10,0 0.47619,0 0.95238,0 1.42857,0 0.47619,0 1.00265,-0.21296 1.42857,0 1.53567,0.76783 2.75005,2.0893 4.28572,2.85714 0.42591,0.21296 0.95238,0 1.42857,0 0.47619,0 0.95238,0 1.42857,0 1.90476,0 3.80952,0 5.71428,0 0.95239,0 1.9332,-0.23099 2.85715,0 1.033,0.25825 1.82414,1.17032 2.85714,1.42857 1.08638,0.27159 5.94659,0 7.14286,0 0.47619,0 0.95238,0 1.42857,0 0.47619,0 1.00265,-0.21296 1.42857,0 0.60234,0.30117 0.7897,1.21561 1.42857,1.42857 0.90351,0.30117 1.90476,0 2.85714,0 3.33334,0 6.66667,0 10,0 1.42858,0 2.93046,-0.45175 4.28572,0 0.63888,0.21296 0.82623,1.1274 1.42857,1.42857 0.85184,0.42592 2.06471,-0.52828 2.85714,0 1.12067,0.74711 1.73648,2.11004 2.85715,2.85715 0.60795,0.4053 7.68778,-0.44183 8.57142,0 0.60234,0.30116 0.75926,1.3542 1.42858,1.42857 3.78622,0.42069 7.61904,0 11.42857,0 0.47619,0 0.95238,0 1.42857,0 0.47619,0 1.00265,-0.21296 1.42857,0 4.87745,2.43872 -4.41818,1.42857 5.71429,1.42857 4.5985,0 -2.43873,-0.33672 2.85714,1.42857 1.94522,0.64841 8.68651,-0.87566 10,0 0.79243,0.52829 -0.67344,2.18371 0,2.85714 0.67343,0.67344 1.90476,0 2.85714,0 2.85714,0 5.71429,0 8.57143,0 0.95238,0 1.95364,-0.30117 2.85714,0 0.63888,0.21296 0.82624,1.1274 1.42857,1.42857 0.73385,0.36693 6.92596,-0.2169 7.14286,0 0.33672,0.33672 -0.33672,1.09186 0,1.42858 0.33672,0.33671 0.95238,0 1.42857,0 1.42857,0 2.85715,0 4.28572,0 2.38095,0 4.7619,0 7.14285,0 0.4762,0 0.95239,0 1.42858,0 0.47619,0 1.00265,-0.21296 1.42857,0 0.60234,0.30116 0.78969,1.21561 1.42857,1.42857 0.72404,0.24135 8.83215,0 10,0 2.38095,0 4.7619,0 7.14286,0 1.40816,0 4.2653,0 2.85714,0 -1.42857,0 -2.85714,0 -4.28572,0 -0.47619,0 -1.21561,-0.42592 -1.42857,0 -0.42591,0.85183 0.42592,2.0053 0,2.85714 -0.21296,0.42592 -0.95238,0 -1.42857,0 -2.38095,0 -4.7619,0 -7.14286,0 -0.95238,0 -1.90476,0 -2.85714,0 -0.47619,0 -1.00265,-0.21296 -1.42857,0 -0.60234,0.30117 -0.82623,1.1274 -1.42857,1.42857 -0.42592,0.21296 -0.95238,0 -1.42857,0 -0.95238,0 -1.90476,0 -2.85715,0 -3.80952,0 -7.61904,0 -11.42857,0 -0.95238,0 -1.90476,0 -2.85714,0 -0.47619,0 -1.09185,-0.33672 -1.42857,0 -0.33672,0.33672 0.33672,1.09186 0,1.42857 -0.33672,0.33672 -0.95238,0 -1.42857,0 -1.42857,0 -2.85715,0 -4.28572,0 -5.71428,0 -11.42857,0 -17.14285,0 -2.85715,0 -5.71429,0 -8.57143,0 -0.48668,0 -4.94114,0.25772 -5.71429,0 -3.85979,-1.28659 -7.56878,-2.99912 -11.42857,-4.28571 -0.55589,-0.1853 -4.06402,0.22169 -4.28571,0 -0.33672,-0.33672 0.42591,-1.21561 0,-1.42857 -1.14286,-0.57143 -3.14286,0.57143 -4.28572,0 -0.60234,-0.30117 -0.82623,-1.12741 -1.42857,-1.42857 -0.88488,-0.44244 -5.2916,0.42268 -5.71429,0 -0.75292,-0.75293 -0.67564,-2.10422 -1.42857,-2.85715 -0.001,-10e-4 -4.27924,0.002 -4.28571,0 -0.63888,-0.21296 -0.82623,-1.1274 -1.42857,-1.42857 -0.42592,-0.21296 -0.9666,0.11549 -1.42857,0 -1.46089,-0.36522 -2.82483,-1.06335 -4.28572,-1.42857 -2.20954,-0.55239 -4.89992,0.74764 -7.14286,0 -0.45175,-0.15058 0.42592,-1.21561 0,-1.42857 -1.42119,-0.7106 -4.00311,0.5652 -4.28571,0 -0.42592,-0.85184 0.67344,-2.18371 0,-2.85714 -0.34376,-0.34376 -5.37053,0.34375 -5.71429,0 -0.33671,-0.33672 0.33672,-1.09186 0,-1.42858 -0.11471,-0.11471 -6.01841,0 -7.14285,0 -0.47619,0 -1.09186,0.33672 -1.42857,0 -0.33672,-0.33671 0.42591,-1.21561 0,-1.42857 -0.92422,-0.46211 -5.20113,0.51317 -5.71429,0 -1.90476,-1.90476 2.38095,-1.42857 -1.42857,-1.42857 -0.95238,0 -1.90476,0 -2.85714,0 -0.47619,0 -1.21562,0.42592 -1.42858,0 -0.42591,-0.85183 0.42592,-2.00531 0,-2.85714 -0.21295,-0.42592 -0.95238,0 -1.42857,0 -0.47619,0 -0.95238,0 -1.42857,0 -0.95238,0 -1.90476,0 -2.85714,0 -0.47619,0 -1.00265,0.21296 -1.42857,0 -0.60234,-0.30117 -0.82624,-1.1274 -1.42857,-1.42857 -0.88488,-0.44244 -5.2916,0.42269 -5.71429,0 -0.33672,-0.33672 0.33672,-1.09186 0,-1.42857 -0.46314,-0.46315 -6.23615,0.45335 -7.14286,0 -0.60234,-0.30117 -0.82623,-1.12741 -1.42857,-1.42858 -1.59157,-0.79578 -6.73687,2.04518 -4.28571,-2.85714 0.21296,-0.42592 0.95238,0 1.42857,0 1.90476,0 3.80952,0 5.71428,0 0.47619,0 1.09186,-0.33672 1.42858,0 0.33671,0.33672 -0.33672,1.09186 0,1.42857 0.33671,0.33672 0.95238,0 1.42857,0 0.54438,0 7.00419,-0.13866 7.14285,0 0.33672,0.33672 -0.33671,1.09186 0,1.42857 0.42269,0.42269 4.82941,-0.44243 5.71429,0 0.60234,0.30117 0.82623,1.12741 1.42857,1.42858 0.80136,0.40067 5.12193,-0.39491 5.71429,0 5.29586,3.53057 0.26202,2.85714 5.71428,2.85714 2.05092,0 5.44555,-0.42433 7.14286,0 0.65333,0.16333 0.95238,0.95238 1.42857,1.42857 1.90476,0.47619 3.78903,1.04352 5.71429,1.42857 0.93388,0.18678 1.90476,0 2.85714,0 1.90476,0 3.80952,0 5.71429,0 0.95238,0 1.93319,-0.23099 2.85714,0 1.46088,0.36522 2.82483,1.06335 4.28571,1.42857 0.92395,0.23099 1.90476,0 2.85715,0 3.33333,0 6.66666,0 10,0 2.85714,0 5.71428,0 8.57142,0 0.47619,0 1.21562,-0.42592 1.42858,0 0.42591,0.85184 -0.42592,2.00531 0,2.85715 0.21295,0.42591 0.95238,0 1.42857,0 3.80952,0 7.61904,0 11.42857,0 6.66667,0 13.33333,0 20,0 0.47619,0 0.95238,0 1.42857,0 0.47619,0 1.09185,-0.33672 1.42857,0 0.33672,0.33671 -0.33672,1.09185 0,1.42857 0.33672,0.33671 0.95238,0 1.42857,0 0.95238,0 1.90477,0 2.85715,0 3.80952,0 7.61904,0 11.42857,0 0.79818,0 6.29982,-0.28102 7.14285,0 1.01016,0.33671 1.84699,1.09185 2.85715,1.42857 0.84303,0.28101 6.34467,0 7.14285,0 0.4762,0 1.09186,-0.33672 1.42858,0 0.33671,0.33672 -0.33672,1.09185 0,1.42857 0.33671,0.33672 0.95238,0 1.42857,0 0.47619,0 0.95238,0 1.42857,0 1.90476,0 3.80952,0 5.71428,0 1.90477,0 3.80953,0 5.71429,0 0.47619,0 1.21561,-0.42592 1.42857,0 0.42592,0.85184 -0.42592,2.00531 0,2.85714 0.21296,0.42592 0.95238,0 1.42857,0 0.95238,0 1.90477,0 2.85715,0 0.47619,0 -0.95238,0 -1.42858,0 -1.90476,0 -3.80952,0 -5.71428,0 -4.76191,0 -9.52381,0 -14.28572,0 -5.71428,0 -11.42857,0 -17.14285,0 -2.38095,0 -4.77169,0.21556 -7.14286,0 -9.86347,-0.89668 -12.23063,-1.42857 -20,-1.42857 -0.82314,0 -6.62218,0.26034 -7.14286,0 -0.60234,-0.30117 -0.82623,-1.1274 -1.42857,-1.42857 -0.42592,-0.21296 -0.95238,0 -1.42857,0 -2.38095,0 -4.7619,0 -7.14286,0 -0.95238,0 -1.90476,0 -2.85714,0 -0.47619,0 -1.00265,0.21296 -1.42857,0 -0.60234,-0.30117 -0.82623,-1.1274 -1.42857,-1.42857 -0.85452,-0.42726 -8.19442,0.37701 -8.57143,0 -0.67344,-0.67344 0.79243,-2.32886 0,-2.85714 -1.58486,-1.05658 -3.80953,0 -5.71429,0 -10.13246,0 -0.83683,1.01015 -5.71428,-1.42858 -0.42592,-0.21295 -0.95238,0 -1.42857,0 -1.10334,0 -7.69987,0.29052 -8.57143,0 -1.01016,-0.33671 -1.82414,-1.17032 -2.85715,-1.42857 -0.92394,-0.23098 -1.9654,0.33441 -2.85714,0 -2.99099,-1.12162 -5.58043,-3.16409 -8.57143,-4.28571 -0.89174,-0.33441 -1.90476,0 -2.85714,0 -0.47619,0 -1.00265,0.21296 -1.42857,0 -0.60234,-0.30117 -0.82623,-1.1274 -1.42857,-1.42857 -0.42592,-0.21296 -0.95238,0 -1.42857,0 -0.95239,0 -1.95364,0.30117 -2.85715,0 -0.63887,-0.21296 -0.82623,-1.12741 -1.42857,-1.42857 -0.42592,-0.21296 -1.00265,0.21295 -1.42857,0 -0.60234,-0.30117 -0.78969,-1.21562 -1.42857,-1.42858 -1.03378,-0.34459 -5.24338,0.47092 -5.71429,0 -0.75292,-0.75292 -0.54261,-2.2665 -1.42857,-2.85714 -0.79243,-0.52828 -1.95363,0.30117 -2.85714,0 -0.63888,-0.21296 -0.82623,-1.1274 -1.42857,-1.42857 -0.85184,-0.42592 -1.95364,0.30117 -2.85715,0 -1.01015,-0.33672 -1.84699,-1.09185 -2.85714,-1.42857 -1.28571,-0.42857 -3,0.42857 -4.28571,0 -1.01016,-0.33672 -1.84699,-1.09186 -2.85715,-1.42857 -0.45175,-0.15059 -1.09185,0.33671 -1.42857,0 -0.75292,-0.75293 -0.67565,-2.10422 -1.42857,-2.85715 -0.33672,-0.33671 -0.95238,0 -1.42857,0 -0.95238,0 -2.00531,0.42592 -2.85714,0 -0.42592,-0.21295 0.33671,-1.09185 0,-1.42857 -0.33672,-0.33671 -0.95238,0 -1.42857,0 -0.95239,0 -2.00531,0.42592 -2.85715,0 -0.42591,-0.21296 0.42592,-1.21561 0,-1.42857 -0.92421,-0.46211 -5.20112,0.51317 -5.71428,0 -0.33672,-0.33672 0.33671,-1.09185 0,-1.42857 -0.33672,-0.33672 -1.21562,0.42592 -1.42857,0 -0.42592,-0.85184 0.67343,-2.18371 0,-2.85714 -0.36446,-0.36446 -3.92126,0.36446 -4.28572,0 -0.33672,-0.33672 0.33672,-1.09186 0,-1.42857 -0.33672,-0.33672 -1.90476,0 -1.42857,0 0.85135,0 9.64916,-0.17542 10,0 0.42592,0.21295 -0.33672,1.09185 0,1.42857 0.2217,0.22169 3.72982,-0.1853 4.28571,0 1.01016,0.33671 1.84699,1.09185 2.85715,1.42857 0.84303,0.28101 6.34467,0 7.14285,0 0.47619,0 1.00266,-0.21296 1.42858,0 0.60233,0.30117 0.82623,1.1274 1.42857,1.42857 0.89789,0.44894 4.81639,-0.44894 5.71428,0 3.53058,1.76529 -0.49311,1.42857 2.85715,1.42857 0.95238,0 1.90476,0 2.85714,0 0.47619,0 1.03236,-0.26414 1.42857,0 1.12066,0.74711 1.60661,2.35693 2.85714,2.85714 1.3264,0.53056 2.85715,0 4.28572,0 0.47619,0 1.00265,-0.21295 1.42857,0 0.60234,0.30117 0.78969,1.21562 1.42857,1.42858 0.90351,0.30116 1.90476,0 2.85714,0 0.47619,0 1.00266,-0.21296 1.42857,0 0.60234,0.30116 0.82624,1.1274 1.42858,1.42857 0.73287,0.36644 5.97336,-0.2339 7.14285,0 1.47661,0.29532 2.82483,1.06335 4.28572,1.42857 0.75384,0.18846 3.80834,-0.31825 4.28571,0 1.12067,0.74711 1.73648,2.11003 2.85714,2.85714 0.39622,0.26414 0.95239,0 1.42858,0 1.90476,0 3.84651,-0.37355 5.71428,0 0.66036,0.13207 0.82623,1.1274 1.42857,1.42857 0.90617,0.45309 6.21483,-0.46401 7.14286,0 0.60234,0.30117 0.77524,1.26524 1.42857,1.42857 1.38592,0.34648 2.85714,0 4.28572,0 0.47619,0 1.00265,-0.21295 1.42857,0 3.53058,1.76529 -0.49311,1.42858 2.85714,1.42858 0.61609,0 9.95246,-0.0476 10,0 0.67344,0.67343 -0.67343,2.1837 0,2.85714 0.67344,0.67343 1.91433,-0.13469 2.85714,0 2.4037,0.34338 4.74779,1.02939 7.14286,1.42857 1.19707,0.19951 6.42331,-0.35977 7.14286,0 0.60234,0.30117 0.77524,1.26524 1.42857,1.42857 0.80739,0.20185 6.03449,-0.36945 7.14286,0 1.01015,0.33672 1.84699,1.09186 2.85714,1.42857 0.79557,0.26519 3.73479,-0.36728 4.28571,0 1.12067,0.74711 1.65247,2.25481 2.85715,2.85715 1.90476,0.95238 5.23809,-0.95239 7.14285,0 0.42592,0.21295 -0.33671,1.09185 0,1.42857 0.28081,0.28081 6.68123,-0.96694 4.28572,1.42857 -0.33672,0.33672 -0.95238,0 -1.42857,0 -0.95238,0 -1.90477,0 -2.85715,0 -4.7619,0 -9.52381,0 -14.28571,0 -17.14286,0 -34.28572,0 -51.42857,0 -1.12445,0 -7.02815,0.11471 -7.14286,0 -0.75292,-0.75292 -0.67565,-2.10422 -1.42857,-2.85714 -0.33672,-0.33672 -0.95238,0 -1.42857,0 -1.90476,0 -3.82867,0.26937 -5.71429,0 -1.49071,-0.21296 -2.82483,-1.06335 -4.28571,-1.42858 -2.03234,-0.50808 -5.24223,0.63355 -7.14286,0 -0.63888,-0.21295 -0.82623,-1.1274 -1.42857,-1.42857 -0.63568,-0.31784 -5.06088,0.21781 -5.71429,0 -0.63887,-0.21296 -0.76821,-1.2965 -1.42857,-1.42857 -1.86777,-0.37355 -3.80952,0 -5.71428,0 -0.95239,0 -2.06472,0.52829 -2.85715,0 -0.88596,-0.59064 -0.54261,-2.2665 -1.42857,-2.85714 -1.13354,-0.75569 -4.26551,0.36219 -5.71428,0 -1.46089,-0.36522 -2.82483,-1.06335 -4.28572,-1.42857 -0.92394,-0.23099 -2.00531,0.42591 -2.85714,0 -0.60234,-0.30117 -0.7897,-1.21562 -1.42857,-1.42857 -1.42857,-0.4762 -2.85715,0.23809 -4.28572,0 -2.39506,-0.39918 -4.74779,-1.0294 -7.14285,-1.42858 -0.46972,-0.0783 -1.21562,0.42592 -1.42858,0 -0.42591,-0.85183 0.42592,-2.0053 0,-2.85714 -0.0979,-0.19573 -4.2301,0 -5.71428,0 -4.5985,0 2.43872,0.33672 -2.85714,-1.42857 -0.90351,-0.30117 -1.90477,0 -2.85715,0 -1.65361,0 -5.86745,0.31885 -7.14285,0 -1.03301,-0.25825 -1.84699,-1.09185 -2.85715,-1.42857 -0.82753,-0.27585 -4.47631,0 -5.71428,0 -4.5985,0 2.43872,0.33672 -2.85715,-1.42857 -0.9035,-0.30117 -1.90476,0 -2.85714,0 -0.95238,0 -1.90476,0 -2.85714,0 -0.47619,0 -1.42857,0.47619 -1.42857,0 0,-0.47619 0.95238,0 1.42857,0 1.42857,0 2.85714,0 4.28571,0 5.71429,0 11.42857,0 17.14286,0 0.95238,0 1.90476,0 2.85714,0 0.47619,0 1.09186,-0.33672 1.42857,0 0.33672,0.33671 -0.33671,1.09185 0,1.42857 0.33672,0.33672 0.95239,0 1.42858,0 1.42857,0 2.85714,0 4.28571,0 0.47619,0 0.95238,0 1.42857,0 0.47619,0 1.09186,-0.33672 1.42857,0 0.75293,0.75292 0.54261,2.2665 1.42857,2.85714 0.79243,0.52829 1.91212,-0.11813 2.85715,0 2.87418,0.35927 5.70398,1.01894 8.57143,1.42857 1.2678,0.18112 6.83387,-0.30898 7.14285,0 0.33672,0.33672 -0.33671,1.09186 0,1.42857 0.33672,0.33672 0.95238,0 1.42857,0 0.76317,0 6.734,-0.20443 7.14286,0 0.60234,0.30117 0.77525,1.26524 1.42857,1.42858 1.38592,0.34647 2.85715,0 4.28572,0 2.85714,0.95238 5.67561,2.02976 8.57143,2.85714 1.25698,0.35914 4.7739,-0.47019 5.71428,0 0.60234,0.30117 0.82623,1.1274 1.42857,1.42857 0.43434,0.21717 4.72783,0 5.71429,0 2.38095,0 4.7619,0 7.14286,0 0.95238,0 1.95363,-0.30117 2.85714,0 1.01015,0.33672 1.84699,1.09185 2.85714,1.42857 0.87156,0.29052 7.4681,0 8.57143,0 0.47619,0 1.00265,-0.21296 1.42857,0 0.60234,0.30117 0.7897,1.21561 1.42857,1.42857 0.81266,0.27089 5.79738,0 7.14286,0 0.95238,0 2.06471,-0.52828 2.85714,0 0.88597,0.59064 0.54261,2.2665 1.42857,2.85715 0.79243,0.52828 1.90477,0 2.85715,0 0.95238,0 1.90476,0 2.85714,0 3.80952,0 7.61905,0 11.42857,0 3.33333,0 6.66667,0 10,0 0.47619,0 0.95238,0 1.42857,0 0.47619,0 1.64153,0.42591 1.42857,0 C 443.22092,503.5847 441.42857,501.90476 440,500"
         id="path9388"
         inkscape:connector-curvature="0" />
      <text
         xml:space="preserve"
         style="font-style:normal;font-variant:normal;font-weight:500;font-stretch:normal;font-size:131.77752686px;line-height:1.25;font-family:Ubuntu;-inkscape-font-specification:'Ubuntu Medium';text-align:center;letter-spacing:0px;word-spacing:0px;text-anchor:middle;fill:#00ffff;fill-opacity:1;stroke:#00ff00;stroke-width:1.37268257;stroke-opacity:1;"
         x="402.9856"
         y="533.2738"
         id="text9392"><tspan
           sodipodi:role="line"
           id="tspan9390"
           x="402.9856"
           y="533.2738"
           style="stroke-width:1.37268257;fill:#00ffff;fill-opacity:1;stroke:#00ff00;stroke-opacity:1;">Age</tspan></text>
      <text
         xml:space="preserve"
         style="font-style:normal;font-variant:normal;font-weight:500;font-stretch:normal;font-size:96px;line-height:1.25;font-family:Ubuntu;-inkscape-font-specification:'Ubuntu Medium';text-align:center;letter-spacing:0px;word-spacing:0px;text-anchor:middle;fill:#000000;fill-opacity:1;stroke:none"
         x="355.71429"
         y="715.71429"
         id="text9396"><tspan
           sodipodi:role="line"
           id="tspan9394"
           x="355.71429"
           y="715.71429">PREMIERE</tspan></text>
      <text
         xml:space="preserve"
         style="font-style:normal;font-variant:normal;font-weight:500;font-stretch:normal;font-size:123.31148529px;line-height:1.25;font-family:Ubuntu;-inkscape-font-specification:'Ubuntu Medium';text-align:start;letter-spacing:0px;word-spacing:0px;text-anchor:start;fill:#0000ff;fill-opacity:1;stroke:#00ffff;stroke-width:1.28449464;stroke-opacity:1"
         x="37.875393"
         y="710.07794"
         id="text9400"><tspan
           sodipodi:role="line"
           id="tspan9398"
           x="37.875393"
           y="710.07794"
           style="stroke-width:1.28449464">Premiere</tspan></text>
      <text
         xml:space="preserve"
         style="font-style:normal;font-variant:normal;font-weight:500;font-stretch:normal;font-size:23.12636757px;line-height:1.25;font-family:Ubuntu;-inkscape-font-specification:'Ubuntu Medium';text-align:start;letter-spacing:0px;word-spacing:0px;text-anchor:start;fill:#000000;fill-opacity:1;stroke:none;stroke-width:0.36134949"
         x="703.14728"
         y="567.92181"
         id="text9404"><tspan
           sodipodi:role="line"
           id="tspan9402"
           x="703.14728"
           y="567.92181"
           style="stroke-width:0.36134949">ft. epic sicc season</tspan></text>
    </g>
  </g>
  <g
     inkscape:label="TopBase"
     inkscape:groupmode="layer"
     id="layer1"
     transform="translate(0,-42.519653)"
     sodipodi:insensitive="true">
    <g
       transform="matrix(0.25549338,0,0,0.25549338,-11.535022,807.45261)"
       style="opacity:0.98000004"
       id="layer1-1"
       inkscape:label="Layer 1">
      <text
         id="text4543"
         y="738.56696"
         x="1026.7601"
         style="font-style:normal;font-variant:normal;font-weight:500;font-stretch:normal;font-size:564.42919922px;line-height:401.09991455px;font-family:Ubuntu;-inkscape-font-specification:'Ubuntu Medium';text-align:center;letter-spacing:-2.02999997px;word-spacing:0px;text-anchor:middle;fill:url(#linearGradient4553);fill-opacity:1;stroke:url(#linearGradient4563);stroke-width:30;stroke-miterlimit:4;stroke-dasharray:none;stroke-opacity:1"
         xml:space="preserve"><tspan
           style="line-height:401.09991455px;letter-spacing:0px;fill:url(#linearGradient4553);fill-opacity:1;stroke:url(#linearGradient4563);stroke-width:30;stroke-miterlimit:4;stroke-dasharray:none;stroke-opacity:1"
           y="738.56696"
           x="1026.7601"
           id="tspan4541"
           sodipodi:role="line">After</tspan><tspan
           style="line-height:401.09991455px;letter-spacing:0px;fill:url(#linearGradient4553);fill-opacity:1;stroke:url(#linearGradient4563);stroke-width:30;stroke-miterlimit:4;stroke-dasharray:none;stroke-opacity:1"
           id="tspan4545"
           y="1139.6669"
           x="1026.7601"
           sodipodi:role="line">Church</tspan></text>
    </g>
    <g
       transform="translate(456,560.01965)"
       id="g1536-6-4"
       inkscape:export-xdpi="300"
       inkscape:export-ydpi="300">
      <g
         transform="translate(-128,64)"
         id="g1492-8-7">
        <path
           inkscape:connector-curvature="0"
           style="opacity:1;fill:#ffc800;fill-opacity:1;fill-rule:nonzero;stroke:none;stroke-opacity:1"
           d="m 256,208 a 64,64 0 0 0 -64,64 64,64 0 0 0 64,64 h 64 a 64,64 0 0 0 64,-64 64,64 0 0 0 -64,-64 z"
           transform="translate(0,106.5)"
           id="path1451-5-8" />
        <path
           inkscape:connector-curvature="0"
           style="opacity:1;fill:#fffe00;fill-opacity:1;fill-rule:nonzero;stroke:none;stroke-width:1.0444659;stroke-opacity:1"
           d="m 288,224 a 4,4 0 0 0 -4,4 v 40 h -40 a 4,4 0 0 0 -4,4 4,4 0 0 0 4,4 h 40 v 40 a 4,4 0 0 0 4,4 4,4 0 0 0 4,-4 v -40 h 40 a 4,4 0 0 0 4,-4 4,4 0 0 0 -4,-4 h -40 v -40 a 4,4 0 0 0 -4,-4 z"
           transform="translate(0,106.5)"
           id="rect1461-3-4" />
      </g>
      <flowRoot
         transform="translate(-108.256,129.20475)"
         style="font-style:normal;font-weight:normal;font-size:40px;line-height:0;font-family:sans-serif;letter-spacing:0px;word-spacing:0px;fill:#fffff6;fill-opacity:1;stroke:#000000;stroke-opacity:1"
         id="flowRoot1482-6-4"
         xml:space="preserve"><flowRegion
           style="line-height:0;fill:#fffff6;fill-opacity:1;stroke:#000000;stroke-opacity:1"
           id="flowRegion1484-4-7"><rect
             style="line-height:0;fill:#fffff6;fill-opacity:1;stroke:#000000;stroke-opacity:1"
             y="272"
             x="384"
             height="128"
             width="1024"
             id="rect1486-8-8" /></flowRegion><flowPara
           style="font-style:normal;font-variant:normal;font-weight:normal;font-stretch:normal;font-size:96px;line-height:1;font-family:Ubuntu;-inkscape-font-specification:Ubuntu;fill:#fffff6;fill-opacity:1;stroke:#000000;stroke-opacity:1"
           id="flowPara1488-6-3">Perkedel </flowPara></flowRoot>    </g>
  </g>
</svg>
