<?xml version="1.0" encoding="UTF-8" standalone="no"?>
<svg
   xmlns:dc="http://purl.org/dc/elements/1.1/"
   xmlns:cc="http://creativecommons.org/ns#"
   xmlns:rdf="http://www.w3.org/1999/02/22-rdf-syntax-ns#"
   xmlns:svg="http://www.w3.org/2000/svg"
   xmlns="http://www.w3.org/2000/svg"
   xmlns:xlink="http://www.w3.org/1999/xlink"
   xmlns:sodipodi="http://sodipodi.sourceforge.net/DTD/sodipodi-0.dtd"
   xmlns:inkscape="http://www.inkscape.org/namespaces/inkscape"
   inkscape:export-ydpi="96"
   inkscape:export-xdpi="96"
   inkscape:export-filename="C:\Users\joelr\Documents\starring codes\After Church\RAW files\Inkscape\Balloon_Artillery_Illustration.png"
   sodipodi:docname="Balloon_Artillery_Illustration.svg"
   inkscape:version="1.0 (4035a4fb49, 2020-05-01)"
   id="svg8"
   version="1.1"
   viewBox="0 0 507.99999 285.75001"
   height="1080"
   width="1920">
  <defs
     id="defs2">
    <linearGradient
       id="linearGradient862"
       inkscape:collect="always">
      <stop
         id="stop858"
         offset="0"
         style="stop-color:#a5878c;stop-opacity:1;" />
      <stop
         style="stop-color:#6b9ec4;stop-opacity:1"
         offset="0.5"
         id="stop866" />
      <stop
         id="stop860"
         offset="1"
         style="stop-color:#a5878c;stop-opacity:1" />
    </linearGradient>
    <linearGradient
       id="linearGradient850"
       inkscape:collect="always">
      <stop
         id="stop846"
         offset="0"
         style="stop-color:#7affff;stop-opacity:1;" />
      <stop
         style="stop-color:#a5e5c0;stop-opacity:1"
         offset="0.5"
         id="stop854" />
      <stop
         id="stop848"
         offset="1"
         style="stop-color:#0099ff;stop-opacity:1" />
    </linearGradient>
    <linearGradient
       gradientUnits="userSpaceOnUse"
       y2="285.75"
       x2="148.16667"
       y1="0"
       x1="343.95834"
       id="linearGradient852"
       xlink:href="#linearGradient850"
       inkscape:collect="always" />
    <linearGradient
       gradientUnits="userSpaceOnUse"
       y2="248.70833"
       x2="502.70834"
       y1="248.70833"
       x1="5.2916665"
       id="linearGradient864"
       xlink:href="#linearGradient862"
       inkscape:collect="always" />
  </defs>
  <sodipodi:namedview
     inkscape:window-maximized="1"
     inkscape:window-y="-9"
     inkscape:window-x="-9"
     inkscape:window-height="1051"
     inkscape:window-width="1920"
     inkscape:snap-bbox-midpoints="true"
     inkscape:snap-bbox-edge-midpoints="true"
     inkscape:bbox-nodes="true"
     inkscape:bbox-paths="true"
     inkscape:snap-bbox="true"
     units="px"
     showgrid="true"
     inkscape:document-rotation="0"
     inkscape:current-layer="layer1"
     inkscape:document-units="px"
     inkscape:cy="392.50692"
     inkscape:cx="1053.9235"
     inkscape:zoom="0.49497475"
     inkscape:pageshadow="2"
     inkscape:pageopacity="0.0"
     borderopacity="1.0"
     bordercolor="#666666"
     pagecolor="#ffffff"
     id="base">
    <inkscape:grid
       id="grid842"
       type="xygrid" />
  </sodipodi:namedview>
  <metadata
     id="metadata5">
    <rdf:RDF>
      <cc:Work
         rdf:about="">
        <dc:format>image/svg+xml</dc:format>
        <dc:type
           rdf:resource="http://purl.org/dc/dcmitype/StillImage" />
        <dc:title></dc:title>
        <cc:license
           rdf:resource="http://creativecommons.org/licenses/by-sa/4.0/" />
      </cc:Work>
      <cc:License
         rdf:about="http://creativecommons.org/licenses/by-sa/4.0/">
        <cc:permits
           rdf:resource="http://creativecommons.org/ns#Reproduction" />
        <cc:permits
           rdf:resource="http://creativecommons.org/ns#Distribution" />
        <cc:requires
           rdf:resource="http://creativecommons.org/ns#Notice" />
        <cc:requires
           rdf:resource="http://creativecommons.org/ns#Attribution" />
        <cc:permits
           rdf:resource="http://creativecommons.org/ns#DerivativeWorks" />
        <cc:requires
           rdf:resource="http://creativecommons.org/ns#ShareAlike" />
      </cc:License>
    </rdf:RDF>
  </metadata>
  <g
     id="layer1"
     inkscape:groupmode="layer"
     inkscape:label="Lapis 1">
    <rect
       y="0"
       x="0"
       height="285.75"
       width="508"
       id="rect844"
       style="fill:url(#linearGradient852);stroke:none;stroke-width:0.264583;stroke-linecap:round;stroke-linejoin:round;stroke-dashoffset:9.44882;fill-opacity:1" />
    <rect
       y="201.08334"
       x="0"
       height="84.666672"
       width="508"
       id="rect856"
       style="fill:url(#linearGradient864);fill-opacity:1;stroke:none;stroke-width:0.264583;stroke-linecap:round;stroke-linejoin:round;stroke-dashoffset:9.44882" />
    <text
       id="text892"
       y="68.037628"
       x="114.95525"
       style="font-size:5.80847px;line-height:1.25;font-family:Ubuntu;-inkscape-font-specification:Ubuntu;text-align:center;letter-spacing:0px;word-spacing:0px;text-anchor:middle;fill:#003eff;fill-opacity:1;stroke:#0000ff;stroke-width:0.0605048;stroke-opacity:1"
       xml:space="preserve"><tspan
         style="fill:#003eff;fill-opacity:1;stroke:#0000ff;stroke-width:0.0605048;stroke-opacity:1"
         y="68.037628"
         x="114.95525"
         id="tspan890"
         sodipodi:role="line">Hit your balloon to enemy</tspan><tspan
         id="tspan894"
         style="fill:#003eff;fill-opacity:1;stroke:#0000ff;stroke-width:0.0605048;stroke-opacity:1"
         y="75.298218"
         x="114.95525"
         sodipodi:role="line">spot to win</tspan></text>
    <g
       id="g966">
      <g
         id="g948">
        <path
           id="path870"
           d="M 79.375002,76.729169 V 37.041668 H 37.041668 V 201.08334 H 140.22917 V 111.125 l -2.64583,2.64584 -59.575334,-34.395838 z"
           style="fill:none;stroke:#0000ff;stroke-width:1.32291668;stroke-linecap:round;stroke-linejoin:round;stroke-opacity:1;stroke-miterlimit:4;stroke-dasharray:none" />
        <g
           id="g934">
          <g
             id="g916">
            <g
               id="g910">
              <path
                 style="fill:none;stroke:#ff0000;stroke-width:1.32291668;stroke-linecap:round;stroke-linejoin:round;stroke-opacity:1;stroke-miterlimit:4;stroke-dasharray:none"
                 d="M 116.41667,100.54167 111.125,111.125"
                 id="path874" />
              <path
                 style="fill:none;stroke:#ff0000;stroke-width:1.32292;stroke-linecap:round;stroke-linejoin:round;stroke-miterlimit:4;stroke-dasharray:none;stroke-opacity:1"
                 d="M 132.29167,108.47917 127,119.0625"
                 id="path876"
                 sodipodi:nodetypes="cc" />
            </g>
            <path
               id="path878"
               d="m 110.40404,108.73753 17.59852,10.16051 -12.02001,10.65877 -8.79925,-5.08025 z"
               style="fill:#ffff00;fill-opacity:1;stroke:#000000;stroke-width:1.01605px;stroke-linecap:butt;stroke-linejoin:miter;stroke-opacity:1" />
          </g>
          <g
             id="g922">
            <g
               id="g906">
              <path
                 style="fill:#00ff00;fill-opacity:1;stroke:#000000;stroke-width:0.264583px;stroke-linecap:butt;stroke-linejoin:miter;stroke-opacity:1"
                 d="m 79.375002,76.729169 38.529568,22.245056 -1.4879,2.890355 14.55208,7.9375 1.29003,-2.54045 7.97039,4.60171 -3.30388,1.9075 -59.575335,-34.395838 z"
                 id="path868"
                 sodipodi:nodetypes="ccccccccc" />
              <rect
                 style="fill:#00ff00;fill-opacity:1;stroke:#0000ff;stroke-width:1.32292;stroke-linecap:round;stroke-linejoin:round;stroke-miterlimit:4;stroke-dasharray:none;stroke-dashoffset:9.44882;stroke-opacity:1"
                 id="rect872"
                 width="2.6458335"
                 height="42.333336"
                 x="76.729172"
                 y="37.041668" />
            </g>
            <rect
               transform="rotate(30)"
               y="20.099834"
               x="109.43147"
               height="5.291667"
               width="30.427084"
               id="rect888"
               style="fill:#005eff;fill-opacity:1;stroke:#000000;stroke-width:1.32292;stroke-linecap:round;stroke-linejoin:round;stroke-miterlimit:4;stroke-dasharray:none;stroke-dashoffset:9.44882;stroke-opacity:1" />
          </g>
        </g>
      </g>
      <g
         id="g902">
        <circle
           r="10.583334"
           cy="124.35417"
           cx="84.666672"
           id="path896"
           style="fill:#00dbff;fill-opacity:1;stroke:#000000;stroke-width:1.32292;stroke-linecap:round;stroke-linejoin:round;stroke-miterlimit:4;stroke-dasharray:none;stroke-dashoffset:9.44882;stroke-opacity:1" />
        <path
           id="path898"
           d="m 84.666669,134.9375 v 31.75 l -26.458334,31.75 26.458334,-31.75 23.812501,31.75 -23.812501,-31.75 V 142.875 H 55.562501 84.666669 113.77084 84.666669 Z"
           style="fill:none;stroke:#000000;stroke-width:1.32291668;stroke-linecap:butt;stroke-linejoin:miter;stroke-opacity:1;stroke-miterlimit:4;stroke-dasharray:none" />
      </g>
    </g>
    <text
       xml:space="preserve"
       style="font-size:6.55031px;line-height:1.25;font-family:Ubuntu;-inkscape-font-specification:Ubuntu;text-align:center;letter-spacing:0px;word-spacing:0px;text-anchor:middle;fill:#ffff00;fill-opacity:1;stroke:#000000;stroke-width:0.0682319;stroke-opacity:1"
       x="147.65729"
       y="128.93562"
       id="text886"><tspan
         sodipodi:role="line"
         id="tspan884"
         x="147.65729"
         y="128.93562"
         style="fill:#ffff00;fill-opacity:1;stroke:#000000;stroke-width:0.0682319;stroke-opacity:1">Catapult bucket</tspan></text>
    <text
       id="text882"
       y="120.24181"
       x="141.30553"
       style="font-size:6.55031px;line-height:1.25;font-family:Ubuntu;-inkscape-font-specification:Ubuntu;text-align:center;letter-spacing:0px;word-spacing:0px;text-anchor:middle;fill:#ff0000;fill-opacity:1;stroke-width:0.0682319"
       xml:space="preserve"><tspan
         style="fill:#ff0000;fill-opacity:1;stroke-width:0.0682319"
         y="120.24181"
         x="141.30553"
         id="tspan880"
         sodipodi:role="line">Rubber</tspan></text>
    <g
       transform="matrix(-1,0,0,1,518.58334,0)"
       id="g1000">
      <g
         id="g992">
        <path
           style="fill:none;stroke:#0000ff;stroke-width:1.32292;stroke-linecap:round;stroke-linejoin:round;stroke-miterlimit:4;stroke-dasharray:none;stroke-opacity:1"
           d="M 79.375002,76.729169 V 37.041668 H 37.041668 V 201.08334 H 140.22917 V 111.125 l -2.64583,2.64584 -59.575334,-34.395838 z"
           id="path968" />
        <g
           id="g990">
          <g
             id="g978">
            <g
               id="g974">
              <path
                 id="path970"
                 d="M 116.41667,100.54167 111.125,111.125"
                 style="fill:none;stroke:#ff0000;stroke-width:1.32292;stroke-linecap:round;stroke-linejoin:round;stroke-miterlimit:4;stroke-dasharray:none;stroke-opacity:1" />
              <path
                 sodipodi:nodetypes="cc"
                 id="path972"
                 d="M 132.29167,108.47917 127,119.0625"
                 style="fill:none;stroke:#ff0000;stroke-width:1.32292;stroke-linecap:round;stroke-linejoin:round;stroke-miterlimit:4;stroke-dasharray:none;stroke-opacity:1" />
            </g>
            <path
               style="fill:#ffff00;fill-opacity:1;stroke:#000000;stroke-width:1.01605px;stroke-linecap:butt;stroke-linejoin:miter;stroke-opacity:1"
               d="m 110.40404,108.73753 17.59852,10.16051 -12.02001,10.65877 -8.79925,-5.08025 z"
               id="path976" />
          </g>
          <g
             id="g988">
            <g
               id="g984">
              <path
                 sodipodi:nodetypes="ccccccccc"
                 id="path980"
                 d="m 79.375002,76.729169 38.529568,22.245056 -1.4879,2.890355 14.55208,7.9375 1.29003,-2.54045 7.97039,4.60171 -3.30388,1.9075 -59.575335,-34.395838 z"
                 style="fill:#00ff00;fill-opacity:1;stroke:#000000;stroke-width:0.264583px;stroke-linecap:butt;stroke-linejoin:miter;stroke-opacity:1" />
              <rect
                 y="37.041668"
                 x="76.729172"
                 height="42.333336"
                 width="2.6458335"
                 id="rect982"
                 style="fill:#00ff00;fill-opacity:1;stroke:#0000ff;stroke-width:1.32292;stroke-linecap:round;stroke-linejoin:round;stroke-miterlimit:4;stroke-dasharray:none;stroke-dashoffset:9.44882;stroke-opacity:1" />
            </g>
            <rect
               style="fill:#005eff;fill-opacity:1;stroke:#000000;stroke-width:1.32292;stroke-linecap:round;stroke-linejoin:round;stroke-miterlimit:4;stroke-dasharray:none;stroke-dashoffset:9.44882;stroke-opacity:1"
               id="rect986"
               width="30.427084"
               height="5.291667"
               x="109.43147"
               y="20.099834"
               transform="rotate(30)" />
          </g>
        </g>
      </g>
      <g
         id="g998">
        <circle
           style="fill:#00dbff;fill-opacity:1;stroke:#000000;stroke-width:1.32292;stroke-linecap:round;stroke-linejoin:round;stroke-miterlimit:4;stroke-dasharray:none;stroke-dashoffset:9.44882;stroke-opacity:1"
           id="circle994"
           cx="84.666672"
           cy="124.35417"
           r="10.583334" />
        <path
           style="fill:none;stroke:#000000;stroke-width:1.32292;stroke-linecap:butt;stroke-linejoin:miter;stroke-miterlimit:4;stroke-dasharray:none;stroke-opacity:1"
           d="m 84.666669,134.9375 v 31.75 l -26.458334,31.75 26.458334,-31.75 23.812501,31.75 -23.812501,-31.75 V 142.875 H 55.562501 84.666669 113.77084 84.666669 Z"
           id="path996" />
      </g>
    </g>
    <path
       d="m 130.88689,97.695239 c 3.89308,-1.742522 2.80097,-1.232889 8.24406,-3.84207 9.21256,-4.416115 10.33942,-5.101908 20.55658,-9.695373 12.35964,-5.55669 13.85482,-6.039181 26.32266,-11.123087 15.42227,-6.165215 31.34392,-10.985106 47.60261,-14.371553 12.54881,-2.613734 18.18383,-3.297536 31.37334,-5.35087 15.76176,-2.163458 31.53352,-4.363696 47.38055,-5.825297 2.44221,-0.225247 9.03812,-0.842944 12.35999,-0.583975 0.76639,0.05975 1.5046,0.315942 2.25692,0.473911 5.3911,2.719599 11.05863,4.802635 16.81888,6.585101 2.48327,0.693129 5.00493,1.221666 7.49895,1.871446 0.64585,0.168267 1.97813,0.506534 2.61908,0.759195 0.44376,0.174922 0.8636,0.405281 1.2954,0.607923 1.84373,1.02612 3.81358,1.839084 5.61772,2.936896 0.60076,0.36557 1.17673,0.770702 1.77522,1.139989 1.20578,0.752105 2.60749,0.958649 3.94806,1.336778 1.02703,0.28969 2.03755,0.634929 3.0558,0.954167 3.90589,1.282528 7.64659,2.999891 11.41741,4.621745 3.49081,1.360826 7.01971,2.988143 10.76661,3.476786 1.65719,0.208587 0.79735,0.11257 2.58014,0.282639 0.0413,0.014 0.23913,-0.569611 0.19785,-0.5836 v 0 c -1.76956,-0.150214 -0.91442,-0.0596 -2.56609,-0.265308 -1.51524,-0.189352 -2.86919,-0.624112 -4.31998,-1.113978 -0.31083,-0.104955 -4.11118,-1.429803 -4.38314,-1.532329 -0.64826,-0.244385 -1.28363,-0.521724 -1.92543,-0.782587 -3.78219,-1.640531 -7.50488,-3.455456 -11.45894,-4.666806 -1.03423,-0.308957 -2.06063,-0.644927 -3.1014,-0.931124 -1.29457,-0.355997 -2.6503,-0.531569 -3.82082,-1.243235 -1.15609,-0.720744 -0.56218,-0.334761 -1.77813,-1.163537 -1.79874,-1.133795 -3.77537,-1.965669 -5.64404,-2.972107 -3.611,-1.694077 -7.60934,-2.268228 -11.41735,-3.379433 -5.76091,-1.798365 -11.49596,-3.801854 -16.88328,-6.546001 -0.77795,-0.2086 -1.53471,-0.525198 -2.33383,-0.6258 -3.91004,-0.492242 -9.43676,-0.124381 -12.99557,0.126283 -15.92662,1.121785 -31.76156,3.298817 -47.55453,5.580586 -12.51949,2.099355 -19.30887,3.075038 -31.33183,5.647563 -16.29484,3.486566 -32.28498,8.296945 -47.79766,14.386222 -4.37608,1.780648 -8.78094,3.492148 -13.12824,5.341946 -14.16457,6.027092 -27.90873,12.929962 -41.58091,19.984405 -0.0343,0.02357 0.29908,0.508058 0.33334,0.484489 z"
       id="path1010"
       style="fill:#00dbff;fill-opacity:1;stroke:#000000;stroke-width:1.32292;stroke-linecap:round;stroke-linejoin:round;stroke-miterlimit:4;stroke-dasharray:none;stroke-dashoffset:9.44882;stroke-opacity:1" />
    <path
       d="m 396.92348,65.696893 c -0.6218,2.152869 -1.47465,4.227205 -2.30957,6.302983 -1.03071,2.562532 -2.06396,5.047139 -3.23387,7.548603 -0.0656,0.94085 -1.0682,1.594122 -1.23783,2.512073 -0.0251,0.13558 0.0567,0.36123 0.19455,0.365022 1.01079,0.02781 3.1492,-1.750005 3.89467,-2.290429 2.21453,-1.554621 4.79102,-3.500277 7.55708,-3.846494 0.0502,0.02519 0.11189,0.03494 0.1507,0.07558 0.0304,0.03181 0.0259,0.08415 0.0412,0.125354 0.11835,0.316783 0.21958,0.552739 0.53938,0.685178 0.43641,-0.03482 1.34528,-0.02103 1.37864,-0.667334 0.0311,-0.602176 -0.499,-1.25303 -0.76351,-1.689455 -1.81795,-2.607395 -3.86011,-5.059228 -6.02197,-7.387725 -0.14382,-0.129704 -0.28763,-0.259408 -0.43145,-0.389112 -0.0135,-0.01646 -0.24617,0.174262 -0.2327,0.190719 v 0 c 0.13242,0.129424 0.26484,0.25885 0.39727,0.388276 2.09359,2.367963 4.1335,4.791536 5.99247,7.349499 0.1,0.151862 1.12506,1.312108 0.67672,1.708131 -0.22489,0.198665 -0.60896,0.138462 -0.87016,0.251119 -0.46678,0.0158 -0.31374,-1.179044 -0.95901,-0.924163 -2.86401,0.292698 -5.44401,2.256348 -7.72065,3.862424 -3.35962,2.476254 0.23575,-0.139263 -2.78736,1.967622 -0.20388,0.142097 -0.37052,0.342527 -0.59483,0.449477 -0.0512,0.02442 -0.15542,-0.04654 -0.13748,-0.100351 0.10771,-0.322784 0.31395,-0.603817 0.47284,-0.904733 0.27889,-0.528267 0.56033,-1.055198 0.8405,-1.582798 0.34216,-0.712004 0.70117,-1.416153 1.02648,-2.136016 0.73922,-1.63586 1.59453,-3.76854 2.24647,-5.424548 0.82484,-2.095238 1.65883,-4.198993 2.18564,-6.394101 0.003,-0.0208 -0.29109,-0.06561 -0.29427,-0.0448 z"
       id="path1012"
       style="fill:#00dbff;fill-opacity:1;stroke:#000000;stroke-width:1.32292;stroke-linecap:round;stroke-linejoin:round;stroke-miterlimit:4;stroke-dasharray:none;stroke-dashoffset:9.44882;stroke-opacity:1" />
    <path
       d="m 253.55456,19.400781 c 1.67546,4.397742 3.58174,8.70595 5.40722,13.043232 1.45412,3.536056 2.68342,7.157147 4.06525,10.720862 0.26202,0.675762 0.39999,1.421315 0.81395,2.016252 0.17511,0.251664 0.59073,0.539305 0.84375,0.366159 0.64907,-0.444182 0.93226,-1.26701 1.3984,-1.900515 2.21917,-4.690086 4.1066,-9.525003 6.09052,-14.315927 0.51078,-1.233411 2.58652,-6.33824 3.51777,-7.940934 0.23077,-0.39717 0.61611,-0.681488 0.92416,-1.022232 0.71978,7.857173 0.40487,15.763225 0.43699,23.642771 -2.27169,0.0909 0.26985,2.371685 0.66336,1.848522 0.47498,-0.631439 0.65138,-1.439984 0.95832,-2.168073 0.5374,-1.274768 1.0467,-2.561219 1.57451,-3.839988 2.79967,-6.782837 1.66132,-4.08728 4.77896,-11.131524 3.13849,-7.030651 1.63423,-3.702432 4.50379,-9.988734 0.0169,-0.04407 -0.60642,-0.28271 -0.6233,-0.238636 v 0 c -2.96455,6.259257 -1.4273,2.939083 -4.59087,9.970148 -0.85003,1.953061 -1.73138,3.89278 -2.55005,5.859179 -0.79674,1.913663 -2.74976,6.946057 -3.57799,9.211639 -0.24014,0.656955 -0.49355,1.311296 -0.67596,1.986573 -0.0241,0.08884 0.0601,0.359567 0.067,0.267806 0.0445,-0.589669 0.0312,-1.182288 0.0467,-1.773433 0.0813,-4.394438 0.17756,-8.786204 0.10872,-13.181894 -0.0204,-1.311119 -0.10353,-7.259217 -0.49766,-8.922225 -0.15944,-0.672767 -0.66278,-1.213613 -0.99417,-1.820418 -0.36523,0.360142 -0.81949,0.648214 -1.09569,1.080427 -1.11075,1.738097 -3.0334,6.416697 -3.66287,7.929973 -1.98199,4.764755 -3.81243,9.592755 -5.857,14.331924 -0.24114,0.584864 -0.32276,1.264994 -0.7234,1.754592 -0.55667,0.680289 -0.99478,-1.270291 -1.33076,-2.189466 -1.31467,-3.596722 -2.56054,-7.220443 -4.04266,-10.753599 -1.86395,-4.31075 -3.79296,-8.594008 -5.58217,-12.936502 -0.007,-0.02792 -0.40158,0.06612 -0.39492,0.09404 z"
       id="path1014"
       style="fill:#00dbff;fill-opacity:1;stroke:#000000;stroke-width:1.32292;stroke-linecap:round;stroke-linejoin:round;stroke-miterlimit:4;stroke-dasharray:none;stroke-dashoffset:9.44882;stroke-opacity:1" />
    <path
       d="m 299.60137,30.277827 c 0.30025,3.093747 0.35473,6.207115 0.38857,9.313474 -0.006,1.706528 0.003,0.910561 -0.0201,2.387942 0,0.03101 0.43788,0.0403 0.43854,0.0093 v 0 c 0.0521,-1.485204 0.0314,-0.685284 0.0548,-2.39994 -0.009,-3.124898 -0.0532,-6.26432 -0.46424,-9.366263 -0.004,-0.02811 -0.40142,0.02739 -0.39751,0.0555 z"
       id="path1016"
       style="fill:#00dbff;fill-opacity:1;stroke:#000000;stroke-width:1.32292;stroke-linecap:round;stroke-linejoin:round;stroke-miterlimit:4;stroke-dasharray:none;stroke-dashoffset:9.44882;stroke-opacity:1" />
    <circle
       r="0.016651032"
       cy="24.568453"
       cx="300.86908"
       style="fill:#00dbff;stroke:#000000;stroke-width:0.264583"
       id="path1018" />
    <path
       d="m 307.13257,38.399623 c 0.18691,-4.69628 0.68239,-9.402151 1.84071,-13.963925 -0.41185,0.07054 0.30155,-0.987168 0.58547,-0.811899 0.10906,0.06733 0.1183,0.23016 0.20212,0.327151 0.51223,0.592819 1.12506,1.083312 1.75937,1.53375 0.24334,0.117919 0.48149,0.247151 0.72998,0.353758 0.92494,0.396794 1.9593,0.337887 2.79768,0.762613 0.27035,0.136973 0.50816,0.330452 0.76224,0.495676 0.28953,0.304864 0.62463,0.572191 0.86863,0.914588 0.74446,1.044697 1.22134,2.303965 1.62332,3.504166 0.66249,1.97816 1.03426,3.962828 1.29437,6.024171 -0.008,0.836901 0.0673,1.676572 0.005,2.512716 -0.003,0.02764 0.38878,0.057 0.39084,0.02936 v 0 c 0.0895,-0.86034 0.0868,-1.725723 0.0829,-2.590006 -0.35163,-3.126116 -1.13191,-7.17631 -3.03289,-9.753762 -0.26662,-0.361529 -0.62788,-0.642606 -0.94184,-0.963908 -0.27892,-0.179221 -0.5407,-0.388475 -0.8368,-0.537657 -1.06283,-0.535518 -2.43821,-0.318592 -3.44924,-1.060163 -0.21807,-0.148718 -0.44963,-0.279357 -0.65418,-0.446155 -0.53255,-0.434232 -1.06455,-1.346143 -1.82025,-1.441087 -0.48779,-0.06128 -0.74843,0.88446 -0.82574,1.044158 -1.28699,4.566749 -1.77991,9.329757 -1.81382,14.066452 0,0.03053 0.4318,0.03053 0.4318,0 z"
       id="path1020"
       style="fill:#00dbff;fill-opacity:1;stroke:#000000;stroke-width:1.32292;stroke-linecap:round;stroke-linejoin:round;stroke-miterlimit:4;stroke-dasharray:none;stroke-dashoffset:9.44882;stroke-opacity:1" />
    <path
       d="m 329.93331,35.667239 c -0.88995,0.787652 -1.93458,1.495629 -2.41057,2.630805 -0.0863,0.205656 -0.12634,0.427744 -0.18949,0.641615 -0.079,1.20927 0.16348,2.524585 0.79867,3.572724 0.14811,0.244425 0.33869,0.460447 0.50805,0.690671 1.56356,1.442337 2.49695,0.962816 4.05958,-0.128 1.22061,-0.912445 3.15878,-2.225908 3.65472,-3.757345 0.065,-0.200782 0.0583,-0.418058 0.0874,-0.627087 -0.17725,-1.158327 -1.03233,-1.937244 -1.96803,-2.545953 -1.12816,-0.60054 -2.306,-1.022056 -3.57584,-1.15884 -0.0277,-0.0097 -0.16478,0.381859 -0.13711,0.391554 v 0 c 1.22042,0.117358 2.34241,0.531487 3.43606,1.082622 0.83844,0.501346 1.62693,1.184227 1.83555,2.184604 -0.0217,0.170389 -0.01,0.348538 -0.0652,0.511162 -0.47382,1.393594 -2.4524,2.752288 -3.56965,3.606416 -1.25379,0.896763 -2.10254,1.432314 -3.39075,0.222395 -0.15946,-0.211777 -0.33827,-0.410305 -0.47844,-0.635333 -0.59963,-0.96266 -0.85114,-2.188951 -0.79174,-3.310022 0.44834,-1.506183 1.38755,-2.12171 2.51264,-3.126997 0.0172,-0.02233 -0.2985,-0.267324 -0.31583,-0.244991 z"
       id="path1022"
       style="fill:#00dbff;fill-opacity:1;stroke:#000000;stroke-width:1.32292;stroke-linecap:round;stroke-linejoin:round;stroke-miterlimit:4;stroke-dasharray:none;stroke-dashoffset:9.44882;stroke-opacity:1" />
    <path
       d="m 333.82623,29.993379 c -0.7094,-5.156583 -0.72544,-10.382004 -0.77626,-15.578048 0.0222,-0.778582 0.0138,-1.558658 0.0667,-2.335746 0.0436,-0.63747 -0.0356,-1.731473 0.597,-1.821535 0.18857,-0.02685 0.32888,0.192359 0.49062,0.292964 3.40013,2.114918 -1.71839,-1.0278476 2.69404,1.671926 3.01239,1.578044 6.28203,2.863335 9.70341,3.142611 0.41198,0.03363 0.82661,0.01179 1.23994,0.0177 -1.63565,1.262245 1.32165,-0.405477 1.08228,-0.131992 -0.1106,0.126379 -0.32028,0.138212 -0.4264,0.268373 -0.26776,0.328364 -0.4295,0.731495 -0.67212,1.078838 -1.17372,1.680336 -1.61322,2.097174 -3.03234,3.749508 -1.75871,1.923116 -3.65099,3.717725 -5.56808,5.480648 -0.72474,0.666482 -1.45343,1.4357 -2.32831,1.907937 -0.34279,0.102867 -0.0101,0.03891 -0.23881,0.01945 -0.0257,-0.0087 -0.14912,0.354135 -0.12348,0.362866 v 0 c 0.21257,0.02098 0.41717,0.04404 0.6141,-0.0588 0.92273,-0.483081 1.69106,-1.218192 2.46663,-1.906761 1.9626,-1.742484 3.874,-3.548922 5.62681,-5.50497 1.34229,-1.611372 1.90778,-2.178717 2.99395,-3.85269 0.44027,-0.678559 0.91638,-1.123915 0.53848,-1.906691 -0.11829,-0.245047 -0.94313,0.762257 -0.81407,0.06037 -3.84424,-0.08835 -7.34933,-1.354739 -10.74581,-3.09715 -0.53026,-0.313303 -1.06183,-0.624391 -1.59078,-0.939909 -0.50531,-0.301427 -1.49265,-1.1132467 -2.25097,-0.897886 -1.05313,0.299076 -0.79185,3.900765 -0.88236,4.404307 0.0235,5.221836 0.0511,10.488882 0.92935,15.650201 0.005,0.02874 0.41179,-0.04677 0.40645,-0.07551 z"
       id="path1024"
       style="fill:#00dbff;fill-opacity:1;stroke:#000000;stroke-width:1.32292;stroke-linecap:round;stroke-linejoin:round;stroke-miterlimit:4;stroke-dasharray:none;stroke-dashoffset:9.44882;stroke-opacity:1" />
    <path
       d="m 300.52897,22.484351 c -1.22393,0.209804 -2.52778,0.557097 -3.46435,1.430761 -0.17449,0.162767 -0.30654,0.365775 -0.45982,0.548663 -0.49823,0.671034 -1.13771,1.909729 0.0506,2.290059 0.1879,0.06015 0.39145,0.04971 0.58718,0.07456 0.79209,0.111633 1.58989,-0.146005 2.37623,-0.12474 0.17547,0.0047 0.4133,0.145219 0.55816,0.217008 0.7162,0.455803 0.97221,0.939258 1.85529,1.116505 1.28079,-0.09205 1.68254,-0.682749 1.71786,-1.90582 -0.10208,-0.790685 -0.14147,-1.903861 -0.85254,-2.442112 -0.10623,-0.08041 -0.23969,-0.11638 -0.35954,-0.174571 -0.45593,-0.253104 -0.94597,-0.340947 -1.45654,-0.40044 -0.027,-0.0094 -0.16039,0.372022 -0.13343,0.381456 v 0 c 0.48435,0.04151 0.94356,0.101293 1.37216,0.351667 0.88694,0.273876 0.91596,1.514982 1.021,2.278298 -0.003,0.93182 -0.20476,1.328319 -1.15869,1.53969 -0.8233,-0.08949 -1.08807,-0.666658 -1.76376,-1.062871 -1.0077,-0.531646 -1.95985,-0.09792 -3.04658,-0.162784 -1.52685,-0.04899 -1.06185,-0.766457 -0.41965,-1.744315 0.13554,-0.160353 0.25164,-0.339421 0.40664,-0.481058 0.84635,-0.773409 1.99453,-1.060885 3.07006,-1.341516 0.0275,0.0071 0.12721,-0.38139 0.0998,-0.388442 z"
       id="path1026"
       style="fill:#00dbff;fill-opacity:1;stroke:#000000;stroke-width:1.32292;stroke-linecap:round;stroke-linejoin:round;stroke-miterlimit:4;stroke-dasharray:none;stroke-dashoffset:9.44882;stroke-opacity:1" />
    <path
       d="m 113.00844,131.24642 c -1.14864,1.41435 -2.5053,2.63972 -3.7906,3.9263 -0.18578,0.18138 -0.37156,0.36277 -0.55735,0.54415 -0.12989,0.12321 -0.2612,0.24496 -0.38969,0.36964 -0.24547,0.23821 -0.11339,0.15405 -0.27183,0.24533 -0.008,0.006 0.0797,0.11466 0.0874,0.10848 v 0 c 0.185,-0.10046 0.0662,-0.0258 0.31187,-0.24809 0.64769,-0.58622 0.19758,-0.1683 0.97056,-0.90189 1.29842,-1.28311 2.67089,-2.51289 3.77031,-3.97769 0.005,-0.009 -0.12594,-0.0755 -0.13063,-0.0662 z"
       id="path1028"
       style="fill:#00dbff;fill-opacity:1;stroke:#000000;stroke-width:1.32292;stroke-linecap:round;stroke-linejoin:round;stroke-miterlimit:4;stroke-dasharray:none;stroke-dashoffset:9.44882;stroke-opacity:1" />
    <path
       d="m 107.27028,134.83 c 0.94378,0.6082 1.61363,1.52392 2.29852,2.39306 0.19293,0.27808 0.40654,0.54097 0.60422,0.81554 0.0476,0.0662 0.0972,0.13147 0.13716,0.20254 0.008,0.0134 0.0133,0.0567 0.003,0.0459 -0.24178,-0.24332 0.35125,0.0307 -0.38868,-0.20904 -1.14053,-0.27543 -2.32214,-0.2421 -3.46181,0.01 -0.22652,0.0477 -0.43375,0.1431 -0.64246,0.23785 -0.0123,0.006 0.0314,-0.005 0.0366,-0.0176 0.01,-0.0228 0.004,-0.0494 0.002,-0.0741 -0.007,-0.0838 -0.0193,-0.16702 -0.029,-0.25053 -0.062,-0.81553 -0.0878,-1.63389 -0.0777,-2.45168 0.0366,-0.33137 -0.008,-0.67621 0.0568,-1.00373 0.1299,-0.0327 0.36808,0.0855 0.46751,0.12468 0.49327,0.19454 0.94881,0.46557 1.41197,0.72099 0.18864,0.10128 0.37727,0.20256 0.56591,0.30383 0.01,0.007 0.11549,-0.12749 0.10594,-0.13499 v 0 c -0.18831,-0.10121 -0.37662,-0.20243 -0.56493,-0.30365 -0.47307,-0.25487 -0.93858,-0.52617 -1.44221,-0.71758 -0.17352,-0.0659 -0.3857,-0.15677 -0.58148,-0.11084 -0.0452,0.0106 -0.0679,0.0632 -0.10188,0.0948 -0.0649,0.33483 -0.0279,0.68485 -0.0671,1.02352 -0.0281,0.82407 -0.004,1.6506 0.0792,2.4711 0.005,0.0303 0.0364,0.3591 0.0951,0.41848 0.0983,0.0995 0.63259,-0.19736 0.7524,-0.18416 1.09581,-0.21796 2.22341,-0.26176 3.32096,-0.0206 0.16831,0.0496 0.41288,0.1743 0.60107,0.0648 0.0306,-0.0178 0.005,-0.0734 -0.009,-0.10575 -0.16969,-0.38605 -0.53079,-0.67271 -0.72417,-1.04262 -0.69583,-0.8858 -1.38541,-1.81716 -2.36182,-2.4143 -0.008,-0.006 -0.0934,0.10839 -0.0853,0.11443 z"
       id="path1030"
       style="fill:#00dbff;fill-opacity:1;stroke:#000000;stroke-width:1.32292;stroke-linecap:round;stroke-linejoin:round;stroke-miterlimit:4;stroke-dasharray:none;stroke-dashoffset:9.44882;stroke-opacity:1" />
    <path
       d="m 117.90625,133.49556 c -0.31809,2.11968 -0.3312,4.27729 -0.3557,6.41708 -0.027,0.87309 0.0192,1.74286 0.11354,2.60994 0.001,0.0119 0.16924,-0.001 0.1683,-0.0133 v 0 c -0.0688,-0.86312 -0.10229,-1.72791 -0.0711,-2.59418 0.0343,-2.1337 0.0542,-4.27726 0.28552,-6.3999 0.001,-0.01 -0.13915,-0.0296 -0.14054,-0.0196 z"
       id="path1032"
       style="fill:#00dbff;fill-opacity:1;stroke:#000000;stroke-width:1.32292;stroke-linecap:round;stroke-linejoin:round;stroke-miterlimit:4;stroke-dasharray:none;stroke-dashoffset:9.44882;stroke-opacity:1" />
    <path
       d="m 118.33493,135.17473 c 0.71392,-0.0106 1.42972,0.18596 2.04237,0.55464 0.12088,0.0727 0.23102,0.16199 0.34653,0.24298 0.0762,0.0786 0.16711,0.14525 0.22847,0.23591 0.33563,0.49595 -0.18099,1.31829 -0.40764,1.75339 -0.43436,0.61514 -0.98706,1.30521 -1.77081,1.4704 -0.0915,0.0193 -0.18684,0.01 -0.28025,0.0148 -0.0595,-0.0166 -0.11891,-0.0333 -0.17837,-0.0499 -0.009,-0.005 -0.0733,0.12876 -0.0639,0.13328 v 0 c 0.096,0.0203 0.19204,0.0405 0.28805,0.0608 0.10439,-0.008 0.21096,-0.002 0.31316,-0.025 0.81719,-0.18266 1.39564,-0.88678 1.84211,-1.54071 0.26897,-0.52401 0.76755,-1.3178 0.38119,-1.90858 -0.0645,-0.0986 -0.1608,-0.17239 -0.24119,-0.25858 -0.11938,-0.0858 -0.23284,-0.18043 -0.35812,-0.25732 -0.65121,-0.39968 -1.41553,-0.59875 -2.17754,-0.56598 -0.01,0.003 0.026,0.14251 0.0359,0.13997 z"
       id="path1034"
       style="fill:#00dbff;fill-opacity:1;stroke:#000000;stroke-width:1.32292;stroke-linecap:round;stroke-linejoin:round;stroke-miterlimit:4;stroke-dasharray:none;stroke-dashoffset:9.44882;stroke-opacity:1" />
    <path
       d="m 121.66902,140.90124 c 0.004,0.86325 0.0281,1.75898 0.26391,2.59635 0.0484,0.17176 0.11936,0.33632 0.17904,0.50449 0.22194,0.40631 0.54804,0.92067 1.07821,0.93561 0.35744,0.0101 0.42142,-0.0807 0.73199,-0.24917 0.79806,-0.65016 1.55749,-1.42137 1.94544,-2.3949 0.0564,-0.14153 0.0857,-0.29242 0.12847,-0.43863 0.0286,-0.25208 0.0396,-0.5336 -0.17917,-0.71286 -0.0562,-0.046 -0.12788,-0.0689 -0.19182,-0.10332 -0.008,-0.006 -0.0939,0.11116 -0.0856,0.11721 v 0 c 0.34801,0.14601 0.33683,0.29208 0.30137,0.66007 -0.0428,0.13824 -0.0732,0.28097 -0.12844,0.41474 -0.38849,0.94065 -1.12189,1.69068 -1.88817,2.33479 -0.18755,0.10409 -0.34756,0.23357 -0.57135,0.23617 -0.48773,0.006 -0.78152,-0.4795 -0.9829,-0.84623 -0.0576,-0.16248 -0.12624,-0.32144 -0.17267,-0.48744 -0.23189,-0.82906 -0.25088,-1.71314 -0.28383,-2.56688 0,-0.0102 -0.14451,-0.0102 -0.14451,0 z"
       id="path1036"
       style="fill:#00dbff;fill-opacity:1;stroke:#000000;stroke-width:1.32292;stroke-linecap:round;stroke-linejoin:round;stroke-miterlimit:4;stroke-dasharray:none;stroke-dashoffset:9.44882;stroke-opacity:1" />
    <path
       d="m 127.39001,135.90815 c 0.61023,0.94119 0.8044,2.06865 0.95746,3.15983 0.014,0.18731 0.0345,0.37423 0.0421,0.56191 0.006,0.15824 -0.003,0.31675 -2.6e-4,0.4751 0.008,0.48809 0.0517,0.97549 0.0864,1.46218 0.0453,0.98605 0.0216,1.9743 0.009,2.961 0.0111,0.14074 -0.0973,1.08722 0.20433,1.09755 0.16118,0.006 0.29032,-0.10671 0.41177,-0.18805 0.21005,-0.16324 0.45945,-0.23547 0.70925,-0.31084 0.009,-0.005 -0.0633,-0.13691 -0.0727,-0.13177 v 0 c -0.25959,0.0825 -0.51759,0.16451 -0.73568,0.33576 -0.12904,0.0867 -0.26861,0.22447 -0.29866,0.17892 -0.15526,-0.23532 -0.006,-0.73389 -0.0522,-0.97978 0.013,-0.99038 0.0341,-1.98211 -0.0226,-2.97159 -0.0231,-0.34993 -0.0522,-0.70004 -0.0665,-1.05048 -0.0165,-0.40637 -0.01,-0.45839 -0.005,-0.88788 -0.006,-0.19098 -0.0252,-0.38131 -0.0379,-0.57197 -0.15404,-1.11899 -0.35491,-2.28188 -1.01694,-3.22651 -0.006,-0.008 -0.11779,0.0787 -0.11166,0.0866 z"
       id="path1038"
       style="fill:#00dbff;fill-opacity:1;stroke:#000000;stroke-width:1.32292;stroke-linecap:round;stroke-linejoin:round;stroke-miterlimit:4;stroke-dasharray:none;stroke-dashoffset:9.44882;stroke-opacity:1" />
    <path
       d="m 132.8957,136.17806 c -0.0338,1.81629 -0.0342,3.63301 -0.0279,5.44953 0.0674,0.779 -0.17122,1.95282 0.30402,2.64965 0.0475,0.0697 0.118,0.12054 0.17701,0.18081 0.0742,0.0322 0.1439,0.0776 0.2225,0.0965 0.16068,0.0387 0.36535,-7e-5 0.52251,-0.0121 0.32244,-0.0246 0.64511,-0.0313 0.96829,-0.036 0.0105,-0.003 -0.0301,-0.15162 -0.0406,-0.14875 v 0 c -0.3263,0.007 -0.65199,0.0142 -0.97712,0.0454 -0.1158,0.0111 -0.27694,0.0461 -0.39452,0.0277 -0.0643,-0.0101 -0.12318,-0.0422 -0.18477,-0.0634 -0.0509,-0.0491 -0.11256,-0.0891 -0.15274,-0.14733 -0.46106,-0.66803 -0.18265,-1.84787 -0.24692,-2.59255 0.006,-1.81652 0.006,-3.63324 -0.0279,-5.44953 0,-0.01 -0.14179,-0.01 -0.14179,0 z"
       id="path1040"
       style="fill:#00dbff;fill-opacity:1;stroke:#000000;stroke-width:1.32292;stroke-linecap:round;stroke-linejoin:round;stroke-miterlimit:4;stroke-dasharray:none;stroke-dashoffset:9.44882;stroke-opacity:1" />
    <path
       d="m 126.93892,153.59495 c -0.85235,0.53507 -1.85262,0.84856 -2.84593,0.99215 -0.22988,0.0332 -0.46238,0.0446 -0.69357,0.0669 -0.28622,-0.0117 -1.13121,0.0764 -1.37874,-0.17166 -0.0794,-0.0796 -0.10135,-0.20073 -0.14865,-0.30271 -0.42504,-0.66586 -0.27833,-1.20183 0.0389,-1.92283 0.50885,-1.15647 0.74922,-1.34744 1.52757,-2.39409 0.75577,-0.8757 1.52416,-1.78804 2.53313,-2.38683 0.15771,-0.0936 0.41185,-0.28005 0.60667,-0.13172 0.023,0.0175 0.0105,0.0568 0.0157,0.0853 -0.0261,-0.001 -0.0565,0.0113 -0.0784,-0.003 -0.0397,-0.0259 -0.059,-0.0744 -0.0921,-0.10839 -0.28975,-0.29798 -0.19163,-0.15657 -0.48751,-0.50073 -0.56387,-0.65585 0.1033,0.0611 -0.47509,-0.54728 -0.0782,-0.0617 -0.13849,-0.1589 -0.23458,-0.18514 -0.35764,-0.0977 -0.56651,0.16001 -0.76126,0.4222 -0.53638,0.72213 -0.7637,1.6167 -1.00326,2.46412 -0.27894,1.24778 -0.2557,2.5222 0.11176,3.74931 0.0583,0.19457 0.13911,0.38165 0.20866,0.57248 0.14961,0.30858 0.26465,0.70239 0.58181,0.89199 0.14408,0.0861 0.23613,0.0542 0.3867,0.11263 0.0763,0.0296 0.14525,0.0756 0.21788,0.11348 0.4859,0.37189 0.8577,0.87355 1.15311,1.40519 0.0225,0.0382 0.045,0.0764 0.0675,0.11461 0.004,0.009 0.13254,-0.0503 0.12834,-0.0594 v 0 c -0.0208,-0.0381 -0.0415,-0.0762 -0.0623,-0.11422 -0.29524,-0.56148 -0.68617,-1.08159 -1.19625,-1.46474 -0.0821,-0.042 -0.16041,-0.0927 -0.24642,-0.12606 -0.0178,-0.007 -0.30903,-0.0641 -0.33906,-0.0805 -0.30113,-0.16442 -0.38964,-0.56482 -0.52919,-0.84144 -0.0664,-0.18639 -0.14312,-0.36941 -0.1992,-0.55915 -0.35687,-1.20742 -0.38353,-2.44392 -0.0987,-3.67079 0.23324,-0.83007 0.45482,-1.6842 0.94988,-2.40755 0.002,-0.004 0.32857,-0.47181 0.52063,-0.41843 0.09,0.025 0.14677,0.11561 0.22015,0.17342 0.25727,0.27013 0.47548,0.56806 0.7395,0.83205 0.12031,0.1203 0.32195,0.3587 0.53731,0.33298 0.0604,-0.007 0.0767,-0.0944 0.11501,-0.14168 -0.0291,-0.0585 -0.0305,-0.14319 -0.0872,-0.17552 -0.26663,-0.1518 -0.56899,0.004 -0.79642,0.13209 -1.04204,0.58791 -1.83407,1.51194 -2.60075,2.40652 -0.75889,1.0452 -1.04467,1.29571 -1.51898,2.46081 -0.30404,0.74687 -0.43316,1.34388 0.0107,2.02275 0.0297,0.0629 0.13784,0.30557 0.18928,0.35911 0.29857,0.31077 1.16436,0.21375 1.53124,0.22851 0.23573,-0.0234 0.47286,-0.0354 0.70719,-0.0701 1.01286,-0.15015 2.04645,-0.47197 2.88665,-1.06791 0.006,-0.008 -0.10554,-0.0945 -0.11166,-0.0866 z"
       id="path1042"
       style="fill:#00dbff;fill-opacity:1;stroke:#000000;stroke-width:1.32292;stroke-linecap:round;stroke-linejoin:round;stroke-miterlimit:4;stroke-dasharray:none;stroke-dashoffset:9.44882;stroke-opacity:1" />
    <path
       d="m 114.3074,164.42445 c -0.0957,-1.50851 -0.11867,-3.02046 -0.13415,-4.53155 0.004,-0.1088 -0.0465,-0.64751 0.14501,-0.78536 0.13056,-0.094 0.54998,0.094 0.60831,0.11704 0.37324,0.1478 0.73826,0.31559 1.10906,0.46939 0.69159,0.26365 0.36042,0.1468 0.99182,0.35535 0.01,0.006 0.0906,-0.13391 0.0807,-0.13961 v 0 c -0.62104,-0.21308 -0.29425,-0.0948 -0.97889,-0.35884 -0.37676,-0.15395 -0.74217,-0.33773 -1.12778,-0.46796 -0.20752,-0.0701 -0.59754,-0.22156 -0.82439,-0.0319 -0.20885,0.1746 -0.17059,0.65556 -0.18236,0.84266 -1e-5,1.51569 0.0225,3.0346 0.16736,4.54434 10e-4,0.0103 0.14627,-0.003 0.14531,-0.0135 z"
       id="path1044"
       style="fill:#00dbff;fill-opacity:1;stroke:#000000;stroke-width:1.32292;stroke-linecap:round;stroke-linejoin:round;stroke-miterlimit:4;stroke-dasharray:none;stroke-dashoffset:9.44882;stroke-opacity:1" />
    <path
       d="m 118.84632,163.10374 c 0.63868,0.0311 1.28491,0.002 1.86862,-0.29927 0.58449,-0.30195 0.79806,-0.5739 1.27642,-1.02841 0.44058,-0.60391 0.93238,-1.23528 1.10714,-1.98202 0.0377,-0.16096 0.0846,-0.49659 -0.13695,-0.6003 -0.10811,-0.0506 -0.238,-0.0186 -0.35701,-0.0279 -0.87835,0.29407 -1.72343,0.68924 -2.54191,1.12151 -0.45171,0.28969 -0.37832,0.63394 -0.38707,1.11878 -0.01,0.79802 -0.0552,1.62141 0.15235,2.4021 0.0452,0.17011 0.12007,0.33091 0.1801,0.49637 0.32116,0.65821 0.8964,1.20833 1.67877,1.15209 0.0998,-0.007 0.19642,-0.038 0.29463,-0.057 0.01,-0.004 -0.052,-0.13931 -0.0615,-0.13496 v 0 c -0.59668,0.14544 -1.14004,-0.0961 -1.50887,-0.58586 -0.0979,-0.13 -0.16391,-0.28119 -0.24586,-0.42178 -0.0577,-0.15776 -0.1299,-0.31095 -0.17315,-0.47327 -0.20555,-0.7715 -0.16475,-1.58695 -0.16517,-2.37613 0.001,-0.21024 -0.0558,-0.60663 0.0748,-0.79313 0.0557,-0.0795 0.18492,-0.15726 0.25314,-0.20592 0.81121,-0.40382 1.63464,-0.79492 2.48901,-1.09806 0.0651,-0.0122 0.13144,-0.0541 0.1953,-0.0365 0.20434,0.0562 0.12577,0.36469 0.0982,0.47018 -0.18792,0.71858 -0.66198,1.32875 -1.08929,1.916 -0.45026,0.43224 -0.66998,0.70938 -1.22087,0.99803 -0.56686,0.29703 -1.19512,0.31671 -1.81634,0.30677 -0.01,0.003 0.0258,0.14117 0.0356,0.13865 z"
       id="path1046"
       style="fill:#00dbff;fill-opacity:1;stroke:#000000;stroke-width:1.32292;stroke-linecap:round;stroke-linejoin:round;stroke-miterlimit:4;stroke-dasharray:none;stroke-dashoffset:9.44882;stroke-opacity:1" />
    <path
       d="m 125.54171,157.43023 c -0.0343,2.08709 -0.0295,4.17469 -0.0254,6.26201 0.005,0.71522 0.004,0.92491 0.0144,1.58316 0.003,0.16333 -0.0168,0.49883 0.0646,0.52313 0.20872,0.0623 0.2919,-0.18105 0.36351,-0.29322 0.22431,-0.37387 0.10193,-0.19208 0.36792,-0.54487 0.006,-0.009 -0.12639,-0.0882 -0.13197,-0.0789 v 0 c -0.27037,0.36526 -0.14808,0.17906 -0.36911,0.55714 -0.041,0.0692 -0.0997,0.13063 -0.12289,0.20766 -0.0109,0.0361 0.0514,0.0808 0.0274,0.10991 -0.0226,0.0273 -0.0333,-0.0649 -0.0353,-0.10031 -0.007,-0.12667 0.006,-0.25367 0.008,-0.38053 0.0105,-0.65825 0.01,-0.86794 0.0144,-1.58316 0.004,-2.08732 0.009,-4.17492 -0.0255,-6.26201 0,-0.0106 -0.14994,-0.0106 -0.14994,0 z"
       id="path1048"
       style="fill:#00dbff;fill-opacity:1;stroke:#000000;stroke-width:1.32292;stroke-linecap:round;stroke-linejoin:round;stroke-miterlimit:4;stroke-dasharray:none;stroke-dashoffset:9.44882;stroke-opacity:1" />
    <path
       d="m 129.44061,162.65254 c 0.17706,-0.0714 0.49882,-0.19401 0.65222,-0.28962 0.50718,-0.31613 0.9203,-0.77895 1.19891,-1.3053 0.1087,-0.20535 0.17975,-0.42851 0.26962,-0.64277 0.10843,-0.39882 0.4192,-1.58818 -0.21575,-1.78828 -0.40515,-0.12768 -0.64818,0.0528 -1.00654,0.20027 -0.16628,0.12872 -0.3499,0.23772 -0.49884,0.38616 -0.46418,0.46263 -0.79013,1.07866 -0.89966,1.72459 -0.081,0.47789 -0.0248,0.70561 0.0243,1.18141 0.11127,0.61565 0.26288,1.22275 0.39532,1.83395 0.0189,0.0873 0.15133,0.74795 0.19914,0.88346 0.0341,0.0966 0.0916,0.18326 0.13747,0.27488 0.0912,0.0619 0.1715,0.14392 0.27347,0.18567 0.55543,0.22743 1.56121,0.12851 2.15358,0.0896 0.0112,-0.004 -0.0386,-0.16258 -0.0498,-0.15906 v 0 c -0.56792,0.0336 -1.46203,0.12799 -2.00421,-0.0445 -0.0847,-0.0269 -0.15558,-0.086 -0.23336,-0.12899 -0.0412,-0.0826 -0.0944,-0.1602 -0.12358,-0.24775 -0.0352,-0.10548 -0.17651,-0.84244 -0.18528,-0.88422 -0.12749,-0.60697 -0.28275,-1.20773 -0.39523,-1.81786 -0.0492,-0.45809 -0.10409,-0.66922 -0.0261,-1.12877 0.10423,-0.61448 0.41809,-1.20263 0.85671,-1.64497 0.13925,-0.14043 0.31137,-0.24389 0.46705,-0.36584 0.18737,-0.0792 0.55665,-0.28805 0.80508,-0.23374 0.57963,0.12673 0.24737,1.31121 0.1618,1.62707 -0.0861,0.20639 -0.15463,0.42108 -0.25844,0.61918 -0.38999,0.74415 -0.98027,1.25905 -1.7617,1.54543 -0.009,0.005 0.0547,0.13449 0.0639,0.12997 z"
       id="path1050"
       style="fill:#00dbff;fill-opacity:1;stroke:#000000;stroke-width:1.32292;stroke-linecap:round;stroke-linejoin:round;stroke-miterlimit:4;stroke-dasharray:none;stroke-dashoffset:9.44882;stroke-opacity:1" />
    <path
       d="m 138.18975,160.87295 c -0.8359,0.0689 -1.69704,0.15953 -2.48476,0.46765 -0.13594,0.0532 -0.26441,0.12372 -0.39662,0.18558 -0.0983,0.0793 -0.2081,0.14629 -0.29496,0.23805 -0.42168,0.44548 -0.28287,0.96462 -0.13619,1.48572 0.23193,0.6922 0.59928,1.37455 1.26277,1.74091 0.11056,0.061 0.23494,0.0928 0.3524,0.13914 0.28276,0.0485 0.59064,0.0567 0.83686,-0.11962 0.24305,-0.17404 0.35921,-0.46681 0.4775,-0.72616 0.23387,-0.63235 0.26419,-1.31029 0.30966,-1.97551 0.0249,-0.36428 0.0536,-0.72829 0.0801,-1.09245 0.0144,-0.23132 0.0325,-0.5962 0.0625,-0.8385 0.005,-0.0369 0.0451,-0.13988 0.0252,-0.10855 -0.11705,0.18373 -0.0403,0.401 -0.0267,0.60065 0.0149,0.21845 0.0288,0.43698 0.0432,0.65546 0.0308,0.2593 0.0483,0.52052 0.0923,0.7779 0.15305,0.89462 0.47417,2.16232 1.01872,2.90862 0.0713,0.0977 0.17223,0.17004 0.25834,0.25505 0.074,0.0215 0.14514,0.0713 0.22183,0.0644 0.2673,-0.0237 0.36741,-0.34157 0.56277,-0.48556 0.20704,-0.15261 0.30802,-0.14467 0.56177,-0.20151 0.12005,-0.007 0.2401,-0.0138 0.36014,-0.0207 0.008,-0.002 -0.0273,-0.11333 -0.0352,-0.11084 v 0 c -0.12499,0.009 -0.24998,0.0189 -0.37498,0.0283 -0.27974,0.0726 -0.37297,0.0643 -0.59903,0.23761 -0.0712,0.0546 -0.12922,0.12488 -0.18817,0.19254 -0.0157,0.018 -0.16822,0.25221 -0.23951,0.26473 -0.0601,0.0106 -0.1191,-0.0263 -0.17865,-0.0395 -0.078,-0.0794 -0.17021,-0.14693 -0.23395,-0.23815 -0.20327,-0.2909 -0.44535,-0.85762 -0.55209,-1.16362 -0.27861,-0.79863 -0.45808,-1.63697 -0.5412,-2.47774 -0.0185,-0.21878 -0.0348,-0.43777 -0.0556,-0.65634 -0.0145,-0.15123 -0.005,-0.308 -0.0503,-0.45297 -0.0215,-0.0687 -0.0721,-0.14715 -0.14245,-0.16226 -0.0422,-0.009 -0.0347,0.0801 -0.0419,0.12268 -0.0202,0.11966 -0.0294,0.24097 -0.0398,0.36188 -0.0138,0.15927 -0.0219,0.31898 -0.0328,0.47847 -0.0157,0.20422 -0.0695,0.89991 -0.0824,1.0938 -0.0434,0.65301 -0.0672,1.31903 -0.28901,1.94226 -0.16923,0.38125 -0.36305,0.79591 -0.84338,0.81352 -0.10089,0.004 -0.20116,-0.0175 -0.30173,-0.0262 -0.11046,-0.0422 -0.22756,-0.07 -0.33136,-0.12667 -0.64415,-0.35143 -1.00362,-1.01419 -1.23528,-1.6813 -0.13764,-0.47897 -0.28746,-0.97019 0.11034,-1.37993 0.0825,-0.0849 0.18622,-0.14628 0.27933,-0.21941 0.12976,-0.0583 0.25624,-0.12462 0.38929,-0.17504 0.765,-0.28992 1.59168,-0.37339 2.39715,-0.47559 0.007,0.002 0.033,-0.099 0.0259,-0.10083 z"
       id="path1060"
       style="fill:#00dbff;fill-opacity:1;stroke:#000000;stroke-width:1.32292;stroke-linecap:round;stroke-linejoin:round;stroke-miterlimit:4;stroke-dasharray:none;stroke-dashoffset:9.44882;stroke-opacity:1" />
    <path
       d="m 145.33094,160.48193 c -0.43558,-0.0489 -0.8788,-0.12752 -1.31901,-0.11052 -0.0934,0.004 -0.18565,0.0216 -0.27848,0.0325 -0.51742,0.1259 -0.41351,0.48661 -0.2842,0.88931 0.12477,0.3653 0.18172,0.77087 0.44022,1.07559 0.0466,0.055 0.1065,0.0972 0.15975,0.1458 0.27194,0.18521 0.5142,0.0525 0.80253,0.0332 0.3269,0.0881 0.36377,0.22238 0.45625,0.53743 0.0864,0.62277 0.11785,1.28054 -0.0556,1.89251 -0.0323,0.1138 -0.0795,0.2228 -0.11924,0.3342 -0.3158,0.50161 -0.51652,0.58614 -1.04067,0.35728 -0.0534,-0.0264 -0.10681,-0.0529 -0.16022,-0.0793 -0.006,-0.004 -0.0687,0.08 -0.0627,0.0844 v 0 c 0.0544,0.0272 0.10892,0.0545 0.16338,0.0817 0.37721,0.16924 0.72729,0.21611 1.02929,-0.13399 0.0722,-0.0837 0.12135,-0.18476 0.18203,-0.27715 0.0413,-0.11532 0.0904,-0.22815 0.12394,-0.34596 0.17882,-0.62781 0.14655,-1.30313 0.0459,-1.94062 -0.11736,-0.37202 -0.19036,-0.54851 -0.59302,-0.60536 -0.24879,0.0201 -0.45412,0.13244 -0.69064,-0.008 -0.0486,-0.0426 -0.10356,-0.079 -0.14577,-0.12793 -0.25532,-0.29617 -0.30758,-0.69621 -0.43261,-1.05199 -0.068,-0.20767 -0.23392,-0.58053 0.0452,-0.71076 0.0546,-0.0255 0.11601,-0.0324 0.17401,-0.0485 0.50567,-0.0652 1.01866,0.0222 1.5231,0.0701 0.007,0.003 0.0433,-0.0918 0.0367,-0.0944 z"
       id="path1062"
       style="fill:#00dbff;fill-opacity:1;stroke:#000000;stroke-width:1.32292;stroke-linecap:round;stroke-linejoin:round;stroke-miterlimit:4;stroke-dasharray:none;stroke-dashoffset:9.44882;stroke-opacity:1" />
    <g
       id="g1120">
      <g
         id="g1111">
        <rect
           y="166.6875"
           x="142.875"
           height="31.75"
           width="60.854168"
           id="rect1094"
           style="fill:#00b1ff;fill-opacity:1;stroke:#00e52c;stroke-width:1.32292;stroke-linecap:round;stroke-linejoin:round;stroke-miterlimit:4;stroke-dasharray:none;stroke-dashoffset:9.44882;stroke-opacity:1" />
        <text
           id="text1098"
           y="175.09409"
           x="173.17976"
           style="font-size:8.22965px;line-height:1.25;font-family:Ubuntu;-inkscape-font-specification:Ubuntu;text-align:center;letter-spacing:0px;word-spacing:0px;text-anchor:middle;stroke-width:0.085725;fill:#0000ff;fill-opacity:1;stroke:#ff04ff;stroke-opacity:1;stroke-miterlimit:4;stroke-dasharray:none;"
           xml:space="preserve"><tspan
             style="stroke-width:0.085725;fill:#0000ff;fill-opacity:1;stroke:#ff04ff;stroke-opacity:1;stroke-miterlimit:4;stroke-dasharray:none;"
             y="175.09409"
             x="173.17976"
             id="tspan1096"
             sodipodi:role="line">DEPTH</tspan><tspan
             id="tspan1100"
             style="stroke-width:0.085725;fill:#0000ff;fill-opacity:1;stroke:#ff04ff;stroke-opacity:1;stroke-miterlimit:4;stroke-dasharray:none;"
             y="185.38115"
             x="173.17976"
             sodipodi:role="line">OF</tspan><tspan
             id="tspan1102"
             style="stroke-width:0.085725;fill:#0000ff;fill-opacity:1;stroke:#ff04ff;stroke-opacity:1;stroke-miterlimit:4;stroke-dasharray:none;"
             y="195.66821"
             x="173.17976"
             sodipodi:role="line">THOUGHTS</tspan></text>
      </g>
      <rect
         style="fill:#0000ff;fill-opacity:1;stroke:#ff04ff;stroke-width:0.085725;stroke-linecap:round;stroke-linejoin:round;stroke-miterlimit:4;stroke-dasharray:none;stroke-dashoffset:9.44882;stroke-opacity:1"
         id="rect1104"
         width="7.9375"
         height="7.9375"
         x="199.76042"
         y="158.75" />
    </g>
    <path
       d="m 148.46784,163.91685 c 0.61628,0.0653 1.26923,0.15098 1.86545,-0.0753 0.11217,-0.0426 0.21325,-0.11001 0.31988,-0.16502 0.0731,-0.0782 0.15854,-0.14645 0.21932,-0.23455 0.25687,-0.37235 0.13871,-0.78023 -0.10231,-1.12475 -0.0828,-0.11839 -0.18573,-0.22136 -0.2786,-0.33204 -0.53367,-0.58126 -1.17766,-0.93429 -1.94552,-1.08848 -0.18585,-0.008 -0.41333,-0.0449 -0.5639,0.10016 -0.22124,0.21309 -0.22546,0.63701 -0.26778,0.90804 -0.18169,1.20822 -0.29506,2.43328 -0.2348,3.65526 0.0442,0.28432 0.1044,0.58997 0.41504,0.69388 0.14889,0.0498 0.42736,0.0307 0.57004,0.0335 0.1016,0.002 0.20307,0.008 0.3046,0.0123 0.75492,0.0706 1.50264,0.19767 2.25668,0.27608 0.44413,0.0312 0.23318,0.0211 0.63273,0.0331 0.008,0.002 0.0384,-0.10455 0.0308,-0.10673 v 0 c -0.3938,-0.0161 -0.18558,-0.005 -0.62452,-0.0369 -0.75627,-0.0804 -1.50708,-0.20294 -2.26418,-0.27541 -0.12155,-0.003 -0.24305,-0.009 -0.36463,-0.01 -0.19539,-0.002 -0.48042,0.0601 -0.64302,-0.0933 -0.15712,-0.1483 -0.15109,-0.33021 -0.19175,-0.53077 -0.0425,-1.21521 0.0726,-2.43256 0.23279,-3.63627 0.0279,-0.20549 0.0398,-0.67063 0.21404,-0.8432 0.11832,-0.11718 0.30839,-0.0842 0.45311,-0.079 0.74378,0.14993 1.37102,0.49553 1.89108,1.05468 0.32359,0.37278 0.74104,0.81731 0.38944,1.32326 -0.0548,0.0789 -0.13202,0.1395 -0.19803,0.20925 -0.10119,0.0506 -0.19735,0.11286 -0.30357,0.15182 -0.57067,0.20931 -1.18676,0.12902 -1.77679,0.0846 -0.007,-0.003 -0.0424,0.0933 -0.0356,0.0958 z"
       id="path1064"
       style="fill:#00dbff;fill-opacity:1;stroke:#000000;stroke-width:1.32292;stroke-linecap:round;stroke-linejoin:round;stroke-miterlimit:4;stroke-dasharray:none;stroke-dashoffset:9.44882;stroke-opacity:1" />
    <ellipse
       ry="9.260417"
       rx="6.6145835"
       cy="56.885418"
       cx="207.69792"
       id="path1066"
       style="fill:#00db3e;fill-opacity:1;stroke:#000000;stroke-width:1.32292;stroke-linecap:round;stroke-linejoin:round;stroke-miterlimit:4;stroke-dasharray:none;stroke-dashoffset:9.44882;stroke-opacity:1" />
    <text
       id="text1070"
       y="73.959755"
       x="222.43584"
       style="font-size:6.61142px;line-height:1.25;font-family:Ubuntu;-inkscape-font-specification:Ubuntu;text-align:center;letter-spacing:0px;word-spacing:0px;text-anchor:middle;fill:#00c700;fill-opacity:1;stroke:#000000;stroke-width:0.0688689;stroke-opacity:1"
       xml:space="preserve"><tspan
         style="fill:#00c700;fill-opacity:1;stroke:#000000;stroke-width:0.0688689;stroke-opacity:1"
         y="73.959755"
         x="222.43584"
         id="tspan1068"
         sodipodi:role="line">water balloon</tspan></text>
    <text
       id="text1074"
       y="232.09712"
       x="58.556145"
       style="font-size:10.8129px;line-height:1.25;font-family:Ubuntu;-inkscape-font-specification:Ubuntu;text-align:center;letter-spacing:0px;word-spacing:0px;text-anchor:middle;stroke-width:0.112635"
       xml:space="preserve"><tspan
         style="stroke-width:0.112635"
         y="232.09712"
         x="58.556145"
         id="tspan1072"
         sodipodi:role="line">by JOELwindows7</tspan><tspan
         id="tspan1076"
         style="stroke-width:0.112635"
         y="245.6133"
         x="58.556145"
         sodipodi:role="line">Perkedel Technologies</tspan><tspan
         id="tspan1078"
         style="stroke-width:0.112635"
         y="259.12949"
         x="58.556145"
         sodipodi:role="line">CC4.0-BY-SA</tspan></text>
    <text
       id="text1082"
       y="250.62004"
       x="322.17227"
       style="font-size:43.3785px;line-height:1.25;font-family:Ubuntu;-inkscape-font-specification:Ubuntu;text-align:center;letter-spacing:0px;word-spacing:0px;text-anchor:middle;stroke-width:0.451859;fill:#0000ff;fill-opacity:1;stroke:#00e5f6;stroke-opacity:1;"
       xml:space="preserve"><tspan
         style="stroke-width:0.451859;fill:#0000ff;fill-opacity:1;stroke:#00e5f6;stroke-opacity:1;"
         y="250.62004"
         x="322.17227"
         id="tspan1080"
         sodipodi:role="line">Balloon Artillery</tspan></text>
    <path
       d="m 419.39653,67.813885 c -0.46847,-1.342173 -0.47911,-1.3593 -1.0935,-3.255637 -0.41068,-1.267582 -0.87074,-2.521009 -1.2151,-3.808193 -0.98099,-3.666959 -1.66036,-7.057168 -1.86182,-10.868965 -0.0967,-1.828898 0.0582,-3.662439 0.0872,-5.49366 0.38126,-1.588815 0.57711,-3.233947 1.14379,-4.766448 0.8386,-2.267807 2.15045,-4.353039 4.2957,-5.584463 0.70286,-0.403473 1.56191,-0.433252 2.34288,-0.649877 0.0212,-0.01101 -0.13464,-0.309684 -0.15576,-0.29867 v 0 c -0.82378,0.232839 -1.72807,0.273839 -2.47137,0.698521 -2.21612,1.266177 -3.60193,3.400256 -4.48362,5.73893 -0.5877,1.558819 -0.79159,3.236452 -1.18735,4.854678 -0.0332,1.851604 -0.20018,3.705643 -0.0997,5.554816 0.33825,6.22245 2.15514,12.205243 4.50472,17.932673 0.004,0.0137 0.19764,-0.04 0.19386,-0.05371 z"
       id="path1084"
       style="fill:#0000ff;fill-opacity:1;stroke:#00e5f6;stroke-width:1.32292;stroke-linecap:round;stroke-linejoin:round;stroke-miterlimit:4;stroke-dasharray:none;stroke-dashoffset:9.44882;stroke-opacity:1" />
    <path
       d="m 412.15859,64.531826 c -0.88604,-3.471164 -1.75131,-6.997954 -3.66686,-10.077759 -0.48824,-0.784977 -1.08943,-1.493793 -1.63415,-2.240691 -0.6658,-0.623485 -1.27606,-1.312169 -1.99742,-1.870461 -1.90931,-1.47773 -4.14094,-2.385261 -6.52528,-2.706058 -1.26455,-0.170135 -2.36379,-0.08911 -3.62752,-0.05259 -1.94038,0.106254 -3.86956,-0.0856 -5.78316,-0.384169 -0.0169,-0.0069 -0.11477,0.231888 -0.0979,0.238807 v 0 c 1.99091,0.347496 3.93232,0.527182 5.95919,0.422609 1.2097,-0.03241 2.20392,-0.103302 3.42109,0.06123 2.32925,0.314873 4.51416,1.204611 6.38394,2.642113 0.70866,0.544841 1.30905,1.217634 1.96361,1.826451 0.53819,0.734034 1.1312,1.430864 1.61456,2.202103 1.91829,3.0607 2.77339,6.566141 3.77881,9.98867 0.003,0.01492 0.21463,-0.03534 0.21106,-0.05026 z"
       id="path1086"
       style="fill:#0000ff;fill-opacity:1;stroke:#00e5f6;stroke-width:1.32292;stroke-linecap:round;stroke-linejoin:round;stroke-miterlimit:4;stroke-dasharray:none;stroke-dashoffset:9.44882;stroke-opacity:1" />
    <path
       d="m 408.21741,75.705101 c -0.17222,-0.165724 -0.3532,-0.322786 -0.51663,-0.497173 -0.88604,-0.94542 -1.20126,-1.42072 -2.10336,-2.503199 -1.92029,-2.30427 -2.93428,-3.537887 -5.19125,-5.708645 -1.12054,-1.077727 -2.31836,-2.072127 -3.47753,-3.10819 -2.57455,-1.921306 -3.80045,-3.04568 -6.61884,-4.421079 -1.15446,-0.563388 -2.86547,-1.271249 -4.259,-0.980784 -1.28426,0.267695 -1.91498,1.298802 -2.72529,2.18893 -1.58485,2.469329 -0.86095,1.220623 -2.18183,3.740205 -0.009,0.02029 0.27823,0.1441 0.28699,0.123804 v 0 c 1.314,-2.482622 0.60214,-1.251471 2.1431,-3.689117 0.57206,-0.649034 1.38285,-1.873589 2.3953,-2.083581 1.34247,-0.278439 2.99276,0.457602 4.08353,1.007759 2.74029,1.38213 4.00984,2.529623 6.52367,4.415983 1.15808,1.025321 2.34963,2.014011 3.47422,3.075964 2.17204,2.051095 3.38984,3.429772 5.29021,5.607738 0.96123,1.101661 1.2415,1.531691 2.18093,2.481688 0.17317,0.175112 0.36507,0.330645 0.54758,0.49597 0.0103,0.01048 0.15854,-0.135795 0.1482,-0.146273 z"
       id="path1088"
       style="fill:#0000ff;fill-opacity:1;stroke:#00e5f6;stroke-width:1.32292;stroke-linecap:round;stroke-linejoin:round;stroke-miterlimit:4;stroke-dasharray:none;stroke-dashoffset:9.44882;stroke-opacity:1" />
    <path
       d="m 400.62741,83.232296 c -2.54468,-1.867191 -5.48664,-3.177434 -8.50313,-4.080089 -0.73435,-0.219744 -1.48643,-0.375161 -2.22961,-0.56274 -0.75253,-0.04658 -1.50437,-0.173775 -2.25759,-0.139747 -2.03607,0.09199 -3.91787,0.78705 -5.32185,2.29966 -0.83307,0.897528 -1.43505,2.125716 -2.02322,3.177548 -0.25781,0.510821 -1.28069,2.560799 -1.59943,3.106135 -0.53107,0.908653 -0.79513,1.198125 -1.40798,1.979371 -0.01,0.01506 0.20328,0.150022 0.2128,0.134972 v 0 c 0.22567,-0.278812 0.46564,-0.546626 0.67699,-0.83644 0.96565,-1.324158 1.65524,-2.80202 2.39199,-4.259038 0.5633,-1.011825 1.16422,-2.241635 1.9675,-3.10492 1.30479,-1.40227 3.11541,-2.100122 5.00803,-2.190401 0.73658,-0.03514 1.47251,0.08229 2.2088,0.123436 0.73485,0.187296 1.47793,0.344808 2.20456,0.561891 3.00159,0.89676 5.92397,2.174875 8.5199,3.936299 0.0103,0.01077 0.16256,-0.135171 0.15224,-0.145937 z"
       id="path1090"
       style="fill:#0000ff;fill-opacity:1;stroke:#00e5f6;stroke-width:1.32292;stroke-linecap:round;stroke-linejoin:round;stroke-miterlimit:4;stroke-dasharray:none;stroke-dashoffset:9.44882;stroke-opacity:1" />
    <path
       d="m 427.02439,69.919606 c 0.0369,-0.215001 0.0425,-0.437748 0.11054,-0.645002 0.41897,-1.276215 1.29979,-3.170346 1.83631,-4.277979 0.7397,-1.527085 2.26359,-4.497406 3.17077,-5.907807 0.65606,-1.019945 1.41957,-1.966614 2.12937,-2.949922 0.7656,-0.831678 1.47256,-1.721424 2.29679,-2.495037 1.88048,-1.764998 4.11364,-3.193957 6.77466,-3.235875 1.5903,-0.02506 2.41369,0.427855 3.86657,0.959041 1.20756,0.73053 1.59401,0.820795 2.48049,1.834999 0.20664,0.2364 0.34417,0.525251 0.51623,0.787876 0.008,0.01548 0.22678,-0.09749 0.21881,-0.112956 v 0 c -0.17465,-0.281445 -0.31139,-0.590275 -0.5239,-0.844336 -0.89273,-1.067284 -1.2959,-1.164021 -2.5305,-1.929619 -1.65034,-0.613193 -2.3118,-1.027724 -4.14756,-0.993815 -2.72007,0.05024 -5.04108,1.506913 -6.97156,3.30572 -0.83746,0.780333 -1.55403,1.681057 -2.33105,2.521585 -0.7115,0.99618 -1.47627,1.956398 -2.1345,2.988541 -0.94266,1.478108 -2.39898,4.344657 -3.14812,5.94905 -0.61725,1.321877 -1.32303,2.929467 -1.72945,4.37243 -0.0613,0.217657 -0.0563,0.448739 -0.0844,0.673106 0,0.01418 0.20053,0.01418 0.20053,0 z"
       id="path1092"
       style="fill:#0000ff;fill-opacity:1;stroke:#00e5f6;stroke-width:1.32292;stroke-linecap:round;stroke-linejoin:round;stroke-miterlimit:4;stroke-dasharray:none;stroke-dashoffset:9.44882;stroke-opacity:1" />
    <g
       transform="translate(168.98117)"
       id="g1136">
      <g
         id="g1132">
        <rect
           style="fill:#00b1ff;fill-opacity:1;stroke:#00e52c;stroke-width:1.32292;stroke-linecap:round;stroke-linejoin:round;stroke-miterlimit:4;stroke-dasharray:none;stroke-dashoffset:9.44882;stroke-opacity:1"
           id="rect1122"
           width="60.854168"
           height="31.75"
           x="142.875"
           y="166.6875" />
        <text
           xml:space="preserve"
           style="font-size:8.22965px;line-height:1.25;font-family:Ubuntu;-inkscape-font-specification:Ubuntu;text-align:center;letter-spacing:0px;word-spacing:0px;text-anchor:middle;fill:#0000ff;fill-opacity:1;stroke:#ff04ff;stroke-width:0.085725;stroke-miterlimit:4;stroke-dasharray:none;stroke-opacity:1"
           x="173.17976"
           y="175.09409"
           id="text1130"><tspan
             sodipodi:role="line"
             id="tspan1124"
             x="173.17976"
             y="175.09409"
             style="fill:#0000ff;fill-opacity:1;stroke:#ff04ff;stroke-width:0.085725;stroke-miterlimit:4;stroke-dasharray:none;stroke-opacity:1">DEPTH</tspan><tspan
             sodipodi:role="line"
             x="173.17976"
             y="185.38115"
             style="fill:#0000ff;fill-opacity:1;stroke:#ff04ff;stroke-width:0.085725;stroke-miterlimit:4;stroke-dasharray:none;stroke-opacity:1"
             id="tspan1126">OF</tspan><tspan
             sodipodi:role="line"
             x="173.17976"
             y="195.66821"
             style="fill:#0000ff;fill-opacity:1;stroke:#ff04ff;stroke-width:0.085725;stroke-miterlimit:4;stroke-dasharray:none;stroke-opacity:1"
             id="tspan1128">THOUGHTS</tspan></text>
      </g>
      <rect
         y="158.75"
         x="137.97836"
         height="7.9375"
         width="7.9375"
         id="rect1134"
         style="fill:#0000ff;fill-opacity:1;stroke:#ff04ff;stroke-width:0.085725;stroke-linecap:round;stroke-linejoin:round;stroke-miterlimit:4;stroke-dasharray:none;stroke-dashoffset:9.44882;stroke-opacity:1" />
    </g>
    <path
       d="m 340.12797,132.21642 c -0.0697,1.58826 -0.11015,3.17685 0.0542,4.76177 0.0379,0.36567 0.10353,0.72793 0.15528,1.09189 0.0491,0.19427 0.17238,0.94068 0.40709,1.15527 0.25662,0.23463 0.74277,0.0387 0.96988,-0.0317 0.57026,-0.17675 1.26096,-0.49266 1.79851,-0.72339 0.009,-0.006 -0.0788,-0.13608 -0.088,-0.12985 v 0 c -0.68622,0.30194 -1.08056,0.49183 -1.7689,0.73785 -0.10358,0.037 -0.61193,0.27404 -0.8005,0.0999 -0.20899,-0.19301 -0.32826,-0.98814 -0.35967,-1.12621 -0.0475,-0.36132 -0.10663,-0.72131 -0.14243,-1.08398 -0.073,-0.73954 -0.12824,-1.85684 -0.13729,-2.59943 -0.009,-0.717 0.0423,-1.43496 0.0132,-2.15208 0,-0.007 -0.10123,-0.007 -0.10123,0 z"
       id="path1142"
       style="fill:#ff0000;fill-opacity:1;stroke:#ff04ff;stroke-width:0.085725;stroke-linecap:round;stroke-linejoin:round;stroke-miterlimit:4;stroke-dasharray:none;stroke-dashoffset:9.44882;stroke-opacity:1" />
    <path
       d="m 339.98062,135.17371 c 1.19735,0.49544 2.47854,0.7434 3.74592,0.98657 0.009,0.004 0.0626,-0.11799 0.054,-0.12181 v 0 c -1.25791,-0.26255 -2.52701,-0.5136 -3.73753,-0.95321 -0.006,-0.004 -0.0687,0.084 -0.0624,0.0884 z"
       id="path1144"
       style="fill:#ff0000;fill-opacity:1;stroke:#ff04ff;stroke-width:0.085725;stroke-linecap:round;stroke-linejoin:round;stroke-miterlimit:4;stroke-dasharray:none;stroke-dashoffset:9.44882;stroke-opacity:1" />
    <path
       d="m 344.28571,133.44484 c -0.007,0.10114 -0.0119,0.2025 -0.022,0.30341 -0.0641,0.64779 -0.0903,0.7228 -0.18399,1.44712 -0.14893,1.1507 -0.27541,2.3039 -0.42421,3.45465 -0.061,0.45 -0.15322,1.13954 -0.2214,1.6162 -0.0154,0.10727 -0.0751,0.21639 -0.0485,0.32143 0.0119,0.0468 0.0886,-0.0548 0.10448,-0.10048 0.0599,-0.17201 0.073,-0.35694 0.11626,-0.53386 0.0687,-0.28153 0.14639,-0.56082 0.21958,-0.84123 0.26276,-0.8904 0.57319,-1.77982 1.07365,-2.5689 0.0829,-0.13067 0.3737,-0.62193 0.65892,-0.60161 0.0888,0.006 0.13406,0.11709 0.20108,0.17564 0.0556,0.15994 0.13327,0.31385 0.16693,0.47981 0.10713,0.52839 0.10207,1.13469 0.0777,1.66604 -0.0304,0.66162 -0.0768,1.05951 -0.21632,1.69307 -0.0399,0.18092 -0.0982,0.35726 -0.1473,0.5359 -0.0386,0.32656 -0.11366,0.24777 0.19976,0.25828 0.006,-0.003 -0.0429,-0.0948 -0.0493,-0.0913 v 0 c -0.11924,0.16193 -0.0797,0.13739 -0.0262,-0.13723 0.0543,-0.18126 0.11935,-0.35961 0.16275,-0.54376 0.14967,-0.63523 0.19793,-1.05014 0.22481,-1.71437 0.0217,-0.53364 0.0217,-1.17539 -0.10525,-1.7041 -0.0441,-0.1837 -0.14033,-0.35081 -0.2105,-0.52621 -0.11509,-0.062 -0.2146,-0.18208 -0.34528,-0.18598 -0.30525,-0.009 -0.61661,0.47464 -0.72242,0.63669 -0.51753,0.79252 -0.82981,1.69423 -1.08596,2.59829 -0.0674,0.28365 -0.14269,0.56554 -0.2023,0.85094 -0.0384,0.18374 -0.0963,0.368 -0.0914,0.55565 0.003,0.053 0.0742,0.15608 0.1089,0.11598 0.0718,-0.0829 0.0494,-0.21377 0.0691,-0.32167 0.0932,-0.51313 0.17597,-1.10985 0.25082,-1.61542 0.15156,-1.151 0.27586,-2.30353 0.40706,-3.45695 0.0763,-0.67017 0.1102,-0.84436 0.15121,-1.45757 0.007,-0.10264 0.007,-0.20562 0.0106,-0.30843 0,-0.007 -0.10123,-0.007 -0.10123,0 z"
       id="path1146"
       style="fill:#ff0000;fill-opacity:1;stroke:#ff04ff;stroke-width:0.085725;stroke-linecap:round;stroke-linejoin:round;stroke-miterlimit:4;stroke-dasharray:none;stroke-dashoffset:9.44882;stroke-opacity:1" />
    <path
       d="m 347.96027,138.4255 c 0.27964,-0.18887 0.66649,-0.61803 0.5729,-0.99215 -0.019,-0.0764 -0.077,-0.13752 -0.11549,-0.20627 -0.20703,-0.1589 -0.5983,-0.35816 -0.8637,-0.20567 -0.20032,0.11509 -0.35224,0.41032 -0.46398,0.58203 -0.29858,0.66491 -0.51408,1.37367 -0.61457,2.09705 -0.0507,0.36523 -0.0868,0.83807 0.0397,1.20223 0.049,0.14104 0.1565,0.25434 0.23476,0.38151 0.11883,0.0668 0.22643,0.15962 0.3565,0.20052 0.6445,0.20268 1.5366,-0.20523 2.10299,-0.49813 0.17471,-0.10416 0.395,-0.20496 0.47297,-0.41161 0.0172,-0.0453 0.0161,-0.0956 0.0241,-0.1434 0,-0.007 -0.10033,-0.0202 -0.10126,-0.0131 v 0 c -0.005,0.0369 -0.003,0.0759 -0.0151,0.11079 -0.071,0.18812 -0.29522,0.2717 -0.44955,0.36566 -0.51192,0.25249 -1.38586,0.64879 -1.96191,0.49742 -0.11618,-0.0305 -0.21456,-0.1081 -0.32184,-0.16215 -0.0722,-0.11457 -0.17275,-0.21559 -0.21659,-0.34372 -0.12049,-0.35204 -0.0777,-0.81249 -0.0275,-1.16296 0.10157,-0.70935 0.30829,-1.4052 0.58372,-2.06518 0.10541,-0.16922 0.22469,-0.41668 0.40299,-0.54144 0.19711,-0.13793 0.55602,0.0501 0.72205,0.1572 0.0347,0.0528 0.0867,0.0977 0.10403,0.15838 0.0949,0.33118 -0.28329,0.7407 -0.52562,0.91205 -0.006,0.004 0.0546,0.0852 0.0603,0.0809 z"
       id="path1148"
       style="fill:#ff0000;fill-opacity:1;stroke:#ff04ff;stroke-width:0.085725;stroke-linecap:round;stroke-linejoin:round;stroke-miterlimit:4;stroke-dasharray:none;stroke-dashoffset:9.44882;stroke-opacity:1" />
    <path
       d="m 350.38788,140.66924 c -0.0838,-0.50352 -0.17929,-1.00792 -0.20093,-1.51933 -0.013,-0.30742 -0.0169,-0.73549 0.0974,-1.03735 0.0382,-0.10073 0.12258,-0.17718 0.18389,-0.26577 0.0838,-0.009 0.17118,-0.0514 0.25132,-0.0256 0.25218,0.0814 0.53039,0.45855 0.65297,0.63268 0.41537,0.58998 0.59155,1.12057 0.80674,1.79701 0.0925,0.46942 0.22233,0.97178 0.13351,1.45524 -0.0124,0.0676 -0.052,0.12729 -0.078,0.19094 -0.003,0.007 0.0993,0.0422 0.10178,0.035 v 0 c 0.0308,-0.0729 0.0761,-0.14121 0.0923,-0.21865 0.10324,-0.49524 -0.0262,-1.01435 -0.12018,-1.49669 -0.21846,-0.68903 -0.39735,-1.23799 -0.82923,-1.83398 -0.19923,-0.27498 -0.43748,-0.59287 -0.80295,-0.66416 -0.10377,-0.0202 -0.20585,0.0484 -0.30875,0.0726 -0.0683,0.10022 -0.16081,0.18765 -0.20476,0.30066 -0.12202,0.31384 -0.11956,0.74597 -0.10512,1.06827 0.023,0.51579 0.12253,1.02486 0.22461,1.5294 0.003,0.007 0.10678,-0.0129 0.10536,-0.0203 z"
       id="path1150"
       style="fill:#ff0000;fill-opacity:1;stroke:#ff04ff;stroke-width:0.085725;stroke-linecap:round;stroke-linejoin:round;stroke-miterlimit:4;stroke-dasharray:none;stroke-dashoffset:9.44882;stroke-opacity:1" />
    <path
       d="m 356.13211,137.41077 c 0.0627,0.2707 0.10406,0.43339 0.15023,0.73054 0.0922,0.59349 0.15867,1.19071 0.24482,1.78511 0.11303,0.78001 0.17471,1.15645 0.29469,1.91655 0.21519,-0.0521 -0.0241,0.88337 0.29994,0.94072 0.43241,0.0765 1.06751,-1.05246 1.07182,-1.05875 0.54833,-0.79879 0.96015,-1.53225 1.45042,-2.366 0.17944,-0.2928 0.34595,-0.59393 0.53832,-0.8784 0.0972,-0.14378 0.18561,-0.30568 0.3288,-0.40378 0.0424,-0.029 0.0464,0.0957 0.0459,0.1471 -0.003,0.20187 -0.0265,0.4032 -0.0534,0.60327 -0.0474,0.35209 -0.30382,1.80649 -0.35433,2.09745 -0.006,0.0434 -0.2745,1.43325 -0.13417,1.6919 0.0566,0.10428 0.25339,0.11154 0.3528,0.0468 0.23693,-0.15421 0.39322,-0.40909 0.55739,-0.63923 0.52417,-0.73478 0.93533,-1.57599 1.35676,-2.36827 0.005,-0.0117 -0.15983,-0.0829 -0.16489,-0.0713 v 0 c -0.43383,0.82823 -0.80034,1.58111 -1.31111,2.36191 -0.14029,0.21444 -0.28763,0.42776 -0.46755,0.61024 -0.0469,0.0475 -0.17042,0.12162 -0.19158,0.0583 -0.0979,-0.29268 0.14954,-1.57854 0.16309,-1.66762 0.0613,-0.37166 0.28844,-1.69319 0.32572,-2.11495 0.0196,-0.223 0.0672,-0.45583 0.007,-0.67157 -0.0251,-0.0907 -0.14938,-0.19084 -0.2363,-0.1547 -0.48466,0.20146 -0.4745,1.12735 -0.92149,1.27674 -0.64032,1.08684 -1.25314,2.21433 -2.02094,3.21948 -0.0677,0.0885 -0.1284,0.24431 -0.23929,0.23337 -0.31416,-0.031 0,-1.07293 -0.25667,-0.91162 -0.21212,-1.42632 -0.0542,-0.37174 -0.28874,-1.9163 -0.0334,-0.21974 -0.22373,-1.49574 -0.27633,-1.78719 -0.0598,-0.33155 -0.0958,-0.44654 -0.17436,-0.73672 -0.003,-0.007 -0.0988,0.02 -0.0969,0.0269 z"
       id="path1152"
       style="fill:#ff0000;fill-opacity:1;stroke:#ff04ff;stroke-width:0.085725;stroke-linecap:round;stroke-linejoin:round;stroke-miterlimit:4;stroke-dasharray:none;stroke-dashoffset:9.44882;stroke-opacity:1" />
    <path
       d="m 365.07439,138.64201 c -0.003,0.0911 0.003,0.18255 -0.005,0.27342 -0.0309,0.39697 -0.13322,1.04778 -0.19092,1.38635 -0.16097,0.94459 -0.36031,1.88161 -0.56859,2.81662 -0.0941,0.38671 -0.17164,0.43311 -0.003,0.27119 -0.003,-0.007 -0.0984,0.0162 -0.0967,0.023 v 0 c 0.23061,0.14821 0.11245,0.13038 0.23887,-0.26733 0.22471,-0.93571 0.43082,-1.87437 0.57639,-2.82636 0.0485,-0.31725 0.13645,-1.01759 0.15486,-1.40347 0.004,-0.0911 -0.003,-0.18228 -0.005,-0.27343 0,-0.007 -0.10123,-0.007 -0.10123,0 z"
       id="path1154"
       style="fill:#ff0000;fill-opacity:1;stroke:#ff04ff;stroke-width:0.085725;stroke-linecap:round;stroke-linejoin:round;stroke-miterlimit:4;stroke-dasharray:none;stroke-dashoffset:9.44882;stroke-opacity:1" />
    <path
       d="m 366.96283,136.5174 c -0.22183,1.47039 -0.48622,2.93396 -0.73491,4.39996 -0.0577,0.37045 -0.13266,0.81071 -0.17258,1.19174 -0.006,0.0553 -0.0487,0.38832 0.0109,0.48435 0.0736,0.11871 0.24936,0.12851 0.36118,0.15388 0.33811,0.0179 0.71705,0.0457 1.01991,-0.14011 0.0586,-0.036 0.10433,-0.0897 0.15648,-0.13458 0.005,-0.006 -0.0741,-0.0761 -0.0791,-0.0705 v 0 c -0.0459,0.0385 -0.0861,0.085 -0.13771,0.11539 -0.27358,0.16149 -0.61297,0.13859 -0.91676,0.13182 -0.0461,-0.007 -0.2762,-0.0329 -0.30051,-0.0699 -0.0541,-0.0822 0.006,-0.43554 0.008,-0.45578 0.0426,-0.31529 0.14735,-0.90734 0.19484,-1.18554 0.25456,-1.46952 0.52184,-2.93885 0.6939,-4.4208 0,-0.007 -0.10411,-0.007 -0.10411,0 z"
       id="path1156"
       style="fill:#ff0000;fill-opacity:1;stroke:#ff04ff;stroke-width:0.085725;stroke-linecap:round;stroke-linejoin:round;stroke-miterlimit:4;stroke-dasharray:none;stroke-dashoffset:9.44882;stroke-opacity:1" />
    <path
       d="m 368.41542,137.42535 c 0.2512,1.69309 0.0419,3.40951 -0.13266,5.09883 -0.0632,0.66829 -0.15436,1.33359 -0.22225,2.00138 -0.0191,0.18713 -0.0436,0.3742 -0.0479,0.56224 -0.003,0.0812 -0.0268,0.18349 0.0297,0.24191 0.15777,0.16327 0.41151,-0.23232 0.42643,-0.24857 0.36996,-0.49965 0.8627,-0.86418 1.36927,-1.21139 0.006,-0.006 -0.077,-0.0941 -0.0832,-0.0882 v 0 c -0.51351,0.35198 -1.01296,0.72113 -1.3789,1.23541 -0.0616,0.074 -0.12761,0.14459 -0.1849,0.22202 -0.0182,0.0248 -0.0301,0.11192 -0.0407,0.083 -0.0501,-0.13779 0.0561,-0.77781 0.0565,-0.78161 0.2067,-1.65491 0.0212,-0.0806 0.24141,-2.00192 0.1724,-1.70092 0.38132,-3.43892 0.0659,-5.13655 -0.003,-0.007 -0.10038,0.0165 -0.0987,0.0235 z"
       id="path1158"
       style="fill:#ff0000;fill-opacity:1;stroke:#ff04ff;stroke-width:0.085725;stroke-linecap:round;stroke-linejoin:round;stroke-miterlimit:4;stroke-dasharray:none;stroke-dashoffset:9.44882;stroke-opacity:1" />
    <path
       d="m 348.83538,142.60121 c 0.0635,1.96609 0.0659,3.93363 0.0805,5.90054 0.007,0.25479 -0.0148,0.51222 0.0225,0.76437 0.0196,0.13302 0.0408,0.29245 0.14618,0.37598 0.26641,0.21117 0.67045,-0.15391 0.81399,-0.26775 0.39108,-0.31014 0.65593,-0.62529 0.99473,-0.99083 0.35562,-0.44104 0.74086,-0.89374 0.93572,-1.43662 0.0725,-0.20189 0.12446,-0.44952 0.0522,-0.66332 -0.0297,-0.0879 -0.0976,-0.15785 -0.14642,-0.23678 -0.27135,-0.22266 -0.59512,-0.30013 -0.93974,-0.31906 -0.0751,-0.004 -0.39323,-0.0101 -0.44077,0.0567 -0.0243,0.0342 0.0116,0.0832 0.0175,0.12484 0.10316,0.002 0.20815,0.0268 0.30948,0.007 0.13505,-0.0259 0.26485,-0.0793 0.38762,-0.14128 0.50255,-0.25369 0.8727,-0.65596 0.99531,-1.2184 0.0354,-0.16232 0.0151,-0.33192 0.0225,-0.49788 -0.0527,-0.13578 -0.0785,-0.28543 -0.15822,-0.40733 -0.31623,-0.48352 -0.94428,-0.53237 -1.44873,-0.39065 -0.10747,0.0302 -0.20714,0.0833 -0.3107,0.12495 -0.007,0.004 0.0544,0.10026 0.0612,0.0959 v 0 c 0.0987,-0.0384 0.1946,-0.0848 0.29604,-0.11517 0.43958,-0.13158 1.00298,-0.0948 1.28905,0.32209 0.0744,0.10846 0.099,0.24376 0.14846,0.36565 -0.007,0.15474 0.013,0.31281 -0.0196,0.46423 -0.15957,0.74134 -0.7838,1.18302 -1.48487,1.34522 -0.0185,0.003 -0.0735,0.0164 -0.0556,0.0104 0.13065,-0.0436 0.19891,-0.0469 0.35197,-0.0387 0.21553,0.0116 0.4486,0.0422 0.65045,0.1254 0.0828,0.0341 0.15431,0.091 0.23143,0.13653 0.0444,0.0654 0.10682,0.12166 0.13325,0.19615 0.0683,0.19229 0.0122,0.43021 -0.0548,0.60812 -0.19916,0.52965 -0.58492,0.96852 -0.9338,1.40116 -0.38621,0.41929 -0.84921,0.98882 -1.36403,1.25979 -0.0667,0.0351 -0.16489,0.0948 -0.22148,0.045 -0.0911,-0.08 -0.10526,-0.22333 -0.11862,-0.34383 -0.028,-0.25267 -0.003,-0.50844 -0.004,-0.76266 0.004,-1.96944 -0.003,-3.94179 -0.13272,-5.9076 0,-0.007 -0.10633,-8e-5 -0.1058,0.007 z"
       id="path1160"
       style="fill:#ff0000;fill-opacity:1;stroke:#ff04ff;stroke-width:0.085725;stroke-linecap:round;stroke-linejoin:round;stroke-miterlimit:4;stroke-dasharray:none;stroke-dashoffset:9.44882;stroke-opacity:1" />
    <path
       d="m 353.7007,146.60621 c -0.0602,0.005 -0.12364,-0.004 -0.18058,0.0161 -0.41286,0.14649 -0.76962,0.73466 -0.89887,1.12381 -0.053,0.15963 -0.0726,0.32848 -0.10888,0.49273 0.006,0.16928 -0.006,0.34032 0.0188,0.50783 0.0521,0.3467 0.21704,0.83419 0.59097,0.96895 0.29512,0.10635 0.51255,-0.024 0.79103,-0.11192 0.15901,-0.10298 0.33186,-0.18726 0.47707,-0.30895 0.68831,-0.57683 1.05,-1.44376 1.07701,-2.33147 0.006,-0.20322 -0.0287,-0.40561 -0.043,-0.60841 -0.0989,-0.37776 -0.1991,-0.84893 -0.62484,-0.99588 -0.31702,-0.10943 -0.59206,0.0805 -0.84145,0.24084 -0.23588,0.16558 -0.48684,0.30716 -0.73118,0.4595 -0.006,0.005 0.0658,0.0877 0.0717,0.0826 v 0 c 0.24678,-0.14964 0.49882,-0.29119 0.73401,-0.45907 0.20309,-0.13032 0.42926,-0.31483 0.6936,-0.23874 0.40034,0.11525 0.47831,0.58184 0.56848,0.91832 0.0369,0.53579 0.0841,0.68003 -0.0376,1.22278 -0.14084,0.62804 -0.46064,1.19572 -0.95242,1.61536 -0.13753,0.11734 -0.30115,0.20007 -0.45173,0.3001 -0.21336,0.0816 -0.41166,0.20593 -0.65264,0.13322 -0.35108,-0.10593 -0.49742,-0.58229 -0.54523,-0.89144 -0.0246,-0.15882 -0.014,-0.32111 -0.0209,-0.48167 0.0331,-0.15721 0.0498,-0.31882 0.0994,-0.47162 0.11972,-0.36831 0.44344,-0.91101 0.82124,-1.06941 0.0375,-0.0157 0.0807,-0.011 0.12102,-0.0164 0.007,0.002 0.0318,-0.0953 0.0249,-0.0971 z"
       id="path1162"
       style="fill:#ff0000;fill-opacity:1;stroke:#ff04ff;stroke-width:0.085725;stroke-linecap:round;stroke-linejoin:round;stroke-miterlimit:4;stroke-dasharray:none;stroke-dashoffset:9.44882;stroke-opacity:1" />
    <path
       d="m 356.88125,146.51079 c -0.23,0.0237 -0.5711,-0.0613 -0.78483,0.0298 -0.44143,0.18815 -0.5624,0.67792 -0.69323,1.08007 -0.0143,0.18104 -0.0491,0.36161 -0.043,0.54312 0.0236,0.70761 0.3606,1.4793 0.9557,1.89127 0.11314,0.0783 0.24818,0.11895 0.37227,0.17843 0.13023,0.004 0.26344,0.0387 0.39068,0.0107 0.7289,-0.16035 1.13657,-0.93556 1.29802,-1.5921 0.049,-0.1992 0.0628,-0.40543 0.0943,-0.60814 0.0308,-0.46896 -0.005,-0.93897 -0.3246,-1.31336 -0.15951,-0.18693 -0.42899,-0.36374 -0.65875,-0.44976 -0.12206,-0.0457 -0.25348,-0.0608 -0.38024,-0.0912 -0.47024,-0.0327 -0.23526,-0.0336 -0.70493,0.002 -0.008,0.003 0.0281,0.11007 0.0357,0.10755 v 0 c 0.3941,-0.0349 0.18767,-0.0307 0.61939,-0.004 0.11978,0.0262 0.24381,0.0374 0.3593,0.0785 0.20749,0.0738 0.47853,0.24374 0.62455,0.40947 0.30941,0.35116 0.33184,0.80121 0.30033,1.24375 -0.0304,0.19666 -0.0449,0.39647 -0.0913,0.58998 -0.12767,0.53263 -0.36386,1.00573 -0.81172,1.33906 -0.10004,0.0745 -0.20995,0.14331 -0.33046,0.17535 -0.11325,0.0301 -0.23432,0.004 -0.35148,0.006 -0.1158,-0.0538 -0.24193,-0.0893 -0.34739,-0.16127 -0.56936,-0.38824 -0.89639,-1.13211 -0.92359,-1.80452 -0.007,-0.1734 0.0249,-0.3462 0.0372,-0.5193 0.11443,-0.36729 0.21815,-0.82388 0.61129,-1.00759 0.17728,-0.0828 0.52488,-0.006 0.72142,-0.0351 0.007,0.002 0.0324,-0.0972 0.0254,-0.099 z"
       id="path1164"
       style="fill:#ff0000;fill-opacity:1;stroke:#ff04ff;stroke-width:0.085725;stroke-linecap:round;stroke-linejoin:round;stroke-miterlimit:4;stroke-dasharray:none;stroke-dashoffset:9.44882;stroke-opacity:1" />
    <path
       d="m 358.60716,149.67631 c 0.62873,-1.1329 0.98769,-2.38938 1.539,-3.55823 0.0855,-0.18133 0.19293,-0.35152 0.2894,-0.52729 0.0602,-0.0383 0.12086,-0.15384 0.18055,-0.11482 0.0669,0.0437 0.008,0.15969 0.0103,0.2396 0.005,0.18358 0.0164,0.36722 0.0124,0.55083 -0.0119,0.554 -0.0787,0.8511 -0.0458,1.40849 0.0119,0.20256 0.0562,0.40193 0.0842,0.60289 0.0729,0.14204 0.11237,0.30716 0.21887,0.42613 0.56401,0.62996 1.44624,-0.0134 1.8764,-0.44244 0.15626,-0.15585 0.28487,-0.33716 0.4273,-0.50574 0.10649,-0.16095 0.21513,-0.32049 0.31946,-0.48285 0.0636,-0.099 0.11665,-0.20489 0.18433,-0.30119 0.01,-0.0138 0.0504,-0.0398 0.0444,-0.0241 -0.0309,0.0802 -0.0971,0.1448 -0.12256,0.2269 -0.0528,0.17023 -0.0725,0.34902 -0.11012,0.52322 -0.0504,0.23345 -0.10276,0.46649 -0.15415,0.69973 -0.003,0.01 0.13312,0.0335 0.13481,0.0239 v 0 c 0.048,-0.23445 0.0984,-0.46841 0.14396,-0.70334 0.0409,-0.2109 0.16695,-0.60565 0.0459,-0.84736 -0.0145,-0.029 -0.0641,0.0229 -0.0847,0.048 -0.1941,0.23694 -0.29885,0.53988 -0.51197,0.76303 -0.38021,0.45026 -0.76039,0.94049 -1.35263,1.12248 -0.26435,0.0812 -0.52684,0.071 -0.72821,-0.14757 -0.0999,-0.10843 -0.1346,-0.26237 -0.20191,-0.39356 -0.0963,-0.73522 -0.092,-0.49263 -0.0709,-1.29521 0.007,-0.26402 0.0721,-0.99269 -0.003,-1.28546 -0.0285,-0.11111 -0.0802,-0.24987 -0.18835,-0.28801 -0.0841,-0.0297 -0.1514,0.0944 -0.22712,0.14155 -0.10382,0.17749 -0.22093,0.34785 -0.31152,0.53245 -0.56764,1.15682 -0.91149,2.42314 -1.49437,3.57391 -0.003,0.007 0.0936,0.0408 0.096,0.034 z"
       id="path1166"
       style="fill:#00ffff;fill-opacity:1;stroke:#ff04ff;stroke-width:0.085725;stroke-linecap:round;stroke-linejoin:round;stroke-miterlimit:4;stroke-dasharray:none;stroke-dashoffset:9.44882;stroke-opacity:1" />
    <path
       d="m 325.39301,163.84778 c -0.082,-0.0879 -0.16868,-0.17169 -0.24607,-0.26367 -0.44577,-0.52973 -0.86251,-1.10018 -1.25579,-1.66653 -0.96123,-1.3842 -1.6002,-2.40928 -2.54352,-3.86678 -0.63381,-0.97923 -1.26875,-1.9577 -1.90315,-2.93655 -4.70786,-7.21633 -9.99643,-14.04079 -15.52673,-20.6423 -0.83563,-0.99749 -1.69679,-1.97331 -2.54518,-2.95997 -0.51192,-0.55761 -1.02386,-1.11523 -1.53578,-1.67285 -0.12467,-0.0984 -0.45952,-0.42885 -0.37401,-0.29504 0.777,1.21581 2.68674,3.1867 3.45022,4.01248 2.6643,2.88178 3.95753,4.21537 6.73576,7.13134 3.58609,3.73269 7.17452,7.46603 10.91695,11.04358 0.7053,0.67425 1.41721,1.34206 2.14715,1.98959 1.07944,0.95759 0.64907,0.96784 1.35297,0.84187 -0.11282,-0.30492 -0.26956,-0.59704 -0.33846,-0.91478 -0.13298,-0.61309 -0.24365,-1.23641 -0.2641,-1.86342 -0.0674,-2.06662 0.21759,-3.64121 0.73406,-5.6616 0.25381,-0.99285 0.56118,-1.97304 0.91133,-2.93614 0.3153,-0.86728 0.72168,-1.69869 1.08251,-2.54804 0.48245,-0.86661 1.10318,-2.22172 1.90175,-2.95646 0.15804,-0.14538 0.38949,-0.32762 0.59155,-0.25497 0.21323,0.0767 0.27049,0.37331 0.33862,0.5894 0.27181,0.86207 0.51953,3.08767 0.60854,3.74288 0.31083,2.56658 0.39555,3.48422 0.82553,6.09268 0.15835,0.96066 0.31893,1.92176 0.52567,2.87318 0.0755,0.34758 0.41828,2.79269 1.37226,3.04645 0.47969,0.12759 0.96618,-0.2281 1.44928,-0.34214 2.40708,-1.26279 4.73702,-2.66706 7.1374,-3.94174 1.58798,-0.84325 3.19106,-1.65841 4.80555,-2.44971 1.87182,-0.91742 5.68095,-2.79125 7.91464,-3.36249 0.65225,-0.16681 1.34372,-0.0864 2.01557,-0.12956 0.15719,0.33733 0.50427,0.64127 0.47157,1.01199 -0.11457,1.29894 -1.69916,3.49962 -2.32675,4.33854 -1.15215,1.54012 -2.70549,3.21888 -4.08434,4.56898 -0.53753,0.52631 -1.11414,1.01114 -1.67119,1.51671 -0.24038,0.21833 -0.78349,0.33633 -0.72107,0.65499 0.0534,0.27272 0.55401,-0.0806 0.8147,-0.17687 0.82016,-0.30289 1.60089,-0.70516 2.41771,-1.01692 1.40711,-0.53707 2.81983,-1.06232 4.25188,-1.52875 5.30265,-1.7271 6.41869,-1.88263 11.98759,-3.24231 2.10944,-0.43398 7.59783,-1.66638 10.08695,-1.84599 0.68736,-0.0496 1.46727,-0.15673 2.0579,0.19836 0.27744,0.1668 0.0824,0.71546 -0.12626,0.96293 -1.07249,1.27173 -4.2195,2.8506 -5.38438,3.51576 -2.47496,1.18824 -4.55427,2.2814 -7.13883,3.17871 -0.76514,0.26566 -1.54461,0.53527 -2.35055,0.61581 -0.29173,0.0291 -0.80002,-0.006 -0.82746,-0.29825 -0.0393,-0.41798 0.40439,-0.74926 0.70104,-1.04631 0.58753,-0.58828 1.28421,-1.05632 1.92632,-1.58448 1.15171,-0.6303 2.26465,-1.33727 3.45512,-1.89089 3.44329,-1.60127 6.15016,-2.44087 9.89594,-3.26442 3.11034,-0.68384 6.65779,-1.17346 9.86425,-1.27784 1.03212,-0.0336 2.06386,0.0781 3.09579,0.11718 0.54737,0.17306 1.19824,0.15512 1.64208,0.51919 0.2291,0.1879 0.22495,0.63279 0.0711,0.88601 -0.33139,0.54547 -0.86939,0.95232 -1.40181,1.30432 -1.09032,0.72084 -2.25962,1.31928 -3.43413,1.89281 -3.82461,1.86758 -5.93482,2.55624 -9.94024,4.07077 -2.21298,0.72199 -5.38427,1.85154 -7.78201,2.33635 -0.54157,0.10951 -1.11625,0.26489 -1.65242,0.1314 -0.17188,-0.0428 -0.0629,-0.39975 0.0592,-0.52803 0.44392,-0.46638 0.99999,-0.81677 1.54588,-1.15821 0.96173,-0.60154 1.97863,-1.11004 2.96796,-1.66506 3.79357,-1.95128 7.7278,-3.62883 11.75258,-5.04217 1.39076,-0.48838 3.66176,-1.21589 5.22465,-1.53202 0.32713,-0.0662 0.66445,-0.0639 0.99669,-0.0958 -0.006,0.0742 0.0334,0.16893 -0.0183,0.22272 -0.19841,0.20713 -0.45328,0.35206 -0.689,0.51546 -1.21351,0.84121 -1.35231,0.84324 -2.63927,1.75497 -1.47913,1.04787 -1.76276,1.33137 -3.17926,2.50895 -1.50199,1.27728 -2.89941,2.66804 -4.27895,4.07424 -0.36695,0.37403 -0.72387,0.75797 -1.09649,1.12637 -0.97922,0.96819 -1.34956,1.27509 -2.37511,2.19009 -1.02658,0.88555 -2.10013,1.71715 -3.2413,2.45027 -0.6527,0.41931 -1.34319,0.77739 -2.01457,1.1651 -0.46307,0.28162 -0.91159,0.5851 -1.34445,0.91104 -0.12734,0.0959 -0.24948,0.19877 -0.3791,0.29154 -0.17809,0.12743 -0.77676,0.51325 -0.9413,0.62019 -0.64974,0.41386 -1.29469,0.83669 -1.91537,1.29314 -0.006,0.006 0.0768,0.0906 0.0828,0.0848 v 0 c 0.63085,-0.44067 1.27582,-0.86111 1.92013,-1.28173 0.19323,-0.12764 0.73999,-0.48548 0.94189,-0.63104 0.12867,-0.0928 0.25033,-0.1949 0.37743,-0.28979 0.43154,-0.32224 0.88252,-0.61588 1.34395,-0.89351 0.67771,-0.38443 1.37658,-0.73873 2.03814,-1.15074 1.15893,-0.72176 2.24298,-1.5544 3.27605,-2.44583 1.16133,-1.03637 1.26756,-1.106 2.37987,-2.19979 0.3737,-0.36746 0.73567,-0.74664 1.10556,-1.11795 1.38682,-1.39224 2.79003,-2.76975 4.28239,-4.05016 1.43682,-1.20225 1.65904,-1.43368 3.15283,-2.51029 0.0683,-0.0492 2.40286,-1.63687 2.61352,-1.8008 0.24644,-0.19177 0.53735,-0.36136 0.68975,-0.63392 0.0614,-0.10986 -0.0927,-0.23404 -0.13904,-0.35106 -0.34872,0.0142 -0.7017,-0.0137 -1.04616,0.0425 -1.61637,0.26363 -3.85811,0.95007 -5.30561,1.44491 -4.04874,1.38414 -7.98963,3.08673 -11.76407,5.10232 -0.97777,0.58307 -1.99459,1.10511 -2.93325,1.7492 -0.55176,0.3786 -1.14207,0.75786 -1.52262,1.30828 -0.13639,0.19728 -0.0974,0.62802 0.12869,0.70791 0.54287,0.19175 1.15872,0.0433 1.72641,-0.0526 2.50163,-0.42275 5.54463,-1.50562 7.87323,-2.2441 4.03598,-1.5428 6.10968,-2.20203 9.92584,-4.17518 1.16827,-0.60405 2.3268,-1.24401 3.39188,-2.0156 0.19328,-0.14004 2.21875,-1.60096 1.26529,-2.49086 -0.43193,-0.40315 -1.10701,-0.41342 -1.66052,-0.62013 -1.0968,-0.064 -2.19189,-0.21113 -3.29039,-0.19215 -3.22053,0.0556 -6.82865,0.54776 -9.94513,1.24771 -3.66421,0.82297 -6.55553,1.75381 -9.90891,3.38634 -1.18755,0.57813 -2.28661,1.32268 -3.42992,1.98402 -0.0354,0.0312 -2.74646,1.99281 -2.52537,2.92251 0.0835,0.35113 0.65227,0.40293 1.01266,0.38333 0.82537,-0.0449 1.62873,-0.30995 2.41345,-0.56968 2.67939,-0.88685 4.62561,-1.94968 7.17733,-3.19219 1.20999,-0.72435 4.34081,-2.32904 5.33522,-3.75299 0.22595,-0.32356 0.37205,-0.9618 0.0453,-1.18308 -0.63072,-0.42709 -1.50173,-0.34884 -2.26283,-0.31854 -2.62675,0.10454 -7.89246,1.28754 -10.17066,1.74305 -2.11854,0.53213 -4.25297,1.00468 -6.35564,1.59641 -3.58102,1.00774 -6.43524,1.99295 -9.81307,3.4023 -0.79936,0.33352 -1.57888,0.71397 -2.35236,1.10378 -0.22053,0.11115 -0.77208,0.5958 -0.62553,0.39702 0.19587,-0.2657 0.52091,-0.4056 0.78137,-0.6084 0.57078,-0.50109 1.16467,-0.97706 1.71236,-1.50328 1.40419,-1.34912 2.96251,-3.03778 4.10575,-4.60715 0.62169,-0.85345 2.24922,-3.19152 2.24348,-4.52941 -0.003,-0.44725 -0.45797,-0.76838 -0.68694,-1.15257 -0.70472,0.0229 -1.4269,-0.0889 -2.11418,0.0686 -2.32167,0.53221 -6.04763,2.33953 -8.0042,3.30176 -1.61534,0.79442 -3.21432,1.62312 -4.79388,2.48645 -1.45709,0.79638 -5.27672,3.06931 -6.98026,4.07753 -0.4099,0.13562 -0.81085,0.51168 -1.22966,0.40688 -0.88974,-0.22263 -1.20792,-2.80742 -1.24613,-2.99418 -0.19465,-0.95155 -0.34859,-1.91106 -0.50657,-2.86937 -0.46173,-2.80045 -0.51306,-3.34572 -0.8763,-6.08545 -0.12385,-0.77956 -0.22395,-1.56327 -0.37161,-2.33867 -0.0472,-0.24783 -0.23363,-1.88165 -0.88231,-2.07734 -0.22931,-0.0692 -0.48365,0.11516 -0.66548,0.27108 -0.85836,0.73601 -1.47449,2.05963 -1.99765,2.96647 -0.36888,0.85502 -0.78619,1.69074 -1.10662,2.56508 -0.67249,1.83501 -1.28469,4.09214 -1.50993,6.03762 -0.17332,1.49688 -0.16409,3.08181 0.25739,4.54569 0.0813,0.2823 0.28996,0.511 0.43495,0.76649 -0.52123,0.15705 -0.0945,0.0537 -1.10218,-0.91437 -0.69969,-0.67217 -1.38975,-1.35438 -2.07761,-2.03866 -3.66644,-3.64731 -7.25665,-7.36966 -10.86935,-11.06988 -5.7264,-5.91466 -1.57514,-1.61772 -6.81791,-7.06594 -1.13488,-1.17935 -2.47079,-2.67098 -3.78857,-3.75931 -0.11549,-0.0954 0.18804,0.23322 0.28204,0.34984 0.48432,0.57436 0.96867,1.14873 1.45302,1.72309 2.59172,3.13817 2.99421,3.6053 5.76095,7.05715 4.29374,5.357 8.53729,10.76722 12.31506,16.50644 0.64879,0.97114 1.29749,1.94231 1.94636,2.91341 0.97898,1.46522 1.61631,2.45564 2.61863,3.8364 0.41323,0.56923 0.84021,1.126 1.31106,1.64853 0.0833,0.0924 0.17685,0.1749 0.26525,0.26236 0.005,0.005 0.0783,-0.0636 0.0735,-0.0688 z"
       id="path1168"
       style="fill:#00ffff;fill-opacity:1;stroke:#1004ff;stroke-width:0.085725;stroke-linecap:round;stroke-linejoin:round;stroke-miterlimit:4;stroke-dasharray:none;stroke-dashoffset:9.44882;stroke-opacity:1" />
    <path
       id="path1170"
       d="m 433.91668,74.083335 h 42.33333 V 211.66667 H 306.91667 v -42.33333 -5.29167"
       style="fill:none;stroke:#4fff7a;stroke-width:1.32291668;stroke-linecap:butt;stroke-linejoin:miter;stroke-opacity:1;stroke-miterlimit:4;stroke-dasharray:none" />
    <text
       id="text1174"
       y="210.87253"
       x="343.09448"
       style="font-size:6.26631px;line-height:1.25;font-family:Ubuntu;-inkscape-font-specification:Ubuntu;text-align:center;letter-spacing:0px;word-spacing:0px;text-anchor:middle;stroke-width:0.065274"
       xml:space="preserve"><tspan
         style="stroke-width:0.065274"
         y="210.87253"
         x="343.09448"
         id="tspan1172"
         sodipodi:role="line">the explosion pump will activate</tspan></text>
    <rect
       y="201.08334"
       x="244.73959"
       height="14.552084"
       width="30.427084"
       id="rect1176"
       style="fill:#0022ff;fill-opacity:1;stroke:#4f1c7a;stroke-width:1.32292;stroke-linecap:round;stroke-linejoin:round;stroke-miterlimit:4;stroke-dasharray:none;stroke-dashoffset:9.44882;stroke-opacity:1" />
    <text
       id="text1180"
       y="213.16177"
       x="260.33087"
       style="font-size:12.1554px;line-height:1.25;font-family:Ubuntu;-inkscape-font-specification:Ubuntu;text-align:center;letter-spacing:0px;word-spacing:0px;text-anchor:middle;stroke-width:0.126619"
       xml:space="preserve"><tspan
         style="stroke-width:0.126619"
         y="213.16177"
         x="260.33087"
         id="tspan1178"
         sodipodi:role="line">Arduino</tspan></text>
    <path
       id="path1184"
       d="m 80.711988,41.021951 13.201025,-1.318304 v 9.228125 L 80.711988,47.613468 Z"
       style="fill:#ff0000;fill-opacity:1;stroke:#000000;stroke-width:0.294982px;stroke-linecap:butt;stroke-linejoin:miter;stroke-opacity:1" />
    <text
       id="text1188"
       y="47.826534"
       x="102.90051"
       style="font-size:7.07886px;line-height:1.25;font-family:Ubuntu;-inkscape-font-specification:Ubuntu;text-align:center;letter-spacing:0px;word-spacing:0px;text-anchor:middle;stroke-width:0.0737381"
       xml:space="preserve"><tspan
         style="stroke-width:0.0737381"
         y="47.826534"
         x="102.90051"
         id="tspan1186"
         sodipodi:role="line">alarm</tspan></text>
    <path
       style="fill:#ff0000;fill-opacity:1;stroke:#000000;stroke-width:0.294982px;stroke-linecap:butt;stroke-linejoin:miter;stroke-opacity:1"
       d="m 437.87135,41.021951 -13.20103,-1.318304 v 9.228125 l 13.20103,-1.318304 z"
       id="path1190" />
    <text
       id="text1194"
       y="110.22643"
       x="457.00909"
       style="font-size:10.4428px;line-height:1.25;font-family:Ubuntu;-inkscape-font-specification:Ubuntu;text-align:center;letter-spacing:0px;word-spacing:0px;text-anchor:middle;stroke-width:0.108779"
       xml:space="preserve"><tspan
         style="stroke-width:0.108779"
         y="110.22643"
         x="457.00909"
         id="tspan1192"
         sodipodi:role="line">player 1</tspan></text>
    <text
       xml:space="preserve"
       style="font-size:10.4428px;line-height:1.25;font-family:Ubuntu;-inkscape-font-specification:Ubuntu;text-align:center;letter-spacing:0px;word-spacing:0px;text-anchor:middle;stroke-width:0.108779"
       x="69.394493"
       y="110.22643"
       id="text1198"><tspan
         sodipodi:role="line"
         id="tspan1196"
         x="69.394493"
         y="110.22643"
         style="stroke-width:0.108779">player 2</tspan></text>
  </g>
</svg>
