<?xml version="1.0" encoding="UTF-8" standalone="no"?>
<svg
   xmlns:dc="http://purl.org/dc/elements/1.1/"
   xmlns:cc="http://creativecommons.org/ns#"
   xmlns:rdf="http://www.w3.org/1999/02/22-rdf-syntax-ns#"
   xmlns:svg="http://www.w3.org/2000/svg"
   xmlns="http://www.w3.org/2000/svg"
   xmlns:xlink="http://www.w3.org/1999/xlink"
   xmlns:sodipodi="http://sodipodi.sourceforge.net/DTD/sodipodi-0.dtd"
   xmlns:inkscape="http://www.inkscape.org/namespaces/inkscape"
   inkscape:export-ydpi="96"
   inkscape:export-xdpi="96"
   inkscape:export-filename="/home/joelwindows7/Gambar/InkscapeTemp/DrawAmazingThingsWithInkscape.png"
   sodipodi:docname="DrawAmazingThingsWithInkscape.svg"
   inkscape:version="1.0 (6e3e5246a0, 2020-05-07)"
   id="svg8"
   version="1.1"
   viewBox="0 0 1920 1080"
   height="1080"
   width="1920">
  <defs
     id="defs2">
    <linearGradient
       id="linearGradient901"
       inkscape:collect="always">
      <stop
         id="stop897"
         offset="0"
         style="stop-color:#ffbdc6;stop-opacity:1;" />
      <stop
         style="stop-color:#fff300;stop-opacity:1"
         offset="0.25"
         id="stop907" />
      <stop
         style="stop-color:#a200c6;stop-opacity:1"
         offset="0.5"
         id="stop905" />
      <stop
         id="stop909"
         offset="0.75"
         style="stop-color:#00ff01;stop-opacity:1" />
      <stop
         id="stop899"
         offset="1"
         style="stop-color:#ffbdc6;stop-opacity:0.99902689" />
    </linearGradient>
    <linearGradient
       id="linearGradient869"
       inkscape:collect="always">
      <stop
         id="stop865"
         offset="0"
         style="stop-color:#ff0fc6;stop-opacity:1" />
      <stop
         id="stop867"
         offset="1"
         style="stop-color:#00ffff;stop-opacity:1" />
    </linearGradient>
    <linearGradient
       id="linearGradient859"
       inkscape:collect="always">
      <stop
         id="stop855"
         offset="0"
         style="stop-color:#ff0fc6;stop-opacity:1" />
      <stop
         style="stop-color:#00ff00;stop-opacity:1"
         offset="0.3545047"
         id="stop875" />
      <stop
         style="stop-color:#ffff00;stop-opacity:1"
         offset="0.61904764"
         id="stop863" />
      <stop
         id="stop857"
         offset="1"
         style="stop-color:#00ffff;stop-opacity:1" />
    </linearGradient>
    <linearGradient
       id="linearGradient841"
       inkscape:collect="always">
      <stop
         id="stop837"
         offset="0"
         style="stop-color:#00ffff;stop-opacity:1" />
      <stop
         style="stop-color:#7f00ff;stop-opacity:1"
         offset="0.25"
         id="stop849" />
      <stop
         style="stop-color:#ffffff;stop-opacity:1"
         offset="0.5"
         id="stop845" />
      <stop
         id="stop847"
         offset="0.75"
         style="stop-color:#007fff;stop-opacity:1" />
      <stop
         id="stop839"
         offset="1"
         style="stop-color:#ff00ff;stop-opacity:1" />
    </linearGradient>
    <linearGradient
       gradientUnits="userSpaceOnUse"
       y2="920"
       x2="1640"
       y1="120"
       x1="240"
       id="linearGradient843"
       xlink:href="#linearGradient841"
       inkscape:collect="always" />
    <linearGradient
       gradientUnits="userSpaceOnUse"
       y2="235"
       x2="1700"
       y1="180"
       x1="120"
       id="linearGradient861"
       xlink:href="#linearGradient859"
       inkscape:collect="always" />
    <linearGradient
       y2="235"
       x2="1700"
       y1="180"
       x1="120"
       gradientUnits="userSpaceOnUse"
       id="linearGradient873"
       xlink:href="#linearGradient869"
       inkscape:collect="always" />
    <radialGradient
       gradientUnits="userSpaceOnUse"
       r="162.5"
       fy="414.36115"
       fx="521.06128"
       cy="414.36115"
       cx="521.06128"
       id="radialGradient903"
       xlink:href="#linearGradient901"
       inkscape:collect="always" />
  </defs>
  <sodipodi:namedview
     inkscape:snap-bbox-edge-midpoints="true"
     inkscape:snap-bbox-midpoints="true"
     inkscape:bbox-nodes="true"
     inkscape:bbox-paths="true"
     inkscape:snap-bbox="true"
     inkscape:window-maximized="1"
     inkscape:window-y="27"
     inkscape:window-x="0"
     inkscape:window-height="1016"
     inkscape:window-width="1920"
     units="px"
     showgrid="true"
     inkscape:document-rotation="0"
     inkscape:current-layer="layer1"
     inkscape:document-units="px"
     inkscape:cy="691.30889"
     inkscape:cx="1235.4153"
     inkscape:zoom="0.35"
     inkscape:pageshadow="2"
     inkscape:pageopacity="0.0"
     borderopacity="1.0"
     bordercolor="#666666"
     pagecolor="#ffffff"
     id="base">
    <inkscape:grid
       id="grid833"
       type="xygrid" />
  </sodipodi:namedview>
  <metadata
     id="metadata5">
    <rdf:RDF>
      <cc:Work
         rdf:about="">
        <dc:format>image/svg+xml</dc:format>
        <dc:type
           rdf:resource="http://purl.org/dc/dcmitype/StillImage" />
        <dc:title></dc:title>
        <cc:license
           rdf:resource="http://creativecommons.org/licenses/by-sa/4.0/" />
      </cc:Work>
      <cc:License
         rdf:about="http://creativecommons.org/licenses/by-sa/4.0/">
        <cc:permits
           rdf:resource="http://creativecommons.org/ns#Reproduction" />
        <cc:permits
           rdf:resource="http://creativecommons.org/ns#Distribution" />
        <cc:requires
           rdf:resource="http://creativecommons.org/ns#Notice" />
        <cc:requires
           rdf:resource="http://creativecommons.org/ns#Attribution" />
        <cc:permits
           rdf:resource="http://creativecommons.org/ns#DerivativeWorks" />
        <cc:requires
           rdf:resource="http://creativecommons.org/ns#ShareAlike" />
      </cc:License>
    </rdf:RDF>
  </metadata>
  <g
     id="layer1"
     inkscape:groupmode="layer"
     inkscape:label="Lapis 1">
    <rect
       y="0"
       x="0"
       height="1080"
       width="1920"
       id="rect835"
       style="fill:url(#linearGradient843);fill-opacity:1" />
    <text
       id="text853"
       y="240"
       x="120"
       style="font-size:96px;line-height:1.25;font-family:Ubuntu;-inkscape-font-specification:Ubuntu;stroke-width:5;stroke-miterlimit:4;stroke-dasharray:none;fill-opacity:1;fill:url(#linearGradient861);stroke:url(#linearGradient873)"
       xml:space="preserve"><tspan
         style="font-style:italic;font-variant:normal;font-weight:500;font-stretch:normal;font-size:96px;font-family:Ubuntu;-inkscape-font-specification:'Ubuntu Medium Italic';stroke:url(#linearGradient873);stroke-opacity:1;stroke-width:5;stroke-miterlimit:4;stroke-dasharray:none;fill-opacity:1;fill:url(#linearGradient861)"
         y="240"
         x="120"
         id="tspan851"
         sodipodi:role="line">Draw amazing things with Inkscape!</tspan></text>
    <rect
       transform="rotate(18.772163)"
       y="254.36115"
       x="361.06128"
       height="320"
       width="320"
       id="rect895"
       style="fill:url(#radialGradient903);fill-opacity:1;stroke:#c52f58;stroke-width:5;stroke-miterlimit:4;stroke-dasharray:none;stroke-opacity:1" />
    <path
       d="M 1033.1367 520 A 120 120 0 0 1 920 600 A 120 120 0 0 1 900 598.32031 L 900 800 L 1220 800 L 1220 520 L 1033.1367 520 z "
       style="fill:#00ff01;fill-opacity:1;stroke:#c52f58;stroke-width:5;stroke-miterlimit:4;stroke-dasharray:none;stroke-opacity:1"
       id="rect911" />
    <circle
       r="130"
       cy="850"
       cx="870"
       id="path915"
       style="fill:#00ff01;fill-opacity:1;stroke:#c52f58;stroke-width:5;stroke-miterlimit:4;stroke-dasharray:none;stroke-opacity:1" />
    <path
       sodipodi:nodetypes="cccscscccscsccscsccscsc"
       id="path922"
       d="m 1410,-55 v 10 5 c 0,0 0,5 -5,5 -5,0 -5,-5 -5,-5 0,0 0,-5 5,-5 h 5 10 5 c 0,0 5,0 5,5 0,5 -5,5 -5,5 0,0 -5,0 -5,-5 v -15 -5 c 0,0 0,-5 5,-5 5,0 5,5 5,5 0,0 0,5 -5,5 h -15 -5 c 0,0 -5,0 -5,-5 0,-5 5,-5 5,-5 0,0 5,0 5,5 z"
       style="fill:none;stroke:#000000;stroke-width:1px;stroke-linecap:butt;stroke-linejoin:miter;stroke-opacity:1" />
    <text
       id="text926"
       y="-108.1092"
       x="560"
       style="font-size:15.3232px;line-height:1.25;font-family:Ubuntu;-inkscape-font-specification:Ubuntu;stroke-width:0.239425"
       xml:space="preserve"><tspan
         style="stroke-width:0.239425"
         y="-108.1092"
         x="560"
         id="tspan924"
         sodipodi:role="line">place of intrest sign</tspan><tspan
         id="tspan928"
         style="stroke-width:0.239425"
         y="-88.9552"
         x="560"
         sodipodi:role="line">https://en.wikipedia.org/wiki/Bowen_knot</tspan><tspan
         id="tspan930"
         style="stroke-width:0.239425"
         y="-69.801201"
         x="560"
         sodipodi:role="line"> https://en.wikipedia.org/wiki/Command_key </tspan><tspan
         id="tspan932"
         style="stroke-width:0.239425"
         y="-50.647198"
         x="560"
         sodipodi:role="line">https://en.wikipedia.org/wiki/Looped_square </tspan><tspan
         id="tspan934"
         style="stroke-width:0.239425"
         y="-31.493195"
         x="560"
         sodipodi:role="line">https://apple.stackexchange.com/questions/4074/what-do-i-type-to-produce-the-command-symbol-in-mac-os-x#4077</tspan></text>
    <path
       style="fill:none;stroke:#000000;stroke-width:2.43548px;stroke-linecap:butt;stroke-linejoin:miter;stroke-opacity:1"
       d="m 490.07258,-89.927419 v 24.354835 12.177418 c 0,0 0,12.177418 -12.17742,12.177418 -12.17741,0 -12.17741,-12.177418 -12.17741,-12.177418 0,0 0,-12.177418 12.17741,-12.177418 h 12.17742 24.35484 12.17741 c 0,0 12.17742,0 12.17742,12.177418 0,12.177418 -12.17742,12.177418 -12.17742,12.177418 0,0 -12.17741,0 -12.17741,-12.177418 v -36.532253 -12.177421 c 0,0 0,-12.17741 12.17741,-12.17741 12.17742,0 12.17742,12.17741 12.17742,12.17741 0,0 0,12.177421 -12.17742,12.177421 h -36.53225 -12.17742 c 0,0 -12.17741,0 -12.17741,-12.177421 0,-12.17741 12.17741,-12.17741 12.17741,-12.17741 0,0 12.17742,0 12.17742,12.17741 z"
       id="path936"
       sodipodi:nodetypes="cccscscccscsccscsccscsc" />
    <path
       inkscape:transform-center-y="-11.310618"
       inkscape:transform-center-x="-6.1803399"
       d="m 1620,480.00001 40.9908,113.06632 116.3797,30.33174 -94.8656,73.92402 7.1161,120.05667 L 1590,750 l -111.9817,43.86735 33.2964,-115.56639 -76.3245,-92.94515 120.1993,-4.04519 z"
       inkscape:randomized="0"
       inkscape:rounded="0"
       inkscape:flatsided="false"
       sodipodi:arg2="-0.83182057"
       sodipodi:arg1="-1.4601391"
       sodipodi:r2="90.553848"
       sodipodi:r1="181.1077"
       sodipodi:cy="660"
       sodipodi:cx="1600"
       sodipodi:sides="5"
       id="path938"
       style="fill:#ffff00;fill-opacity:1;stroke:#c52f58;stroke-width:5;stroke-miterlimit:4;stroke-dasharray:none;stroke-opacity:1"
       sodipodi:type="star" />
    <path
       d="m 320,940 c 5.01384,3.0083 -1.58147,8.24275 -4.99999,8.33334 -9.26397,0.24549 -13.4854,-10.64376 -11.66669,-18.33332 3.25326,-13.75484 19.25194,-19.27062 31.66666,-15.00003 18.2191,6.26725 25.18927,27.96314 18.33337,44.99998 -9.13783,22.70742 -36.70914,31.1625 -58.33331,21.66672 -27.21182,-11.94947 -37.1635,-45.47126 -25.00007,-71.66664 14.73155,-31.72612 54.24239,-43.1805 84.99998,-28.33342 36.24675,17.49677 49.20751,63.01911 31.66676,98.33331 -20.2515,40.77166 -71.79957,55.24126 -111.66664,35.00006 -45.2995,-22.9992 -61.27961,-80.58261 -38.33345,-124.99992 25.74212,-49.82952 89.36766,-67.32141 138.3333,-41.6668 54.36114,28.48148 73.36575,98.15411 45.00014,151.66663"
       sodipodi:t0="0"
       sodipodi:argument="-18.309137"
       sodipodi:radius="116.61904"
       sodipodi:revolution="3"
       sodipodi:expansion="1"
       sodipodi:cy="940"
       sodipodi:cx="320"
       id="path940"
       style="fill:none;fill-rule:evenodd;stroke:#00fb00;stroke-opacity:1;stroke-width:5;stroke-miterlimit:4;stroke-dasharray:none"
       sodipodi:type="spiral" />
    <text
       id="text944"
       y="945.62598"
       x="1121.0743"
       style="font-size:45.4768px;line-height:1.25;font-family:Ubuntu;-inkscape-font-specification:Ubuntu;stroke-width:0.710574"
       xml:space="preserve"><tspan
         style="stroke-width:0.710574"
         y="945.62598"
         x="1121.0743"
         id="tspan942"
         sodipodi:role="line">by JOELwindows7</tspan><tspan
         style="stroke-width:0.710574"
         id="tspan946"
         y="1002.472"
         x="1121.0743"
         sodipodi:role="line">Perkedel Technologies</tspan><tspan
         style="stroke-width:0.710574"
         id="tspan948"
         y="1059.318"
         x="1121.0743"
         sodipodi:role="line">CC4.0-BY-SA</tspan></text>
    <text
       id="text952"
       y="60"
       x="40"
       style="font-size:64px;line-height:1.25;font-family:Ubuntu;-inkscape-font-specification:Ubuntu"
       xml:space="preserve"><tspan
         y="60"
         x="40"
         id="tspan950"
         sodipodi:role="line">for tutorial</tspan></text>
    <path
       id="path954"
       d="m 30,-65 c 0,0 0,-15 10,-15 10,0 10,15 10,15 0,0 0,20 10,20 10,0 10,-20 10,-20 z"
       style="fill:none;stroke:#000000;stroke-width:1px;stroke-linecap:butt;stroke-linejoin:miter;stroke-opacity:1" />
    <path
       style="fill:none;stroke:#000000;stroke-width:5.37805px;stroke-linecap:butt;stroke-linejoin:miter;stroke-opacity:1"
       d="m 592.18903,369.75 c 0,0 0,-80.67073 53.78048,-80.67073 53.78049,0 53.78049,80.67073 53.78049,80.67073 0,0 0,107.56098 53.78049,107.56098 53.78048,0 53.78048,-107.56098 53.78048,-107.56098 z"
       id="path956" />
    <text
       id="text960"
       y="440"
       x="1340"
       style="font-size:64px;line-height:1.25;font-family:Ubuntu;-inkscape-font-specification:Ubuntu"
       xml:space="preserve"><tspan
         y="440"
         x="1340"
         id="tspan958"
         sodipodi:role="line">aaawww</tspan></text>
    <path
       id="path962"
       d="m 1472.4625,755.9519 c 0,0 -50,40 -80,20 -30,-20 60,-170 20,-200 -40,-30 -210,-40 -190,0 20,40 80,170 140,150 60,-20 -40,80 -70,80 -30,0 -10,130 50,100 60,-30 210,-50 170,-110 -40,-60 -50,20 -40,-40 z"
       style="fill:#ffff8b;stroke:#00bcff;stroke-width:10;stroke-linecap:butt;stroke-linejoin:miter;stroke-opacity:1;fill-opacity:1;stroke-miterlimit:4;stroke-dasharray:none" />
    <text
       id="text966"
       y="1190"
       x="970"
       style="font-size:64px;line-height:1.25;font-family:Ubuntu;-inkscape-font-specification:Ubuntu"
       xml:space="preserve"><tspan
         y="1190"
         x="970"
         id="tspan964"
         sodipodi:role="line">draw anything</tspan><tspan
         id="tspan968"
         y="1270"
         x="970"
         sodipodi:role="line">ctrl mid click to rotate viewport</tspan><tspan
         id="tspan970"
         y="1350"
         x="970"
         sodipodi:role="line">scroll to zoom</tspan><tspan
         id="tspan972"
         y="1430"
         x="970"
         sodipodi:role="line">and pls avoid expensive programe</tspan></text>
  </g>
</svg>
