<?xml version="1.0" encoding="UTF-8" standalone="no"?>
<svg
   xmlns:dc="http://purl.org/dc/elements/1.1/"
   xmlns:cc="http://creativecommons.org/ns#"
   xmlns:rdf="http://www.w3.org/1999/02/22-rdf-syntax-ns#"
   xmlns:svg="http://www.w3.org/2000/svg"
   xmlns="http://www.w3.org/2000/svg"
   xmlns:xlink="http://www.w3.org/1999/xlink"
   xmlns:sodipodi="http://sodipodi.sourceforge.net/DTD/sodipodi-0.dtd"
   xmlns:inkscape="http://www.inkscape.org/namespaces/inkscape"
   inkscape:export-ydpi="96"
   inkscape:export-xdpi="96"
   inkscape:export-filename="C:\Users\joelr\Documents\starring codes\After Church\RAW files\Inkscape\get-out-from-comfortZone-toExpand-NewComfortZone.png"
   sodipodi:docname="get-out-from-comfortZone-toExpand-NewComfortZone.svg"
   inkscape:version="1.0 (4035a4fb49, 2020-05-01)"
   id="svg8"
   version="1.1"
   viewBox="0 0 507.99999 285.75001"
   height="1080"
   width="1920">
  <defs
     id="defs2">
    <linearGradient
       id="linearGradient868"
       inkscape:collect="always">
      <stop
         id="stop864"
         offset="0"
         style="stop-color:#a39880;stop-opacity:1;" />
      <stop
         style="stop-color:#cbff80;stop-opacity:0.99607843"
         offset="0.25"
         id="stop876" />
      <stop
         style="stop-color:#f3ff80;stop-opacity:0.99607843"
         offset="0.5"
         id="stop872" />
      <stop
         id="stop874"
         offset="0.75"
         style="stop-color:#cbff80;stop-opacity:0.99607843" />
      <stop
         id="stop866"
         offset="1"
         style="stop-color:#a39880;stop-opacity:0.99628943" />
    </linearGradient>
    <linearGradient
       id="linearGradient852"
       inkscape:collect="always">
      <stop
         id="stop848"
         offset="0"
         style="stop-color:#ddff55;stop-opacity:1;" />
      <stop
         style="stop-color:#a39880;stop-opacity:1"
         offset="0.25"
         id="stop860" />
      <stop
         style="stop-color:#69ffab;stop-opacity:1"
         offset="0.5"
         id="stop856" />
      <stop
         id="stop858"
         offset="0.75"
         style="stop-color:#a3a280;stop-opacity:1" />
      <stop
         id="stop850"
         offset="1"
         style="stop-color:#ddff55;stop-opacity:1" />
    </linearGradient>
    <linearGradient
       gradientUnits="userSpaceOnUse"
       y2="285.75"
       x2="476.25"
       y1="0"
       x1="26.458334"
       id="linearGradient854"
       xlink:href="#linearGradient852"
       inkscape:collect="always" />
    <linearGradient
       gradientUnits="userSpaceOnUse"
       y2="227.54168"
       x2="508"
       y1="227.54168"
       x1="0"
       id="linearGradient870"
       xlink:href="#linearGradient868"
       inkscape:collect="always" />
  </defs>
  <sodipodi:namedview
     inkscape:snap-bbox-midpoints="true"
     inkscape:snap-bbox-edge-midpoints="true"
     inkscape:bbox-nodes="true"
     inkscape:bbox-paths="true"
     inkscape:snap-bbox="true"
     inkscape:window-maximized="1"
     inkscape:window-y="-9"
     inkscape:window-x="-9"
     inkscape:window-height="1051"
     inkscape:window-width="1920"
     units="px"
     showgrid="true"
     inkscape:document-rotation="0"
     inkscape:current-layer="layer1"
     inkscape:document-units="px"
     inkscape:cy="704.33881"
     inkscape:cx="1006.4132"
     inkscape:zoom="0.49497475"
     inkscape:pageshadow="2"
     inkscape:pageopacity="0.0"
     borderopacity="1.0"
     bordercolor="#666666"
     pagecolor="#ffffff"
     id="base">
    <inkscape:grid
       id="grid842"
       type="xygrid" />
    <inkscape:grid
       id="grid844"
       type="xygrid" />
  </sodipodi:namedview>
  <metadata
     id="metadata5">
    <rdf:RDF>
      <cc:Work
         rdf:about="">
        <dc:format>image/svg+xml</dc:format>
        <dc:type
           rdf:resource="http://purl.org/dc/dcmitype/StillImage" />
        <dc:title></dc:title>
        <cc:license
           rdf:resource="http://creativecommons.org/licenses/by-sa/4.0/" />
      </cc:Work>
      <cc:License
         rdf:about="http://creativecommons.org/licenses/by-sa/4.0/">
        <cc:permits
           rdf:resource="http://creativecommons.org/ns#Reproduction" />
        <cc:permits
           rdf:resource="http://creativecommons.org/ns#Distribution" />
        <cc:requires
           rdf:resource="http://creativecommons.org/ns#Notice" />
        <cc:requires
           rdf:resource="http://creativecommons.org/ns#Attribution" />
        <cc:permits
           rdf:resource="http://creativecommons.org/ns#DerivativeWorks" />
        <cc:requires
           rdf:resource="http://creativecommons.org/ns#ShareAlike" />
      </cc:License>
    </rdf:RDF>
  </metadata>
  <g
     id="layer1"
     inkscape:groupmode="layer"
     inkscape:label="Lapis 1">
    <rect
       y="0"
       x="0"
       height="285.75"
       width="508"
       id="rect846"
       style="fill:url(#linearGradient854);stroke:none;stroke-width:0.264583;stroke-linecap:round;stroke-linejoin:round;stroke-dashoffset:9.44882;fill-opacity:1" />
    <rect
       y="169.33334"
       x="0"
       height="116.41667"
       width="508"
       id="rect862"
       style="fill:url(#linearGradient870);fill-opacity:1;stroke:none;stroke-width:0.264583;stroke-linecap:round;stroke-linejoin:round;stroke-dashoffset:9.44882" />
    <ellipse
       ry="34.395836"
       rx="137.58334"
       cy="224.89584"
       cx="158.75"
       id="path878"
       style="fill:#80e5ff;fill-opacity:0.996078;stroke:#322edc;stroke-width:0.52916667;stroke-linecap:round;stroke-linejoin:round;stroke-dashoffset:9.44882;stroke-opacity:0.99607843;stroke-miterlimit:4;stroke-dasharray:none" />
    <ellipse
       ry="15.875"
       rx="37.041668"
       cy="227.54167"
       cx="433.91669"
       id="path880"
       style="fill:#80e5ff;fill-opacity:0.996078;stroke:#322edc;stroke-width:0.529167;stroke-linecap:round;stroke-linejoin:round;stroke-miterlimit:4;stroke-dasharray:none;stroke-dashoffset:9.44882;stroke-opacity:0.996078" />
    <path
       id="path882"
       d="m 260.77335,220.09811 c 0,0 14.53453,-42.15705 72.67212,-42.15705 58.13787,0 72.67241,42.15705 72.67241,42.15705 l -14.53454,-8.43144 h 21.80167 l -7.26713,8.43144 c 0,0 -14.53454,-42.15705 -72.67241,-42.15705 -58.13759,0 -72.67212,42.15705 -72.67212,42.15705 z"
       style="fill:#803cff;stroke:#5400d2;stroke-width:5.53501px;stroke-linecap:round;stroke-linejoin:round;stroke-opacity:1;fill-opacity:0.99607801" />
    <path
       id="path884"
       d="m 460.37501,209.02084 c -0.22381,-0.53989 -0.76689,-1.04309 -0.67141,-1.61968 0.23517,-1.41995 1.09427,-2.6629 1.60362,-4.00904 5.09979,-13.47804 -1.04833,1.92327 4.81084,-12.02713 1.00581,-2.39475 1.84875,-4.85923 2.93997,-7.21628 1.90143,-4.1071 4.64981,-8.85758 6.94902,-12.82894 0.88037,-1.52066 1.60358,-3.14911 2.67268,-4.54358 0.99656,-1.29985 2.36773,-2.26712 3.47451,-3.4745 1.83486,-2.00168 3.59429,-4.07184 5.34538,-6.1472 3.03437,-3.59627 0.5638,-1.32324 4.00905,-4.27632 0.81452,-0.69815 1.5472,-1.49448 2.40543,-2.13815 0.58351,-0.43764 0.70337,1.36251 0.85675,0.0725"
       style="fill:none;stroke:#0000ec;stroke-width:1.05833334;stroke-linecap:butt;stroke-linejoin:miter;stroke-opacity:1;stroke-miterlimit:4;stroke-dasharray:none" />
    <path
       id="path886"
       d="m 436.56251,198.4375 c 0.49742,-0.84297 1.27881,-1.57369 1.49225,-2.52893 0.38904,-1.74109 0.2227,-3.56193 0.26728,-5.34539 0.18098,-7.23958 -1.02854,-14.22166 -1.87089,-21.38157 -1.1689,-9.93576 0.019,-19.96822 -0.53454,-29.93418 -0.0694,-1.24851 -0.0617,-2.50835 -0.26728,-3.74178 -0.0926,-0.55578 -0.41646,-1.05267 -0.53454,-1.60361 -0.26199,-1.22268 0.004,-2.52112 -0.26726,-3.74178 -0.34549,-1.5547 -1.81493,-1.51454 -0.93085,-3.16026"
       style="fill:none;stroke:#0000fd;stroke-width:1.05833334;stroke-linecap:butt;stroke-linejoin:miter;stroke-opacity:1;stroke-miterlimit:4;stroke-dasharray:none" />
    <path
       id="path888"
       d="m 415.39584,193.14584 c -4.52972,-7.20335 -0.59565,-0.61796 -5.67163,-10.60075 -1.55345,-3.05509 -2.93383,-6.21949 -4.81087,-9.08716 -1.45417,-2.22167 -9.82776,-11.02107 -11.22532,-12.2944 -3.83852,-3.49732 -7.98451,-5.45329 -12.02713,-8.55263 -8.93522,-6.85033 0.97337,-0.4594 -6.1472,-4.81085 -1.74892,-1.06879 -2.73108,-1.91024 -4.81084,-2.40542 -2.91092,-0.69308 -6.89293,-0.56259 -9.62171,0.8018 -0.53594,0.26797 -1.60739,0.74075 -1.60361,0.80181 0.0251,0.40637 0.2372,0.77896 0.35581,1.16843"
       style="fill:none;stroke:#0000ff;stroke-width:1.05833334;stroke-linecap:butt;stroke-linejoin:miter;stroke-opacity:1;stroke-miterlimit:4;stroke-dasharray:none" />
    <path
       id="path924"
       d="m 436.56251,223.57292 c 0.27469,0.26662 0.49953,0.59684 0.82407,0.79985 0.19257,0.12046 0.44905,0.0739 0.66818,0.13364 0.79195,0.21598 1.92051,0.62202 2.67269,0.93544 0.62764,0.26152 1.1512,0.72433 1.73725,1.06908 0.79061,0.46506 1.62277,0.85805 2.40544,1.33635 3.64725,2.22887 -1.10006,-0.57817 2.27179,1.60362 2.15357,1.39348 0.26903,0.001 2.27179,1.20271 0.32859,0.19715 0.60555,0.47323 0.93544,0.66817 1.0564,0.62423 2.23578,1.18471 3.34086,1.73725 0.16428,0.0821 0.38174,0.0318 0.53457,0.13364 0.5421,0.36142 1.59742,1.46173 2.00451,2.00452 0.11951,0.15937 0.12641,0.39368 0.26725,0.53454 1.91368,1.91366 -0.63378,-1.36816 0.66818,0.80181 0.0725,0.12079 0.40092,0.2745 0.40092,0.13363 0,-0.13363 -0.30641,-0.0945 -0.40092,0 -0.0315,0.0315 0.0422,0.11955 0,0.13364 -0.16901,0.0563 -0.40854,-0.12599 -0.53454,0 -0.58488,0.58489 0.13528,0.3263 -0.80179,0.53454 -0.90604,0.20134 -1.31982,0.6599 -2.13818,1.06907 -1.96424,0.98213 -0.21121,-0.21738 -2.00451,0.93545 -1.04746,0.67337 -2.2116,1.40802 -3.20722,2.13816 -0.2032,0.14901 -0.32086,0.40098 -0.53454,0.53453 -0.15576,0.0973 -0.37507,0.0425 -0.53454,0.13364 -0.16409,0.0938 -0.23886,0.30367 -0.40092,0.4009 -0.0854,0.0513 -0.33769,0.0632 -0.26726,0.13364 0.10041,0.10041 1.31562,0 1.46997,0 0.84635,0 1.6962,0.0766 2.53908,0 0.94104,-0.0855 1.86526,-0.31536 2.80633,-0.40091 2.0914,-0.19012 4.18147,-0.13363 6.28084,-0.13363 1.42541,0 2.85623,-0.12349 4.2763,0 1.036,0.0901 2.03941,0.42567 3.07361,0.53454 0.5316,0.056 1.06907,0 1.60361,0 0.0445,0 -0.10215,0.0315 -0.13364,0 -0.0704,-0.0704 -0.0891,-0.17818 -0.13364,-0.26727 -0.13364,-0.26727 -0.31176,-0.5166 -0.4009,-0.80181 -0.13549,-0.43359 -0.16068,-0.89476 -0.26728,-1.33635 -0.20534,-0.85073 -0.47138,-1.6863 -0.66815,-2.53906 -0.38023,-1.64759 -0.53456,-3.24772 -0.53456,-4.94448 0,-0.94755 0.18732,-2.137 0,-3.07361 -0.24175,-1.20876 -0.0127,0.36299 -0.26726,-0.4009 -0.0282,-0.0845 0.063,-0.20427 0,-0.26727 -0.31631,-0.31629 -1.56856,0.57328 -1.73725,0.66817 -1.53834,0.86533 -3.09899,1.61632 -4.67723,2.40543 -1.37086,0.68544 -2.70081,1.26501 -3.8754,2.27179 -0.33481,0.28698 -0.54102,0.73824 -0.93544,0.93545 -0.16428,0.0821 -0.38761,0.0234 -0.53454,0.13363 -0.0713,0.0534 -0.0891,0.26441 0,0.26727 0.17421,0.006 0.30525,-0.16837 0.45786,-0.25256"
       style="fill:none;stroke:#0000ff;stroke-width:0.264583px;stroke-linecap:butt;stroke-linejoin:miter;stroke-opacity:1" />
    <path
       id="path928"
       d="m 435.23959,232.83334 c 1.52075,3.72022 1.47884,7.86284 1.47884,11.85192 0,1.27078 0.10962,2.61477 0,3.87541 -0.0933,1.07334 -0.22378,2.14449 -0.40092,3.20723 -0.30549,1.83301 -0.26948,0.29834 -0.4009,2.13816 -0.0538,0.75271 -0.0693,1.54577 -0.26728,2.27179 -0.33774,1.23838 -0.42685,0.92782 -0.53454,2.00452 -0.0265,0.26539 -0.0236,1.43867 -0.13361,1.60362 -0.0566,0.085 -1.45286,-0.0237 -1.73726,0 -2.16638,0.18053 -4.12948,0.882 -6.28084,1.06907 -1.43777,0.12503 -2.96336,0 -4.40994,0 -0.54758,0 -0.80441,0.0437 -1.33636,-0.13363 -0.22757,-0.0759 -0.49855,-0.43689 -0.66818,-0.26727 -0.063,0.063 -0.063,0.20427 0,0.26727 0.0704,0.0704 0.20111,0.0592 0.26729,0.13363 1.04642,1.17725 2.21424,2.60947 2.93997,4.00906 0.79782,1.53868 1.59644,3.08094 2.27179,4.67719 0.18119,0.42831 0.19291,0.92041 0.4009,1.33636 1.03938,1.03939 0.31691,0.0649 0.53453,0.93544 0.048,0.19185 1.04717,0.67738 1.20272,0.80182 0.26474,-0.0132 0.0632,0.19685 0.13364,0.26725 0.0945,0.0945 0.28136,-0.0597 0.4009,0 0.22656,0.1133 0.32906,0.43686 0.66818,0.26728 0.0891,-0.0445 0.0559,-0.20505 0.13361,-0.26728 0.17394,-0.13912 0.33901,-0.29424 0.53454,-0.4009 3.62289,-1.97612 7.43265,-3.61105 10.82442,-6.01355 2.35831,-1.67047 0.13936,-0.13899 2.13815,-2.00453 0.57994,-0.54126 1.3911,-0.9648 2.00454,-1.46998 1.06219,-0.19267 1.19335,-1.30628 1.87089,-1.87088 0.0684,-0.057 0.18757,0.0398 0.26726,0 0.12179,-0.0609 -0.69945,-0.25704 -0.80179,-0.26728 -2.00052,-0.20004 -0.10753,0.30847 -2.53908,-0.13363 -0.49969,-0.0908 -0.97195,-0.3013 -1.46997,-0.4009 -0.61775,-0.12355 -1.25317,-0.14373 -1.8709,-0.26727 -0.27625,-0.0553 -0.52361,-0.22276 -0.80182,-0.26727 -0.84034,-0.13446 -1.68957,-0.21579 -2.53904,-0.26727 -0.9357,-0.0567 -2.11688,0.10555 -3.07362,-0.13364 -0.15581,-0.0389 -0.25177,-0.20762 -0.40089,-0.26727 -0.107,-0.0428 -0.55227,0 -0.66818,0 -0.0891,0 -0.18275,0.0282 -0.26726,0 -0.0598,-0.0199 -0.0988,-0.18609 -0.13364,-0.13363 -0.0569,0.0855 0.0119,0.205 0.018,0.30749"
       style="fill:none;stroke:#0000ff;stroke-width:0.264583px;stroke-linecap:butt;stroke-linejoin:miter;stroke-opacity:1" />
    <path
       id="path930"
       d="m 412.75001,232.83334 c -1.94482,1.73887 -4.10546,3.20988 -6.36669,4.50201 -1.06059,0.60605 -2.22465,1.28051 -3.20723,2.00452 -0.43183,0.31818 -0.75092,0.77993 -1.20272,1.06908 -0.67114,0.42954 -1.45822,0.65356 -2.13815,1.06908 -0.13705,0.0837 -0.14184,0.30057 -0.26725,0.4009 -0.11002,0.088 -0.28509,0.0534 -0.40093,0.13363 -4.63534,3.20909 1.1429,-0.53919 -2.27179,1.73725 -0.34965,0.23311 -0.69906,0.46894 -1.06907,0.66818 -0.29869,0.16084 -0.69557,0.16102 -0.93544,0.4009 -0.11356,0.11357 -0.14187,0.30058 -0.26728,0.40091 -0.21998,0.17599 -0.57642,0.0982 -0.80179,0.26727 -0.0797,0.0598 -0.0632,0.19684 -0.13365,0.26727 -0.14552,0.14552 -0.86857,0.20882 -1.06907,0.13363 -2.26039,-0.84764 -4.24945,-2.49169 -6.28084,-3.74177 -0.47535,-0.29252 -0.99541,-0.50803 -1.46997,-0.80181 -1.94786,-1.20581 -0.66217,-0.66517 -2.53908,-1.60362 -0.0596,-0.0298 -1.01885,-0.26727 -0.66817,-0.26727 1.08003,0 1.45875,0.88447 2.00453,1.73725 0.83278,1.30121 1.6518,2.72554 2.27179,4.14268 0.87167,1.99243 1.37052,4.11843 2.13815,6.1472 0.37471,0.9903 0.85032,1.94151 1.20272,2.93997 0.18338,0.51957 0.2199,1.08321 0.4009,1.60361 0.17682,0.50837 0.49136,0.96162 0.66818,1.46999 1.15448,3.31913 -0.26964,-0.0524 0.66818,3.0736 0.0493,0.16454 1.06907,2.22511 1.06907,2.27179 0,0.0445 -0.13364,-0.0446 -0.13364,0 0,0.0445 0.13364,0.0445 0.13364,0 0,-0.063 -0.0891,-0.0891 -0.13364,-0.13364 0,-0.31181 -0.0653,-0.63055 0,-0.93544 0.20802,-0.9707 0.8146,-1.40568 1.46997,-2.13816 1.82105,-2.03527 3.8353,-3.73469 6.14723,-5.21175 0.63812,-0.40771 1.36234,-0.66773 2.00451,-1.06908 0.43068,-0.26918 0.77549,-0.6608 1.20271,-0.93544 0.25136,-0.16159 1.01309,-0.18961 0.8018,-0.40091 -0.0668,-0.0668 -0.33407,0.0668 -0.4009,0 -0.0704,-0.0704 -0.0421,-0.22803 -0.13364,-0.26727 -0.45776,-0.19618 -1.01026,-0.0757 -1.46997,-0.26727 -0.62162,-0.259 -1.73437,-1.02213 -2.2718,-1.46998 -0.89386,-0.7449 -1.46092,-1.72819 -2.27179,-2.53906 -0.31498,-0.31498 -0.82992,-0.426 -1.06907,-0.80181 -0.31737,-0.49871 -1.10564,-2.82096 -1.73726,-3.0736 -0.29244,-0.11698 -0.71271,-0.35636 -0.93543,-0.13363 -0.18368,0.18367 0.25527,1.78692 0.26725,1.87088 0.0695,0.48644 -0.35314,1.25049 -0.26725,1.33635 0.063,0.063 0.32377,0.0689 0.26725,0 -0.19066,-0.23246 -0.43209,-0.41818 -0.64812,-0.62727"
       style="fill:none;stroke:#0000ff;stroke-width:0.264583px;stroke-linecap:butt;stroke-linejoin:miter;stroke-opacity:1" />
    <path
       id="path932"
       d="m 460.37501,220.92709 c 1.01619,0.95082 0.27093,0.48856 2.66946,-0.83063 2.68232,-1.47527 5.27947,-3.17428 8.01809,-4.54358 1.14991,-0.57496 2.34728,-0.98878 3.47449,-1.60362 0.75387,-0.4112 1.48341,-0.75372 2.27179,-1.06908 0.0585,-0.0234 0.13364,-0.0706 0.13364,-0.13363 0,-0.0445 -0.0904,0.0108 -0.13364,0 -0.13666,-0.0342 -0.28369,-0.0555 -0.4009,-0.13364 -0.42259,-0.28172 -0.79383,-0.63416 -1.20271,-0.93544 -0.43773,-0.32255 -0.93552,-0.56802 -1.33634,-0.93544 -0.67376,-0.6176 -1.23528,-1.34773 -1.87089,-2.00452 -0.70094,-0.72431 -1.47442,-1.37961 -2.13815,-2.13816 -0.89792,-1.02617 -1.7108,-2.1241 -2.53908,-3.20723 -1.07772,-1.40934 -0.37676,-1.33635 -1.20271,-1.33635 -0.0891,0 0.17819,0 0.26728,0 1.17602,0 0.42709,-0.0398 2.13815,0.26727 3.93121,0.7056 7.83818,1.51762 11.75986,2.27179 0.62116,0.11945 1.26912,0.0133 1.87089,0.13363 2.46473,0.49295 -0.47977,0.0377 1.33636,0.40091 0.28429,0.0569 0.15912,0.44466 0.13361,0.80181 -0.0733,1.02578 -0.081,2.06221 -0.26725,3.0736 -0.75986,4.12496 -1.87103,8.23237 -2.93997,12.2944 -0.55589,2.11242 -0.96171,4.32824 -1.60362,6.41446 -0.0705,0.22928 -0.19671,-0.4389 -0.26728,-0.66817 -0.11192,-0.36376 -0.26725,-0.71272 -0.40089,-1.06908 -0.0891,-0.44545 -0.15166,-0.89703 -0.26726,-1.33635 -0.29689,-1.12808 -0.75803,-2.22108 -1.0691,-3.34086 -0.59428,-2.13947 0.14745,-0.56323 -0.80179,-2.6727 -0.32055,-0.71229 -1.07265,-1.8273 -1.20272,-2.6727 -0.0948,-0.61637 0.11155,-1.25731 0,-1.87088 -0.0429,-0.23602 -0.22021,-0.43295 -0.26728,-0.66818 -0.0437,-0.2184 0,-0.44545 0,-0.66817 0,-0.0445 -0.0378,-0.15719 0,-0.13364 0.1534,0.0956 0.26003,0.25112 0.39005,0.37668"
       style="fill:none;stroke:#0000ff;stroke-width:0.264583px;stroke-linecap:butt;stroke-linejoin:miter;stroke-opacity:1" />
    <path
       id="path934"
       d="m 436.56251,215.63542 c 0.36378,-1.14114 0.49231,-2.38626 1.09135,-3.42341 1.03376,-1.78981 2.53776,-3.26447 3.74177,-4.94449 0.71252,-0.9942 1.37118,-2.02718 2.00453,-3.07359 1.19359,-1.97202 0.87924,-2.03979 2.2718,-3.87541 2.13516,-2.81456 1.29341,-0.98321 2.53904,-3.47451 0.19622,-0.3924 0.36174,-0.79947 0.53454,-1.20271 0.0945,-0.22049 0.26728,-0.42829 0.26728,-0.66818 0,-0.0228 -0.62365,0.0339 -1.33635,0 -0.58013,-0.0276 -1.16094,-0.0616 -1.73726,-0.13363 -3.05649,-0.38206 0.0613,-0.0947 -2.80633,-0.66817 -0.66098,-0.1322 -1.34487,-0.1284 -2.00451,-0.26727 -0.19494,-0.041 -0.34554,-0.20428 -0.53453,-0.26727 -0.23017,-0.0767 -0.98407,0.14579 -0.40093,0 2.74651,-0.68663 5.67264,-1.57219 8.15174,-2.93997 0.61669,-0.34024 1.13839,-0.83199 1.73725,-1.20271 2.38956,-1.47926 -0.24019,0.34521 2.13815,-0.93544 0.24302,-0.13086 2.588,-2.08923 2.80633,-1.87089 0.93808,0.93807 0.51506,5.08751 0.66818,6.41447 0.74821,3.99056 0.14912,0.34754 0.53454,4.00904 0.0238,0.22589 0.17817,0.44545 0.13364,0.66817 -0.0437,0.2184 -0.44545,0 -0.66818,0 -1.00814,0 -2.3178,-0.26771 -3.20723,-0.53453 -0.24879,-0.0746 -0.42701,-0.30444 -0.66818,-0.40091 -0.60256,-0.24102 -1.25645,-0.2712 -1.87089,-0.53454 -0.0915,-0.0392 -0.17817,-0.0891 -0.26726,-0.13363 -0.13364,0 -0.27413,0.0423 -0.40092,0 -0.0423,-0.0141 0.0315,-0.10214 0,-0.13364 -0.0315,-0.0315 -0.17817,0 -0.13361,0 0.68987,0 1.52937,0.8296 0.64521,-0.25053"
       style="fill:none;stroke:#0000ff;stroke-width:0.264583px;stroke-linecap:butt;stroke-linejoin:miter;stroke-opacity:1" />
    <path
       id="path936"
       d="m 428.62501,216.95834 c -1.78295,-0.75276 -3.33473,-1.28299 -4.86915,-2.60817 -2.25391,-1.94655 -4.03535,-4.56989 -6.1472,-6.68174 -1.00253,-1.00251 -2.07111,-1.93746 -3.07361,-2.93997 -0.15492,-0.1549 -0.74941,-0.55023 -0.80182,-0.66817 -0.29319,-0.65969 -0.42572,-1.97653 -1.06908,-2.40543 -0.3892,-0.25947 -2.88324,0.26727 -3.74176,0.26727 -0.92943,0 -1.76856,0.13364 -2.67269,0.13364 -0.22273,0 -0.56856,-0.19921 -0.66818,0 -0.0398,0.0797 0.063,0.20427 0,0.26727 -0.0907,0.0907 -0.96435,0.23835 -1.06907,0.13363 -0.0996,-0.0996 0.0813,-0.27011 0.13364,-0.4009 0.14134,-0.35337 0.26725,-0.71272 0.40089,-1.06908 0.31182,-0.53454 0.67612,-1.04174 0.93544,-1.60362 0.57899,-1.25444 0.93165,-2.60299 1.47,-3.8754 0.59542,-1.4074 1.38186,-2.68556 2.13815,-4.00905 0.005,-0.008 0.69961,-1.30228 0.80179,-1.33635 0.62974,-0.20991 1.33033,2.4541 1.60361,2.93997 0.6654,1.18293 1.56449,2.40125 2.67272,3.20723 0.66786,0.48573 1.8886,1.12251 2.67269,1.33635 0.35515,0.0969 1.04338,-0.0257 1.33636,0.26727 0.0315,0.0315 -0.0315,0.10214 0,0.13364 0.063,0.063 0.23108,-0.0814 0.26725,0 0.28607,0.64361 0.35319,1.37456 0.66818,2.00452 0.0996,0.19921 0.30131,0.33532 0.4009,0.53454 0.12599,0.25198 0.0153,0.67581 0.26728,0.8018 0.11951,0.0598 0.30641,-0.0945 0.4009,0 0.12988,0.12987 0.0235,0.38761 0.13364,0.53454 0.2432,0.32427 1.49764,0.74647 1.33633,1.06908 -0.0598,0.11953 -0.26726,0 -0.4009,0 -0.62362,0 -1.24725,0 -1.87089,0 -1.82634,0 -3.65268,0 -5.47902,0 -0.65085,0 -1.50437,0.15845 -2.13815,0 -0.42059,-0.10515 -0.65001,-0.23292 -0.83617,-0.58495"
       style="fill:none;stroke:#0000ff;stroke-width:0.264583px;stroke-linecap:butt;stroke-linejoin:miter;stroke-opacity:1" />
    <text
       id="text940"
       y="42.333336"
       x="264.58334"
       style="font-size:25.4px;line-height:1.25;font-family:Ubuntu;-inkscape-font-specification:Ubuntu;text-align:center;letter-spacing:0px;word-spacing:0px;text-anchor:middle;stroke-width:0.264583;stroke:#0000ff;stroke-opacity:1;"
       xml:space="preserve"><tspan
         style="stroke-width:0.264583;stroke:#0000ff;stroke-opacity:1;"
         y="42.333336"
         x="264.58334"
         id="tspan938"
         sodipodi:role="line">Get out from Comfort zone</tspan></text>
    <text
       id="text944"
       y="275.16669"
       x="259.29169"
       style="font-size:25.4px;line-height:1.25;font-family:Ubuntu;-inkscape-font-specification:Ubuntu;text-align:center;letter-spacing:0px;word-spacing:0px;text-anchor:middle;stroke-width:0.264583;stroke:#0000ff;stroke-opacity:1;"
       xml:space="preserve"><tspan
         style="stroke-width:0.264583;stroke:#0000ff;stroke-opacity:1;"
         y="275.16669"
         x="259.29169"
         id="tspan942"
         sodipodi:role="line">to expand new Comfort zone</tspan></text>
    <text
       id="text948"
       y="126.27955"
       x="473.48721"
       style="font-size:5.63472px;line-height:1.25;font-family:Ubuntu;-inkscape-font-specification:Ubuntu;text-align:center;letter-spacing:0px;word-spacing:0px;text-anchor:middle;stroke-width:0.0586947"
       xml:space="preserve"><tspan
         style="stroke-width:0.0586947"
         y="126.27955"
         x="473.48721"
         id="tspan946"
         sodipodi:role="line">by JOELwindows7</tspan><tspan
         id="tspan950"
         style="stroke-width:0.0586947"
         y="133.32295"
         x="473.48721"
         sodipodi:role="line">Perkedel Technologies</tspan><tspan
         id="tspan952"
         style="stroke-width:0.0586947"
         y="140.36635"
         x="473.48721"
         sodipodi:role="line">CC4.0-BY-SA</tspan></text>
    <text
       id="text956"
       y="232.83334"
       x="153.45834"
       style="font-size:25.4px;line-height:1.25;font-family:Ubuntu;-inkscape-font-specification:Ubuntu;text-align:center;letter-spacing:0px;word-spacing:0px;text-anchor:middle;stroke-width:0.264583;fill:#003b79;fill-opacity:1;stroke:#ff00ff;stroke-opacity:1;"
       xml:space="preserve"><tspan
         style="stroke-width:0.264583;fill:#003b79;fill-opacity:1;stroke:#ff00ff;stroke-opacity:1;"
         y="232.83334"
         x="153.45834"
         id="tspan954"
         sodipodi:role="line">Comfort inc.</tspan></text>
    <text
       id="text960"
       y="224.40848"
       x="435.21033"
       style="font-size:7.72407px;line-height:1.25;font-family:Ubuntu;-inkscape-font-specification:Ubuntu;text-align:center;letter-spacing:0px;word-spacing:0px;text-anchor:middle;stroke-width:0.0804589;fill:#4c00b2;fill-opacity:1;stroke:#1ada13;stroke-opacity:1;"
       xml:space="preserve"><tspan
         style="stroke-width:0.0804589;fill:#4c00b2;fill-opacity:1;stroke:#1ada13;stroke-opacity:1;"
         y="224.40848"
         x="435.21033"
         id="tspan958"
         sodipodi:role="line">Comfort</tspan><tspan
         id="tspan962"
         style="stroke-width:0.0804589;fill:#4c00b2;fill-opacity:1;stroke:#1ada13;stroke-opacity:1;"
         y="234.06357"
         x="435.21033"
         sodipodi:role="line">Mars Branch</tspan></text>
  </g>
</svg>
