<?xml version="1.0" encoding="UTF-8" standalone="no"?>
<svg
   xmlns:dc="http://purl.org/dc/elements/1.1/"
   xmlns:cc="http://creativecommons.org/ns#"
   xmlns:rdf="http://www.w3.org/1999/02/22-rdf-syntax-ns#"
   xmlns:svg="http://www.w3.org/2000/svg"
   xmlns="http://www.w3.org/2000/svg"
   xmlns:sodipodi="http://sodipodi.sourceforge.net/DTD/sodipodi-0.dtd"
   xmlns:inkscape="http://www.inkscape.org/namespaces/inkscape"
   width="1920"
   height="1080"
   viewBox="0 0 1920 1080"
   version="1.1"
   id="svg8"
   inkscape:version="1.0.2 (394de47547, 2021-03-26)"
   sodipodi:docname="GNU-gpl-let-dollar-thumb.svg"
   inkscape:export-filename="/media/joelwindows7/OS/Users/joelr/Documents/starring codes/After Church/RAW files/Inkscape/GNU-gpl-let-dollar-thumb.png"
   inkscape:export-xdpi="96"
   inkscape:export-ydpi="96">
  <defs
     id="defs2" />
  <sodipodi:namedview
     id="base"
     pagecolor="#ffffff"
     bordercolor="#666666"
     borderopacity="1.0"
     inkscape:pageopacity="0.0"
     inkscape:pageshadow="2"
     inkscape:zoom="0.49497475"
     inkscape:cx="887.34553"
     inkscape:cy="425.266"
     inkscape:document-units="px"
     inkscape:current-layer="layer1"
     inkscape:document-rotation="0"
     showgrid="false"
     units="px"
     inkscape:window-width="1920"
     inkscape:window-height="1016"
     inkscape:window-x="0"
     inkscape:window-y="27"
     inkscape:window-maximized="1" />
  <metadata
     id="metadata5">
    <rdf:RDF>
      <cc:Work
         rdf:about="">
        <dc:format>image/svg+xml</dc:format>
        <dc:type
           rdf:resource="http://purl.org/dc/dcmitype/StillImage" />
        <dc:title></dc:title>
        <cc:license
           rdf:resource="http://creativecommons.org/licenses/by-sa/4.0/" />
      </cc:Work>
      <cc:License
         rdf:about="http://creativecommons.org/licenses/by-sa/4.0/">
        <cc:permits
           rdf:resource="http://creativecommons.org/ns#Reproduction" />
        <cc:permits
           rdf:resource="http://creativecommons.org/ns#Distribution" />
        <cc:requires
           rdf:resource="http://creativecommons.org/ns#Notice" />
        <cc:requires
           rdf:resource="http://creativecommons.org/ns#Attribution" />
        <cc:permits
           rdf:resource="http://creativecommons.org/ns#DerivativeWorks" />
        <cc:requires
           rdf:resource="http://creativecommons.org/ns#ShareAlike" />
      </cc:License>
    </rdf:RDF>
  </metadata>
  <g
     inkscape:label="Lapis 1"
     inkscape:groupmode="layer"
     id="layer1">
    <path
       style="fill:none;stroke:#ff0000;stroke-width:10;stroke-linecap:round;stroke-linejoin:round;stroke-opacity:1;stroke-miterlimit:4;stroke-dasharray:none"
       d="m 395.14154,136.01244 c -30.24368,-4.83067 -59.16683,-5.37108 -89.53981,-1.21928 -0.97873,0.13378 -48.41613,5.91657 -53.0319,6.94603 -6.74491,1.50431 -13.03016,4.6746 -19.7317,6.3616 -15.24446,3.83754 -30.59633,4.68374 -41.18724,16.49131 -6.61244,7.37207 -7.22676,21.12841 -8.77028,29.96067 -0.98801,5.65357 -4.77742,10.5958 -5.62954,16.27144 -1.43059,9.5285 -1.78807,32.92016 0,42.90547 1.6202,9.04786 5.88916,17.87545 7.74498,26.87428 1.39256,6.75248 3.18619,25.10018 6.02766,32.39203 1.28881,3.30739 4.44694,5.64282 5.82699,8.91319 10.65483,25.24924 -3.34772,0.74237 6.02201,20.31206 5.91339,12.35074 12.70661,25.28076 19.35814,37.24542 5.29059,9.51665 13.71993,15.05334 20.2401,23.2456 7.33799,9.2198 26.89345,32.40363 38.36514,35.36939 1.50292,0.38855 3.19865,-0.53197 4.65698,0 1.18577,0.43256 1.78602,1.78405 2.67902,2.67607 1.53704,0.67343 2.99533,1.56725 4.61111,2.0203 3.28729,0.92174 7.32175,-0.66602 10.6754,0 5.27722,1.04805 10.93933,3.45708 16.57658,2.04978 45.2697,-11.30125 73.7923,-60.96755 98.91887,-95.37408 4.14933,-5.68181 8.8808,-10.91472 13.3212,-16.37207 5.08186,-7.08204 10.16577,-14.16261 15.24557,-21.24613 2.15075,-2.99911 23.45781,-36.37767 22.93159,-36.9641 -2.59022,-2.88655 -22.345,0 -25.41819,0 -21.82559,0 14.82078,0.54046 -17.97392,-2.79481 -19.79014,-2.01269 -40.61584,0 -60.57833,0"
       id="path842" />
    <path
       style="fill:none;stroke:#ff0000;stroke-width:10;stroke-linecap:round;stroke-linejoin:round;stroke-opacity:1;stroke-miterlimit:4;stroke-dasharray:none"
       d="m 579.47755,426.8331 c 4.14392,-75.14375 18.79065,-149.10404 26.36199,-223.97956 3.26522,-32.29077 4.818,-64.73673 7.91562,-97.04401 3.40216,-35.483492 7.4973,-70.897251 11.36089,-106.33347265 0.6333,-5.80855145 1.86964,-11.53654735 2.66595,-17.32500435 0.0933,-0.678268 -0.27645,-2.68033 0,-2.053968 25.8695,58.613419 37.24798,123.119775 50.13955,185.566765 16.60702,80.44469 6.33609,30.37261 24.10654,104.30941 10.37493,43.16657 6.21802,40.94536 19.67806,70.18722 10.33517,22.4531 20.65306,45.63194 27.85269,68.75844 1.12135,3.60199 7.83915,28.33063 11.10563,26.28222 2.08368,-1.30667 -0.38884,-4.94992 0,-7.37848 2.05215,-12.81704 4.25305,-25.62462 7.11793,-38.2848 4.53724,-20.05052 11.02366,-39.64714 15.07793,-59.80086 14.65801,-35.72727 8.6978,-74.34834 15.3925,-111.14687 11.11441,-61.09227 15.22456,-64.47712 30.76267,-118.89509 8.61854,-30.18408 12.94311,-62.259692 23.11229,-91.8158625"
       id="path844" />
    <path
       style="fill:none;stroke:#ff0000;stroke-width:10;stroke-linecap:round;stroke-linejoin:round;stroke-opacity:1;stroke-miterlimit:4;stroke-dasharray:none"
       d="m 908.64455,49.102267 c -4.57349,55.122323 -1.26479,10.145186 -1.26479,135.290093 0,65.66221 -2.90588,51.63721 6.54367,109.39692 4.5552,27.84336 12.21395,51.55267 22.93165,77.29393 0.93841,2.25384 0.45833,5.18376 2.05619,7.02964 0.87894,1.01538 2.72505,-0.32181 4.02889,0 12.75556,3.14825 9.73644,2.25506 25.41017,-6.23478 7.33447,-3.9728 42.56617,-23.9704 49.45657,-30.08793 17.8858,-15.87967 33.1223,-43.56101 46.3574,-62.40608 3.2128,-4.57466 7.4035,-8.50365 10.0398,-13.4331 4.6728,-8.73726 16.1412,-34.11915 19.7985,-46.97222 0.5837,-2.05147 -0.3907,-4.3019 0,-6.39872 1.5849,-8.50663 5.4968,-17.3023 7.3227,-25.8986 1.1845,-5.57653 3.0826,-18.64535 4.911,-24.54885 2.7486,-8.87504 6.3588,-17.46696 9.1325,-26.33419 1.154,-3.68899 13.2383,-52.059976 14.5119,-53.333519"
       id="path846" />
    <path
       style="fill:none;stroke:#ff0000;stroke-width:10;stroke-linecap:round;stroke-linejoin:round;stroke-opacity:1;stroke-miterlimit:4;stroke-dasharray:none"
       d="m 1517.8009,109.40352 c -10.1319,-0.4494 -32.223,-6.49973 -42.7157,-2.79981 -4.3182,1.5227 -7.3704,5.50715 -11.4443,7.59748 -13.6807,7.01957 -28.7139,11.13796 -42.4628,18.02299 -36.2323,18.14406 -69.7436,48.44872 -75.8627,88.75847 -1.3909,9.16299 -1.8153,36.64706 2.0944,45.79806 0.4414,1.03304 2.2576,1.03048 2.649,2.0835 0.5857,1.57625 -0.3119,3.39231 0,5.04472 2.4827,13.15633 1.5049,0.55091 5.0206,12.27362 4.3429,14.4804 9.1727,29.35676 18.5464,41.80888 7.9839,10.60582 18.3293,22.04827 27.9805,31.29068 1.6453,4.58937 6.9316,4.08633 9.8561,6.80373 7.9343,7.37233 3.2348,5.86556 15.2456,11.07592 14.4679,6.27626 59.317,-10.55412 68.6818,-15.79202 2.5749,-1.4402 3.698,-4.69462 6.0875,-6.42505 4.9473,-3.58265 11.0584,-5.45974 15.7409,-9.38226 5.5564,-4.65465 8.8199,-11.53744 13.7919,-16.81179 7.8046,-8.27921 13.0529,-20.48373 15.7691,-31.40419 0.8234,-3.31069 4.9953,-28.6221 2.6754,-31.07384 -1.2085,-1.27721 -6.3913,1.25764 -7.6262,0 -0.4805,-0.4894 0.6124,-1.74864 0,-2.05761 -7.8023,-3.93676 -68.9376,5.50684 -68.9376,9.37616"
       id="path848" />
    <path
       style="fill:none;stroke:#ff0000;stroke-width:10;stroke-linecap:round;stroke-linejoin:round;stroke-opacity:1;stroke-miterlimit:4;stroke-dasharray:none"
       d="m 1636.7452,120.67593 c -3.0044,16.11433 -5.7928,32.27044 -9.0132,48.34299 -4.6683,23.29809 -9.7677,46.50771 -14.6516,69.76156 -5.134,30.27486 -9.4901,60.69196 -15.402,90.82458 -4.3194,22.01633 -11.449,43.44438 -15.2781,65.55128 -2.5369,14.64604 -2.9429,29.59155 -3.7721,44.43253 -0.4292,7.68147 0,15.3869 0,23.08036 0,2.79822 0,5.59644 0,8.39467 0,0.67343 0,2.69374 0,2.0203 0,-5.48863 0,-10.97727 0,-16.4659"
       id="path850" />
    <path
       style="fill:none;stroke:#ff0000;stroke-width:10;stroke-linecap:round;stroke-linejoin:round;stroke-opacity:1;stroke-miterlimit:4;stroke-dasharray:none"
       d="m 1600.3655,189.16968 c 2.7103,-1.32848 26.8605,-15.16156 37.7625,-16.83935 14.8215,-2.281 29.9151,0.61021 42.5042,8.64 3.8626,2.46378 7.8805,5.01887 10.693,8.63556 15.6506,20.12584 0.6977,72.43123 -15.3455,89.25367 -9.8101,10.28663 -26.6903,17.23333 -40.5632,17.23333 -1.4812,0 -10.8878,1.22626 -12.1218,0 -2.0909,-2.0777 -12.2854,-13.50511 -12.2854,-14.25447"
       id="path852" />
    <path
       style="fill:none;stroke:#ff0000;stroke-width:10;stroke-linecap:round;stroke-linejoin:round;stroke-opacity:1;stroke-miterlimit:4;stroke-dasharray:none"
       d="m 1732.9063,169.07237 c 0.3763,78.77376 3.4352,157.16883 -10.0155,235.06584 -0.8999,5.21148 -14.4073,77.517 -9.8455,82.07884 2.2443,2.24423 10.186,-1.62678 11.9357,-2.05853 2.0331,-0.50169 10.7127,-0.5746 12.1584,-2.02031 0.4762,-0.47619 -0.5227,-1.59575 0,-2.0203 1.2256,-0.99534 35.7087,-1.98257 36.1321,-1.98257"
       id="path854" />
    <path
       style="fill:none;stroke:#ff0000;stroke-width:10;stroke-linecap:round;stroke-linejoin:round;stroke-opacity:1;stroke-miterlimit:4;stroke-dasharray:none"
       d="m 457.22134,629.15758 c -31.15692,-11.34005 -63.18831,-15.07029 -96.03027,-15.07029 -12.47748,0 -25.13437,-2.10833 -37.43243,0 -3.27451,0.56137 -28.88987,11.00794 -30.25957,11.53685 -17.00289,6.56576 -37.24994,12.63103 -53.54505,20.53858 -7.3791,3.58086 -28.00303,30.03958 -15.33319,36.37536 20.32414,10.16344 43.17339,15.67694 65.99316,20.9905 5.60716,1.30562 10.69267,4.54682 16.36837,5.51182 3.01583,0.51276 6.19984,-0.70195 9.17732,0 7.87489,1.85652 15.11839,6.01316 23.05237,7.59822 9.86861,1.97156 20.18775,0.95974 30.04057,3.00875 5.86027,1.21872 10.9442,4.9228 16.65901,6.70299 3.89092,1.21204 66.2541,12.08233 68.04713,13.71721 9.48607,8.64944 -6.13114,34.29594 -11.3715,41.1356 -10.28845,13.42839 -11.54298,8.34352 -26.56206,19.97949 -18.0284,13.96743 -34.60735,29.07301 -52.8478,42.79042 -19.29004,14.50674 -34.7308,22.90139 -58.07169,30.75971 -20.10788,6.76984 -51.59337,4.67654 -73.39063,3.21 -10.6389,-0.7158 -20.60384,-4.66074 -31.38008,-4.66074"
       id="path856" />
    <path
       style="fill:none;stroke:#ff0000;stroke-width:10;stroke-linecap:round;stroke-linejoin:round;stroke-opacity:1;stroke-miterlimit:4;stroke-dasharray:none"
       d="m 371.93374,548.34106 c -13.09631,24.66907 -10.50853,16.73003 -14.24683,63.33553 -1.30272,16.24111 0,32.58654 0,48.87982 0,49.56053 -2.36239,99.83073 0,149.31749 4.17382,87.43203 3.20137,-26.96715 3.20137,54.53997 0,16.37986 1.44241,30.50794 4.81376,45.97945 2.93868,13.48594 0,44.13091 0,59.5461 0,0.62292 0.25703,-1.30134 0,-1.86875 -2.19746,-4.8511 -2.60818,-6.87569 -2.60818,-12.55958"
       id="path858" />
    <path
       style="fill:none;stroke:#ff0000;stroke-width:10;stroke-linecap:round;stroke-linejoin:round;stroke-opacity:1;stroke-miterlimit:4;stroke-dasharray:none"
       d="m 850.94007,576.85333 c -2.62604,2.78055 -4.54167,6.47199 -7.87813,8.34165 -5.88969,3.30043 -12.63151,1.49356 -18.81569,2.04855 -22.83214,2.04902 -44.97549,2.78889 -67.89478,2.78889 -13.98343,0 -28.05185,-1.53929 -41.95031,0 -20.07591,2.22346 -39.74118,7.26277 -59.54425,11.24078 -15.51221,3.11607 -35.67672,5.46582 -46.95563,19.11978 -5.09185,6.16406 -20.67977,40.62346 -14.3086,49.7637 0.99556,1.42826 3.34367,1.28967 4.57404,2.52143 5.11246,5.11821 -0.65473,2.9437 4.08038,6.14045 8.07038,5.44845 17.63186,9.68306 26.94865,12.20495 29.58836,8.00903 7.70908,0.29202 43.7899,3.76402 4.93657,0.47504 9.58075,2.56731 14.37112,3.85096 10.60829,0 21.21657,0 31.82486,0 43.2832,0 8.36512,-1.15853 53.48432,3.77291 13.9478,1.52446 20.26146,0.16093 29.07161,13.84126 2.16554,3.36264 5.55761,10.62304 6.23182,14.99198 0.65087,4.21778 -1.46023,8.793 0,12.80312 1.61297,4.42959 3.56652,9.11179 2.3139,14.89198 -6.85029,31.61073 -76.78657,66.00197 -103.14727,74.37359 -5.84235,1.85541 -12.10582,2.09313 -17.99144,3.80632 -8.81828,2.56685 -56.01855,21.0548 -73.90106,22.642 -9.77466,0.86756 -19.62617,0 -29.43925,0 -15.27928,0 -31.71241,2.21608 -31.71241,-14.86005"
       id="path860" />
    <path
       style="fill:none;stroke:#ff0000;stroke-width:10;stroke-linecap:round;stroke-linejoin:round;stroke-opacity:1;stroke-miterlimit:4;stroke-dasharray:none"
       d="m 682.11278,540.78095 c 9.95565,38.38582 7.73773,78.61914 11.99303,117.65231 1.74907,16.04389 6.02175,31.74905 7.70248,47.80024 0.8942,8.53973 -0.4499,17.18464 0,25.75926 0.5584,10.6425 2.01439,21.21888 3.02158,31.82832 0,11.75251 -0.56343,23.51855 0,35.25755 1.13432,27.09348 5.69004,53.95842 6.98993,81.04131 0.42586,8.87268 0.0948,73.17256 4.55271,73.17256"
       id="path862" />
    <path
       style="fill:none;stroke:#ff0000;stroke-width:10;stroke-linecap:round;stroke-linejoin:round;stroke-opacity:1;stroke-miterlimit:4;stroke-dasharray:none"
       d="m 1241.8925,554.11343 c -23.3421,-8.49432 -47.2997,-11.50802 -71.726,-14.55941 -28.7123,-3.58682 -120.3748,-10.90129 -136.8658,18.59854 -0.4181,0.74788 0,1.7136 0,2.57039 -2.5739,3.57084 -4.6807,7.53013 -7.7219,10.71253 -14.075,14.7287 -4.3206,-5.12465 -19.339,19.19265 -1.4337,2.32143 -9.823,22.63413 -6.79485,25.31658 3.88355,3.44022 5.34765,0.94679 9.09805,2.0203 30.0955,8.61467 27.1282,7.45444 62.2591,7.45444 28.1391,0 56.2781,0 84.4171,0 16.1734,0 34.3514,-1.74876 50.3659,0 4.886,0.53354 9.3791,3.15934 14.2571,3.76181 0.018,0.002 23.1539,0.72766 24.8082,2.57606 8.092,9.04164 10.4294,23.55945 12.07,34.82424 5.4545,37.45139 2.0809,53.19738 -33.9949,76.93042 -5.3642,3.52897 -10.2763,8.39057 -16.5126,9.9194 -75.695,18.55646 -156.9019,23.70438 -231.24627,-4.05714 -29.2045,-10.90548 -34.85889,-6.66254 -34.85889,-31.37046"
       id="path864" />
    <path
       style="fill:none;stroke:#ff0000;stroke-width:10;stroke-linecap:round;stroke-linejoin:round;stroke-opacity:1;stroke-miterlimit:4;stroke-dasharray:none"
       d="m 1134.3221,498.62964 c 12.9311,71.66168 9.6374,144.56145 9.6374,216.98427 0,34.97318 1.9751,70.68482 0,105.61397 -1.0451,18.48386 -4.279,36.36247 -2.7959,55.01225 0.8169,10.27204 4.078,21.56979 4.078,17.36175"
       id="path866" />
    <path
       style="fill:none;stroke:#ff0000;stroke-width:10;stroke-linecap:round;stroke-linejoin:round;stroke-opacity:1;stroke-miterlimit:4;stroke-dasharray:none"
       d="m 1610.9125,612.98491 c -18.0877,-16.61347 -41.8103,-21.89009 -64.5184,-28.62757 -22.1432,-6.56987 -40.2505,-13.51172 -64.6226,-9.50162 -22.6856,3.73259 -45.1877,28.91811 -55.3711,49.05923 -0.4938,0.97654 -6.7607,15.23479 -5.4113,16.58416 0.7065,4.9835 4.2951,0.82981 6.0609,2.0203 9.6018,6.4737 -3.3118,3.45595 13.3937,9.51556 4.2702,1.54893 8.8909,1.86732 13.3363,2.80098 5.2648,1.94973 10.5367,3.88003 15.7942,5.84919 5.1026,1.91116 16.1868,6.25039 20.0012,7.89219 2.4684,1.06251 3.8946,3.92868 6.3984,4.90526 3.212,1.25284 6.9086,0.86129 10.1294,2.09145 2.409,0.92015 4.059,3.3225 6.4663,4.24728 11.716,4.50077 24.5166,6.90207 36.4711,10.85606 9.9657,3.29621 20.8058,11.02503 30.1773,14.0827 1.3618,0.44433 2.9933,-0.59261 4.2975,0 1.8505,0.84086 3.95,9.98861 4.4525,11.57717 2.3648,7.47571 3.7003,21.31825 2.0203,29.52378 -0.7142,3.48868 -5.4057,4.69464 -7.6385,7.46874 -5.0507,6.27516 -8.6702,13.76257 -14.4627,19.36023 -4.391,4.2432 -10.3943,6.41121 -15.5658,9.65786 -12.0129,7.54163 -23.5046,15.38603 -36.2872,21.71199 -6.7244,3.32783 -22.6794,5.40891 -27.838,6.73985 -27.2535,7.0316 -60.0505,16.62583 -87.7283,7.43545 -11.1218,-3.693 -27.5721,-5.1404 -27.5721,-21.56414"
       id="path868" />
    <path
       style="fill:none;stroke:#ff0000;stroke-width:10;stroke-linecap:round;stroke-linejoin:round;stroke-opacity:1;stroke-miterlimit:4;stroke-dasharray:none"
       d="m 1501.9188,543.68501 c -1.7181,94.1875 2.6204,188.54358 0,282.70597 -2.3929,85.98569 -2.4719,9.07415 -6.0315,76.52916 -0.4557,8.63651 0.8867,17.34262 0,25.94558 -1.5612,15.14893 -7.6745,28.84143 -7.6745,44.20737"
       id="path870" />
  </g>
</svg>
