<?xml version="1.0" encoding="UTF-8" standalone="no"?>
<svg
   xmlns:dc="http://purl.org/dc/elements/1.1/"
   xmlns:cc="http://creativecommons.org/ns#"
   xmlns:rdf="http://www.w3.org/1999/02/22-rdf-syntax-ns#"
   xmlns:svg="http://www.w3.org/2000/svg"
   xmlns="http://www.w3.org/2000/svg"
   xmlns:xlink="http://www.w3.org/1999/xlink"
   xmlns:sodipodi="http://sodipodi.sourceforge.net/DTD/sodipodi-0.dtd"
   xmlns:inkscape="http://www.inkscape.org/namespaces/inkscape"
   inkscape:export-ydpi="96"
   inkscape:export-xdpi="96"
   inkscape:export-filename="C:\Users\joelr\Documents\starring codes\After Church\RAW files\Inkscape\goblet-broke.png"
   sodipodi:docname="goblet-broke.svg"
   inkscape:version="1.0 (4035a4fb49, 2020-05-01)"
   id="svg8"
   version="1.1"
   viewBox="0 0 507.99999 285.75001"
   height="1080"
   width="1920">
  <defs
     id="defs2">
    <linearGradient
       id="linearGradient864"
       inkscape:collect="always">
      <stop
         id="stop860"
         offset="0"
         style="stop-color:#333333;stop-opacity:1;" />
      <stop
         style="stop-color:#808080;stop-opacity:1"
         offset="0.25"
         id="stop870" />
      <stop
         style="stop-color:#ffffff;stop-opacity:1"
         offset="0.5"
         id="stop868" />
      <stop
         id="stop872"
         offset="0.75"
         style="stop-color:#666666;stop-opacity:1" />
      <stop
         id="stop862"
         offset="1"
         style="stop-color:#333333;stop-opacity:1" />
    </linearGradient>
    <linearGradient
       id="linearGradient850"
       inkscape:collect="always">
      <stop
         id="stop846"
         offset="0"
         style="stop-color:#999999;stop-opacity:1;" />
      <stop
         style="stop-color:#ccb3cc;stop-opacity:1"
         offset="0.5"
         id="stop854" />
      <stop
         id="stop856"
         offset="0.75"
         style="stop-color:#ffd4d4;stop-opacity:1" />
      <stop
         id="stop848"
         offset="1"
         style="stop-color:#ffffff;stop-opacity:1" />
    </linearGradient>
    <linearGradient
       gradientUnits="userSpaceOnUse"
       y2="0"
       x2="21.166666"
       y1="285.75"
       x1="486.83334"
       id="linearGradient852"
       xlink:href="#linearGradient850"
       inkscape:collect="always" />
    <linearGradient
       gradientUnits="userSpaceOnUse"
       y2="251.35418"
       x2="508"
       y1="251.35418"
       x1="0"
       id="linearGradient866"
       xlink:href="#linearGradient864"
       inkscape:collect="always" />
  </defs>
  <sodipodi:namedview
     inkscape:snap-bbox-midpoints="true"
     inkscape:snap-bbox-edge-midpoints="true"
     inkscape:bbox-nodes="true"
     inkscape:bbox-paths="true"
     inkscape:snap-bbox="true"
     inkscape:window-maximized="1"
     inkscape:window-y="-9"
     inkscape:window-x="-9"
     inkscape:window-height="1051"
     inkscape:window-width="1920"
     units="px"
     showgrid="true"
     inkscape:document-rotation="0"
     inkscape:current-layer="layer1"
     inkscape:document-units="px"
     inkscape:cy="523.90368"
     inkscape:cx="1028.9984"
     inkscape:zoom="0.49497475"
     inkscape:pageshadow="2"
     inkscape:pageopacity="0.0"
     borderopacity="1.0"
     bordercolor="#666666"
     pagecolor="#ffffff"
     id="base">
    <inkscape:grid
       id="grid842"
       type="xygrid" />
  </sodipodi:namedview>
  <metadata
     id="metadata5">
    <rdf:RDF>
      <cc:Work
         rdf:about="">
        <dc:format>image/svg+xml</dc:format>
        <dc:type
           rdf:resource="http://purl.org/dc/dcmitype/StillImage" />
        <dc:title></dc:title>
        <cc:license
           rdf:resource="http://creativecommons.org/licenses/by-sa/4.0/" />
      </cc:Work>
      <cc:License
         rdf:about="http://creativecommons.org/licenses/by-sa/4.0/">
        <cc:permits
           rdf:resource="http://creativecommons.org/ns#Reproduction" />
        <cc:permits
           rdf:resource="http://creativecommons.org/ns#Distribution" />
        <cc:requires
           rdf:resource="http://creativecommons.org/ns#Notice" />
        <cc:requires
           rdf:resource="http://creativecommons.org/ns#Attribution" />
        <cc:permits
           rdf:resource="http://creativecommons.org/ns#DerivativeWorks" />
        <cc:requires
           rdf:resource="http://creativecommons.org/ns#ShareAlike" />
      </cc:License>
    </rdf:RDF>
  </metadata>
  <g
     id="layer1"
     inkscape:groupmode="layer"
     inkscape:label="Lapis 1">
    <rect
       y="0"
       x="0"
       height="285.75"
       width="508"
       id="rect844"
       style="fill:url(#linearGradient852);stroke:none;stroke-width:0.264583;stroke-linecap:round;stroke-linejoin:round;stroke-dashoffset:9.44882;fill-opacity:1" />
    <rect
       y="216.95834"
       x="0"
       height="68.791672"
       width="508"
       id="rect858"
       style="fill:url(#linearGradient866);fill-opacity:1;stroke:none;stroke-width:0.264583;stroke-linecap:round;stroke-linejoin:round;stroke-dashoffset:9.44882" />
    <path
       id="path874"
       d="m 354.54168,-27.781251 c 0,0 0,0 0,5.291667 0,5.291667 -5.29167,9.260417 -5.29167,9.260417 v 9.2604169 l 3.96875,1.3229167 h -9.26042 l 3.96875,-1.3229167 0,-9.2604169 c 0,0 -5.29167,-3.96875 -5.29167,-9.260417 0,-5.291666 0,-5.291666 0,-5.291666 z"
       style="fill:#80ffff;stroke:#000000;stroke-width:0.264583px;stroke-linecap:butt;stroke-linejoin:miter;stroke-opacity:1;fill-opacity:1" />
    <path
       transform="scale(0.26458334)"
       d="m 1409.9178,-56.972722 c 5.692,-6.271792 12.5822,-16.288256 12.5822,-28.02728 V -105 v 0 h -45 v 19.999998 c 0,6.085273 1.8515,11.707665 4.4279,16.585498 L 1385,-69.999999 Z"
       style="fill:#80ffff;fill-opacity:1;stroke:#000000;stroke-width:0.999999px;stroke-linecap:butt;stroke-linejoin:miter;stroke-opacity:1"
       id="path876" />
    <path
       transform="scale(0.26458334)"
       d="m 1409.9178,-56.972722 c -4.0056,4.413581 -7.4178,6.972721 -7.4178,6.972721 V -15 l 15,5 h -35 l 15,-5 v -35.000001 c 0,0 -9.681,-7.260736 -15.5721,-18.414503 L 1385,-69.999999 Z"
       style="fill:#80ffff;fill-opacity:1;stroke:#000000;stroke-width:0.999999px;stroke-linecap:butt;stroke-linejoin:miter;stroke-opacity:1"
       id="path885" />
    <path
       id="path878"
       d="m 361.15626,-15.875 5.29167,-2.645834 7.9375,3.96875 7.9375,-5.291666"
       style="fill:none;stroke:#000000;stroke-width:0.264583px;stroke-linecap:butt;stroke-linejoin:miter;stroke-opacity:1" />
    <path
       id="path888"
       style="fill:#80ffff;fill-opacity:1;stroke:#000000;stroke-width:0.264583px;stroke-linecap:butt;stroke-linejoin:miter;stroke-opacity:1"
       d="m 393.54596,-15.074033 c 1.50601,-1.659412 3.32904,-4.309601 3.32904,-7.415551 v -5.291667 0 h -11.90625 v 5.291667 c 0,1.610061 0.48988,3.097653 1.17155,4.388246 l 0.81283,-0.419496 z" />
    <path
       id="path890"
       style="fill:#80ffff;fill-opacity:1;stroke:#000000;stroke-width:0.264583px;stroke-linecap:butt;stroke-linejoin:miter;stroke-opacity:1"
       d="m 393.54596,-15.074033 c -1.05981,1.16776 -1.96262,1.844866 -1.96262,1.844866 v 9.2604169 l 3.96875,1.3229167 h -9.26042 l 3.96875,-1.3229167 v -9.2604169 c 0,0 -2.56143,-1.92107 -4.12012,-4.872171 l 0.81283,-0.419496 z" />
    <path
       id="path892"
       d="m 402.16668,-17.197917 1.32291,-2.645833 -1.32291,-1.322917 z"
       style="fill:#80ffff;stroke:#000000;stroke-width:0.264583px;stroke-linecap:butt;stroke-linejoin:miter;stroke-opacity:1;fill-opacity:1" />
    <path
       id="path894"
       d="m 403.48959,-23.812501 2.64584,1.322917 v -2.645833 l -2.64584,-2.645834 z"
       style="fill:#80ffff;stroke:#000000;stroke-width:0.264583px;stroke-linecap:butt;stroke-linejoin:miter;stroke-opacity:1;fill-opacity:1" />
    <path
       id="path896"
       d="m 411.42709,-27.781251 c 0,0 0,2.645834 1.32292,3.96875 1.32292,1.322917 1.32292,1.322917 1.32292,1.322917 v -5.291667 z"
       style="fill:#80ffff;stroke:#000000;stroke-width:0.264583px;stroke-linecap:butt;stroke-linejoin:miter;stroke-opacity:1;fill-opacity:1" />
    <path
       id="path898"
       d="m 408.78126,-15.875 2.64583,1.322916 1.32292,-2.645833 -2.64583,-2.645833 z"
       style="fill:#80ffff;stroke:#000000;stroke-width:0.264583px;stroke-linecap:butt;stroke-linejoin:miter;stroke-opacity:1;fill-opacity:1" />
    <path
       id="path900"
       d="m 406.13543,-10.583334 2.64583,1.3229171 v 2.6458334 l -1.32292,1.3229167 -1.32291,-1.3229167 z"
       style="fill:#80ffff;stroke:#000000;stroke-width:0.264583px;stroke-linecap:butt;stroke-linejoin:miter;stroke-opacity:1;fill-opacity:1" />
    <path
       id="path902"
       d="m 414.07293,-10.583334 -1.32292,2.6458338 3.96875,2.6458334 2.64583,-3.9687501 h -2.64583 z"
       style="fill:#80ffff;stroke:#000000;stroke-width:0.264583px;stroke-linecap:butt;stroke-linejoin:miter;stroke-opacity:1;fill-opacity:1" />
    <path
       id="path904"
       d="m 403.48959,-14.552084 1.32292,2.645834 -1.32292,2.6458331 h -1.32291 -1.32292 l -1.32292,-2.6458331 1.32292,-2.645834 1.32292,-1.322916 v 3.96875 z"
       style="fill:#80ffff;stroke:#000000;stroke-width:0.264583px;stroke-linecap:butt;stroke-linejoin:miter;stroke-opacity:1;fill-opacity:1" />
    <g
       id="g930">
      <path
         id="path906"
         style="fill:#80ffff;fill-opacity:1;stroke:#000000;stroke-width:0.264583px;stroke-linecap:butt;stroke-linejoin:miter;stroke-opacity:1"
         d="m 436.21889,-4.2989231 c -0.87093,-1.314659 -1.30496,-2.356367 -1.30496,-2.356367 l -8.97545,-2.279596 -2.25918,3.520965 2.27959,-8.9754559 0.30525,4.17228 8.97545,2.2795969 c 0,0 2.49249,-2.009708 5.73648,-2.7939749 l 0.2065,0.8910839 z" />
      <path
         id="path908"
         d="m 446.29841,-7.8394596 2.71573,0.5990189 1.35786,-0.5990189 z"
         style="fill:#80ffff;fill-opacity:1;stroke:#000000;stroke-width:0.180376px;stroke-linecap:butt;stroke-linejoin:miter;stroke-opacity:1" />
      <path
         id="path910"
         d="m 465.63762,-6.5104553 -1.35085,1.246952 h 2.70171 l 2.7017,-1.246952 z"
         style="fill:#80ffff;fill-opacity:1;stroke:#000000;stroke-width:0.183545px;stroke-linecap:butt;stroke-linejoin:miter;stroke-opacity:1" />
      <path
         id="path912"
         d="m 463.12282,-7.8096026 c 0,0 -2.65398,0 -3.98098,1.1950193 -1.32699,1.1950191 -1.32699,1.1950191 -1.32699,1.1950191 h 5.30797 z"
         style="fill:#80ffff;fill-opacity:1;stroke:#000000;stroke-width:0.251855px;stroke-linecap:butt;stroke-linejoin:miter;stroke-opacity:1" />
      <path
         id="path914"
         d="m 452.37576,-7.8191153 -1.35027,1.2729153 2.70053,0.6364601 2.70053,-1.2729153 z"
         style="fill:#80ffff;fill-opacity:1;stroke:#000000;stroke-width:0.185406px;stroke-linecap:butt;stroke-linejoin:miter;stroke-opacity:1" />
      <path
         id="path916"
         d="m 455.12427,-3.876705 -1.34734,1.2576249 h -2.6947 l -1.34735,-0.6288148 1.34735,-0.6288101 z"
         style="fill:#80ffff;fill-opacity:1;stroke:#000000;stroke-width:0.18409px;stroke-linecap:butt;stroke-linejoin:miter;stroke-opacity:1" />
      <path
         id="path918"
         d="m 450.09038,-5.5153729 -1.32183,-1.4729604 -4.58745,0.8583738 1.57457,2.5008591 1.6328,-1.1656666 z"
         style="fill:#80ffff;fill-opacity:1;stroke:#000000;stroke-width:0.198642px;stroke-linecap:butt;stroke-linejoin:miter;stroke-opacity:1" />
      <path
         id="path920"
         d="m 463.5793,-3.0051874 -2.6665,0.9635663 -2.6665,-0.9635663 v -0.963559 -0.9635662 l 2.6665,-0.9635663 2.6665,0.9635663 1.33326,0.9635662 h -3.99976 z"
         style="fill:#80ffff;fill-opacity:1;stroke:#000000;stroke-width:0.226687px;stroke-linecap:butt;stroke-linejoin:miter;stroke-opacity:1" />
    </g>
    <path
       style="fill:#f9f9f9;stroke:#000000;stroke-width:0.581784px;stroke-linecap:butt;stroke-linejoin:miter;stroke-opacity:1"
       d="m 200.7111,220.10799 c 0,0 -51.11414,-4.63535 -51.11414,13.90604 0,18.54136 51.11414,27.81206 58.41617,27.81206 7.30201,0 0,4.63533 29.20806,13.90603 29.20812,9.27069 58.41618,13.90602 87.62426,4.63533 29.20809,-9.27069 109.5303,0 124.13435,-13.90603 14.60405,-13.90603 21.90606,-32.44739 7.30201,-41.71808 -14.60401,-9.2707 -94.92626,-4.63535 -109.5303,-9.2707 -14.60403,-4.63533 -94.92627,-4.63533 -109.53032,0 -14.60404,4.63535 -36.51009,4.63535 -36.51009,4.63535 z"
       id="path986" />
    <path
       d="m 166.85522,250.25901 c -7.27815,-6.37062 -10.90523,-11.41856 -10.90523,-11.41856 l -75.005658,-11.04654 -18.879418,17.06201 19.049979,-43.49356 2.5509,20.21817 75.005657,11.04655 c 0,0 20.82913,-9.73871 47.93837,-13.53914 l 1.72567,4.31804 z"
       style="fill:#333333;fill-opacity:0.72356218;stroke:none;stroke-width:1.6837px;stroke-linecap:butt;stroke-linejoin:miter;stroke-opacity:1"
       id="path950" />
    <path
       style="fill:#333333;fill-opacity:1;stroke:none;stroke-width:1.14784px;stroke-linecap:butt;stroke-linejoin:miter;stroke-opacity:1"
       d="m 251.14906,215.3785 22.69469,2.90275 11.34731,-2.90275 z"
       id="path952" />
    <path
       style="fill:#333333;fill-opacity:0.72356218;stroke:none;stroke-width:1.17985px;stroke-linecap:butt;stroke-linejoin:miter;stroke-opacity:1"
       d="m 301.625,216.95833 -11.28387,6.16833 22.56767,3.08418 22.56767,-6.16833 z"
       id="path958" />
    <path
       style="fill:#333333;fill-opacity:0.72356218;stroke:none;stroke-width:1.60271px;stroke-linecap:butt;stroke-linejoin:miter;stroke-opacity:1"
       d="m 394.22917,221.75081 c 0,0 -22.17866,0 -33.26808,5.79086 -11.08933,5.79086 -11.08933,5.79086 -11.08933,5.79086 h 44.35741 z"
       id="path956" />
    <path
       style="fill:#333333;fill-opacity:0.72356218;stroke:none;stroke-width:1.16801px;stroke-linecap:butt;stroke-linejoin:miter;stroke-opacity:1"
       d="m 417.33623,228.86459 -11.28872,6.04252 h 22.57753 l 22.57745,-6.04252 z"
       id="path954" />
    <path
       style="fill:#333333;fill-opacity:0.72356218;stroke:none;stroke-width:1.44255px;stroke-linecap:butt;stroke-linejoin:miter;stroke-opacity:1"
       d="m 404.60621,253.45573 -22.28329,4.66928 -22.28329,-4.66928 v -4.66925 -4.66928 l 22.28329,-4.66928 22.28329,4.66928 11.14173,4.66928 h -33.42502 z"
       id="path964" />
    <path
       style="fill:#333333;fill-opacity:0.72356218;stroke:none;stroke-width:1.17148px;stroke-linecap:butt;stroke-linejoin:miter;stroke-opacity:1"
       d="m 326.78975,250.95288 -11.25939,6.09424 h -22.51895 l -11.25948,-3.04713 11.25948,-3.04711 z"
       id="path960" />
    <path
       style="fill:#333333;fill-opacity:0.72356218;stroke:none;stroke-width:1.26408px;stroke-linecap:butt;stroke-linejoin:miter;stroke-opacity:1"
       d="m 281.33705,239.76942 -11.04621,-7.13772 -38.33621,4.15953 13.1583,12.11875 13.64491,-5.64863 z"
       id="path962" />
    <g
       transform="matrix(8.3498622,0,0,8.3498622,-3475.4406,277.9437)"
       id="g948">
      <path
         d="m 436.21889,-4.2989231 c -0.87093,-1.314659 -1.30496,-2.356367 -1.30496,-2.356367 l -8.97545,-2.279596 -2.25918,3.520965 2.27959,-8.9754559 0.30525,4.17228 8.97545,2.2795969 c 0,0 2.49249,-2.009708 5.73648,-2.7939749 l 0.2065,0.8910839 z"
         style="fill:#80ffff;fill-opacity:1;stroke:#000000;stroke-width:0.264583px;stroke-linecap:butt;stroke-linejoin:miter;stroke-opacity:1"
         id="path932" />
      <path
         style="fill:#80ffff;fill-opacity:1;stroke:#000000;stroke-width:0.180376px;stroke-linecap:butt;stroke-linejoin:miter;stroke-opacity:1"
         d="m 446.29841,-7.8394596 2.71573,0.5990189 1.35786,-0.5990189 z"
         id="path934" />
      <path
         style="fill:#80ffff;fill-opacity:1;stroke:#000000;stroke-width:0.183545px;stroke-linecap:butt;stroke-linejoin:miter;stroke-opacity:1"
         d="m 465.63762,-6.5104553 -1.35085,1.246952 h 2.70171 l 2.7017,-1.246952 z"
         id="path936" />
      <path
         style="fill:#80ffff;fill-opacity:1;stroke:#000000;stroke-width:0.251855px;stroke-linecap:butt;stroke-linejoin:miter;stroke-opacity:1"
         d="m 463.12282,-7.8096026 c 0,0 -2.65398,0 -3.98098,1.1950193 -1.32699,1.1950191 -1.32699,1.1950191 -1.32699,1.1950191 h 5.30797 z"
         id="path938" />
      <path
         style="fill:#80ffff;fill-opacity:1;stroke:#000000;stroke-width:0.185406px;stroke-linecap:butt;stroke-linejoin:miter;stroke-opacity:1"
         d="m 452.37576,-7.8191153 -1.35027,1.2729153 2.70053,0.6364601 2.70053,-1.2729153 z"
         id="path940" />
      <path
         style="fill:#80ffff;fill-opacity:1;stroke:#000000;stroke-width:0.18409px;stroke-linecap:butt;stroke-linejoin:miter;stroke-opacity:1"
         d="m 455.12427,-3.876705 -1.34734,1.2576249 h -2.6947 l -1.34735,-0.6288148 1.34735,-0.6288101 z"
         id="path942" />
      <path
         style="fill:#80ffff;fill-opacity:1;stroke:#000000;stroke-width:0.198642px;stroke-linecap:butt;stroke-linejoin:miter;stroke-opacity:1"
         d="m 450.09038,-5.5153729 -1.32183,-1.4729604 -4.58745,0.8583738 1.57457,2.5008591 1.6328,-1.1656666 z"
         id="path944" />
      <path
         style="fill:#80ffff;fill-opacity:1;stroke:#000000;stroke-width:0.226687px;stroke-linecap:butt;stroke-linejoin:miter;stroke-opacity:1"
         d="m 463.5793,-3.0051874 -2.6665,0.9635663 -2.6665,-0.9635663 v -0.963559 -0.9635662 l 2.6665,-0.9635663 2.6665,0.9635663 1.33326,0.9635662 h -3.99976 z"
         id="path946" />
    </g>
    <text
       id="text978"
       y="68.791672"
       x="15.875"
       style="font-size:25.4px;line-height:1.25;font-family:Ubuntu;-inkscape-font-specification:Ubuntu;letter-spacing:0px;word-spacing:0px;stroke-width:0.264583"
       xml:space="preserve"><tspan
         style="stroke-width:0.264583"
         y="68.791672"
         x="15.875"
         id="tspan976"
         sodipodi:role="line">Oh peck, something is going on.</tspan><tspan
         id="tspan980"
         style="stroke-width:0.264583"
         y="100.54167"
         x="15.875"
         sodipodi:role="line">Oh no, we broke the drincc.</tspan><tspan
         id="tspan982"
         style="stroke-width:0.264583"
         y="132.29167"
         x="15.875"
         sodipodi:role="line">warm and bad!</tspan></text>
    <path
       id="path984"
       d="m 178.47456,-48.154167 c 0,0 -18.52083,-2.645834 -18.52083,7.9375 0,10.583334 18.52083,15.875 21.16667,15.875 2.64583,0 0,2.645834 10.58333,7.937501 10.58334,5.291667 21.16667,7.9375 31.75,2.645833 10.58334,-5.291667 39.6875,0 44.97917,-7.9375 5.29167,-7.9375 7.9375,-18.520834 2.64583,-23.812501 -5.29166,-5.291667 -34.39583,-2.645833 -39.6875,-5.291667 -5.29166,-2.645833 -34.39583,-2.645833 -39.6875,0 -5.29167,2.645834 -13.22917,2.645834 -13.22917,2.645834 z"
       style="fill:#f9f9f9;stroke:#000000;stroke-width:0.264583px;stroke-linecap:butt;stroke-linejoin:miter;stroke-opacity:1" />
    <text
       id="text990"
       y="242.30856"
       x="27.332178"
       style="font-size:10.3337px;line-height:1.25;font-family:Ubuntu;-inkscape-font-specification:Ubuntu;letter-spacing:0px;word-spacing:0px;stroke-width:0.107643"
       xml:space="preserve"><tspan
         style="stroke-width:0.107643"
         y="242.30856"
         x="27.332178"
         id="tspan988"
         sodipodi:role="line">by JOELwindows7</tspan><tspan
         id="tspan992"
         style="stroke-width:0.107643"
         y="255.22571"
         x="27.332178"
         sodipodi:role="line">Perkedel Technologies</tspan><tspan
         id="tspan994"
         style="stroke-width:0.107643"
         y="268.14285"
         x="27.332178"
         sodipodi:role="line">CC4.0-BY-SA</tspan></text>
  </g>
</svg>
