<?xml version="1.0" encoding="UTF-8" standalone="no"?>
<!-- Created with Inkscape (http://www.inkscape.org/) -->

<svg
   width="1920"
   height="1080"
   viewBox="0 0 1920 1080"
   version="1.1"
   id="svg5"
   inkscape:version="1.3 (0e150ed6c4, 2023-07-21)"
   sodipodi:docname="Perkedel_Desktop_Wallpaper.svg"
   inkscape:export-filename="Perkedel_Desktop_Wallpaper_padded.jpg"
   inkscape:export-xdpi="96"
   inkscape:export-ydpi="96"
   xmlns:inkscape="http://www.inkscape.org/namespaces/inkscape"
   xmlns:sodipodi="http://sodipodi.sourceforge.net/DTD/sodipodi-0.dtd"
   xmlns="http://www.w3.org/2000/svg"
   xmlns:svg="http://www.w3.org/2000/svg"
   xmlns:rdf="http://www.w3.org/1999/02/22-rdf-syntax-ns#"
   xmlns:cc="http://creativecommons.org/ns#">
  <sodipodi:namedview
     id="namedview7"
     pagecolor="#0e0e0e"
     bordercolor="#ffffff"
     borderopacity="1"
     inkscape:showpageshadow="0"
     inkscape:pageopacity="0"
     inkscape:pagecheckerboard="1"
     inkscape:deskcolor="#000000"
     inkscape:document-units="px"
     showgrid="true"
     inkscape:zoom="0.66875"
     inkscape:cx="801.49533"
     inkscape:cy="485.23364"
     inkscape:window-width="2560"
     inkscape:window-height="1417"
     inkscape:window-x="-8"
     inkscape:window-y="-8"
     inkscape:window-maximized="1"
     inkscape:current-layer="g2238">
    <inkscape:grid
       type="xygrid"
       id="grid748"
       enabled="true"
       visible="true"
       originx="0"
       originy="0"
       spacingy="1"
       spacingx="1"
       units="px" />
  </sodipodi:namedview>
  <defs
     id="defs2" />
  <g
     inkscape:label="bekgron in case"
     inkscape:groupmode="layer"
     id="layer1"
     style="display:inline"
     sodipodi:insensitive="true">
    <rect
       style="fill:#000000"
       id="rect750"
       width="1920"
       height="1080"
       x="0"
       y="0" />
  </g>
  <g
     inkscape:groupmode="layer"
     id="layer3"
     inkscape:label="normal wave"
     style="display:inline"
     sodipodi:insensitive="true">
    <g
       id="g2061">
      <path
         inkscape:connector-curvature="0"
         style="fill:none;fill-opacity:1;fill-rule:nonzero;stroke:#ff0000;stroke-width:5;stroke-linecap:round;stroke-linejoin:bevel;stroke-dasharray:none;stroke-opacity:1"
         d="M 249.45283,772.63679 A 105.27358,105.27358 0 0 0 144.17925,877.91038 105.27358,105.27358 0 0 0 249.45283,983.18396 H 354.72642 A 105.27358,105.27358 0 0 0 460,877.91038 105.27358,105.27358 0 0 0 354.72642,772.63679 Z"
         id="path1906" />
      <path
         inkscape:connector-curvature="0"
         style="fill:none;fill-opacity:1;fill-rule:nonzero;stroke:#00ff00;stroke-width:5;stroke-linecap:round;stroke-linejoin:bevel;stroke-dasharray:none;stroke-opacity:1"
         d="M 213.15676,700.04464 A 177.86573,177.86573 0 0 0 35.291025,877.91038 177.86573,177.86573 0 0 0 213.15676,1055.7761 H 391.02249 A 177.86573,177.86573 0 0 0 568.88822,877.91038 177.86573,177.86573 0 0 0 391.02249,700.04464 Z"
         id="path1908" />
      <path
         inkscape:connector-curvature="0"
         style="fill:none;fill-opacity:1;fill-rule:nonzero;stroke:#0000ff;stroke-width:5;stroke-linecap:round;stroke-linejoin:bevel;stroke-dasharray:none;stroke-opacity:1"
         d="M 105.89211,485.51533 A 392.39504,392.39504 0 0 0 -286.50295,877.91039 392.39504,392.39504 0 0 0 105.89211,1270.3054 H 498.28715 A 392.39504,392.39504 0 0 0 890.68219,877.91039 392.39504,392.39504 0 0 0 498.28715,485.51533 Z"
         id="path1936" />
      <path
         inkscape:connector-curvature="0"
         style="fill:none;fill-opacity:1;fill-rule:nonzero;stroke:#00ffff;stroke-width:5;stroke-linecap:round;stroke-linejoin:bevel;stroke-dasharray:none;stroke-opacity:1"
         d="M -55.820724,162.08965 A 715.82072,715.82072 0 0 0 -771.64148,877.91041 715.82072,715.82072 0 0 0 -55.820724,1593.7311 H 660 A 715.82072,715.82072 0 0 0 1375.8207,877.91041 715.82072,715.82072 0 0 0 660,162.08965 Z"
         id="path1957" />
      <path
         inkscape:connector-curvature="0"
         style="fill:none;fill-opacity:1;fill-rule:nonzero;stroke:#ff00ff;stroke-width:5;stroke-linecap:round;stroke-linejoin:bevel;stroke-dasharray:none;stroke-opacity:1"
         d="M -136.41256,0.90597195 A 877.0044,877.0044 0 0 0 -1013.417,877.91042 877.0044,877.0044 0 0 0 -136.41256,1754.9147 h 877.0044 A 877.0044,877.0044 0 0 0 1617.5962,877.91042 877.0044,877.0044 0 0 0 740.59184,0.90597195 Z"
         id="path1959" />
      <path
         inkscape:connector-curvature="0"
         style="fill:none;fill-opacity:1;fill-rule:nonzero;stroke:#ffffff;stroke-width:5;stroke-linecap:round;stroke-linejoin:bevel;stroke-dasharray:none;stroke-opacity:1"
         d="M 24.179268,322.08964 A 555.82073,555.82073 0 0 0 -531.64149,877.9104 555.82073,555.82073 0 0 0 24.179268,1433.7311 H 580 A 555.82073,555.82073 0 0 0 1135.8207,877.9104 555.82073,555.82073 0 0 0 580,322.08964 Z"
         id="path1982" />
      <path
         inkscape:connector-curvature="0"
         style="fill:none;fill-opacity:1;fill-rule:nonzero;stroke:#ffff00;stroke-width:5;stroke-linecap:round;stroke-linejoin:bevel;stroke-dasharray:none;stroke-opacity:1"
         d="M -235.39234,-197.0536 A 1074.964,1074.964 0 0 0 -1310.3564,877.91044 1074.964,1074.964 0 0 0 -235.39234,1952.8743 H 839.57164 A 1074.964,1074.964 0 0 0 1914.5356,877.91044 1074.964,1074.964 0 0 0 839.57164,-197.0536 Z"
         id="path2006" />
    </g>
  </g>
  <g
     inkscape:groupmode="layer"
     id="layer4"
     inkscape:label="dried wave"
     sodipodi:insensitive="true"
     style="display:none">
    <g
       id="g2135"
       style="display:inline">
      <path
         inkscape:connector-curvature="0"
         style="fill:none;fill-opacity:1;fill-rule:nonzero;stroke:#000000;stroke-width:5;stroke-linecap:round;stroke-linejoin:bevel;stroke-dasharray:none;stroke-opacity:1"
         d="M 249.45283,772.63679 A 105.27358,105.27358 0 0 0 144.17925,877.91038 105.27358,105.27358 0 0 0 249.45283,983.18396 H 354.72642 A 105.27358,105.27358 0 0 0 460,877.91038 105.27358,105.27358 0 0 0 354.72642,772.63679 Z"
         id="path2121" />
      <path
         inkscape:connector-curvature="0"
         style="fill:none;fill-opacity:1;fill-rule:nonzero;stroke:#1a1a1a;stroke-width:5;stroke-linecap:round;stroke-linejoin:bevel;stroke-dasharray:none;stroke-opacity:1"
         d="M 213.15676,700.04464 A 177.86573,177.86573 0 0 0 35.291025,877.91038 177.86573,177.86573 0 0 0 213.15676,1055.7761 H 391.02249 A 177.86573,177.86573 0 0 0 568.88822,877.91038 177.86573,177.86573 0 0 0 391.02249,700.04464 Z"
         id="path2123" />
      <path
         inkscape:connector-curvature="0"
         style="fill:none;fill-opacity:1;fill-rule:nonzero;stroke:#333333;stroke-width:5;stroke-linecap:round;stroke-linejoin:bevel;stroke-dasharray:none;stroke-opacity:1"
         d="M 105.89211,485.51533 A 392.39504,392.39504 0 0 0 -286.50295,877.91039 392.39504,392.39504 0 0 0 105.89211,1270.3054 H 498.28715 A 392.39504,392.39504 0 0 0 890.68219,877.91039 392.39504,392.39504 0 0 0 498.28715,485.51533 Z"
         id="path2125" />
      <path
         inkscape:connector-curvature="0"
         style="fill:none;fill-opacity:1;fill-rule:nonzero;stroke:#666666;stroke-width:5;stroke-linecap:round;stroke-linejoin:bevel;stroke-dasharray:none;stroke-opacity:1"
         d="M -55.820724,162.08965 A 715.82072,715.82072 0 0 0 -771.64148,877.91041 715.82072,715.82072 0 0 0 -55.820724,1593.7311 H 660 A 715.82072,715.82072 0 0 0 1375.8207,877.91041 715.82072,715.82072 0 0 0 660,162.08965 Z"
         id="path2127" />
      <path
         inkscape:connector-curvature="0"
         style="fill:none;fill-opacity:1;fill-rule:nonzero;stroke:#808080;stroke-width:5;stroke-linecap:round;stroke-linejoin:bevel;stroke-dasharray:none;stroke-opacity:1"
         d="M -136.41256,0.90597195 A 877.0044,877.0044 0 0 0 -1013.417,877.91042 877.0044,877.0044 0 0 0 -136.41256,1754.9147 h 877.0044 A 877.0044,877.0044 0 0 0 1617.5962,877.91042 877.0044,877.0044 0 0 0 740.59184,0.90597195 Z"
         id="path2129" />
      <path
         inkscape:connector-curvature="0"
         style="fill:none;fill-opacity:1;fill-rule:nonzero;stroke:#4d4d4d;stroke-width:5;stroke-linecap:round;stroke-linejoin:bevel;stroke-dasharray:none;stroke-opacity:1"
         d="M 24.179268,322.08964 A 555.82073,555.82073 0 0 0 -531.64149,877.9104 555.82073,555.82073 0 0 0 24.179268,1433.7311 H 580 A 555.82073,555.82073 0 0 0 1135.8207,877.9104 555.82073,555.82073 0 0 0 580,322.08964 Z"
         id="path2131" />
      <path
         inkscape:connector-curvature="0"
         style="fill:none;fill-opacity:1;fill-rule:nonzero;stroke:#999999;stroke-width:5;stroke-linecap:round;stroke-linejoin:bevel;stroke-dasharray:none;stroke-opacity:1"
         d="M -235.39234,-197.0536 A 1074.964,1074.964 0 0 0 -1310.3564,877.91044 1074.964,1074.964 0 0 0 -235.39234,1952.8743 H 839.57164 A 1074.964,1074.964 0 0 0 1914.5356,877.91044 1074.964,1074.964 0 0 0 839.57164,-197.0536 Z"
         id="path2133" />
    </g>
  </g>
  <g
     inkscape:groupmode="layer"
     id="layer2"
     inkscape:label="main"
     sodipodi:insensitive="true"
     style="display:inline">
    <g
       id="g1934">
      <g
         id="g1925">
        <path
           inkscape:connector-curvature="0"
           style="fill:#ffc800;fill-opacity:1;fill-rule:nonzero;stroke:none;stroke-width:0.522406;stroke-opacity:1"
           d="m 285.37263,844.47639 a 33.43399,33.43399 0 0 0 -33.43399,33.43399 33.43399,33.43399 0 0 0 33.43399,33.43399 h 33.43399 a 33.43399,33.43399 0 0 0 33.43399,-33.43399 33.43399,33.43399 0 0 0 -33.43399,-33.43399 z"
           id="path1451" />
        <path
           inkscape:connector-curvature="0"
           style="fill:#fffe00;fill-opacity:1;fill-rule:nonzero;stroke:none;stroke-width:0.545637;stroke-opacity:1"
           d="M 302.08962,852.83488 A 2.0896244,2.0896244 0 0 0 300,854.92451 v 20.89624 h -20.89624 a 2.0896244,2.0896244 0 0 0 -2.08963,2.08963 A 2.0896244,2.0896244 0 0 0 279.10376,880 H 300 v 20.89624 a 2.0896244,2.0896244 0 0 0 2.08962,2.08963 2.0896244,2.0896244 0 0 0 2.08963,-2.08963 V 880 h 20.89624 a 2.0896244,2.0896244 0 0 0 2.08963,-2.08962 2.0896244,2.0896244 0 0 0 -2.08963,-2.08963 h -20.89624 v -20.89624 a 2.0896244,2.0896244 0 0 0 -2.08963,-2.08963 z"
           id="rect1461" />
      </g>
      <flowRoot
         transform="matrix(0.52240609,0,0,0.52240609,161.95106,714.24303)"
         style="font-style:normal;font-weight:normal;font-size:40px;line-height:0;font-family:sans-serif;letter-spacing:0px;word-spacing:0px;fill:#ffffff;fill-opacity:1;stroke:#000000;stroke-width:1.43566;stroke-linecap:round;stroke-linejoin:bevel;stroke-dasharray:none"
         id="flowRoot1482"
         xml:space="preserve"><flowRegion
           style="line-height:0;fill:#ffffff;stroke:#000000;stroke-width:1.43566;stroke-linecap:round;stroke-linejoin:bevel;stroke-dasharray:none"
           id="flowRegion1484"><rect
             style="line-height:0;stroke:#000000;fill:#ffffff;stroke-width:1.43566473;stroke-dasharray:none;stroke-linejoin:bevel;stroke-linecap:round"
             y="272"
             x="384"
             height="128"
             width="1024"
             id="rect1486" /></flowRegion><flowPara
           style="font-style:normal;font-variant:normal;font-weight:normal;font-stretch:normal;font-size:96px;line-height:1;font-family:Ubuntu;-inkscape-font-specification:Ubuntu;fill:#ffffff;stroke:#000000;stroke-width:1.43566;stroke-linecap:round;stroke-linejoin:bevel;stroke-dasharray:none"
           id="flowPara1488">Perkedel Technologies</flowPara></flowRoot>
    </g>
  </g>
  <g
     inkscape:groupmode="layer"
     id="g2238"
     inkscape:label="main dried"
     sodipodi:insensitive="true"
     style="display:none">
    <g
       id="g2236">
      <g
         id="g2226">
        <path
           inkscape:connector-curvature="0"
           style="fill:#cccccc;fill-opacity:1;fill-rule:nonzero;stroke:none;stroke-width:0.522406;stroke-opacity:1"
           d="m 285.37263,844.47639 a 33.43399,33.43399 0 0 0 -33.43399,33.43399 33.43399,33.43399 0 0 0 33.43399,33.43399 h 33.43399 a 33.43399,33.43399 0 0 0 33.43399,-33.43399 33.43399,33.43399 0 0 0 -33.43399,-33.43399 z"
           id="path2222" />
        <path
           inkscape:connector-curvature="0"
           style="fill:#ffffff;fill-opacity:1;fill-rule:nonzero;stroke:none;stroke-width:0.545637;stroke-opacity:1"
           d="M 302.08962,852.83488 A 2.0896244,2.0896244 0 0 0 300,854.92451 v 20.89624 h -20.89624 a 2.0896244,2.0896244 0 0 0 -2.08963,2.08963 A 2.0896244,2.0896244 0 0 0 279.10376,880 H 300 v 20.89624 a 2.0896244,2.0896244 0 0 0 2.08962,2.08963 2.0896244,2.0896244 0 0 0 2.08963,-2.08963 V 880 h 20.89624 a 2.0896244,2.0896244 0 0 0 2.08963,-2.08962 2.0896244,2.0896244 0 0 0 -2.08963,-2.08963 h -20.89624 v -20.89624 a 2.0896244,2.0896244 0 0 0 -2.08963,-2.08963 z"
           id="path2224" />
      </g>
      <flowRoot
         transform="matrix(0.52240609,0,0,0.52240609,161.95106,714.24303)"
         style="font-style:normal;font-weight:normal;font-size:40px;line-height:0;font-family:sans-serif;letter-spacing:0px;word-spacing:0px;fill:#ffffff;fill-opacity:1;stroke:#000000;stroke-width:1.43566;stroke-linecap:round;stroke-linejoin:bevel;stroke-dasharray:none"
         id="flowRoot2234"
         xml:space="preserve"><flowRegion
           style="line-height:0;fill:#ffffff;stroke:#000000;stroke-width:1.43566;stroke-linecap:round;stroke-linejoin:bevel;stroke-dasharray:none"
           id="flowRegion2230"><rect
             style="line-height:0;stroke:#000000;fill:#ffffff;stroke-width:1.43566473;stroke-dasharray:none;stroke-linejoin:bevel;stroke-linecap:round"
             y="272"
             x="384"
             height="128"
             width="1024"
             id="rect2228" /></flowRegion><flowPara
           style="font-style:normal;font-variant:normal;font-weight:normal;font-stretch:normal;font-size:96px;line-height:1;font-family:Ubuntu;-inkscape-font-specification:Ubuntu;fill:#ffffff;stroke:#000000;stroke-width:1.43566;stroke-linecap:round;stroke-linejoin:bevel;stroke-dasharray:none"
           id="flowPara2232">Perkedel Technologies</flowPara></flowRoot>
    </g>
  </g>
  <metadata
     id="metadata746">
    <rdf:RDF>
      <cc:Work
         rdf:about="">
        <cc:license
           rdf:resource="http://creativecommons.org/licenses/by-sa/4.0/" />
      </cc:Work>
      <cc:License
         rdf:about="http://creativecommons.org/licenses/by-sa/4.0/">
        <cc:permits
           rdf:resource="http://creativecommons.org/ns#Reproduction" />
        <cc:permits
           rdf:resource="http://creativecommons.org/ns#Distribution" />
        <cc:requires
           rdf:resource="http://creativecommons.org/ns#Notice" />
        <cc:requires
           rdf:resource="http://creativecommons.org/ns#Attribution" />
        <cc:permits
           rdf:resource="http://creativecommons.org/ns#DerivativeWorks" />
        <cc:requires
           rdf:resource="http://creativecommons.org/ns#ShareAlike" />
      </cc:License>
    </rdf:RDF>
  </metadata>
</svg>
