<?xml version="1.0" encoding="UTF-8" standalone="no"?>
<svg
   xmlns:dc="http://purl.org/dc/elements/1.1/"
   xmlns:cc="http://creativecommons.org/ns#"
   xmlns:rdf="http://www.w3.org/1999/02/22-rdf-syntax-ns#"
   xmlns:svg="http://www.w3.org/2000/svg"
   xmlns="http://www.w3.org/2000/svg"
   xmlns:xlink="http://www.w3.org/1999/xlink"
   xmlns:sodipodi="http://sodipodi.sourceforge.net/DTD/sodipodi-0.dtd"
   xmlns:inkscape="http://www.inkscape.org/namespaces/inkscape"
   sodipodi:docname="Senorita-thumb.svg"
   inkscape:version="1.0 (4035a4fb49, 2020-05-01)"
   id="svg8"
   version="1.1"
   viewBox="0 0 1920 1080"
   height="1080"
   width="1920"
   inkscape:export-filename="C:\Users\joelr\Documents\starring codes\After Church\RAW files\Inkscape\Senorita-thumb-psr_SX900.svg.png"
   inkscape:export-xdpi="96"
   inkscape:export-ydpi="96">
  <defs
     id="defs2">
    <linearGradient
       id="linearGradient868"
       inkscape:collect="always">
      <stop
         id="stop864"
         offset="0"
         style="stop-color:#0000ff;stop-opacity:1;" />
      <stop
         style="stop-color:#007fff;stop-opacity:1"
         offset="0.125"
         id="stop878" />
      <stop
         style="stop-color:#ffff4f;stop-opacity:1"
         offset="0.25"
         id="stop876" />
      <stop
         style="stop-color:#00ff00;stop-opacity:1"
         offset="0.5"
         id="stop872" />
      <stop
         id="stop874"
         offset="0.75"
         style="stop-color:#fffb7f;stop-opacity:1" />
      <stop
         style="stop-color:#7fffbf;stop-opacity:1"
         offset="0.875"
         id="stop880" />
      <stop
         id="stop866"
         offset="1"
         style="stop-color:#00f7ff;stop-opacity:1" />
    </linearGradient>
    <linearGradient
       id="linearGradient850"
       inkscape:collect="always">
      <stop
         id="stop846"
         offset="0"
         style="stop-color:#800080;stop-opacity:1;" />
      <stop
         style="stop-color:#d16ba4;stop-opacity:1"
         offset="0.25"
         id="stop858" />
      <stop
         style="stop-color:#68d7c9;stop-opacity:1"
         offset="0.5"
         id="stop854" />
      <stop
         id="stop856"
         offset="0.75"
         style="stop-color:#ddeba4;stop-opacity:1" />
      <stop
         id="stop848"
         offset="1"
         style="stop-color:#80ff80;stop-opacity:1" />
    </linearGradient>
    <linearGradient
       gradientUnits="userSpaceOnUse"
       y2="0"
       x2="1888"
       y1="1088"
       x1="96"
       id="linearGradient852"
       xlink:href="#linearGradient850"
       inkscape:collect="always" />
    <linearGradient
       gradientUnits="userSpaceOnUse"
       y2="704.8602"
       x2="879.99962"
       y1="704.8602"
       x1="32.000009"
       id="linearGradient870"
       xlink:href="#linearGradient868"
       inkscape:collect="always" />
  </defs>
  <sodipodi:namedview
     inkscape:snap-bbox-midpoints="true"
     inkscape:snap-bbox-edge-midpoints="true"
     inkscape:bbox-nodes="true"
     inkscape:bbox-paths="true"
     inkscape:snap-bbox="true"
     inkscape:window-maximized="1"
     inkscape:window-y="-9"
     inkscape:window-x="-9"
     inkscape:window-height="1051"
     inkscape:window-width="1920"
     units="px"
     showgrid="true"
     inkscape:document-rotation="0"
     inkscape:current-layer="layer3"
     inkscape:document-units="px"
     inkscape:cy="555.08182"
     inkscape:cx="863.3512"
     inkscape:zoom="0.49497475"
     inkscape:pageshadow="2"
     inkscape:pageopacity="0.0"
     borderopacity="1.0"
     bordercolor="#666666"
     pagecolor="#ffffff"
     id="base">
    <inkscape:grid
       empspacing="4"
       id="grid842"
       type="xygrid" />
  </sodipodi:namedview>
  <metadata
     id="metadata5">
    <rdf:RDF>
      <cc:Work
         rdf:about="">
        <dc:format>image/svg+xml</dc:format>
        <dc:type
           rdf:resource="http://purl.org/dc/dcmitype/StillImage" />
        <dc:title></dc:title>
        <cc:license
           rdf:resource="http://creativecommons.org/licenses/by-sa/4.0/" />
      </cc:Work>
      <cc:License
         rdf:about="http://creativecommons.org/licenses/by-sa/4.0/">
        <cc:permits
           rdf:resource="http://creativecommons.org/ns#Reproduction" />
        <cc:permits
           rdf:resource="http://creativecommons.org/ns#Distribution" />
        <cc:requires
           rdf:resource="http://creativecommons.org/ns#Notice" />
        <cc:requires
           rdf:resource="http://creativecommons.org/ns#Attribution" />
        <cc:permits
           rdf:resource="http://creativecommons.org/ns#DerivativeWorks" />
        <cc:requires
           rdf:resource="http://creativecommons.org/ns#ShareAlike" />
      </cc:License>
    </rdf:RDF>
  </metadata>
  <g
     id="layer1"
     inkscape:groupmode="layer"
     inkscape:label="Main"
     sodipodi:insensitive="true">
    <rect
       y="0"
       x="0"
       height="1088"
       width="1920"
       id="rect844"
       style="fill:url(#linearGradient852);fill-opacity:1;stroke:none;stroke-width:10;stroke-linecap:round;stroke-linejoin:round;stroke-dashoffset:9.44882" />
    <path
       id="path882"
       d="m -64,712 v -8 c 0,0 0,-4 2,-4 2,0 2,4 2,4 v 4 -12 c 0,0 0,-4 2,-4 2,0 2,4 2,4 v 8 -10 c 0,0 0,-4 2,-4 2,0 2,4 2,4 v 10 -8 c 0,0 0,-4 2,-4 2,0 2,4 2,4 v 11 -7 c 0,0 0,-3 2,-3 2,0 2,3 2,3 v 16 c 0,0 0,12 -10,12 -10,0 -10,-10 -10,-10 z"
       style="fill:#ffffff;fill-opacity:1;stroke:#000000;stroke-width:1;stroke-linecap:butt;stroke-linejoin:miter;stroke-miterlimit:4;stroke-dasharray:none;stroke-opacity:1" />
  </g>
  <g
     inkscape:groupmode="layer"
     id="layer2"
     inkscape:label="Hand"
     sodipodi:insensitive="true">
    <path
       style="fill:#ffffff;fill-opacity:0.545455;stroke:#001856;stroke-width:3.24451;stroke-linecap:butt;stroke-linejoin:miter;stroke-miterlimit:4;stroke-dasharray:none;stroke-opacity:0.660482"
       d="m -79.616789,6.7432697 12.97802,-22.4785997 c 0,0 6.48901,-11.23929 12.10866,-7.99479 5.61965,3.24451 -0.86936,14.4837997 -0.86936,14.4837997 l -6.48902,11.23931 19.46704,-33.7179097 c 0,0 6.48901,-11.23929 12.10866,-7.99479 5.61965,3.24451 -0.86936,14.4838 -0.86936,14.4838 l -12.97803,22.4785997 16.22253,-28.0982397 c 0,0 6.48901,-11.2393 12.10866,-7.99479 5.61966,3.24451 -0.86935,14.4838 -0.86935,14.4838 l -16.22253,28.0982497 12.97802,-22.4785997 c 0,0 6.48901,-11.2393 12.1086602,-7.99479 5.61965,3.2445 -0.86936,14.4838 -0.86936,14.4838 l -17.8447902,30.90807 11.35577,-19.6687703 c 0,0 4.86676,-8.42947 10.4864102,-5.18497 5.61966001,3.24451 0.7529,11.67399 0.7529,11.67399 L -29.909309,50.42763 c 0,0 -19.46704,33.7179 -47.56529,17.49536 -28.098241,-16.22252 -11.87571,-44.32077 -11.87571,-44.32077 z"
       id="path884"
       inkscape:tile-cx="-48.003203"
       inkscape:tile-cy="16.014451"
       inkscape:tile-w="95.256648"
       inkscape:tile-h="115.81736"
       inkscape:tile-x0="-95.628325"
       inkscape:tile-y0="-41.908681" />
    <use
       x="0"
       y="0"
       inkscape:tiled-clone-of="#path884"
       xlink:href="#path884"
       transform="translate(1.60933,3.2630483)"
       id="use2244"
       style="fill:#ffffff;fill-opacity:0.545455;stroke:#001856;stroke-opacity:0.660482"
       width="100%"
       height="100%" />
    <use
       x="0"
       y="0"
       inkscape:tiled-clone-of="#path884"
       xlink:href="#path884"
       transform="translate(-0.7984334,235.47228)"
       id="use2246"
       style="fill:#ffffff;fill-opacity:0.545455;stroke:#001856;stroke-opacity:0.660482"
       width="100%"
       height="100%" />
    <use
       x="0"
       y="0"
       inkscape:tiled-clone-of="#path884"
       xlink:href="#path884"
       transform="translate(2.6659838,462.12165)"
       id="use2248"
       style="fill:#ffffff;fill-opacity:0.545455;stroke:#001856;stroke-opacity:0.660482"
       width="100%"
       height="100%" />
    <use
       x="0"
       y="0"
       inkscape:tiled-clone-of="#path884"
       xlink:href="#path884"
       transform="translate(-0.89459881,690.86647)"
       id="use2250"
       style="fill:#ffffff;fill-opacity:0.545455;stroke:#001856;stroke-opacity:0.660482"
       width="100%"
       height="100%" />
    <use
       x="0"
       y="0"
       inkscape:tiled-clone-of="#path884"
       xlink:href="#path884"
       transform="translate(-4.6581851,921.79741)"
       id="use2252"
       style="fill:#ffffff;fill-opacity:0.545455;stroke:#001856;stroke-opacity:0.660482"
       width="100%"
       height="100%" />
    <use
       x="0"
       y="0"
       inkscape:tiled-clone-of="#path884"
       xlink:href="#path884"
       transform="translate(-0.92269729,1154.8066)"
       id="use2254"
       style="fill:#ffffff;fill-opacity:0.545455;stroke:#001856;stroke-opacity:0.660482"
       width="100%"
       height="100%" />
    <use
       x="0"
       y="0"
       inkscape:tiled-clone-of="#path884"
       xlink:href="#path884"
       transform="translate(192.38201,4.2667042)"
       id="use2256"
       style="fill:#ffffff;fill-opacity:0.545455;stroke:#001856;stroke-opacity:0.660482"
       width="100%"
       height="100%" />
    <use
       x="0"
       y="0"
       inkscape:tiled-clone-of="#path884"
       xlink:href="#path884"
       transform="translate(191.19862,229.46615)"
       id="use2258"
       style="fill:#ffffff;fill-opacity:0.545455;stroke:#001856;stroke-opacity:0.660482"
       width="100%"
       height="100%" />
    <use
       x="0"
       y="0"
       inkscape:tiled-clone-of="#path884"
       xlink:href="#path884"
       transform="translate(185.80559,465.95722)"
       id="use2260"
       style="fill:#ffffff;fill-opacity:0.545455;stroke:#001856;stroke-opacity:0.660482"
       width="100%"
       height="100%" />
    <use
       x="0"
       y="0"
       inkscape:tiled-clone-of="#path884"
       xlink:href="#path884"
       transform="translate(189.15424,693.40621)"
       id="use2262"
       style="fill:#ffffff;fill-opacity:0.545455;stroke:#001856;stroke-opacity:0.660482"
       width="100%"
       height="100%" />
    <use
       x="0"
       y="0"
       inkscape:tiled-clone-of="#path884"
       xlink:href="#path884"
       transform="translate(188.15004,922.0417)"
       id="use2264"
       style="fill:#ffffff;fill-opacity:0.545455;stroke:#001856;stroke-opacity:0.660482"
       width="100%"
       height="100%" />
    <use
       x="0"
       y="0"
       inkscape:tiled-clone-of="#path884"
       xlink:href="#path884"
       transform="translate(190.4148,1155.526)"
       id="use2266"
       style="fill:#ffffff;fill-opacity:0.545455;stroke:#001856;stroke-opacity:0.660482"
       width="100%"
       height="100%" />
    <use
       x="0"
       y="0"
       inkscape:tiled-clone-of="#path884"
       xlink:href="#path884"
       transform="translate(378.50207,-1.6633322)"
       id="use2268"
       style="fill:#ffffff;fill-opacity:0.545455;stroke:#001856;stroke-opacity:0.660482"
       width="100%"
       height="100%" />
    <use
       x="0"
       y="0"
       inkscape:tiled-clone-of="#path884"
       xlink:href="#path884"
       transform="translate(378.82865,233.06435)"
       id="use2270"
       style="fill:#ffffff;fill-opacity:0.545455;stroke:#001856;stroke-opacity:0.660482"
       width="100%"
       height="100%" />
    <use
       x="0"
       y="0"
       inkscape:tiled-clone-of="#path884"
       xlink:href="#path884"
       transform="translate(377.17556,466.00412)"
       id="use2272"
       style="fill:#ffffff;fill-opacity:0.545455;stroke:#001856;stroke-opacity:0.660482"
       width="100%"
       height="100%" />
    <use
       x="0"
       y="0"
       inkscape:tiled-clone-of="#path884"
       xlink:href="#path884"
       transform="translate(380.57697,700.47473)"
       id="use2274"
       style="fill:#ffffff;fill-opacity:0.545455;stroke:#001856;stroke-opacity:0.660482"
       width="100%"
       height="100%" />
    <use
       x="0"
       y="0"
       inkscape:tiled-clone-of="#path884"
       xlink:href="#path884"
       transform="translate(383.0103,923.81079)"
       id="use2276"
       style="fill:#ffffff;fill-opacity:0.545455;stroke:#001856;stroke-opacity:0.660482"
       width="100%"
       height="100%" />
    <use
       x="0"
       y="0"
       inkscape:tiled-clone-of="#path884"
       xlink:href="#path884"
       transform="translate(385.66226,1162.8533)"
       id="use2278"
       style="fill:#ffffff;fill-opacity:0.545455;stroke:#001856;stroke-opacity:0.660482"
       width="100%"
       height="100%" />
    <use
       x="0"
       y="0"
       inkscape:tiled-clone-of="#path884"
       xlink:href="#path884"
       transform="translate(566.86641,0.30629161)"
       id="use2280"
       style="fill:#ffffff;fill-opacity:0.545455;stroke:#001856;stroke-opacity:0.660482"
       width="100%"
       height="100%" />
    <use
       x="0"
       y="0"
       inkscape:tiled-clone-of="#path884"
       xlink:href="#path884"
       transform="translate(570.47102,231.53964)"
       id="use2282"
       style="fill:#ffffff;fill-opacity:0.545455;stroke:#001856;stroke-opacity:0.660482"
       width="100%"
       height="100%" />
    <use
       x="0"
       y="0"
       inkscape:tiled-clone-of="#path884"
       xlink:href="#path884"
       transform="translate(572.16569,463.49749)"
       id="use2284"
       style="fill:#ffffff;fill-opacity:0.545455;stroke:#001856;stroke-opacity:0.660482"
       width="100%"
       height="100%" />
    <use
       x="0"
       y="0"
       inkscape:tiled-clone-of="#path884"
       xlink:href="#path884"
       transform="translate(569.55295,697.56891)"
       id="use2286"
       style="fill:#ffffff;fill-opacity:0.545455;stroke:#001856;stroke-opacity:0.660482"
       width="100%"
       height="100%" />
    <use
       x="0"
       y="0"
       inkscape:tiled-clone-of="#path884"
       xlink:href="#path884"
       transform="translate(573.19474,925.06843)"
       id="use2288"
       style="fill:#ffffff;fill-opacity:0.545455;stroke:#001856;stroke-opacity:0.660482"
       width="100%"
       height="100%" />
    <use
       x="0"
       y="0"
       inkscape:tiled-clone-of="#path884"
       xlink:href="#path884"
       transform="translate(574.83429,1160.7843)"
       id="use2290"
       style="fill:#ffffff;fill-opacity:0.545455;stroke:#001856;stroke-opacity:0.660482"
       width="100%"
       height="100%" />
    <use
       x="0"
       y="0"
       inkscape:tiled-clone-of="#path884"
       xlink:href="#path884"
       transform="translate(763.40615,2.6780044)"
       id="use2292"
       style="fill:#ffffff;fill-opacity:0.545455;stroke:#001856;stroke-opacity:0.660482"
       width="100%"
       height="100%" />
    <use
       x="0"
       y="0"
       inkscape:tiled-clone-of="#path884"
       xlink:href="#path884"
       transform="translate(758.90666,231.50621)"
       id="use2294"
       style="fill:#ffffff;fill-opacity:0.545455;stroke:#001856;stroke-opacity:0.660482"
       width="100%"
       height="100%" />
    <use
       x="0"
       y="0"
       inkscape:tiled-clone-of="#path884"
       xlink:href="#path884"
       transform="translate(762.98941,466.35336)"
       id="use2296"
       style="fill:#ffffff;fill-opacity:0.545455;stroke:#001856;stroke-opacity:0.660482"
       width="100%"
       height="100%" />
    <use
       x="0"
       y="0"
       inkscape:tiled-clone-of="#path884"
       xlink:href="#path884"
       transform="translate(762.38809,694.60316)"
       id="use2298"
       style="fill:#ffffff;fill-opacity:0.545455;stroke:#001856;stroke-opacity:0.660482"
       width="100%"
       height="100%" />
    <use
       x="0"
       y="0"
       inkscape:tiled-clone-of="#path884"
       xlink:href="#path884"
       transform="translate(763.45533,927.57621)"
       id="use2300"
       style="fill:#ffffff;fill-opacity:0.545455;stroke:#001856;stroke-opacity:0.660482"
       width="100%"
       height="100%" />
    <use
       x="0"
       y="0"
       inkscape:tiled-clone-of="#path884"
       xlink:href="#path884"
       transform="translate(761.02385,1160.0652)"
       id="use2302"
       style="fill:#ffffff;fill-opacity:0.545455;stroke:#001856;stroke-opacity:0.660482"
       width="100%"
       height="100%" />
    <use
       x="0"
       y="0"
       inkscape:tiled-clone-of="#path884"
       xlink:href="#path884"
       transform="translate(950.54478,-2.0090051)"
       id="use2304"
       style="fill:#ffffff;fill-opacity:0.545455;stroke:#001856;stroke-opacity:0.660482"
       width="100%"
       height="100%" />
    <use
       x="0"
       y="0"
       inkscape:tiled-clone-of="#path884"
       xlink:href="#path884"
       transform="translate(950.54358,230.75009)"
       id="use2306"
       style="fill:#ffffff;fill-opacity:0.545455;stroke:#001856;stroke-opacity:0.660482"
       width="100%"
       height="100%" />
    <use
       x="0"
       y="0"
       inkscape:tiled-clone-of="#path884"
       xlink:href="#path884"
       transform="translate(952.68788,458.54705)"
       id="use2308"
       style="fill:#ffffff;fill-opacity:0.545455;stroke:#001856;stroke-opacity:0.660482"
       width="100%"
       height="100%" />
    <use
       x="0"
       y="0"
       inkscape:tiled-clone-of="#path884"
       xlink:href="#path884"
       transform="translate(948.66184,694.73931)"
       id="use2310"
       style="fill:#ffffff;fill-opacity:0.545455;stroke:#001856;stroke-opacity:0.660482"
       width="100%"
       height="100%" />
    <use
       x="0"
       y="0"
       inkscape:tiled-clone-of="#path884"
       xlink:href="#path884"
       transform="translate(947.84794,928.11241)"
       id="use2312"
       style="fill:#ffffff;fill-opacity:0.545455;stroke:#001856;stroke-opacity:0.660482"
       width="100%"
       height="100%" />
    <use
       x="0"
       y="0"
       inkscape:tiled-clone-of="#path884"
       xlink:href="#path884"
       transform="translate(953.92823,1159.7326)"
       id="use2314"
       style="fill:#ffffff;fill-opacity:0.545455;stroke:#001856;stroke-opacity:0.660482"
       width="100%"
       height="100%" />
    <use
       x="0"
       y="0"
       inkscape:tiled-clone-of="#path884"
       xlink:href="#path884"
       transform="translate(1138.3626,-2.9546508)"
       id="use2316"
       style="fill:#ffffff;fill-opacity:0.545455;stroke:#001856;stroke-opacity:0.660482"
       width="100%"
       height="100%" />
    <use
       x="0"
       y="0"
       inkscape:tiled-clone-of="#path884"
       xlink:href="#path884"
       transform="translate(1144.9241,229.40986)"
       id="use2318"
       style="fill:#ffffff;fill-opacity:0.545455;stroke:#001856;stroke-opacity:0.660482"
       width="100%"
       height="100%" />
    <use
       x="0"
       y="0"
       inkscape:tiled-clone-of="#path884"
       xlink:href="#path884"
       transform="translate(1140.3221,467.60827)"
       id="use2320"
       style="fill:#ffffff;fill-opacity:0.545455;stroke:#001856;stroke-opacity:0.660482"
       width="100%"
       height="100%" />
    <use
       x="0"
       y="0"
       inkscape:tiled-clone-of="#path884"
       xlink:href="#path884"
       transform="translate(1139.0184,695.76531)"
       id="use2322"
       style="fill:#ffffff;fill-opacity:0.545455;stroke:#001856;stroke-opacity:0.660482"
       width="100%"
       height="100%" />
    <use
       x="0"
       y="0"
       inkscape:tiled-clone-of="#path884"
       xlink:href="#path884"
       transform="translate(1141.8755,925.6341)"
       id="use2324"
       style="fill:#ffffff;fill-opacity:0.545455;stroke:#001856;stroke-opacity:0.660482"
       width="100%"
       height="100%" />
    <use
       x="0"
       y="0"
       inkscape:tiled-clone-of="#path884"
       xlink:href="#path884"
       transform="translate(1141.9358,1154.2904)"
       id="use2326"
       style="fill:#ffffff;fill-opacity:0.545455;stroke:#001856;stroke-opacity:0.660482"
       width="100%"
       height="100%" />
    <use
       x="0"
       y="0"
       inkscape:tiled-clone-of="#path884"
       xlink:href="#path884"
       transform="translate(1333.8163,-4.5837817)"
       id="use2328"
       style="fill:#ffffff;fill-opacity:0.545455;stroke:#001856;stroke-opacity:0.660482"
       width="100%"
       height="100%" />
    <use
       x="0"
       y="0"
       inkscape:tiled-clone-of="#path884"
       xlink:href="#path884"
       transform="translate(1334.2796,228.17928)"
       id="use2330"
       style="fill:#ffffff;fill-opacity:0.545455;stroke:#001856;stroke-opacity:0.660482"
       width="100%"
       height="100%" />
    <use
       x="0"
       y="0"
       inkscape:tiled-clone-of="#path884"
       xlink:href="#path884"
       transform="translate(1329.8545,459.25654)"
       id="use2332"
       style="fill:#ffffff;fill-opacity:0.545455;stroke:#001856;stroke-opacity:0.660482"
       width="100%"
       height="100%" />
    <use
       x="0"
       y="0"
       inkscape:tiled-clone-of="#path884"
       xlink:href="#path884"
       transform="translate(1333.0163,690.70746)"
       id="use2334"
       style="fill:#ffffff;fill-opacity:0.545455;stroke:#001856;stroke-opacity:0.660482"
       width="100%"
       height="100%" />
    <use
       x="0"
       y="0"
       inkscape:tiled-clone-of="#path884"
       xlink:href="#path884"
       transform="translate(1338.2261,931.87259)"
       id="use2336"
       style="fill:#ffffff;fill-opacity:0.545455;stroke:#001856;stroke-opacity:0.660482"
       width="100%"
       height="100%" />
    <use
       x="0"
       y="0"
       inkscape:tiled-clone-of="#path884"
       xlink:href="#path884"
       transform="translate(1338.1207,1158.8032)"
       id="use2338"
       style="fill:#ffffff;fill-opacity:0.545455;stroke:#001856;stroke-opacity:0.660482"
       width="100%"
       height="100%" />
    <use
       x="0"
       y="0"
       inkscape:tiled-clone-of="#path884"
       xlink:href="#path884"
       transform="translate(1521.667,-1.1536945)"
       id="use2340"
       style="fill:#ffffff;fill-opacity:0.545455;stroke:#001856;stroke-opacity:0.660482"
       width="100%"
       height="100%" />
    <use
       x="0"
       y="0"
       inkscape:tiled-clone-of="#path884"
       xlink:href="#path884"
       transform="translate(1527.6527,226.66837)"
       id="use2342"
       style="fill:#ffffff;fill-opacity:0.545455;stroke:#001856;stroke-opacity:0.660482"
       width="100%"
       height="100%" />
    <use
       x="0"
       y="0"
       inkscape:tiled-clone-of="#path884"
       xlink:href="#path884"
       transform="translate(1528.628,466.2295)"
       id="use2344"
       style="fill:#ffffff;fill-opacity:0.545455;stroke:#001856;stroke-opacity:0.660482"
       width="100%"
       height="100%" />
    <use
       x="0"
       y="0"
       inkscape:tiled-clone-of="#path884"
       xlink:href="#path884"
       transform="translate(1523.7956,696.00451)"
       id="use2346"
       style="fill:#ffffff;fill-opacity:0.545455;stroke:#001856;stroke-opacity:0.660482"
       width="100%"
       height="100%" />
    <use
       x="0"
       y="0"
       inkscape:tiled-clone-of="#path884"
       xlink:href="#path884"
       transform="translate(1528.2838,928.90178)"
       id="use2348"
       style="fill:#ffffff;fill-opacity:0.545455;stroke:#001856;stroke-opacity:0.660482"
       width="100%"
       height="100%" />
    <use
       x="0"
       y="0"
       inkscape:tiled-clone-of="#path884"
       xlink:href="#path884"
       transform="translate(1528.2141,1163.8021)"
       id="use2350"
       style="fill:#ffffff;fill-opacity:0.545455;stroke:#001856;stroke-opacity:0.660482"
       width="100%"
       height="100%" />
    <use
       x="0"
       y="0"
       inkscape:tiled-clone-of="#path884"
       xlink:href="#path884"
       transform="translate(1713.2148,3.5071112)"
       id="use2352"
       style="fill:#ffffff;fill-opacity:0.545455;stroke:#001856;stroke-opacity:0.660482"
       width="100%"
       height="100%" />
    <use
       x="0"
       y="0"
       inkscape:tiled-clone-of="#path884"
       xlink:href="#path884"
       transform="translate(1719.0949,233.24629)"
       id="use2354"
       style="fill:#ffffff;fill-opacity:0.545455;stroke:#001856;stroke-opacity:0.660482"
       width="100%"
       height="100%" />
    <use
       x="0"
       y="0"
       inkscape:tiled-clone-of="#path884"
       xlink:href="#path884"
       transform="translate(1717.7217,458.14116)"
       id="use2356"
       style="fill:#ffffff;fill-opacity:0.545455;stroke:#001856;stroke-opacity:0.660482"
       width="100%"
       height="100%" />
    <use
       x="0"
       y="0"
       inkscape:tiled-clone-of="#path884"
       xlink:href="#path884"
       transform="translate(1716.4796,696.89741)"
       id="use2358"
       style="fill:#ffffff;fill-opacity:0.545455;stroke:#001856;stroke-opacity:0.660482"
       width="100%"
       height="100%" />
    <use
       x="0"
       y="0"
       inkscape:tiled-clone-of="#path884"
       xlink:href="#path884"
       transform="translate(1714.624,923.80861)"
       id="use2360"
       style="fill:#ffffff;fill-opacity:0.545455;stroke:#001856;stroke-opacity:0.660482"
       width="100%"
       height="100%" />
    <use
       x="0"
       y="0"
       inkscape:tiled-clone-of="#path884"
       xlink:href="#path884"
       transform="translate(1712.116,1163.232)"
       id="use2362"
       style="fill:#ffffff;fill-opacity:0.545455;stroke:#001856;stroke-opacity:0.660482"
       width="100%"
       height="100%" />
    <use
       x="0"
       y="0"
       inkscape:tiled-clone-of="#path884"
       xlink:href="#path884"
       transform="translate(1903.316,-2.536394)"
       id="use2364"
       style="fill:#ffffff;fill-opacity:0.545455;stroke:#001856;stroke-opacity:0.660482"
       width="100%"
       height="100%" />
    <use
       x="0"
       y="0"
       inkscape:tiled-clone-of="#path884"
       xlink:href="#path884"
       transform="translate(1901.7072,231.93429)"
       id="use2366"
       style="fill:#ffffff;fill-opacity:0.545455;stroke:#001856;stroke-opacity:0.660482"
       width="100%"
       height="100%" />
    <use
       x="0"
       y="0"
       inkscape:tiled-clone-of="#path884"
       xlink:href="#path884"
       transform="translate(1900.5814,464.15498)"
       id="use2368"
       style="fill:#ffffff;fill-opacity:0.545455;stroke:#001856;stroke-opacity:0.660482"
       width="100%"
       height="100%" />
    <use
       x="0"
       y="0"
       inkscape:tiled-clone-of="#path884"
       xlink:href="#path884"
       transform="translate(1901.8215,698.99117)"
       id="use2370"
       style="fill:#ffffff;fill-opacity:0.545455;stroke:#001856;stroke-opacity:0.660482"
       width="100%"
       height="100%" />
    <use
       x="0"
       y="0"
       inkscape:tiled-clone-of="#path884"
       xlink:href="#path884"
       transform="translate(1908.5655,921.34378)"
       id="use2372"
       style="fill:#ffffff;fill-opacity:0.545455;stroke:#001856;stroke-opacity:0.660482"
       width="100%"
       height="100%" />
    <use
       x="0"
       y="0"
       inkscape:tiled-clone-of="#path884"
       xlink:href="#path884"
       transform="translate(1903.6028,1156.7201)"
       id="use2374"
       style="fill:#ffffff;fill-opacity:0.545455;stroke:#001856;stroke-opacity:0.660482"
       width="100%"
       height="100%" />
    <use
       x="0"
       y="0"
       inkscape:tiled-clone-of="#path884"
       xlink:href="#path884"
       transform="translate(2094.2607,-1.8086705)"
       id="use2376"
       style="fill:#ffffff;fill-opacity:0.545455;stroke:#001856;stroke-opacity:0.660482"
       width="100%"
       height="100%" />
    <use
       x="0"
       y="0"
       inkscape:tiled-clone-of="#path884"
       xlink:href="#path884"
       transform="translate(2094.8984,229.03931)"
       id="use2378"
       style="fill:#ffffff;fill-opacity:0.545455;stroke:#001856;stroke-opacity:0.660482"
       width="100%"
       height="100%" />
    <use
       x="0"
       y="0"
       inkscape:tiled-clone-of="#path884"
       xlink:href="#path884"
       transform="translate(2096.1675,458.93032)"
       id="use2380"
       style="fill:#ffffff;fill-opacity:0.545455;stroke:#001856;stroke-opacity:0.660482"
       width="100%"
       height="100%" />
    <use
       x="0"
       y="0"
       inkscape:tiled-clone-of="#path884"
       xlink:href="#path884"
       transform="translate(2098.9584,699.90971)"
       id="use2382"
       style="fill:#ffffff;fill-opacity:0.545455;stroke:#001856;stroke-opacity:0.660482"
       width="100%"
       height="100%" />
    <use
       x="0"
       y="0"
       inkscape:tiled-clone-of="#path884"
       xlink:href="#path884"
       transform="translate(2093.3967,926.19117)"
       id="use2384"
       style="fill:#ffffff;fill-opacity:0.545455;stroke:#001856;stroke-opacity:0.660482"
       width="100%"
       height="100%" />
    <use
       x="0"
       y="0"
       inkscape:tiled-clone-of="#path884"
       xlink:href="#path884"
       transform="translate(2094.4949,1154.1476)"
       id="use2386"
       style="fill:#ffffff;fill-opacity:0.545455;stroke:#001856;stroke-opacity:0.660482"
       width="100%"
       height="100%" />
  </g>
  <g
     inkscape:groupmode="layer"
     id="layer3"
     inkscape:label="Fore">
    <text
       id="text862"
       y="800.18304"
       x="456.862"
       style="font-style:normal;font-variant:normal;font-weight:normal;font-stretch:normal;font-size:274.521px;line-height:1.25;font-family:'BOSTHON BRUSH';-inkscape-font-specification:'BOSTHON BRUSH';text-align:center;letter-spacing:0px;word-spacing:0px;text-anchor:middle;fill:url(#linearGradient870);fill-opacity:1;stroke:#214c80;stroke-width:1.4298;stroke-opacity:1"
       xml:space="preserve"><tspan
         style="fill:url(#linearGradient870);fill-opacity:1;stroke:#214c80;stroke-width:1.4298;stroke-opacity:1"
         y="800.18304"
         x="456.862"
         id="tspan860"
         sodipodi:role="line">Senorita</tspan></text>
    <text
       xml:space="preserve"
       style="font-size:40.7119px;line-height:1.25;font-family:Ubuntu;-inkscape-font-specification:Ubuntu;letter-spacing:0px;word-spacing:0px;stroke-width:0.424082"
       x="68.42305"
       y="821.09644"
       id="text2390"><tspan
         sodipodi:role="line"
         id="tspan2388"
         x="68.42305"
         y="821.09644"
         style="stroke-width:0.424082">but every touch is oo la la la</tspan></text>
    <text
       xml:space="preserve"
       style="font-size:64px;line-height:1.25;font-family:Ubuntu;-inkscape-font-specification:Ubuntu;letter-spacing:0px;word-spacing:0px;fill:#00ffff;fill-opacity:1;stroke:#001856;stroke-opacity:0.660482"
       x="80.115997"
       y="878.66803"
       id="text2396"><tspan
         sodipodi:role="line"
         id="tspan2394"
         x="80.115997"
         y="878.66803">Yamaha Musicsoft MIDI</tspan></text>
    <g
       id="g2474">
      <path
         id="path2458"
         d="m -88,780 -24,24 24,24 h 52 l 24,-24 -24,-24 z"
         style="fill:#f05080;fill-opacity:1;stroke:#000000;stroke-width:1px;stroke-linecap:butt;stroke-linejoin:miter;stroke-opacity:1" />
      <g
         id="g2456">
        <g
           id="g2442">
          <g
             id="g2430">
            <circle
               style="fill:#ffffff;fill-opacity:1;stroke:#000000;stroke-linecap:round;stroke-linejoin:round;stroke-dashoffset:9.44882;stroke-opacity:1"
               id="path2398"
               cx="-76"
               cy="800"
               r="12" />
            <path
               style="fill:#e10000;fill-opacity:1;stroke:#000000;stroke-width:1px;stroke-linecap:butt;stroke-linejoin:miter;stroke-opacity:1"
               d="m -80,790 c 0,-2 2,-2 2,-2 0,0 2,0 2,2 0,-2 2,-2 2,-2 0,0 2,0 2,2 0,2 -4,6 -4,6 0,0 -4,-4 -4,-6 z"
               id="path2410"
               sodipodi:nodetypes="scccscs" />
          </g>
          <g
             id="g2434">
            <circle
               r="12"
               cy="800"
               cx="-48"
               id="circle2400"
               style="fill:#ffffff;fill-opacity:1;stroke:#000000;stroke-linecap:round;stroke-linejoin:round;stroke-dashoffset:9.44882;stroke-opacity:1" />
            <path
               sodipodi:nodetypes="scccscs"
               id="path2414"
               d="m -52,790 c 0,-2 2,-2 2,-2 0,0 2,0 2,2 0,-2 2,-2 2,-2 0,0 2,0 2,2 0,2 -4,6 -4,6 0,0 -4,-4 -4,-6 z"
               style="fill:#e10000;fill-opacity:1;stroke:#000000;stroke-width:1px;stroke-linecap:butt;stroke-linejoin:miter;stroke-opacity:1" />
          </g>
        </g>
        <g
           id="g2426">
          <g
             id="g2420">
            <path
               style="fill:#3f0000;fill-opacity:1;stroke:#000000;stroke-width:1px;stroke-linecap:butt;stroke-linejoin:miter;stroke-opacity:1"
               d="m -76,816 c 0,0 8,2.03571 14,2.03571 6,0 14,-2.03571 14,-2.03571 0,0 -8,8 -14,8 -6,0 -14,-8 -14,-8 z"
               id="path2402"
               sodipodi:nodetypes="cscsc" />
            <path
               style="fill:#e10000;fill-opacity:1;stroke:#000000;stroke-width:1px;stroke-linecap:butt;stroke-linejoin:miter;stroke-opacity:1"
               d="m -71,820 c 0,0 0,2 -1,4 -1,2 -1,4 0,4 1,0 3,-1 5,-3 2,-2 0,-3 -4,-5 z"
               id="path2404"
               sodipodi:nodetypes="csssc" />
          </g>
          <path
             id="path2416"
             d="m -56,822 v 6 c 0,0 0,2 1,2 1,0 0,-6 0,-6 v -3 z"
             style="fill:#00fffc;fill-opacity:1;stroke:#000000;stroke-width:1px;stroke-linecap:butt;stroke-linejoin:miter;stroke-opacity:1" />
        </g>
      </g>
    </g>
    <g
       id="g2543"
       transform="translate(695)">
      <path
         style="fill:#f05080;fill-opacity:1;stroke:#000000;stroke-width:1px;stroke-linecap:butt;stroke-linejoin:miter;stroke-opacity:1"
         d="m -88,780 -24,24 24,24 h 52 l 24,-24 -24,-24 z"
         id="path2515" />
      <g
         id="g2541">
        <g
           id="g2529">
          <g
             id="g2521">
            <circle
               r="12"
               cy="800"
               cx="-76"
               id="circle2517"
               style="fill:#ffffff;fill-opacity:1;stroke:#000000;stroke-linecap:round;stroke-linejoin:round;stroke-dashoffset:9.44882;stroke-opacity:1" />
            <path
               sodipodi:nodetypes="scccscs"
               id="path2519"
               d="m -80,790 c 0,-2 2,-2 2,-2 0,0 2,0 2,2 0,-2 2,-2 2,-2 0,0 2,0 2,2 0,2 -4,6 -4,6 0,0 -4,-4 -4,-6 z"
               style="fill:#e10000;fill-opacity:1;stroke:#000000;stroke-width:1px;stroke-linecap:butt;stroke-linejoin:miter;stroke-opacity:1" />
          </g>
          <g
             id="g2527">
            <circle
               style="fill:#ffffff;fill-opacity:1;stroke:#000000;stroke-linecap:round;stroke-linejoin:round;stroke-dashoffset:9.44882;stroke-opacity:1"
               id="circle2523"
               cx="-48"
               cy="800"
               r="12" />
            <path
               style="fill:#e10000;fill-opacity:1;stroke:#000000;stroke-width:1px;stroke-linecap:butt;stroke-linejoin:miter;stroke-opacity:1"
               d="m -52,790 c 0,-2 2,-2 2,-2 0,0 2,0 2,2 0,-2 2,-2 2,-2 0,0 2,0 2,2 0,2 -4,6 -4,6 0,0 -4,-4 -4,-6 z"
               id="path2525"
               sodipodi:nodetypes="scccscs" />
          </g>
        </g>
        <g
           id="g2539">
          <g
             id="g2535">
            <path
               sodipodi:nodetypes="cscsc"
               id="path2531"
               d="m -76,816 c 0,0 8,2.03571 14,2.03571 6,0 14,-2.03571 14,-2.03571 0,0 -8,8 -14,8 -6,0 -14,-8 -14,-8 z"
               style="fill:#3f0000;fill-opacity:1;stroke:#000000;stroke-width:1px;stroke-linecap:butt;stroke-linejoin:miter;stroke-opacity:1" />
            <path
               sodipodi:nodetypes="csssc"
               id="path2533"
               d="m -71,820 c 0,0 0,2 -1,4 -1,2 -1,4 0,4 1,0 3,-1 5,-3 2,-2 0,-3 -4,-5 z"
               style="fill:#e10000;fill-opacity:1;stroke:#000000;stroke-width:1px;stroke-linecap:butt;stroke-linejoin:miter;stroke-opacity:1" />
          </g>
          <path
             style="fill:#00fffc;fill-opacity:1;stroke:#000000;stroke-width:1px;stroke-linecap:butt;stroke-linejoin:miter;stroke-opacity:1"
             d="m -56,822 v 6 c 0,0 0,2 1,2 1,0 0,-6 0,-6 v -3 z"
             id="path2537" />
        </g>
      </g>
    </g>
    <g
       transform="matrix(0.40889729,0,0,0.40889729,852.94084,673.42736)"
       id="g1536-6-4"
       inkscape:export-xdpi="300"
       inkscape:export-ydpi="300">
      <g
         transform="translate(-128,64)"
         id="g1492-8-7">
        <path
           inkscape:connector-curvature="0"
           style="opacity:1;fill:#ffc800;fill-opacity:1;fill-rule:nonzero;stroke:none;stroke-opacity:1"
           d="m 256,208 a 64,64 0 0 0 -64,64 64,64 0 0 0 64,64 h 64 a 64,64 0 0 0 64,-64 64,64 0 0 0 -64,-64 z"
           transform="translate(0,106.5)"
           id="path1451-5-8" />
        <path
           inkscape:connector-curvature="0"
           style="opacity:1;fill:#fffe00;fill-opacity:1;fill-rule:nonzero;stroke:none;stroke-width:1.04447;stroke-opacity:1"
           d="m 288,224 a 4,4 0 0 0 -4,4 v 40 h -40 a 4,4 0 0 0 -4,4 4,4 0 0 0 4,4 h 40 v 40 a 4,4 0 0 0 4,4 4,4 0 0 0 4,-4 v -40 h 40 a 4,4 0 0 0 4,-4 4,4 0 0 0 -4,-4 h -40 v -40 a 4,4 0 0 0 -4,-4 z"
           transform="translate(0,106.5)"
           id="rect1461-3-4" />
      </g>
      <flowRoot
         transform="translate(-108.256,129.20475)"
         style="font-style:normal;font-weight:normal;font-size:40px;line-height:0;font-family:sans-serif;letter-spacing:0px;word-spacing:0px;fill:#fffff6;fill-opacity:1;stroke:#000000;stroke-opacity:1"
         id="flowRoot1482-6-4"
         xml:space="preserve"><flowRegion
           style="line-height:0;fill:#fffff6;fill-opacity:1;stroke:#000000;stroke-opacity:1"
           id="flowRegion1484-4-7"><rect
             style="line-height:0;fill:#fffff6;fill-opacity:1;stroke:#000000;stroke-opacity:1;"
             y="272"
             x="384"
             height="128"
             width="1024"
             id="rect1486-8-8" /></flowRegion><flowPara
           style="font-style:normal;font-variant:normal;font-weight:normal;font-stretch:normal;font-size:96px;line-height:1;font-family:Ubuntu;-inkscape-font-specification:Ubuntu;fill:#fffff6;fill-opacity:1;stroke:#000000;stroke-opacity:1"
           id="flowPara1488-6-3">Perkedel </flowPara></flowRoot>
    </g>
    <text
       xml:space="preserve"
       style="font-size:51.0679px;line-height:1.25;font-family:Ubuntu;-inkscape-font-specification:Ubuntu;letter-spacing:0px;word-spacing:0px;fill:#00ff00;fill-opacity:1;stroke:#ff0000;stroke-width:0.797935;stroke-opacity:1"
       x="88.543457"
       y="593.93951"
       id="text3219"><tspan
         sodipodi:role="line"
         id="tspan3217"
         x="88.543457"
         y="593.93951"
         style="fill:#00ff00;fill-opacity:1;stroke:#ff0000;stroke-width:0.797935;stroke-opacity:1">Shawn Mendes, Camila Cabello</tspan></text>
    <path
       id="path1628"
       d="m -164,600 c 0,0 0,2 4,2 4,0 4,-4 8,-4 4,0 4,2 4,2 0,0 -2,-1 -4,-1 -2,0 -6,4 -8,4 -2,0 -4,0 -4,-3 z"
       style="fill:none;stroke:#000000;stroke-width:1px;stroke-linecap:butt;stroke-linejoin:miter;stroke-opacity:1" />
    <path
       sodipodi:nodetypes="csscssc"
       id="path1630"
       d="m -164,612 c 0,0 2,2 4,2 2,0 4,-5 8,-5 4,0 4,3 4,3 0,0 -2,-2 -4,-2 -2,0 -4,5 -8,5 -4,0 -4,-3 -4,-3 z"
       style="fill:#00ff00;stroke:#000000;stroke-width:0.5;stroke-linecap:round;stroke-linejoin:round;stroke-opacity:1;stroke-miterlimit:4;stroke-dasharray:none;fill-opacity:1" />
    <path
       inkscape:transform-center-y="-4.2805094"
       inkscape:transform-center-x="-3.2103831"
       style="fill:#00ff00;fill-opacity:1;stroke:#0071cb;stroke-width:3.54682;stroke-linecap:round;stroke-linejoin:round;stroke-miterlimit:4;stroke-dasharray:none;stroke-opacity:1"
       d="m 296.14983,597.31223 c 0,0 10.03192,17.37582 23.7358,21.04776 13.70387,3.67195 36.58761,-26.9158 63.99534,-19.57193 27.40777,7.34389 21.89985,27.89971 21.89985,27.89971 0,0 -10.03194,-17.37582 -23.73582,-21.04776 -13.70385,-3.67195 -36.58759,26.9158 -63.99534,19.57191 -27.40775,-7.34387 -21.89983,-27.89969 -21.89983,-27.89969 z"
       id="path1632"
       sodipodi:nodetypes="csscssc" />
  </g>
  <g
     inkscape:groupmode="layer"
     id="layer4"
     inkscape:label="Version">
    <rect
       style="fill:#f05080;fill-opacity:0.5;stroke:#000000;stroke-linecap:round;stroke-linejoin:round;stroke-dashoffset:9.44882;stroke-opacity:1"
       id="rect2513"
       width="1056"
       height="144"
       x="80"
       y="888.5" />
    <g
       inkscape:groupmode="layer"
       id="layer5"
       inkscape:label="PSR-SX900-XT3">
      <text
         xml:space="preserve"
         style="font-size:133.077px;line-height:1.25;font-family:Ubuntu;-inkscape-font-specification:Ubuntu;letter-spacing:0px;word-spacing:0px;stroke-width:2.07932"
         x="103.30592"
         y="996.59619"
         id="text2511"><tspan
           sodipodi:role="line"
           id="tspan2509"
           x="103.30592"
           y="996.59619"
           style="stroke-width:2.07932">PSR SX900 ; XT3</tspan></text>
    </g>
  </g>
</svg>
