<?xml version="1.0" encoding="UTF-8" standalone="no"?>
<svg
   xmlns:dc="http://purl.org/dc/elements/1.1/"
   xmlns:cc="http://creativecommons.org/ns#"
   xmlns:rdf="http://www.w3.org/1999/02/22-rdf-syntax-ns#"
   xmlns:svg="http://www.w3.org/2000/svg"
   xmlns="http://www.w3.org/2000/svg"
   xmlns:sodipodi="http://sodipodi.sourceforge.net/DTD/sodipodi-0.dtd"
   xmlns:inkscape="http://www.inkscape.org/namespaces/inkscape"
   inkscape:export-ydpi="96"
   inkscape:export-xdpi="96"
   inkscape:export-filename="C:\Users\joelr\Documents\starring codes\After Church\RAW files\Inkscape\Sideborder.svg.png"
   sodipodi:docname="Sideborder.svg"
   inkscape:version="1.0 (4035a4fb49, 2020-05-01)"
   id="svg8"
   version="1.1"
   viewBox="0 0 1920 1080"
   height="1080"
   width="1920">
  <defs
     id="defs2" />
  <sodipodi:namedview
     inkscape:window-maximized="1"
     inkscape:window-y="-9"
     inkscape:window-x="-9"
     inkscape:window-height="1051"
     inkscape:window-width="1920"
     inkscape:snap-bbox-midpoints="true"
     inkscape:snap-bbox-edge-midpoints="true"
     inkscape:bbox-nodes="true"
     inkscape:bbox-paths="true"
     inkscape:snap-bbox="true"
     units="px"
     showgrid="true"
     inkscape:document-rotation="0"
     inkscape:current-layer="layer1"
     inkscape:document-units="px"
     inkscape:cy="400.16574"
     inkscape:cx="1561.2426"
     inkscape:zoom="0.35"
     inkscape:pageshadow="2"
     inkscape:pageopacity="0.0"
     borderopacity="1.0"
     bordercolor="#666666"
     pagecolor="#ffffff"
     id="base">
    <inkscape:grid
       id="grid842"
       type="xygrid" />
  </sodipodi:namedview>
  <metadata
     id="metadata5">
    <rdf:RDF>
      <cc:Work
         rdf:about="">
        <dc:format>image/svg+xml</dc:format>
        <dc:type
           rdf:resource="http://purl.org/dc/dcmitype/StillImage" />
        <dc:title></dc:title>
        <cc:license
           rdf:resource="http://creativecommons.org/licenses/by-sa/4.0/" />
      </cc:Work>
      <cc:License
         rdf:about="http://creativecommons.org/licenses/by-sa/4.0/">
        <cc:permits
           rdf:resource="http://creativecommons.org/ns#Reproduction" />
        <cc:permits
           rdf:resource="http://creativecommons.org/ns#Distribution" />
        <cc:requires
           rdf:resource="http://creativecommons.org/ns#Notice" />
        <cc:requires
           rdf:resource="http://creativecommons.org/ns#Attribution" />
        <cc:permits
           rdf:resource="http://creativecommons.org/ns#DerivativeWorks" />
        <cc:requires
           rdf:resource="http://creativecommons.org/ns#ShareAlike" />
      </cc:License>
    </rdf:RDF>
  </metadata>
  <g
     id="layer1"
     inkscape:groupmode="layer"
     inkscape:label="Lapis 1">
    <rect
       y="120"
       x="1080"
       height="120"
       width="1280"
       id="rect844"
       style="fill:#ffff00;fill-opacity:1;stroke:#ffffff;stroke-linecap:round;stroke-linejoin:round;stroke-dashoffset:9.44882" />
    <rect
       y="280"
       x="1080"
       height="120"
       width="800"
       id="rect846"
       style="fill:#ffff7d;fill-opacity:1;stroke:#ffffff;stroke-linecap:round;stroke-linejoin:round;stroke-dashoffset:9.44882" />
    <rect
       y="440"
       x="1080"
       height="120"
       width="800"
       id="rect848"
       style="fill:#ff007d;fill-opacity:1;stroke:#ffffff;stroke-linecap:round;stroke-linejoin:round;stroke-dashoffset:9.44882" />
    <rect
       y="600"
       x="1080"
       height="440"
       width="800"
       id="rect850"
       style="fill:#007d7d;fill-opacity:1;stroke:#ffffff;stroke-linecap:round;stroke-linejoin:round;stroke-dashoffset:9.44882" />
    <text
       id="text854"
       y="240"
       x="80"
       style="font-size:96px;line-height:1.25;font-family:Ubuntu;-inkscape-font-specification:Ubuntu;letter-spacing:0px;word-spacing:0px;fill:#000000;fill-opacity:1;stroke:#ffffff;stroke-opacity:1;stroke-width:0.5;stroke-miterlimit:4;stroke-dasharray:none"
       xml:space="preserve"><tspan
         y="240"
         x="80"
         id="tspan852"
         sodipodi:role="line">Side border</tspan></text>
    <text
       id="text858"
       y="320"
       x="80"
       style="font-size:64px;line-height:1.25;font-family:Ubuntu;-inkscape-font-specification:Ubuntu;letter-spacing:0px;word-spacing:0px;white-space:pre;inline-size:920;fill:#000000;fill-opacity:1;stroke:#ffffff;stroke-opacity:1;stroke-width:0.5;stroke-miterlimit:4;stroke-dasharray:none"
       xml:space="preserve"><tspan
         x="80"
         y="320"><tspan
           style="fill:#000000;fill-opacity:1;stroke:#ffffff;stroke-width:0.5;stroke-miterlimit:4;stroke-dasharray:none;stroke-opacity:1">Comprehensive guide to flef </tspan></tspan><tspan
         x="80"
         y="400"><tspan
           style="fill:#000000;fill-opacity:1;stroke:#ffffff;stroke-width:0.5;stroke-miterlimit:4;stroke-dasharray:none;stroke-opacity:1">everything from ground zero</tspan></tspan></text>
    <g
       id="g918">
      <text
         xml:space="preserve"
         style="font-size:64px;line-height:1.25;font-family:Ubuntu;-inkscape-font-specification:Ubuntu;letter-spacing:0px;word-spacing:0px"
         x="2460"
         y="240"
         id="text862"><tspan
           sodipodi:role="line"
           id="tspan860"
           x="2460"
           y="240">hair</tspan><tspan
           sodipodi:role="line"
           x="2460"
           y="320"
           id="tspan864">face</tspan><tspan
           sodipodi:role="line"
           x="2460"
           y="400"
           id="tspan868">torso</tspan><tspan
           sodipodi:role="line"
           x="2460"
           y="480"
           id="tspan872">leg</tspan></text>
      <g
         id="g902">
        <path
           id="path874"
           d="m 2460,240 c -5.817,-1.88154 -11.5379,-4.09156 -17.4511,-5.64461 -9.5263,-2.50198 2.89,5.00396 -12.1219,0 -3.7252,-1.24175 -6.4556,-4.60255 -10.1015,-6.06091 -22.987,-9.1948 1.681,5.28977 -18.1827,-6.06092 -4.8615,-2.77795 -14.5605,-9.01652 -12.1219,-8.08122 3.5997,1.38063 6.6527,3.89844 9.9791,5.84766"
           style="fill:none;stroke:#000000;stroke-width:1px;stroke-linecap:butt;stroke-linejoin:miter;stroke-opacity:1" />
        <path
           id="path876"
           d="m 2400,180 c -9.969,20.07048 -0.072,-1.00302 -14.0197,42.23356 -11.0075,34.12334 -10.1015,17.3844 -10.1015,36.36549 0,0.67344 0.1633,-1.36698 0,-2.0203 -1.1891,-4.7563 -3.3927,-9.28247 -4.0406,-14.14214 -1.2914,-9.68547 -2.0049,-28.36133 0,-38.3858 0.1578,-0.78896 20.6481,-1.4817 28.1618,-4.05081"
           style="fill:none;stroke:#000000;stroke-width:1px;stroke-linecap:butt;stroke-linejoin:miter;stroke-opacity:1" />
        <path
           id="path878"
           d="m 2460,300 c -94.2542,19.92348 -190.5467,19.95773 -286.1517,25.26912 -23.6203,1.31223 -47.0961,4.65109 -70.7107,6.06091 -24.687,1.47386 -66.4695,4.04061 -94.9543,4.04061 -0.9841,0 -28.6933,14.6956 -30.3046,10.10153 -0.6475,-1.84606 1.4142,-3.64811 2.1213,-5.47217"
           style="fill:none;stroke:#000000;stroke-width:1px;stroke-linecap:butt;stroke-linejoin:miter;stroke-opacity:1" />
        <path
           id="path880"
           d="m 1980,320 c 29.9299,-19.9204 30.8798,59.9214 30.2036,59.81736 -19.0429,-2.92967 -47.3308,-33.51376 -58.5889,-42.42641 -19.4321,-15.38379 -27.9779,-8.85267 16.1625,-20.20305 9.0243,-2.32054 50.3674,-10.21752 64.6497,-12.12183 1.2294,-0.16392 16.1792,0.16706 16.1625,0 -0.3318,-3.30743 -5.7263,-3.37738 -8.5894,-5.06607"
           style="fill:none;stroke:#000000;stroke-width:1px;stroke-linecap:butt;stroke-linejoin:miter;stroke-opacity:1" />
        <path
           id="path886"
           d="m 2440,400 c -0.4973,2.02711 0.5471,5.63461 -1.4918,6.08132 -8.5518,1.87371 -17.5527,-0.87112 -26.2639,0 -4.8784,0.48784 -9.3347,3.07912 -14.1422,4.04061 -8.2216,1.64434 -21.8963,2.10025 -30.3045,4.04061 -20.3736,4.7016 -39.9226,13.1203 -60.6092,16.16244 -15.382,2.26207 -31.0021,2.44079 -46.467,4.04061 -14.351,1.48459 -14.0269,3.49076 -30.3046,6.06092 -21.3343,3.36857 -43.2294,3.49048 -64.6497,6.06091 -8.7946,1.05535 -17.4568,3.09698 -26.264,4.04061 -30.2048,3.23623 -60.6878,2.02555 -90.9137,4.04062 -10.1016,0.67343 -20.2695,0.68228 -30.3046,2.0203 -9.117,1.21559 -31.3244,13.02097 -38.2848,3.41105"
           style="fill:none;stroke:#000000;stroke-width:1px;stroke-linecap:butt;stroke-linejoin:miter;stroke-opacity:1" />
        <path
           id="path888"
           d="m 1980,420 c 4.6804,12.19632 9.3607,24.39263 14.0411,36.58895 2.6938,11.4484 4.196,23.24443 8.0812,34.34519 0.9439,2.69673 8.0813,4.04061 6.061,6.06091 -2.8572,2.85714 -8.1505,0.74464 -12.1219,0 -6.9104,-1.29571 -13.4199,-4.21097 -20.203,-6.06091 -2.9508,-0.80475 -30.5173,-4.2533 -32.3249,-6.06092 -0.9524,-0.95238 0,-2.69374 0,-4.04061 0,-2.0203 -1.0708,-4.3477 0,-6.06091 2.5238,-4.03809 6.8265,-6.64461 10.1015,-10.10153 11.4671,-12.10415 21.3254,-25.94966 34.3452,-36.36549 7.1439,-5.71511 0.8988,7.19432 12.0198,-8.30468"
           style="fill:none;stroke:#000000;stroke-width:1px;stroke-linecap:butt;stroke-linejoin:miter;stroke-opacity:1" />
        <path
           id="path890"
           d="m 2440,460 c -18.626,18.6313 -41.137,32.89517 -60.0806,51.13719 -21.2777,20.48959 -42.3198,41.45356 -60.6092,64.64976 -14.7438,18.69947 -23.3883,45.36508 -34.3451,66.67007 -22.2463,43.25665 -53.158,106.31781 -98.995,131.31983 -36.7541,20.04769 -59.8283,25.69673 -98.9949,30.30458 -9.3669,1.10198 -21.4675,-1.21694 -30.3046,-2.02031 -4.9745,-0.45223 -8.4004,1.21926 3.3294,-2.06112"
           style="fill:none;stroke:#000000;stroke-width:1px;stroke-linecap:butt;stroke-linejoin:miter;stroke-opacity:1" />
        <path
           id="path892"
           d="m 2040,760 c 17.472,28.02414 6.1038,5.54663 14.6503,60.24387 0.9585,6.13433 4.7262,12.01195 4.0406,18.18274 -0.2231,2.00795 -4.1088,0.52056 -6.0609,0 -8.2308,-2.19486 -16.1625,-5.38748 -24.2437,-8.08122 -2.0203,-0.67343 -4.0406,-1.34687 -6.0609,-2.0203 -5.3875,-2.69374 -10.49,-6.05534 -16.1624,-8.08122 -3.0912,-1.10397 -33.0356,-8.79187 -34.3452,-10.10153 -5.553,-5.55295 15.3188,-13.46726 26.2639,-22.22336 5.2058,-4.16463 8.8088,-10.14213 14.1422,-14.14213 2.9012,-2.17594 6.9917,-2.17476 10.1015,-4.04061 4.4896,-2.69374 -5.163,-2.02031 2.0203,-2.02031 1.3469,0 4.7016,1.17355 4.0406,0 -1.8641,-3.30978 -5.5909,-5.14395 -8.3863,-7.71593"
           style="fill:none;stroke:#000000;stroke-width:1px;stroke-linecap:butt;stroke-linejoin:miter;stroke-opacity:1" />
      </g>
    </g>
    <text
       id="text922"
       y="920"
       x="2060"
       style="font-size:64px;line-height:1.25;font-family:Ubuntu;-inkscape-font-specification:Ubuntu;letter-spacing:0px;word-spacing:0px"
       xml:space="preserve"><tspan
         y="920"
         x="2060"
         id="tspan920"
         sodipodi:role="line">lol this looks like Star Butterfly season 1</tspan></text>
    <g
       transform="translate(16,533.5)"
       id="g1536-6-4"
       inkscape:export-xdpi="300"
       inkscape:export-ydpi="300">
      <g
         transform="translate(-128,64)"
         id="g1492-8-7">
        <path
           inkscape:connector-curvature="0"
           style="opacity:1;fill:#ffc800;fill-opacity:1;fill-rule:nonzero;stroke:none;stroke-opacity:1"
           d="m 256,208 a 64,64 0 0 0 -64,64 64,64 0 0 0 64,64 h 64 a 64,64 0 0 0 64,-64 64,64 0 0 0 -64,-64 z"
           transform="translate(0,106.5)"
           id="path1451-5-8" />
        <path
           inkscape:connector-curvature="0"
           style="opacity:1;fill:#fffe00;fill-opacity:1;fill-rule:nonzero;stroke:none;stroke-width:1.04447;stroke-opacity:1"
           d="m 288,224 a 4,4 0 0 0 -4,4 v 40 h -40 a 4,4 0 0 0 -4,4 4,4 0 0 0 4,4 h 40 v 40 a 4,4 0 0 0 4,4 4,4 0 0 0 4,-4 v -40 h 40 a 4,4 0 0 0 4,-4 4,4 0 0 0 -4,-4 h -40 v -40 a 4,4 0 0 0 -4,-4 z"
           transform="translate(0,106.5)"
           id="rect1461-3-4" />
      </g>
      <flowRoot
         transform="translate(-108.256,129.20475)"
         style="font-style:normal;font-weight:normal;font-size:40px;line-height:0;font-family:sans-serif;letter-spacing:0px;word-spacing:0px;fill:#fffff6;fill-opacity:1;stroke:#000000;stroke-opacity:1"
         id="flowRoot1482-6-4"
         xml:space="preserve"><flowRegion
           style="line-height:0;fill:#fffff6;fill-opacity:1;stroke:#000000;stroke-opacity:1"
           id="flowRegion1484-4-7"><rect
             style="line-height:0;fill:#fffff6;fill-opacity:1;stroke:#000000;stroke-opacity:1;"
             y="272"
             x="384"
             height="128"
             width="1024"
             id="rect1486-8-8" /></flowRegion><flowPara
           style="font-style:normal;font-variant:normal;font-weight:normal;font-stretch:normal;font-size:96px;line-height:1;font-family:Ubuntu;-inkscape-font-specification:Ubuntu;fill:#fffff6;fill-opacity:1;stroke:#000000;stroke-opacity:1"
           id="flowPara1488-6-3">Perkedel </flowPara></flowRoot>
    </g>
  </g>
</svg>
