<?xml version="1.0" encoding="UTF-8" standalone="no"?>
<svg
   xmlns:dc="http://purl.org/dc/elements/1.1/"
   xmlns:cc="http://creativecommons.org/ns#"
   xmlns:rdf="http://www.w3.org/1999/02/22-rdf-syntax-ns#"
   xmlns:svg="http://www.w3.org/2000/svg"
   xmlns="http://www.w3.org/2000/svg"
   xmlns:xlink="http://www.w3.org/1999/xlink"
   xmlns:sodipodi="http://sodipodi.sourceforge.net/DTD/sodipodi-0.dtd"
   xmlns:inkscape="http://www.inkscape.org/namespaces/inkscape"
   inkscape:export-ydpi="96.000008"
   inkscape:export-xdpi="96.000008"
   inkscape:export-filename="C:\Users\joelr\Documents\starring codes\After Church\RAW files\Inkscape\Treasure_Chest_Info_Zetrix.png"
   sodipodi:docname="Treasure_Chest_Info_Zetrix.svg"
   inkscape:version="1.0 (4035a4fb49, 2020-05-01)"
   id="svg8"
   version="1.1"
   viewBox="0 0 541.86665 541.86668"
   height="2048"
   width="2048">
  <defs
     id="defs2">
    <linearGradient
       id="linearGradient932"
       inkscape:collect="always">
      <stop
         id="stop928"
         offset="0"
         style="stop-color:#ffffff;stop-opacity:1;" />
      <stop
         style="stop-color:#ffd5e6;stop-opacity:0.74901962"
         offset="0.25"
         id="stop940" />
      <stop
         style="stop-color:#00ffff;stop-opacity:0.49803922"
         offset="0.5"
         id="stop936" />
      <stop
         id="stop938"
         offset="0.75"
         style="stop-color:#ffff00;stop-opacity:0.24705882" />
      <stop
         id="stop930"
         offset="1"
         style="stop-color:#ffffff;stop-opacity:0;" />
    </linearGradient>
    <linearGradient
       id="linearGradient854"
       inkscape:collect="always">
      <stop
         id="stop850"
         offset="0"
         style="stop-color:#00dd68;stop-opacity:1;" />
      <stop
         id="stop852"
         offset="1"
         style="stop-color:#00ddff;stop-opacity:1" />
    </linearGradient>
    <radialGradient
       gradientUnits="userSpaceOnUse"
       gradientTransform="matrix(1,0,0,0.53700613,0,129.36049)"
       r="237.72813"
       fy="279.39999"
       fx="270.93333"
       cy="279.39999"
       cx="270.93333"
       id="radialGradient856"
       xlink:href="#linearGradient854"
       inkscape:collect="always" />
    <radialGradient
       gradientUnits="userSpaceOnUse"
       r="270.93332"
       fy="270.93332"
       fx="270.93332"
       cy="270.93332"
       cx="270.93332"
       id="radialGradient934"
       xlink:href="#linearGradient932"
       inkscape:collect="always" />
  </defs>
  <sodipodi:namedview
     inkscape:snap-bbox-midpoints="true"
     inkscape:snap-bbox-edge-midpoints="true"
     inkscape:bbox-nodes="true"
     inkscape:bbox-paths="true"
     inkscape:snap-bbox="true"
     inkscape:window-maximized="1"
     inkscape:window-y="-9"
     inkscape:window-x="-9"
     inkscape:window-height="1051"
     inkscape:window-width="1920"
     units="px"
     showgrid="true"
     inkscape:document-rotation="0"
     inkscape:current-layer="layer1"
     inkscape:document-units="px"
     inkscape:cy="1095.2434"
     inkscape:cx="908.10843"
     inkscape:zoom="0.35"
     inkscape:pageshadow="2"
     inkscape:pageopacity="0.0"
     borderopacity="1.0"
     bordercolor="#666666"
     pagecolor="#ffffff"
     id="base">
    <inkscape:grid
       empspacing="4"
       id="grid842"
       type="xygrid" />
    <inkscape:grid
       empspacing="128"
       id="grid844"
       type="xygrid" />
  </sodipodi:namedview>
  <metadata
     id="metadata5">
    <rdf:RDF>
      <cc:Work
         rdf:about="">
        <dc:format>image/svg+xml</dc:format>
        <dc:type
           rdf:resource="http://purl.org/dc/dcmitype/StillImage" />
        <dc:title></dc:title>
        <cc:license
           rdf:resource="http://creativecommons.org/licenses/by-sa/4.0/" />
      </cc:Work>
      <cc:License
         rdf:about="http://creativecommons.org/licenses/by-sa/4.0/">
        <cc:permits
           rdf:resource="http://creativecommons.org/ns#Reproduction" />
        <cc:permits
           rdf:resource="http://creativecommons.org/ns#Distribution" />
        <cc:requires
           rdf:resource="http://creativecommons.org/ns#Notice" />
        <cc:requires
           rdf:resource="http://creativecommons.org/ns#Attribution" />
        <cc:permits
           rdf:resource="http://creativecommons.org/ns#DerivativeWorks" />
        <cc:requires
           rdf:resource="http://creativecommons.org/ns#ShareAlike" />
      </cc:License>
    </rdf:RDF>
  </metadata>
  <g
     id="layer1"
     inkscape:groupmode="layer"
     inkscape:label="Lapis 1">
    <circle
       r="270.93332"
       cy="270.93332"
       cx="270.93332"
       id="path916"
       style="fill:url(#radialGradient934);fill-opacity:1;stroke:none;stroke-width:2.64583;stroke-linecap:round;stroke-linejoin:round;stroke-miterlimit:4;stroke-dasharray:none;stroke-dashoffset:9.44882;stroke-opacity:1" />
    <rect
       y="135.46666"
       x="33.866665"
       height="270.93332"
       width="474.13333"
       id="rect846"
       style="fill:#001d68;stroke:#4f1c7a;stroke-width:1.32292;stroke-linecap:round;stroke-linejoin:round;stroke-dashoffset:9.44882;fill-opacity:1" />
    <rect
       y="152.39999"
       x="33.866665"
       height="254"
       width="474.13333"
       id="rect848"
       style="fill:url(#radialGradient856);fill-opacity:1;stroke:#4f007a;stroke-width:1.32292;stroke-linecap:round;stroke-linejoin:round;stroke-dashoffset:9.44882;stroke-opacity:1" />
    <path
       id="path858"
       d="m 485.17258,138.03925 5.89408,5.89408 -5.89408,5.89409 5.89408,-5.89409 5.89408,5.89409 -5.89408,-5.89409 5.89408,-5.89408 -5.89408,5.89408 z"
       style="fill:none;stroke:#ffffff;stroke-width:0.92095;stroke-linecap:round;stroke-linejoin:round;stroke-miterlimit:4;stroke-dasharray:none;stroke-opacity:1" />
    <path
       d="m 49.019425,301.93977 c 3.039298,-9.12466 6.678559,-18.03649 9.922978,-27.09034 1.277186,-3.91914 2.044698,-6.25605 3.271827,-10.08531 0.341344,-1.06516 1.449033,-4.47335 1.781323,-5.81723 0.21953,-0.88784 0.345139,-1.9131 0.473147,-2.83126 0.04018,0.53556 0.12002,-1.0702 -0.145489,-0.91346 -0.247931,0.14636 -0.483233,0.39114 -0.541184,0.67315 -0.231373,1.12591 1.208852,5.00439 1.508437,5.96833 3.074257,8.45952 6.147884,16.91979 8.929065,25.4808 2.430497,7.82278 4.952241,15.62127 7.082028,23.53294 0.144907,0.57915 0.289817,1.15827 0.434724,1.73742 0.0085,0.0445 0.638101,-0.0751 0.629639,-0.11965 v 0 c -0.120867,-0.58989 -0.241736,-1.17978 -0.362606,-1.76969 -1.988336,-7.96311 -4.642749,-15.73377 -6.989998,-23.59475 -2.76479,-8.5699 -5.853355,-17.02781 -9.047543,-25.44648 -0.258879,-0.78917 -1.194914,-3.56121 -1.440659,-4.57027 -0.09338,-0.38341 -0.03359,-0.80353 -0.179596,-1.17014 -0.07041,-0.1768 -0.307288,-0.22892 -0.434094,-0.37082 -0.02521,-0.0282 0.0044,-0.15119 0.0013,-0.11348 -0.01617,0.19943 -0.02709,0.39926 -0.04064,0.5989 -0.150397,0.88584 -0.303959,1.88772 -0.539261,2.74085 -0.355597,1.28927 -1.572612,4.77533 -1.908267,5.76862 -1.111544,3.28933 -2.26668,6.75706 -3.363349,10.03914 -3.259788,9.071 -6.918748,18.02405 -9.610717,27.2846 -0.0048,0.0402 0.564097,0.10835 0.568915,0.0681 z"
       id="path860"
       style="fill:#00ddff;fill-opacity:1;stroke:#ffffff;stroke-width:2.64583;stroke-linecap:round;stroke-linejoin:round;stroke-miterlimit:4;stroke-dasharray:none;stroke-dashoffset:9.44882;stroke-opacity:1" />
    <path
       d="m 56.251458,281.33812 c 3.132834,-0.74014 6.327021,-1.10352 9.537819,-1.24052 1.422001,-0.089 2.82225,0.0677 4.217707,0.3075 0.471647,0.0541 0.215202,0.0328 0.770028,0.0548 0.03818,0.0106 0.18647,-0.52943 0.148293,-0.53993 v 0 c -0.509518,0 -0.274912,0.013 -0.704286,-0.0257 -1.526304,-0.27167 -3.046637,-0.53482 -4.611375,-0.40544 -3.227422,0.13581 -6.442324,0.50027 -9.574011,1.32437 -0.03712,0.0153 0.178702,0.54023 0.215825,0.52499 z"
       id="path862"
       style="fill:#00ff00;fill-opacity:1;stroke:#ffffff;stroke-width:2.64583;stroke-linecap:round;stroke-linejoin:round;stroke-miterlimit:4;stroke-dasharray:none;stroke-dashoffset:9.44882;stroke-opacity:1" />
    <path
       d="m 204.78203,198.57386 c -3.1769,0.1721 -6.44727,0.73191 -9.31725,2.18028 -0.67415,0.34022 -1.28566,0.79245 -1.9285,1.18868 -1.40112,1.05408 -2.76486,2.16734 -3.69267,3.68195 -0.66528,1.08606 -1.09694,2.35594 -1.54819,3.54086 -0.0937,0.37153 -0.21567,0.73705 -0.28113,1.11458 -0.10617,0.61232 -0.22076,2.35702 -0.24776,2.90676 -0.10771,2.19313 -0.095,4.38699 -0.0826,6.58182 0.11634,3.67382 1.29564,7.0356 3.56041,9.9365 0.43207,0.55344 0.92679,1.05498 1.39018,1.58247 2.58503,2.68104 4.91612,5.58019 7.74119,8.0174 2.65797,1.92741 5.06344,1.93057 8.19212,1.84595 1.75191,-0.0903 3.55206,-0.16472 5.24152,-0.69694 2.9123,-0.91744 5.51096,-2.53043 8.10441,-4.09123 3.80211,-2.91818 7.30863,-6.55097 9.16018,-11.06098 1.34953,-3.2872 1.32911,-4.71274 1.82953,-8.21022 0.0199,-1.3854 0.14312,-2.77318 0.0597,-4.15621 -0.17949,-2.97554 -0.87008,-6.64481 -2.78515,-9.06684 -1.16428,-1.47249 -2.05675,-1.64155 -3.68111,-2.36799 -2.97702,-0.81301 -6.10189,-0.88577 -9.05793,-1.78381 -2.04323,-0.62072 -2.21244,-0.8301 -4.09511,-1.83531 -1.92261,-0.92872 -4.164,-3.86892 -6.24409,-4.27532 -0.29325,-0.0573 -0.59739,-0.0157 -0.89609,-0.0236 -0.24199,0.082 -0.4991,0.12851 -0.72596,0.24606 -0.98638,0.51112 -1.75524,1.18765 -2.57299,1.94235 -1.75558,1.62024 -3.2424,3.39073 -4.68014,5.29015 -0.0245,0.0402 0.54448,0.38711 0.56901,0.34688 v 0 c 1.4243,-1.85187 2.89425,-3.60303 4.59479,-5.21288 0.70592,-0.66828 1.5027,-1.39619 2.37568,-1.86738 0.18069,-0.0975 0.39064,-0.12664 0.58596,-0.18997 1.316,-0.10029 2.43357,1.06509 3.37458,1.82773 2.18229,1.76863 0.77491,0.70529 3.20552,2.44424 1.91734,1.03037 2.13639,1.2689 4.21403,1.91037 2.92519,0.90314 6.01704,1.00503 8.98372,1.72503 1.47107,0.61904 2.37689,0.78421 3.42439,2.10811 1.84399,2.33055 2.46893,5.9177 2.633,8.77263 0.0779,1.35567 -0.0406,2.7155 -0.0609,4.07326 -0.46507,3.31678 -0.47113,4.88117 -1.74017,8.00093 -1.79207,4.40553 -5.24264,7.96033 -8.94577,10.80712 -2.52392,1.52881 -5.06767,3.14084 -7.90115,4.05473 -1.65417,0.53352 -3.42165,0.59441 -5.13855,0.694 -2.88175,0.0994 -5.09152,0.0863 -7.55599,-1.66032 -2.79539,-2.43212 -5.0913,-5.32997 -7.66864,-7.98312 -0.45194,-0.50922 -0.93489,-0.99251 -1.35581,-1.52765 -2.21289,-2.81334 -3.35889,-6.04342 -3.46362,-9.61942 -0.0132,-2.18147 -0.0431,-4.3653 0.0389,-6.54598 0.0182,-0.48392 0.11293,-2.24584 0.20852,-2.81546 0.0601,-0.35794 0.17767,-0.70381 0.2665,-1.05571 0.44254,-1.13807 0.86549,-2.3631 1.51351,-3.40472 0.90179,-1.44956 2.23097,-2.502 3.58964,-3.49716 0.61892,-0.37663 1.20881,-0.80572 1.85675,-1.12987 2.73149,-1.36648 5.80555,-1.89099 8.81246,-2.19339 0.0388,0.01 0.17989,-0.53937 0.14104,-0.54934 z"
       id="path864"
       style="fill:#00ff00;fill-opacity:1;stroke:#ffffff;stroke-width:2.64583;stroke-linecap:round;stroke-linejoin:round;stroke-miterlimit:4;stroke-dasharray:none;stroke-dashoffset:9.44882;stroke-opacity:1" />
    <path
       d="m 235.28465,217.83206 c 3.00114,0.13495 5.98706,-0.0582 8.97071,-0.36639 5.72072,-0.38855 11.41446,-1.01413 17.10693,-1.69569 7.59884,-0.98427 15.26223,-1.19145 22.91101,-0.91569 1.84021,0.1127 3.68957,0.24252 5.53413,0.13568 0.8545,-0.0495 1.7121,-0.21613 2.56498,-0.29537 3.59116,-0.23335 7.19569,-0.13213 10.79138,-0.0805 5.44443,0.0863 10.88953,0.11192 16.33458,0.10707 0.83179,-0.006 1.66359,-0.0125 2.49542,-0.0188 0.0467,-0.0121 -0.12454,-0.67256 -0.17124,-0.66046 v 0 c -0.83347,-0.002 -1.66693,-0.003 -2.50042,-0.005 -5.32815,0.005 -10.65633,0.005 -15.98406,-0.0753 -3.7197,-0.0329 -7.45054,-0.12902 -11.16206,0.17287 -2.56902,0.2891 -5.12119,0.40826 -7.70347,0.0444 -7.805,-0.37982 -15.62741,-0.16953 -23.38301,0.85067 -5.67058,0.70068 -11.34052,1.42236 -17.03978,1.84356 -2.9639,0.27955 -5.92705,0.46681 -8.90615,0.40948 -0.0388,0.01 0.1022,0.55931 0.14105,0.54934 z"
       id="path866"
       style="fill:#00ff00;fill-opacity:1;stroke:#ffffff;stroke-width:2.64583;stroke-linecap:round;stroke-linejoin:round;stroke-miterlimit:4;stroke-dasharray:none;stroke-dashoffset:9.44882;stroke-opacity:1" />
    <path
       d="m 321.50621,210.71724 c -0.12713,6.65946 -0.12742,13.3205 -0.0776,19.98072 0.0326,0.3184 -0.21844,2.95781 1.18354,2.8776 1.35982,-0.0778 3.70519,-2.21827 4.44933,-2.8672 1.69403,-1.47726 3.83495,-3.63012 5.42992,-5.19806 2.2444,-1.97838 4.31797,-4.28827 7.04813,-5.63135 0.75398,-0.3709 1.56138,-0.62286 2.35431,-0.90088 2.52743,-0.88617 3.22847,-1.03045 5.80845,-1.73847 -0.0153,-1.4139 2.9464,0.0808 3.45742,-1.0052 0.13327,-0.28321 -0.2526,-0.64518 -0.54057,-0.76777 -0.70221,-0.29892 -1.49762,-0.29621 -2.25063,-0.42039 -1.21039,-0.19962 -2.42922,-0.34619 -3.63876,-0.55085 -1.5344,-0.25963 -3.06136,-0.56125 -4.59205,-0.84187 -5.89175,-1.39398 -12.05783,-2.28205 -17.5803,-4.91079 -1.94815,-0.92733 -2.5161,-1.48993 -4.11228,-2.73353 -0.73216,-0.86394 -1.68048,-1.75761 -1.57401,-2.99326 0.0463,-0.53689 0.23043,-0.43975 0.55504,-0.24082 1.54035,0.94963 2.93921,2.11572 4.3683,3.22371 0.47662,0.61763 0.31041,0.28822 0.52721,0.97329 0.0106,0.0389 0.56039,-0.11078 0.5498,-0.14965 v 0 c -0.29273,-0.87179 -0.0793,-0.46124 -0.65566,-1.22352 -1.46841,-1.17336 -2.92767,-2.38728 -4.55361,-3.33696 -0.25895,-0.0268 -0.52102,-0.12851 -0.7769,-0.0804 -0.72273,0.13578 -0.68545,1.28805 -0.55213,1.76023 0.29914,1.0592 0.95279,1.66806 1.62843,2.52199 1.61182,1.31096 2.20684,1.92194 4.18653,2.90881 5.51527,2.74936 11.73427,3.67544 17.67432,5.02897 5.46653,0.93854 3.3818,0.64911 8.29895,1.26358 0.71829,0.0898 1.43232,0.24637 2.15612,0.25957 0.2041,0.004 0.77359,-0.25868 0.57539,-0.20975 -0.36949,0.0912 -0.72726,0.22466 -1.09088,0.337 -0.796,0.18428 -1.59202,0.36856 -2.38802,0.55284 -2.66909,0.73894 -5.79324,1.52119 -8.2812,2.75653 -2.76881,1.37478 -4.93135,3.64461 -7.19902,5.67922 -2.49473,2.46083 -4.96578,4.88982 -7.66786,7.12399 -0.39952,0.33034 -0.72044,0.81324 -1.21383,0.97228 -0.25069,0.0808 -0.61957,-0.10469 -0.70678,-0.35321 -0.23077,-0.65767 -0.0993,-1.39043 -0.14901,-2.08564 0.0499,-6.66022 0.0496,-13.32126 -0.0775,-19.98072 0,-0.0405 -0.57259,-0.0405 -0.57259,0 z"
       id="path868"
       style="fill:#00ff00;fill-opacity:1;stroke:#ffffff;stroke-width:2.64583;stroke-linecap:round;stroke-linejoin:round;stroke-miterlimit:4;stroke-dasharray:none;stroke-dashoffset:9.44882;stroke-opacity:1" />
    <path
       d="m 369.77174,191.68042 c -0.80939,0.45761 -1.63121,0.89387 -2.42813,1.37284 -5.93884,3.56938 -11.66948,7.47249 -17.38884,11.37823 -8.69852,5.94023 -5.74138,3.87712 -13.70899,9.66011 -1.98395,1.7482 -8.01603,4.9491 -8.51998,8.18621 -0.44358,2.84947 3.21942,4.04102 5.05679,4.90716 3.44686,1.44223 7.25967,1.24527 10.82583,2.1331 1.29495,0.32239 1.79734,0.63928 2.93558,1.20391 0.31276,0.21531 0.64569,0.40392 0.93829,0.64593 0.98274,0.81284 1.74643,1.86353 2.73441,2.68617 1.12589,0.9375 2.84581,2.15772 3.98394,2.98813 4.64548,2.758 9.53389,6.10223 15.01267,6.88164 0.77475,0.11021 1.56319,0.0778 2.34479,0.11676 0.83561,-0.18133 1.70715,-0.24131 2.50685,-0.54398 4.89582,-1.85293 8.53249,-7.20644 10.67512,-11.70941 0.73792,-1.5508 1.24655,-3.20064 1.86983,-4.80096 0.36722,-1.58553 0.8813,-3.14409 1.10165,-4.75661 0.61113,-4.47249 -0.0758,-8.96319 -1.90757,-13.07718 -1.3113,-2.94501 -2.41366,-4.16964 -4.29554,-6.74858 -2.42146,-2.69087 -7.17497,-7.78865 -11.22492,-7.66042 -0.46413,0.0147 -0.90696,0.1998 -1.36046,0.29969 -1.05817,0.66448 -2.13257,1.29926 -3.21926,1.91554 -0.0335,0.0273 0.35343,0.50023 0.38687,0.47287 v 0 c 1.04529,-0.59615 2.0709,-1.22027 3.09788,-1.84729 0.29228,-0.0856 0.5725,-0.24547 0.87685,-0.25677 1.16374,-0.0432 2.27489,0.40111 3.27128,0.95298 2.92931,1.62247 5.34596,3.99411 7.50888,6.51254 1.84973,2.51821 2.92534,3.69941 4.20947,6.57813 1.78032,3.99114 2.45422,8.36185 1.85123,12.70166 -0.21944,1.57939 -0.72829,3.10484 -1.09246,4.65727 -0.6086,1.56981 -1.10847,3.18623 -1.82576,4.70945 -2.12601,4.51464 -5.39663,9.46877 -10.21125,11.44981 -0.6441,0.26502 -1.35104,0.33932 -2.02655,0.50899 -0.74795,-0.0328 -1.50257,0.007 -2.24382,-0.0984 -5.23957,-0.74227 -10.31788,-4.18235 -14.81633,-6.75753 -1.01057,-0.716 -2.95423,-2.06411 -3.99409,-2.89702 -1.03138,-0.82608 -1.8019,-1.86343 -2.79485,-2.71272 -0.30663,-0.26225 -0.65556,-0.47052 -0.98332,-0.70578 -1.18655,-0.61856 -1.69088,-0.95439 -3.05073,-1.31801 -3.50277,-0.93663 -7.26408,-0.75021 -10.67647,-2.10858 -1.31836,-0.57485 -5.23192,-1.78563 -4.84774,-4.05857 0.48045,-2.84274 6.86855,-6.27938 8.5976,-7.74028 9.83959,-6.99539 2.94246,-2.1381 13.73664,-9.605 6.42237,-4.4427 12.793,-8.98473 19.46923,-13.04398 0.0334,-0.0265 -0.34123,-0.49858 -0.37462,-0.47209 z"
       id="path870"
       style="fill:#00ff00;fill-opacity:1;stroke:#ffffff;stroke-width:2.64583;stroke-linecap:round;stroke-linejoin:round;stroke-miterlimit:4;stroke-dasharray:none;stroke-dashoffset:9.44882;stroke-opacity:1" />
    <path
       d="m 464.22815,252.94583 c -0.0809,5.67363 -0.13587,11.34762 0.003,17.02039 0.007,4.42408 0.6231,8.79846 1.31297,13.15533 -0.0393,0.074 -0.0369,0.24405 -0.11776,0.22211 -0.11669,-0.0317 -0.0908,-0.24317 -0.19376,-0.30662 -0.37632,-0.23207 -0.80132,-0.37394 -1.20443,-0.55555 -0.65591,-0.29548 -1.30599,-0.6051 -1.97255,-0.87572 -3.36175,-1.36477 -3.48793,-1.28886 -7.38712,-2.46361 -10.32737,-2.51058 -20.92613,-4.26828 -31.57225,-4.51287 -1.67793,-0.0386 -3.35669,0.0201 -5.03505,0.0301 -4.02217,0.12076 -8.01116,0.53269 -11.98956,1.10503 -0.0489,0.0188 0.21518,0.70932 0.264,0.69067 v 0 c 3.96176,-0.50988 7.93266,-0.92197 11.93128,-1.00311 1.52609,5e-5 3.05289,-0.0477 4.57821,2.1e-4 8.6005,0.26985 17.43927,1.52477 25.87644,3.16534 1.86642,0.36293 3.71245,0.82381 5.56866,1.23571 3.90006,1.09141 4.0241,1.01502 7.39516,2.30164 0.67296,0.25683 1.33014,0.55321 1.99355,0.83375 0.60632,0.25644 1.51093,0.86884 2.27402,0.53573 0.15314,-0.0668 0.1135,-0.3143 0.17028,-0.47143 -0.54126,-4.35221 -1.13662,-8.70472 -1.13945,-13.10249 -0.14484,-5.66734 -0.086,-11.33628 -0.18193,-17.00465 0,-0.0405 -0.57259,-0.0405 -0.57259,0 z"
       id="path872"
       style="fill:#00ff00;fill-opacity:1;stroke:#ffffff;stroke-width:2.64583;stroke-linecap:round;stroke-linejoin:round;stroke-miterlimit:4;stroke-dasharray:none;stroke-dashoffset:9.44882;stroke-opacity:1" />
    <path
       d="m 407.03518,263.54469 c -0.12753,6.17433 0.48101,12.3422 0.95377,18.49331 0.12457,2.03978 0.29128,4.08014 0.65347,6.09303 0.0406,0.22585 0.10189,0.44789 0.13716,0.67464 0.006,0.0355 -0.0199,0.1425 -0.0156,0.10679 0.0183,-0.15119 0.0384,-0.30216 0.0576,-0.45326 -3.19095,-2.4924 -6.76804,-4.39624 -10.63474,-5.60629 -1.22706,-0.38401 -2.47885,-0.68413 -3.71827,-1.02621 -3.53205,-0.82952 -7.07771,-1.63203 -10.67199,-2.14762 -1.39372,-0.19992 -2.72166,-0.34369 -4.11652,-0.20164 0.40836,0.004 0.84502,0.16097 1.22512,0.0116 0.75822,-0.298 3.90428,-3.01799 4.07509,-3.15878 3.50901,-2.89242 6.97714,-5.81657 10.40535,-8.8048 3.50316,-2.87351 6.79627,-6.11935 10.78452,-8.34133 0.52414,-0.29202 1.08281,-0.51727 1.62423,-0.77591 0.037,-0.0264 -0.33679,-0.54965 -0.37378,-0.52322 v 0 c -0.5652,0.26133 -1.14811,0.48732 -1.69558,0.78399 -4.05067,2.19504 -7.4154,5.42871 -10.95865,8.31709 -3.41543,2.98669 -6.8712,5.91976 -10.32327,8.86351 -0.79198,0.67535 -1.55469,1.38539 -2.36305,2.04105 -0.49289,0.39981 -1.07849,0.68472 -1.53765,1.12289 -0.29173,0.2784 -0.45622,0.66506 -0.68435,0.99759 1.22222,-0.0568 2.46515,0.14031 3.66353,0.33054 3.56346,0.56571 7.0848,1.36321 10.60103,2.16355 1.23217,0.32118 2.47701,0.59714 3.6965,0.96354 3.84291,1.15466 7.36811,3.05691 10.61228,5.39768 0.29117,0.0392 0.58343,0.16399 0.87352,0.1175 0.0882,-0.014 0.0489,-0.17528 0.0429,-0.26437 -0.0411,-0.61571 -0.18976,-1.22005 -0.25296,-1.83391 -0.2059,-2.00011 -0.22069,-2.7151 -0.35142,-4.89373 -0.42196,-6.14529 -1.05609,-12.28677 -1.1411,-18.44721 0,-0.0401 -0.56716,-0.0401 -0.56716,0 z"
       id="path874"
       style="fill:#00ff00;fill-opacity:1;stroke:#ffffff;stroke-width:2.64583;stroke-linecap:round;stroke-linejoin:round;stroke-miterlimit:4;stroke-dasharray:none;stroke-dashoffset:9.44882;stroke-opacity:1" />
    <path
       d="m 205.72607,232.48213 c 0.81578,-2.99577 1.3599,-6.05923 2.11692,-9.07145 0.18231,-0.72546 0.31657,-1.46948 0.59504,-2.16374 0.20032,-0.49945 0.55237,-0.92368 0.82855,-1.38551 0.4216,-0.18876 0.81044,-0.48299 1.26479,-0.56627 2.32681,-0.42652 5.13244,1.46394 6.96001,2.6951 0.23177,0.22301 0.46354,0.44602 0.69531,0.66903 0.026,0.033 0.49266,-0.3348 0.46665,-0.3678 v 0 c -0.24792,-0.24792 -0.49585,-0.49583 -0.74378,-0.74375 -2.05704,-1.44144 -5.0989,-3.45253 -7.75063,-2.75401 -0.53575,0.14113 -0.97504,0.52637 -1.46256,0.78956 -0.30293,0.5037 -0.68305,0.96839 -0.90879,1.51109 -0.29088,0.69927 -0.43917,1.45011 -0.62806,2.18353 -0.77288,3.00082 -1.28511,6.05728 -1.99195,9.07122 -0.009,0.0395 0.5491,0.17249 0.5585,0.133 z"
       id="path876"
       style="fill:#00ff00;fill-opacity:1;stroke:#ffffff;stroke-width:2.64583;stroke-linecap:round;stroke-linejoin:round;stroke-miterlimit:4;stroke-dasharray:none;stroke-dashoffset:9.44882;stroke-opacity:1" />
    <path
       d="m 367.47656,220.87348 c -0.0999,4.43957 -0.10605,8.88013 -0.10888,13.32056 0,0.0559 0.79037,0.0559 0.79037,0 v 0 c -0.003,-4.44043 -0.009,-8.88099 -0.10888,-13.32056 0,-0.0405 -0.57261,-0.0405 -0.57261,0 z"
       id="path880"
       style="fill:#00ff00;fill-opacity:1;stroke:#ffffff;stroke-width:2.64583;stroke-linecap:round;stroke-linejoin:round;stroke-miterlimit:4;stroke-dasharray:none;stroke-dashoffset:9.44882;stroke-opacity:1" />
    <path
       d="m 42.026943,161.30549 c 0.346654,5.83737 0.493212,11.68297 0.764238,17.52417 0.124322,3.27795 0.464341,6.55474 0.320635,9.83696 -0.06041,1.82918 -0.260074,3.66715 -0.05915,5.49132 0.08376,0.42452 0.188865,1.37232 0.618749,1.63799 2.704066,1.67113 9.128665,0.82392 11.789087,0.68963 3.638005,-0.18365 7.275978,-0.36792 10.91397,-0.55188 5.070464,-0.23298 10.139608,-0.49675 15.211396,-0.69895 6.367023,-0.25383 35.805362,-1.24895 41.747762,-1.4253 8.47193,-0.25142 25.06372,-0.67902 34.18764,-0.76066 3.22893,-0.0289 6.45807,0.0278 9.6871,0.0417 1.66869,0.0771 5.67491,-0.0167 7.82405,0.70995 0.18324,0.062 0.27486,0.27695 0.37666,0.44142 0.50226,0.81148 -0.48783,0.64259 1.53723,0.98083 1.17641,0.19648 2.37812,0.18628 3.56718,0.27942 18.79799,0.7237 37.57152,-0.75745 56.23926,-2.8541 4.8466,-0.54434 9.67952,-1.20431 14.51929,-1.80647 9.57785,-1.24121 19.13049,-2.67278 28.71857,-3.83575 1.03444,-0.12548 4.18234,-0.56431 5.68097,-0.49201 0.38216,0.0184 0.75281,0.13726 1.12921,0.2059 0.69435,0.10192 1.38517,0.23178 2.08306,0.30576 3.93595,0.41721 6.68309,0.46729 10.90454,0.5356 9.99218,0.16169 19.93956,-0.21642 29.92033,-0.63727 3.29073,-0.12686 6.58093,-0.26922 9.87224,-0.38058 7.51374,-0.25422 10.9107,-0.3492 18.33538,-0.33983 6.84586,0.009 13.68441,0.22871 20.52463,0.47667 5.53874,0.17283 11.10528,0.739 16.62052,-0.0898 2.17929,-0.32749 3.6051,-0.7495 5.72913,-1.29378 5.24536,-1.39128 10.52639,-2.68343 15.88992,-3.53794 4.07834,-0.64975 5.87753,-0.74896 10.12891,-1.15733 8.96004,-0.59577 17.97947,-1.05996 26.95022,-0.40979 3.63532,0.6038 7.27194,0.30074 10.91917,0.035 6.71885,-0.50621 13.45374,-0.7456 20.17734,-1.16482 3.7951,-0.36573 7.60235,-0.40302 11.41047,-0.34143 0.47704,-0.0526 0.99634,0.0455 1.4311,-0.15776 0.99613,-0.4657 0.78592,-1.7576 0.59071,-2.54326 -0.80743,-3.24987 -3.08517,-6.49635 -4.75919,-9.33324 -1.82541,-2.77156 -3.29843,-5.77825 -5.33498,-8.41112 -0.0969,-0.12528 -1.11752,-1.52056 -1.71298,-1.47859 -0.28117,0.0198 -0.48075,0.29445 -0.72112,0.44167 -0.30393,0.66287 -0.48514,1.29848 -1.20179,1.69079 -1.7181,0.94052 -4.13917,0.96318 -5.93237,0.98167 -2.30021,0.0237 -4.6001,-0.0899 -6.89861,-0.18098 -2.96865,-0.11769 -5.93455,-0.29693 -8.90183,-0.4454 -19.70958,-1.23559 -39.43818,-2.1654 -59.18335,-2.54117 -9.91007,-0.32167 -19.79424,0.57622 -29.68278,1.03894 -8.60848,0.40282 -10.50494,0.40791 -19.37292,0.64763 -17.58691,0.38168 -35.184,0.0116 -52.76229,0.77017 -8.96421,0.64574 -17.78605,2.4807 -26.72093,3.38217 -2.58564,0.26087 -5.17879,0.44082 -7.76816,0.66123 -14.67384,1.03935 -29.39479,1.41843 -44.0965,0.8887 -1.43583,-0.0674 -2.8716,-0.13616 -4.30749,-0.20219 -3.37413,-0.15514 -5.14665,-0.27195 -8.56058,-0.24448 -6.27114,0.0505 -12.49486,0.56044 -18.73943,1.09027 -15.41078,1.23758 -30.83751,2.35856 -46.30486,2.28495 -10.56825,-0.2744 -21.12349,-0.88794 -31.68692,-1.29216 -10.27384,-0.48768 -20.544439,-0.0639 -30.808973,0.3823 -8.765974,0.4897 -17.55357,0.33297 -26.287201,-0.55062 -0.543496,-0.0751 -1.088453,-0.14028 -1.630489,-0.22528 -0.254723,-0.0399 -0.806183,-0.40029 -0.759468,-0.14672 0.02577,0.13985 -0.01201,0.31383 0.08464,0.41813 0.05812,0.0627 0.273211,0.0254 0.250084,-0.057 -0.06639,-0.23628 -0.288904,-0.39686 -0.433356,-0.59528 -2.044933,-0.33061 -4.00441,-1.03248 -6.045798,-1.40089 -2.425848,-0.22157 -4.872887,0.0875 -7.301505,0.19193 -2.236867,0.11085 -4.477909,0.0257 -6.709801,0.21227 -0.04078,0.013 0.143777,0.58974 0.184554,0.57669 v 0 c 2.234285,-0.12372 4.47393,-0.0436 6.708937,-0.17754 2.289754,-0.12259 4.59754,-0.44743 6.886474,-0.25644 2.039493,0.36229 3.995113,1.09871 6.047518,1.36567 0.146089,-0.13864 0.327549,-0.24767 0.438269,-0.41591 0.03472,-0.0528 -0.139359,-0.009 -0.186521,0.0334 -0.204864,0.18249 -0.569296,0.45912 -0.166928,0.62705 0.520914,0.2174 2.127504,0.45584 2.397061,0.50436 8.875276,1.12274 17.83715,1.17217 26.763991,0.70691 10.105583,-0.45171 20.214962,-0.87931 30.330392,-0.37871 10.56833,0.43051 21.13221,0.96668 31.70409,1.31021 5.43536,0.0772 6.68398,0.14447 12.30444,0.005 11.53306,-0.28555 23.04346,-1.16616 34.52924,-2.21109 6.06697,-0.56262 12.12913,-1.14292 18.22681,-1.23322 3.43067,-0.0508 5.14675,0.0606 8.53687,0.23168 1.43516,0.0724 2.86985,0.154 4.30477,0.231 14.88195,0.71218 29.79721,0.54877 44.64891,-0.73098 6.29634,-0.62498 7.83121,-0.71259 13.70724,-1.51007 6.88856,-0.9349 13.73902,-2.22643 20.68475,-2.68958 17.61419,-0.34975 35.2366,0.0466 52.84946,-0.45999 9.71714,-0.32469 9.99289,-0.28152 19.35666,-0.78732 9.69563,-0.52373 19.39448,-1.40017 29.11506,-1.01078 19.73133,0.50857 39.44454,1.52156 59.15324,2.57567 5.27124,0.20658 11.04294,0.55575 16.35326,0.33651 2.08407,-0.086 4.34443,-0.1971 6.17853,-1.35789 0.73244,-0.46356 0.88034,-1.02904 1.16953,-1.72413 -0.0257,-0.0983 -0.17753,-0.27942 -0.0771,-0.29484 0.47019,-0.0722 1.21367,1.01598 1.45267,1.34192 1.95762,2.66974 3.3968,5.66989 5.22996,8.4202 1.73339,2.88315 3.78402,5.81307 4.83547,9.04725 0.12235,0.37636 0.542,1.57906 -0.17293,1.91739 -0.32067,0.15175 -0.70503,0.0797 -1.05756,0.11961 -3.93208,-0.0948 -7.86141,-0.0126 -11.78486,0.28207 -6.73092,0.3406 -13.46666,0.58638 -20.18208,1.18946 -3.50877,0.28633 -7.00315,0.65449 -10.49774,-0.0151 -9.12021,-0.92331 -18.32514,-0.47265 -27.44536,0.22038 -3.75009,0.39989 -6.49454,0.63389 -10.16206,1.23118 -5.36728,0.87411 -10.64705,2.20523 -15.88524,3.6477 -2.1612,0.54541 -3.43752,0.92905 -5.65687,1.23898 -5.36093,0.74863 -10.75627,0.15254 -16.13043,-0.0699 -7.01291,-0.32848 -14.01966,-0.61287 -21.04186,-0.65505 -7.33674,-0.0441 -10.96288,0.0537 -18.37955,0.28963 -3.29462,0.10479 -6.58815,0.24123 -9.88224,0.36184 -9.78574,0.41215 -19.55231,0.77809 -29.34792,0.81029 -4.42191,0.0145 -6.86644,0.0904 -10.91994,-0.23075 -0.6962,-0.0551 -1.38626,-0.17104 -2.07939,-0.25656 -2.79889,-0.48307 -4.36777,-0.28753 -7.3629,-0.02 -9.65962,0.86284 -19.26465,2.22594 -28.88924,3.39543 -14.60099,1.76904 -29.22261,3.58869 -43.90311,4.58266 -6.54265,0.44298 -13.26218,0.55168 -19.82952,0.6364 -2.1075,0.0272 -4.21526,0.0288 -6.32289,0.0431 -1.16614,-0.036 -2.33392,-0.0364 -3.49842,-0.108 -0.37633,-0.0231 -0.78894,0.009 -1.11739,-0.1757 -0.44449,-0.25056 0.0825,-1.34335 -0.78793,-1.31236 -2.02734,-0.99193 -6.24682,-1.04266 -7.82206,-1.19169 -3.44968,-0.10964 -6.89788,-0.28751 -10.34906,-0.32893 -30.40251,-0.36481 -60.803898,1.29325 -91.136184,3.13528 -3.607001,0.28079 -7.213756,0.56477 -10.821005,0.84238 -1.971728,0.15175 -8.79112,0.94724 -10.995988,-0.1045 -0.413533,-0.19726 -0.501534,-1.10061 -0.56896,-1.44406 -0.205055,-1.79928 0.02716,-3.61022 0.06372,-5.41512 0.1441,-3.29713 -0.01728,-6.59267 -0.174104,-9.8874 -0.277834,-5.84925 -0.383059,-11.71071 -0.909976,-17.54454 -0.0035,-0.0415 -0.590598,0.008 -0.587113,0.0493 z"
       id="path884"
       style="fill:#00ff00;fill-opacity:1;stroke:#ffffff;stroke-width:2.64583;stroke-linecap:round;stroke-linejoin:round;stroke-miterlimit:4;stroke-dasharray:none;stroke-dashoffset:9.44882;stroke-opacity:1" />
    <path
       d="m 64.107027,175.58604 c -1.884703,-0.006 -3.770492,-0.0988 -5.650902,0.0741 -0.393612,0.0362 -0.79367,0.0528 -1.175776,0.15402 -0.29605,0.0784 -0.557977,0.25264 -0.836964,0.37896 -0.180481,0.23196 -0.428811,0.42442 -0.541439,0.69588 -0.284882,0.68665 -0.183118,1.77381 -0.201742,2.45635 -0.04036,1.47923 -0.169788,2.95477 -0.293259,4.42868 0.04766,0.89489 -0.573709,2.27426 0.135959,3.05844 0.128027,0.14146 1.015296,0.65726 1.107594,0.71293 2.172941,1.26315 4.561866,2.02398 6.978922,2.65921 0.966938,0.27815 1.932728,0.30316 2.926585,0.28953 0.03964,-0.011 -0.11571,-0.57155 -0.15535,-0.56057 v 0 c -0.847968,0.031 -1.670753,-0.0444 -2.494851,-0.2759 -2.373257,-0.62795 -4.72997,-1.34939 -6.883464,-2.55564 -0.31937,-0.18305 -0.687183,-0.28809 -0.976603,-0.51555 -0.572072,-0.44962 0.01841,-2.17833 -0.02548,-2.76728 0.136577,-1.48939 0.27228,-2.97954 0.293621,-4.47632 0.0057,-0.4022 -0.09086,-1.65361 0.0836,-2.15368 0.06962,-0.19954 0.249256,-0.34136 0.373883,-0.51204 2.243516,-0.92612 4.830386,-0.34626 7.193282,-0.53648 0.03922,0.0101 0.181616,-0.54454 0.142399,-0.55461 z"
       id="path886"
       style="fill:#00ff00;fill-opacity:1;stroke:#ffffff;stroke-width:2.64583;stroke-linecap:round;stroke-linejoin:round;stroke-miterlimit:4;stroke-dasharray:none;stroke-dashoffset:9.44882;stroke-opacity:1" />
    <path
       d="m 75.610092,173.57525 c -0.04991,3.89853 -0.05181,7.79771 -0.01923,11.69639 0.0064,1.05383 0.02864,2.10752 0.02991,3.16136 0,0.0401 0.567552,0.0401 0.567552,0 v 0 c 0.0013,-1.05384 0.02349,-2.10753 0.02991,-3.16136 0.03257,-3.89868 0.03068,-7.79786 -0.01924,-11.69639 0,-0.0416 -0.588907,-0.0416 -0.588907,0 z"
       id="path888"
       style="fill:#00ff00;fill-opacity:1;stroke:#ffffff;stroke-width:2.64583;stroke-linecap:round;stroke-linejoin:round;stroke-miterlimit:4;stroke-dasharray:none;stroke-dashoffset:9.44882;stroke-opacity:1" />
    <path
       d="m 73.978986,181.91841 c 2.36515,-0.3051 4.738097,-0.53534 7.122948,-0.58525 1.816921,-0.002 1.728674,-0.007 1.811872,1.78545 -0.0034,1.01308 -0.10696,2.02119 -0.203583,3.02831 -0.0034,0.0419 0.588327,0.0903 0.591751,0.0484 v 0 c 0.102185,-1.03176 0.211174,-2.06508 0.195614,-3.10382 -0.140822,-2.22226 -0.38831,-2.3323 -2.55034,-2.328 -2.404075,0.0291 -4.800002,0.25066 -7.17574,0.62078 -0.03777,0.0147 0.169711,0.54877 0.207478,0.5341 z"
       id="path890"
       style="fill:#00ff00;fill-opacity:1;stroke:#ffffff;stroke-width:2.64583;stroke-linecap:round;stroke-linejoin:round;stroke-miterlimit:4;stroke-dasharray:none;stroke-dashoffset:9.44882;stroke-opacity:1" />
    <path
       d="m 91.586234,185.22781 c 3.062465,0.10475 6.30614,0.10786 8.968436,-1.67312 0.60036,-0.40163 1.08169,-0.95755 1.62254,-1.43633 0.36618,-0.54489 0.82242,-1.03907 1.09856,-1.63468 0.69866,-1.50693 0.60484,-3.25284 -0.72997,-4.38267 -0.97323,-0.82378 -1.70566,-0.79342 -2.894256,-1.00947 -1.247209,0.1382 -2.066354,0.0866 -3.176776,0.76268 -2.948339,1.79521 -4.49317,5.6664 -5.72408,8.6655 -0.557205,1.85521 -2.045915,6.75405 -0.843135,8.64092 0.64915,1.01836 1.606362,0.86589 2.642323,1.00501 2.244426,-0.0767 4.422277,-0.61875 6.560753,-1.26363 1.060901,-0.31992 1.944171,-0.58475 2.891421,-1.1534 0.31617,-0.1898 0.58651,-0.44717 0.87977,-0.67075 0.6803,-0.87104 0.41515,-0.43343 0.83545,-1.28773 0.0154,-0.0373 -0.51191,-0.25492 -0.52729,-0.21763 v 0 c -0.37141,0.71981 -0.13882,0.35086 -0.73182,1.08464 -0.27201,0.19724 -0.52389,0.42576 -0.81603,0.59172 -0.94278,0.53558 -1.78364,0.76454 -2.833501,1.06833 -1.98256,0.57368 -3.996764,1.06532 -6.056948,1.25637 -0.587494,-0.0257 -1.785212,0.14568 -2.244698,-0.545 -1.112679,-1.67254 0.425802,-6.63775 0.929677,-8.27742 1.129038,-2.78451 2.629577,-6.69125 5.369364,-8.36529 0.871982,-0.53279 1.651249,-0.56841 2.610675,-0.71772 1.027341,0.14557 1.740751,0.10798 2.610041,0.7621 1.98992,1.49738 0.84536,3.72538 -0.34807,5.25826 -0.50418,0.44464 -0.95196,0.96292 -1.51255,1.33392 -2.595024,1.71736 -5.750479,1.65298 -8.722285,1.65079 -0.03922,0.01 0.103183,0.56467 0.142399,0.5546 z"
       id="path892"
       style="fill:#00ff00;fill-opacity:1;stroke:#ffffff;stroke-width:2.64583;stroke-linecap:round;stroke-linejoin:round;stroke-miterlimit:4;stroke-dasharray:none;stroke-dashoffset:9.44882;stroke-opacity:1" />
    <path
       d="m 114.57262,175.89184 c -0.42009,0.20346 -0.8773,0.34352 -1.26026,0.61037 -2.56502,1.78742 -4.60072,4.74936 -5.53135,7.71149 -0.241,0.76709 -0.31362,1.57724 -0.47043,2.36586 0.0643,0.69743 -0.0134,1.42301 0.19299,2.09229 0.51371,1.66553 2.22197,2.87512 3.97718,2.7206 1.87991,-0.1655 2.46979,-0.9543 3.96534,-2.05113 2.60997,-2.61852 4.08524,-5.96204 5.38113,-9.35679 0.0122,-0.032 -0.0215,0.0655 -0.0391,0.0949 -0.22514,0.37534 -0.45897,0.74541 -0.68845,1.11811 -0.47442,2.30734 -0.51383,4.64297 -0.48834,6.98519 2.6e-4,0.0473 0.66854,0.0426 0.66821,-0.005 v 0 c -0.0131,-2.30655 0.0365,-4.60777 0.43202,-6.88906 -0.0628,-0.56098 -0.0161,-1.1454 -0.18842,-1.68294 -0.0349,-0.10896 -0.2384,0.0766 -0.2946,0.17625 -0.26835,0.47595 -0.42946,1.00491 -0.65258,1.50367 -1.21776,2.72219 -2.47818,5.4241 -4.61101,7.57764 -0.96126,0.72772 -1.96916,1.76509 -3.26429,1.9433 -1.50302,0.20682 -3.0815,-0.72065 -3.545,-2.18589 -0.19494,-0.61628 -0.12038,-1.28713 -0.18056,-1.9307 0.14949,-0.74899 0.21738,-1.51901 0.44848,-2.24697 0.8761,-2.75981 2.88663,-5.74057 5.25576,-7.4467 0.36375,-0.26196 0.79888,-0.40688 1.19833,-0.61033 0.035,-0.0216 -0.27005,-0.51605 -0.30501,-0.49448 z"
       id="path894"
       style="fill:#00ff00;fill-opacity:1;stroke:#ffffff;stroke-width:2.64583;stroke-linecap:round;stroke-linejoin:round;stroke-miterlimit:4;stroke-dasharray:none;stroke-dashoffset:9.44882;stroke-opacity:1" />
    <path
       d="m 129.05856,174.82816 c 0.0807,5.63574 -0.41014,11.31791 0.15707,16.93451 0.16647,0.45572 0.24354,0.95495 0.49941,1.36717 1.28463,2.06963 4.43253,-0.61909 5.69096,-1.42071 0.0327,-0.0292 -0.38074,-0.49174 -0.41344,-0.4625 v 0 c -0.6657,0.42779 -3.28685,2.32977 -4.08259,2.15321 -0.7681,-0.17042 -0.85164,-1.14896 -1.04104,-1.68679 -0.44729,-5.60885 0.0575,-11.26398 -0.21059,-16.88489 0,-0.0424 -0.59978,-0.0424 -0.59978,0 z"
       id="path896"
       style="fill:#00ff00;fill-opacity:1;stroke:#ffffff;stroke-width:2.64583;stroke-linecap:round;stroke-linejoin:round;stroke-miterlimit:4;stroke-dasharray:none;stroke-dashoffset:9.44882;stroke-opacity:1" />
    <path
       d="m 133.04715,182.99865 c 3.57949,-0.27267 7.07754,-1.06454 10.56633,-1.86652 0.0456,-0.0215 -0.25819,-0.66705 -0.30383,-0.64557 v 0 c -3.46019,0.78464 -6.92354,1.56727 -10.45623,1.95567 -0.0394,0.0137 0.15438,0.57012 0.19373,0.55642 z"
       id="path898"
       style="fill:#00ff00;fill-opacity:1;stroke:#ffffff;stroke-width:2.64583;stroke-linecap:round;stroke-linejoin:round;stroke-miterlimit:4;stroke-dasharray:none;stroke-dashoffset:9.44882;stroke-opacity:1" />
    <text
       id="text902"
       y="150.07959"
       x="271.02713"
       style="font-size:16.9787px;line-height:1.25;font-family:Ubuntu;-inkscape-font-specification:Ubuntu;text-align:center;letter-spacing:0px;word-spacing:0px;text-anchor:middle;fill:#ffffff;stroke-width:0.176861"
       xml:space="preserve"><tspan
         style="fill:#ffffff;stroke-width:0.176861"
         y="150.07959"
         x="271.02713"
         id="tspan900"
         sodipodi:role="line">Zetrix viewer</tspan></text>
    <text
       id="text906"
       y="474.13333"
       x="135.46666"
       style="font-size:25.4px;line-height:1.25;font-family:Ubuntu;-inkscape-font-specification:Ubuntu;text-align:center;letter-spacing:0px;word-spacing:0px;text-anchor:middle;stroke-width:0.264583"
       xml:space="preserve"><tspan
         style="stroke-width:0.264583"
         y="474.13333"
         x="135.46666"
         id="tspan904"
         sodipodi:role="line">by JOELwindows7</tspan><tspan
         id="tspan908"
         style="stroke-width:0.264583"
         y="505.88333"
         x="135.46666"
         sodipodi:role="line">Perkedel Technologies</tspan><tspan
         id="tspan912"
         style="stroke-width:0.264583"
         y="537.6333"
         x="135.46666"
         sodipodi:role="line">CC4.0-BY-SA</tspan></text>
  </g>
</svg>
