<?xml version="1.0" encoding="UTF-8" standalone="no"?>
<svg
   xmlns:dc="http://purl.org/dc/elements/1.1/"
   xmlns:cc="http://creativecommons.org/ns#"
   xmlns:rdf="http://www.w3.org/1999/02/22-rdf-syntax-ns#"
   xmlns:svg="http://www.w3.org/2000/svg"
   xmlns="http://www.w3.org/2000/svg"
   xmlns:xlink="http://www.w3.org/1999/xlink"
   xmlns:sodipodi="http://sodipodi.sourceforge.net/DTD/sodipodi-0.dtd"
   xmlns:inkscape="http://www.inkscape.org/namespaces/inkscape"
   inkscape:export-ydpi="96"
   inkscape:export-xdpi="96"
   inkscape:export-filename="C:\Users\joelr\Documents\starring codes\After Church\RAW files\Inkscape\UpvoteThisHeart.png"
   sodipodi:docname="UpvoteThisHeart.svg"
   inkscape:version="1.0 (4035a4fb49, 2020-05-01)"
   id="svg8"
   version="1.1"
   viewBox="0 0 507.99999 285.75001"
   height="1080"
   width="1920">
  <defs
     id="defs2">
    <linearGradient
       id="linearGradient1545"
       inkscape:collect="always">
      <stop
         id="stop1541"
         offset="0"
         style="stop-color:#ff0000;stop-opacity:1;" />
      <stop
         style="stop-color:#ff0000;stop-opacity:1"
         offset="0.5"
         id="stop1549" />
      <stop
         id="stop1551"
         offset="0.75"
         style="stop-color:#ff0000;stop-opacity:0.99814469" />
      <stop
         id="stop1543"
         offset="1"
         style="stop-color:#ffffff;stop-opacity:0" />
    </linearGradient>
    <linearGradient
       gradientUnits="userSpaceOnUse"
       y2="-13.229167"
       x2="347.92709"
       y1="-13.229167"
       x1="353.21875"
       id="linearGradient1547"
       xlink:href="#linearGradient1545"
       inkscape:collect="always" />
  </defs>
  <sodipodi:namedview
     inkscape:snap-bbox-midpoints="true"
     inkscape:snap-bbox-edge-midpoints="true"
     inkscape:bbox-nodes="true"
     inkscape:bbox-paths="true"
     inkscape:snap-bbox="true"
     inkscape:window-maximized="1"
     inkscape:window-y="-9"
     inkscape:window-x="-9"
     inkscape:window-height="1051"
     inkscape:window-width="1920"
     units="px"
     showgrid="true"
     inkscape:document-rotation="0"
     inkscape:current-layer="layer1"
     inkscape:document-units="px"
     inkscape:cy="491.02673"
     inkscape:cx="1007.0391"
     inkscape:zoom="0.49497475"
     inkscape:pageshadow="2"
     inkscape:pageopacity="0.0"
     borderopacity="1.0"
     bordercolor="#666666"
     pagecolor="#ffffff"
     id="base">
    <inkscape:grid
       id="grid842"
       type="xygrid" />
  </sodipodi:namedview>
  <metadata
     id="metadata5">
    <rdf:RDF>
      <cc:Work
         rdf:about="">
        <dc:format>image/svg+xml</dc:format>
        <dc:type
           rdf:resource="http://purl.org/dc/dcmitype/StillImage" />
        <dc:title></dc:title>
        <cc:license
           rdf:resource="http://creativecommons.org/licenses/by-sa/4.0/" />
      </cc:Work>
      <cc:License
         rdf:about="http://creativecommons.org/licenses/by-sa/4.0/">
        <cc:permits
           rdf:resource="http://creativecommons.org/ns#Reproduction" />
        <cc:permits
           rdf:resource="http://creativecommons.org/ns#Distribution" />
        <cc:requires
           rdf:resource="http://creativecommons.org/ns#Notice" />
        <cc:requires
           rdf:resource="http://creativecommons.org/ns#Attribution" />
        <cc:permits
           rdf:resource="http://creativecommons.org/ns#DerivativeWorks" />
        <cc:requires
           rdf:resource="http://creativecommons.org/ns#ShareAlike" />
      </cc:License>
    </rdf:RDF>
  </metadata>
  <g
     id="layer1"
     inkscape:groupmode="layer"
     inkscape:label="Lapis 1">
    <path
       style="fill:#ff0000;fill-opacity:1;stroke:#000000;stroke-width:1.73353;stroke-linecap:round;stroke-linejoin:round;stroke-miterlimit:4;stroke-dasharray:none;stroke-opacity:1"
       d="m 153.45833,88.227102 c 0,-44.652537 -52.09468,-44.652537 -52.09468,-44.652537 0,0 -50.358132,-1.2e-5 -51.226022,59.514965 C 49.269002,162.64806 153.45833,222.25 153.45833,222.25 c 0,0 104.18928,-59.60194 103.3207,-119.16047 -0.86796,-59.514977 -51.2261,-59.514965 -51.2261,-59.514965 0,0 -52.0946,0 -52.0946,44.652537 z"
       id="path850"
       sodipodi:nodetypes="ccscscc" />
    <path
       id="path1493"
       d="M 302.94792,-18.520833 H 301.625 l 2.64584,-2.645834 2.64583,2.645834 h -1.32292 V -15.875 h -2.64583 z"
       style="fill:#ff7f2a;stroke:#000000;stroke-width:0.265;stroke-linecap:round;stroke-linejoin:round;stroke-miterlimit:4;stroke-dasharray:none;stroke-opacity:1" />
    <path
       style="fill:#3771c8;stroke:#000000;stroke-width:0.265;stroke-linecap:round;stroke-linejoin:round;stroke-miterlimit:4;stroke-dasharray:none;stroke-opacity:1"
       d="m 305.59375,-7.9374951 h 1.32292 l -2.64584,2.6458338 -2.64583,-2.6458338 h 1.32292 v -2.6458339 h 2.64583 z"
       id="path1495" />
    <g
       transform="translate(-8.4666542,82.550004)"
       id="g1503">
      <path
         id="path1497"
         d="M 313.26669,2.1166632 H 301.625 l 23.28338,-23.2833302 23.2833,23.2833302 H 336.54999 V 25.399985 h -23.2833 z"
         style="fill:#ff7f2a;stroke:#000000;stroke-width:2.332;stroke-linecap:round;stroke-linejoin:round;stroke-miterlimit:4;stroke-dasharray:none;stroke-opacity:1" />
      <path
         style="fill:#3771c8;stroke:#000000;stroke-width:2.332;stroke-linecap:round;stroke-linejoin:round;stroke-miterlimit:4;stroke-dasharray:none;stroke-opacity:1"
         d="m 336.54999,95.250001 h 11.64169 L 324.9083,118.53333 301.625,95.250001 h 11.64169 v -23.28333 h 23.2833 z"
         id="path1499" />
    </g>
    <path
       id="path1519"
       d="m 316.17709,-21.166667 h 1.32292 v -1.322917 h 1.32291 v 1.322917 h 1.32292 v 1.322917 h -1.32292 v 1.322916 h -1.32291 v -1.322916 h -1.32292 z"
       style="fill:#2aff2a;stroke:#000000;stroke-width:0.264583px;stroke-linecap:butt;stroke-linejoin:miter;stroke-opacity:1" />
    <g
       id="g1529">
      <g
         id="g1517"
         style="fill:#2ca02c">
        <path
           id="path1505"
           d="m 324.11459,-9.2604169 v 3.9687501 c 0,0 0,1.3229167 1.32292,1.3229167 1.32291,0 7.9375,0 7.9375,0 0,0 1.32292,0 1.32292,-1.3229167 0,-1.3229167 0,-3.9687501 0,-3.9687501 0,0 0,-1.3229171 -1.32292,-1.3229171 -1.32292,0 -7.9375,0 -7.9375,0 0,0 -1.32292,0 -1.32292,1.3229171 z"
           style="fill:#2ca02c;stroke:#000000;stroke-width:0.264583px;stroke-linecap:butt;stroke-linejoin:miter;stroke-opacity:1" />
        <path
           id="path1507"
           d="m 324.11459,-6.6145835 -5.29167,-1.3229167 1.32292,-1.3229167 3.96875,1.3229167 z"
           style="fill:#2ca02c;stroke:#000000;stroke-width:0.264583px;stroke-linecap:butt;stroke-linejoin:miter;stroke-opacity:1" />
        <path
           id="path1509"
           d="m 318.82292,-7.9375002 -1.32291,1.3229167 v -2.6458334 c 0,0 0,-1.3229171 1.32291,-1.3229171 1.32292,0 2.64584,0 2.64584,0 l -1.32292,1.3229171 z"
           style="fill:#2ca02c;stroke:#000000;stroke-width:0.264583px;stroke-linecap:butt;stroke-linejoin:miter;stroke-opacity:1" />
        <path
           id="path1511"
           d="m 325.43751,-10.583334 c 0,0 0,-5.291666 3.96875,-5.291666 3.96875,0 3.96875,5.291666 3.96875,5.291666 h -1.32292 c 0,0 0,-3.96875 -2.64583,-3.96875 -2.64584,0 -2.64584,3.96875 -2.64584,3.96875 z"
           style="fill:#2ca02c;stroke:#000000;stroke-width:0.264583px;stroke-linecap:butt;stroke-linejoin:miter;stroke-opacity:1" />
      </g>
      <path
         id="path1521"
         d="m 327.42188,-8.0697914 h 1.32292 v -1.322917 h 1.32291 v 1.322917 h 1.32292 v 1.322917 h -1.32292 v 1.322916 h -1.32291 v -1.322916 h -1.32292 z"
         style="fill:#2affd5;stroke:#000000;stroke-width:0.264583px;stroke-linecap:butt;stroke-linejoin:miter;stroke-opacity:1" />
    </g>
    <g
       id="g1539">
      <path
         style="fill:#a05a2c;stroke:#000000;stroke-width:0.264583px;stroke-linecap:butt;stroke-linejoin:miter;stroke-opacity:1"
         d="m 350.57293,-15.875 h 1.32291 v 13.2291666 h -1.32291 z"
         id="path1535" />
      <path
         style="fill:url(#linearGradient1547);stroke:#000000;stroke-width:0.264583px;stroke-linecap:butt;stroke-linejoin:miter;stroke-opacity:1;fill-opacity:1"
         d="M 353.21876,-14.552084 349.25001,-15.875 c 0,0 -1.32292,0 -1.32292,2.645833 0,2.645833 1.32292,2.645833 1.32292,2.645833 l 3.96875,-1.322916 z"
         id="path1533" />
    </g>
    <g
       transform="matrix(4.51515,0,0,4.51515,-1049.0524,125.71315)"
       id="g1565">
      <g
         style="fill:#2ca02c"
         id="g1561">
        <path
           style="fill:#2ca02c;stroke:#000000;stroke-width:0.264583px;stroke-linecap:butt;stroke-linejoin:miter;stroke-opacity:1"
           d="m 324.11459,-9.2604169 v 3.9687501 c 0,0 0,1.3229167 1.32292,1.3229167 1.32291,0 7.9375,0 7.9375,0 0,0 1.32292,0 1.32292,-1.3229167 0,-1.3229167 0,-3.9687501 0,-3.9687501 0,0 0,-1.3229171 -1.32292,-1.3229171 -1.32292,0 -7.9375,0 -7.9375,0 0,0 -1.32292,0 -1.32292,1.3229171 z"
           id="path1553" />
        <path
           style="fill:#2ca02c;stroke:#000000;stroke-width:0.264583px;stroke-linecap:butt;stroke-linejoin:miter;stroke-opacity:1"
           d="m 324.11459,-6.6145835 -5.29167,-1.3229167 1.32292,-1.3229167 3.96875,1.3229167 z"
           id="path1555" />
        <path
           style="fill:#2ca02c;stroke:#000000;stroke-width:0.264583px;stroke-linecap:butt;stroke-linejoin:miter;stroke-opacity:1"
           d="m 318.82292,-7.9375002 -1.32291,1.3229167 v -2.6458334 c 0,0 0,-1.3229171 1.32291,-1.3229171 1.32292,0 2.64584,0 2.64584,0 l -1.32292,1.3229171 z"
           id="path1557" />
        <path
           style="fill:#2ca02c;stroke:#000000;stroke-width:0.264583px;stroke-linecap:butt;stroke-linejoin:miter;stroke-opacity:1"
           d="m 325.43751,-10.583334 c 0,0 0,-5.291666 3.96875,-5.291666 3.96875,0 3.96875,5.291666 3.96875,5.291666 h -1.32292 c 0,0 0,-3.96875 -2.64583,-3.96875 -2.64584,0 -2.64584,3.96875 -2.64584,3.96875 z"
           id="path1559" />
      </g>
      <path
         style="fill:#2affd5;stroke:#000000;stroke-width:0.264583px;stroke-linecap:butt;stroke-linejoin:miter;stroke-opacity:1"
         d="m 327.42188,-8.0697914 h 1.32292 v -1.322917 h 1.32291 v 1.322917 h 1.32292 v 1.322917 h -1.32292 v 1.322916 h -1.32291 v -1.322916 h -1.32292 z"
         id="path1563" />
    </g>
    <g
       id="g1603">
      <path
         style="fill:#d45500;stroke:#000000;stroke-width:0.264583px;stroke-linecap:butt;stroke-linejoin:miter;stroke-opacity:1"
         d="m 370.41668,-17.197917 c 0,0 -1.05834,0.264583 -1.32292,-0.529167 -0.26458,-0.79375 0.52917,-3.175 0.52917,-3.175 l 0.52916,1.322917 0.79375,-2.38125 0.52917,2.38125 0.79375,-1.322917 c 0,0 0.52917,3.704167 -0.79375,3.704167 -1.32292,0 -1.05833,0 -1.05833,0 z"
         id="path1597" />
      <path
         id="path1599"
         d="m 370.55575,-17.113938 c 0,0 -0.54952,0.137379 -0.6869,-0.274759 -0.13738,-0.412138 0.27476,-1.648551 0.27476,-1.648551 l 0.27475,0.686897 0.41214,-1.236413 0.27476,1.236413 0.41214,-0.686897 c 0,0 0.27476,1.92331 -0.41214,1.92331 -0.6869,0 -0.54951,0 -0.54951,0 z"
         style="fill:#ffd42a;stroke:#000000;stroke-width:0.137379px;stroke-linecap:butt;stroke-linejoin:miter;stroke-opacity:1" />
    </g>
    <g
       id="g1627">
      <g
         id="g1616">
        <g
           transform="translate(47.492697)"
           id="g1583"
           style="fill:#aa0000">
          <path
             id="path1575"
             d="m 324.11459,-9.2604169 v 3.9687501 c 0,0 0,1.3229167 1.32292,1.3229167 1.32291,0 7.9375,0 7.9375,0 0,0 1.32292,0 1.32292,-1.3229167 0,-1.3229167 0,-3.9687501 0,-3.9687501 0,0 0,-1.3229171 -1.32292,-1.3229171 -1.32292,0 -7.9375,0 -7.9375,0 0,0 -1.32292,0 -1.32292,1.3229171 z"
             style="fill:#aa0000;stroke:#000000;stroke-width:0.264583px;stroke-linecap:butt;stroke-linejoin:miter;stroke-opacity:1" />
          <path
             id="path1577"
             d="m 324.11459,-6.6145835 -5.29167,-1.3229167 1.32292,-1.3229167 3.96875,1.3229167 z"
             style="fill:#aa0000;stroke:#000000;stroke-width:0.264583px;stroke-linecap:butt;stroke-linejoin:miter;stroke-opacity:1" />
          <path
             id="path1581"
             d="m 325.43751,-10.583334 c 0,0 0,-5.291666 3.96875,-5.291666 3.96875,0 3.96875,5.291666 3.96875,5.291666 h -1.32292 c 0,0 0,-3.96875 -2.64583,-3.96875 -2.64584,0 -2.64584,3.96875 -2.64584,3.96875 z"
             style="fill:#aa0000;stroke:#000000;stroke-width:0.264583px;stroke-linecap:butt;stroke-linejoin:miter;stroke-opacity:1" />
        </g>
        <path
           id="path1595"
           d="m 367.77084,-9.2604169 v -1.3229171 h -7.9375 v 3.9687505 h 7.9375 v -1.0583334 z"
           style="fill:#333333;stroke:#000000;stroke-width:0.264583px;stroke-linecap:butt;stroke-linejoin:miter;stroke-opacity:1" />
      </g>
      <g
         id="g1609"
         transform="translate(6.2109196,12.351438)">
        <path
           style="fill:#d45500;stroke:#000000;stroke-width:0.264583px;stroke-linecap:butt;stroke-linejoin:miter;stroke-opacity:1"
           d="m 370.41668,-17.197917 c 0,0 -1.05834,0.264583 -1.32292,-0.529167 -0.26458,-0.79375 0.52917,-3.175 0.52917,-3.175 l 0.52916,1.322917 0.79375,-2.38125 0.52917,2.38125 0.79375,-1.322917 c 0,0 0.52917,3.704167 -0.79375,3.704167 -1.32292,0 -1.05833,0 -1.05833,0 z"
           id="path1605" />
        <path
           id="path1607"
           d="m 370.55575,-17.113938 c 0,0 -0.54952,0.137379 -0.6869,-0.274759 -0.13738,-0.412138 0.27476,-1.648551 0.27476,-1.648551 l 0.27475,0.686897 0.41214,-1.236413 0.27476,1.236413 0.41214,-0.686897 c 0,0 0.27476,1.92331 -0.41214,1.92331 -0.6869,0 -0.54951,0 -0.54951,0 z"
           style="fill:#ffd42a;stroke:#000000;stroke-width:0.137379px;stroke-linecap:butt;stroke-linejoin:miter;stroke-opacity:1" />
      </g>
    </g>
    <g
       transform="matrix(4.5612345,0,0,4.5612345,-1279.5227,215.379)"
       id="g1647">
      <g
         id="g1639">
        <g
           style="fill:#aa0000"
           id="g1635"
           transform="translate(47.492697)">
          <path
             style="fill:#aa0000;stroke:#000000;stroke-width:0.264583px;stroke-linecap:butt;stroke-linejoin:miter;stroke-opacity:1"
             d="m 324.11459,-9.2604169 v 3.9687501 c 0,0 0,1.3229167 1.32292,1.3229167 1.32291,0 7.9375,0 7.9375,0 0,0 1.32292,0 1.32292,-1.3229167 0,-1.3229167 0,-3.9687501 0,-3.9687501 0,0 0,-1.3229171 -1.32292,-1.3229171 -1.32292,0 -7.9375,0 -7.9375,0 0,0 -1.32292,0 -1.32292,1.3229171 z"
             id="path1629" />
          <path
             style="fill:#aa0000;stroke:#000000;stroke-width:0.264583px;stroke-linecap:butt;stroke-linejoin:miter;stroke-opacity:1"
             d="m 324.11459,-6.6145835 -5.29167,-1.3229167 1.32292,-1.3229167 3.96875,1.3229167 z"
             id="path1631" />
          <path
             style="fill:#aa0000;stroke:#000000;stroke-width:0.264583px;stroke-linecap:butt;stroke-linejoin:miter;stroke-opacity:1"
             d="m 325.43751,-10.583334 c 0,0 0,-5.291666 3.96875,-5.291666 3.96875,0 3.96875,5.291666 3.96875,5.291666 h -1.32292 c 0,0 0,-3.96875 -2.64583,-3.96875 -2.64584,0 -2.64584,3.96875 -2.64584,3.96875 z"
             id="path1633" />
        </g>
        <path
           style="fill:#333333;stroke:#000000;stroke-width:0.264583px;stroke-linecap:butt;stroke-linejoin:miter;stroke-opacity:1"
           d="m 367.77084,-9.2604169 v -1.3229171 h -7.9375 v 3.9687505 h 7.9375 v -1.0583334 z"
           id="path1637" />
      </g>
      <g
         transform="translate(6.2109196,12.351438)"
         id="g1645">
        <path
           id="path1641"
           d="m 370.41668,-17.197917 c 0,0 -1.05834,0.264583 -1.32292,-0.529167 -0.26458,-0.79375 0.52917,-3.175 0.52917,-3.175 l 0.52916,1.322917 0.79375,-2.38125 0.52917,2.38125 0.79375,-1.322917 c 0,0 0.52917,3.704167 -0.79375,3.704167 -1.32292,0 -1.05833,0 -1.05833,0 z"
           style="fill:#d45500;stroke:#000000;stroke-width:0.264583px;stroke-linecap:butt;stroke-linejoin:miter;stroke-opacity:1" />
        <path
           style="fill:#ffd42a;stroke:#000000;stroke-width:0.137379px;stroke-linecap:butt;stroke-linejoin:miter;stroke-opacity:1"
           d="m 370.55575,-17.113938 c 0,0 -0.54952,0.137379 -0.6869,-0.274759 -0.13738,-0.412138 0.27476,-1.648551 0.27476,-1.648551 l 0.27475,0.686897 0.41214,-1.236413 0.27476,1.236413 0.41214,-0.686897 c 0,0 0.27476,1.92331 -0.41214,1.92331 -0.6869,0 -0.54951,0 -0.54951,0 z"
           id="path1643" />
      </g>
    </g>
    <g
       transform="matrix(0.26458334,0,0,0.26458334,270.93333,-91.678128)"
       id="g1536-6-4"
       inkscape:export-xdpi="300"
       inkscape:export-ydpi="300">
      <g
         transform="translate(-128,64)"
         id="g1492-8-7">
        <path
           inkscape:connector-curvature="0"
           style="opacity:1;fill:#ffc800;fill-opacity:1;fill-rule:nonzero;stroke:none;stroke-opacity:1"
           d="m 256,208 a 64,64 0 0 0 -64,64 64,64 0 0 0 64,64 h 64 a 64,64 0 0 0 64,-64 64,64 0 0 0 -64,-64 z"
           transform="translate(0,106.5)"
           id="path1451-5-8" />
        <path
           inkscape:connector-curvature="0"
           style="opacity:1;fill:#fffe00;fill-opacity:1;fill-rule:nonzero;stroke:none;stroke-width:1.04447;stroke-opacity:1"
           d="m 288,224 a 4,4 0 0 0 -4,4 v 40 h -40 a 4,4 0 0 0 -4,4 4,4 0 0 0 4,4 h 40 v 40 a 4,4 0 0 0 4,4 4,4 0 0 0 4,-4 v -40 h 40 a 4,4 0 0 0 4,-4 4,4 0 0 0 -4,-4 h -40 v -40 a 4,4 0 0 0 -4,-4 z"
           transform="translate(0,106.5)"
           id="rect1461-3-4" />
      </g>
      <flowRoot
         transform="translate(-108.256,129.20475)"
         style="font-style:normal;font-weight:normal;font-size:40px;line-height:0;font-family:sans-serif;letter-spacing:0px;word-spacing:0px;fill:#fffff6;fill-opacity:1;stroke:#000000;stroke-opacity:1"
         id="flowRoot1482-6-4"
         xml:space="preserve"><flowRegion
           style="line-height:0;fill:#fffff6;fill-opacity:1;stroke:#000000;stroke-opacity:1"
           id="flowRegion1484-4-7"><rect
             style="line-height:0;fill:#fffff6;fill-opacity:1;stroke:#000000;stroke-opacity:1;"
             y="272"
             x="384"
             height="128"
             width="1024"
             id="rect1486-8-8" /></flowRegion><flowPara
           style="font-style:normal;font-variant:normal;font-weight:normal;font-stretch:normal;font-size:96px;line-height:1;font-family:Ubuntu;-inkscape-font-specification:Ubuntu;fill:#fffff6;fill-opacity:1;stroke:#000000;stroke-opacity:1"
           id="flowPara1488-6-3">Perkedel </flowPara></flowRoot>
    </g>
    <text
       id="text2389"
       y="23.127539"
       x="449.59189"
       style="font-weight:bold;font-size:4.68785px;line-height:1.25;font-family:Ubuntu;-inkscape-font-specification:'Ubuntu Bold';text-align:center;letter-spacing:0px;word-spacing:0px;text-anchor:middle;stroke:#ffffff;stroke-width:0.146495;stroke-opacity:1"
       xml:space="preserve"><tspan
         style="text-align:start;text-anchor:start;stroke:#ffffff;stroke-width:0.146495;stroke-opacity:1"
         y="23.127539"
         x="449.59189"
         id="tspan2387"
         sodipodi:role="line">by JOELwindows7</tspan><tspan
         id="tspan2391"
         style="text-align:start;text-anchor:start;stroke:#ffffff;stroke-width:0.146495;stroke-opacity:1"
         y="34.237309"
         x="449.59189"
         sodipodi:role="line">Perkedel Technologies</tspan><tspan
         id="tspan2393"
         style="text-align:start;text-anchor:start;stroke:#ffffff;stroke-width:0.146495;stroke-opacity:1"
         y="45.347076"
         x="449.59189"
         sodipodi:role="line">CC4.0-BY-SA</tspan></text>
    <text
       id="text2399"
       y="259.29169"
       x="370.41669"
       style="font-weight:bold;font-size:8.46667px;line-height:1.25;font-family:Ubuntu;-inkscape-font-specification:'Ubuntu Bold';text-align:center;letter-spacing:0px;word-spacing:0px;text-anchor:middle;stroke-width:0.264583"
       xml:space="preserve"><tspan
         style="stroke-width:0.264583"
         y="259.29169"
         x="370.41669"
         id="tspan2397"
         sodipodi:role="line">0</tspan></text>
    <text
       id="text2403"
       y="259.29169"
       x="486.83334"
       style="font-weight:bold;font-size:8.46667px;line-height:1.25;font-family:Ubuntu;-inkscape-font-specification:'Ubuntu Bold';text-align:center;letter-spacing:0px;word-spacing:0px;text-anchor:middle;stroke-width:0.264583"
       xml:space="preserve"><tspan
         style="stroke-width:0.264583"
         y="259.29169"
         x="486.83334"
         id="tspan2401"
         sodipodi:role="line">+</tspan></text>
    <text
       id="text2407"
       y="259.29169"
       x="238.125"
       style="font-weight:bold;font-size:8.46667px;line-height:1.25;font-family:Ubuntu;-inkscape-font-specification:'Ubuntu Bold';text-align:center;letter-spacing:0px;word-spacing:0px;text-anchor:middle;stroke-width:0.264583"
       xml:space="preserve"><tspan
         style="stroke-width:0.264583"
         y="259.29169"
         x="238.125"
         id="tspan2405"
         sodipodi:role="line">-</tspan></text>
    <g
       id="g2465">
      <g
         id="g2434">
        <rect
           y="232.83334"
           x="238.125"
           height="10.583334"
           width="248.70834"
           id="rect2395"
           style="fill:#00ff00;fill-opacity:1;stroke:#00ffff;stroke-width:0.264999;stroke-linecap:round;stroke-linejoin:round;stroke-miterlimit:4;stroke-dasharray:none;stroke-dashoffset:9.44882;stroke-opacity:1" />
        <text
           xml:space="preserve"
           style="font-weight:bold;font-size:8.46667px;line-height:1.25;font-family:Ubuntu;-inkscape-font-specification:'Ubuntu Bold';text-align:center;letter-spacing:0px;word-spacing:0px;text-anchor:middle;stroke-width:0.264583"
           x="370.41669"
           y="259.29169"
           id="text2421"><tspan
             sodipodi:role="line"
             id="tspan2419"
             x="370.41669"
             y="259.29169"
             style="stroke-width:0.264583">0</tspan></text>
      </g>
      <g
         id="g2451">
        <path
           style="fill:#ff0001;fill-opacity:1;stroke:#000000;stroke-width:0.305082;stroke-linecap:round;stroke-linejoin:round;stroke-miterlimit:4;stroke-dasharray:none;stroke-opacity:1"
           d="m 486.83334,224.96923 c 0,-7.85836 -9.1681,-7.85836 -9.1681,-7.85836 0,0 -8.86248,0 -9.01522,10.47399 -0.15287,10.48165 18.18332,20.97094 18.18332,20.97094 0,0 18.33617,-10.48929 18.18331,-20.97094 -0.15275,-10.47399 -9.01523,-10.47399 -9.01523,-10.47399 0,0 -9.16808,0 -9.16808,7.85836 z"
           id="path2413"
           sodipodi:nodetypes="ccscscc" />
        <g
           id="g2438">
          <path
             sodipodi:nodetypes="ccscscc"
             id="path2411"
             d="m 238.12501,224.96923 c 0,-7.85836 -9.1681,-7.85836 -9.1681,-7.85836 0,0 -8.86248,0 -9.01522,10.47399 -0.15287,10.48165 18.18332,20.97094 18.18332,20.97094 0,0 18.33617,-10.48929 18.18331,-20.97094 -0.15275,-10.47399 -9.01523,-10.47399 -9.01523,-10.47399 0,0 -9.16808,0 -9.16808,7.85836 z"
             style="fill:#000044;fill-opacity:1;stroke:#000000;stroke-width:0.305082;stroke-linecap:round;stroke-linejoin:round;stroke-miterlimit:4;stroke-dasharray:none;stroke-opacity:1" />
          <path
             style="fill:none;stroke:#ffffff;stroke-width:0.264583px;stroke-linecap:butt;stroke-linejoin:miter;stroke-opacity:1"
             d="m 238.12501,224.89584 -2.64584,5.29167 3.96875,5.29166 -3.96875,3.96875 3.96875,3.96875 -1.32291,5.29167"
             id="path2415" />
        </g>
        <g
           id="g2442">
          <path
             style="fill:#840083;fill-opacity:1;stroke:#000000;stroke-width:0.305082;stroke-linecap:round;stroke-linejoin:round;stroke-miterlimit:4;stroke-dasharray:none;stroke-opacity:1"
             d="m 370.41667,224.96923 c 0,-7.85836 -9.1681,-7.85836 -9.1681,-7.85836 0,0 -8.86248,0 -9.01522,10.47399 -0.15287,10.48165 18.18332,20.97094 18.18332,20.97094 0,0 18.33617,-10.48929 18.18331,-20.97094 -0.15275,-10.47399 -9.01523,-10.47399 -9.01523,-10.47399 0,0 -9.16808,0 -9.16808,7.85836 z"
             id="path2409"
             sodipodi:nodetypes="ccscscc" />
          <path
             style="fill:none;stroke:#ffffff;stroke-width:0.264583px;stroke-linecap:butt;stroke-linejoin:miter;stroke-opacity:1"
             d="m 370.41668,224.89584 -2.64584,5.29167 5.29167,7.9375"
             id="path2417" />
        </g>
      </g>
    </g>
    <text
       xml:space="preserve"
       style="font-weight:bold;font-size:8.46667px;line-height:1.25;font-family:Ubuntu;-inkscape-font-specification:'Ubuntu Bold';text-align:center;letter-spacing:0px;word-spacing:0px;text-anchor:middle;stroke-width:0.264583"
       x="486.83334"
       y="259.29169"
       id="text2425"><tspan
         sodipodi:role="line"
         id="tspan2423"
         x="486.83334"
         y="259.29169"
         style="stroke-width:0.264583">+</tspan></text>
    <text
       xml:space="preserve"
       style="font-weight:bold;font-size:8.46667px;line-height:1.25;font-family:Ubuntu;-inkscape-font-specification:'Ubuntu Bold';text-align:center;letter-spacing:0px;word-spacing:0px;text-anchor:middle;stroke-width:0.264583"
       x="238.125"
       y="259.29169"
       id="text2429"><tspan
         sodipodi:role="line"
         id="tspan2427"
         x="238.125"
         y="259.29169"
         style="stroke-width:0.264583">-</tspan></text>
  </g>
</svg>
