<?xml version="1.0" encoding="UTF-8" standalone="no"?>
<svg
   xmlns:dc="http://purl.org/dc/elements/1.1/"
   xmlns:cc="http://creativecommons.org/ns#"
   xmlns:rdf="http://www.w3.org/1999/02/22-rdf-syntax-ns#"
   xmlns:svg="http://www.w3.org/2000/svg"
   xmlns="http://www.w3.org/2000/svg"
   xmlns:sodipodi="http://sodipodi.sourceforge.net/DTD/sodipodi-0.dtd"
   xmlns:inkscape="http://www.inkscape.org/namespaces/inkscape"
   inkscape:export-ydpi="96"
   inkscape:export-xdpi="96"
   inkscape:export-filename="C:\Users\joelr\Documents\starring codes\After Church\RAW files\Inkscape\Very Offensive Fair Use vs Japan awareness - Pearl Harbour.png"
   sodipodi:docname="Very Offensive Fair Use vs Japan awareness.svg"
   inkscape:version="1.0 (4035a4fb49, 2020-05-01)"
   id="svg8"
   version="1.1"
   viewBox="0 0 1920 1080"
   height="1080"
   width="1920">
  <defs
     id="defs2" />
  <sodipodi:namedview
     inkscape:snap-bbox-midpoints="true"
     inkscape:snap-bbox-edge-midpoints="true"
     inkscape:bbox-nodes="true"
     inkscape:bbox-paths="true"
     inkscape:snap-bbox="true"
     inkscape:window-maximized="1"
     inkscape:window-y="-9"
     inkscape:window-x="-9"
     inkscape:window-height="1051"
     inkscape:window-width="1920"
     units="px"
     showgrid="true"
     inkscape:document-rotation="0"
     inkscape:current-layer="layer2"
     inkscape:document-units="px"
     inkscape:cy="632.12831"
     inkscape:cx="928.72354"
     inkscape:zoom="0.49497475"
     inkscape:pageshadow="2"
     inkscape:pageopacity="0.0"
     borderopacity="1.0"
     bordercolor="#666666"
     pagecolor="#ffffff"
     id="base">
    <inkscape:grid
       id="grid842"
       type="xygrid" />
  </sodipodi:namedview>
  <metadata
     id="metadata5">
    <rdf:RDF>
      <cc:Work
         rdf:about="">
        <dc:format>image/svg+xml</dc:format>
        <dc:type
           rdf:resource="http://purl.org/dc/dcmitype/StillImage" />
        <dc:title></dc:title>
        <cc:license
           rdf:resource="http://creativecommons.org/licenses/by-sa/4.0/" />
      </cc:Work>
      <cc:License
         rdf:about="http://creativecommons.org/licenses/by-sa/4.0/">
        <cc:permits
           rdf:resource="http://creativecommons.org/ns#Reproduction" />
        <cc:permits
           rdf:resource="http://creativecommons.org/ns#Distribution" />
        <cc:requires
           rdf:resource="http://creativecommons.org/ns#Notice" />
        <cc:requires
           rdf:resource="http://creativecommons.org/ns#Attribution" />
        <cc:permits
           rdf:resource="http://creativecommons.org/ns#DerivativeWorks" />
        <cc:requires
           rdf:resource="http://creativecommons.org/ns#ShareAlike" />
      </cc:License>
    </rdf:RDF>
  </metadata>
  <g
     style="display:none"
     sodipodi:insensitive="true"
     id="layer1"
     inkscape:groupmode="layer"
     inkscape:label="Revenge against Copyright shima strikesaki">
    <rect
       y="0"
       x="0"
       height="1080"
       width="1920"
       id="rect844"
       style="fill:#000000;fill-opacity:1;stroke:none;stroke-width:5;stroke-linecap:round;stroke-linejoin:round;paint-order:stroke fill markers" />
    <g
       id="g875">
      <g
         id="g862">
        <path
           id="path846"
           d="m 55,-30 c 0,0 10,0 10,10 0,10 -10,10 -10,10 H 35 l -5,-5 v -10 l 5,-5 z"
           style="fill:#ffffff;stroke:#000000;stroke-width:1px;stroke-linecap:round;stroke-linejoin:round;stroke-opacity:1" />
        <g
           id="g856">
          <path
             style="fill:#ffffff;stroke:#000000;stroke-width:1px;stroke-linecap:round;stroke-linejoin:round;stroke-opacity:1"
             d="m 15,-30 h 10 l 5,5 v 10 l -5,5 H 15 Z"
             id="path848" />
          <rect
             style="fill:#ffffff;fill-opacity:1;stroke:#000000;stroke-width:1;stroke-linecap:round;stroke-linejoin:round;stroke-miterlimit:4;stroke-dasharray:none;stroke-opacity:1;paint-order:stroke fill markers"
             id="rect850"
             width="10"
             height="20"
             x="15"
             y="-30" />
        </g>
      </g>
      <text
         xml:space="preserve"
         style="font-size:6.99084px;line-height:1.25;font-family:Ubuntu;-inkscape-font-specification:Ubuntu;text-align:center;letter-spacing:0px;word-spacing:0px;text-anchor:middle;stroke-width:0.109232"
         x="47.167019"
         y="-18.092165"
         id="text866"><tspan
           sodipodi:role="line"
           id="tspan864"
           x="47.167019"
           y="-18.092165"
           style="font-style:normal;font-variant:normal;font-weight:normal;font-stretch:normal;font-family:Stencil;-inkscape-font-specification:Stencil;stroke-width:0.109232">FAIR USE</tspan></text>
    </g>
    <g
       transform="matrix(11.328625,3.5524169,-3.5524169,11.328625,450.17616,699.59861)"
       id="g891">
      <g
         id="g885">
        <path
           style="fill:#ffffff;stroke:#000000;stroke-width:1px;stroke-linecap:round;stroke-linejoin:round;stroke-opacity:1"
           d="m 55,-30 c 0,0 10,0 10,10 0,10 -10,10 -10,10 H 35 l -5,-5 v -10 l 5,-5 z"
           id="path877" />
        <g
           id="g883">
          <path
             id="path879"
             d="m 15,-30 h 10 l 5,5 v 10 l -5,5 H 15 Z"
             style="fill:#ffffff;stroke:#000000;stroke-width:1px;stroke-linecap:round;stroke-linejoin:round;stroke-opacity:1" />
          <rect
             y="-30"
             x="15"
             height="20"
             width="10"
             id="rect881"
             style="fill:#ffffff;fill-opacity:1;stroke:#000000;stroke-width:1;stroke-linecap:round;stroke-linejoin:round;stroke-miterlimit:4;stroke-dasharray:none;stroke-opacity:1;paint-order:stroke fill markers" />
        </g>
      </g>
      <text
         id="text889"
         y="-18.092165"
         x="47.167019"
         style="font-size:6.99084px;line-height:1.25;font-family:Ubuntu;-inkscape-font-specification:Ubuntu;text-align:center;letter-spacing:0px;word-spacing:0px;text-anchor:middle;stroke-width:0.109232"
         xml:space="preserve"><tspan
           style="font-style:normal;font-variant:normal;font-weight:normal;font-stretch:normal;font-family:Stencil;-inkscape-font-specification:Stencil;stroke-width:0.109232"
           y="-18.092165"
           x="47.167019"
           id="tspan887"
           sodipodi:role="line">FAIR USE</tspan></text>
    </g>
    <text
       id="text895"
       y="158.38402"
       x="957.6626"
       style="font-size:156.316px;line-height:1.25;font-family:Ubuntu;-inkscape-font-specification:Ubuntu;text-align:center;letter-spacing:0px;word-spacing:0px;text-anchor:middle;stroke-width:2.44243"
       xml:space="preserve"><tspan
         style="fill:#ffffff;stroke-width:2.44243"
         y="158.38402"
         x="957.6626"
         id="tspan893"
         sodipodi:role="line">It's time to aware.</tspan></text>
    <text
       id="text899"
       y="1060"
       x="960"
       style="font-size:64px;line-height:1.25;font-family:Ubuntu;-inkscape-font-specification:Ubuntu;text-align:center;letter-spacing:0px;word-spacing:0px;text-anchor:middle"
       xml:space="preserve"><tspan
         style="font-style:normal;font-variant:normal;font-weight:normal;font-stretch:normal;font-family:'Segoe UI';-inkscape-font-specification:'Segoe UI';fill:#800000"
         y="1060"
         x="960"
         id="tspan897"
         sodipodi:role="line">Copyright Strikeland</tspan></text>
    <text
       id="text903"
       y="240"
       x="980"
       style="font-size:64px;line-height:1.25;font-family:Ubuntu;-inkscape-font-specification:Ubuntu;text-align:center;letter-spacing:0px;word-spacing:0px;text-anchor:middle"
       xml:space="preserve"><tspan
         style="fill:#ffffff"
         y="240"
         x="980"
         id="tspan901"
         sodipodi:role="line">Join us, as there're more. </tspan><tspan
         id="tspan907"
         style="fill:#ffffff"
         y="320"
         x="980"
         sodipodi:role="line">Together, we can fight more against of <tspan
   id="tspan905"
   style="fill:#800000">those</tspan>.</tspan></text>
    <text
       id="text912"
       y="366.76239"
       x="342.48425"
       style="font-size:21.168px;line-height:1.25;font-family:Ubuntu;-inkscape-font-specification:Ubuntu;letter-spacing:0px;word-spacing:0px;stroke-width:0.330751"
       xml:space="preserve"><tspan
         style="fill:#ffffff;stroke-width:0.330751"
         y="366.76239"
         x="342.48425"
         id="tspan910"
         sodipodi:role="line">by JOELwindows7</tspan><tspan
         style="fill:#ffffff;stroke-width:0.330751"
         id="tspan914"
         y="393.22238"
         x="342.48425"
         sodipodi:role="line">Perkedel Technologies</tspan><tspan
         style="fill:#ffffff;stroke-width:0.330751"
         id="tspan916"
         y="419.68237"
         x="342.48425"
         sodipodi:role="line">CC4.0-BY-SA</tspan></text>
  </g>
  <g
     style="display:inline"
     sodipodi:insensitive="true"
     inkscape:label="Copyright strike attacks pearl harbour"
     id="layer2"
     inkscape:groupmode="layer">
    <rect
       y="0"
       x="0"
       height="1080"
       width="1920"
       id="rect919"
       style="fill:#000000;fill-opacity:1;stroke:#000000;stroke-width:1;stroke-linecap:round;stroke-linejoin:round;stroke-miterlimit:4;stroke-dasharray:none;stroke-opacity:1;paint-order:stroke fill markers" />
    <path
       sodipodi:nodetypes="ccssssssssscc"
       id="path921"
       d="m 0,580 h 2080 c 0,0 -100,130 -280,120 -82.3351,-4.57417 -320,120 -320,140 0,20 -140,40 -180,20 -40,-20 -280,20 -320,20 C 940,880 840,860 740,840 640,820 520,760 460,780 400,800 260,760 240,760 220,760 160,740 140,720 120,700 60,680 40,680 20,680 -40,620 -40,620 Z"
       style="fill:#ffffff;stroke:#000000;stroke-width:1px;stroke-linecap:butt;stroke-linejoin:miter;stroke-opacity:1" />
    <path
       id="path923"
       d="m 760,920 c 0,0 200,-40 220,-20 20,20 100,80 120,60 20,-20 40,40 40,40 0,0 -140,40 -180,0 -40,-40 -200,-40 -200,-80 z"
       style="fill:#ffffff;stroke:#000000;stroke-width:1px;stroke-linecap:butt;stroke-linejoin:miter;stroke-opacity:1" />
    <path
       id="path925"
       d="m 700,1120 c 0,0 20,-60 60,-60 40,0 200,-20 200,20 0,40 -40,80 -40,80 0,0 -120,40 -140,20 -20,-20 -80,-60 -80,-60 z"
       style="fill:#ffffff;stroke:#000000;stroke-width:1px;stroke-linecap:butt;stroke-linejoin:miter;stroke-opacity:1" />
    <path
       id="path931"
       d="M 840,380 V 180 h 120 l 140,400 H 840 Z"
       style="fill:#ffffff;stroke:#000000;stroke-width:1px;stroke-linecap:butt;stroke-linejoin:miter;stroke-opacity:1" />
    <path
       id="path929"
       d="M 800,580 V 380 h 80 v 200 z"
       style="fill:#ffffff;stroke:#000000;stroke-width:1px;stroke-linecap:butt;stroke-linejoin:miter;stroke-opacity:1" />
    <g
       id="g963">
      <g
         id="g955">
        <path
           id="path943"
           d="m 600,540 c 60,-180 -60,-280 -60,-280 0,0 -60,100 -60,140 0,40 20,180 20,180 z"
           style="fill:#ffffff;stroke:#000000;stroke-width:1px;stroke-linecap:butt;stroke-linejoin:miter;stroke-opacity:1" />
        <path
           style="fill:#ffffff;stroke:#000000;stroke-width:1px;stroke-linecap:butt;stroke-linejoin:miter;stroke-opacity:1"
           d="m 640,640 c 180,60 280,-60 280,-60 0,0 -100,-60 -140,-60 -40,0 -180,20 -180,20 z"
           id="path945" />
        <path
           id="path947"
           d="m 540,680 c -60,180 60,280 60,280 0,0 60,-100 60,-140 0,-40 -20,-180 -20,-180 z"
           style="fill:#ffffff;stroke:#000000;stroke-width:1px;stroke-linecap:butt;stroke-linejoin:miter;stroke-opacity:1" />
        <path
           style="fill:#ffffff;stroke:#000000;stroke-width:1px;stroke-linecap:butt;stroke-linejoin:miter;stroke-opacity:1"
           d="m 500,580 c -180,-60 -280,60 -280,60 0,0 100,60 140,60 40,0 180,-20 180,-20 z"
           id="path949" />
      </g>
      <path
         style="fill:#ffffff;stroke:#000000;stroke-width:10;stroke-linecap:butt;stroke-linejoin:miter;stroke-miterlimit:4;stroke-dasharray:none;stroke-opacity:1"
         d="m 480,440 c 0,0 180,40 180,200 0,160 -160,200 -160,200 L -40,1060 V 360 Z"
         id="path927" />
    </g>
    <path
       id="path937"
       d="m 1000,580 -20,-120 60,-100 -40,-80 100,-60 h 240 l 120,160 -40,200 z"
       style="fill:#ffffff;stroke:#000000;stroke-width:1px;stroke-linecap:butt;stroke-linejoin:miter;stroke-opacity:1" />
    <g
       id="g941">
      <path
         style="fill:#ffffff;stroke:#000000;stroke-width:1px;stroke-linecap:butt;stroke-linejoin:miter;stroke-opacity:1"
         d="m 1220,580 60,-360 h 40 l 80,360 z"
         id="path933" />
      <ellipse
         style="fill:#ffffff;fill-opacity:1;stroke:#000000;stroke-width:10;stroke-linecap:round;stroke-linejoin:round;stroke-miterlimit:4;stroke-dasharray:none;stroke-opacity:1;paint-order:stroke fill markers"
         id="path935"
         cx="1300"
         cy="170"
         rx="180"
         ry="50" />
    </g>
    <text
       id="text967"
       y="179.83774"
       x="1158.6846"
       style="font-size:25.787px;line-height:1.25;font-family:Ubuntu;-inkscape-font-specification:Ubuntu;letter-spacing:0px;word-spacing:0px;stroke-width:0.402921"
       xml:space="preserve"><tspan
         style="stroke-width:0.402921"
         y="179.83774"
         x="1158.6846"
         id="tspan965"
         sodipodi:role="line">content creator harbour</tspan></text>
    <text
       id="text971"
       y="188.64"
       x="1497.248"
       style="font-size:64px;line-height:1.25;font-family:Ubuntu;-inkscape-font-specification:Ubuntu;letter-spacing:0px;word-spacing:0px"
       xml:space="preserve"><tspan
         style="fill:#ffffff"
         y="188.64"
         x="1497.248"
         id="tspan969"
         sodipodi:role="line">It's</tspan><tspan
         id="tspan973"
         style="fill:#ffffff"
         y="268.64001"
         x="1497.248"
         sodipodi:role="line">time</tspan><tspan
         id="tspan975"
         style="fill:#ffffff"
         y="348.64001"
         x="1497.248"
         sodipodi:role="line">to</tspan><tspan
         id="tspan977"
         style="fill:#ffffff"
         y="428.64001"
         x="1497.248"
         sodipodi:role="line">aware.</tspan></text>
    <g
       id="g985">
      <circle
         style="fill:#ffffff;fill-opacity:1;stroke:#000000;stroke-width:10;stroke-linecap:round;stroke-linejoin:round;stroke-miterlimit:4;stroke-dasharray:none;stroke-opacity:1;paint-order:stroke fill markers"
         id="path979"
         cx="-465"
         cy="475"
         r="15" />
      <path
         style="fill:none;stroke:#000000;stroke-width:4.46525;stroke-linecap:butt;stroke-linejoin:miter;stroke-miterlimit:4;stroke-dasharray:none;stroke-opacity:1"
         d="m -457.23271,469.86626 c 0,0 0,-5.13373 -7.76762,-5.13373 -7.76762,0 -7.76762,5.13373 -7.76762,10.26747 0,5.13374 0,10.26747 7.76762,10.26747 7.76762,0 7.76762,-5.13373 7.76762,-5.13373"
         id="path981" />
    </g>
    <g
       style="stroke:#ff0000"
       transform="matrix(4.3814187,0.30553939,0,5.3814187,2337.3597,-1794.0981)"
       id="g991">
      <circle
         r="15"
         cy="475"
         cx="-465"
         id="circle987"
         style="fill:#ffffff;fill-opacity:1;stroke:#ff0000;stroke-width:10;stroke-linecap:round;stroke-linejoin:round;stroke-miterlimit:4;stroke-dasharray:none;stroke-opacity:1;paint-order:stroke fill markers" />
      <path
         id="path989"
         d="m -457.23271,469.86626 c 0,0 0,-5.13373 -7.76762,-5.13373 -7.76762,0 -7.76762,5.13373 -7.76762,10.26747 0,5.13374 0,10.26747 7.76762,10.26747 7.76762,0 7.76762,-5.13373 7.76762,-5.13373"
         style="fill:none;stroke:#ff0000;stroke-width:4.46525;stroke-linecap:butt;stroke-linejoin:miter;stroke-miterlimit:4;stroke-dasharray:none;stroke-opacity:1" />
    </g>
    <text
       transform="matrix(0.8773436,-0.13551827,0,1.1398043,0,0)"
       id="text995"
       y="736.19702"
       x="162.77124"
       style="font-size:56.15px;line-height:1.25;font-family:Ubuntu;-inkscape-font-specification:Ubuntu;letter-spacing:0px;word-spacing:0px;stroke-width:0.877344"
       xml:space="preserve"><tspan
         style="font-style:normal;font-variant:normal;font-weight:bold;font-stretch:normal;font-family:'Segoe UI';-inkscape-font-specification:'Segoe UI Bold';fill:#ff0000;stroke-width:0.877344"
         y="736.19702"
         x="162.77124"
         id="tspan993"
         sodipodi:role="line">ANIMATIONS</tspan></text>
    <text
       id="text999"
       y="450.88489"
       x="1499.843"
       style="font-size:19.6153px;line-height:1.25;font-family:Ubuntu;-inkscape-font-specification:Ubuntu;letter-spacing:0px;word-spacing:0px;stroke-width:0.306489"
       xml:space="preserve"><tspan
         style="fill:#ffffff;stroke-width:0.306489"
         y="450.88489"
         x="1499.843"
         id="tspan997"
         sodipodi:role="line">Join us.</tspan><tspan
         id="tspan1001"
         style="fill:#ffffff;stroke-width:0.306489"
         y="475.40402"
         x="1499.843"
         sodipodi:role="line">Together,</tspan><tspan
         id="tspan1003"
         style="fill:#ffffff;stroke-width:0.306489"
         y="499.92313"
         x="1499.843"
         sodipodi:role="line">to prevent</tspan><tspan
         id="tspan1005"
         style="fill:#ffffff;stroke-width:0.306489"
         y="524.44226"
         x="1499.843"
         sodipodi:role="line">&amp; obliterate</tspan><tspan
         id="tspan1007"
         style="fill:#ffffff;stroke-width:0.306489"
         y="548.96136"
         x="1499.843"
         sodipodi:role="line">abuses</tspan></text>
    <text
       id="text1011"
       y="510.13516"
       x="1629.1959"
       style="font-size:13.8628px;line-height:1.25;font-family:Ubuntu;-inkscape-font-specification:Ubuntu;letter-spacing:0px;word-spacing:0px;stroke-width:0.216606"
       xml:space="preserve"><tspan
         style="fill:#ffffff;stroke-width:0.216606"
         y="510.13516"
         x="1629.1959"
         id="tspan1009"
         sodipodi:role="line">by JOELwindows7</tspan><tspan
         style="fill:#ffffff;stroke-width:0.216606"
         id="tspan1013"
         y="527.46368"
         x="1629.1959"
         sodipodi:role="line">Perkedel Technologies</tspan><tspan
         style="fill:#ffffff;stroke-width:0.216606"
         id="tspan1015"
         y="544.79218"
         x="1629.1959"
         sodipodi:role="line">CC4.0-BY-SA</tspan></text>
  </g>
</svg>
