<?xml version="1.0" encoding="UTF-8" standalone="no"?>
<!-- Created with Inkscape (http://www.inkscape.org/) -->

<svg
   width="1920"
   height="1080"
   viewBox="0 0 1920 1080"
   version="1.1"
   id="svg1"
   inkscape:version="1.3 (0e150ed6c4, 2023-07-21)"
   sodipodi:docname="warning expletive.svg"
   inkscape:export-filename="warning expletive.png"
   inkscape:export-xdpi="96"
   inkscape:export-ydpi="96"
   xmlns:inkscape="http://www.inkscape.org/namespaces/inkscape"
   xmlns:sodipodi="http://sodipodi.sourceforge.net/DTD/sodipodi-0.dtd"
   xmlns="http://www.w3.org/2000/svg"
   xmlns:svg="http://www.w3.org/2000/svg">
  <sodipodi:namedview
     id="namedview1"
     pagecolor="#000000"
     bordercolor="#000000"
     borderopacity="0.25"
     inkscape:showpageshadow="2"
     inkscape:pageopacity="0.0"
     inkscape:pagecheckerboard="0"
     inkscape:deskcolor="#232323"
     inkscape:document-units="mm"
     showgrid="true"
     inkscape:zoom="0.76914231"
     inkscape:cx="796.34158"
     inkscape:cy="516.80943"
     inkscape:window-width="2560"
     inkscape:window-height="1417"
     inkscape:window-x="-8"
     inkscape:window-y="-8"
     inkscape:window-maximized="1"
     inkscape:current-layer="layer1">
    <inkscape:grid
       id="grid1"
       units="px"
       originx="0"
       originy="0"
       spacingx="1"
       spacingy="1"
       empcolor="#0099e5"
       empopacity="0.30196078"
       color="#0099e5"
       opacity="0.14901961"
       empspacing="5"
       dotted="false"
       gridanglex="30"
       gridanglez="30"
       visible="true" />
  </sodipodi:namedview>
  <defs
     id="defs1" />
  <g
     inkscape:label="Lapis 1"
     inkscape:groupmode="layer"
     id="layer1">
    <path
       id="rect1"
       style="fill:#ff0000;stroke-width:0.5;stroke-linecap:round;stroke-linejoin:bevel"
       d="M 0 0 L 0 1080 L 1920 1080 L 1920 0 L 0 0 z M 40 40 L 1880 40 L 1880 1040 L 40 1040 L 40 40 z " />
    <text
       xml:space="preserve"
       style="font-weight:bold;font-size:85.3333px;font-family:Ubuntu;-inkscape-font-specification:'Ubuntu Bold';text-align:center;text-anchor:middle;fill:#ff0000;stroke-width:0.5;stroke-linecap:round;stroke-linejoin:bevel"
       x="980"
       y="680"
       id="text2"><tspan
         sodipodi:role="line"
         id="tspan2"
         x="980"
         y="680"
         style="font-size:85.3333px">LIVESTREAMING | LACKS AI MODERATOR</tspan><tspan
         sodipodi:role="line"
         x="980"
         y="786.66663"
         id="tspan3"
         style="font-size:85.3333px">WILL CONTAINS EXPLETIVES!</tspan><tspan
         sodipodi:role="line"
         x="980"
         y="893.33325"
         id="tspan4"
         style="font-size:85.3333px">VIEWER DISCRETION IS ADVISED</tspan></text>
    <g
       id="g6">
      <path
         sodipodi:type="star"
         style="fill:#ffff00;stroke-width:0.5;stroke-linecap:round;stroke-linejoin:bevel"
         id="path4"
         inkscape:flatsided="true"
         sodipodi:sides="4"
         sodipodi:cx="960"
         sodipodi:cy="325.03738"
         sodipodi:r1="265.03738"
         sodipodi:r2="187.40973"
         sodipodi:arg1="-1.5707963"
         sodipodi:arg2="-0.78539816"
         inkscape:rounded="0"
         inkscape:randomized="0"
         d="M 960.00001,60 1225.0374,325.03739 959.99999,590.07477 694.96262,325.03738 Z" />
      <text
         xml:space="preserve"
         style="font-weight:bold;font-size:114.138px;font-family:Ubuntu;-inkscape-font-specification:'Ubuntu Bold';text-align:center;text-anchor:middle;fill:#ffff00;stroke-width:0.668776;stroke-linecap:round;stroke-linejoin:bevel"
         x="960.07202"
         y="288.57092"
         id="text5"><tspan
           sodipodi:role="line"
           id="tspan5"
           x="960.07202"
           y="288.57092"
           style="fill:#000000;stroke-width:0.668776">!@#$</tspan><tspan
           sodipodi:role="line"
           x="960.07202"
           y="431.24313"
           style="fill:#000000;stroke-width:0.668776"
           id="tspan6">%^&amp;*</tspan></text>
    </g>
    <text
       xml:space="preserve"
       style="font-weight:bold;font-size:85.3333px;font-family:Ubuntu;-inkscape-font-specification:'Ubuntu Bold';text-align:center;text-anchor:middle;fill:#000000;stroke-width:0.5;stroke-linecap:round;stroke-linejoin:bevel"
       x="1063.5039"
       y="996.21863"
       id="text7"><tspan
         sodipodi:role="line"
         id="tspan7"
         x="1063.5039"
         y="996.21863"
         style="fill:#00ffff">Perkedel Technologies</tspan></text>
    <g
       id="g1492-8-9"
       transform="matrix(0.78125,0,0,0.78125,297.5,664.29687)"
       inkscape:export-xdpi="10"
       inkscape:export-ydpi="10">
      <path
         id="path1451-5-4"
         transform="translate(0,106.5)"
         d="m 256,208 a 64,64 0 0 0 -64,64 64,64 0 0 0 64,64 h 64 a 64,64 0 0 0 64,-64 64,64 0 0 0 -64,-64 z"
         style="opacity:1;fill:#ffc800;fill-opacity:1;fill-rule:nonzero;stroke:none;stroke-opacity:1"
         inkscape:connector-curvature="0" />
      <path
         id="rect1461-3-1"
         transform="translate(0,106.5)"
         d="m 288,224 a 4,4 0 0 0 -4,4 v 40 h -40 a 4,4 0 0 0 -4,4 4,4 0 0 0 4,4 h 40 v 40 a 4,4 0 0 0 4,4 4,4 0 0 0 4,-4 v -40 h 40 a 4,4 0 0 0 4,-4 4,4 0 0 0 -4,-4 h -40 v -40 a 4,4 0 0 0 -4,-4 z"
         style="opacity:1;fill:#fffe00;fill-opacity:1;fill-rule:nonzero;stroke:none;stroke-width:1.04447;stroke-opacity:1"
         inkscape:connector-curvature="0" />
    </g>
  </g>
</svg>
