<?xml version="1.0" encoding="UTF-8" standalone="no"?>
<!-- Created with Inkscape (http://www.inkscape.org/) -->

<svg
   xmlns:dc="http://purl.org/dc/elements/1.1/"
   xmlns:cc="http://creativecommons.org/ns#"
   xmlns:rdf="http://www.w3.org/1999/02/22-rdf-syntax-ns#"
   xmlns:svg="http://www.w3.org/2000/svg"
   xmlns="http://www.w3.org/2000/svg"
   xmlns:sodipodi="http://sodipodi.sourceforge.net/DTD/sodipodi-0.dtd"
   xmlns:inkscape="http://www.inkscape.org/namespaces/inkscape"
   width="210mm"
   height="297mm"
   viewBox="0 0 210 297"
   version="1.1"
   id="svg2885"
   inkscape:version="0.92.3 (2405546, 2018-03-11)"
   sodipodi:docname="JOELwindows7_LogoSet.svg">
  <defs
     id="defs2879" />
  <sodipodi:namedview
     id="base"
     pagecolor="#ffffff"
     bordercolor="#666666"
     borderopacity="1.0"
     inkscape:pageopacity="0.0"
     inkscape:pageshadow="2"
     inkscape:zoom="1.979899"
     inkscape:cx="1246.8777"
     inkscape:cy="1311.8084"
     inkscape:document-units="mm"
     inkscape:current-layer="g3633"
     showgrid="true"
     inkscape:window-width="1920"
     inkscape:window-height="1051"
     inkscape:window-x="-9"
     inkscape:window-y="-9"
     inkscape:window-maximized="1"
     inkscape:snap-bbox="true"
     inkscape:snap-bbox-midpoints="true"
     inkscape:bbox-paths="true"
     inkscape:bbox-nodes="true"
     inkscape:snap-bbox-edge-midpoints="true"
     inkscape:snap-intersection-paths="true">
    <inkscape:grid
       type="xygrid"
       id="grid3430"
       empspacing="4"
       empcolor="#3f3fff"
       empopacity="0.30980392" />
    <inkscape:grid
       type="xygrid"
       id="grid3432"
       color="#ff0000"
       opacity="0.1254902"
       empcolor="#ff0000"
       empopacity="0.25098039"
       empspacing="64" />
  </sodipodi:namedview>
  <metadata
     id="metadata2882">
    <rdf:RDF>
      <cc:Work
         rdf:about="">
        <dc:format>image/svg+xml</dc:format>
        <dc:type
           rdf:resource="http://purl.org/dc/dcmitype/StillImage" />
        <dc:title />
        <cc:license
           rdf:resource="http://creativecommons.org/licenses/by-sa/4.0/" />
      </cc:Work>
      <cc:License
         rdf:about="http://creativecommons.org/licenses/by-sa/4.0/">
        <cc:permits
           rdf:resource="http://creativecommons.org/ns#Reproduction" />
        <cc:permits
           rdf:resource="http://creativecommons.org/ns#Distribution" />
        <cc:requires
           rdf:resource="http://creativecommons.org/ns#Notice" />
        <cc:requires
           rdf:resource="http://creativecommons.org/ns#Attribution" />
        <cc:permits
           rdf:resource="http://creativecommons.org/ns#DerivativeWorks" />
        <cc:requires
           rdf:resource="http://creativecommons.org/ns#ShareAlike" />
      </cc:License>
    </rdf:RDF>
  </metadata>
  <g
     inkscape:label="Layer 1"
     inkscape:groupmode="layer"
     id="layer1">
    <g
       id="g3570">
      <g
         id="g3553">
        <path
           sodipodi:type="star"
           style="opacity:1;fill:#ffff00;fill-opacity:1;fill-rule:nonzero;stroke:#000000;stroke-width:0.79375;stroke-miterlimit:0;stroke-dasharray:none;stroke-opacity:1;stroke-linejoin:bevel"
           id="path3440"
           sodipodi:sides="6"
           sodipodi:cx="33.866665"
           sodipodi:cy="76.866669"
           sodipodi:r1="16.933332"
           sodipodi:r2="14.664696"
           sodipodi:arg1="0"
           sodipodi:arg2="0.52359878"
           inkscape:flatsided="true"
           inkscape:rounded="0"
           inkscape:randomized="0"
           d="M 50.799997,76.866669 42.333331,91.531365 H 25.399999 l -8.466667,-14.664696 8.466667,-14.664696 16.933332,0 z" />
        <g
           id="g3541">
          <g
             id="g3526">
            <circle
               style="opacity:1;fill:#000000;fill-opacity:1;fill-rule:nonzero;stroke:none;stroke-width:0.79374999;stroke-linejoin:bevel;stroke-miterlimit:0;stroke-dasharray:none;stroke-opacity:1"
               id="path3452"
               cx="26.458334"
               cy="71.574997"
               r="3.175" />
            <circle
               style="opacity:1;fill:#000000;fill-opacity:1;fill-rule:nonzero;stroke:none;stroke-width:0.79374999;stroke-linejoin:bevel;stroke-miterlimit:0;stroke-dasharray:none;stroke-opacity:1"
               id="path3452-6"
               cx="33.866665"
               cy="71.574997"
               r="3.175" />
            <circle
               style="opacity:1;fill:#000000;fill-opacity:1;fill-rule:nonzero;stroke:none;stroke-width:0.79374999;stroke-linejoin:bevel;stroke-miterlimit:0;stroke-dasharray:none;stroke-opacity:1"
               id="path3452-4"
               cx="41.275002"
               cy="71.574997"
               r="3.175" />
          </g>
          <g
             id="g3531">
            <circle
               style="opacity:1;fill:#000000;fill-opacity:1;fill-rule:nonzero;stroke:none;stroke-width:0.79374999;stroke-linejoin:bevel;stroke-miterlimit:0;stroke-dasharray:none;stroke-opacity:1"
               id="path3452-9"
               cx="26.458334"
               cy="82.158333"
               r="3.175" />
            <circle
               style="opacity:1;fill:#000000;fill-opacity:1;fill-rule:nonzero;stroke:none;stroke-width:0.79374999;stroke-linejoin:bevel;stroke-miterlimit:0;stroke-dasharray:none;stroke-opacity:1"
               id="path3452-69"
               cx="33.866665"
               cy="82.158333"
               r="3.175" />
            <circle
               style="opacity:1;fill:#000000;fill-opacity:1;fill-rule:nonzero;stroke:none;stroke-width:0.79374999;stroke-linejoin:bevel;stroke-miterlimit:0;stroke-dasharray:none;stroke-opacity:1"
               id="path3452-60"
               cx="41.275002"
               cy="82.158333"
               r="3.175" />
          </g>
        </g>
      </g>
      <flowRoot
         transform="matrix(0.26458333,0,0,0.26458333,-0.06773267,1.3591397)"
         style="font-style:normal;font-variant:normal;font-weight:normal;font-stretch:normal;font-size:96px;line-height:1.25;font-family:Ubuntu;-inkscape-font-specification:Ubuntu;letter-spacing:0px;word-spacing:0px;fill:#000000;fill-opacity:1;stroke:none"
         id="flowRoot3493"
         xml:space="preserve"><flowRegion
           style="font-style:normal;font-variant:normal;font-weight:normal;font-stretch:normal;font-size:96px;font-family:Ubuntu;-inkscape-font-specification:Ubuntu"
           id="flowRegion3495"><rect
             style="font-style:normal;font-variant:normal;font-weight:normal;font-stretch:normal;font-size:96px;font-family:Ubuntu;-inkscape-font-specification:Ubuntu"
             y="226.51968"
             x="192"
             height="127.99999"
             width="768"
             id="rect3497" /></flowRegion><flowPara
           id="flowPara3499">Hexagon Engine</flowPara></flowRoot>    </g>
    <g
       id="g3618">
      <g
         id="g3606">
        <rect
           style="opacity:1;fill:#0082ff;fill-opacity:1;fill-rule:nonzero;stroke:none;stroke-width:0.79374999;stroke-linejoin:bevel;stroke-miterlimit:0;stroke-dasharray:none;stroke-opacity:1"
           id="rect3501"
           width="50.799999"
           height="33.866665"
           x="118.53333"
           y="110.73333" />
        <flowRoot
           xml:space="preserve"
           id="flowRoot3507"
           style="font-style:normal;font-weight:normal;font-size:96px;line-height:1.25;font-family:sans-serif;text-align:center;letter-spacing:0px;word-spacing:0px;text-anchor:middle;fill:#000000;fill-opacity:1;stroke:none"
           transform="matrix(0.3744524,0,0,0.3744524,-60.181255,-48.777103)"><flowRegion
             id="flowRegion3509"
             style="font-size:96px;text-align:center;text-anchor:middle"><rect
               id="rect3511"
               width="192"
               height="128"
               x="448"
               y="418.51968"
               style="font-size:96px;text-align:center;text-anchor:middle" /></flowRegion><flowPara
             id="flowPara3513">CX</flowPara></flowRoot>      </g>
      <flowRoot
         transform="scale(0.26458333)"
         style="font-style:normal;font-weight:normal;font-size:40px;line-height:1.25;font-family:sans-serif;text-align:end;letter-spacing:0px;word-spacing:0px;text-anchor:end;fill:#000000;fill-opacity:1;stroke:none"
         id="flowRoot3515"
         xml:space="preserve"><flowRegion
           style="text-align:end;text-anchor:end"
           id="flowRegion3517"><rect
             style="text-align:end;text-anchor:end"
             y="418.51968"
             x="184"
             height="128.00002"
             width="264"
             id="rect3519" /></flowRegion><flowPara
           style="font-size:96.00000121px;-inkscape-font-specification:ubuntu;font-family:ubuntu;font-weight:normal;font-style:normal;font-stretch:normal;font-variant:normal"
           id="flowPara3521">Open</flowPara></flowRoot>    </g>
    <g
       id="g3633">
      <g
         id="g3878">
        <g
           id="g3623">
          <circle
             r="8.4666662"
             cy="170"
             cx="76.199997"
             id="path3587"
             style="opacity:1;fill:#00ee00;fill-opacity:1;fill-rule:nonzero;stroke:none;stroke-width:0.79374999;stroke-linejoin:bevel;stroke-miterlimit:0;stroke-dasharray:none;stroke-opacity:1" />
          <circle
             r="8.4666662"
             cy="179.52499"
             cx="59.266666"
             id="path3589"
             style="opacity:1;fill:#00ee00;fill-opacity:1;fill-rule:nonzero;stroke:none;stroke-width:0.79374999;stroke-linejoin:bevel;stroke-miterlimit:0;stroke-dasharray:none;stroke-opacity:1" />
          <circle
             r="8.4666662"
             cy="189.05"
             cx="76.199997"
             id="path3591"
             style="opacity:1;fill:#00ee00;fill-opacity:1;fill-rule:nonzero;stroke:none;stroke-width:0.79374999;stroke-linejoin:bevel;stroke-miterlimit:0;stroke-dasharray:none;stroke-opacity:1" />
        </g>
        <flowRoot
           xml:space="preserve"
           id="flowRoot3593"
           style="font-style:normal;font-variant:normal;font-weight:normal;font-stretch:normal;font-size:96px;line-height:1.25;font-family:Ubuntu;-inkscape-font-specification:Ubuntu;letter-spacing:0px;word-spacing:0px;fill:#000000;fill-opacity:1;stroke:none"
           transform="matrix(0.26458333,0,0,0.26458333,2.0489344,4.4918077)"><flowRegion
             id="flowRegion3595"
             style="font-style:normal;font-variant:normal;font-weight:normal;font-stretch:normal;font-size:96px;font-family:Ubuntu;-inkscape-font-specification:Ubuntu"><rect
               id="rect3597"
               width="704"
               height="128"
               x="320"
               y="610.51971"
               style="font-style:normal;font-variant:normal;font-weight:normal;font-stretch:normal;font-size:96px;font-family:Ubuntu;-inkscape-font-specification:Ubuntu" /></flowRegion><flowPara
             id="flowPara3599">Fidget Quests</flowPara></flowRoot>      </g>
      <g
         id="g3298"
         transform="matrix(2.8762673,0,0,2.8762673,-10.3413,840.41815)">
        <path
           sodipodi:nodetypes="cssssc"
           inkscape:connector-curvature="0"
           id="path3276"
           d="m 16,-221.48035 c 0,0 -9.3416408,3.31672 -8,6 2,4 13.591681,-5.81664 16,-1 3,6 -19,3 -17,8 2.3488809,5.8722 15,-6 17,0 1,3 -8,5 -8,5"
           style="fill:none;stroke:#000000;stroke-width:1px;stroke-linecap:round;stroke-linejoin:round;stroke-opacity:1" />
        <g
           id="g3290">
          <text
             xml:space="preserve"
             style="font-style:normal;font-weight:normal;font-size:20.13082886px;line-height:1.25;font-family:sans-serif;letter-spacing:0px;word-spacing:0px;fill:#000000;fill-opacity:1;stroke:none;stroke-width:0.50327069"
             x="29.741823"
             y="-206.81595"
             id="text3280"><tspan
               sodipodi:role="line"
               id="tspan3278"
               x="29.741823"
               y="-206.81595"
               style="font-style:normal;font-variant:normal;font-weight:normal;font-stretch:normal;font-family:'Times New Roman';-inkscape-font-specification:'Times New Roman, ';stroke-width:0.50327069">SIVRE</tspan></text>
          <text
             xml:space="preserve"
             style="font-style:normal;font-weight:normal;font-size:5.13835144px;line-height:1.25;font-family:sans-serif;letter-spacing:0px;word-spacing:0px;fill:#000000;fill-opacity:1;stroke:none;stroke-width:0.12845878"
             x="88"
             y="-216.48035"
             id="text3284"><tspan
               sodipodi:role="line"
               id="tspan3282"
               x="88"
               y="-216.48035"
               style="stroke-width:0.12845878">TM</tspan></text>
        </g>
      </g>
      <path
         style="fill:none;stroke:#000000;stroke-width:0.26458332px;stroke-linecap:butt;stroke-linejoin:miter;stroke-opacity:1"
         d="m 16.933333,-109.4 10.583333,33.866669 h 12.7 L 50.799999,-109.4 h -6.35 l -8.466666,27.516667 H 31.75 L 23.283333,-109.4 Z"
         id="path1040"
         inkscape:connector-curvature="0"
         sodipodi:nodetypes="ccccccccc" />
      <path
         style="fill:none;stroke:#000000;stroke-width:0.26458332px;stroke-linecap:butt;stroke-linejoin:miter;stroke-opacity:1"
         d="m 67.733332,-75.533331 v -8.466667 c 0,0 0,-8.466666 -8.466666,-8.466666 -8.466667,0 -8.466667,8.466666 -8.466667,8.466666 0,0 0,8.466667 8.466667,8.466667 8.466666,0 8.466666,0 8.466666,0 z"
         id="path1046"
         inkscape:connector-curvature="0" />
      <path
         style="fill:none;stroke:#000000;stroke-width:0.26458332px;stroke-linecap:butt;stroke-linejoin:miter;stroke-opacity:1"
         d="m 84.666666,-75.533331 v -16.933333 h 8.466666 c 0,0 8.466668,0 8.466668,8.466666 0,8.466667 0,8.466667 0,8.466667 h -4.233335 v -8.466667 c 0,0 0,-4.233333 -4.233333,-4.233333 -4.233333,0 -4.233333,0 -4.233333,0 v 12.7 z"
         id="path1048"
         inkscape:connector-curvature="0" />
      <path
         style="fill:none;stroke:#000000;stroke-width:0.26458332px;stroke-linecap:butt;stroke-linejoin:miter;stroke-opacity:1"
         d="M 50.799999,-58.599998 H 16.933333 v 33.866665 h 33.866666 v -6.349999 H 23.283333 v -8.466666 h 19.05 v -4.233333 h -19.05 v -8.466667 h 27.516666 z"
         id="path1050"
         inkscape:connector-curvature="0" />
      <path
         style="fill:none;stroke:#000000;stroke-width:0.26458332px;stroke-linecap:butt;stroke-linejoin:miter;stroke-opacity:1"
         d="m 67.733332,-58.599998 v 29.633333 c 0,0 0,4.233332 4.233334,4.233332 l 10e-7,-4.233334 V -58.6 Z"
         id="path1052"
         inkscape:connector-curvature="0" />
      <path
         style="fill:none;stroke:#000000;stroke-width:0.26458332px;stroke-linecap:butt;stroke-linejoin:miter;stroke-opacity:1"
         d="m 93.133332,-37.433332 c 0,0 -4.233333,0 -4.233333,4.233334 0,4.233333 4.233333,4.233333 4.233333,4.233333 H 101.6 v 4.233332 h -8.466668 c 0,0 -8.466666,0 -8.466666,-8.466665 0,-8.466667 8.466666,-8.466667 8.466666,-8.466667 0,0 8.466668,-2e-6 8.466668,9.524998 H 91.016667 v -2.116666 l 6.35,0 c 0,-1.058334 -1.058334,-3.175 -4.233335,-3.174999 z"
         id="path1054"
         inkscape:connector-curvature="0"
         sodipodi:nodetypes="csccccscccccc" />
      <path
         style="fill:none;stroke:#000000;stroke-width:0.26458332px;stroke-linecap:butt;stroke-linejoin:miter;stroke-opacity:1"
         d="m 118.53333,-58.599998 v 33.866665 h 4.23334 v -4.233332 l 12.69999,4.233332 v -4.233332 l -12.69999,-4.233333 12.69999,-4.233334 v -4.233333 l -12.69999,4.233333 v -21.166666 z"
         id="path1056"
         inkscape:connector-curvature="0" />
      <path
         style="fill:none;stroke:#000000;stroke-width:0.26458332px;stroke-linecap:butt;stroke-linejoin:miter;stroke-opacity:1"
         d="m 152.4,-58.599998 v 29.633333 c 0,0 0,4.233332 4.23333,4.233332 4.23333,0 4.23333,0 4.23333,0 v -4.233332 H 158.75 156.63333 v -8.466667 h 4.23333 v -4.233333 h -4.23333 v -16.933333 z"
         id="path1060"
         inkscape:connector-curvature="0" />
      <path
         style="fill:none;stroke:#000000;stroke-width:0.26458332px;stroke-linecap:butt;stroke-linejoin:miter;stroke-opacity:1"
         d="m 169.33333,-24.733333 v -12.699999 c 0,0 0,-4.233333 4.23333,-4.233333 4.23334,0 12.7,0 12.7,0 v 4.233333 h -12.7 v 12.699999 z"
         id="path1062"
         inkscape:connector-curvature="0" />
      <path
         style="fill:none;stroke:#000000;stroke-width:0.26458332px;stroke-linecap:butt;stroke-linejoin:miter;stroke-opacity:1"
         d="m 211.66666,-41.666665 c 0,0 -8.46666,0 -8.46666,8.466667 0,8.466665 8.46666,8.466665 8.46666,8.466665 0,0 8.46667,0 8.46667,-8.466665 0,-8.466667 -8.46667,-8.466667 -8.46667,-8.466667 z"
         id="path1064"
         inkscape:connector-curvature="0" />
      <path
         style="fill:none;stroke:#000000;stroke-width:0.26458332px;stroke-linecap:butt;stroke-linejoin:miter;stroke-opacity:1"
         d="m 237.06667,-24.733332 v -16.933334 h 8.46667 c 0,0 8.46666,0 8.46666,8.466666 0,8.466668 0,8.466668 0,8.466668 h -4.23333 V -33.2 c 0,0 0,-4.233333 -4.23333,-4.233333 -4.23334,0 -4.23334,0 -4.23334,0 v 12.700001 z"
         id="path1048-1"
         inkscape:connector-curvature="0" />
      <path
         style="fill:none;stroke:#000000;stroke-width:0.26458332px;stroke-linecap:butt;stroke-linejoin:miter;stroke-opacity:1"
         d="m 270.93333,-41.666665 v 16.933332 h 4.23333 v -16.933332 z"
         id="path1081"
         inkscape:connector-curvature="0" />
      <path
         style="fill:none;stroke:#000000;stroke-width:0.26458332px;stroke-linecap:butt;stroke-linejoin:miter;stroke-opacity:1"
         d="m 273.05,-48.016665 c 0,0 -2.11667,0 -2.11667,2.116667 0,2.116667 2.11667,2.116667 2.11667,2.116667 0,0 2.11666,0 2.11666,-2.116667 0,-2.116667 -2.11666,-2.116667 -2.11666,-2.116667 z"
         id="path1083"
         inkscape:connector-curvature="0" />
      <circle
         style="opacity:1;fill:#0027ff;fill-opacity:1;stroke:none;stroke-width:1.32291663;stroke-linecap:round;stroke-linejoin:round;stroke-miterlimit:4;stroke-dasharray:none;stroke-dashoffset:0;stroke-opacity:1"
         id="path1091"
         cx="286.80832"
         cy="-33.200001"
         r="1.0583333" />
      <circle
         style="opacity:1;fill:#0027ff;fill-opacity:1;stroke:none;stroke-width:1.32291663;stroke-linecap:round;stroke-linejoin:round;stroke-miterlimit:4;stroke-dasharray:none;stroke-dashoffset:0;stroke-opacity:1"
         id="path1093"
         cx="296.33334"
         cy="-42.724998"
         r="1.0583333" />
      <circle
         style="opacity:1;fill:#0027ff;fill-opacity:1;stroke:none;stroke-width:1.32291663;stroke-linecap:round;stroke-linejoin:round;stroke-miterlimit:4;stroke-dasharray:none;stroke-dashoffset:0;stroke-opacity:1"
         id="path1095"
         cx="305.85834"
         cy="-33.200001"
         r="1.0583333" />
      <circle
         style="opacity:1;fill:#0027ff;fill-opacity:1;stroke:none;stroke-width:1.32291663;stroke-linecap:round;stroke-linejoin:round;stroke-miterlimit:4;stroke-dasharray:none;stroke-dashoffset:0;stroke-opacity:1"
         id="path1097"
         cx="296.33334"
         cy="-23.674999"
         r="1.0583333" />
      <rect
         style="opacity:1;fill:#0027ff;fill-opacity:1;stroke:none;stroke-width:1.32291663;stroke-linecap:round;stroke-linejoin:round;stroke-miterlimit:4;stroke-dasharray:none;stroke-dashoffset:0;stroke-opacity:1"
         id="rect1099"
         width="2.1166666"
         height="2.1166666"
         x="295.27499"
         y="-34.258335"
         ry="3.9170768e-006" />
      <path
         style="fill:none;stroke:#000000;stroke-width:0.26458332px;stroke-linecap:butt;stroke-linejoin:miter;stroke-opacity:1"
         d="m 304.8,-41.666665 h -14.81667 c 0,0 -2.11667,0 -2.11667,2.116667 0,2.116666 0,3.175 0,3.175 v 2.116666 c 0,0 0,2.116667 2.11667,2.116667 2.11667,0 12.7,0 12.7,0 v 5.291667 h -14.81667 v 2.116665 h 14.81667 c 0,0 2.11667,0 2.11667,-2.116665 0,-2.116667 0,-5.291667 0,-5.291667 0,0 0,-2.116667 -2.11667,-2.116667 -2.11667,0 -12.7,0 -12.7,0 v -5.291666 H 304.8 Z"
         id="path1101"
         inkscape:connector-curvature="0" />
      <path
         style="fill:none;stroke:#000000;stroke-width:0.26458332px;stroke-linecap:butt;stroke-linejoin:miter;stroke-opacity:1"
         d="M 304.8,-3.5666666 V -7.7999999 H 296.33333 292.1 c 0,0 -4.23334,0 -4.23334,4.2333333 0,4.23333325 0,4.23333325 0,4.23333325 0,0 0,4.23333325 4.23334,4.23333325 4.23333,0 8.46666,0 8.46666,0"
         id="path1105"
         inkscape:connector-curvature="0" />
      <path
         style="fill:none;stroke:#000000;stroke-width:0.26458332px;stroke-linecap:butt;stroke-linejoin:miter;stroke-opacity:1"
         d="m 287.86666,4.8999999 v 4.2333333 h 8.46667 4.23333 c 0,0 4.23334,0 4.23334,-4.2333333 0,-4.23333325 -4.23334,-4.23333325 -4.23334,-4.23333325 H 296.33333 292.1 V -3.5666666 h 4.23333"
         id="path1107"
         inkscape:connector-curvature="0" />
      <path
         style="fill:none;stroke:#000000;stroke-width:0.26458332px;stroke-linecap:butt;stroke-linejoin:miter;stroke-opacity:1"
         d="m 397.93333,-37.433333 c 0,0 -4.23333,0 -4.23333,4.233335 0,4.233333 4.23333,4.233333 4.23333,4.233333 H 406.4 v 4.233332 h -8.46667 c 0,0 -8.46667,0 -8.46667,-8.466665 0,-8.466668 8.46667,-8.466668 8.46667,-8.466668 0,0 8.46667,-2e-6 8.46667,9.524998 h -10.58334 v -2.116666 h 6.35 c 0,-1.058334 -1.05833,-3.175 -4.23333,-3.174999 z"
         id="path1054-9"
         inkscape:connector-curvature="0"
         sodipodi:nodetypes="csccccscccccc" />
      <path
         style="fill:none;stroke:#000000;stroke-width:0.26458332px;stroke-linecap:butt;stroke-linejoin:miter;stroke-opacity:1"
         d="m 211.66666,-37.433332 c 0,0 -4.23333,0 -4.23333,4.233334 0,4.233333 4.23333,4.233333 4.23333,4.233333 0,0 4.23334,0 4.23334,-4.233333 0,-4.233334 -4.23334,-4.233334 -4.23334,-4.233334 z"
         id="path1124"
         inkscape:connector-curvature="0" />
      <path
         style="fill:none;stroke:#000000;stroke-width:0.26458332px;stroke-linecap:butt;stroke-linejoin:miter;stroke-opacity:1"
         d="m 59.266666,-88.233331 c 0,0 -4.233333,0 -4.233333,4.233333 0,4.233334 4.233333,4.233334 4.233333,4.233334 h 4.233333 v -4.233334 c 0,0 0,-4.233333 -4.233333,-4.233333 z"
         id="path1126"
         inkscape:connector-curvature="0" />
      <path
         style="fill:none;stroke:#000000;stroke-width:0.26458332px;stroke-linecap:butt;stroke-linejoin:miter;stroke-opacity:1"
         d="M 338.66666,-41.666665 H 330.2 c 0,0 -8.46667,0 -8.46667,8.466667 0,8.466665 8.46667,8.466665 8.46667,8.466665 h 8.46666 v -4.233332 H 330.2 c 0,0 -4.23334,0 -4.23334,-4.233333 0,-4.233334 4.23334,-4.233334 4.23334,-4.233334 h 8.46666 z"
         id="path1130"
         inkscape:connector-curvature="0" />
      <path
         style="fill:none;stroke:#000000;stroke-width:0.26458332px;stroke-linecap:butt;stroke-linejoin:miter;stroke-opacity:1"
         d="m 355.6,-58.599998 v 33.866665 h 4.23333 l 0,-12.7 c 0,0 0,0 4.23334,0 C 368.3,-37.433333 368.3,-33.2 368.3,-33.2 v 8.466667 h 4.23333 c 0,0 0,0 0,-8.466667 0,-8.466667 -8.46666,-8.466667 -8.46666,-8.466667 h -4.23334 V -58.6 Z"
         id="path1132"
         inkscape:connector-curvature="0" />
    </g>
  </g>
</svg>
