<?xml version="1.0" encoding="UTF-8" standalone="no"?>
<svg
   xmlns:dc="http://purl.org/dc/elements/1.1/"
   xmlns:cc="http://creativecommons.org/ns#"
   xmlns:rdf="http://www.w3.org/1999/02/22-rdf-syntax-ns#"
   xmlns:svg="http://www.w3.org/2000/svg"
   xmlns="http://www.w3.org/2000/svg"
   xmlns:sodipodi="http://sodipodi.sourceforge.net/DTD/sodipodi-0.dtd"
   xmlns:inkscape="http://www.inkscape.org/namespaces/inkscape"
   inkscape:export-ydpi="96"
   inkscape:export-xdpi="96"
   inkscape:export-filename="C:\Users\joelr\Documents\starring codes\Godot Projects\Tebenge\GameDVDCardtridge\Tebenge\Assets\images\ArrowPointingAt.png"
   sodipodi:docname="TebengeAssets.svg"
   inkscape:version="1.0 (4035a4fb49, 2020-05-01)"
   id="svg8"
   version="1.1"
   viewBox="0 0 512 512.00002"
   height="512"
   width="512">
  <defs
     id="defs2">
    <inkscape:path-effect
       hide_knots="false"
       only_selected="false"
       apply_with_radius="true"
       apply_no_radius="true"
       use_knot_distance="true"
       flexible="false"
       chamfer_steps="1"
       radius="70"
       mode="F"
       method="auto"
       unit="px"
       satellites_param="F,0,0,1,0,70,0,1 @ F,0,0,1,0,70,0,1 @ F,0,0,1,0,70,0,1 @ F,0,0,1,0,70,0,1"
       lpeversion="1"
       is_visible="true"
       id="path-effect1756"
       effect="fillet_chamfer" />
    <inkscape:path-effect
       hide_knots="false"
       only_selected="false"
       apply_with_radius="true"
       apply_no_radius="true"
       use_knot_distance="true"
       flexible="false"
       chamfer_steps="1"
       radius="25"
       mode="F"
       method="auto"
       unit="px"
       satellites_param="F,0,0,1,0,25,0,1 @ F,0,0,1,0,25,0,1 @ F,0,0,1,0,25,0,1 @ F,0,0,1,0,25,0,1 @ F,0,0,1,0,25,0,1 @ F,0,0,1,0,25,0,1 @ F,0,0,1,0,25,0,1"
       lpeversion="1"
       is_visible="true"
       id="path-effect1561"
       effect="fillet_chamfer" />
    <inkscape:path-effect
       effect="fillet_chamfer"
       id="path-effect920"
       is_visible="true"
       lpeversion="1"
       satellites_param="F,0,0,1,0,100,0,1 @ F,0,0,1,0,100,0,1 @ F,0,0,1,0,100,0,1 @ F,0,0,1,0,100,0,1"
       unit="px"
       method="auto"
       mode="F"
       radius="100"
       chamfer_steps="1"
       flexible="false"
       use_knot_distance="true"
       apply_no_radius="true"
       apply_with_radius="true"
       only_selected="false"
       hide_knots="false" />
    <inkscape:path-effect
       hide_knots="false"
       only_selected="false"
       apply_with_radius="true"
       apply_no_radius="true"
       use_knot_distance="true"
       flexible="false"
       chamfer_steps="1"
       radius="25"
       mode="F"
       method="auto"
       unit="px"
       satellites_param="F,0,0,1,0,25,0,1 @ F,0,0,1,0,25,0,1 @ F,0,0,1,0,25,0,1 @ F,0,0,1,0,25,0,1 @ F,0,0,1,0,25,0,1 @ F,0,0,1,0,25,0,1 @ F,0,0,1,0,25,0,1 @ F,0,0,1,0,25,0,1"
       lpeversion="1"
       is_visible="true"
       id="path-effect918"
       effect="fillet_chamfer" />
    <inkscape:path-effect
       hide_knots="false"
       only_selected="false"
       apply_with_radius="true"
       apply_no_radius="true"
       use_knot_distance="true"
       flexible="false"
       chamfer_steps="1"
       radius="50"
       mode="F"
       method="auto"
       unit="px"
       satellites_param="F,0,0,1,0,50,0,1 @ F,0,0,1,0,50,0,1 @ F,0,0,1,0,50,0,1 @ F,0,0,1,0,50,0,1"
       lpeversion="1"
       is_visible="true"
       id="path-effect913"
       effect="fillet_chamfer" />
    <inkscape:path-effect
       effect="fillet_chamfer"
       id="path-effect921"
       is_visible="true"
       lpeversion="1"
       satellites_param="F,0,0,1,0,100,0,1 @ F,0,0,1,0,100,0,1 @ F,0,0,1,0,100,0,1"
       unit="px"
       method="auto"
       mode="F"
       radius="100"
       chamfer_steps="1"
       flexible="false"
       use_knot_distance="true"
       apply_no_radius="true"
       apply_with_radius="true"
       only_selected="false"
       hide_knots="false" />
    <inkscape:path-effect
       effect="fillet_chamfer"
       id="path-effect917"
       is_visible="true"
       lpeversion="1"
       satellites_param="F,0,0,1,0,55,0,1 @ F,0,0,1,0,55,0,1 @ F,0,0,1,0,55,0,1 @ F,0,0,1,0,55,0,1 @ F,0,0,1,0,55,0,1 @ F,0,0,1,0,55,0,1 @ F,0,0,1,0,55,0,1 @ F,0,0,1,0,55,0,1 @ F,0,0,1,0,55,0,1 @ F,0,0,1,0,55,0,1"
       unit="px"
       method="auto"
       mode="F"
       radius="55"
       chamfer_steps="1"
       flexible="false"
       use_knot_distance="true"
       apply_no_radius="true"
       apply_with_radius="true"
       only_selected="false"
       hide_knots="false" />
  </defs>
  <sodipodi:namedview
     inkscape:snap-bbox-midpoints="true"
     inkscape:snap-bbox-edge-midpoints="true"
     inkscape:bbox-nodes="true"
     inkscape:bbox-paths="true"
     inkscape:snap-bbox="true"
     inkscape:window-maximized="1"
     inkscape:window-y="-9"
     inkscape:window-x="-9"
     inkscape:window-height="1051"
     inkscape:window-width="1920"
     units="px"
     showgrid="true"
     inkscape:document-rotation="0"
     inkscape:current-layer="layer15"
     inkscape:document-units="px"
     inkscape:cy="241.79429"
     inkscape:cx="232.54372"
     inkscape:zoom="1.4"
     inkscape:pageshadow="2"
     inkscape:pageopacity="0"
     borderopacity="1.0"
     bordercolor="#666666"
     pagecolor="#090a0b"
     id="base">
    <inkscape:grid
       empspacing="4"
       id="grid842"
       type="xygrid" />
    <inkscape:grid
       empspacing="64"
       id="grid844"
       type="xygrid" />
  </sodipodi:namedview>
  <metadata
     id="metadata5">
    <rdf:RDF>
      <cc:Work
         rdf:about="">
        <dc:format>image/svg+xml</dc:format>
        <dc:type
           rdf:resource="http://purl.org/dc/dcmitype/StillImage" />
        <dc:title></dc:title>
        <cc:license
           rdf:resource="http://creativecommons.org/licenses/by-sa/4.0/" />
      </cc:Work>
      <cc:License
         rdf:about="http://creativecommons.org/licenses/by-sa/4.0/">
        <cc:permits
           rdf:resource="http://creativecommons.org/ns#Reproduction" />
        <cc:permits
           rdf:resource="http://creativecommons.org/ns#Distribution" />
        <cc:requires
           rdf:resource="http://creativecommons.org/ns#Notice" />
        <cc:requires
           rdf:resource="http://creativecommons.org/ns#Attribution" />
        <cc:permits
           rdf:resource="http://creativecommons.org/ns#DerivativeWorks" />
        <cc:requires
           rdf:resource="http://creativecommons.org/ns#ShareAlike" />
      </cc:License>
    </rdf:RDF>
  </metadata>
  <g
     sodipodi:insensitive="true"
     style="display:none"
     id="layer1"
     inkscape:groupmode="layer"
     inkscape:label="Mr. Tebenge">
    <g
       transform="translate(16,-80)"
       id="g897">
      <g
         id="g885">
        <g
           id="g873">
          <path
             style="fill:#999999;stroke:#000000;stroke-width:1px;stroke-linecap:butt;stroke-linejoin:miter;stroke-opacity:1"
             d="m 320,296 h -16 l 8,-32 h -8 l 8,-16 h 72 l -8,16 h -48 z"
             id="path860" />
          <g
             id="g867">
            <path
               sodipodi:nodetypes="ccccc"
               id="path856"
               d="m 176,272 -32,104 h 16 l 32,-88 z"
               style="fill:#008080;stroke:#000000;stroke-width:1px;stroke-linecap:butt;stroke-linejoin:miter;stroke-opacity:1" />
            <path
               d="m 160,256 v 112 h 48 V 288 H 320 V 272 H 208 v -16 z"
               style="fill:#008080;stroke:#000000;stroke-width:1;stroke-linecap:round;stroke-linejoin:round;stroke-miterlimit:4;stroke-dasharray:none;stroke-opacity:1;paint-order:fill markers stroke"
               id="rect848" />
          </g>
        </g>
        <path
           sodipodi:nodetypes="cccccccccccc"
           id="path852"
           d="m 160,368 -16,64 -80,-16 v 32 l 112,16 16,-64 16,64 -32,112 h 48 l 16,-112 -32,-96 z"
           style="fill:#00ff00;stroke:#000000;stroke-width:1px;stroke-linecap:butt;stroke-linejoin:miter;stroke-opacity:1" />
      </g>
      <g
         id="g877">
        <rect
           y="128"
           x="128"
           height="128"
           width="128"
           id="rect846"
           style="fill:#0000ff;stroke:#000000;stroke-width:1;stroke-linecap:round;stroke-linejoin:round;stroke-miterlimit:4;stroke-dasharray:none;stroke-opacity:1;paint-order:fill markers stroke" />
        <path
           id="path854"
           d="m 192,144 96,16 -16,-48 -160,-16 -16,96 48,16 z"
           style="fill:#000000;stroke:#00ffff;stroke-width:1px;stroke-linecap:butt;stroke-linejoin:miter;stroke-opacity:1" />
      </g>
    </g>
  </g>
  <g
     style="display:none"
     sodipodi:insensitive="true"
     inkscape:groupmode="layer"
     id="layer13"
     inkscape:label="Tebenge Icon">
    <path
       style="fill:none;stroke:#008000;stroke-width:5;stroke-linecap:round;stroke-linejoin:round;paint-order:fill markers stroke"
       id="rect918"
       width="456"
       height="456"
       x="32"
       y="32"
       inkscape:path-effect="#path-effect920"
       d="M 132,32 H 388 A 100,100 45 0 1 488,132 V 388 A 100,100 135 0 1 388,488 H 132 A 100,100 45 0 1 32,388 V 132 A 100,100 135 0 1 132,32 Z"
       sodipodi:type="rect" />
    <g
       style="display:inline"
       id="g942"
       transform="matrix(0.76509431,0,0,0.76509431,84.500661,-1.0548121)">
      <g
         id="g934">
        <g
           id="g930">
          <path
             id="path922"
             d="m 320,296 h -16 l 8,-32 h -8 l 8,-16 h 72 l -8,16 h -48 z"
             style="fill:#999999;stroke:#000000;stroke-width:1px;stroke-linecap:butt;stroke-linejoin:miter;stroke-opacity:1" />
          <g
             id="g928">
            <path
               style="fill:#008080;stroke:#000000;stroke-width:1px;stroke-linecap:butt;stroke-linejoin:miter;stroke-opacity:1"
               d="m 176,272 -32,104 h 16 l 32,-88 z"
               id="path924"
               sodipodi:nodetypes="ccccc" />
            <path
               id="path926"
               style="fill:#008080;stroke:#000000;stroke-width:1;stroke-linecap:round;stroke-linejoin:round;stroke-miterlimit:4;stroke-dasharray:none;stroke-opacity:1;paint-order:fill markers stroke"
               d="m 160,256 v 112 h 48 V 288 H 320 V 272 H 208 v -16 z" />
          </g>
        </g>
        <path
           style="fill:#00ff00;stroke:#000000;stroke-width:1px;stroke-linecap:butt;stroke-linejoin:miter;stroke-opacity:1"
           d="m 160,368 -16,64 -80,-16 v 32 l 112,16 16,-64 16,64 -32,112 h 48 l 16,-112 -32,-96 z"
           id="path932"
           sodipodi:nodetypes="cccccccccccc" />
      </g>
      <g
         id="g940">
        <rect
           style="fill:#0000ff;stroke:#000000;stroke-width:1;stroke-linecap:round;stroke-linejoin:round;stroke-miterlimit:4;stroke-dasharray:none;stroke-opacity:1;paint-order:fill markers stroke"
           id="rect936"
           width="128"
           height="128"
           x="128"
           y="128" />
        <path
           style="fill:#000000;stroke:#00ffff;stroke-width:1px;stroke-linecap:butt;stroke-linejoin:miter;stroke-opacity:1"
           d="m 192,144 96,16 -16,-48 -160,-16 -16,96 48,16 z"
           id="path938" />
      </g>
    </g>
  </g>
  <g
     sodipodi:insensitive="true"
     style="display:none"
     inkscape:label="Denemy"
     id="layer2"
     inkscape:groupmode="layer">
    <circle
       r="6"
       cy="200"
       cx="152"
       id="path906"
       style="fill:#000000;stroke:#808000;stroke-width:1;stroke-linecap:round;stroke-linejoin:round;stroke-miterlimit:4;stroke-dasharray:none;stroke-opacity:1;paint-order:fill markers stroke" />
    <g
       id="g900">
      <g
         id="g889">
        <rect
           y="192"
           x="128"
           height="128"
           width="224"
           id="rect900"
           style="fill:#ff00ff;stroke:#808000;stroke-width:1;stroke-linecap:round;stroke-linejoin:round;stroke-miterlimit:4;stroke-dasharray:none;stroke-opacity:1;paint-order:fill markers stroke" />
        <g
           id="g878">
          <circle
             r="6"
             cy="200"
             cx="152"
             id="circle914"
             style="fill:#000000;stroke:#808000;stroke-width:1;stroke-linecap:round;stroke-linejoin:round;stroke-miterlimit:4;stroke-dasharray:none;stroke-opacity:1;paint-order:fill markers stroke" />
          <circle
             style="fill:#000000;stroke:#808000;stroke-width:1;stroke-linecap:round;stroke-linejoin:round;stroke-miterlimit:4;stroke-dasharray:none;stroke-opacity:1;paint-order:fill markers stroke"
             id="circle916"
             cx="168"
             cy="208"
             r="6" />
          <path
             sodipodi:nodetypes="cc"
             id="path918"
             d="m 149,211 c 0,0 -4,15 10,5"
             style="fill:none;stroke:#000000;stroke-width:5;stroke-linecap:round;stroke-linejoin:round;stroke-miterlimit:4;stroke-dasharray:none;stroke-opacity:1" />
        </g>
      </g>
      <g
         id="g882">
        <circle
           r="52"
           cy="312"
           cx="336"
           id="path902"
           style="fill:#ff0000;stroke:#808000;stroke-width:1;stroke-linecap:round;stroke-linejoin:round;stroke-miterlimit:4;stroke-dasharray:none;stroke-opacity:1;paint-order:fill markers stroke" />
        <circle
           style="fill:#ff0000;stroke:#808000;stroke-width:1;stroke-linecap:round;stroke-linejoin:round;stroke-miterlimit:4;stroke-dasharray:none;stroke-opacity:1;paint-order:fill markers stroke"
           id="circle904"
           cx="208"
           cy="312"
           r="52" />
      </g>
    </g>
    <circle
       style="fill:#000000;stroke:#808000;stroke-width:1;stroke-linecap:round;stroke-linejoin:round;stroke-miterlimit:4;stroke-dasharray:none;stroke-opacity:1;paint-order:fill markers stroke"
       id="circle908"
       cx="168"
       cy="208"
       r="6" />
    <path
       sodipodi:nodetypes="cc"
       id="path912"
       d="m 149,211 c 0,0 -4,15 10,5"
       style="fill:none;stroke:#000000;stroke-width:5;stroke-linecap:round;stroke-linejoin:round;stroke-miterlimit:4;stroke-dasharray:none;stroke-opacity:1" />
  </g>
  <g
     inkscape:label="DenemyFlip"
     id="layer5"
     inkscape:groupmode="layer"
     sodipodi:insensitive="true"
     style="display:none">
    <g
       transform="matrix(-1,0,0,1,516,0)"
       id="g921"
       style="display:inline">
      <g
         id="g913">
        <rect
           style="fill:#ff00ff;stroke:#808000;stroke-width:1;stroke-linecap:round;stroke-linejoin:round;stroke-miterlimit:4;stroke-dasharray:none;stroke-opacity:1;paint-order:fill markers stroke"
           id="rect902"
           width="224"
           height="128"
           x="128"
           y="192" />
        <g
           id="g911">
          <circle
             style="fill:#000000;stroke:#808000;stroke-width:1;stroke-linecap:round;stroke-linejoin:round;stroke-miterlimit:4;stroke-dasharray:none;stroke-opacity:1;paint-order:fill markers stroke"
             id="circle905"
             cx="152"
             cy="200"
             r="6" />
          <circle
             r="6"
             cy="208"
             cx="168"
             id="circle907"
             style="fill:#000000;stroke:#808000;stroke-width:1;stroke-linecap:round;stroke-linejoin:round;stroke-miterlimit:4;stroke-dasharray:none;stroke-opacity:1;paint-order:fill markers stroke" />
          <path
             style="fill:none;stroke:#000000;stroke-width:5;stroke-linecap:round;stroke-linejoin:round;stroke-miterlimit:4;stroke-dasharray:none;stroke-opacity:1"
             d="m 149,211 c 0,0 -4,15 10,5"
             id="path909"
             sodipodi:nodetypes="cc" />
        </g>
      </g>
      <g
         id="g919">
        <circle
           style="fill:#ff0000;stroke:#808000;stroke-width:1;stroke-linecap:round;stroke-linejoin:round;stroke-miterlimit:4;stroke-dasharray:none;stroke-opacity:1;paint-order:fill markers stroke"
           id="circle915"
           cx="336"
           cy="312"
           r="52" />
        <circle
           r="52"
           cy="312"
           cx="208"
           id="circle917"
           style="fill:#ff0000;stroke:#808000;stroke-width:1;stroke-linecap:round;stroke-linejoin:round;stroke-miterlimit:4;stroke-dasharray:none;stroke-opacity:1;paint-order:fill markers stroke" />
      </g>
    </g>
  </g>
  <g
     sodipodi:insensitive="true"
     inkscape:groupmode="layer"
     id="layer3"
     inkscape:label="Beluru"
     style="display:none">
    <g
       id="g1637">
      <circle
         r="192"
         cy="256"
         cx="256"
         id="path863"
         style="fill:#00ff00;stroke:#ff0000;stroke-width:5;stroke-linecap:round;stroke-linejoin:round;stroke-miterlimit:4;stroke-dasharray:none;paint-order:fill markers stroke" />
      <path
         sodipodi:type="star"
         style="fill:#0000ff;stroke:#008000;stroke-width:5;stroke-linecap:round;stroke-linejoin:round;paint-order:fill markers stroke"
         id="path916"
         sodipodi:sides="8"
         sodipodi:cx="256"
         sodipodi:cy="256"
         sodipodi:r1="152"
         sodipodi:r2="115.32402"
         sodipodi:arg1="-1.5707963"
         sodipodi:arg2="-1.1780972"
         inkscape:flatsided="true"
         inkscape:rounded="0"
         inkscape:randomized="0"
         d="m 279.09699,113.56709 61.28626,25.3856 a 60.355339,60.355339 45.000002 0 1 32.66407,32.66407 l 25.38559,61.28626 a 60.355339,60.355339 90.000002 0 1 0,46.19397 l -25.3856,61.28626 a 60.355339,60.355339 135 0 1 -32.66407,32.66407 l -61.28626,25.38559 a 60.355339,60.355339 1.5352345e-6 0 1 -46.19397,0 l -61.28626,-25.3856 a 60.355339,60.355339 45.000002 0 1 -32.66407,-32.66407 l -25.38559,-61.28626 a 60.355339,60.355339 90.000002 0 1 0,-46.19397 l 25.3856,-61.28626 a 60.355339,60.355339 135 0 1 32.66407,-32.66407 l 61.28626,-25.38559 a 60.355339,60.355339 1.5352345e-6 0 1 46.19397,0 z"
         inkscape:transform-center-y="-6.3379927"
         inkscape:path-effect="#path-effect918" />
    </g>
  </g>
  <g
     sodipodi:insensitive="true"
     style="display:none"
     inkscape:groupmode="layer"
     id="layer12"
     inkscape:label="BeluruBonus">
    <path
       sodipodi:type="star"
       style="fill:#00ffff;stroke:#ffff00;stroke-width:5;stroke-linecap:round;stroke-linejoin:round;paint-order:fill markers stroke"
       id="path910"
       sodipodi:sides="3"
       sodipodi:cx="-229.85641"
       sodipodi:cy="284.2872"
       sodipodi:r1="192"
       sodipodi:r2="35.777088"
       sodipodi:arg1="-1.5707963"
       sodipodi:arg2="-0.46364761"
       inkscape:flatsided="false"
       inkscape:rounded="0"
       inkscape:randomized="0"
       d="m -229.85641,92.287201 32,175.999999 134.27687,112.00001 -168.42047,-60.2872 -164.13328,60.28719 136.42047,-115.71281 z"
       inkscape:transform-center-y="-28.117729" />
    <g
       id="g1698">
      <circle
         style="display:inline;fill:#00ffff;stroke:#ffff00;stroke-width:5;stroke-linecap:round;stroke-linejoin:round;stroke-miterlimit:4;stroke-dasharray:none;paint-order:fill markers stroke"
         id="circle906"
         cx="256"
         cy="256"
         r="192" />
      <path
         inkscape:path-effect="#path-effect921"
         inkscape:transform-center-y="-35.715532"
         d="m 306,116.71588 96.49669,167.13718 a 57.735027,57.735027 120 0 1 -50,86.60254 l -192.99339,-1e-5 A 57.735027,57.735027 60.000002 0 1 109.50331,283.85305 L 206,116.71588 a 57.735027,57.735027 1.5352345e-6 0 1 100,0 z"
         inkscape:randomized="0"
         inkscape:rounded="0"
         inkscape:flatsided="true"
         sodipodi:arg2="-0.52359881"
         sodipodi:arg1="-1.5707963"
         sodipodi:r2="77.995102"
         sodipodi:r1="226.89484"
         sodipodi:cy="257.00818"
         sodipodi:cx="256"
         sodipodi:sides="3"
         id="path919"
         style="fill:#00ff00;stroke:#0000ff;stroke-width:4.43154;stroke-linecap:round;stroke-linejoin:round;paint-order:fill markers stroke"
         sodipodi:type="star" />
      <path
         inkscape:path-effect="#path-effect917"
         inkscape:transform-center-y="-12.40192"
         d="m 263.03507,173.83394 1.05157,8.15361 a 51.91799,51.91799 36.000002 0 0 61.08745,44.38263 l 8.0795,-1.5195 a 7.0933331,7.0933331 72.000002 0 1 4.34791,13.38149 l -7.42959,3.51971 a 51.91799,51.91799 108 0 0 -23.33334,71.81261 l 3.94184,7.21451 a 7.0933331,7.0933331 144 0 1 -11.38298,8.27021 l -5.64331,-5.97831 a 51.91799,51.91799 1.8137493e-6 0 0 -75.50825,0 l -5.64331,5.97831 a 7.0933331,7.0933331 36.000002 0 1 -11.38297,-8.27022 l 3.94183,-7.2145 a 51.91799,51.91799 72.000002 0 0 -23.33333,-71.81261 l -7.42959,-3.51971 a 7.0933331,7.0933331 108 0 1 4.34791,-13.38149 l 8.0795,1.5195 a 51.91799,51.91799 144 0 0 61.08746,-44.38263 l 1.05157,-8.15361 a 7.0933331,7.0933331 1.8137493e-6 0 1 14.07013,0 z"
         inkscape:randomized="0"
         inkscape:rounded="0"
         inkscape:flatsided="false"
         sodipodi:arg2="-0.9424778"
         sodipodi:arg1="-1.5707963"
         sodipodi:r2="25.726576"
         sodipodi:r1="138.06328"
         sodipodi:cy="257.349"
         sodipodi:cx="256"
         sodipodi:sides="5"
         id="path913"
         style="fill:#ffff00;stroke:#0000ff;stroke-width:3.92225;stroke-linecap:round;stroke-linejoin:round;paint-order:fill markers stroke"
         sodipodi:type="star" />
    </g>
    <path
       inkscape:transform-center-y="-16.806505"
       d="m -175.19053,-202.13442 19.2768,149.467751 L -7.8045882,-80.521405 -144,-16.000001 -71.740336,116.25258 -175.19054,6.6612473 -278.64074,116.25257 -206.38107,-16 l -136.19541,-64.521414 148.10913,27.854745 z"
       inkscape:randomized="0"
       inkscape:rounded="0"
       inkscape:flatsided="false"
       sodipodi:arg2="-0.9424778"
       sodipodi:arg1="-1.5707963"
       sodipodi:r2="32.795666"
       sodipodi:r1="176"
       sodipodi:cy="-26.134418"
       sodipodi:cx="-175.19054"
       sodipodi:sides="5"
       id="path915"
       style="fill:#ffff00;stroke:#0000ff;stroke-width:5;stroke-linecap:round;stroke-linejoin:round;paint-order:fill markers stroke"
       sodipodi:type="star" />
  </g>
  <g
     sodipodi:insensitive="true"
     style="display:none"
     inkscape:groupmode="layer"
     id="layer4"
     inkscape:label="BeluruEnemy">
    <g
       id="g1702">
      <circle
         style="fill:#ff00ff;stroke:#ff0000;stroke-width:5;stroke-linecap:round;stroke-linejoin:round;stroke-miterlimit:4;stroke-dasharray:none;paint-order:fill markers stroke"
         id="circle866"
         cx="256"
         cy="256"
         r="192" />
      <path
         sodipodi:type="star"
         style="fill:#ff0000;stroke:#800080;stroke-width:5;stroke-linecap:round;stroke-linejoin:round;paint-order:fill markers stroke"
         id="path911"
         sodipodi:sides="4"
         sodipodi:cx="256"
         sodipodi:cy="256"
         sodipodi:r1="176"
         sodipodi:r2="124.45079"
         sodipodi:arg1="-1.5707963"
         sodipodi:arg2="-0.78539816"
         inkscape:flatsided="true"
         inkscape:rounded="0"
         inkscape:randomized="0"
         d="m 291.35534,115.35534 105.28932,105.28932 a 50,50 90.000002 0 1 0,70.71068 L 291.35534,396.64466 a 50,50 1.5352345e-6 0 1 -70.71068,0 L 115.35534,291.35534 a 50,50 90.000002 0 1 0,-70.71068 L 220.64466,115.35534 a 50,50 1.5352345e-6 0 1 70.71068,0 z"
         inkscape:path-effect="#path-effect913" />
    </g>
  </g>
  <g
     sodipodi:insensitive="true"
     inkscape:groupmode="layer"
     id="layer6"
     inkscape:label="DuarParticle"
     style="display:none">
    <g
       id="g1730">
      <path
         d="m 256.00001,24 25.66288,69.9709 46.02906,-58.61601 2.78465,74.47655 61.88958,-41.523379 -20.36615,71.691909 71.69192,-20.36614 -41.52339,61.88957 74.47655,2.78466 -58.61601,46.02905 69.9709,25.6629 -69.9709,25.66288 58.61601,46.02906 -74.47655,2.78465 41.52338,61.88958 -71.69191,-20.36615 20.36614,71.69192 -61.88957,-41.52339 -2.78466,74.47655 L 281.66289,418.0291 255.99999,488 230.33711,418.0291 184.30805,476.64511 181.5234,402.16856 119.63382,443.69194 139.99997,372.00003 68.308054,392.36617 109.83144,330.4766 35.354886,327.69194 93.9709,281.66289 24,255.99999 93.9709,230.33711 35.35489,184.30805 109.83144,181.5234 68.308061,119.63382 139.99997,139.99997 119.63383,68.308054 181.5234,109.83144 184.30806,35.354886 230.33711,93.9709 Z"
         inkscape:randomized="0"
         inkscape:rounded="0"
         inkscape:flatsided="false"
         sodipodi:arg2="-1.4137167"
         sodipodi:arg1="-1.5707963"
         sodipodi:r2="164.04881"
         sodipodi:r1="232"
         sodipodi:cy="256"
         sodipodi:cx="256"
         sodipodi:sides="20"
         id="path890"
         style="fill:#ff6600;stroke:#ff0000;stroke-width:5;stroke-linecap:round;stroke-linejoin:round;paint-order:fill markers stroke"
         sodipodi:type="star" />
      <path
         d="m 256,96 17.69854,48.25578 31.74418,-40.42482 1.92046,51.36312 42.68246,-28.6368 -14.04561,49.44269 49.44269,-14.04561 -28.63681,42.68246 51.36313,1.92046 -40.42482,31.74417 L 416,256 l -48.25578,17.69854 40.42482,31.74418 -51.36312,1.92046 28.6368,42.68246 -49.44269,-14.04561 14.04561,49.44269 -42.68246,-28.63681 -1.92046,51.36313 L 273.69855,367.74422 256,416 l -17.69854,-48.25578 -31.74418,40.42482 -1.92046,-51.36312 -42.68246,28.6368 14.04561,-49.44269 -49.44269,14.04561 28.63681,-42.68246 -51.36313,-1.92046 40.42482,-31.74417 L 96,256 l 48.25578,-17.69854 -40.42482,-31.74418 51.36312,-1.92046 -28.6368,-42.68246 49.44269,14.04561 -14.04561,-49.44269 42.68246,28.63681 1.92046,-51.36313 31.74417,40.42482 z"
         inkscape:randomized="0"
         inkscape:rounded="0"
         inkscape:flatsided="false"
         sodipodi:arg2="-1.4137167"
         sodipodi:arg1="-1.5707963"
         sodipodi:r2="113.13712"
         sodipodi:r1="160"
         sodipodi:cy="256"
         sodipodi:cx="256"
         sodipodi:sides="20"
         id="path892"
         style="fill:#ffff00;stroke:#ffffff;stroke-width:5;stroke-linecap:round;stroke-linejoin:round;paint-order:fill markers stroke"
         sodipodi:type="star" />
    </g>
  </g>
  <g
     inkscape:groupmode="layer"
     id="layer7"
     inkscape:label="DuarParticleWhite"
     style="display:none"
     sodipodi:insensitive="true">
    <path
       sodipodi:type="star"
       style="fill:#ffffff;stroke:none;stroke-width:5;stroke-linecap:round;stroke-linejoin:round;paint-order:fill markers stroke"
       id="path895"
       sodipodi:sides="20"
       sodipodi:cx="256"
       sodipodi:cy="256"
       sodipodi:r1="240"
       sodipodi:r2="169.70567"
       sodipodi:arg1="-1.5707963"
       sodipodi:arg2="-1.4137167"
       inkscape:flatsided="false"
       inkscape:rounded="0"
       inkscape:randomized="0"
       d="m 256.00001,16 26.54781,72.383685 47.61626,-60.637247 2.88068,77.044702 64.02371,-42.955215 -21.06844,74.164045 74.16405,-21.06843 -42.95522,64.0237 77.04471,2.88069 -60.63726,47.61625 72.38369,26.54783 -72.38369,26.54781 60.63725,47.61626 -77.0447,2.88068 42.95521,64.02371 -74.16404,-21.06844 21.06843,74.16405 -64.0237,-42.95522 -2.88069,77.04471 L 282.54782,423.61631 255.99999,496 l -26.54781,-72.38369 -47.61626,60.63725 -2.88068,-77.0447 -64.02371,42.95521 21.06844,-74.16404 -74.164052,21.06843 42.955222,-64.0237 L 27.746434,330.16407 88.383685,282.54782 16,255.99999 88.383685,229.45218 27.746438,181.83592 l 77.044702,-2.88068 -42.955215,-64.02371 74.164045,21.06844 -21.06843,-74.164052 64.0237,42.955222 2.88069,-77.044706 47.61625,60.637251 z" />
  </g>
  <g
     style="display:none"
     sodipodi:insensitive="true"
     inkscape:label="EikSerkat"
     id="layer8"
     inkscape:groupmode="layer">
    <g
       transform="matrix(0.92307692,0.92307692,-0.92307692,0.92307692,256,-216.61538)"
       id="g1537">
      <rect
         style="fill:#ffffff;stroke-width:5;stroke-linecap:round;stroke-linejoin:round;paint-order:fill markers stroke"
         id="rect1531"
         width="384"
         height="32"
         x="64"
         y="240" />
      <rect
         style="fill:#ffffff;stroke-width:5;stroke-linecap:round;stroke-linejoin:round;paint-order:fill markers stroke"
         id="rect1533"
         width="32"
         height="384"
         x="240"
         y="64" />
    </g>
  </g>
  <g
     inkscape:label="EikSerkatEnemy"
     id="layer9"
     inkscape:groupmode="layer"
     style="display:none">
    <path
       d="M 256,64 A 192,192 0 0 0 64,256 192,192 0 0 0 256,448 192,192 0 0 0 448,256 192,192 0 0 0 256,64 Z m -0.32422,64 A 128,128 0 0 1 256,128 128,128 0 0 1 384,256 128,128 0 0 1 256,384 128,128 0 0 1 128,256 128,128 0 0 1 255.67578,128 Z"
       style="fill:#ffffff;stroke-width:5;stroke-linecap:round;stroke-linejoin:round;paint-order:fill markers stroke"
       id="path1540" />
  </g>
  <g
     sodipodi:insensitive="true"
     inkscape:groupmode="layer"
     id="layer10"
     inkscape:label="HPicon"
     style="display:none">
    <path
       id="rect901"
       style="fill:#00ff00;stroke:#000000;stroke-width:5;stroke-linecap:round;stroke-linejoin:round;stroke-miterlimit:4;stroke-dasharray:none;paint-order:fill markers stroke"
       d="M 200,8 V 200 H 8 V 312 H 200 V 504 H 312 V 312 H 504 V 200 H 312 V 8 Z" />
  </g>
  <g
     style="display:none"
     sodipodi:insensitive="true"
     inkscape:label="PointIcon"
     id="layer11"
     inkscape:groupmode="layer" />
  <g
     style="display:inline"
     sodipodi:insensitive="true"
     inkscape:label="arrowPointingAt"
     id="layer14"
     inkscape:groupmode="layer">
    <path
       inkscape:original-d="M 64,192 H 256 V 64 L 448,256 256,448 V 320 H 64 Z"
       inkscape:path-effect="#path-effect1561"
       id="path1559"
       d="m 89,192 h 142 a 25,25 135 0 0 25,-25 V 89 a 10.355339,10.355339 157.5 0 1 17.67767,-7.32233 l 156.64466,156.64466 a 25,25 90 0 1 0,35.35534 L 273.67767,430.32233 A 10.355339,10.355339 22.5 0 1 256,423 V 345 A 25,25 45 0 0 231,320 H 89 A 25,25 45 0 1 64,295 v -78 a 25,25 135 0 1 25,-25 z"
       style="fill:#00ff00;stroke:#008000;stroke-width:5;stroke-linecap:round;stroke-linejoin:round;stroke-miterlimit:4;stroke-dasharray:none;stroke-opacity:1" />
  </g>
  <g
     sodipodi:insensitive="true"
     style="display:none"
     inkscape:label="UhOh"
     id="layer15"
     inkscape:groupmode="layer">
    <g
       id="g1770">
      <path
         sodipodi:type="star"
         style="fill:#ffff00;stroke:#808000;stroke-width:5;stroke-linecap:round;stroke-linejoin:round;stroke-miterlimit:4;stroke-dasharray:none;paint-order:fill markers stroke"
         id="path1754"
         sodipodi:sides="4"
         sodipodi:cx="256"
         sodipodi:cy="256"
         sodipodi:r1="192"
         sodipodi:r2="135.7645"
         sodipodi:arg1="-1.5707963"
         sodipodi:arg2="-0.78539816"
         inkscape:flatsided="true"
         inkscape:rounded="0"
         inkscape:randomized="0"
         d="m 305.49748,113.49748 93.00505,93.00505 a 70,70 90.000002 0 1 -10e-6,98.99495 l -93.00505,93.00505 a 70,70 1.5352345e-6 0 1 -98.99495,-10e-6 l -93.00505,-93.00505 a 70,70 90.000002 0 1 10e-6,-98.99495 l 93.00505,-93.00505 a 70,70 1.5352345e-6 0 1 98.99495,10e-6 z"
         inkscape:path-effect="#path-effect1756" />
      <g
         id="g1764"
         transform="matrix(0.72180451,0,0,0.72180451,71.218045,57.924813)">
        <circle
           r="32"
           cy="384"
           cx="256"
           id="path1758"
           style="fill:#000000;stroke:#1a1a1a;stroke-width:5;stroke-linecap:round;stroke-linejoin:round;stroke-miterlimit:4;stroke-dasharray:none;paint-order:fill markers stroke" />
        <path
           id="path1760"
           d="m 256,320 c 0,0 -64,-64 -64,-128 0,-64 64,-64 64,-64 0,0 64,0 64,64 0,64 -64,128 -64,128 z"
           style="fill:#000000;stroke:#1a1a1a;stroke-width:5;stroke-linecap:round;stroke-linejoin:round;stroke-miterlimit:4;stroke-dasharray:none;stroke-opacity:1" />
      </g>
    </g>
  </g>
</svg>
