<?xml version="1.0" encoding="UTF-8" standalone="no"?>
<svg
   xmlns:dc="http://purl.org/dc/elements/1.1/"
   xmlns:cc="http://creativecommons.org/ns#"
   xmlns:rdf="http://www.w3.org/1999/02/22-rdf-syntax-ns#"
   xmlns:svg="http://www.w3.org/2000/svg"
   xmlns="http://www.w3.org/2000/svg"
   xmlns:xlink="http://www.w3.org/1999/xlink"
   xmlns:sodipodi="http://sodipodi.sourceforge.net/DTD/sodipodi-0.dtd"
   xmlns:inkscape="http://www.inkscape.org/namespaces/inkscape"
   inkscape:export-ydpi="96"
   inkscape:export-xdpi="96"
   inkscape:export-filename="C:\Users\joelr\Documents\starring codes\After Church\RAW files\Inkscape\Week Strong\02-shade-memorsa.png"
   sodipodi:docname="01-shade-memorsa.svg"
   inkscape:version="1.0 (4035a4fb49, 2020-05-01)"
   id="svg872"
   version="1.1"
   viewBox="0 0 1080 1920"
   height="1920"
   width="1080">
  <defs
     id="defs866">
    <linearGradient
       id="linearGradient1452"
       inkscape:collect="always">
      <stop
         id="stop1448"
         offset="0"
         style="stop-color:#007c00;stop-opacity:1;" />
      <stop
         style="stop-color:#007c00;stop-opacity:1"
         offset="0.5"
         id="stop1456" />
      <stop
         id="stop1450"
         offset="1"
         style="stop-color:#001d00;stop-opacity:1" />
    </linearGradient>
    <linearGradient
       gradientUnits="userSpaceOnUse"
       y2="1920"
       x2="560"
       y1="0"
       x1="560"
       id="linearGradient1454"
       xlink:href="#linearGradient1452"
       inkscape:collect="always" />
  </defs>
  <sodipodi:namedview
     inkscape:window-maximized="1"
     inkscape:window-y="-9"
     inkscape:window-x="-9"
     inkscape:window-height="1051"
     inkscape:window-width="1920"
     units="px"
     showgrid="true"
     inkscape:document-rotation="0"
     inkscape:current-layer="layer1"
     inkscape:document-units="px"
     inkscape:cy="552.06168"
     inkscape:cx="385.39556"
     inkscape:zoom="0.49497475"
     inkscape:pageshadow="2"
     inkscape:pageopacity="0.0"
     borderopacity="1.0"
     bordercolor="#666666"
     pagecolor="#ffffff"
     id="base">
    <inkscape:grid
       id="grid1444"
       type="xygrid" />
  </sodipodi:namedview>
  <metadata
     id="metadata869">
    <rdf:RDF>
      <cc:Work
         rdf:about="">
        <dc:format>image/svg+xml</dc:format>
        <dc:type
           rdf:resource="http://purl.org/dc/dcmitype/StillImage" />
        <dc:title></dc:title>
        <cc:license
           rdf:resource="http://creativecommons.org/licenses/by-sa/4.0/" />
      </cc:Work>
      <cc:License
         rdf:about="http://creativecommons.org/licenses/by-sa/4.0/">
        <cc:permits
           rdf:resource="http://creativecommons.org/ns#Reproduction" />
        <cc:permits
           rdf:resource="http://creativecommons.org/ns#Distribution" />
        <cc:requires
           rdf:resource="http://creativecommons.org/ns#Notice" />
        <cc:requires
           rdf:resource="http://creativecommons.org/ns#Attribution" />
        <cc:permits
           rdf:resource="http://creativecommons.org/ns#DerivativeWorks" />
        <cc:requires
           rdf:resource="http://creativecommons.org/ns#ShareAlike" />
      </cc:License>
    </rdf:RDF>
  </metadata>
  <g
     id="layer1"
     inkscape:groupmode="layer"
     inkscape:label="Lapis 1">
    <rect
       y="0"
       x="0"
       height="1920"
       width="1080"
       id="rect1446"
       style="fill:url(#linearGradient1454);stroke:none;stroke-width:2;stroke-linecap:round;stroke-linejoin:round;stroke-dashoffset:9.44882;fill-opacity:1" />
    <g
       id="g1472">
      <circle
         style="fill:#007c00;fill-opacity:1;stroke:#006100;stroke-width:2;stroke-linecap:round;stroke-linejoin:round;stroke-dashoffset:9.44882;stroke-opacity:1"
         id="path1458"
         cx="-25"
         cy="1150"
         r="5" />
      <path
         style="fill:#007c00;stroke:#005100;stroke-width:1px;stroke-linecap:butt;stroke-linejoin:miter;stroke-opacity:1;fill-opacity:1"
         d="m -31,1155 c 0,0 1,-3 3,-3 2,0 1,7 -1,11 -2,4 -4,1 -4,1 0,0 -2,0 2,-9 z"
         id="path1460" />
      <path
         style="fill:#007c00;stroke:#006100;stroke-width:1px;stroke-linecap:butt;stroke-linejoin:miter;stroke-opacity:1;fill-opacity:1"
         d="m -24,1157 c 0,0 -6,1 -8,4 -2,3 0,4 1,4 1,0 6,-4 6,-4 0,0 1,4 3,5 h 5 c 0,0 2,0 2,-2 0,-2 -1,-3 -2,-3 -1,0 -3,2 -3,2 0,0 0,-4 -4,-6 z"
         id="path1462" />
      <path
         style="fill:#004400;fill-opacity:1;stroke:#006400;stroke-width:1px;stroke-linecap:butt;stroke-linejoin:miter;stroke-opacity:1"
         d="m -31,1155 4,3 6,2 c 0,0 1,0 1,-1 0,-1 0.133929,-1.5804 -1.866071,-1.5804 -2,0 -3.133929,-1.4196 -3.133929,-1.4196 0,0 0,-1 -2,-2 -2,-1 -3,-2 -4,-1 -1,1 0,2 0,2 z"
         id="path1466"
         sodipodi:nodetypes="cccsscssc" />
    </g>
    <g
       transform="matrix(13.941176,0,0,13.941176,488.52941,-15085.411)"
       id="g1482">
      <circle
         r="5"
         cy="1150"
         cx="-25"
         id="circle1474"
         style="fill:#007c00;fill-opacity:1;stroke:#006100;stroke-width:2;stroke-linecap:round;stroke-linejoin:round;stroke-dashoffset:9.44882;stroke-opacity:1" />
      <path
         id="path1476"
         d="m -31,1155 c 0,0 1,-3 3,-3 2,0 1,7 -1,11 -2,4 -4,1 -4,1 0,0 -2,0 2,-9 z"
         style="fill:#007c00;fill-opacity:1;stroke:#005100;stroke-width:1px;stroke-linecap:butt;stroke-linejoin:miter;stroke-opacity:1" />
      <path
         id="path1478"
         d="m -24,1157 c 0,0 -6,1 -8,4 -2,3 0,4 1,4 1,0 6,-4 6,-4 0,0 1,4 3,5 h 5 c 0,0 2,0 2,-2 0,-2 -1,-3 -2,-3 -1,0 -3,2 -3,2 0,0 0,-4 -4,-6 z"
         style="fill:#007c00;fill-opacity:1;stroke:#006100;stroke-width:1px;stroke-linecap:butt;stroke-linejoin:miter;stroke-opacity:1" />
      <path
         sodipodi:nodetypes="cccsscssc"
         id="path1480"
         d="m -31,1155 4,3 6,2 c 0,0 1,0 1,-1 0,-1 0.133929,-1.5804 -1.866071,-1.5804 -2,0 -3.133929,-1.4196 -3.133929,-1.4196 0,0 0,-1 -2,-2 -2,-1 -3,-2 -4,-1 -1,1 0,2 0,2 z"
         style="fill:#004400;fill-opacity:1;stroke:#006400;stroke-width:1px;stroke-linecap:butt;stroke-linejoin:miter;stroke-opacity:1" />
    </g>
    <path
       id="path1484"
       d="m 1215,965 h -85 c 0,0 -10,10 -10,10 l 10,10 h 60 l 15,45 h 60 l 20,-10 v -45 l -10,-10 z"
       style="fill:#e23d00;stroke:#ff0000;stroke-width:1px;stroke-linecap:butt;stroke-linejoin:miter;stroke-opacity:1;fill-opacity:1" />
    <path
       id="path1492"
       d="M 780,420 638.87298,544.25201 c 0,0 -1.9853,31.22106 -1.9853,31.22106 l 31.22107,1.9853 99.61906,-87.70729 90.68524,52.78747 99.61907,-87.70732 18.5885,-45.83892 -65.7805,-74.71431 -31.22105,-1.9853 z"
       style="fill:#25c77a;fill-opacity:1;stroke:#ff0000;stroke-width:2.21212px;stroke-linecap:butt;stroke-linejoin:miter;stroke-opacity:1" />
    <path
       style="fill:#253d7a;fill-opacity:1;stroke:#ff0000;stroke-width:2.21212px;stroke-linecap:butt;stroke-linejoin:miter;stroke-opacity:1"
       d="M 781.58695,327.46145 640.45993,451.71346 c 0,0 -1.9853,31.22106 -1.9853,31.22106 l 31.22107,1.9853 99.61906,-87.70729 L 860,450 l 99.61907,-87.70732 18.5885,-45.83892 -65.7805,-74.71431 -31.22105,-1.9853 z"
       id="path1490" />
    <path
       style="fill:#e23d00;fill-opacity:1;stroke:#ff0000;stroke-width:2.21212px;stroke-linecap:butt;stroke-linejoin:miter;stroke-opacity:1"
       d="M 849.15988,405.722 708.03286,529.97401 c 0,0 -1.9853,31.22106 -1.9853,31.22106 l 31.22107,1.9853 99.61906,-87.70729 90.68524,52.78747 99.61907,-87.70732 18.5885,-45.83892 L 980,320 948.77895,318.0147 Z"
       id="path1486" />
    <path
       id="path1488"
       d="M 841.96788,495.16877 700.84086,619.42078 c 0,0 -1.9853,31.22106 -1.9853,31.22106 l 31.22107,1.9853 99.61906,-87.70729 90.68524,52.78747 L 1020,530 l 18.5885,-45.83892 -65.7805,-74.71431 -31.22105,-1.9853 z"
       style="fill:#e23d7a;fill-opacity:1;stroke:#ff0000;stroke-width:2.21212px;stroke-linecap:butt;stroke-linejoin:miter;stroke-opacity:1" />
    <text
       id="text1496"
       y="940"
       x="280"
       style="font-style:italic;font-size:42.6667px;line-height:1.25;font-family:Ubuntu;-inkscape-font-specification:'Ubuntu Italic';letter-spacing:0px;word-spacing:0px;stroke:#005400;stroke-opacity:1;fill:#00b600;fill-opacity:1;"
       xml:space="preserve"><tspan
         y="940"
         x="280"
         id="tspan1494"
         sodipodi:role="line">by JOELwindows7</tspan><tspan
         id="tspan1498"
         y="993.33337"
         x="280"
         sodipodi:role="line">Perkedel Technologies</tspan><tspan
         id="tspan1500"
         y="1046.6667"
         x="280"
         sodipodi:role="line">CC4.0-BY-SA</tspan></text>
    <text
       id="text1504"
       y="-80"
       x="40"
       style="font-style:italic;font-size:42.6667px;line-height:1.25;font-family:Ubuntu;-inkscape-font-specification:'Ubuntu Italic';letter-spacing:0px;word-spacing:0px"
       xml:space="preserve"><tspan
         y="-80"
         x="40"
         id="tspan1502"
         sodipodi:role="line">internet is full of hostility. look Twitter for more details</tspan><tspan
         id="tspan1506"
         y="-26.666628"
         x="40"
         sodipodi:role="line">&amp; it's inevitable</tspan></text>
  </g>
</svg>
