<?xml version="1.0" encoding="UTF-8" standalone="no"?>
<svg
   xmlns:dc="http://purl.org/dc/elements/1.1/"
   xmlns:cc="http://creativecommons.org/ns#"
   xmlns:rdf="http://www.w3.org/1999/02/22-rdf-syntax-ns#"
   xmlns:svg="http://www.w3.org/2000/svg"
   xmlns="http://www.w3.org/2000/svg"
   xmlns:sodipodi="http://sodipodi.sourceforge.net/DTD/sodipodi-0.dtd"
   xmlns:inkscape="http://www.inkscape.org/namespaces/inkscape"
   inkscape:export-ydpi="96"
   inkscape:export-xdpi="96"
   inkscape:export-filename="C:\Users\joelr\Documents\starring codes\After Church\RAW files\Inkscape\Week Strong\05-trosh.png"
   sodipodi:docname="05-trosh.svg"
   inkscape:version="1.0 (4035a4fb49, 2020-05-01)"
   id="svg4509"
   version="1.1"
   viewBox="0 0 1080 1920.0001"
   height="1920"
   width="1080">
  <defs
     id="defs4503" />
  <sodipodi:namedview
     inkscape:snap-bbox-midpoints="true"
     inkscape:snap-bbox-edge-midpoints="true"
     inkscape:bbox-nodes="true"
     inkscape:bbox-paths="true"
     inkscape:snap-bbox="true"
     units="px"
     inkscape:window-maximized="1"
     inkscape:window-y="-9"
     inkscape:window-x="-9"
     inkscape:window-height="1051"
     inkscape:window-width="1920"
     showgrid="true"
     inkscape:document-rotation="0"
     inkscape:current-layer="layer1"
     inkscape:document-units="px"
     inkscape:cy="1135.4372"
     inkscape:cx="199.54121"
     inkscape:zoom="0.49497475"
     inkscape:pageshadow="2"
     inkscape:pageopacity="0.0"
     borderopacity="1.0"
     bordercolor="#666666"
     pagecolor="#ffffff"
     id="base">
    <inkscape:grid
       id="grid5081"
       type="xygrid" />
  </sodipodi:namedview>
  <metadata
     id="metadata4506">
    <rdf:RDF>
      <cc:Work
         rdf:about="">
        <dc:format>image/svg+xml</dc:format>
        <dc:type
           rdf:resource="http://purl.org/dc/dcmitype/StillImage" />
        <dc:title></dc:title>
        <cc:license
           rdf:resource="http://creativecommons.org/licenses/by-sa/4.0/" />
      </cc:Work>
      <cc:License
         rdf:about="http://creativecommons.org/licenses/by-sa/4.0/">
        <cc:permits
           rdf:resource="http://creativecommons.org/ns#Reproduction" />
        <cc:permits
           rdf:resource="http://creativecommons.org/ns#Distribution" />
        <cc:requires
           rdf:resource="http://creativecommons.org/ns#Notice" />
        <cc:requires
           rdf:resource="http://creativecommons.org/ns#Attribution" />
        <cc:permits
           rdf:resource="http://creativecommons.org/ns#DerivativeWorks" />
        <cc:requires
           rdf:resource="http://creativecommons.org/ns#ShareAlike" />
      </cc:License>
    </rdf:RDF>
  </metadata>
  <g
     id="layer1"
     inkscape:groupmode="layer"
     inkscape:label="Lapis 1">
    <rect
       y="0"
       x="0"
       height="1920"
       width="1080"
       id="rect5083"
       style="fill:#48373e;stroke:none;stroke-width:5;stroke-linecap:round;stroke-linejoin:round;stroke-dashoffset:9.44882" />
    <g
       transform="matrix(0.63940527,0,0,0.63940527,155.68768,433.97757)"
       style="stroke:#000000;stroke-opacity:1"
       id="g5113">
      <path
         style="fill:#4d4d4d;fill-opacity:1;stroke:#000000;stroke-width:1px;stroke-linecap:butt;stroke-linejoin:miter;stroke-opacity:1"
         d="m 300,1840 c -20,80 40,320 520,320 480,0 480,-300 480,-300 l -480,120 z"
         id="path5109" />
      <ellipse
         style="fill:#4d4d4d;fill-opacity:1;stroke:#000000;stroke-width:1;stroke-linecap:round;stroke-linejoin:round;stroke-miterlimit:4;stroke-dasharray:none;stroke-dashoffset:9.44882;stroke-opacity:1"
         id="path5107"
         cx="800"
         cy="1850"
         rx="500"
         ry="210" />
    </g>
    <g
       transform="matrix(0.59703969,0,0,0.71286257,130.31717,273.07942)"
       id="g5091">
      <path
         style="fill:#333333;fill-opacity:1;stroke:none;stroke-width:1px;stroke-linecap:butt;stroke-linejoin:miter;stroke-opacity:1"
         d="m 920,600 c -40,0 -1000,360 -1000,360 0,0 -160,280 0,680 l 1080,120 c 0,0 -320,-320 -320,-640 0,-320 240,-520 240,-520 z"
         id="path5087" />
      <ellipse
         style="fill:#333333;stroke:#000000;stroke-width:5;stroke-linecap:round;stroke-linejoin:round;stroke-dashoffset:9.44882;stroke-opacity:1"
         id="path5085"
         cx="1000"
         cy="1160"
         rx="320"
         ry="600" />
    </g>
    <g
       id="g5099">
      <path
         style="fill:#ffff33;stroke:#d5ff00;stroke-width:1px;stroke-linecap:butt;stroke-linejoin:miter;stroke-opacity:1;fill-opacity:1"
         d="m 1155,1115 c 0,0 -5,0 -5,-10 0,-10 5,-10 5,-10 0,0 5,0 5,10 0,10 -5,10 -5,10 0,0 0,5 -10,5 -10,0 -10,-5 -10,-5 0,0 0,-5 10,-5 10,0 10,5 10,5 0,0 0,5 10,5 10,0 10,-5 10,-5 0,0 0,-5 -10,-5 -10,0 -10,5 -10,5 0,0 5,0 5,10 0,10 -5,10 -5,10 0,0 -5,0 -5,-10 0,-10 5,-10 5,-10 z"
         id="path5093"
         sodipodi:nodetypes="cscscscscscscscsc" />
      <circle
         style="fill:#ecff33;fill-opacity:1;stroke:#acff00;stroke-width:1;stroke-linecap:round;stroke-linejoin:round;stroke-dashoffset:9.44882;stroke-opacity:1;stroke-miterlimit:4;stroke-dasharray:none"
         id="path5095"
         cx="1155"
         cy="1115"
         r="7" />
    </g>
    <g
       transform="matrix(9.8902439,0,0,9.8902439,-10723.232,-9927.6219)"
       id="g5105">
      <path
         sodipodi:nodetypes="cscscscscscscscsc"
         id="path5101"
         d="m 1155,1115 c 0,0 -5,0 -5,-10 0,-10 5,-10 5,-10 0,0 5,0 5,10 0,10 -5,10 -5,10 0,0 0,5 -10,5 -10,0 -10,-5 -10,-5 0,0 0,-5 10,-5 10,0 10,5 10,5 0,0 0,5 10,5 10,0 10,-5 10,-5 0,0 0,-5 -10,-5 -10,0 -10,5 -10,5 0,0 5,0 5,10 0,10 -5,10 -5,10 0,0 -5,0 -5,-10 0,-10 5,-10 5,-10 z"
         style="fill:#ffff33;fill-opacity:1;stroke:#d5ff00;stroke-width:1px;stroke-linecap:butt;stroke-linejoin:miter;stroke-opacity:1" />
      <circle
         r="7"
         cy="1115"
         cx="1155"
         id="circle5103"
         style="fill:#ecff33;fill-opacity:1;stroke:#acff00;stroke-width:1;stroke-linecap:round;stroke-linejoin:round;stroke-miterlimit:4;stroke-dasharray:none;stroke-dashoffset:9.44882;stroke-opacity:1" />
    </g>
    <text
       id="text5117"
       y="820"
       x="120"
       style="font-style:italic;font-size:42.6667px;line-height:1.25;font-family:Ubuntu;-inkscape-font-specification:'Ubuntu Italic';letter-spacing:0px;word-spacing:0px"
       xml:space="preserve"><tspan
         y="820"
         x="120"
         id="tspan5115"
         sodipodi:role="line">by JOELwindows7</tspan><tspan
         id="tspan5119"
         y="873.33337"
         x="120"
         sodipodi:role="line">Perkedel Technologies</tspan><tspan
         id="tspan5121"
         y="926.66675"
         x="120"
         sodipodi:role="line">CC4.0-BY-SA</tspan></text>
  </g>
</svg>
