<?xml version="1.0" encoding="UTF-8" standalone="no"?>
<svg
   xmlns:dc="http://purl.org/dc/elements/1.1/"
   xmlns:cc="http://creativecommons.org/ns#"
   xmlns:rdf="http://www.w3.org/1999/02/22-rdf-syntax-ns#"
   xmlns:svg="http://www.w3.org/2000/svg"
   xmlns="http://www.w3.org/2000/svg"
   xmlns:sodipodi="http://sodipodi.sourceforge.net/DTD/sodipodi-0.dtd"
   xmlns:inkscape="http://www.inkscape.org/namespaces/inkscape"
   inkscape:export-ydpi="96"
   inkscape:export-xdpi="96"
   inkscape:export-filename="C:\Users\joelr\Documents\starring codes\After Church\RAW files\Inkscape\Week Strong\07-only-for-one.png"
   sodipodi:docname="07-only-for-one.svg"
   inkscape:version="1.0 (4035a4fb49, 2020-05-01)"
   id="svg892"
   version="1.1"
   viewBox="0 0 1080 1920"
   height="1920"
   width="1080">
  <defs
     id="defs886" />
  <sodipodi:namedview
     inkscape:window-maximized="1"
     inkscape:window-y="-9"
     inkscape:window-x="-9"
     inkscape:window-height="1051"
     inkscape:window-width="1920"
     units="px"
     showgrid="true"
     inkscape:document-rotation="0"
     inkscape:current-layer="layer1"
     inkscape:document-units="px"
     inkscape:cy="675.607"
     inkscape:cx="667.9262"
     inkscape:zoom="0.49497475"
     inkscape:pageshadow="2"
     inkscape:pageopacity="0.0"
     borderopacity="1.0"
     bordercolor="#666666"
     pagecolor="#ffffff"
     id="base">
    <inkscape:grid
       id="grid1464"
       type="xygrid" />
  </sodipodi:namedview>
  <metadata
     id="metadata889">
    <rdf:RDF>
      <cc:Work
         rdf:about="">
        <dc:format>image/svg+xml</dc:format>
        <dc:type
           rdf:resource="http://purl.org/dc/dcmitype/StillImage" />
        <dc:title></dc:title>
        <cc:license
           rdf:resource="http://creativecommons.org/licenses/by-sa/4.0/" />
      </cc:Work>
      <cc:License
         rdf:about="http://creativecommons.org/licenses/by-sa/4.0/">
        <cc:permits
           rdf:resource="http://creativecommons.org/ns#Reproduction" />
        <cc:permits
           rdf:resource="http://creativecommons.org/ns#Distribution" />
        <cc:requires
           rdf:resource="http://creativecommons.org/ns#Notice" />
        <cc:requires
           rdf:resource="http://creativecommons.org/ns#Attribution" />
        <cc:permits
           rdf:resource="http://creativecommons.org/ns#DerivativeWorks" />
        <cc:requires
           rdf:resource="http://creativecommons.org/ns#ShareAlike" />
      </cc:License>
    </rdf:RDF>
  </metadata>
  <g
     id="layer1"
     inkscape:groupmode="layer"
     inkscape:label="Lapis 1">
    <rect
       y="0"
       x="0"
       height="1920"
       width="1080"
       id="rect1466"
       style="fill:#ff9955;stroke:none;stroke-width:2;stroke-linecap:round;stroke-linejoin:round;stroke-dashoffset:9.44882" />
    <rect
       y="620"
       x="880"
       height="180"
       width="180"
       id="rect1468"
       style="fill:#ffcc00;stroke:none;stroke-width:2;stroke-linecap:round;stroke-linejoin:round;stroke-dashoffset:9.44882" />
    <rect
       style="fill:#ff5555;stroke:none;stroke-width:2;stroke-linecap:round;stroke-linejoin:round;stroke-dashoffset:9.44882"
       id="rect1470"
       width="180"
       height="180"
       x="880"
       y="840" />
    <circle
       r="120"
       cy="840"
       cx="160"
       id="path1472"
       style="fill:#1a1a1a;stroke:none;stroke-width:2;stroke-linecap:round;stroke-linejoin:round;stroke-dashoffset:9.44882" />
    <path
       id="path1474"
       d="m 300,840 80,-100 h 440 v -60 l 40,60 -40,60 V 740 H 380 Z"
       style="fill:#ff0000;stroke:#ff0000;stroke-width:5;stroke-linecap:round;stroke-linejoin:round;stroke-opacity:1;stroke-miterlimit:4;stroke-dasharray:none;fill-opacity:1" />
    <path
       id="path1476"
       d="m 300,840 80,80 h 200 l -60,-60 60,60 60,-60 -60,60 60,60 -60,-60 -60,60 60,-60 H 380 Z"
       style="fill:none;stroke:#7d2726;stroke-width:5;stroke-linecap:butt;stroke-linejoin:miter;stroke-opacity:1;stroke-miterlimit:4;stroke-dasharray:none" />
    <g
       transform="matrix(0.48387097,0,0,0.48387097,30.967742,557.41935)"
       id="g1532">
      <g
         id="g1517">
        <ellipse
           ry="160"
           rx="200"
           cy="1240"
           cx="420"
           id="path1478"
           style="fill:#ff526a;fill-opacity:1;stroke:none;stroke-width:5;stroke-linecap:round;stroke-linejoin:round;stroke-miterlimit:4;stroke-dasharray:none;stroke-dashoffset:9.44882;stroke-opacity:1" />
        <path
           id="path1488"
           d="m 520,1340 80,120 80,-120"
           style="fill:none;stroke:#ff0000;stroke-width:5;stroke-linecap:butt;stroke-linejoin:miter;stroke-miterlimit:4;stroke-dasharray:none;stroke-opacity:1" />
        <path
           style="fill:#ff526a;fill-opacity:1;stroke:#000000;stroke-width:1px;stroke-linecap:butt;stroke-linejoin:miter;stroke-opacity:1"
           d="m 560,1260 h 300 c 0,0 -80,180 -180,180 -100,0 -120,-180 -120,-180 z"
           id="path1486" />
        <path
           id="path1490"
           d="M 340,1340 260,1460 160,1360"
           style="fill:none;stroke:#ff0000;stroke-width:5;stroke-linecap:butt;stroke-linejoin:miter;stroke-miterlimit:4;stroke-dasharray:none;stroke-opacity:1" />
        <path
           id="path1484"
           d="m 60,1240 h 300 c 0,0 -80,180 -180,180 C 80,1420 60,1240 60,1240 Z"
           style="fill:#ff526a;fill-opacity:1;stroke:#000000;stroke-width:1px;stroke-linecap:butt;stroke-linejoin:miter;stroke-opacity:1" />
      </g>
      <g
         id="g1510">
        <path
           id="path1492"
           d="m 360,1140 c -30.20573,9.6819 -58.66568,26.5801 -82.85714,47.1429 -9.42415,8.0105 -23.12272,16.7002 -14.28572,31.4285 7.93694,13.2283 21.05889,16.995 35.71429,22.8572 4.50888,1.8035 9.5586,1.7449 14.28571,2.8571 8.62418,2.0292 9.93134,4.1864 18.57143,2.8572 14.2499,-2.1923 24.70591,-14.6009 35.71429,-22.8572 4.12063,-3.0905 8.73651,-5.4809 12.85714,-8.5714 1.90476,-1.4286 4.0307,-2.6021 5.71429,-4.2857 2.26533,-2.2654 3.72115,-19.9771 2.85714,-22.8572 -1.65507,-5.5169 -8.79588,-10.9013 -12.85714,-14.2857 -5.4391,-4.5326 -9.80614,-9.3122 -15.71429,-12.8571 -1.82611,-1.0957 -3.80952,-1.9048 -5.71429,-2.8572 -0.42591,-0.2129 -1.89054,-0.1155 -1.42857,0 2.35561,0.5889 4.76191,0.9524 7.14286,1.4286"
           style="fill:none;stroke:#000000;stroke-width:1px;stroke-linecap:butt;stroke-linejoin:miter;stroke-opacity:1" />
        <path
           id="path1494"
           d="m 340,1180 c 5.55566,9.4885 -15.24486,6.6329 -12.85714,18.5714 0.57228,2.8614 29.99155,4.3026 31.42857,1.4286 0.44327,-0.8865 0,-4.4485 0,-5.7143 0,-12.3632 -6.2267,-3.5345 -14.28572,-8.5714 -2.01904,-1.2619 -2.85714,-3.8095 -4.28571,-5.7143 z"
           style="fill:none;stroke:#000000;stroke-width:1px;stroke-linecap:butt;stroke-linejoin:miter;stroke-opacity:1" />
        <path
           id="path1496"
           d="m 500,1140 c -14.5541,28.1314 -66.23737,28.5955 -80,54.2857 -3.84911,7.185 -3.10403,16.1384 -2.85714,24.2857 0.23479,7.7483 -0.72954,16.9463 4.28571,22.8572 15.55327,18.3306 58.14878,37.1428 81.42857,37.1428 3.80953,0 7.61905,0 11.42857,0 3.33334,0 7.14169,1.715 10,0 12.85096,-7.7105 54.82753,-50.5283 64.28572,-64.2857 1.0791,-1.5696 0,-3.8095 0,-5.7143 0,-3.8095 2.11314,-8.2588 0,-11.4285 -12.90804,-19.3621 -72.01562,-33.5244 -85.71429,-37.1429 -8.93933,-2.3613 -17.98362,-4.4509 -27.14285,-5.7143 C 460.00682,1152.1192 462.36018,1150.5593 460,1160"
           style="fill:none;stroke:#000000;stroke-width:1px;stroke-linecap:butt;stroke-linejoin:miter;stroke-opacity:1" />
        <path
           id="path1498"
           d="m 540,1200 c -4.7619,0.4762 -10.30381,-1.226 -14.28571,1.4286 -3.58788,2.3919 -5.51938,11.4935 -1.42858,12.8571 4.12192,1.374 22.513,2.2289 25.71429,1.4286 5.18444,-1.2961 1.92376,-11.7017 1.42857,-12.8572 C 549.88174,1199.2479 543.87334,1200.6456 540,1200 Z"
           style="fill:none;stroke:#000000;stroke-width:1px;stroke-linecap:butt;stroke-linejoin:miter;stroke-opacity:1" />
        <path
           id="path1500"
           d="m 260,1140 c 4.7619,-1.9048 9.16365,-5.9756 14.28571,-5.7143 211.83266,21.6647 42.40347,8.6448 221.42858,12.8572 29.87833,0.703 37.84193,7.2466 67.14285,-2.8572 24.0228,-8.2837 32.31282,-14.2857 58.57143,-14.2857 0.95238,0 2.99183,-0.9428 2.85714,0 -0.51287,3.5901 -2.85714,6.6667 -4.28571,10"
           style="fill:none;stroke:#000000;stroke-width:1px;stroke-linecap:butt;stroke-linejoin:miter;stroke-opacity:1" />
        <path
           id="path1502"
           d="m 380,1360 c 12.38095,2.8571 24.68326,6.0795 37.14286,8.5714 8.98183,1.7964 18.19221,2.34 27.14285,4.2857 6.56613,1.4275 5.71429,5.8166 5.71429,0 0,-3.5145 0.0355,-4.2501 -1.42857,-5.7142 -0.67344,-0.6735 -2.00531,0.4259 -2.85714,0 -8.18948,-4.0948 -16.13573,-11.1156 -25.71429,-12.8572 -2.81106,-0.5111 -5.72415,0.2373 -8.57143,0 -9.39978,-0.7833 -15.83387,-1.7275 -15.71428,-1.4286 1.03122,2.5781 2.85714,4.7619 4.28571,7.1429"
           style="fill:none;stroke:#000000;stroke-width:1px;stroke-linecap:butt;stroke-linejoin:miter;stroke-opacity:1" />
      </g>
    </g>
    <text
       id="text1536"
       y="-140"
       x="40"
       style="font-style:italic;font-size:42.6667px;line-height:1.25;font-family:Ubuntu;-inkscape-font-specification:'Ubuntu Italic';letter-spacing:0px;word-spacing:0px"
       xml:space="preserve"><tspan
         y="-140"
         x="40"
         id="tspan1534"
         sodipodi:role="line">exclusivity is a business trick</tspan><tspan
         id="tspan1538"
         y="-86.666626"
         x="40"
         sodipodi:role="line">you bargain, customer jealous</tspan></text>
    <text
       id="text1542"
       y="1054.2858"
       x="391.42856"
       style="font-style:italic;font-size:42.6667px;line-height:1.25;font-family:Ubuntu;-inkscape-font-specification:'Ubuntu Italic';letter-spacing:0px;word-spacing:0px"
       xml:space="preserve"><tspan
         y="1054.2858"
         x="391.42856"
         id="tspan1540"
         sodipodi:role="line">by JOELwindows7</tspan><tspan
         id="tspan1544"
         y="1107.6191"
         x="391.42856"
         sodipodi:role="line">Perkedel Technologies</tspan><tspan
         id="tspan1546"
         y="1160.9525"
         x="391.42856"
         sodipodi:role="line">CC4.0-BY-SA</tspan></text>
  </g>
</svg>
