<?xml version="1.0" encoding="UTF-8" standalone="no"?>
<svg
   xmlns:dc="http://purl.org/dc/elements/1.1/"
   xmlns:cc="http://creativecommons.org/ns#"
   xmlns:rdf="http://www.w3.org/1999/02/22-rdf-syntax-ns#"
   xmlns:svg="http://www.w3.org/2000/svg"
   xmlns="http://www.w3.org/2000/svg"
   xmlns:xlink="http://www.w3.org/1999/xlink"
   xmlns:sodipodi="http://sodipodi.sourceforge.net/DTD/sodipodi-0.dtd"
   xmlns:inkscape="http://www.inkscape.org/namespaces/inkscape"
   inkscape:export-ydpi="96"
   inkscape:export-xdpi="96"
   inkscape:export-filename="C:\Users\joelr\Documents\starring codes\Haxe Projects\Kaded-fnf-mods\assets\shared\images\stages\amfrost\amfrost_stageCurtain.png"
   width="2048"
   height="1024"
   viewBox="0 0 2048 1024"
   version="1.1"
   id="svg8"
   inkscape:version="1.0 (4035a4fb49, 2020-05-01)"
   sodipodi:docname="amfrost-waiting-for-week7.svg">
  <defs
     id="defs2">
    <linearGradient
       inkscape:collect="always"
       id="linearGradient852">
      <stop
         style="stop-color:#fff1c1;stop-opacity:1"
         offset="0"
         id="stop848" />
      <stop
         id="stop856"
         offset="0.5"
         style="stop-color:#ff9c00;stop-opacity:1" />
      <stop
         style="stop-color:#ffebea;stop-opacity:1"
         offset="1"
         id="stop850" />
    </linearGradient>
    <linearGradient
       inkscape:collect="always"
       xlink:href="#linearGradient852"
       id="linearGradient854"
       x1="1024"
       y1="0"
       x2="1024"
       y2="1024"
       gradientUnits="userSpaceOnUse" />
  </defs>
  <sodipodi:namedview
     id="base"
     pagecolor="#ffffff"
     bordercolor="#666666"
     borderopacity="1.0"
     inkscape:pageopacity="0.0"
     inkscape:pageshadow="2"
     inkscape:zoom="0.49497475"
     inkscape:cx="451.7392"
     inkscape:cy="1278.0789"
     inkscape:document-units="px"
     inkscape:current-layer="layer5"
     inkscape:document-rotation="0"
     showgrid="true"
     units="px"
     inkscape:window-width="1920"
     inkscape:window-height="1051"
     inkscape:window-x="-9"
     inkscape:window-y="-9"
     inkscape:window-maximized="1"
     inkscape:snap-bbox="true"
     inkscape:bbox-paths="true"
     inkscape:bbox-nodes="true"
     inkscape:snap-bbox-edge-midpoints="true"
     inkscape:snap-bbox-midpoints="true">
    <inkscape:grid
       type="xygrid"
       id="grid842"
       empspacing="4" />
    <inkscape:grid
       type="xygrid"
       id="grid844"
       empspacing="512" />
  </sodipodi:namedview>
  <metadata
     id="metadata5">
    <rdf:RDF>
      <cc:Work
         rdf:about="">
        <dc:format>image/svg+xml</dc:format>
        <dc:type
           rdf:resource="http://purl.org/dc/dcmitype/StillImage" />
        <dc:title></dc:title>
      </cc:Work>
    </rdf:RDF>
  </metadata>
  <g
     style="display:inline"
     inkscape:label="bg"
     inkscape:groupmode="layer"
     id="layer1"
     sodipodi:insensitive="true">
    <rect
       style="opacity:0.994;fill:url(#linearGradient854);fill-opacity:1;stroke:none;stroke-width:3.49;stroke-linecap:round;stroke-linejoin:round;paint-order:stroke fill markers"
       id="rect846"
       width="2048"
       height="1024"
       x="0"
       y="0" />
  </g>
  <g
     style="display:inline"
     sodipodi:insensitive="true"
     inkscape:label="bg mountain"
     id="layer3"
     inkscape:groupmode="layer">
    <path
       id="path860"
       d="M -32,544 160,384 832,1056 H -96 Z"
       style="fill:#d0a00d;fill-opacity:0.996078;stroke:none;stroke-width:1px;stroke-linecap:butt;stroke-linejoin:miter;stroke-opacity:1" />
    <path
       id="path862"
       d="m 320,1088 576,-736 384,768 z"
       style="fill:#d0bc0d;fill-opacity:0.996078;stroke:none;stroke-width:1px;stroke-linecap:butt;stroke-linejoin:miter;stroke-opacity:1" />
    <path
       id="path864"
       d="m 64,1120 480,-672 704,704 z"
       style="fill:#d08f0d;fill-opacity:0.996078;stroke:none;stroke-width:1px;stroke-linecap:butt;stroke-linejoin:miter;stroke-opacity:1" />
    <path
       sodipodi:nodetypes="cccc"
       id="path868"
       d="m 576,1184 608,-704 480,800 z"
       style="fill:#ad7549;fill-opacity:0.996078;stroke:none;stroke-width:1px;stroke-linecap:butt;stroke-linejoin:miter;stroke-opacity:1" />
    <path
       id="path866"
       d="m 768,1184 608,-736 224,64 256,608 z"
       style="fill:#ad8f49;fill-opacity:0.996078;stroke:none;stroke-width:1px;stroke-linecap:butt;stroke-linejoin:miter;stroke-opacity:1" />
    <path
       id="path870"
       d="m 2304,448 -800,128 -320,736 1216,-192 z"
       style="fill:#c1b66a;fill-opacity:0.996078;stroke:none;stroke-width:1px;stroke-linecap:butt;stroke-linejoin:miter;stroke-opacity:1" />
  </g>
  <g
     style="display:inline"
     sodipodi:insensitive="true"
     inkscape:groupmode="layer"
     id="layer2"
     inkscape:label="stageFront">
    <path
       style="fill:#999999;stroke:none;stroke-width:1px;stroke-linecap:butt;stroke-linejoin:miter;stroke-opacity:1"
       d="m -96,640 c 0,0 288,-160 416,-160 128,0 288,64 384,64 96,0 448,0 544,-32 96,-32 480,-32 608,-32 128,0 256,96 256,96 0,0 96,544 -64,576 -160,32 -2080,0 -2112,-96 -32,-96 -32,-416 -32,-416 z"
       id="path859" />
    <path
       style="fill:#e9ddaf;stroke:none;stroke-width:1px;stroke-linecap:butt;stroke-linejoin:miter;stroke-opacity:1"
       d="m -64,576 c 0,0 320,-32 512,-32 192,0 320,6.3858 480,6.3858 160,0 1120,-6.3858 1280,25.6142 160,32 96,192 96,192 0,0 32,512 -448,480 C 1376,1216 64,1248 32,1120 0,992 -96,896 -64,576 Z"
       id="path861"
       sodipodi:nodetypes="cssscssc" />
    <path
       style="fill:#784421;stroke:#000000;stroke-width:0.778445px;stroke-linecap:butt;stroke-linejoin:miter;stroke-opacity:1"
       d="m 1288.3831,554.20354 24.9102,-149.46144 -12.4551,-74.7307 -124.5513,-24.91025 -37.3653,24.91025 -24.9102,12.45511 h -12.4551 l 49.8205,-24.91024 h -74.7307 l 9.3413,-6.22755 52.9342,-6.22757 -24.9102,-24.91024 6.2276,-3.11378 28.0239,21.79646 -12.455,-46.7067 9.3413,6.22756 6.2276,34.25159 18.6827,-3.11379 121.4373,18.68268 -9.3413,-43.59291 -87.1858,-49.82048 -52.9344,6.22755 3.1139,-6.22755 43.5929,-6.22756 -24.9102,-21.79646 9.3413,-6.22756 18.6826,15.5689 12.4552,3.11378 -6.2276,-21.79646 h 9.3414 l 3.1137,12.45512 c 0,0 15.5689,-15.5689 15.5689,-9.34134 0,6.22756 -9.3413,12.45512 -9.3413,12.45512 l -3.1137,3.11378 3.1137,6.22755 59.1618,37.36536 -12.4551,-77.84449 -28.0241,-15.5689 -6.2274,-9.34133 12.455,-3.11379 v 6.22756 l 18.6827,12.45512 -9.3413,-31.1378 h 12.4551 l 3.1138,28.02402 12.4552,-28.02402 h 9.3413 l -12.4552,24.91024 21.7965,-18.68267 12.4551,3.11377 -18.6827,12.45512 21.7965,3.11378 v 6.22756 l -21.7965,-3.11378 -3.1137,12.45512 15.5688,15.5689 -9.3413,3.11378 -12.4551,-15.5689 -9.3413,-3.11378 34.2516,68.50315 71.6168,-18.68268 -31.1377,-9.34134 6.2275,-12.45511 28.0241,15.5689 -12.4552,-24.91024 h 6.2276 l 12.4551,21.79645 h 28.0241 c 0,0 3.1137,9.34134 0,9.34134 h -28.0241 l -68.5032,43.59293 15.5689,62.27559 62.2756,-3.11378 -6.2275,6.22757 6.2275,6.22755 -3.1137,6.22756 -54.4305,5.58332 48.2029,215.49505 L 1360,576 h -46.7067 z"
       id="path863"
       sodipodi:nodetypes="cccccccccccccccccccccccccccccccsccccccccccccccccccccccccccccccccccccscccccccccccc" />
  </g>
  <g
     style="display:inline"
     sodipodi:insensitive="true"
     inkscape:label="stageCurtain"
     id="layer4"
     inkscape:groupmode="layer">
    <path
       id="path873"
       d="M 144,16 40,120 144,224 248,120 Z"
       style="fill:#ffff00;stroke:none;stroke-width:1px;stroke-linecap:butt;stroke-linejoin:miter;stroke-opacity:1" />
  </g>
  <g
     sodipodi:insensitive="true"
     inkscape:label="watermark"
     id="layer5"
     inkscape:groupmode="layer">
    <text
       id="text878"
       y="1472"
       x="-160"
       style="font-size:48px;line-height:1.25;font-family:Ubuntu;-inkscape-font-specification:Ubuntu;text-align:center;letter-spacing:0px;word-spacing:0px;text-anchor:middle"
       xml:space="preserve"><tspan
         y="1472"
         x="-160"
         id="tspan876"
         sodipodi:role="line">by JOELwindows7</tspan><tspan
         id="tspan880"
         y="1532"
         x="-160"
         sodipodi:role="line">Perkedel Technologies</tspan><tspan
         id="tspan882"
         y="1592"
         x="-160"
         sodipodi:role="line">CC4.0-BY-SA</tspan></text>
  </g>
</svg>
