<?xml version="1.0"?><svg width="816" height="1056" xmlns="http://www.w3.org/2000/svg">
 <title>red flower</title>
 <metadata id="metadata3234">image/svg+xml</metadata>
 <g>
  <title>Layer 1</title>
  <g id="layer1">
   <path id="path3806" d="m406.446472,477.871521c-5.566315,66.857788 -47.306458,131.833618 -106.830353,164.529358c-55.841064,29.818115 -134.986832,8.090332 -160.788452,-48.97821c-19.977486,-51.201477 -1.219269,-110.928375 35.250046,-150.52243c28.03479,-31.19162 69.525314,-43.654541 107.61644,-60.72702c-59.103745,7.463074 -121.799255,-4.248383 -168.033592,-40.368683c-28.286835,-20.47525 -56.220108,-51.191956 -55.041954,-87.669846c2.836849,-53.854095 59.981049,-97.826202 115.476288,-89.325455c68.804398,9.878143 121.706589,58.962723 164.867142,108.725891c-15.420227,-13.783905 -29.75946,-35.672409 -36.181519,-54.887573c-19.391296,-79.969406 26.213837,-169.506733 104.156067,-202.552528c16.396118,-7.829132 36.479034,-4.497324 50.741638,7.00606c37.557556,27.952505 62.880554,72.938734 60.635681,119.082876c-5.808594,50.287628 -31.988586,93.791534 -59.890472,135.862122c23.527466,-41.599609 54.82077,-77.156448 103.059662,-96.731171c61.546082,-25.216675 143.300171,-24.777756 190.964661,26.531586c30.428223,29.220078 24.144897,81.46405 -5.554626,108.973846c-33.382324,30.387512 -79.128174,41.446289 -121.546631,52.849457c-36.477112,11.516663 -81.424194,0.685486 -118.284027,0.272736c33.843719,1.640106 77.166779,2.094269 102.711212,19.51004c39.458618,27.146515 79.33905,65.771606 72.936523,116.749817c-7.826843,56.847229 -57.955078,119.343994 -122.838196,109.119629c-67.616455,-11.259338 -122.989502,-80.153015 -153.425537,-137.4505z" stroke-miterlimit="4" stroke-width="4.137208" stroke="#000000" fill="#ff0000"/>
   <path d="m440.599731,277.806824c61.56192,29.753632 73.190796,123.12558 22.147491,167.95929c-45.51767,44.941986 -131.607239,35.078369 -162.565338,-21.817169c-32.061035,-48.875977 -11.857819,-122.592712 42.285187,-146.994598c29.833405,-15.497314 67.296295,-14.62851 98.13266,0.852478z" id="path3800" stroke-miterlimit="4" stroke-width="3.898249" stroke="#000000" fill="#fdff08"/>
   <path d="m653.030762,694.224915c52.543884,220.92334 -131.295105,283.541931 -267.156677,351.709412c33.478546,-137.136414 8.590302,-306.907776 267.156677,-351.709412z" id="path38" stroke-miterlimit="4" stroke-width="5.352934" stroke="#000000" fill="#37dc11"/>
   <path d="m30.658297,720.623535c-4.500803,222.945007 212.596464,256.859741 348.074705,324.834839c-36.044922,-139.39447 -124.828461,-322.479858 -348.074705,-324.834839z" id="path3789" stroke-miterlimit="4" stroke-width="5.337831" stroke="#000000" fill="#37dc11"/>
   <path id="path32" d="m382.775635,1049.02002c-54.755127,-330.820313 47.717926,-335.051453 24.057495,-572.464203c54.347931,159.37912 -39.699921,210.57193 -24.057495,572.464203z" stroke-miterlimit="4" stroke-width="2.851429" stroke="#000000" fill="#37dc11"/>
  </g>
 </g>
</svg>