<?xml version="1.0"?><svg width="816" height="1056" xmlns="http://www.w3.org/2000/svg">
 <title>yellow flower</title>

 <metadata id="metadata3234">image/svg+xml</metadata>
 <g>
  <title>Layer 1</title>
  <g id="layer1">
   <path fill="#ffff00" stroke="#000000" stroke-width="4.137208" stroke-miterlimit="4" d="m379.232239,439.237671c-4.948395,59.791412 -42.055176,117.89978 -94.971588,147.139832c-49.642395,26.666504 -120.002548,7.235168 -142.940048,-43.801636c-17.759872,-45.789856 -1.083908,-99.204041 31.337097,-134.613281c24.922775,-27.894897 61.807632,-39.040588 95.670395,-54.308624c-52.542877,6.674286 -108.278839,-3.799347 -149.380898,-36.10199c-25.146835,-18.311188 -49.97937,-45.781372 -48.931999,-78.403809c2.521942,-48.162109 53.322823,-87.48671 102.657776,-79.884415c61.166748,8.834106 108.196472,52.730804 146.565979,97.23436c-13.708496,-12.327042 -26.455994,-31.902084 -32.165192,-49.086365c-17.238739,-71.517227 23.303955,-151.591103 92.594177,-181.144213c14.57608,-7.00165 32.429688,-4.02199 45.10907,6.26557c33.388458,24.998131 55.900452,65.229641 53.904785,106.4967c-5.163818,44.972595 -28.437683,83.878464 -53.24231,121.502487c20.915802,-37.202835 48.735352,-69.001572 91.619476,-86.507385c54.714111,-22.551468 127.393005,-22.158936 169.766479,23.727386c27.050537,26.131729 21.464661,72.853912 -4.937988,97.456116c-29.676697,27.175781 -70.344482,37.065735 -108.054321,47.263641c-32.427979,10.299438 -72.385651,0.613037 -105.153809,0.243927c30.086884,1.466766 68.600891,1.872894 91.309692,17.447968c35.078491,24.277313 70.531982,58.820038 64.840149,104.410248c-6.957947,50.838898 -51.521667,106.730194 -109.202454,97.586456c-60.110657,-10.069275 -109.336975,-71.681396 -136.39447,-122.922974z" id="path3806"/>
   <path fill="#7f3f00" stroke="#000000" stroke-width="3.898249" stroke-miterlimit="4" id="path3800" d="m408.594299,258.318329c54.72821,26.608887 65.066193,110.112091 19.689026,150.207214c-40.464996,40.191986 -116.998138,31.37085 -144.519714,-19.51123c-28.50209,-43.710144 -10.541534,-109.63559 37.591309,-131.458374c26.521729,-13.859344 59.82605,-13.082382 87.23938,0.76239z"/>
   <path fill="#007f00" stroke="#000000" stroke-width="5.352934" stroke-miterlimit="4" id="path38" d="m597.444336,630.72406c46.711182,197.573425 -116.720673,253.573669 -237.500824,314.536316c29.762268,-122.642029 7.636719,-274.469849 237.500824,-314.536316z"/>
   <path fill="#007f00" stroke="#000000" stroke-width="5.337831" stroke-miterlimit="4" id="path3789" d="m44.15863,654.332581c-4.00119,199.381348 188.997086,229.711548 309.436493,290.502136c-32.043732,-124.661438 -110.971817,-288.396057 -309.436493,-290.502136z"/>
   <path fill="#007f00" stroke="#000000" stroke-width="2.851429" stroke-miterlimit="4" d="m357.189331,948.020264c-48.677826,-295.854797 42.420685,-299.639038 21.386658,-511.958954c48.315491,142.533966 -35.292847,188.315643 -21.386658,511.958954z" id="path32"/>
  </g>
 </g>
</svg>