<svg height="135" version="1.1" width="135" xmlns="http://www.w3.org/2000/svg"><desc>Created with Snap</desc><defs/><rect x="0" y="0" width="135" height="135" fill="#ffffff"/><g fill="#000000"><rect x="12" y="12" width="3" height="3"/><rect x="15" y="12" width="3" height="3"/><rect x="18" y="12" width="3" height="3"/><rect x="21" y="12" width="3" height="3"/><rect x="24" y="12" width="3" height="3"/><rect x="27" y="12" width="3" height="3"/><rect x="30" y="12" width="3" height="3"/><rect x="36" y="12" width="3" height="3"/><rect x="39" y="12" width="3" height="3"/><rect x="42" y="12" width="3" height="3"/><rect x="45" y="12" width="3" height="3"/><rect x="48" y="12" width="3" height="3"/><rect x="51" y="12" width="3" height="3"/><rect x="54" y="12" width="3" height="3"/><rect x="57" y="12" width="3" height="3"/><rect x="63" y="12" width="3" height="3"/><rect x="66" y="12" width="3" height="3"/><rect x="69" y="12" width="3" height="3"/><rect x="75" y="12" width="3" height="3"/><rect x="78" y="12" width="3" height="3"/><rect x="81" y="12" width="3" height="3"/><rect x="87" y="12" width="3" height="3"/><rect x="90" y="12" width="3" height="3"/><rect x="93" y="12" width="3" height="3"/><rect x="96" y="12" width="3" height="3"/><rect x="99" y="12" width="3" height="3"/><rect x="102" y="12" width="3" height="3"/><rect x="114" y="12" width="3" height="3"/><rect x="120" y="12" width="3" height="3"/><rect x="12" y="15" width="3" height="3"/><rect x="30" y="15" width="3" height="3"/><rect x="36" y="15" width="3" height="3"/><rect x="45" y="15" width="3" height="3"/><rect x="66" y="15" width="3" height="3"/><rect x="69" y="15" width="3" height="3"/><rect x="81" y="15" width="3" height="3"/><rect x="93" y="15" width="3" height="3"/><rect x="105" y="15" width="3" height="3"/><rect x="114" y="15" width="3" height="3"/><rect x="12" y="18" width="3" height="3"/><rect x="18" y="18" width="3" height="3"/><rect x="21" y="18" width="3" height="3"/><rect x="24" y="18" width="3" height="3"/><rect x="30" y="18" width="3" height="3"/><rect x="39" y="18" width="3" height="3"/><rect x="42" y="18" width="3" height="3"/><rect x="51" y="18" width="3" height="3"/><rect x="63" y="18" width="3" height="3"/><rect x="66" y="18" width="3" height="3"/><rect x="72" y="18" width="3" height="3"/><rect x="78" y="18" width="3" height="3"/><rect x="102" y="18" width="3" height="3"/><rect x="111" y="18" width="3" height="3"/><rect x="114" y="18" width="3" height="3"/><rect x="12" y="21" width="3" height="3"/><rect x="18" y="21" width="3" height="3"/><rect x="21" y="21" width="3" height="3"/><rect x="24" y="21" width="3" height="3"/><rect x="30" y="21" width="3" height="3"/><rect x="39" y="21" width="3" height="3"/><rect x="42" y="21" width="3" height="3"/><rect x="48" y="21" width="3" height="3"/><rect x="51" y="21" width="3" height="3"/><rect x="57" y="21" width="3" height="3"/><rect x="66" y="21" width="3" height="3"/><rect x="69" y="21" width="3" height="3"/><rect x="75" y="21" width="3" height="3"/><rect x="93" y="21" width="3" height="3"/><rect x="96" y="21" width="3" height="3"/><rect x="99" y="21" width="3" height="3"/><rect x="105" y="21" width="3" height="3"/><rect x="114" y="21" width="3" height="3"/><rect x="117" y="21" width="3" height="3"/><rect x="120" y="21" width="3" height="3"/><rect x="12" y="24" width="3" height="3"/><rect x="18" y="24" width="3" height="3"/><rect x="21" y="24" width="3" height="3"/><rect x="24" y="24" width="3" height="3"/><rect x="30" y="24" width="3" height="3"/><rect x="36" y="24" width="3" height="3"/><rect x="39" y="24" width="3" height="3"/><rect x="48" y="24" width="3" height="3"/><rect x="51" y="24" width="3" height="3"/><rect x="63" y="24" width="3" height="3"/><rect x="66" y="24" width="3" height="3"/><rect x="69" y="24" width="3" height="3"/><rect x="72" y="24" width="3" height="3"/><rect x="75" y="24" width="3" height="3"/><rect x="87" y="24" width="3" height="3"/><rect x="93" y="24" width="3" height="3"/><rect x="96" y="24" width="3" height="3"/><rect x="99" y="24" width="3" height="3"/><rect x="102" y="24" width="3" height="3"/><rect x="105" y="24" width="3" height="3"/><rect x="108" y="24" width="3" height="3"/><rect x="114" y="24" width="3" height="3"/><rect x="12" y="27" width="3" height="3"/><rect x="30" y="27" width="3" height="3"/><rect x="36" y="27" width="3" height="3"/><rect x="39" y="27" width="3" height="3"/><rect x="42" y="27" width="3" height="3"/><rect x="45" y="27" width="3" height="3"/><rect x="54" y="27" width="3" height="3"/><rect x="60" y="27" width="3" height="3"/><rect x="69" y="27" width="3" height="3"/><rect x="78" y="27" width="3" height="3"/><rect x="81" y="27" width="3" height="3"/><rect x="96" y="27" width="3" height="3"/><rect x="108" y="27" width="3" height="3"/><rect x="114" y="27" width="3" height="3"/><rect x="117" y="27" width="3" height="3"/><rect x="120" y="27" width="3" height="3"/><rect x="12" y="30" width="3" height="3"/><rect x="15" y="30" width="3" height="3"/><rect x="18" y="30" width="3" height="3"/><rect x="21" y="30" width="3" height="3"/><rect x="24" y="30" width="3" height="3"/><rect x="27" y="30" width="3" height="3"/><rect x="30" y="30" width="3" height="3"/><rect x="36" y="30" width="3" height="3"/><rect x="39" y="30" width="3" height="3"/><rect x="60" y="30" width="3" height="3"/><rect x="69" y="30" width="3" height="3"/><rect x="72" y="30" width="3" height="3"/><rect x="78" y="30" width="3" height="3"/><rect x="81" y="30" width="3" height="3"/><rect x="90" y="30" width="3" height="3"/><rect x="93" y="30" width="3" height="3"/><rect x="96" y="30" width="3" height="3"/><rect x="102" y="30" width="3" height="3"/><rect x="108" y="30" width="3" height="3"/><rect x="111" y="30" width="3" height="3"/><rect x="36" y="33" width="3" height="3"/><rect x="48" y="33" width="3" height="3"/><rect x="54" y="33" width="3" height="3"/><rect x="60" y="33" width="3" height="3"/><rect x="63" y="33" width="3" height="3"/><rect x="66" y="33" width="3" height="3"/><rect x="69" y="33" width="3" height="3"/><rect x="75" y="33" width="3" height="3"/><rect x="81" y="33" width="3" height="3"/><rect x="84" y="33" width="3" height="3"/><rect x="90" y="33" width="3" height="3"/><rect x="93" y="33" width="3" height="3"/><rect x="96" y="33" width="3" height="3"/><rect x="108" y="33" width="3" height="3"/><rect x="114" y="33" width="3" height="3"/><rect x="117" y="33" width="3" height="3"/><rect x="120" y="33" width="3" height="3"/><rect x="12" y="36" width="3" height="3"/><rect x="15" y="36" width="3" height="3"/><rect x="18" y="36" width="3" height="3"/><rect x="30" y="36" width="3" height="3"/><rect x="33" y="36" width="3" height="3"/><rect x="36" y="36" width="3" height="3"/><rect x="39" y="36" width="3" height="3"/><rect x="51" y="36" width="3" height="3"/><rect x="54" y="36" width="3" height="3"/><rect x="60" y="36" width="3" height="3"/><rect x="63" y="36" width="3" height="3"/><rect x="66" y="36" width="3" height="3"/><rect x="78" y="36" width="3" height="3"/><rect x="84" y="36" width="3" height="3"/><rect x="87" y="36" width="3" height="3"/><rect x="90" y="36" width="3" height="3"/><rect x="96" y="36" width="3" height="3"/><rect x="99" y="36" width="3" height="3"/><rect x="102" y="36" width="3" height="3"/><rect x="105" y="36" width="3" height="3"/><rect x="108" y="36" width="3" height="3"/><rect x="111" y="36" width="3" height="3"/><rect x="114" y="36" width="3" height="3"/><rect x="117" y="36" width="3" height="3"/><rect x="12" y="39" width="3" height="3"/><rect x="18" y="39" width="3" height="3"/><rect x="24" y="39" width="3" height="3"/><rect x="33" y="39" width="3" height="3"/><rect x="42" y="39" width="3" height="3"/><rect x="48" y="39" width="3" height="3"/><rect x="54" y="39" width="3" height="3"/><rect x="63" y="39" width="3" height="3"/><rect x="66" y="39" width="3" height="3"/><rect x="72" y="39" width="3" height="3"/><rect x="75" y="39" width="3" height="3"/><rect x="78" y="39" width="3" height="3"/><rect x="81" y="39" width="3" height="3"/><rect x="84" y="39" width="3" height="3"/><rect x="90" y="39" width="3" height="3"/><rect x="96" y="39" width="3" height="3"/><rect x="99" y="39" width="3" height="3"/><rect x="108" y="39" width="3" height="3"/><rect x="12" y="42" width="3" height="3"/><rect x="24" y="42" width="3" height="3"/><rect x="30" y="42" width="3" height="3"/><rect x="111" y="42" width="3" height="3"/><rect x="15" y="45" width="3" height="3"/><rect x="21" y="45" width="3" height="3"/><rect x="24" y="45" width="3" height="3"/><rect x="39" y="45" width="3" height="3"/><rect x="42" y="45" width="3" height="3"/><rect x="45" y="45" width="3" height="3"/><rect x="48" y="45" width="3" height="3"/><rect x="51" y="45" width="3" height="3"/><rect x="54" y="45" width="3" height="3"/><rect x="57" y="45" width="3" height="3"/><rect x="60" y="45" width="3" height="3"/><rect x="63" y="45" width="3" height="3"/><rect x="66" y="45" width="3" height="3"/><rect x="69" y="45" width="3" height="3"/><rect x="72" y="45" width="3" height="3"/><rect x="75" y="45" width="3" height="3"/><rect x="78" y="45" width="3" height="3"/><rect x="81" y="45" width="3" height="3"/><rect x="84" y="45" width="3" height="3"/><rect x="87" y="45" width="3" height="3"/><rect x="90" y="45" width="3" height="3"/><rect x="93" y="45" width="3" height="3"/><rect x="102" y="45" width="3" height="3"/><rect x="108" y="45" width="3" height="3"/><rect x="117" y="45" width="3" height="3"/><rect x="21" y="48" width="3" height="3"/><rect x="24" y="48" width="3" height="3"/><rect x="30" y="48" width="3" height="3"/><rect x="36" y="48" width="3" height="3"/><rect x="96" y="48" width="3" height="3"/><rect x="102" y="48" width="3" height="3"/><rect x="111" y="48" width="3" height="3"/><rect x="117" y="48" width="3" height="3"/><rect x="120" y="48" width="3" height="3"/><rect x="15" y="51" width="3" height="3"/><rect x="21" y="51" width="3" height="3"/><rect x="24" y="51" width="3" height="3"/><rect x="27" y="51" width="3" height="3"/><rect x="36" y="51" width="3" height="3"/><rect x="96" y="51" width="3" height="3"/><rect x="102" y="51" width="3" height="3"/><rect x="108" y="51" width="3" height="3"/><rect x="111" y="51" width="3" height="3"/><rect x="114" y="51" width="3" height="3"/><rect x="120" y="51" width="3" height="3"/><rect x="12" y="54" width="3" height="3"/><rect x="18" y="54" width="3" height="3"/><rect x="21" y="54" width="3" height="3"/><rect x="24" y="54" width="3" height="3"/><rect x="27" y="54" width="3" height="3"/><rect x="30" y="54" width="3" height="3"/><rect x="36" y="54" width="3" height="3"/><rect x="96" y="54" width="3" height="3"/><rect x="102" y="54" width="3" height="3"/><rect x="105" y="54" width="3" height="3"/><rect x="117" y="54" width="3" height="3"/><rect x="120" y="54" width="3" height="3"/><rect x="12" y="57" width="3" height="3"/><rect x="15" y="57" width="3" height="3"/><rect x="27" y="57" width="3" height="3"/><rect x="36" y="57" width="3" height="3"/><rect x="51" y="57" width="3" height="3"/><rect x="54" y="57" width="3" height="3"/><rect x="78" y="57" width="3" height="3"/><rect x="81" y="57" width="3" height="3"/><rect x="96" y="57" width="3" height="3"/><rect x="102" y="57" width="3" height="3"/><rect x="108" y="57" width="3" height="3"/><rect x="111" y="57" width="3" height="3"/><rect x="114" y="57" width="3" height="3"/><rect x="12" y="60" width="3" height="3"/><rect x="24" y="60" width="3" height="3"/><rect x="30" y="60" width="3" height="3"/><rect x="36" y="60" width="3" height="3"/><rect x="48" y="60" width="3" height="3"/><rect x="57" y="60" width="3" height="3"/><rect x="75" y="60" width="3" height="3"/><rect x="84" y="60" width="3" height="3"/><rect x="96" y="60" width="3" height="3"/><rect x="102" y="60" width="3" height="3"/><rect x="108" y="60" width="3" height="3"/><rect x="111" y="60" width="3" height="3"/><rect x="114" y="60" width="3" height="3"/><rect x="117" y="60" width="3" height="3"/><rect x="120" y="60" width="3" height="3"/><rect x="12" y="63" width="3" height="3"/><rect x="18" y="63" width="3" height="3"/><rect x="27" y="63" width="3" height="3"/><rect x="36" y="63" width="3" height="3"/><rect x="45" y="63" width="3" height="3"/><rect x="60" y="63" width="3" height="3"/><rect x="72" y="63" width="3" height="3"/><rect x="87" y="63" width="3" height="3"/><rect x="96" y="63" width="3" height="3"/><rect x="108" y="63" width="3" height="3"/><rect x="111" y="63" width="3" height="3"/><rect x="117" y="63" width="3" height="3"/><rect x="120" y="63" width="3" height="3"/><rect x="12" y="66" width="3" height="3"/><rect x="15" y="66" width="3" height="3"/><rect x="21" y="66" width="3" height="3"/><rect x="27" y="66" width="3" height="3"/><rect x="30" y="66" width="3" height="3"/><rect x="36" y="66" width="3" height="3"/><rect x="45" y="66" width="3" height="3"/><rect x="60" y="66" width="3" height="3"/><rect x="72" y="66" width="3" height="3"/><rect x="87" y="66" width="3" height="3"/><rect x="96" y="66" width="3" height="3"/><rect x="111" y="66" width="3" height="3"/><rect x="114" y="66" width="3" height="3"/><rect x="24" y="69" width="3" height="3"/><rect x="27" y="69" width="3" height="3"/><rect x="36" y="69" width="3" height="3"/><rect x="48" y="69" width="3" height="3"/><rect x="57" y="69" width="3" height="3"/><rect x="75" y="69" width="3" height="3"/><rect x="84" y="69" width="3" height="3"/><rect x="96" y="69" width="3" height="3"/><rect x="102" y="69" width="3" height="3"/><rect x="105" y="69" width="3" height="3"/><rect x="108" y="69" width="3" height="3"/><rect x="117" y="69" width="3" height="3"/><rect x="120" y="69" width="3" height="3"/><rect x="12" y="72" width="3" height="3"/><rect x="15" y="72" width="3" height="3"/><rect x="27" y="72" width="3" height="3"/><rect x="30" y="72" width="3" height="3"/><rect x="36" y="72" width="3" height="3"/><rect x="51" y="72" width="3" height="3"/><rect x="54" y="72" width="3" height="3"/><rect x="66" y="72" width="3" height="3"/><rect x="78" y="72" width="3" height="3"/><rect x="81" y="72" width="3" height="3"/><rect x="96" y="72" width="3" height="3"/><rect x="102" y="72" width="3" height="3"/><rect x="108" y="72" width="3" height="3"/><rect x="117" y="72" width="3" height="3"/><rect x="12" y="75" width="3" height="3"/><rect x="15" y="75" width="3" height="3"/><rect x="18" y="75" width="3" height="3"/><rect x="36" y="75" width="3" height="3"/><rect x="63" y="75" width="3" height="3"/><rect x="69" y="75" width="3" height="3"/><rect x="96" y="75" width="3" height="3"/><rect x="120" y="75" width="3" height="3"/><rect x="12" y="78" width="3" height="3"/><rect x="30" y="78" width="3" height="3"/><rect x="36" y="78" width="3" height="3"/><rect x="60" y="78" width="3" height="3"/><rect x="72" y="78" width="3" height="3"/><rect x="96" y="78" width="3" height="3"/><rect x="111" y="78" width="3" height="3"/><rect x="12" y="81" width="3" height="3"/><rect x="21" y="81" width="3" height="3"/><rect x="24" y="81" width="3" height="3"/><rect x="27" y="81" width="3" height="3"/><rect x="36" y="81" width="3" height="3"/><rect x="60" y="81" width="3" height="3"/><rect x="72" y="81" width="3" height="3"/><rect x="96" y="81" width="3" height="3"/><rect x="102" y="81" width="3" height="3"/><rect x="105" y="81" width="3" height="3"/><rect x="108" y="81" width="3" height="3"/><rect x="114" y="81" width="3" height="3"/><rect x="15" y="84" width="3" height="3"/><rect x="18" y="84" width="3" height="3"/><rect x="21" y="84" width="3" height="3"/><rect x="30" y="84" width="3" height="3"/><rect x="39" y="84" width="3" height="3"/><rect x="42" y="84" width="3" height="3"/><rect x="45" y="84" width="3" height="3"/><rect x="48" y="84" width="3" height="3"/><rect x="51" y="84" width="3" height="3"/><rect x="54" y="84" width="3" height="3"/><rect x="57" y="84" width="3" height="3"/><rect x="75" y="84" width="3" height="3"/><rect x="78" y="84" width="3" height="3"/><rect x="81" y="84" width="3" height="3"/><rect x="84" y="84" width="3" height="3"/><rect x="87" y="84" width="3" height="3"/><rect x="90" y="84" width="3" height="3"/><rect x="93" y="84" width="3" height="3"/><rect x="105" y="84" width="3" height="3"/><rect x="111" y="84" width="3" height="3"/><rect x="114" y="84" width="3" height="3"/><rect x="120" y="84" width="3" height="3"/><rect x="15" y="87" width="3" height="3"/><rect x="18" y="87" width="3" height="3"/><rect x="24" y="87" width="3" height="3"/><rect x="102" y="87" width="3" height="3"/><rect x="108" y="87" width="3" height="3"/><rect x="117" y="87" width="3" height="3"/><rect x="12" y="90" width="3" height="3"/><rect x="18" y="90" width="3" height="3"/><rect x="21" y="90" width="3" height="3"/><rect x="30" y="90" width="3" height="3"/><rect x="33" y="90" width="3" height="3"/><rect x="42" y="90" width="3" height="3"/><rect x="45" y="90" width="3" height="3"/><rect x="54" y="90" width="3" height="3"/><rect x="66" y="90" width="3" height="3"/><rect x="69" y="90" width="3" height="3"/><rect x="72" y="90" width="3" height="3"/><rect x="75" y="90" width="3" height="3"/><rect x="81" y="90" width="3" height="3"/><rect x="84" y="90" width="3" height="3"/><rect x="99" y="90" width="3" height="3"/><rect x="108" y="90" width="3" height="3"/><rect x="114" y="90" width="3" height="3"/><rect x="21" y="93" width="3" height="3"/><rect x="27" y="93" width="3" height="3"/><rect x="33" y="93" width="3" height="3"/><rect x="45" y="93" width="3" height="3"/><rect x="48" y="93" width="3" height="3"/><rect x="51" y="93" width="3" height="3"/><rect x="54" y="93" width="3" height="3"/><rect x="60" y="93" width="3" height="3"/><rect x="72" y="93" width="3" height="3"/><rect x="78" y="93" width="3" height="3"/><rect x="81" y="93" width="3" height="3"/><rect x="93" y="93" width="3" height="3"/><rect x="96" y="93" width="3" height="3"/><rect x="99" y="93" width="3" height="3"/><rect x="102" y="93" width="3" height="3"/><rect x="108" y="93" width="3" height="3"/><rect x="111" y="93" width="3" height="3"/><rect x="12" y="96" width="3" height="3"/><rect x="15" y="96" width="3" height="3"/><rect x="24" y="96" width="3" height="3"/><rect x="27" y="96" width="3" height="3"/><rect x="30" y="96" width="3" height="3"/><rect x="33" y="96" width="3" height="3"/><rect x="36" y="96" width="3" height="3"/><rect x="39" y="96" width="3" height="3"/><rect x="51" y="96" width="3" height="3"/><rect x="60" y="96" width="3" height="3"/><rect x="63" y="96" width="3" height="3"/><rect x="66" y="96" width="3" height="3"/><rect x="72" y="96" width="3" height="3"/><rect x="78" y="96" width="3" height="3"/><rect x="99" y="96" width="3" height="3"/><rect x="105" y="96" width="3" height="3"/><rect x="114" y="96" width="3" height="3"/><rect x="117" y="96" width="3" height="3"/><rect x="120" y="96" width="3" height="3"/><rect x="45" y="99" width="3" height="3"/><rect x="48" y="99" width="3" height="3"/><rect x="51" y="99" width="3" height="3"/><rect x="54" y="99" width="3" height="3"/><rect x="57" y="99" width="3" height="3"/><rect x="66" y="99" width="3" height="3"/><rect x="69" y="99" width="3" height="3"/><rect x="81" y="99" width="3" height="3"/><rect x="93" y="99" width="3" height="3"/><rect x="96" y="99" width="3" height="3"/><rect x="12" y="102" width="3" height="3"/><rect x="15" y="102" width="3" height="3"/><rect x="18" y="102" width="3" height="3"/><rect x="21" y="102" width="3" height="3"/><rect x="24" y="102" width="3" height="3"/><rect x="27" y="102" width="3" height="3"/><rect x="30" y="102" width="3" height="3"/><rect x="36" y="102" width="3" height="3"/><rect x="42" y="102" width="3" height="3"/><rect x="48" y="102" width="3" height="3"/><rect x="54" y="102" width="3" height="3"/><rect x="60" y="102" width="3" height="3"/><rect x="66" y="102" width="3" height="3"/><rect x="72" y="102" width="3" height="3"/><rect x="78" y="102" width="3" height="3"/><rect x="84" y="102" width="3" height="3"/><rect x="90" y="102" width="3" height="3"/><rect x="96" y="102" width="3" height="3"/><rect x="102" y="102" width="3" height="3"/><rect x="105" y="102" width="3" height="3"/><rect x="108" y="102" width="3" height="3"/><rect x="111" y="102" width="3" height="3"/><rect x="114" y="102" width="3" height="3"/><rect x="117" y="102" width="3" height="3"/><rect x="120" y="102" width="3" height="3"/><rect x="12" y="105" width="3" height="3"/><rect x="30" y="105" width="3" height="3"/><rect x="36" y="105" width="3" height="3"/><rect x="39" y="105" width="3" height="3"/><rect x="45" y="105" width="3" height="3"/><rect x="48" y="105" width="3" height="3"/><rect x="54" y="105" width="3" height="3"/><rect x="57" y="105" width="3" height="3"/><rect x="60" y="105" width="3" height="3"/><rect x="66" y="105" width="3" height="3"/><rect x="69" y="105" width="3" height="3"/><rect x="72" y="105" width="3" height="3"/><rect x="75" y="105" width="3" height="3"/><rect x="81" y="105" width="3" height="3"/><rect x="90" y="105" width="3" height="3"/><rect x="93" y="105" width="3" height="3"/><rect x="102" y="105" width="3" height="3"/><rect x="120" y="105" width="3" height="3"/><rect x="12" y="108" width="3" height="3"/><rect x="18" y="108" width="3" height="3"/><rect x="21" y="108" width="3" height="3"/><rect x="24" y="108" width="3" height="3"/><rect x="30" y="108" width="3" height="3"/><rect x="48" y="108" width="3" height="3"/><rect x="54" y="108" width="3" height="3"/><rect x="57" y="108" width="3" height="3"/><rect x="63" y="108" width="3" height="3"/><rect x="69" y="108" width="3" height="3"/><rect x="72" y="108" width="3" height="3"/><rect x="75" y="108" width="3" height="3"/><rect x="81" y="108" width="3" height="3"/><rect x="84" y="108" width="3" height="3"/><rect x="87" y="108" width="3" height="3"/><rect x="93" y="108" width="3" height="3"/><rect x="96" y="108" width="3" height="3"/><rect x="102" y="108" width="3" height="3"/><rect x="108" y="108" width="3" height="3"/><rect x="111" y="108" width="3" height="3"/><rect x="114" y="108" width="3" height="3"/><rect x="120" y="108" width="3" height="3"/><rect x="12" y="111" width="3" height="3"/><rect x="18" y="111" width="3" height="3"/><rect x="21" y="111" width="3" height="3"/><rect x="24" y="111" width="3" height="3"/><rect x="30" y="111" width="3" height="3"/><rect x="39" y="111" width="3" height="3"/><rect x="42" y="111" width="3" height="3"/><rect x="48" y="111" width="3" height="3"/><rect x="63" y="111" width="3" height="3"/><rect x="66" y="111" width="3" height="3"/><rect x="78" y="111" width="3" height="3"/><rect x="81" y="111" width="3" height="3"/><rect x="87" y="111" width="3" height="3"/><rect x="102" y="111" width="3" height="3"/><rect x="108" y="111" width="3" height="3"/><rect x="111" y="111" width="3" height="3"/><rect x="114" y="111" width="3" height="3"/><rect x="120" y="111" width="3" height="3"/><rect x="12" y="114" width="3" height="3"/><rect x="18" y="114" width="3" height="3"/><rect x="21" y="114" width="3" height="3"/><rect x="24" y="114" width="3" height="3"/><rect x="30" y="114" width="3" height="3"/><rect x="36" y="114" width="3" height="3"/><rect x="39" y="114" width="3" height="3"/><rect x="48" y="114" width="3" height="3"/><rect x="51" y="114" width="3" height="3"/><rect x="54" y="114" width="3" height="3"/><rect x="60" y="114" width="3" height="3"/><rect x="69" y="114" width="3" height="3"/><rect x="72" y="114" width="3" height="3"/><rect x="75" y="114" width="3" height="3"/><rect x="96" y="114" width="3" height="3"/><rect x="102" y="114" width="3" height="3"/><rect x="108" y="114" width="3" height="3"/><rect x="111" y="114" width="3" height="3"/><rect x="114" y="114" width="3" height="3"/><rect x="120" y="114" width="3" height="3"/><rect x="12" y="117" width="3" height="3"/><rect x="30" y="117" width="3" height="3"/><rect x="36" y="117" width="3" height="3"/><rect x="45" y="117" width="3" height="3"/><rect x="48" y="117" width="3" height="3"/><rect x="54" y="117" width="3" height="3"/><rect x="57" y="117" width="3" height="3"/><rect x="60" y="117" width="3" height="3"/><rect x="63" y="117" width="3" height="3"/><rect x="75" y="117" width="3" height="3"/><rect x="87" y="117" width="3" height="3"/><rect x="90" y="117" width="3" height="3"/><rect x="96" y="117" width="3" height="3"/><rect x="102" y="117" width="3" height="3"/><rect x="120" y="117" width="3" height="3"/><rect x="12" y="120" width="3" height="3"/><rect x="15" y="120" width="3" height="3"/><rect x="18" y="120" width="3" height="3"/><rect x="21" y="120" width="3" height="3"/><rect x="24" y="120" width="3" height="3"/><rect x="27" y="120" width="3" height="3"/><rect x="30" y="120" width="3" height="3"/><rect x="36" y="120" width="3" height="3"/><rect x="45" y="120" width="3" height="3"/><rect x="60" y="120" width="3" height="3"/><rect x="63" y="120" width="3" height="3"/><rect x="66" y="120" width="3" height="3"/><rect x="75" y="120" width="3" height="3"/><rect x="78" y="120" width="3" height="3"/><rect x="81" y="120" width="3" height="3"/><rect x="84" y="120" width="3" height="3"/><rect x="90" y="120" width="3" height="3"/><rect x="96" y="120" width="3" height="3"/><rect x="102" y="120" width="3" height="3"/><rect x="105" y="120" width="3" height="3"/><rect x="108" y="120" width="3" height="3"/><rect x="111" y="120" width="3" height="3"/><rect x="114" y="120" width="3" height="3"/><rect x="117" y="120" width="3" height="3"/><rect x="120" y="120" width="3" height="3"/></g></svg>