<?xml version="1.0" encoding="UTF-8" standalone="no"?>
<!-- Created with Inkscape (http://www.inkscape.org/) -->

<svg
   xmlns:dc="http://purl.org/dc/elements/1.1/"
   xmlns:cc="http://creativecommons.org/ns#"
   xmlns:rdf="http://www.w3.org/1999/02/22-rdf-syntax-ns#"
   xmlns:svg="http://www.w3.org/2000/svg"
   xmlns="http://www.w3.org/2000/svg"
   xmlns:sodipodi="http://sodipodi.sourceforge.net/DTD/sodipodi-0.dtd"
   xmlns:inkscape="http://www.inkscape.org/namespaces/inkscape"
   width="210mm"
   height="297mm"
   viewBox="0 0 744.09448819 1052.3622047"
   id="svg7606"
   version="1.1"
   inkscape:version="0.91 r13725"
   sodipodi:docname="INterpolater.svg">
  <sodipodi:namedview
     id="base"
     pagecolor="#ffffff"
     bordercolor="#666666"
     borderopacity="1.0"
     inkscape:pageopacity="0.0"
     inkscape:pageshadow="2"
     inkscape:zoom="0.7"
     inkscape:cx="599.84218"
     inkscape:cy="792.96796"
     inkscape:document-units="px"
     inkscape:current-layer="layer1"
     showgrid="false"
     inkscape:window-width="1366"
     inkscape:window-height="744"
     inkscape:window-x="0"
     inkscape:window-y="24"
     inkscape:window-maximized="1" />
  <defs
     id="defs7608">
    <inkscape:path-effect
       is_visible="true"
       id="path-effect10404"
       effect="spiro" />
    <inkscape:path-effect
       is_visible="true"
       id="path-effect10400"
       effect="spiro" />
    <inkscape:path-effect
       effect="spiro"
       id="path-effect7620"
       is_visible="true" />
    <inkscape:path-effect
       effect="spiro"
       id="path-effect7616"
       is_visible="true" />
  </defs>
  <metadata
     id="metadata7611">
    <rdf:RDF>
      <cc:Work
         rdf:about="">
        <dc:format>image/svg+xml</dc:format>
        <dc:type
           rdf:resource="http://purl.org/dc/dcmitype/StillImage" />
        <dc:title />
      </cc:Work>
    </rdf:RDF>
  </metadata>
  <g
     inkscape:label="Layer 1"
     inkscape:groupmode="layer"
     id="layer1">
    <path
       style="fill:none;fill-rule:evenodd;stroke:#000000;stroke-width:1px;stroke-linecap:butt;stroke-linejoin:miter;stroke-opacity:1"
       d="m 72.730983,624.05753 c -0.570888,26.3991 12.08481,52.75676 33.043357,68.81844 20.95854,16.06169 49.70021,21.42911 75.04297,14.01406 17.50775,-5.1226 32.94398,-15.81632 46.2684,-28.27513 13.32442,-12.45882 24.78468,-26.74079 36.73226,-40.52548 11.94757,-13.78469 24.55932,-27.23299 39.62375,-37.52014 15.06442,-10.28714 32.88397,-17.29634 51.12182,-16.91786 22.0519,0.45763 42.64277,11.57844 59.67432,25.5935 17.03156,14.01506 31.33445,31.01659 47.40185,46.12733 46.46228,43.69588 108.12986,70.90217 171.72594,75.76145"
       id="path7614"
       inkscape:path-effect="#path-effect7616"
       inkscape:original-d="m 72.730983,624.05753 c 56.568547,79.80205 1.010153,118.18784 108.086327,82.8325 107.07617,-35.35533 102.0254,-119.198 173.74623,-123.23861 71.72083,-4.04061 65.65992,-15.15228 107.07617,71.72083 41.41626,86.87312 64.64977,185.86807 171.72594,75.76145"
       inkscape:connector-curvature="0" />
    <path
       style="fill:none;fill-rule:evenodd;stroke:#000000;stroke-width:1px;stroke-linecap:butt;stroke-linejoin:miter;stroke-opacity:1"
       d="m 81.822356,439.19961 c 59.557284,32.3667 130.321334,43.61637 196.979744,31.31473 55.74249,-10.28713 108.19921,-36.33604 164.65487,-41.41626 39.63208,-3.56633 80.17868,3.60472 116.18342,20.54812 36.00474,16.94341 67.37446,43.61534 89.8877,76.42653"
       id="path7618"
       inkscape:path-effect="#path-effect7620"
       inkscape:original-d="m 81.822356,439.19961 c 57.578694,67.68022 84.852814,137.38075 196.979744,31.31473 112.12694,-106.06602 84.85282,-112.12693 164.65487,-41.41626 79.80205,70.71068 155.56349,165.66502 206.07112,96.97465"
       inkscape:connector-curvature="0" />
    <g
       transform="translate(-225.26402,-156.57364)"
       id="g10171">
      <path
         inkscape:connector-curvature="0"
         d="m 72.730983,624.05753 c -0.570888,26.3991 12.08481,52.75676 33.043357,68.81844 20.95854,16.06169 49.70021,21.42911 75.04297,14.01406 17.50775,-5.1226 32.94398,-15.81632 46.2684,-28.27513 13.32442,-12.45882 24.78468,-26.74079 36.73226,-40.52548 11.94757,-13.78469 24.55932,-27.23299 39.62375,-37.52014 15.06442,-10.28714 32.88397,-17.29634 51.12182,-16.91786 22.0519,0.45763 42.64277,11.57844 59.67432,25.5935 17.03156,14.01506 31.33445,31.01659 47.40185,46.12733 46.46228,43.69588 108.12986,70.90217 171.72594,75.76145"
         style="opacity:1;fill:none;fill-rule:evenodd;stroke:#000000;stroke-width:1;stroke-linecap:butt;stroke-linejoin:miter;stroke-opacity:1"
         id="path10173" />
      <path
         inkscape:connector-curvature="0"
         d="m 72.87085,621.21356 c -0.103972,26.24194 12.858259,52.36185 34.00926,68.25828 20.89355,15.85552 49.4539,21.15981 74.66736,13.85623 17.49899,-5.0464 32.95807,-15.60027 46.33388,-27.91472 13.54821,-12.34627 25.24831,-26.54828 37.42961,-40.25063 12.18128,-13.70236 25.0179,-27.06349 40.28484,-37.23146 15.13752,-10.15631 32.99131,-17.04381 51.24998,-16.61785 22.01404,0.5039 42.58256,11.54637 59.62904,25.47615 17.0465,13.92977 31.38848,30.83749 47.44187,45.91403 45.98067,43.2219 106.90676,70.23841 169.69761,75.27533"
         style="opacity:1;fill:none;fill-rule:evenodd;stroke:#000000;stroke-width:1;stroke-linecap:butt;stroke-linejoin:miter;stroke-opacity:1"
         id="path10175" />
      <path
         inkscape:connector-curvature="0"
         d="m 73.010718,618.36959 c 0.362943,26.08477 13.631707,51.96694 34.975162,67.69812 20.82855,15.64934 49.20758,20.89051 74.29175,13.6984 17.49024,-4.97019 32.97216,-15.38421 46.39935,-27.5543 13.77202,-12.23374 25.71196,-26.35577 38.12696,-39.9758 12.415,-13.62003 25.47648,-26.89399 40.94594,-36.94277 15.21063,-10.02548 33.09864,-16.79128 51.37813,-16.31783 21.97619,0.55016 42.52235,11.51429 59.58377,25.35878 17.06144,13.8445 31.4425,30.6584 47.48189,45.70073 45.49905,42.74792 105.68365,69.57466 167.66929,74.78921"
         style="opacity:1;fill:none;fill-rule:evenodd;stroke:#000000;stroke-width:1;stroke-linecap:butt;stroke-linejoin:miter;stroke-opacity:1"
         id="path10177" />
      <path
         inkscape:connector-curvature="0"
         d="m 73.150585,615.52563 c 0.829859,25.9276 14.405156,51.57202 35.941065,67.13795 20.76356,15.44317 48.96127,20.62122 73.91614,13.54057 17.48148,-4.89399 32.98625,-15.16816 46.46483,-27.19389 13.99581,-12.12119 26.17559,-26.16326 38.82431,-39.70095 12.64871,-13.5377 25.93506,-26.72449 41.60703,-36.65409 15.28373,-9.89464 33.20598,-16.53875 51.50629,-16.01782 21.93833,0.59643 42.46214,11.48221 59.5385,25.24143 17.07636,13.75921 31.49652,30.47931 47.52191,45.48743 45.01743,42.27394 104.46054,68.9109 165.64095,74.30309"
         style="opacity:1;fill:none;fill-rule:evenodd;stroke:#000000;stroke-width:1;stroke-linecap:butt;stroke-linejoin:miter;stroke-opacity:1"
         id="path10179" />
      <path
         inkscape:connector-curvature="0"
         d="m 73.290452,612.68166 c 1.296775,25.77044 15.178605,51.17711 36.906958,66.5778 20.69857,15.23698 48.71496,20.35191 73.54054,13.38274 17.47272,-4.8178 33.00034,-14.95212 46.53031,-26.83349 14.21961,-12.00865 26.63922,-25.97074 39.52166,-39.42611 12.88242,-13.45536 26.39364,-26.55498 42.26812,-36.36539 15.35683,-9.76382 33.31331,-16.28623 51.63445,-15.71782 21.90047,0.6427 42.40193,11.45014 59.49322,25.12407 17.0913,13.67393 31.55054,30.30022 47.56193,45.27413 44.53581,41.79997 103.23743,68.24715 163.61262,73.81697"
         style="opacity:1;fill:none;fill-rule:evenodd;stroke:#000000;stroke-width:1;stroke-linecap:butt;stroke-linejoin:miter;stroke-opacity:1"
         id="path10181" />
      <path
         inkscape:connector-curvature="0"
         d="m 73.430319,609.83769 c 1.763692,25.61327 15.952054,50.7822 37.872861,66.01764 20.63358,15.03081 48.46865,20.08261 73.16493,13.22491 17.46397,-4.7416 33.01443,-14.73607 46.59578,-26.47308 14.44341,-11.8961 27.10287,-25.77823 40.21901,-39.15126 13.11614,-13.37304 26.85222,-26.38549 42.92922,-36.07671 15.42993,-9.63299 33.42065,-16.0337 51.7626,-15.4178 21.86262,0.68896 42.34172,11.41806 59.44795,25.00671 17.10624,13.58864 31.60457,30.12112 47.60195,45.06083 44.0542,41.32599 102.01433,67.58339 161.58429,73.33085"
         style="opacity:1;fill:none;fill-rule:evenodd;stroke:#000000;stroke-width:1;stroke-linecap:butt;stroke-linejoin:miter;stroke-opacity:1"
         id="path10183" />
      <path
         inkscape:connector-curvature="0"
         d="m 73.570187,606.99372 c 2.230607,25.45611 16.725502,50.38729 38.838763,65.45748 20.56858,14.82463 48.22234,19.81331 72.78932,13.06708 17.45521,-4.66539 33.02852,-14.52001 46.66126,-26.11266 14.6672,-11.78357 27.5665,-25.58573 40.91636,-38.87643 13.34985,-13.2907 27.3108,-26.21598 43.59031,-35.78802 15.50304,-9.50216 33.52798,-15.78117 51.89076,-15.11779 21.82476,0.73522 42.28151,11.38599 59.40267,24.88935 17.12118,13.50337 31.65859,29.94203 47.64197,44.84753 43.57258,40.85201 100.79122,66.91964 159.55597,72.84474"
         style="opacity:1;fill:none;fill-rule:evenodd;stroke:#000000;stroke-width:1;stroke-linecap:butt;stroke-linejoin:miter;stroke-opacity:1"
         id="path10185" />
      <path
         inkscape:connector-curvature="0"
         d="m 73.710054,604.14975 c 2.697523,25.29895 17.498951,49.99238 39.804666,64.89732 20.50359,14.61846 47.97602,19.54401 72.41371,12.90925 17.44646,-4.58919 33.04261,-14.30396 46.72674,-25.75225 14.891,-11.67102 28.03013,-25.39321 41.61371,-38.60158 13.58356,-13.20837 27.76938,-26.04649 44.25141,-35.49934 15.57613,-9.37133 33.63531,-15.52864 52.01891,-14.81778 21.7869,0.78149 42.22129,11.35391 59.35739,24.772 17.13611,13.41808 31.71262,29.76293 47.682,44.63423 43.09096,40.37803 99.56811,66.25588 157.52763,72.35861"
         style="opacity:1;fill:none;fill-rule:evenodd;stroke:#000000;stroke-width:1;stroke-linecap:butt;stroke-linejoin:miter;stroke-opacity:1"
         id="path10187" />
      <path
         inkscape:connector-curvature="0"
         d="m 73.849921,601.30579 c 3.164439,25.14177 18.2724,49.59746 40.770569,64.33715 20.43859,14.41229 47.72971,19.27472 72.0381,12.75142 17.4377,-4.51299 33.05669,-14.08791 46.79221,-25.39184 15.1148,-11.55848 28.49378,-25.2007 42.31106,-38.32674 13.81728,-13.12604 28.22797,-25.87698 44.91251,-35.21065 15.64923,-9.24049 33.74264,-15.27611 52.14706,-14.51776 21.74906,0.82775 42.16109,11.32183 59.31213,24.65463 17.15104,13.3328 31.76663,29.58385 47.72201,44.42093 42.60934,39.90406 98.345,65.59213 155.4993,71.8725"
         style="opacity:1;fill:none;fill-rule:evenodd;stroke:#000000;stroke-width:1;stroke-linecap:butt;stroke-linejoin:miter;stroke-opacity:1"
         id="path10189" />
      <path
         inkscape:connector-curvature="0"
         d="m 73.989788,598.46182 c 3.631355,24.98461 19.045849,49.20254 41.736472,63.77699 20.3736,14.20611 47.48339,19.00542 71.66249,12.59359 17.42894,-4.43679 33.07078,-13.87185 46.85769,-25.03142 15.3386,-11.44594 28.95741,-25.00819 43.00841,-38.0519 14.05099,-13.04371 28.68654,-25.70748 45.5736,-34.92197 15.72233,-9.10966 33.84998,-15.02358 52.27522,-14.21775 21.7112,0.87402 42.10088,11.28976 59.26685,24.53728 17.16598,13.24751 31.82066,29.40475 47.76203,44.20763 42.12773,39.43008 97.1219,64.92837 153.47098,71.38637"
         style="opacity:1;fill:none;fill-rule:evenodd;stroke:#000000;stroke-width:1;stroke-linecap:butt;stroke-linejoin:miter;stroke-opacity:1"
         id="path10191" />
      <path
         inkscape:connector-curvature="0"
         d="m 74.129656,595.61785 c 4.09827,24.82745 19.819297,48.80763 42.702374,63.21683 20.30861,13.99994 47.23708,18.73612 71.28688,12.43577 17.42019,-4.36059 33.08487,-13.65581 46.92317,-24.67102 15.56239,-11.3334 29.42104,-24.81568 43.70576,-37.77706 14.2847,-12.96137 29.14512,-25.53798 46.23469,-34.63327 15.79544,-8.97884 33.95731,-14.77106 52.40338,-13.91775 21.67334,0.92029 42.04066,11.25769 59.22157,24.41992 17.18092,13.16224 31.87469,29.22566 47.80205,43.99433 41.64611,38.9561 95.89879,64.26462 151.44265,70.90026"
         style="opacity:1;fill:none;fill-rule:evenodd;stroke:#000000;stroke-width:1;stroke-linecap:butt;stroke-linejoin:miter;stroke-opacity:1"
         id="path10193" />
      <path
         inkscape:connector-curvature="0"
         d="m 74.269523,592.77388 c 4.565186,24.67028 20.592746,48.41272 43.668277,62.65667 20.24361,13.79376 46.99077,18.46682 70.91128,12.27794 17.41142,-4.28439 33.09895,-13.43976 46.98863,-24.31061 15.78619,-11.22085 29.88469,-24.62317 44.40311,-37.50221 14.51842,-12.87905 29.60371,-25.36848 46.89579,-34.34459 15.86854,-8.84801 34.06465,-14.51853 52.53153,-13.61773 21.63549,0.96655 41.98046,11.2256 59.1763,24.30256 17.19585,13.07695 31.92871,29.04656 47.84207,43.78103 41.1645,38.48212 94.67569,63.60086 149.41432,70.41413"
         style="opacity:1;fill:none;fill-rule:evenodd;stroke:#000000;stroke-width:1;stroke-linecap:butt;stroke-linejoin:miter;stroke-opacity:1"
         id="path10195" />
      <path
         inkscape:connector-curvature="0"
         d="m 74.40939,589.92991 c 5.032102,24.51312 21.366195,48.01781 44.63417,62.09652 20.17863,13.58758 46.74446,18.19752 70.53568,12.1201 17.40266,-4.20819 33.11304,-13.2237 47.05411,-23.95019 16.00999,-11.10832 30.34832,-24.43066 45.10046,-37.22738 14.75213,-12.79671 30.06228,-25.19897 47.55688,-34.0559 15.94164,-8.71718 34.17198,-14.266 52.65969,-13.31772 21.59763,1.01282 41.92025,11.19353 59.13102,24.1852 17.21079,12.99167 31.98274,28.86747 47.8821,43.56773 40.68287,38.00815 93.45257,62.93711 147.38599,69.92802"
         style="opacity:1;fill:none;fill-rule:evenodd;stroke:#000000;stroke-width:1;stroke-linecap:butt;stroke-linejoin:miter;stroke-opacity:1"
         id="path10197" />
      <path
         inkscape:connector-curvature="0"
         d="m 74.549258,587.08595 c 5.499018,24.35595 22.139643,47.62289 45.600072,61.53635 20.11363,13.3814 46.49815,17.92822 70.16007,11.96227 17.39391,-4.13199 33.12713,-13.00765 47.11959,-23.58978 16.23378,-10.99577 30.81195,-24.23815 45.79781,-36.95253 14.98584,-12.71438 30.52086,-25.02948 48.21797,-33.76722 16.01474,-8.58634 34.27932,-14.01347 52.78785,-13.01771 21.55977,1.05909 41.86003,11.16146 59.08575,24.06785 17.22572,12.90639 32.03675,28.68838 47.92211,43.35443 40.20126,37.53417 92.22947,62.27335 145.35766,69.4419"
         style="opacity:1;fill:none;fill-rule:evenodd;stroke:#000000;stroke-width:1;stroke-linecap:butt;stroke-linejoin:miter;stroke-opacity:1"
         id="path10199" />
      <path
         inkscape:connector-curvature="0"
         d="m 74.689125,584.24198 c 5.965934,24.19878 22.913092,47.22798 46.565975,60.97619 20.04864,13.17523 46.25183,17.65892 69.78446,11.80444 17.38515,-4.05578 33.14122,-12.7916 47.18506,-23.22937 16.45759,-10.88323 31.27559,-24.04564 46.49516,-36.67768 15.21956,-12.63205 30.97945,-24.85998 48.87907,-33.47854 16.08785,-8.45551 34.38665,-13.76094 52.91601,-12.71769 21.52191,1.10535 41.79982,11.12938 59.04047,23.95048 17.24066,12.82111 32.09078,28.50929 47.96213,43.14113 39.71964,37.06019 91.00637,61.6096 143.32933,68.95578"
         style="opacity:1;fill:none;fill-rule:evenodd;stroke:#000000;stroke-width:1;stroke-linecap:butt;stroke-linejoin:miter;stroke-opacity:1"
         id="path10201" />
      <path
         inkscape:connector-curvature="0"
         d="m 74.828992,581.39801 c 6.43285,24.04162 23.686541,46.83307 47.531878,60.41603 19.98364,12.96905 46.00552,17.38962 69.40885,11.64661 17.37639,-3.97958 33.15531,-12.57555 47.25054,-22.86896 16.68138,-10.77068 31.73923,-23.85312 47.19251,-36.40284 15.45327,-12.54972 31.43802,-24.69048 49.54016,-33.18985 16.16095,-8.32468 34.49399,-13.50841 53.04416,-12.41768 21.48406,1.15162 41.73961,11.0973 58.9952,23.83313 17.25559,12.73582 32.1448,28.33019 48.00215,42.92783 39.23803,36.58621 89.78326,60.94584 141.301,68.46966"
         style="opacity:1;fill:none;fill-rule:evenodd;stroke:#000000;stroke-width:1;stroke-linecap:butt;stroke-linejoin:miter;stroke-opacity:1"
         id="path10203" />
      <path
         inkscape:connector-curvature="0"
         d="m 74.968859,578.55404 c 6.899766,23.88446 24.45999,46.43816 48.497781,59.85587 19.91865,12.76288 45.75921,17.12032 69.03324,11.48879 17.36764,-3.90339 33.1694,-12.3595 47.31602,-22.50855 16.90518,-10.65815 32.20286,-23.66062 47.88985,-36.128 15.68699,-12.46739 31.89661,-24.52098 50.20126,-32.90117 16.23405,-8.19385 34.60132,-13.25588 53.17232,-12.11767 21.4462,1.19788 41.6794,11.06523 58.94992,23.71577 17.27053,12.65054 32.19883,28.1511 48.04218,42.71454 38.7564,36.11223 88.56015,60.28208 139.27267,67.98353"
         style="opacity:1;fill:none;fill-rule:evenodd;stroke:#000000;stroke-width:1;stroke-linecap:butt;stroke-linejoin:miter;stroke-opacity:1"
         id="path10205" />
      <path
         inkscape:connector-curvature="0"
         d="m 75.108727,575.71007 c 7.366681,23.72729 25.233433,46.04325 49.463683,59.29571 19.85365,12.55671 45.51289,16.85103 68.65763,11.33096 17.35888,-3.82718 33.18349,-12.14345 47.3815,-22.14814 17.12897,-10.5456 32.66649,-23.4681 48.5872,-35.85316 15.9207,-12.38505 32.35519,-24.35147 50.86235,-32.61247 16.30715,-8.06303 34.70866,-13.00336 53.30048,-11.81766 21.40834,1.24414 41.61919,11.03315 58.90464,23.59841 17.28547,12.56526 32.25286,27.972 48.0822,42.50123 38.27479,35.63825 87.33704,59.61833 137.24434,67.49742"
         style="opacity:1;fill:none;fill-rule:evenodd;stroke:#000000;stroke-width:1;stroke-linecap:butt;stroke-linejoin:miter;stroke-opacity:1"
         id="path10207" />
      <path
         inkscape:connector-curvature="0"
         d="m 75.248594,572.86611 c 7.833597,23.57012 26.006886,45.64833 50.429586,58.73554 19.78866,12.35053 45.26658,16.58173 68.28202,11.17313 17.35012,-3.75098 33.19758,-11.9274 47.44697,-21.78773 17.35277,-10.43305 33.13014,-23.27559 49.28456,-35.57831 16.15441,-12.30273 32.81376,-24.18198 51.52344,-32.32379 16.38026,-7.9322 34.81599,-12.75083 53.42863,-11.51765 21.37049,1.29041 41.55898,11.00108 58.85938,23.48105 17.3004,12.47998 32.30687,27.79292 48.12221,42.28794 37.79317,35.16427 86.11394,58.95457 135.21601,67.0113"
         style="opacity:1;fill:none;fill-rule:evenodd;stroke:#000000;stroke-width:1;stroke-linecap:butt;stroke-linejoin:miter;stroke-opacity:1"
         id="path10209" />
      <path
         inkscape:connector-curvature="0"
         d="m 75.388461,570.02214 c 8.300513,23.41296 26.780339,45.25342 51.395489,58.17538 19.72367,12.14436 45.02026,16.31243 67.90641,11.0153 17.34137,-3.67478 33.21167,-11.71134 47.51245,-21.42731 17.57657,-10.32052 33.59377,-23.08309 49.9819,-35.30348 16.38813,-12.22039 33.27235,-24.01247 52.18454,-32.0351 16.45336,-7.80136 34.92333,-12.4983 53.55679,-11.21764 21.33263,1.33668 41.49877,10.969 58.8141,23.3637 17.31533,12.39469 32.3609,27.61382 48.16223,42.07463 37.31156,34.6903 84.89083,58.29082 133.18769,66.52518"
         style="opacity:1;fill:none;fill-rule:evenodd;stroke:#000000;stroke-width:1;stroke-linecap:butt;stroke-linejoin:miter;stroke-opacity:1"
         id="path10211" />
      <path
         inkscape:connector-curvature="0"
         d="m 75.528329,567.17817 c 8.767428,23.25579 27.553781,44.85851 52.361381,57.61523 19.65868,11.93817 44.77396,16.04312 67.53081,10.85746 17.33261,-3.59858 33.22576,-11.49529 47.57793,-21.0669 17.80036,-10.20797 34.0574,-22.89057 50.67925,-35.02863 16.62184,-12.13806 33.73093,-23.84297 52.84564,-31.74642 16.52645,-7.67053 35.03065,-12.24577 53.68494,-10.91762 21.29477,1.38294 41.43856,10.93692 58.76882,23.24633 17.33027,12.30941 32.41492,27.43473 48.20225,41.86134 36.82994,34.21632 83.66773,57.62706 131.15936,66.03906"
         style="opacity:1;fill:none;fill-rule:evenodd;stroke:#000000;stroke-width:1;stroke-linecap:butt;stroke-linejoin:miter;stroke-opacity:1"
         id="path10213" />
      <path
         inkscape:connector-curvature="0"
         d="m 75.668196,564.3342 c 9.234345,23.09863 28.327234,44.4636 53.327284,57.05507 19.59369,11.732 44.52765,15.77382 67.1552,10.69963 17.32386,-3.52237 33.23985,-11.27924 47.6434,-20.70649 18.02417,-10.09543 34.52105,-22.69806 51.37661,-34.75379 16.85555,-12.05573 34.18951,-23.67347 53.50673,-31.45773 16.59955,-7.5397 35.13799,-11.99324 53.81309,-10.61761 21.25692,1.42921 41.37835,10.90485 58.72355,23.12898 17.34521,12.22413 32.46895,27.25563 48.24228,41.64803 36.34832,33.74234 82.44461,56.96331 129.13102,65.55294"
         style="opacity:1;fill:none;fill-rule:evenodd;stroke:#000000;stroke-width:1;stroke-linecap:butt;stroke-linejoin:miter;stroke-opacity:1"
         id="path10215" />
      <path
         inkscape:connector-curvature="0"
         d="m 75.808063,561.49023 c 9.701261,22.94147 29.100677,44.06869 54.293187,56.49491 19.52869,11.52582 44.28133,15.50453 66.77959,10.54181 17.3151,-3.44618 33.25394,-11.0632 47.70888,-20.34609 18.24796,-9.98288 34.98468,-22.50554 52.07395,-34.47894 17.08927,-11.9734 34.64809,-23.50397 54.16783,-31.16905 16.67266,-7.40887 35.24533,-11.74071 53.94125,-10.3176 21.21907,1.47548 41.31814,10.87278 58.67827,23.01162 17.36015,12.13885 32.52297,27.07654 48.2823,41.43474 35.86671,33.26836 81.22151,56.29956 127.10269,65.06682"
         style="opacity:1;fill:none;fill-rule:evenodd;stroke:#000000;stroke-width:1;stroke-linecap:butt;stroke-linejoin:miter;stroke-opacity:1"
         id="path10217" />
      <path
         inkscape:connector-curvature="0"
         d="m 75.94793,558.64627 c 10.168177,22.78429 29.87413,43.67377 55.25909,55.93474 19.4637,11.31965 44.03502,15.23523 66.40398,10.38398 17.30634,-3.36998 33.26802,-10.84714 47.77436,-19.98567 18.47175,-9.87035 35.44831,-22.31304 52.7713,-34.20411 17.32298,-11.89106 35.10667,-23.33446 54.82892,-30.88035 16.74576,-7.27805 35.35266,-11.48819 54.06941,-10.01759 21.18121,1.52174 41.25793,10.84069 58.633,22.89426 17.37507,12.05356 32.57699,26.89745 48.32231,41.22143 35.38509,32.79439 79.9984,55.63581 125.07437,64.5807"
         style="opacity:1;fill:none;fill-rule:evenodd;stroke:#000000;stroke-width:1;stroke-linecap:butt;stroke-linejoin:miter;stroke-opacity:1"
         id="path10219" />
      <path
         inkscape:connector-curvature="0"
         d="m 76.087798,555.8023 c 10.635092,22.62713 30.647582,43.27886 56.224992,55.37458 19.3987,11.11348 43.7887,14.96593 66.02837,10.22615 17.29759,-3.29378 33.28211,-10.63109 47.83983,-19.62526 18.69556,-9.7578 35.91196,-22.12053 53.46866,-33.92926 17.55669,-11.80874 35.56525,-23.16497 55.49001,-30.59167 16.81886,-7.14721 35.46,-11.23566 54.19756,-9.71758 21.14336,1.56801 41.19772,10.80862 58.58773,22.7769 17.39001,11.96828 32.63101,26.71836 48.36233,41.00814 34.90348,32.32041 78.7753,54.97205 123.04604,64.09458"
         style="opacity:1;fill:none;fill-rule:evenodd;stroke:#000000;stroke-width:1;stroke-linecap:butt;stroke-linejoin:miter;stroke-opacity:1"
         id="path10221" />
      <path
         inkscape:connector-curvature="0"
         d="m 76.227665,552.95833 c 11.102008,22.46997 31.421025,42.88395 57.190895,54.81442 19.33371,10.9073 43.54239,14.69663 65.65276,10.06832 17.28883,-3.21757 33.2962,-10.41504 47.90531,-19.26485 18.91935,-9.64526 36.37559,-21.92801 54.166,-33.65442 17.79041,-11.7264 36.02383,-22.99546 56.15111,-30.30298 16.89197,-7.01638 35.56733,-10.98313 54.32572,-9.41756 21.1055,1.61427 41.13751,10.77654 58.54245,22.65954 17.40495,11.883 32.68504,26.53926 48.40235,40.79483 34.42186,31.84643 77.55219,54.3083 121.01771,63.60847"
         style="opacity:1;fill:none;fill-rule:evenodd;stroke:#000000;stroke-width:1;stroke-linecap:butt;stroke-linejoin:miter;stroke-opacity:1"
         id="path10223" />
      <path
         inkscape:connector-curvature="0"
         d="m 76.367532,550.11436 c 11.568924,22.3128 32.194478,42.48903 58.156798,54.25426 19.26872,10.70113 43.29608,14.42733 65.27715,9.91049 17.28007,-3.14137 33.31029,-10.19898 47.97079,-18.90443 19.14315,-9.53272 36.83922,-21.73551 54.86335,-33.37958 18.02412,-11.64407 36.48241,-22.82597 56.8122,-30.0143 16.96507,-6.88555 35.67467,-10.7306 54.45388,-9.11755 21.06764,1.66053 41.07729,10.74447 58.49717,22.54218 17.41989,11.79772 32.73907,26.36017 48.44238,40.58154 33.94024,31.37245 76.32908,53.64454 118.98938,63.12234"
         style="opacity:1;fill:none;fill-rule:evenodd;stroke:#000000;stroke-width:1;stroke-linecap:butt;stroke-linejoin:miter;stroke-opacity:1"
         id="path10225" />
      <path
         inkscape:connector-curvature="0"
         d="m 76.507399,547.27039 c 12.03584,22.15564 32.967921,42.09412 59.122701,53.6941 19.20372,10.49495 43.04976,14.15804 64.90154,9.75266 17.27132,-3.06517 33.32438,-9.98293 48.03626,-18.54402 19.36695,-9.42018 37.30287,-21.54299 55.56071,-33.10474 18.25783,-11.56174 36.94099,-22.65646 57.47329,-29.72561 17.03817,-6.75472 35.782,-10.47807 54.58203,-8.81754 21.02979,1.7068 41.01709,10.71239 58.4519,22.42483 17.43482,11.71243 32.79309,26.18107 48.4824,40.36823 33.45862,30.89848 75.10598,52.98079 116.96105,62.63623"
         style="opacity:1;fill:none;fill-rule:evenodd;stroke:#000000;stroke-width:1;stroke-linecap:butt;stroke-linejoin:miter;stroke-opacity:1"
         id="path10227" />
      <path
         inkscape:connector-curvature="0"
         d="m 76.647267,544.42643 c 12.502755,21.99847 33.741373,41.6992 60.088593,53.13394 19.13874,10.28877 42.80346,13.88873 64.52594,9.59483 17.26256,-2.98898 33.33847,-9.76689 48.10174,-18.18362 19.59074,-9.30763 37.7665,-21.35048 56.25805,-32.82989 18.49155,-11.47941 37.39957,-22.48696 58.13439,-29.43693 17.11127,-6.62389 35.88934,-10.22554 54.71019,-8.51752 20.99193,1.75306 40.95688,10.68031 58.40663,22.30746 17.44975,11.62716 32.84711,26.00199 48.52241,40.15494 32.97701,30.42449 73.88287,52.31703 114.93272,62.1501"
         style="opacity:1;fill:none;fill-rule:evenodd;stroke:#000000;stroke-width:1;stroke-linecap:butt;stroke-linejoin:miter;stroke-opacity:1"
         id="path10229" />
      <path
         inkscape:connector-curvature="0"
         d="m 76.787134,541.58246 c 12.969672,21.8413 34.514826,41.30429 61.054496,52.57378 19.07374,10.08259 42.55714,13.61943 64.15033,9.437 17.2538,-2.91277 33.35256,-9.55084 48.16722,-17.82321 19.81454,-9.19509 38.23013,-21.15797 56.9554,-32.55504 18.72526,-11.39708 37.85815,-22.31747 58.79548,-29.14825 17.18438,-6.49305 35.99667,-9.97301 54.83835,-8.21751 20.95407,1.79933 40.89666,10.64824 58.36135,22.19011 17.46469,11.54187 32.90113,25.82289 48.56243,39.94164 32.49539,29.95051 72.65977,51.65327 112.90439,61.66398"
         style="opacity:1;fill:none;fill-rule:evenodd;stroke:#000000;stroke-width:1;stroke-linecap:butt;stroke-linejoin:miter;stroke-opacity:1"
         id="path10231" />
      <path
         inkscape:connector-curvature="0"
         d="m 76.927001,538.73849 c 13.436588,21.68414 35.288269,40.90938 62.020399,52.01362 19.00875,9.87642 42.31083,13.35013 63.77472,9.27917 17.24505,-2.83657 33.36665,-9.33478 48.23269,-17.46279 20.03834,-9.08255 38.69378,-20.96546 57.65276,-32.28021 18.95897,-11.31475 38.31673,-22.14796 59.45657,-28.85955 17.25748,-6.36223 36.10401,-9.72049 54.9665,-7.91751 20.91622,1.8456 40.83646,10.61617 58.31608,22.07275 17.47963,11.45659 32.95516,25.6438 48.60246,39.72834 32.01377,29.47654 71.43665,50.98952 110.87606,61.17787"
         style="opacity:1;fill:none;fill-rule:evenodd;stroke:#000000;stroke-width:1;stroke-linecap:butt;stroke-linejoin:miter;stroke-opacity:1"
         id="path10233" />
      <path
         inkscape:connector-curvature="0"
         d="m 77.066869,535.89452 c 13.903503,21.52698 36.061721,40.51447 62.986301,51.45346 18.94375,9.67025 42.06452,13.08084 63.39911,9.12134 17.23629,-2.76037 33.38074,-9.11873 48.29817,-17.10238 20.26214,-8.97001 39.15741,-20.77295 58.3501,-32.00536 19.19269,-11.23242 38.77531,-21.97846 60.11767,-28.57087 17.33058,-6.2314 36.21134,-9.46796 55.09466,-7.61749 20.87836,1.89186 40.77625,10.58408 58.2708,21.95539 17.49456,11.3713 33.00918,25.4647 48.64248,39.51504 31.53215,29.00256 70.21355,50.32576 108.84773,60.69174"
         style="opacity:1;fill:none;fill-rule:evenodd;stroke:#000000;stroke-width:1;stroke-linecap:butt;stroke-linejoin:miter;stroke-opacity:1"
         id="path10235" />
      <path
         inkscape:connector-curvature="0"
         d="m 77.206736,533.05055 c 14.370419,21.36981 36.835164,40.11956 63.952204,50.8933 18.87876,9.46407 41.8182,12.81154 63.02351,8.96351 17.22752,-2.68416 33.39482,-8.90268 48.36364,-16.74197 20.48593,-8.85746 39.62104,-20.58043 59.04745,-31.73052 19.4264,-11.15008 39.23389,-21.80896 60.77876,-28.28218 17.40368,-6.10057 36.31868,-9.21543 55.22282,-7.31748 20.8405,1.93813 40.71603,10.55201 58.22552,21.83803 17.5095,11.28603 33.06321,25.28561 48.6825,39.30174 31.05054,28.52858 68.99044,49.66201 106.8194,60.20563"
         style="opacity:1;fill:none;fill-rule:evenodd;stroke:#000000;stroke-width:1;stroke-linecap:butt;stroke-linejoin:miter;stroke-opacity:1"
         id="path10237" />
      <path
         inkscape:connector-curvature="0"
         d="m 77.346603,530.20659 c 14.837335,21.21264 37.608617,39.72464 64.918107,50.33313 18.81376,9.2579 41.57189,12.54224 62.6479,8.80568 17.21877,-2.60796 33.40891,-8.68662 48.42911,-16.38155 20.70973,-8.74492 40.08469,-20.38793 59.74481,-31.45568 19.66011,-11.06776 39.69247,-21.63946 61.43986,-27.9935 17.47678,-5.96974 36.426,-8.9629 55.35096,-7.01747 20.80265,1.9844 40.65583,10.51994 58.18026,21.72068 17.52443,11.20074 33.11723,25.10652 48.72251,39.08844 30.56892,28.0546 67.76734,48.99825 104.79108,59.7195"
         style="opacity:1;fill:none;fill-rule:evenodd;stroke:#000000;stroke-width:1;stroke-linecap:butt;stroke-linejoin:miter;stroke-opacity:1"
         id="path10239" />
      <path
         inkscape:connector-curvature="0"
         d="m 77.48647,527.36262 c 15.304251,21.05547 38.38207,39.32973 65.88401,49.77297 18.74877,9.05172 41.32557,12.27294 62.27229,8.64785 17.21001,-2.53176 33.423,-8.47057 48.49459,-16.02114 20.93353,-8.63238 40.54832,-20.19542 60.44215,-31.18084 19.89383,-10.98542 40.15106,-21.46996 62.10096,-27.70481 17.54988,-5.8389 36.53334,-8.71037 55.47912,-6.71745 20.76479,2.03066 40.59561,10.48786 58.13498,21.60331 17.53937,11.11546 33.17125,24.92743 48.76253,38.87514 30.08731,27.58063 66.54423,48.3345 102.76275,59.23339"
         style="opacity:1;fill:none;fill-rule:evenodd;stroke:#000000;stroke-width:1;stroke-linecap:butt;stroke-linejoin:miter;stroke-opacity:1"
         id="path10241" />
      <path
         inkscape:connector-curvature="0"
         d="m 77.626338,524.51865 c 15.771166,20.89831 39.155512,38.93482 66.849902,49.21281 18.68379,8.84555 41.07927,12.00364 61.89669,8.49003 17.20126,-2.45557 33.43709,-8.25453 48.56007,-15.66074 21.15732,-8.51983 41.01195,-20.0029 61.1395,-30.90599 20.12754,-10.90309 40.60963,-21.30046 62.76205,-27.41613 17.62298,-5.70807 36.64067,-8.45784 55.60728,-6.41744 20.72693,2.07693 40.5354,10.45578 58.0897,21.48596 17.5543,11.03017 33.22528,24.74833 48.80256,38.66184 29.60568,27.10665 65.32112,47.67074 100.73441,58.74726"
         style="opacity:1;fill:none;fill-rule:evenodd;stroke:#000000;stroke-width:1;stroke-linecap:butt;stroke-linejoin:miter;stroke-opacity:1"
         id="path10243" />
      <path
         inkscape:connector-curvature="0"
         d="m 77.766205,521.67468 c 16.238082,20.74115 39.928965,38.53991 67.815805,48.65266 18.61879,8.63936 40.83296,11.73434 61.52108,8.33219 17.1925,-2.37936 33.45118,-8.03847 48.62554,-15.30032 21.38113,-8.4073 41.47559,-19.8104 61.83686,-30.63116 20.36125,-10.82075 41.06821,-21.13095 63.42314,-27.12743 17.69608,-5.57725 36.74801,-8.20532 55.73544,-6.11744 20.68907,2.1232 40.47519,10.42371 58.04442,21.3686 17.56924,10.9449 33.2793,24.56924 48.84258,38.44854 29.12407,26.63267 64.09801,47.00699 98.70609,58.26115"
         style="opacity:1;fill:none;fill-rule:evenodd;stroke:#000000;stroke-width:1;stroke-linecap:butt;stroke-linejoin:miter;stroke-opacity:1"
         id="path10245" />
      <path
         inkscape:connector-curvature="0"
         d="m 77.906072,518.83071 c 16.704999,20.58398 40.702408,38.145 68.781708,48.0925 18.5538,8.43319 40.58664,11.46504 61.14547,8.17436 17.18374,-2.30316 33.46527,-7.82242 48.69102,-14.93991 21.60492,-8.29475 41.93923,-19.61788 62.5342,-30.35631 20.59497,-10.73843 41.5268,-20.96146 64.08424,-26.83875 17.76919,-5.44642 36.85534,-7.95279 55.86359,-5.81742 20.65123,2.16945 40.41498,10.39163 57.99915,21.25124 17.58418,10.85961 33.33333,24.39014 48.8826,38.23524 28.64245,26.15869 62.87491,46.34323 96.67776,57.77503"
         style="opacity:1;fill:none;fill-rule:evenodd;stroke:#000000;stroke-width:1;stroke-linecap:butt;stroke-linejoin:miter;stroke-opacity:1"
         id="path10247" />
      <path
         inkscape:connector-curvature="0"
         d="m 78.04594,515.98675 c 17.171914,20.42681 41.47586,37.75008 69.74761,47.53233 18.4888,8.22701 40.34033,11.19574 60.76986,8.01653 17.17499,-2.22696 33.47936,-7.60637 48.7565,-14.5795 21.82871,-8.18221 42.40286,-19.42537 63.23155,-30.08147 20.82868,-10.65609 41.98537,-20.79195 64.74533,-26.55006 17.84229,-5.31559 36.96268,-7.70026 55.99175,-5.51741 20.61337,2.21572 40.35477,10.35956 57.95388,21.13388 17.59911,10.77433 33.38734,24.21106 48.92261,38.02194 28.16084,25.68472 61.6518,45.67948 94.64943,57.28891"
         style="opacity:1;fill:none;fill-rule:evenodd;stroke:#000000;stroke-width:1;stroke-linecap:butt;stroke-linejoin:miter;stroke-opacity:1"
         id="path10249" />
      <path
         inkscape:connector-curvature="0"
         d="m 78.185807,513.14278 c 17.63883,20.26965 42.249313,37.35517 70.713513,46.97217 18.42381,8.02084 40.09401,10.92644 60.39425,7.8587 17.16623,-2.15076 33.49344,-7.39032 48.82197,-14.21909 22.05252,-8.06966 42.8665,-19.23286 63.92891,-29.80662 21.06239,-10.57376 42.44395,-20.62245 65.40642,-26.26138 17.91539,-5.18476 37.07001,-7.44773 56.11991,-5.2174 20.57551,2.26199 40.29456,10.32748 57.9086,21.01653 17.61404,10.68905 33.44137,24.03196 48.96264,37.80864 27.67921,25.21073 60.42869,45.01572 92.62109,56.80279"
         style="opacity:1;fill:none;fill-rule:evenodd;stroke:#000000;stroke-width:1;stroke-linecap:butt;stroke-linejoin:miter;stroke-opacity:1"
         id="path10251" />
      <path
         inkscape:connector-curvature="0"
         d="m 78.325674,510.29881 c 18.105746,20.11248 43.022756,36.96026 71.679416,46.41201 18.35881,7.81467 39.8477,10.65714 60.01864,7.70087 17.15747,-2.07455 33.50753,-7.17426 48.88745,-13.85867 22.27631,-7.95713 43.33014,-19.04035 64.62625,-29.53179 21.29611,-10.49143 42.90254,-20.45295 66.06752,-25.97269 17.98849,-5.05392 37.17735,-7.1952 56.24806,-4.91738 20.53766,2.30825 40.23435,10.2954 57.86333,20.89916 17.62898,10.60377 33.49539,23.85287 49.00266,37.59534 27.1976,24.73676 59.20559,44.35197 90.59277,56.31667"
         style="opacity:1;fill:none;fill-rule:evenodd;stroke:#000000;stroke-width:1;stroke-linecap:butt;stroke-linejoin:miter;stroke-opacity:1"
         id="path10253" />
      <path
         inkscape:connector-curvature="0"
         d="m 78.465541,507.45484 c 18.572662,19.95532 43.796209,36.56535 72.645319,45.85185 18.29382,7.60849 39.60139,10.38785 59.64303,7.54305 17.14872,-1.99836 33.52162,-6.95822 48.95293,-13.49827 22.50011,-7.84458 43.79377,-18.84784 65.3236,-29.25694 21.52982,-10.4091 43.36111,-20.28345 66.72861,-25.68401 18.0616,-4.92309 37.28468,-6.94267 56.37622,-4.61737 20.4998,2.35452 40.17414,10.26333 57.81805,20.78181 17.64392,10.51848 33.54942,23.67377 49.04268,37.38204 26.71598,24.26278 57.98248,43.68821 88.56444,55.83055"
         style="opacity:1;fill:none;fill-rule:evenodd;stroke:#000000;stroke-width:1;stroke-linecap:butt;stroke-linejoin:miter;stroke-opacity:1"
         id="path10255" />
      <path
         inkscape:connector-curvature="0"
         d="m 78.605409,504.61087 c 19.039577,19.79816 44.569651,36.17044 73.611221,45.29169 18.22882,7.40232 39.35507,10.11855 59.26742,7.38522 17.13996,-1.92216 33.53571,-6.74217 49.0184,-13.13786 22.72391,-7.73204 44.25741,-18.65533 66.02096,-28.98209 21.76353,-10.32677 43.81969,-20.11396 67.3897,-25.39533 18.1347,-4.79226 37.39202,-6.69014 56.50438,-4.31736 20.46194,2.40079 40.11392,10.23126 57.77277,20.66445 17.65886,10.4332 33.60345,23.49468 49.0827,37.16874 26.23437,23.78881 56.75938,43.02446 86.53611,55.34444"
         style="opacity:1;fill:none;fill-rule:evenodd;stroke:#000000;stroke-width:1;stroke-linecap:butt;stroke-linejoin:miter;stroke-opacity:1"
         id="path10257" />
      <path
         inkscape:connector-curvature="0"
         d="m 78.745276,501.76691 c 19.506493,19.64098 45.343104,35.77552 74.577114,44.73152 18.16384,7.19614 39.10877,9.84925 58.89182,7.22739 17.1312,-1.84596 33.5498,-6.52611 49.08388,-12.77744 22.94771,-7.6195 44.72105,-18.46282 66.7183,-28.70726 21.99725,-10.24444 44.27828,-19.94445 68.0508,-25.10663 18.2078,-4.66144 37.49935,-6.43762 56.63253,-4.01735 20.42409,2.44705 40.05372,10.19917 57.72751,20.54709 17.67378,10.34792 33.65746,23.31559 49.12271,36.95544 25.75275,23.31482 55.53627,42.3607 84.50779,54.85831"
         style="opacity:1;fill:none;fill-rule:evenodd;stroke:#000000;stroke-width:1;stroke-linecap:butt;stroke-linejoin:miter;stroke-opacity:1"
         id="path10259" />
      <path
         inkscape:connector-curvature="0"
         d="m 78.885143,498.92294 c 19.973409,19.48382 46.116557,35.3806 75.543017,44.17137 18.09885,6.98996 38.86245,9.57994 58.51621,7.06955 17.12245,-1.76975 33.56389,-6.31006 49.14936,-12.41703 23.1715,-7.50696 45.18468,-18.27031 67.41565,-28.43241 22.23096,-10.16211 44.73685,-19.77495 68.71189,-24.81795 18.28091,-4.53061 37.60669,-6.18509 56.76069,-3.71734 20.38623,2.49332 39.99351,10.1671 57.68223,20.42973 17.68872,10.26264 33.71149,23.1365 49.16274,36.74215 25.27113,22.84084 54.31316,41.69694 82.47945,54.37219"
         style="opacity:1;fill:none;fill-rule:evenodd;stroke:#000000;stroke-width:1;stroke-linecap:butt;stroke-linejoin:miter;stroke-opacity:1"
         id="path10261" />
      <path
         inkscape:connector-curvature="0"
         d="m 79.02501,496.07897 c 20.440326,19.32666 46.89,34.98569 76.50892,43.61121 18.03385,6.78378 38.61614,9.31064 58.1406,6.91172 17.11369,-1.69355 33.57798,-6.09401 49.21483,-12.05662 23.3953,-7.39441 45.64832,-18.07779 68.11301,-28.15757 22.46467,-10.07977 45.19543,-19.60545 69.37298,-24.52926 18.35401,-4.39977 37.71403,-5.93256 56.88885,-3.41733 20.34837,2.53959 39.93329,10.13503 57.63695,20.31238 17.70366,10.17735 33.76551,22.9574 49.20276,36.52884 24.78952,22.36687 53.09005,41.03319 80.45112,53.88607"
         style="opacity:1;fill:none;fill-rule:evenodd;stroke:#000000;stroke-width:1;stroke-linecap:butt;stroke-linejoin:miter;stroke-opacity:1"
         id="path10263" />
      <path
         inkscape:connector-curvature="0"
         d="m 79.164878,493.235 c 20.907242,19.16949 47.663452,34.59078 77.474822,43.05105 17.96886,6.57761 38.36983,9.04135 57.76499,6.75389 17.10493,-1.61735 33.59207,-5.87796 49.28031,-11.69621 23.6191,-7.28187 46.11196,-17.88528 68.81035,-27.88272 22.69839,-9.99745 45.65402,-19.43595 70.03409,-24.24058 18.4271,-4.26894 37.82135,-5.68003 57.01699,-3.11731 20.31052,2.58585 39.87309,10.10295 57.59168,20.19501 17.7186,10.09207 33.81954,22.77831 49.24278,36.31555 24.3079,21.89289 51.86695,40.36943 78.42279,53.39995"
         style="opacity:1;fill:none;fill-rule:evenodd;stroke:#000000;stroke-width:1;stroke-linecap:butt;stroke-linejoin:miter;stroke-opacity:1"
         id="path10265" />
      <path
         inkscape:connector-curvature="0"
         d="m 79.304745,490.39103 c 21.374155,19.01233 48.436895,34.19587 78.440725,42.49089 17.90386,6.37144 38.12351,8.77205 57.38938,6.59607 17.09618,-1.54115 33.60616,-5.66191 49.34579,-11.3358 23.84289,-7.16933 46.57559,-17.69278 69.5077,-27.60789 22.9321,-9.91511 46.1126,-19.26644 70.69518,-23.95189 18.5002,-4.13811 37.92869,-5.4275 57.14515,-2.8173 20.27266,2.63211 39.81288,10.07087 57.5464,20.07766 17.73353,10.00679 33.87356,22.59921 49.2828,36.10224 23.82629,21.41891 50.64384,39.70568 76.39447,52.91383"
         style="opacity:1;fill:none;fill-rule:evenodd;stroke:#000000;stroke-width:1;stroke-linecap:butt;stroke-linejoin:miter;stroke-opacity:1"
         id="path10267" />
      <path
         inkscape:connector-curvature="0"
         d="m 79.444612,487.54707 c 21.841068,18.85516 49.210348,33.80095 79.406628,41.93072 17.83887,6.16526 37.8772,8.50275 57.01377,6.43824 17.08742,-1.46495 33.62025,-5.44586 49.41126,-10.97539 24.0667,-7.05679 47.03923,-17.50026 70.20505,-27.33304 23.16582,-9.83278 46.57118,-19.09695 71.35628,-23.66321 18.57331,-4.00728 38.03602,-5.17497 57.27331,-2.51729 20.2348,2.67838 39.75266,10.0388 57.50113,19.9603 17.74846,9.92151 33.92758,22.42013 49.32282,35.88895 23.34466,20.94493 49.42073,39.04192 74.36613,52.42771"
         style="opacity:1;fill:none;fill-rule:evenodd;stroke:#000000;stroke-width:1;stroke-linecap:butt;stroke-linejoin:miter;stroke-opacity:1"
         id="path10269" />
      <path
         inkscape:connector-curvature="0"
         d="m 79.58448,484.7031 c 22.30799,18.69799 49.9838,33.40604 80.37253,41.37056 17.77387,5.95909 37.63088,8.23345 56.63816,6.28041 17.07867,-1.38875 33.63434,-5.22981 49.47674,-10.61498 24.29049,-6.94424 47.50287,-17.30775 70.9024,-27.0582 23.39953,-9.75045 47.02976,-18.92744 72.01737,-23.37451 18.64641,-3.87646 38.14336,-4.92245 57.40146,-2.21728 20.19695,2.72464 39.69246,10.00672 57.45586,19.84294 17.7634,9.83622 33.98161,22.24103 49.36284,35.67564 22.86305,20.47096 48.19762,38.37817 72.3378,51.9416"
         style="opacity:1;fill:none;fill-rule:evenodd;stroke:#000000;stroke-width:1;stroke-linecap:butt;stroke-linejoin:miter;stroke-opacity:1"
         id="path10271" />
      <path
         inkscape:connector-curvature="0"
         d="m 79.724347,481.85913 c 22.774903,18.54083 50.757243,33.01113 81.338433,40.8104 17.70888,5.75291 37.38457,7.96416 56.26255,6.12258 17.06991,-1.31255 33.64843,-5.01375 49.54222,-10.25456 24.51428,-6.8317 47.9665,-17.11524 71.59975,-26.78336 23.63324,-9.66812 47.48834,-18.75794 72.67846,-23.08583 18.71951,-3.74562 38.25069,-4.66992 57.52962,-1.91727 20.15909,2.77091 39.63225,9.97465 57.41058,19.72558 17.77834,9.75094 34.03563,22.06194 49.40286,35.46235 22.38143,19.99698 46.97452,37.71441 70.30948,51.45547"
         style="opacity:1;fill:none;fill-rule:evenodd;stroke:#000000;stroke-width:1;stroke-linecap:butt;stroke-linejoin:miter;stroke-opacity:1"
         id="path10273" />
      <path
         inkscape:connector-curvature="0"
         d="m 79.864214,479.01516 c 23.241816,18.38367 51.530696,32.61622 82.304326,40.25024 17.64389,5.54674 37.13827,7.69486 55.88695,5.96475 17.06115,-1.23634 33.66252,-4.7977 49.6077,-9.89415 24.73808,-6.71916 48.43013,-16.92273 72.29709,-26.50852 23.86696,-9.58578 47.94692,-18.58844 73.33956,-22.79714 18.79261,-3.61479 38.35803,-4.41739 57.65778,-1.61726 20.12124,2.81718 39.57203,9.94257 57.3653,19.60823 17.79327,9.66566 34.08966,21.88284 49.44288,35.24904 21.89982,19.523 45.75141,37.05066 68.28115,50.96936"
         style="opacity:1;fill:none;fill-rule:evenodd;stroke:#000000;stroke-width:1;stroke-linecap:butt;stroke-linejoin:miter;stroke-opacity:1"
         id="path10275" />
      <path
         inkscape:connector-curvature="0"
         d="m 80.004081,476.17119 c 23.708739,18.2265 52.304139,32.22131 83.270229,39.69009 17.5789,5.34055 36.89195,7.42555 55.51135,5.80691 17.05239,-1.16014 33.6766,-4.58165 49.67316,-9.53374 24.96188,-6.60661 48.89378,-16.73022 72.99445,-26.23367 24.10067,-9.50346 48.4055,-18.41894 74.00065,-22.50846 18.86572,-3.48396 38.46536,-4.16486 57.78593,-1.31724 20.08339,2.86344 39.51183,9.91049 57.32003,19.49086 17.80821,9.58038 34.14368,21.70375 49.4829,35.03575 21.4182,19.04902 44.52831,36.3869 66.25282,50.48323"
         style="opacity:1;fill:none;fill-rule:evenodd;stroke:#000000;stroke-width:1;stroke-linecap:butt;stroke-linejoin:miter;stroke-opacity:1"
         id="path10277" />
      <path
         inkscape:connector-curvature="0"
         d="m 80.143949,473.32723 c 24.175651,18.06933 53.077591,31.82639 84.236131,39.12992 17.51391,5.13438 36.64564,7.15625 55.13574,5.64909 17.04363,-1.08395 33.69069,-4.36561 49.73864,-9.17334 25.18568,-6.49407 49.35741,-16.5377 73.6918,-25.95883 24.33438,-9.42112 48.86408,-18.24944 74.66174,-22.21977 18.93882,-3.35313 38.5727,-3.91233 57.91409,-1.01723 20.04553,2.90971 39.45161,9.87842 57.27476,19.37351 17.82314,9.49509 34.1977,21.52466 49.52292,34.82244 20.93658,18.57505 43.3052,35.72315 64.22448,49.99712"
         style="opacity:1;fill:none;fill-rule:evenodd;stroke:#000000;stroke-width:1;stroke-linecap:butt;stroke-linejoin:miter;stroke-opacity:1"
         id="path10279" />
      <path
         inkscape:connector-curvature="0"
         d="m 80.283816,470.48326 c 24.642564,17.91217 53.851044,31.43148 85.202034,38.56976 17.44891,4.92821 36.39932,6.88695 54.76013,5.49126 17.03487,-1.00775 33.70477,-4.14955 49.80412,-8.81292 25.40947,-6.38153 49.82104,-16.3452 74.38914,-25.68399 24.5681,-9.33879 49.32266,-18.07994 75.32284,-21.93109 19.01192,-3.2223 38.68003,-3.6598 58.04225,-0.71722 20.00767,2.95598 39.3914,9.84635 57.22948,19.25615 17.83808,9.40982 34.25172,21.34557 49.56294,34.60915 20.45496,18.10106 42.08209,35.05939 62.19616,49.511"
         style="opacity:1;fill:none;fill-rule:evenodd;stroke:#000000;stroke-width:1;stroke-linecap:butt;stroke-linejoin:miter;stroke-opacity:1"
         id="path10281" />
      <path
         inkscape:connector-curvature="0"
         d="m 80.423683,467.63929 c 25.109487,17.755 54.624487,31.03657 86.167937,38.0096 17.38392,4.72203 36.15301,6.61766 54.38452,5.33343 17.02612,-0.93154 33.71886,-3.9335 49.86959,-8.45251 25.63327,-6.26899 50.28469,-16.15268 75.0865,-25.40914 24.80181,-9.25647 49.78124,-17.91044 75.98393,-21.64241 19.08502,-3.09146 38.78737,-3.40727 58.1704,-0.4172 19.96982,3.00224 39.3312,9.81426 57.18421,19.13879 17.85301,9.32453 34.30575,21.16647 49.60296,34.39584 19.97335,17.62709 40.85899,34.39564 60.16783,49.02488"
         style="opacity:1;fill:none;fill-rule:evenodd;stroke:#000000;stroke-width:1;stroke-linecap:butt;stroke-linejoin:miter;stroke-opacity:1"
         id="path10283" />
      <path
         inkscape:connector-curvature="0"
         d="m 80.563551,464.79532 c 25.576399,17.59784 55.397939,30.64166 87.133839,37.44944 17.31892,4.51586 35.9067,6.34836 54.00891,5.1756 17.01736,-0.85534 33.73295,-3.71745 49.93507,-8.0921 25.85707,-6.15644 50.74832,-15.96017 75.78385,-25.1343 25.03552,-9.17413 50.23982,-17.74094 76.64502,-21.35371 19.15813,-2.96064 38.8947,-3.15475 58.29856,-0.1172 19.93196,3.04851 39.27098,9.78219 57.13893,19.02143 17.86795,9.23925 34.35977,20.98738 49.64298,34.18255 19.49173,17.15311 39.63588,33.73188 58.1395,48.53876"
         style="opacity:1;fill:none;fill-rule:evenodd;stroke:#000000;stroke-width:1;stroke-linecap:butt;stroke-linejoin:miter;stroke-opacity:1"
         id="path10285" />
      <path
         inkscape:connector-curvature="0"
         d="m 80.703418,461.95135 c 26.043312,17.44068 56.171382,30.24675 88.099742,36.88928 17.25393,4.30968 35.66038,6.07906 53.6333,5.01777 17.0086,-0.77914 33.74704,-3.50139 50.00055,-7.73168 26.08086,-6.04391 51.21195,-15.76767 76.48119,-24.85946 25.26924,-9.0918 50.6984,-17.57144 77.30612,-21.06503 19.23123,-2.82981 39.00204,-2.90222 58.42672,0.18281 19.8941,3.09478 39.21077,9.75012 57.09365,18.90408 17.88289,9.15396 34.4138,20.80828 49.683,33.96924 19.01012,16.67914 38.41278,33.06813 56.11118,48.05264"
         style="opacity:1;fill:none;fill-rule:evenodd;stroke:#000000;stroke-width:1;stroke-linecap:butt;stroke-linejoin:miter;stroke-opacity:1"
         id="path10287" />
      <path
         inkscape:connector-curvature="0"
         d="m 80.843285,459.10739 c 26.510235,17.2835 56.944835,29.85183 89.065635,36.32911 17.18894,4.10351 35.41408,5.80976 53.2577,4.85994 16.99985,-0.70294 33.76113,-3.28534 50.06602,-7.37127 26.30467,-5.93136 51.6756,-15.57515 77.17855,-24.58462 25.50295,-9.00947 51.15698,-17.40193 77.96721,-20.77634 19.30433,-2.69898 39.10937,-2.64969 58.55487,0.48283 19.85625,3.14103 39.15057,9.71804 57.04839,18.78671 17.89782,9.06869 34.46782,20.6292 49.72302,33.75595 18.52849,16.20515 37.18966,32.40437 54.08284,47.56652"
         style="opacity:1;fill:none;fill-rule:evenodd;stroke:#000000;stroke-width:1;stroke-linecap:butt;stroke-linejoin:miter;stroke-opacity:1"
         id="path10289" />
      <path
         inkscape:connector-curvature="0"
         d="m 80.983152,456.26342 c 26.977148,17.12634 57.718288,29.45692 90.031538,35.76895 17.12395,3.89733 35.16776,5.54046 52.88209,4.70212 16.99109,-0.62674 33.77522,-3.0693 50.1315,-7.01087 26.52846,-5.81882 52.13923,-15.38264 77.8759,-24.30977 25.73666,-8.92714 51.61556,-17.23244 78.62831,-20.48766 19.37742,-2.56815 39.2167,-2.39716 58.68302,0.78284 19.81839,3.1873 39.09035,9.68596 57.00311,18.66936 17.91275,8.9834 34.52184,20.4501 49.76304,33.54265 18.04688,15.73117 35.96656,31.74061 52.05451,47.08039"
         style="opacity:1;fill:none;fill-rule:evenodd;stroke:#000000;stroke-width:1;stroke-linecap:butt;stroke-linejoin:miter;stroke-opacity:1"
         id="path10291" />
      <path
         inkscape:connector-curvature="0"
         d="m 81.12302,453.41945 c 27.44406,16.96918 58.49173,29.06201 90.99744,35.2088 17.05895,3.69115 34.92145,5.27116 52.50648,4.54428 16.98233,-0.55054 33.78931,-2.85324 50.19698,-6.65045 26.75225,-5.70628 52.60286,-15.19013 78.57324,-24.03494 25.97038,-8.8448 52.07415,-17.06293 79.28941,-20.19897 19.45053,-2.43731 39.32403,-2.14463 58.81118,1.08285 19.78053,3.23357 39.03014,9.65389 56.95783,18.552 17.92769,8.89812 34.57587,20.27101 49.80306,33.32935 17.56526,15.2572 34.74345,31.07686 50.02619,46.59428"
         style="opacity:1;fill:none;fill-rule:evenodd;stroke:#000000;stroke-width:1;stroke-linecap:butt;stroke-linejoin:miter;stroke-opacity:1"
         id="path10293" />
      <path
         inkscape:connector-curvature="0"
         d="m 81.262887,450.57548 c 27.910983,16.81201 59.265183,28.66709 91.963343,34.64864 16.99396,3.48497 34.67514,5.00186 52.13087,4.38645 16.97358,-0.47434 33.8034,-2.63719 50.26245,-6.29004 26.97606,-5.59374 53.0665,-14.99762 79.2706,-23.76009 26.20409,-8.76247 52.53272,-16.89344 79.9505,-19.91029 19.52363,-2.30648 39.43137,-1.8921 58.93934,1.38287 19.74267,3.27983 38.96992,9.62181 56.91255,18.43464 17.94263,8.81283 34.62989,20.09191 49.84308,33.11605 17.08365,14.78322 33.52035,30.4131 47.99786,46.10816"
         style="opacity:1;fill:none;fill-rule:evenodd;stroke:#000000;stroke-width:1;stroke-linecap:butt;stroke-linejoin:miter;stroke-opacity:1"
         id="path10295" />
      <path
         inkscape:connector-curvature="0"
         d="m 81.402754,447.73151 c 28.377896,16.65485 60.038626,28.27218 92.929246,34.08848 16.92897,3.2788 34.42882,4.73256 51.75526,4.22862 16.96482,-0.39813 33.81749,-2.42114 50.32793,-5.92963 27.19985,-5.48119 53.53014,-14.80511 79.96795,-23.48525 26.4378,-8.68014 52.9913,-16.72393 80.61159,-19.62159 19.59673,-2.17566 39.5387,-1.63958 59.06749,1.68287 19.70482,3.3261 38.90972,9.58974 56.86728,18.31728 17.95757,8.72756 34.68392,19.91282 49.88311,32.90275 16.60202,14.30924 32.29723,29.74935 45.96952,45.62204"
         style="opacity:1;fill:none;fill-rule:evenodd;stroke:#000000;stroke-width:1;stroke-linecap:butt;stroke-linejoin:miter;stroke-opacity:1"
         id="path10297" />
      <path
         inkscape:connector-curvature="0"
         d="m 81.542621,444.88755 c 28.844809,16.49768 60.812079,27.87726 93.895149,33.52831 16.86397,3.07263 34.18251,4.46326 51.37965,4.07079 16.95607,-0.32193 33.83158,-2.20509 50.39341,-5.56922 27.42365,-5.36865 53.99377,-14.61259 80.66529,-23.2104 26.67152,-8.59781 53.44989,-16.55443 81.27269,-19.33291 19.66983,-2.04483 39.64604,-1.38705 59.19565,1.98288 19.66696,3.37237 38.84951,9.55766 56.82201,18.19993 17.97249,8.64227 34.73793,19.73373 49.92312,32.68945 16.12041,13.83526 31.07413,29.08559 43.94119,45.13592"
         style="opacity:1;fill:none;fill-rule:evenodd;stroke:#000000;stroke-width:1;stroke-linecap:butt;stroke-linejoin:miter;stroke-opacity:1"
         id="path10299" />
      <path
         inkscape:connector-curvature="0"
         d="m 81.682489,442.04358 c 29.311721,16.34051 61.585531,27.48235 94.861051,32.96815 16.79898,2.86645 33.93619,4.19396 51.00404,3.91296 16.94731,-0.24573 33.84567,-1.98903 50.45888,-5.2088 27.64745,-5.25611 54.45741,-14.42009 81.36265,-22.93557 26.90523,-8.51547 53.90846,-16.38493 81.93378,-19.04422 19.74294,-1.914 39.75337,-1.13452 59.32381,2.2829 19.6291,3.41863 38.78929,9.52558 56.77673,18.08256 17.98743,8.55699 34.79196,19.55464 49.96314,32.47615 15.63879,13.36129 29.85102,28.42184 41.91287,44.6498"
         style="opacity:1;fill:none;fill-rule:evenodd;stroke:#000000;stroke-width:1;stroke-linecap:butt;stroke-linejoin:miter;stroke-opacity:1"
         id="path10301" />
      <path
         inkscape:connector-curvature="0"
         d="m 81.822356,439.19961 c 29.778644,16.18335 62.358974,27.08744 95.826954,32.40799 16.73398,2.66028 33.68988,3.92467 50.62843,3.75513 16.93855,-0.16953 33.85976,-1.77298 50.52436,-4.84839 27.87124,-5.14357 54.92105,-14.22758 82.06,-22.66072 27.13894,-8.43315 54.36704,-16.21543 82.59487,-18.75554 19.81604,-1.78317 39.86071,-0.88199 59.45196,2.58291 19.59125,3.4649 38.72909,9.49351 56.73146,17.96521 18.00237,8.4717 34.84598,19.37554 50.00316,32.26285 15.15718,12.8873 28.62792,27.75808 39.88454,44.16368"
         style="opacity:1;fill:none;fill-rule:evenodd;stroke:#000000;stroke-width:1;stroke-linecap:butt;stroke-linejoin:miter;stroke-opacity:1"
         id="path10303" />
    </g>
    <path
       id="path10398"
       d="m 498.57143,62.362182 c 53.33773,35.820161 115.9588,57.687838 180,62.857138 83.37984,6.73028 168.8105,-15.26683 238.57143,-61.428566 l 158.57144,35.714285"
       style="fill:none;fill-rule:evenodd;stroke:#000000;stroke-width:1px;stroke-linecap:butt;stroke-linejoin:miter;stroke-opacity:1" />
    <path
       id="path10402"
       d="m 522.85714,233.79075 c 33.00431,42.64825 79.25702,74.89253 130.68884,91.10749 51.43182,16.21496 107.81439,16.3286 159.31116,0.32109 50.17845,-15.59772 95.51581,-45.92581 147.14286,-55.71429 32.2349,-6.11173 66.0298,-3.797 97.1304,6.65278 31.1005,10.44979 59.4366,29.01108 81.441,53.34722"
       style="fill:none;fill-rule:evenodd;stroke:#000000;stroke-width:1px;stroke-linecap:butt;stroke-linejoin:miter;stroke-opacity:1" />
    <g
       id="g10490">
      <path
         id="path10492"
         style="stroke-linejoin:miter;opacity:1.0;stroke-opacity:1.0;fill-rule:evenodd;stroke:#000000;stroke-linecap:butt;stroke-width:1.0;fill:none"
         d="M522.85714 233.79075C555.86145 276.439 602.11416 308.68328 653.54598 324.89824C704.9778 341.1132 761.36037 341.22684 812.85714 325.21933C863.03559 309.62161 908.37295 279.29352 960.0 269.50504C992.2349 263.39331 1026.0298 265.70804 1057.1304 276.15782C1088.2309 286.60761 1116.567 305.1689 1138.5714 329.50504" />
      <path
         id="path10494"
         style="stroke-linejoin:miter;opacity:1.0;stroke-opacity:1.0;fill-rule:evenodd;stroke:#000000;stroke-linecap:butt;stroke-width:1.0;fill:none"
         d="M522.483513692 231.153387415C555.390355308 273.421050192 601.377480538 305.391140646 652.48462075 321.51957206C703.591760962 337.648003473 759.594069385 337.863883538 810.791206 322.142406769C860.839063231 306.836423077 906.128196538 276.9162005 957.584065173 267.117878508C989.946124577 260.939741131 1023.81799377 262.956710492 1054.97674554 272.890634369C1085.59877631 283.179658369 1115.93849692 302.0048406 1137.60436769 325.966578446" />
      <path
         id="path10496"
         style="stroke-linejoin:miter;opacity:1.0;stroke-opacity:1.0;fill-rule:evenodd;stroke:#000000;stroke-linecap:butt;stroke-width:1.0;fill:none"
         d="M522.109887385 228.516024831C554.919260615 270.403100385 600.640801077 302.099001292 651.4232615 318.140904119C702.205721923 334.182806946 757.827768769 334.500927077 808.725272 319.065483538C858.642536462 304.051236154 903.883443077 274.538881 955.168130346 264.730717015C987.657349154 258.486172262 1021.60618754 260.205380985 1052.82309108 269.623448738C1082.96665262 279.751706738 1115.30999385 298.8407812 1136.63733538 322.428116892" />
      <path
         id="path10498"
         style="stroke-linejoin:miter;opacity:1.0;stroke-opacity:1.0;fill-rule:evenodd;stroke:#000000;stroke-linecap:butt;stroke-width:1.0;fill:none"
         d="M521.736261077 225.878662246C554.448165923 267.385150577 599.904121615 298.806861938 650.36190225 314.762236179C700.819682885 330.717610419 756.061468154 331.137970615 806.659338 315.988560308C856.446009692 301.266049231 901.638689615 272.1615615 952.752195519 262.343555523C985.368573731 256.032603392 1019.39438131 257.454051477 1050.66943662 266.356263108C1080.33452892 276.323755108 1114.68149077 295.6767218 1135.67030308 318.889655338" />
      <path
         id="path10500"
         style="stroke-linejoin:miter;opacity:1.0;stroke-opacity:1.0;fill-rule:evenodd;stroke:#000000;stroke-linecap:butt;stroke-width:1.0;fill:none"
         d="M521.362634769 223.241299662C553.977071231 264.367200769 599.167442154 295.514722585 649.300543 311.383568238C699.433643846 327.252413892 754.295167538 327.775014154 804.593404 312.911637077C854.249482923 298.480862308 899.393936154 269.784242 950.336260692 259.956394031C983.079798308 253.579034523 1017.18257508 254.702721969 1048.51578215 263.089077477C1077.70240523 272.895803477 1114.05298769 292.5126624 1134.70327077 315.351193785" />
      <path
         id="path10502"
         style="stroke-linejoin:miter;opacity:1.0;stroke-opacity:1.0;fill-rule:evenodd;stroke:#000000;stroke-linecap:butt;stroke-width:1.0;fill:none"
         d="M520.989008462 220.603937077C553.505976538 261.349250962 598.430762692 292.222583231 648.23918375 308.004900298C698.047604808 323.787217365 752.528866923 324.412057692 802.52747 309.834713846C852.052956154 295.695675385 897.149182692 267.4069225 947.920325865 257.569232538C980.791022885 251.125465654 1014.97076885 251.951392462 1046.36212769 259.821891846C1075.07028154 269.467851846 1113.42448462 289.348603 1133.73623846 311.812732231" />
      <path
         id="path10504"
         style="stroke-linejoin:miter;opacity:1.0;stroke-opacity:1.0;fill-rule:evenodd;stroke:#000000;stroke-linecap:butt;stroke-width:1.0;fill:none"
         d="M520.615382154 217.966574492C553.034881846 258.331301154 597.694083231 288.930443877 647.1778245 304.626232358C696.661565769 320.322020838 750.762566308 321.049101231 800.461536 306.757790615C849.856429385 292.910488462 894.904429231 265.029603 945.504391038 255.182071046C978.502247462 248.671896785 1012.75896262 249.200062954 1044.20847323 256.554706215C1072.43815785 266.039900215 1112.79598154 286.1845436 1132.76920615 308.274270677" />
      <path
         id="path10506"
         style="stroke-linejoin:miter;opacity:1.0;stroke-opacity:1.0;fill-rule:evenodd;stroke:#000000;stroke-linecap:butt;stroke-width:1.0;fill:none"
         d="M520.241755846 215.329211908C552.563787154 255.313351346 596.957403769 285.638304523 646.11646525 301.247564417C695.275526731 316.856824312 748.996265692 317.686144769 798.395602 303.680867385C847.659902615 290.125301538 892.659675769 262.6522835 943.088456212 252.794909554C976.213472038 246.218327915 1010.54715638 246.448733446 1042.05481877 253.287520585C1069.80603415 262.611948585 1112.16747846 283.0204842 1131.80217385 304.735809123" />
      <path
         id="path10508"
         style="stroke-linejoin:miter;opacity:1.0;stroke-opacity:1.0;fill-rule:evenodd;stroke:#000000;stroke-linecap:butt;stroke-width:1.0;fill:none"
         d="M519.868129538 212.691849323C552.092692462 252.295401538 596.220724308 282.346165169 645.055106 297.868896477C693.889487692 313.391627785 747.229965077 314.323188308 796.329668 300.603944154C845.463375846 287.340114615 890.414922308 260.274964 940.672521385 250.407748062C973.924696615 243.764759046 1008.33535015 243.697403938 1039.90116431 250.020334954C1067.17391046 259.183996954 1111.53897538 279.8564248 1130.83514154 301.197347569" />
      <path
         id="path10510"
         style="stroke-linejoin:miter;opacity:1.0;stroke-opacity:1.0;fill-rule:evenodd;stroke:#000000;stroke-linecap:butt;stroke-width:1.0;fill:none"
         d="M519.494503231 210.054486738C551.621597769 249.277451731 595.484044846 279.054025815 643.99374675 294.490228537C692.503448654 309.926431258 745.463664462 310.960231846 794.263734 297.527020923C843.266849077 284.554927692 888.170168846 257.8976445 938.256586558 248.020586569C971.635921192 241.311190177 1006.12354392 240.946074431 1037.74750985 246.753149323C1064.54178677 255.756045323 1110.91047231 276.6923654 1129.86810923 297.658886015" />
      <path
         id="path10512"
         style="stroke-linejoin:miter;opacity:1.0;stroke-opacity:1.0;fill-rule:evenodd;stroke:#000000;stroke-linecap:butt;stroke-width:1.0;fill:none"
         d="M519.120876923 207.417124154C551.150503077 246.259501923 594.747365385 275.761886462 642.9323875 291.111560596C691.117409615 306.461234731 743.697363846 307.597275385 792.1978 294.450097692C841.070322308 281.769740769 885.925415385 255.520325 935.840651731 245.633425077C969.347145769 238.857621308 1003.91173769 238.194744923 1035.59385538 243.485963692C1061.90966308 252.328093692 1110.28196923 273.528306 1128.90107692 294.120424462" />
      <path
         id="path10514"
         style="stroke-linejoin:miter;opacity:1.0;stroke-opacity:1.0;fill-rule:evenodd;stroke:#000000;stroke-linecap:butt;stroke-width:1.0;fill:none"
         d="M518.747250615 204.779761569C550.679408385 243.241552115 594.010685923 272.469747108 641.87102825 287.732892656C689.731370577 302.996038204 741.931063231 304.234318923 790.131866 291.373174462C838.873795538 278.984553846 883.680661923 253.1430055 933.424716904 243.246263585C967.058370346 236.404052438 1001.69993146 235.443415415 1033.44020092 240.218778062C1059.27753938 248.900142062 1109.65346615 270.3642466 1127.93404462 290.581962908" />
      <path
         id="path10516"
         style="stroke-linejoin:miter;opacity:1.0;stroke-opacity:1.0;fill-rule:evenodd;stroke:#000000;stroke-linecap:butt;stroke-width:1.0;fill:none"
         d="M518.373624308 202.142398985C550.208313692 240.223602308 593.274006462 269.177607754 640.809669 284.354224715C688.345331538 299.530841677 740.164762615 300.871362462 788.065932 288.296251231C836.677268769 276.199366923 881.435908462 250.765686 931.008782077 240.859102092C964.769594923 233.950483569 999.488125231 232.692085908 1031.28654646 236.951592431C1056.64541569 245.472190431 1109.02496308 267.2001872 1126.96701231 287.043501354" />
      <path
         id="path10518"
         style="stroke-linejoin:miter;opacity:1.0;stroke-opacity:1.0;fill-rule:evenodd;stroke:#000000;stroke-linecap:butt;stroke-width:1.0;fill:none"
         d="M517.999998 199.5050364C549.737219 237.2056525 592.537327 265.8854684 639.74830975 280.975556775C686.9592925 296.06564515 738.398462 297.508406 785.999998 285.219328C834.480742 273.41418 879.191155 248.3883665 928.59284725 238.4719406C962.4808195 231.4969147 997.276319 229.9407564 1029.132892 233.6844068C1054.013292 242.0442388 1108.39646 264.0361278 1125.99998 283.5050398" />
      <path
         id="path10520"
         style="stroke-linejoin:miter;opacity:1.0;stroke-opacity:1.0;fill-rule:evenodd;stroke:#000000;stroke-linecap:butt;stroke-width:1.0;fill:none"
         d="M517.626371692 196.867673815C549.266124308 234.187702692 591.800647538 262.593329046 638.6869505 277.596888835C685.573253462 292.600448623 736.632161385 294.145449538 783.934064 282.142404769C832.284215231 270.628993077 876.946401538 246.011047 926.176912423 236.084779108C960.192044077 229.043345831 995.064512769 227.189426892 1026.97923754 230.417221169C1051.38116831 238.616287169 1107.76795692 260.8720684 1125.03294769 279.966578246" />
      <path
         id="path10522"
         style="stroke-linejoin:miter;opacity:1.0;stroke-opacity:1.0;fill-rule:evenodd;stroke:#000000;stroke-linecap:butt;stroke-width:1.0;fill:none"
         d="M517.252745385 194.230311231C548.795029615 231.169752885 591.063968077 259.301189692 637.62559125 274.218220894C684.187214423 289.135252096 734.865860769 290.782493077 781.86813 279.065481538C830.087688462 267.843806154 874.701648077 243.6337275 923.760977596 233.697617615C957.903268654 226.589776962 992.852706538 224.438097385 1024.82558308 227.150035538C1048.74904462 235.188335538 1107.13945385 257.708009 1124.06591538 276.428116692" />
      <path
         id="path10524"
         style="stroke-linejoin:miter;opacity:1.0;stroke-opacity:1.0;fill-rule:evenodd;stroke:#000000;stroke-linecap:butt;stroke-width:1.0;fill:none"
         d="M516.879119077 191.592948646C548.323934923 228.151803077 590.327288615 256.009050338 636.564232 270.839552954C682.801175385 285.670055569 733.099560154 287.419536615 779.802196 275.988558308C827.891161692 265.058619231 872.456894615 241.256408 921.345042769 231.310456123C955.614493231 224.136208092 990.640900308 221.686767877 1022.67192862 223.882849908C1046.11692092 231.760383908 1106.51095077 254.5439496 1123.09888308 272.889655138" />
      <path
         id="path10526"
         style="stroke-linejoin:miter;opacity:1.0;stroke-opacity:1.0;fill-rule:evenodd;stroke:#000000;stroke-linecap:butt;stroke-width:1.0;fill:none"
         d="M516.505492769 188.955586062C547.852840231 225.133853269 589.590609154 252.716910985 635.50287275 267.460885013C681.415136346 282.204859042 731.333259538 284.056580154 777.736262 272.911635077C825.694634923 262.273432308 870.212141154 238.8790885 918.929107942 228.923294631C953.325717808 221.682639223 988.429094077 218.935438369 1020.51827415 220.615664277C1043.48479723 228.332432277 1105.88244769 251.3798902 1122.13185077 269.351193585" />
      <path
         id="path10528"
         style="stroke-linejoin:miter;opacity:1.0;stroke-opacity:1.0;fill-rule:evenodd;stroke:#000000;stroke-linecap:butt;stroke-width:1.0;fill:none"
         d="M516.131866462 186.318223477C547.381745538 222.115903462 588.853929692 249.424771631 634.4415135 264.082217073C680.029097308 278.739662515 729.566958923 280.693623692 775.670328 269.834711846C823.498108154 259.488245385 867.967387692 236.501769 916.513173115 226.536133138C951.036942385 219.229070354 986.217287846 216.184108862 1018.36461969 217.348478646C1040.85267354 224.904480646 1105.25394462 248.2158308 1121.16481846 265.812732031" />
      <path
         id="path10530"
         style="stroke-linejoin:miter;opacity:1.0;stroke-opacity:1.0;fill-rule:evenodd;stroke:#000000;stroke-linecap:butt;stroke-width:1.0;fill:none"
         d="M515.758240154 183.680860892C546.910650846 219.097953654 588.117250231 246.132632277 633.38015425 260.703549133C678.643058269 275.274465988 727.800658308 277.330667231 773.604394 266.757788615C821.301581385 256.703058462 865.722634231 234.1244495 914.097238288 224.148971646C948.748166962 216.775501485 984.005481615 213.432779354 1016.21096523 214.081293015C1038.22054985 221.476529015 1104.62544154 245.0517714 1120.19778615 262.274270477" />
      <path
         id="path10532"
         style="stroke-linejoin:miter;opacity:1.0;stroke-opacity:1.0;fill-rule:evenodd;stroke:#000000;stroke-linecap:butt;stroke-width:1.0;fill:none"
         d="M515.384613846 181.043498308C546.439556154 216.080003846 587.380570769 242.840492923 632.318795 257.324881192C677.257019231 271.809269462 726.034357692 273.967710769 771.53846 263.680865385C819.105054615 253.917871538 863.477880769 231.74713 911.681303462 221.761810154C946.459391538 214.321932615 981.793675385 210.681449846 1014.05731077 210.814107385C1035.58842615 218.048577385 1103.99693846 241.887712 1119.23075385 258.735808923" />
      <path
         id="path10534"
         style="stroke-linejoin:miter;opacity:1.0;stroke-opacity:1.0;fill-rule:evenodd;stroke:#000000;stroke-linecap:butt;stroke-width:1.0;fill:none"
         d="M515.010987538 178.406135723C545.968461462 213.062054038 586.643891308 239.548353569 631.25743575 253.946213252C675.870980192 268.344072935 724.268057077 270.604754308 769.472526 260.603942154C816.908527846 251.132684615 861.233127308 229.3698105 909.265368635 219.374648662C944.170616115 211.868363746 979.581869154 207.930120338 1011.90365631 207.546921754C1032.95630246 214.620625754 1103.36843538 238.7236526 1118.26372154 255.197347369" />
      <path
         id="path10536"
         style="stroke-linejoin:miter;opacity:1.0;stroke-opacity:1.0;fill-rule:evenodd;stroke:#000000;stroke-linecap:butt;stroke-width:1.0;fill:none"
         d="M514.637361231 175.768773138C545.497366769 210.044104231 585.907211846 236.256214215 630.1960765 250.567545312C674.484941154 264.878876408 722.501756462 267.241797846 767.406592 257.527018923C814.712001077 248.347497692 858.988373846 226.992491 906.849433808 216.987487169C941.881840692 209.414794877 977.370062923 205.178790831 1009.75000185 204.279736123C1030.32417877 211.192674123 1102.73993231 235.5595932 1117.29668923 251.658885815" />
      <path
         id="path10538"
         style="stroke-linejoin:miter;opacity:1.0;stroke-opacity:1.0;fill-rule:evenodd;stroke:#000000;stroke-linecap:butt;stroke-width:1.0;fill:none"
         d="M514.263734923 173.131410554C545.026272077 207.026154423 585.170532385 232.964074862 629.13471725 247.188877371C673.098902115 261.413679881 720.735455846 263.878841385 765.340658 254.450095692C812.515474308 245.562310769 856.743620385 224.6151715 904.433498981 214.600325677C939.593065269 206.961226008 975.158256692 202.427461323 1007.59634738 201.012550492C1027.69205508 207.764722492 1102.11142923 232.3955338 1116.32965692 248.120424262" />
      <path
         id="path10540"
         style="stroke-linejoin:miter;opacity:1.0;stroke-opacity:1.0;fill-rule:evenodd;stroke:#000000;stroke-linecap:butt;stroke-width:1.0;fill:none"
         d="M513.890108615 170.494047969C544.555177385 204.008204615 584.433852923 229.671935508 628.073358 243.810209431C671.712863077 257.948483354 718.969155231 260.515884923 763.274724 251.373172462C810.318947538 242.777123846 854.498866923 222.237852 902.017564154 212.213164185C937.304289846 204.507657138 972.946450462 199.676131815 1005.44269292 197.745364862C1025.05993138 204.336770862 1101.48292615 229.2314744 1115.36262462 244.581962708" />
      <path
         id="path10542"
         style="stroke-linejoin:miter;opacity:1.0;stroke-opacity:1.0;fill-rule:evenodd;stroke:#000000;stroke-linecap:butt;stroke-width:1.0;fill:none"
         d="M513.516482308 167.856685385C544.084082692 200.990254808 583.697173462 226.379796154 627.01199875 240.43154149C670.326824038 254.483286827 717.202854615 257.152928462 761.20879 248.296249231C808.122420769 239.991936923 852.254113462 219.8605325 899.601629327 209.826002692C935.015514423 202.054088269 970.734644231 196.924802308 1003.28903846 194.478179231C1022.42780769 200.908819231 1100.85442308 226.067415 1114.39559231 241.043501154" />
      <path
         id="path10544"
         style="stroke-linejoin:miter;opacity:1.0;stroke-opacity:1.0;fill-rule:evenodd;stroke:#000000;stroke-linecap:butt;stroke-width:1.0;fill:none"
         d="M513.142856 165.2193228C543.612988 197.972305 582.960494 223.0876568 625.9506395 237.05287355C668.940785 251.0180903 715.436554 253.789972 759.142856 245.219326C805.925894 237.20675 850.00936 217.483213 897.1856945 207.4388412C932.726739 199.6005194 968.522838 194.1734728 1001.135384 191.2109936C1019.795684 197.4808676 1100.22592 222.9033556 1113.42856 237.5050396" />
      <path
         id="path10546"
         style="stroke-linejoin:miter;opacity:1.0;stroke-opacity:1.0;fill-rule:evenodd;stroke:#000000;stroke-linecap:butt;stroke-width:1.0;fill:none"
         d="M512.769229692 162.581960215C543.141893308 194.954355192 582.223814538 219.795517446 624.88928025 233.67420561C667.554745962 247.552893773 713.670253385 250.427015538 757.076922 242.142402769C803.729367231 234.421563077 847.764606538 215.1058935 894.769759673 205.051679708C930.437963577 197.146950531 966.311031769 191.422143292 998.981729538 187.943807969C1017.16356031 194.052915969 1099.59741692 219.7392962 1112.46152769 233.966578046" />
      <path
         id="path10548"
         style="stroke-linejoin:miter;opacity:1.0;stroke-opacity:1.0;fill-rule:evenodd;stroke:#000000;stroke-linecap:butt;stroke-width:1.0;fill:none"
         d="M512.395603385 159.944597631C542.670798615 191.936405385 581.487135077 216.503378092 623.827921 230.295537669C666.168706923 244.087697246 711.903952769 247.064059077 755.010988 239.065479538C801.532840462 231.636376154 845.519853077 212.728574 892.353824846 202.664518215C928.149188154 194.693381662 964.099225538 188.670813785 996.828075077 184.676622338C1014.53143662 190.624964338 1098.96891385 216.5752368 1111.49449538 230.428116492" />
      <path
         id="path10550"
         style="stroke-linejoin:miter;opacity:1.0;stroke-opacity:1.0;fill-rule:evenodd;stroke:#000000;stroke-linecap:butt;stroke-width:1.0;fill:none"
         d="M512.021977077 157.307235046C542.199703923 188.918455577 580.750455615 213.211238738 622.76656175 226.916869729C664.782667885 240.622500719 710.137652154 243.701102615 752.945054 235.988556308C799.336313692 228.851189231 843.275099615 210.3512545 889.937890019 200.277356723C925.860412731 192.239812792 961.887419308 185.919484277 994.674420615 181.409436708C1011.89931292 187.197012708 1098.34041077 213.4111774 1110.52746308 226.889654938" />
      <path
         id="path10552"
         style="stroke-linejoin:miter;opacity:1.0;stroke-opacity:1.0;fill-rule:evenodd;stroke:#000000;stroke-linecap:butt;stroke-width:1.0;fill:none"
         d="M511.648350769 154.669872462C541.728609231 185.900505769 580.013776154 209.919099385 621.7052025 223.538201788C663.396628846 237.157304192 708.371351538 240.338146154 750.87912 232.911633077C797.139786923 226.066002308 841.030346154 207.973935 887.521955192 197.890195231C923.571637308 189.786243923 959.675613077 183.168154769 992.520766154 178.142251077C1009.26718923 183.769061077 1097.71190769 210.247118 1109.56043077 223.351193385" />
      <path
         id="path10554"
         style="stroke-linejoin:miter;opacity:1.0;stroke-opacity:1.0;fill-rule:evenodd;stroke:#000000;stroke-linecap:butt;stroke-width:1.0;fill:none"
         d="M511.274724462 152.032509877C541.257514538 182.882555962 579.277096692 206.626960031 620.64384325 220.159533848C662.010589808 233.692107665 706.605050923 236.975189692 748.813186 229.834709846C794.943260154 223.280815385 838.785592692 205.5966155 885.106020365 195.503033738C921.282861885 187.332675054 957.463806846 180.416825262 990.367111692 174.875065446C1006.63506554 180.341109446 1097.08340462 207.0830586 1108.59339846 219.812731831" />
      <path
         id="path10556"
         style="stroke-linejoin:miter;opacity:1.0;stroke-opacity:1.0;fill-rule:evenodd;stroke:#000000;stroke-linecap:butt;stroke-width:1.0;fill:none"
         d="M510.901098154 149.395147292C540.786419846 179.864606154 578.540417231 203.334820677 619.582484 216.780865908C660.624550769 230.226911138 704.838750308 233.612233231 746.747252 226.757786615C792.746733385 220.495628462 836.540839231 203.219296 882.690085538 193.115872246C918.994086462 184.879106185 955.252000615 177.665495754 988.213457231 171.607879815C1004.00294185 176.913157815 1096.45490154 203.9189992 1107.62636615 216.274270277" />
      <path
         id="path10558"
         style="stroke-linejoin:miter;opacity:1.0;stroke-opacity:1.0;fill-rule:evenodd;stroke:#000000;stroke-linecap:butt;stroke-width:1.0;fill:none"
         d="M510.527471846 146.757784708C540.315325154 176.846656346 577.803737769 200.042681323 618.52112475 213.402197967C659.238511731 226.761714612 703.072449692 230.249276769 744.681318 223.680863385C790.550206615 217.710441538 834.296085769 200.8419765 880.274150712 190.728710754C916.705311038 182.425537315 953.040194385 174.914166246 986.059802769 168.340694185C1001.37081815 173.485206185 1095.82639846 200.7549398 1106.65933385 212.735808723" />
      <path
         id="path10560"
         style="stroke-linejoin:miter;opacity:1.0;stroke-opacity:1.0;fill-rule:evenodd;stroke:#000000;stroke-linecap:butt;stroke-width:1.0;fill:none"
         d="M510.153845538 144.120422123C539.844230462 173.828706538 577.067058308 196.750541969 617.4597655 210.023530027C657.852472692 223.296518085 701.306149077 226.886320308 742.615384 220.603940154C788.353679846 214.925254615 832.051332308 198.464657 877.858215885 188.341549262C914.416535615 179.971968446 950.828388154 172.162836738 983.906148308 165.073508554C998.738694462 170.057254554 1095.19789538 197.5908804 1105.69230154 209.197347169" />
      <path
         id="path10562"
         style="stroke-linejoin:miter;opacity:1.0;stroke-opacity:1.0;fill-rule:evenodd;stroke:#000000;stroke-linecap:butt;stroke-width:1.0;fill:none"
         d="M509.780219231 141.483059538C539.373135769 170.810756731 576.330378846 193.458402615 616.39840625 206.644862087C656.466433654 219.831321558 699.539848462 223.523363846 740.54945 217.527016923C786.157153077 212.140067692 829.806578846 196.0873375 875.442281058 185.954387769C912.127760192 177.518399577 948.616581923 169.411507231 981.752493846 161.806322923C996.106570769 166.629302923 1094.56939231 194.426821 1104.72526923 205.658885615" />
      <path
         id="path10564"
         style="stroke-linejoin:miter;opacity:1.0;stroke-opacity:1.0;fill-rule:evenodd;stroke:#000000;stroke-linecap:butt;stroke-width:1.0;fill:none"
         d="M509.406592923 138.845696954C538.902041077 167.792806923 575.593699385 190.166263262 615.337047 203.266194146C655.080394615 216.366125031 697.773547846 220.160407385 738.483516 214.450093692C783.960626308 209.354880769 827.561825385 193.710018 873.026346231 183.567226277C909.838984769 175.064830708 946.404775692 166.660177723 979.598839385 158.539137292C993.474447077 163.201351292 1093.94088923 191.2627616 1103.75823692 202.120424062" />
      <path
         id="path10566"
         style="stroke-linejoin:miter;opacity:1.0;stroke-opacity:1.0;fill-rule:evenodd;stroke:#000000;stroke-linecap:butt;stroke-width:1.0;fill:none"
         d="M509.032966615 136.208334369C538.430946385 164.774857115 574.857019923 186.874123908 614.27568775 199.887526206C653.694355577 212.900928504 696.007247231 216.797450923 736.417582 211.373170462C781.764099538 206.569693846 825.317071923 191.3326985 870.610411404 181.180064785C907.550209346 172.611261838 944.192969462 163.908848215 977.445184923 155.271951662C990.842323385 159.773399662 1093.31238615 188.0987022 1102.79120462 198.581962508" />
      <path
         id="path10568"
         style="stroke-linejoin:miter;opacity:1.0;stroke-opacity:1.0;fill-rule:evenodd;stroke:#000000;stroke-linecap:butt;stroke-width:1.0;fill:none"
         d="M508.659340308 133.570971785C537.959851692 161.756907308 574.120340462 183.581984554 613.2143285 196.508858265C652.308316538 209.435731977 694.240946615 213.434494462 734.351648 208.296247231C779.567572769 203.784506923 823.072318462 188.955379 868.194476577 178.792903292C905.261433923 170.157692969 941.981163231 161.157518708 975.291530462 152.004766031C988.210199692 156.345448031 1092.68388308 184.9346428 1101.82417231 195.043500954" />
      <path
         id="path10570"
         style="stroke-linejoin:miter;opacity:1.0;stroke-opacity:1.0;fill-rule:evenodd;stroke:#000000;stroke-linecap:butt;stroke-width:1.0;fill:none"
         d="M508.285714 130.9336092C537.488757 158.7389575 573.383661 180.2898452 612.15296925 193.130190325C650.9222775 205.97053545 692.474646 210.071538 732.285714 205.219324C777.371046 200.99932 820.827565 186.5780595 865.77854175 176.4057418C902.9726585 167.7041241 939.769357 158.4061892 973.137876 148.7375804C985.578076 152.9174964 1092.05538 181.7705834 1100.85714 191.5050394" />
      <path
         id="path10572"
         style="stroke-linejoin:miter;opacity:1.0;stroke-opacity:1.0;fill-rule:evenodd;stroke:#000000;stroke-linecap:butt;stroke-width:1.0;fill:none"
         d="M507.912087692 128.296246615C537.017662308 155.721007692 572.646981538 176.997705846 611.09161 189.751522385C649.536238462 202.505338923 690.708345385 206.708581538 730.21978 202.142400769C775.174519231 198.214133077 818.582811538 184.20074 863.362606923 174.018580308C900.683883077 165.250555231 937.557550769 155.654859692 970.984221538 145.470394769C982.945952308 149.489544769 1091.42687692 178.606524 1099.89010769 187.966577846" />
      <path
         id="path10574"
         style="stroke-linejoin:miter;opacity:1.0;stroke-opacity:1.0;fill-rule:evenodd;stroke:#000000;stroke-linecap:butt;stroke-width:1.0;fill:none"
         d="M507.538461385 125.658884031C536.546567615 152.703057885 571.910302077 173.705566492 610.03025075 186.372854444C648.150199423 199.040142396 688.942044769 203.345625077 728.153846 199.065477538C772.977992462 195.428946154 816.338058077 181.8234205 860.946672096 171.631418815C898.395107654 162.796986362 935.345744538 152.903530185 968.830567077 142.203209138C980.313828615 146.061593138 1090.79837385 175.4424646 1098.92307538 184.428116292" />
      <path
         id="path10576"
         style="stroke-linejoin:miter;opacity:1.0;stroke-opacity:1.0;fill-rule:evenodd;stroke:#000000;stroke-linecap:butt;stroke-width:1.0;fill:none"
         d="M507.164835077 123.021521446C536.075472923 149.685108077 571.173622615 170.413427138 608.9688915 182.994186504C646.764160385 195.574945869 687.175744154 199.982668615 726.087912 195.988554308C770.781465692 192.643759231 814.093304615 179.446101 858.530737269 169.244257323C896.106332231 160.343417492 933.133938308 150.152200677 966.676912615 138.936023508C977.681704923 142.633641508 1090.16987077 172.2784052 1097.95604308 180.889654738" />
      <path
         id="path10578"
         style="stroke-linejoin:miter;opacity:1.0;stroke-opacity:1.0;fill-rule:evenodd;stroke:#000000;stroke-linecap:butt;stroke-width:1.0;fill:none"
         d="M506.791208769 120.384158862C535.604378231 146.667158269 570.436943154 167.121287785 607.90753225 179.615518563C645.378121346 192.109749342 685.409443538 196.619712154 724.021978 192.911631077C768.584938923 189.858572308 811.848551154 177.0687815 856.114802442 166.857095831C893.817556808 157.889848623 930.922132077 147.400871169 964.523258154 135.668837877C975.049581231 139.205689877 1089.54136769 169.1143458 1096.98901077 177.351193185" />
      <path
         id="path10580"
         style="stroke-linejoin:miter;opacity:1.0;stroke-opacity:1.0;fill-rule:evenodd;stroke:#000000;stroke-linecap:butt;stroke-width:1.0;fill:none"
         d="M506.417582462 117.746796277C535.133283538 143.649208462 569.700263692 163.829148431 606.846173 176.236850623C643.992082308 188.644552815 683.643142923 193.256755692 721.956044 189.834707846C766.388412154 187.073385385 809.603797692 174.691462 853.698867615 164.469934338C891.528781385 155.436279754 928.710325846 144.649541662 962.369603692 132.401652246C972.417457538 135.777738246 1088.91286462 165.9502864 1096.02197846 173.812731631" />
      <path
         id="path10582"
         style="stroke-linejoin:miter;opacity:1.0;stroke-opacity:1.0;fill-rule:evenodd;stroke:#000000;stroke-linecap:butt;stroke-width:1.0;fill:none"
         d="M506.043956154 115.109433692C534.662188846 140.631258654 568.963584231 160.537009077 605.78481375 172.858182683C642.606043269 185.179356288 681.876842308 189.893799231 719.89011 186.757784615C764.191885385 184.288198462 807.359044231 172.3141425 851.282932788 162.082772846C889.240005962 152.982710885 926.498519615 141.898212154 960.215949231 129.134466615C969.785333846 132.349786615 1088.28436154 162.786227 1095.05494615 170.274270077" />
      <path
         id="path10584"
         style="stroke-linejoin:miter;opacity:1.0;stroke-opacity:1.0;fill-rule:evenodd;stroke:#000000;stroke-linecap:butt;stroke-width:1.0;fill:none"
         d="M505.670329846 112.472071108C534.191094154 137.613308846 568.226904769 157.244869723 604.7234545 169.479514742C641.220004231 181.714159762 680.110541692 186.530842769 717.824176 183.680861385C761.995358615 181.503011538 805.114290769 169.936823 848.866997962 159.695611354C886.951230538 150.529142015 924.286713385 139.146882646 958.062294769 125.867280985C967.153210154 128.921834985 1087.65585846 159.6221676 1094.08791385 166.735808523" />
      <path
         id="path10586"
         style="stroke-linejoin:miter;opacity:1.0;stroke-opacity:1.0;fill-rule:evenodd;stroke:#000000;stroke-linecap:butt;stroke-width:1.0;fill:none"
         d="M505.296703538 109.834708523C533.719999462 134.595359038 567.490225308 153.952730369 603.66209525 166.100846802C639.833965192 178.248963235 678.344241077 183.167886308 715.758242 180.603938154C759.798831846 178.717824615 802.869537308 167.5595035 846.451063135 157.308449862C884.662455115 148.075573146 922.074907154 136.395553138 955.908640308 122.600095354C964.521086462 125.493883354 1087.02735538 156.4581082 1093.12088154 163.197346969" />
      <path
         id="path10588"
         style="stroke-linejoin:miter;opacity:1.0;stroke-opacity:1.0;fill-rule:evenodd;stroke:#000000;stroke-linecap:butt;stroke-width:1.0;fill:none"
         d="M504.923077231 107.197345938C533.248904769 131.577409231 566.753545846 150.660591015 602.600736 162.722178862C638.447926154 174.783766708 676.577940462 179.804929846 713.692308 177.527014923C757.602305077 175.932637692 800.624783846 165.182184 844.035128308 154.921288369C882.373679692 145.622004277 919.863100923 133.644223631 953.754985846 119.332909723C961.888962769 122.065931723 1086.39885231 153.2940488 1092.15384923 159.658885415" />
      <path
         id="path10590"
         style="stroke-linejoin:miter;opacity:1.0;stroke-opacity:1.0;fill-rule:evenodd;stroke:#000000;stroke-linecap:butt;stroke-width:1.0;fill:none"
         d="M504.549450923 104.559983354C532.777810077 128.559459423 566.016866385 147.368451662 601.53937675 159.343510921C637.061887115 171.318570181 674.811639846 176.441973385 711.626374 174.450091692C755.405778308 173.147450769 798.380030385 162.8048645 841.619193481 152.534126877C880.084904269 143.168435408 917.651294692 130.892894123 951.601331385 116.065724092C959.256839077 118.637980092 1085.77034923 150.1299894 1091.18681692 156.120423862" />
      <path
         id="path10592"
         style="stroke-linejoin:miter;opacity:1.0;stroke-opacity:1.0;fill-rule:evenodd;stroke:#000000;stroke-linecap:butt;stroke-width:1.0;fill:none"
         d="M504.175824615 101.922620769C532.306715385 125.541509615 565.280186923 144.076312308 600.4780175 155.964842981C635.675848077 167.853373654 673.045339231 173.079016923 709.56044 171.373168462C753.209251538 170.362263846 796.135276923 160.427545 839.203258654 150.146965385C877.796128846 140.714866538 915.439488462 128.141564615 949.447676923 112.798538462C956.624715385 115.210028462 1085.14184615 146.96593 1090.21978462 152.581962308" />
      <path
         id="path10594"
         style="stroke-linejoin:miter;opacity:1.0;stroke-opacity:1.0;fill-rule:evenodd;stroke:#000000;stroke-linecap:butt;stroke-width:1.0;fill:none"
         d="M503.802198308 99.2852581846C531.835620692 122.523559808 564.543507462 140.784172954 599.41665825 152.58617504C634.289809038 164.388177127 671.279038615 169.716060462 707.494506 168.296245231C751.012724769 167.577076923 793.890523462 158.0502255 836.787323827 147.759803892C875.507353423 138.261297669 913.227682231 125.390235108 947.294022462 109.531352831C953.992591692 111.782076831 1084.51334308 143.8018706 1089.25275231 149.043500754" />
      <path
         id="path10596"
         style="stroke-linejoin:miter;opacity:1.0;stroke-opacity:1.0;fill-rule:evenodd;stroke:#000000;stroke-linecap:butt;stroke-width:1.0;fill:none"
         d="M503.428572 96.6478956C531.364526 119.50561 563.806828 137.4920336 598.355299 149.2075071C632.90377 160.9229806 669.512738 166.353104 705.428572 165.219322C748.816198 164.79189 791.64577 155.672906 834.371389 145.3726424C873.218578 135.8077288 911.015876 122.6389056 945.140368 106.2641672C951.360468 108.3541252 1083.88484 140.6378112 1088.28572 145.5050392" />
      <path
         id="path10598"
         style="stroke-linejoin:miter;opacity:1.0;stroke-opacity:1.0;fill-rule:evenodd;stroke:#000000;stroke-linecap:butt;stroke-width:1.0;fill:none"
         d="M503.054945692 94.0105330154C530.893431308 116.487660192 563.070148538 134.199894246 597.29393975 145.82883916C631.517730962 157.457784073 667.746437385 162.990147538 703.362638 162.142398769C746.619671231 162.006703077 789.401016538 153.2955865 831.955454173 142.985480908C870.929802577 133.354159931 908.804069769 119.887576092 942.986713538 102.996981569C948.728344308 104.926173569 1083.25633692 137.4737518 1087.31868769 141.966577646" />
      <path
         id="path10600"
         style="stroke-linejoin:miter;opacity:1.0;stroke-opacity:1.0;fill-rule:evenodd;stroke:#000000;stroke-linecap:butt;stroke-width:1.0;fill:none"
         d="M502.681319385 91.3731704308C530.422336615 113.469710385 562.333469077 130.907754892 596.2325805 142.450171219C630.131691923 153.992587546 665.980136769 159.627191077 701.296704 159.065475538C744.423144462 159.221516154 787.156263077 150.918267 829.539519346 140.598319415C868.641027154 130.900591062 906.592263538 117.136246585 940.833059077 99.7297959385C946.096220615 101.498221938 1082.62783385 134.3096924 1086.35165538 138.428116092" />
      <path
         id="path10602"
         style="stroke-linejoin:miter;opacity:1.0;stroke-opacity:1.0;fill-rule:evenodd;stroke:#000000;stroke-linecap:butt;stroke-width:1.0;fill:none"
         d="M502.307693077 88.7358078462C529.951241923 110.451760577 561.596789615 127.615615538 595.17122125 139.071503279C628.745652885 150.527391019 664.213836154 156.264234615 699.23077 155.988552308C742.226617692 156.436329231 784.911509615 148.5409475 827.123584519 138.211157923C866.352251731 128.447022192 904.380457308 114.384917077 938.679404615 96.4626103077C943.464096923 98.0702703077 1081.99933077 131.145633 1085.38462308 134.889654538" />
      <path
         id="path10604"
         style="stroke-linejoin:miter;opacity:1.0;stroke-opacity:1.0;fill-rule:evenodd;stroke:#000000;stroke-linecap:butt;stroke-width:1.0;fill:none"
         d="M501.934066769 86.0984452615C529.480147231 107.433810769 560.860110154 124.323476185 594.109862 135.692835338C627.359613846 147.062194492 662.447535538 152.901278154 697.164836 152.911629077C740.030090923 153.651142308 782.666756154 146.163628 824.707649692 135.823996431C864.063476308 125.993453323 902.168651077 111.633587569 936.525750154 93.1954246769C940.831973231 94.6423186769 1081.37082769 127.9815736 1084.41759077 131.351192985" />
      <path
         id="path10606"
         style="stroke-linejoin:miter;opacity:1.0;stroke-opacity:1.0;fill-rule:evenodd;stroke:#000000;stroke-linecap:butt;stroke-width:1.0;fill:none"
         d="M501.560440462 83.4610826769C529.009052538 104.415860962 560.123430692 121.031336831 593.04850275 132.314167398C625.973574808 143.596997965 660.681234923 149.538321692 695.098902 149.834705846C737.833564154 150.865955385 780.422002692 143.7863085 822.291714865 133.436834938C861.774700885 123.539884454 899.956844846 108.882258062 934.372095692 89.9282390462C938.199849538 91.2143670462 1080.74232462 124.8175142 1083.45055846 127.812731431" />
      <path
         id="path10608"
         style="stroke-linejoin:miter;opacity:1.0;stroke-opacity:1.0;fill-rule:evenodd;stroke:#000000;stroke-linecap:butt;stroke-width:1.0;fill:none"
         d="M501.186814154 80.8237200923C528.537957846 101.397911154 559.386751231 117.739197477 591.9871435 128.935499458C624.587535769 140.131801438 658.914934308 146.175365231 693.032968 146.757782615C735.637037385 148.080768462 778.177249231 141.408989 819.875780038 131.049673446C859.485925462 121.086315585 897.745038615 106.130928554 932.218441231 86.6610534154C935.567725846 87.7864154154 1080.11382154 121.6534548 1082.48352615 124.274269877" />
      <path
         id="path10610"
         style="stroke-linejoin:miter;opacity:1.0;stroke-opacity:1.0;fill-rule:evenodd;stroke:#000000;stroke-linecap:butt;stroke-width:1.0;fill:none"
         d="M500.813187846 78.1863575077C528.066863154 98.3799613462 558.650071769 114.447058123 590.92578425 125.556831517C623.201496731 136.666604912 657.148633692 142.812408769 690.967034 143.680859385C733.440510615 145.295581538 775.932495769 139.0316695 817.459845212 128.662511954C857.197150038 118.632746715 895.533232385 103.379599046 930.064786769 83.3938677846C932.935602154 84.3584637846 1079.48531846 118.4893954 1081.51649385 120.735808323" />
      <path
         id="path10612"
         style="stroke-linejoin:miter;opacity:1.0;stroke-opacity:1.0;fill-rule:evenodd;stroke:#000000;stroke-linecap:butt;stroke-width:1.0;fill:none"
         d="M500.439561538 75.5489949231C527.595768462 95.3620115385 557.913392308 111.154918769 589.864425 122.178163577C621.815457692 133.201408385 655.382333077 139.449452308 688.9011 140.603936154C731.243983846 142.510394615 773.687742308 136.65435 815.043910385 126.275350462C854.908374615 116.179177846 893.321426154 100.628269538 927.911132308 80.1266821538C930.303478462 80.9305121538 1078.85681538 115.325336 1080.54946154 117.197346769" />
      <path
         id="path10614"
         style="stroke-linejoin:miter;opacity:1.0;stroke-opacity:1.0;fill-rule:evenodd;stroke:#000000;stroke-linecap:butt;stroke-width:1.0;fill:none"
         d="M500.065935231 72.9116323385C527.124673769 92.3440617308 557.176712846 107.862779415 588.80306575 118.799495637C620.429418654 129.736211858 653.616032462 136.086495846 686.835166 137.527012923C729.047457077 139.725207692 771.442988846 134.2770305 812.627975558 123.888188969C852.619599192 113.725608977 891.109619923 97.8769400308 925.757477846 76.8594965231C927.671354769 77.5025605231 1078.22831231 112.1612766 1079.58242923 113.658885215" />
      <path
         id="path10616"
         style="stroke-linejoin:miter;opacity:1.0;stroke-opacity:1.0;fill-rule:evenodd;stroke:#000000;stroke-linecap:butt;stroke-width:1.0;fill:none"
         d="M499.692308923 70.2742697538C526.653579077 89.3261119231 556.440033385 104.570640062 587.7417065 115.420827696C619.043379615 126.271015331 651.849731846 132.723539385 684.769232 134.450089692C726.850930308 136.940020769 769.198235385 131.899711 810.212040731 121.501027477C850.330823769 111.272040108 888.897813692 95.1256105231 923.603823385 73.5923108923C925.039231077 74.0746088923 1077.59980923 108.9972172 1078.61539692 110.120423662" />
      <path
         id="path10618"
         style="stroke-linejoin:miter;opacity:1.0;stroke-opacity:1.0;fill-rule:evenodd;stroke:#000000;stroke-linecap:butt;stroke-width:1.0;fill:none"
         d="M499.318682615 67.6369071692C526.182484385 86.3081621154 555.703353923 101.278500708 586.68034725 112.042159756C617.657340577 122.805818804 650.083431231 129.360582923 682.703298 131.373166462C724.654403538 134.154833846 766.953481923 129.5223915 807.796105904 119.113865985C848.042048346 108.818471238 886.686007462 92.3742810154 921.450168923 70.3251252615C922.407107385 70.6466572615 1076.97130615 105.8331578 1077.64836462 106.581962108" />
      <path
         id="path10620"
         style="stroke-linejoin:miter;opacity:1.0;stroke-opacity:1.0;fill-rule:evenodd;stroke:#000000;stroke-linecap:butt;stroke-width:1.0;fill:none"
         d="M498.945056308 64.9995445846C525.711389692 83.2902123077 554.966674462 97.9863613538 585.618988 108.663491815C616.271301538 119.340622277 648.317130615 125.997626462 680.637364 128.296243231C722.457876769 131.369646923 764.708728462 127.145072 805.380171077 116.726704492C845.753272923 106.364902369 884.474201231 89.6229515077 919.296514462 67.0579396308C919.774983692 67.2187056308 1076.34280308 102.6690984 1076.68133231 103.043500554" />
      <path
         id="path10622"
         style="stroke-linejoin:miter;opacity:1.0;stroke-opacity:1.0;fill-rule:evenodd;stroke:#000000;stroke-linecap:butt;stroke-width:1.0;fill:none"
         d="M498.57143 62.362182C525.240295 80.2722625 554.229995 94.694222 584.55762875 105.284823875C614.8852625 115.87542575 646.55083 122.63467 678.57143 125.21932C720.26135 128.58446 762.463975 124.7677525 802.96423625 114.339543C843.4644975 103.9113335 882.262395 86.871622 917.14286 63.790754C917.14286 63.790754 1075.7143 99.505039 1075.7143 99.505039" />
    </g>
  </g>
</svg>
