<?xml version="1.0" encoding="UTF-8" standalone="no"?>
<!-- Created with Inkscape (http://www.inkscape.org/) -->

<svg
   xmlns:dc="http://purl.org/dc/elements/1.1/"
   xmlns:cc="http://creativecommons.org/ns#"
   xmlns:rdf="http://www.w3.org/1999/02/22-rdf-syntax-ns#"
   xmlns:svg="http://www.w3.org/2000/svg"
   xmlns="http://www.w3.org/2000/svg"
   xmlns:sodipodi="http://sodipodi.sourceforge.net/DTD/sodipodi-0.dtd"
   xmlns:inkscape="http://www.inkscape.org/namespaces/inkscape"
   id="svg2"
   version="1.1"
   inkscape:version="0.91 r13725"
   xml:space="preserve"
   width="1488.1875"
   height="1052.3625"
   viewBox="0 0 1488.1875 1052.3625"
   sodipodi:docname="JOEL-XI_IPA-Logo 3D Bertema Digital_copyed.svg"><metadata
     id="metadata8"><rdf:RDF><cc:Work
         rdf:about=""><dc:format>image/svg+xml</dc:format><dc:type
           rdf:resource="http://purl.org/dc/dcmitype/StillImage" /><dc:title></dc:title></cc:Work></rdf:RDF></metadata><defs
     id="defs6"><clipPath
       clipPathUnits="userSpaceOnUse"
       id="clipPath16"><path
         d="m 0,841.89 1190.55,0 L 1190.55,0 0,0 0,841.89 Z"
         id="path18"
         inkscape:connector-curvature="0" /></clipPath><clipPath
       clipPathUnits="userSpaceOnUse"
       id="clipPath232"><path
         d="m 0,841.89 1190.55,0 L 1190.55,0 0,0 0,841.89 Z"
         id="path234"
         inkscape:connector-curvature="0" /></clipPath></defs><sodipodi:namedview
     pagecolor="#ffffff"
     bordercolor="#666666"
     borderopacity="1"
     objecttolerance="10"
     gridtolerance="10"
     guidetolerance="10"
     inkscape:pageopacity="0"
     inkscape:pageshadow="2"
     inkscape:window-width="1366"
     inkscape:window-height="744"
     id="namedview4"
     showgrid="false"
     inkscape:zoom="0.63429547"
     inkscape:cx="648.99027"
     inkscape:cy="636.45104"
     inkscape:window-x="0"
     inkscape:window-y="24"
     inkscape:window-maximized="1"
     inkscape:current-layer="g10" /><g
     id="g10"
     inkscape:groupmode="layer"
     inkscape:label="JOEL-XI_IPA-Logo 3D Bertema Digital"
     transform="matrix(1.25,0,0,-1.25,0,1052.3625)"><g
       id="g4977"><g
         id="g4870"><g
           id="g12"><g
             id="g14"
             clip-path="url(#clipPath16)"><g
               id="g20"
               transform="translate(159,573.8896)"><path
                 d="m 0,0 -72,0 c -39.765,0 -72,-32.235 -72,-72 0,-39.765 32.235,-72 72,-72 l 72,0 c 39.765,0 72,32.235 72,72 C 72,-32.235 39.765,0 0,0"
                 style="fill:#f7931d;fill-opacity:1;fill-rule:nonzero;stroke:none"
                 id="path22"
                 inkscape:connector-curvature="0" /></g><g
               id="g24"
               transform="translate(159,573.8896)"><path
                 d="m 0,0 -72,0 c -39.765,0 -72,-32.235 -72,-72 0,-39.765 32.235,-72 72,-72 l 72,0 c 39.765,0 72,32.235 72,72 C 72,-32.235 39.765,0 0,0 Z"
                 style="fill:none;stroke:#231f20;stroke-width:1;stroke-linecap:butt;stroke-linejoin:miter;stroke-miterlimit:4;stroke-dasharray:none;stroke-opacity:1"
                 id="path26"
                 inkscape:connector-curvature="0" /></g><g
               id="g28"
               transform="translate(85.6489,572.6938)"><path
                 d="m 0,0 c -38.918,0 -70.468,-31.886 -70.468,-70.804 0,-38.919 31.55,-70.805 70.468,-70.805 0,-0.06 4.674,-0.11 4.804,-0.11 l 65.134,0 c 0.129,0 4.764,0.05 4.764,0.11 38.919,0 70.468,31.886 70.468,70.805 C 145.17,-31.886 113.621,0 74.702,0 c 0,0.061 -4.674,0.111 -4.804,0.111 l -65.133,0 C 4.635,0.111 0,0.061 0,0"
                 style="fill:#f8941e;fill-opacity:1;fill-rule:nonzero;stroke:none"
                 id="path30"
                 inkscape:connector-curvature="0" /></g><g
               id="g32"
               transform="translate(84.2979,571.4985)"><path
                 d="m 0,0 c -38.073,0 -68.936,-31.536 -68.936,-69.609 0,-38.073 30.863,-69.609 68.936,-69.609 0,-0.121 4.681,-0.221 4.94,-0.221 l 67.563,0 c 0.26,0 4.901,0.1 4.901,0.221 38.073,0 68.936,31.536 68.936,69.609 C 146.34,-31.536 115.477,0 77.404,0 c 0,0.122 -4.68,0.221 -4.94,0.221 l -67.563,0 C 4.642,0.221 0,0.122 0,0"
                 style="fill:#f8951e;fill-opacity:1;fill-rule:nonzero;stroke:none"
                 id="path34"
                 inkscape:connector-curvature="0" /></g><g
               id="g36"
               transform="translate(82.9468,570.3027)"><path
                 d="m 0,0 c -37.227,0 -67.404,-31.187 -67.404,-68.413 0,-37.227 30.177,-68.413 67.404,-68.413 0,-0.183 4.687,-0.331 5.076,-0.331 l 69.992,0 c 0.39,0 5.038,0.148 5.038,0.331 37.227,0 67.405,31.186 67.405,68.413 0,37.226 -30.178,68.413 -67.405,68.413 0,0.183 -4.686,0.332 -5.076,0.332 l -69.992,0 C 4.648,0.332 0,0.183 0,0"
                 style="fill:#f8951f;fill-opacity:1;fill-rule:nonzero;stroke:none"
                 id="path38"
                 inkscape:connector-curvature="0" /></g><g
               id="g40"
               transform="translate(81.5957,569.1069)"><path
                 d="m 0,0 c -36.38,0 -65.872,-30.837 -65.872,-67.217 0,-36.381 29.492,-67.217 65.872,-67.217 0,-0.244 4.692,-0.443 5.212,-0.443 l 72.422,0 c 0.519,0 5.175,0.199 5.175,0.443 36.38,0 65.872,30.836 65.872,67.217 0,36.38 -29.492,67.217 -65.872,67.217 0,0.244 -4.693,0.442 -5.212,0.442 l -72.422,0 C 4.655,0.442 0,0.244 0,0"
                 style="fill:#f89620;fill-opacity:1;fill-rule:nonzero;stroke:none"
                 id="path42"
                 inkscape:connector-curvature="0" /></g><g
               id="g44"
               transform="translate(80.2446,567.9111)"><path
                 d="m 0,0 c -35.534,0 -64.34,-30.487 -64.34,-66.021 0,-35.535 28.806,-66.022 64.34,-66.022 0,-0.306 4.698,-0.553 5.348,-0.553 l 74.851,0 c 0.65,0 5.312,0.247 5.312,0.553 35.534,0 64.34,30.487 64.34,66.022 0,35.534 -28.806,66.021 -64.34,66.021 0,0.306 -4.698,0.553 -5.348,0.553 l -74.851,0 C 4.662,0.553 0,0.306 0,0"
                 style="fill:#f89621;fill-opacity:1;fill-rule:nonzero;stroke:none"
                 id="path46"
                 inkscape:connector-curvature="0" /></g><g
               id="g48"
               transform="translate(78.8936,566.7158)"><path
                 d="m 0,0 c -34.688,0 -62.809,-30.138 -62.809,-64.826 0,-34.689 28.121,-64.826 62.809,-64.826 0,-0.367 4.705,-0.663 5.484,-0.663 l 77.28,0 c 0.78,0 5.449,0.296 5.449,0.663 34.688,0 62.808,30.137 62.808,64.826 0,34.688 -28.12,64.826 -62.808,64.826 0,0.366 -4.705,0.663 -5.484,0.663 l -77.28,0 C 4.669,0.663 0,0.366 0,0"
                 style="fill:#f89721;fill-opacity:1;fill-rule:nonzero;stroke:none"
                 id="path50"
                 inkscape:connector-curvature="0" /></g><g
               id="g52"
               transform="translate(77.5425,565.52)"><path
                 d="m 0,0 c -33.842,0 -61.276,-29.788 -61.276,-63.63 0,-33.843 27.434,-63.631 61.276,-63.631 0,-0.427 4.71,-0.774 5.62,-0.774 l 79.71,0 c 0.909,0 5.585,0.347 5.585,0.774 33.842,0 61.276,29.788 61.276,63.631 0,33.842 -27.434,63.63 -61.276,63.63 0,0.427 -4.71,0.774 -5.62,0.774 l -79.71,0 C 4.676,0.774 0,0.427 0,0"
                 style="fill:#f89822;fill-opacity:1;fill-rule:nonzero;stroke:none"
                 id="path54"
                 inkscape:connector-curvature="0" /></g><g
               id="g56"
               transform="translate(76.1914,564.3242)"><path
                 d="m 0,0 c -32.996,0 -59.745,-29.438 -59.745,-62.435 0,-32.996 26.749,-62.434 59.745,-62.434 0,-0.489 4.716,-0.885 5.756,-0.885 l 82.139,0 c 1.04,0 5.722,0.396 5.722,0.885 32.996,0 59.745,29.438 59.745,62.434 0,32.997 -26.749,62.435 -59.745,62.435 0,0.489 -4.716,0.885 -5.756,0.885 l -82.139,0 C 4.683,0.885 0,0.489 0,0"
                 style="fill:#f89823;fill-opacity:1;fill-rule:nonzero;stroke:none"
                 id="path58"
                 inkscape:connector-curvature="0" /></g><g
               id="g60"
               transform="translate(74.8403,563.1289)"><path
                 d="m 0,0 c -32.15,0 -58.213,-29.089 -58.213,-61.239 0,-32.15 26.063,-61.24 58.213,-61.24 0,-0.549 4.722,-0.994 5.892,-0.994 l 84.568,0 c 1.169,0 5.859,0.445 5.859,0.994 32.15,0 58.213,29.09 58.213,61.24 0,32.15 -26.063,61.239 -58.213,61.239 0,0.549 -4.722,0.995 -5.891,0.995 l -84.569,0 C 4.689,0.995 0,0.549 0,0"
                 style="fill:#f89824;fill-opacity:1;fill-rule:nonzero;stroke:none"
                 id="path62"
                 inkscape:connector-curvature="0" /></g><g
               id="g64"
               transform="translate(73.4893,561.9331)"><path
                 d="m 0,0 c -31.304,0 -56.681,-28.739 -56.681,-60.043 0,-31.305 25.377,-60.044 56.681,-60.044 0,-0.61 4.729,-1.105 6.027,-1.105 l 86.999,0 c 1.299,0 5.995,0.495 5.995,1.105 31.305,0 56.681,28.739 56.681,60.044 0,31.304 -25.376,60.043 -56.681,60.043 0,0.61 -4.728,1.105 -6.027,1.105 l -86.998,0 C 4.696,1.105 0,0.61 0,0"
                 style="fill:#f89925;fill-opacity:1;fill-rule:nonzero;stroke:none"
                 id="path66"
                 inkscape:connector-curvature="0" /></g><g
               id="g68"
               transform="translate(72.1382,560.7373)"><path
                 d="m 0,0 c -30.458,0 -55.149,-28.39 -55.149,-58.848 0,-30.458 24.691,-58.847 55.149,-58.847 0,-0.672 4.734,-1.217 6.164,-1.217 l 89.427,0 c 1.429,0 6.133,0.545 6.133,1.217 30.458,0 55.149,28.389 55.149,58.847 0,30.458 -24.691,58.848 -55.149,58.848 0,0.672 -4.735,1.216 -6.164,1.216 l -89.428,0 C 4.703,1.216 0,0.672 0,0"
                 style="fill:#f89a26;fill-opacity:1;fill-rule:nonzero;stroke:none"
                 id="path70"
                 inkscape:connector-curvature="0" /></g><g
               id="g72"
               transform="translate(70.7871,559.542)"><path
                 d="m 0,0 c -29.612,0 -53.617,-28.041 -53.617,-57.652 0,-29.612 24.005,-57.653 53.617,-57.653 0,-0.732 4.74,-1.326 6.299,-1.326 l 91.858,0 c 1.558,0 6.269,0.594 6.269,1.326 29.612,0 53.616,28.041 53.616,57.653 0,29.611 -24.004,57.652 -53.616,57.652 0,0.732 -4.741,1.326 -6.3,1.326 l -91.857,0 C 4.71,1.326 0,0.732 0,0"
                 style="fill:#f89b27;fill-opacity:1;fill-rule:nonzero;stroke:none"
                 id="path74"
                 inkscape:connector-curvature="0" /></g><g
               id="g76"
               transform="translate(69.436,558.3462)"><path
                 d="m 0,0 c -28.766,0 -52.085,-27.69 -52.085,-56.457 0,-28.766 23.319,-56.456 52.085,-56.456 0,-0.794 4.747,-1.437 6.435,-1.437 l 94.287,0 c 1.689,0 6.406,0.643 6.406,1.437 28.766,0 52.085,27.69 52.085,56.456 0,28.767 -23.319,56.457 -52.085,56.457 0,0.793 -4.747,1.437 -6.435,1.437 l -94.287,0 C 4.717,1.437 0,0.793 0,0"
                 style="fill:#f89b28;fill-opacity:1;fill-rule:nonzero;stroke:none"
                 id="path78"
                 inkscape:connector-curvature="0" /></g><g
               id="g80"
               transform="translate(68.085,557.1504)"><path
                 d="m 0,0 c -27.92,0 -50.553,-27.341 -50.553,-55.261 0,-27.92 22.633,-55.26 50.553,-55.26 0,-0.855 4.752,-1.548 6.571,-1.548 l 96.717,0 c 1.818,0 6.542,0.693 6.542,1.548 27.92,0 50.553,27.34 50.553,55.26 0,27.92 -22.633,55.261 -50.553,55.261 0,0.855 -4.752,1.548 -6.571,1.548 l -96.717,0 C 4.724,1.548 0,0.855 0,0"
                 style="fill:#f99b29;fill-opacity:1;fill-rule:nonzero;stroke:none"
                 id="path82"
                 inkscape:connector-curvature="0" /></g><g
               id="g84"
               transform="translate(66.7339,555.9546)"><path
                 d="m 0,0 c -27.074,0 -49.021,-26.991 -49.021,-54.065 0,-27.074 21.947,-54.065 49.021,-54.065 0,-0.916 4.758,-1.659 6.707,-1.659 l 99.146,0 c 1.948,0 6.679,0.743 6.679,1.659 27.074,0 49.021,26.991 49.021,54.065 0,27.074 -21.947,54.065 -49.021,54.065 0,0.916 -4.758,1.659 -6.707,1.659 l -99.145,0 C 4.731,1.659 0,0.916 0,0"
                 style="fill:#f99c2a;fill-opacity:1;fill-rule:nonzero;stroke:none"
                 id="path86"
                 inkscape:connector-curvature="0" /></g><g
               id="g88"
               transform="translate(65.3828,554.7593)"><path
                 d="m 0,0 c -26.228,0 -47.489,-26.642 -47.489,-52.87 0,-26.227 21.261,-52.869 47.489,-52.869 0,-0.977 4.764,-1.769 6.843,-1.769 l 101.575,0 c 2.079,0 6.816,0.792 6.816,1.769 26.228,0 47.49,26.642 47.49,52.869 0,26.228 -21.262,52.87 -47.49,52.87 0,0.977 -4.764,1.769 -6.842,1.769 l -101.576,0 C 4.738,1.769 0,0.977 0,0"
                 style="fill:#f99d2b;fill-opacity:1;fill-rule:nonzero;stroke:none"
                 id="path90"
                 inkscape:connector-curvature="0" /></g><g
               id="g92"
               transform="translate(64.0317,553.5635)"><path
                 d="m 0,0 c -25.381,0 -45.957,-26.292 -45.957,-51.674 0,-25.382 20.576,-51.674 45.957,-51.674 0,-1.038 4.771,-1.879 6.979,-1.879 l 104.004,0 c 2.209,0 6.954,0.841 6.954,1.879 25.381,0 45.957,26.292 45.957,51.674 0,25.382 -20.576,51.674 -45.957,51.674 0,1.038 -4.771,1.879 -6.979,1.879 l -104.005,0 C 4.745,1.879 0,1.038 0,0"
                 style="fill:#f99d2c;fill-opacity:1;fill-rule:nonzero;stroke:none"
                 id="path94"
                 inkscape:connector-curvature="0" /></g><g
               id="g96"
               transform="translate(62.6807,552.3677)"><path
                 d="m 0,0 c -24.536,0 -44.425,-25.942 -44.425,-50.478 0,-24.536 19.889,-50.478 44.425,-50.478 0,-1.099 4.776,-1.99 7.115,-1.99 l 106.434,0 c 2.338,0 7.09,0.891 7.09,1.99 24.535,0 44.425,25.942 44.425,50.478 0,24.536 -19.89,50.478 -44.425,50.478 0,1.099 -4.777,1.99 -7.115,1.99 L 7.09,1.99 C 4.751,1.99 0,1.099 0,0"
                 style="fill:#f99d2d;fill-opacity:1;fill-rule:nonzero;stroke:none"
                 id="path98"
                 inkscape:connector-curvature="0" /></g><g
               id="g100"
               transform="translate(61.3296,551.1724)"><path
                 d="m 0,0 c -23.689,0 -42.894,-25.593 -42.894,-49.283 0,-23.689 19.205,-49.282 42.894,-49.282 0,-1.16 4.782,-2.101 7.25,-2.101 l 108.864,0 c 2.469,0 7.227,0.941 7.227,2.101 23.689,0 42.893,25.593 42.893,49.282 0,23.69 -19.204,49.283 -42.893,49.283 0,1.16 -4.783,2.1 -7.251,2.1 L 7.227,2.1 C 4.758,2.1 0,1.16 0,0"
                 style="fill:#f99e2e;fill-opacity:1;fill-rule:nonzero;stroke:none"
                 id="path102"
                 inkscape:connector-curvature="0" /></g><g
               id="g104"
               transform="translate(59.9785,549.9766)"><path
                 d="m 0,0 c -22.843,0 -41.361,-25.243 -41.361,-48.087 0,-22.844 18.518,-48.087 41.361,-48.087 0,-1.221 4.789,-2.211 7.387,-2.211 l 111.293,0 c 2.598,0 7.363,0.99 7.363,2.211 22.843,0 41.361,25.243 41.361,48.087 0,22.844 -18.518,48.087 -41.361,48.087 0,1.221 -4.789,2.211 -7.387,2.211 l -111.293,0 C 4.765,2.211 0,1.221 0,0"
                 style="fill:#f99f2f;fill-opacity:1;fill-rule:nonzero;stroke:none"
                 id="path106"
                 inkscape:connector-curvature="0" /></g><g
               id="g108"
               transform="translate(58.6274,548.7808)"><path
                 d="m 0,0 c -21.997,0 -39.83,-24.894 -39.83,-46.891 0,-21.998 17.833,-46.891 39.83,-46.891 0,-1.282 4.794,-2.322 7.522,-2.322 l 113.723,0 c 2.728,0 7.5,1.04 7.5,2.322 21.997,0 39.83,24.893 39.83,46.891 0,21.997 -17.833,46.891 -39.83,46.891 0,1.282 -4.794,2.322 -7.522,2.322 L 7.5,2.322 C 4.772,2.322 0,1.282 0,0"
                 style="fill:#f9a02f;fill-opacity:1;fill-rule:nonzero;stroke:none"
                 id="path110"
                 inkscape:connector-curvature="0" /></g><g
               id="g112"
               transform="translate(57.2764,547.5854)"><path
                 d="m 0,0 c -21.151,0 -38.298,-24.544 -38.298,-45.696 0,-21.151 17.147,-45.696 38.298,-45.696 0,-1.342 4.8,-2.431 7.658,-2.431 l 116.153,0 c 2.857,0 7.636,1.089 7.636,2.431 21.152,0 38.298,24.545 38.298,45.696 0,21.152 -17.146,45.696 -38.298,45.696 0,1.343 -4.801,2.432 -7.658,2.432 l -116.152,0 C 4.779,2.432 0,1.343 0,0"
                 style="fill:#f9a030;fill-opacity:1;fill-rule:nonzero;stroke:none"
                 id="path114"
                 inkscape:connector-curvature="0" /></g><g
               id="g116"
               transform="translate(55.9253,546.3896)"><path
                 d="m 0,0 c -20.305,0 -36.766,-24.195 -36.766,-44.5 0,-20.305 16.461,-44.5 36.766,-44.5 0,-1.404 4.806,-2.542 7.794,-2.542 l 118.582,0 c 2.988,0 7.773,1.138 7.773,2.542 20.306,0 36.766,24.195 36.766,44.5 0,20.305 -16.46,44.5 -36.766,44.5 0,1.404 -4.806,2.542 -7.794,2.542 l -118.582,0 C 4.786,2.542 0,1.404 0,0"
                 style="fill:#f9a031;fill-opacity:1;fill-rule:nonzero;stroke:none"
                 id="path118"
                 inkscape:connector-curvature="0" /></g><g
               id="g120"
               transform="translate(54.5747,545.1938)"><path
                 d="m 0,0 c -19.459,0 -35.234,-23.845 -35.234,-43.304 0,-19.46 15.775,-43.304 35.234,-43.304 0,-1.466 4.812,-2.654 7.93,-2.654 l 121.01,0 c 3.118,0 7.911,1.188 7.911,2.654 19.459,0 35.234,23.844 35.234,43.304 0,19.459 -15.775,43.304 -35.234,43.304 0,1.465 -4.812,2.653 -7.93,2.653 L 7.91,2.653 C 4.792,2.653 0,1.465 0,0"
                 style="fill:#f9a132;fill-opacity:1;fill-rule:nonzero;stroke:none"
                 id="path122"
                 inkscape:connector-curvature="0" /></g><g
               id="g124"
               transform="translate(53.2236,543.998)"><path
                 d="m 0,0 c -18.613,0 -33.702,-23.495 -33.702,-42.108 0,-18.614 15.089,-42.109 33.702,-42.109 0,-1.527 4.818,-2.764 8.066,-2.764 l 123.44,0 c 3.247,0 8.047,1.237 8.047,2.764 18.613,0 33.702,23.495 33.702,42.109 0,18.613 -15.089,42.108 -33.702,42.108 0,1.527 -4.818,2.764 -8.066,2.764 l -123.44,0 C 4.799,2.764 0,1.527 0,0"
                 style="fill:#f9a132;fill-opacity:1;fill-rule:nonzero;stroke:none"
                 id="path126"
                 inkscape:connector-curvature="0" /></g><g
               id="g128"
               transform="translate(51.8726,542.8027)"><path
                 d="m 0,0 c -17.768,0 -32.17,-23.146 -32.17,-40.913 0,-17.767 14.402,-40.913 32.17,-40.913 0,-1.588 4.824,-2.874 8.202,-2.874 l 125.869,0 c 3.378,0 8.184,1.286 8.184,2.874 17.767,0 32.17,23.146 32.17,40.913 0,17.767 -14.403,40.913 -32.17,40.913 0,1.587 -4.824,2.874 -8.202,2.874 l -125.869,0 C 4.806,2.874 0,1.587 0,0"
                 style="fill:#f9a234;fill-opacity:1;fill-rule:nonzero;stroke:none"
                 id="path130"
                 inkscape:connector-curvature="0" /></g><g
               id="g132"
               transform="translate(50.5215,541.6069)"><path
                 d="m 0,0 c -16.921,0 -30.639,-22.796 -30.639,-39.717 0,-16.921 13.718,-39.718 30.639,-39.718 0,-1.648 4.83,-2.984 8.337,-2.984 l 128.3,0 c 3.507,0 8.32,1.336 8.32,2.984 16.921,0 30.639,22.797 30.639,39.718 0,16.921 -13.718,39.717 -30.639,39.717 0,1.648 -4.83,2.985 -8.337,2.985 l -128.3,0 C 4.813,2.985 0,1.648 0,0"
                 style="fill:#faa334;fill-opacity:1;fill-rule:nonzero;stroke:none"
                 id="path134"
                 inkscape:connector-curvature="0" /></g><g
               id="g136"
               transform="translate(49.1704,540.4111)"><path
                 d="m 0,0 c -16.075,0 -29.106,-22.446 -29.106,-38.521 0,-16.076 13.031,-38.522 29.106,-38.522 0,-1.71 4.836,-3.096 8.474,-3.096 l 130.728,0 c 3.637,0 8.457,1.386 8.457,3.096 16.075,0 29.107,22.446 29.107,38.522 0,16.075 -13.032,38.521 -29.107,38.521 0,1.71 -4.836,3.096 -8.473,3.096 l -130.729,0 C 4.819,3.096 0,1.71 0,0"
                 style="fill:#faa335;fill-opacity:1;fill-rule:nonzero;stroke:none"
                 id="path138"
                 inkscape:connector-curvature="0" /></g><g
               id="g140"
               transform="translate(47.8193,539.2158)"><path
                 d="m 0,0 c -15.229,0 -27.575,-22.097 -27.575,-37.326 0,-15.229 12.346,-37.326 27.575,-37.326 0,-1.771 4.842,-3.206 8.609,-3.206 l 133.159,0 c 3.767,0 8.593,1.435 8.593,3.206 15.229,0 27.575,22.097 27.575,37.326 0,15.229 -12.346,37.326 -27.575,37.326 0,1.771 -4.842,3.206 -8.609,3.206 l -133.158,0 C 4.826,3.206 0,1.771 0,0"
                 style="fill:#faa336;fill-opacity:1;fill-rule:nonzero;stroke:none"
                 id="path142"
                 inkscape:connector-curvature="0" /></g><g
               id="g144"
               transform="translate(46.4683,538.02)"><path
                 d="m 0,0 c -14.383,0 -26.043,-21.748 -26.043,-36.13 0,-14.383 11.66,-36.131 26.043,-36.131 0,-1.831 4.848,-3.316 8.745,-3.316 l 135.588,0 c 3.897,0 8.73,1.485 8.73,3.316 14.384,0 26.043,21.748 26.043,36.131 0,14.382 -11.659,36.13 -26.043,36.13 0,1.832 -4.848,3.316 -8.745,3.316 L 8.73,3.316 C 4.833,3.316 0,1.832 0,0"
                 style="fill:#faa437;fill-opacity:1;fill-rule:nonzero;stroke:none"
                 id="path146"
                 inkscape:connector-curvature="0" /></g><g
               id="g148"
               transform="translate(45.1172,536.8242)"><path
                 d="m 0,0 c -13.537,0 -24.511,-21.397 -24.511,-34.935 0,-13.537 10.974,-34.934 24.511,-34.934 0,-1.893 4.854,-3.427 8.881,-3.427 l 138.017,0 c 4.027,0 8.868,1.534 8.868,3.427 13.537,0 24.51,21.397 24.51,34.934 0,13.538 -10.973,34.935 -24.51,34.935 0,1.893 -4.854,3.427 -8.882,3.427 l -138.017,0 C 4.84,3.427 0,1.893 0,0"
                 style="fill:#faa538;fill-opacity:1;fill-rule:nonzero;stroke:none"
                 id="path150"
                 inkscape:connector-curvature="0" /></g><g
               id="g152"
               transform="translate(43.7661,535.6289)"><path
                 d="m 0,0 c -12.691,0 -22.979,-21.048 -22.979,-33.739 0,-12.691 10.288,-33.74 22.979,-33.74 0,-1.953 4.86,-3.537 9.017,-3.537 l 140.447,0 c 4.157,0 9.004,1.584 9.004,3.537 12.691,0 22.979,21.049 22.979,33.74 0,12.691 -10.288,33.739 -22.979,33.739 0,1.954 -4.861,3.537 -9.017,3.537 l -140.447,0 C 4.847,3.537 0,1.954 0,0"
                 style="fill:#faa639;fill-opacity:1;fill-rule:nonzero;stroke:none"
                 id="path154"
                 inkscape:connector-curvature="0" /></g><g
               id="g156"
               transform="translate(42.415,534.4331)"><path
                 d="m 0,0 c -11.845,0 -21.447,-20.699 -21.447,-32.543 0,-11.845 9.602,-32.544 21.447,-32.544 0,-2.015 4.866,-3.648 9.153,-3.648 l 142.876,0 c 4.287,0 9.141,1.633 9.141,3.648 11.845,0 21.447,20.699 21.447,32.544 0,11.844 -9.602,32.543 -21.447,32.543 0,2.015 -4.866,3.648 -9.153,3.648 l -142.876,0 C 4.854,3.648 0,2.015 0,0"
                 style="fill:#faa639;fill-opacity:1;fill-rule:nonzero;stroke:none"
                 id="path158"
                 inkscape:connector-curvature="0" /></g><g
               id="g160"
               transform="translate(41.064,533.2373)"><path
                 d="m 0,0 c -10.999,0 -19.915,-20.349 -19.915,-31.348 0,-10.998 8.916,-31.347 19.915,-31.347 0,-2.076 4.872,-3.759 9.289,-3.759 l 145.305,0 c 4.417,0 9.278,1.683 9.278,3.759 10.999,0 19.915,20.349 19.915,31.347 0,10.999 -8.916,31.348 -19.915,31.348 0,2.076 -4.872,3.759 -9.289,3.759 l -145.305,0 C 4.86,3.759 0,2.076 0,0"
                 style="fill:#faa63a;fill-opacity:1;fill-rule:nonzero;stroke:none"
                 id="path162"
                 inkscape:connector-curvature="0" /></g><g
               id="g164"
               transform="translate(39.7129,532.0415)"><path
                 d="m 0,0 c -10.153,0 -18.383,-19.999 -18.383,-30.152 0,-10.153 8.23,-30.152 18.383,-30.152 0,-2.137 4.878,-3.869 9.425,-3.869 l 147.735,0 c 4.547,0 9.414,1.732 9.414,3.869 10.153,0 18.384,19.999 18.384,30.152 0,10.153 -8.231,30.152 -18.384,30.152 0,2.137 -4.878,3.87 -9.425,3.87 L 9.415,3.87 C 4.867,3.87 0,2.137 0,0"
                 style="fill:#faa73b;fill-opacity:1;fill-rule:nonzero;stroke:none"
                 id="path166"
                 inkscape:connector-curvature="0" /></g><g
               id="g168"
               transform="translate(38.3618,530.8462)"><path
                 d="m 0,0 c -9.307,0 -16.851,-19.65 -16.851,-28.957 0,-9.306 7.544,-28.956 16.851,-28.956 0,-2.198 4.884,-3.98 9.561,-3.98 l 150.164,0 c 4.677,0 9.551,1.782 9.551,3.98 9.307,0 16.851,19.65 16.851,28.956 0,9.307 -7.544,28.957 -16.851,28.957 0,2.198 -4.884,3.979 -9.56,3.979 l -150.165,0 C 4.875,3.979 0,2.198 0,0"
                 style="fill:#faa83c;fill-opacity:1;fill-rule:nonzero;stroke:none"
                 id="path170"
                 inkscape:connector-curvature="0" /></g><g
               id="g172"
               transform="translate(37.0107,529.6504)"><path
                 d="m 0,0 c -8.46,0 -15.319,-19.3 -15.319,-27.761 0,-8.46 6.859,-27.76 15.319,-27.76 0,-2.26 4.89,-4.091 9.697,-4.091 l 152.594,0 c 4.806,0 9.688,1.831 9.688,4.091 8.46,0 15.319,19.3 15.319,27.76 0,8.461 -6.859,27.761 -15.319,27.761 0,2.259 -4.891,4.09 -9.697,4.09 L 9.688,4.09 C 4.881,4.09 0,2.259 0,0"
                 style="fill:#faa93d;fill-opacity:1;fill-rule:nonzero;stroke:none"
                 id="path174"
                 inkscape:connector-curvature="0" /></g><g
               id="g176"
               transform="translate(35.6597,528.4546)"><path
                 d="m 0,0 c -7.615,0 -13.787,-18.95 -13.787,-26.565 0,-7.615 6.172,-26.565 13.787,-26.565 0,-2.32 4.896,-4.201 9.833,-4.201 l 155.023,0 c 4.936,0 9.825,1.881 9.825,4.201 7.614,0 13.787,18.95 13.787,26.565 0,7.615 -6.173,26.565 -13.787,26.565 0,2.32 -4.896,4.201 -9.833,4.201 l -155.023,0 C 4.888,4.201 0,2.32 0,0"
                 style="fill:#faa93e;fill-opacity:1;fill-rule:nonzero;stroke:none"
                 id="path178"
                 inkscape:connector-curvature="0" /></g><g
               id="g180"
               transform="translate(34.3086,527.2593)"><path
                 d="m 0,0 c -6.769,0 -12.255,-18.601 -12.255,-25.37 0,-6.768 5.486,-25.369 12.255,-25.369 0,-2.381 4.902,-4.311 9.968,-4.311 l 157.453,0 c 5.067,0 9.962,1.93 9.962,4.311 6.768,0 12.255,18.601 12.255,25.369 0,6.769 -5.487,25.37 -12.255,25.37 0,2.381 -4.903,4.311 -9.968,4.311 l -157.454,0 C 4.895,4.311 0,2.381 0,0"
                 style="fill:#faa93f;fill-opacity:1;fill-rule:nonzero;stroke:none"
                 id="path182"
                 inkscape:connector-curvature="0" /></g><g
               id="g184"
               transform="translate(32.9575,526.0635)"><path
                 d="m 0,0 c -5.922,0 -10.724,-18.251 -10.724,-24.174 0,-5.922 4.802,-24.174 10.724,-24.174 0,-2.442 4.908,-4.422 10.104,-4.422 l 159.883,0 c 5.196,0 10.098,1.98 10.098,4.422 5.922,0 10.724,18.252 10.724,24.174 0,5.923 -4.802,24.174 -10.724,24.174 0,2.442 -4.908,4.422 -10.105,4.422 l -159.882,0 C 4.902,4.422 0,2.442 0,0"
                 style="fill:#fbaa40;fill-opacity:1;fill-rule:nonzero;stroke:none"
                 id="path186"
                 inkscape:connector-curvature="0" /></g><g
               id="g188"
               transform="translate(31.6064,524.8677)"><path
                 d="m 0,0 c -5.076,0 -9.191,-17.902 -9.191,-22.978 0,-5.076 4.115,-22.978 9.191,-22.978 0,-2.503 4.914,-4.533 10.24,-4.533 l 162.312,0 c 5.326,0 10.235,2.03 10.235,4.533 5.076,0 9.192,17.902 9.192,22.978 0,5.076 -4.116,22.978 -9.192,22.978 0,2.503 -4.914,4.533 -10.24,4.533 l -162.312,0 C 4.909,4.533 0,2.503 0,0"
                 style="fill:#fbab41;fill-opacity:1;fill-rule:nonzero;stroke:none"
                 id="path190"
                 inkscape:connector-curvature="0" /></g><g
               id="g192"
               transform="translate(30.2554,523.6724)"><path
                 d="m 0,0 c -4.23,0 -7.66,-17.552 -7.66,-21.783 0,-4.23 3.43,-21.782 7.66,-21.782 0,-2.564 4.92,-4.643 10.376,-4.643 l 164.742,0 c 5.455,0 10.371,2.079 10.371,4.643 4.231,0 7.66,17.552 7.66,21.782 0,4.231 -3.429,21.783 -7.66,21.783 0,2.564 -4.92,4.643 -10.376,4.643 l -164.741,0 C 4.916,4.643 0,2.564 0,0"
                 style="fill:#fbab42;fill-opacity:1;fill-rule:nonzero;stroke:none"
                 id="path194"
                 inkscape:connector-curvature="0" /></g><g
               id="g196"
               transform="translate(28.9043,522.4766)"><path
                 d="m 0,0 c -3.384,0 -6.128,-17.203 -6.128,-20.587 0,-3.384 2.744,-20.587 6.128,-20.587 0,-2.625 4.926,-4.753 10.512,-4.753 l 167.171,0 c 5.586,0 10.508,2.128 10.508,4.753 3.385,0 6.128,17.203 6.128,20.587 0,3.384 -2.743,20.587 -6.128,20.587 0,2.625 -4.926,4.753 -10.512,4.753 l -167.17,0 C 4.922,4.753 0,2.625 0,0"
                 style="fill:#fbac43;fill-opacity:1;fill-rule:nonzero;stroke:none"
                 id="path198"
                 inkscape:connector-curvature="0" /></g><g
               id="g200"
               transform="translate(27.5532,521.2808)"><path
                 d="m 0,0 c -2.538,0 -4.596,-16.853 -4.596,-19.391 0,-2.538 2.058,-19.391 4.596,-19.391 0,-2.687 4.932,-4.864 10.648,-4.864 l 169.6,0 c 5.716,0 10.646,2.177 10.646,4.864 2.538,0 4.595,16.853 4.595,19.391 0,2.538 -2.057,19.391 -4.595,19.391 0,2.687 -4.933,4.864 -10.648,4.864 l -169.6,0 C 4.929,4.864 0,2.687 0,0"
                 style="fill:#fbac44;fill-opacity:1;fill-rule:nonzero;stroke:none"
                 id="path202"
                 inkscape:connector-curvature="0" /></g><g
               id="g204"
               transform="translate(26.2021,520.085)"><path
                 d="m 0,0 c -1.692,0 -3.064,-16.503 -3.064,-18.195 0,-1.692 1.372,-18.196 3.064,-18.196 0,-2.747 4.938,-4.975 10.784,-4.975 l 172.029,0 c 5.846,0 10.783,2.228 10.783,4.975 1.692,0 3.064,16.504 3.064,18.196 0,1.692 -1.372,18.195 -3.064,18.195 0,2.748 -4.938,4.975 -10.784,4.975 l -172.03,0 C 4.936,4.975 0,2.748 0,0"
                 style="fill:#fbad45;fill-opacity:1;fill-rule:nonzero;stroke:none"
                 id="path206"
                 inkscape:connector-curvature="0" /></g><g
               id="g208"
               transform="translate(24.8511,518.8896)"><path
                 d="m 0,0 c -0.846,0 -1.532,-16.154 -1.532,-17 0,-0.846 0.686,-17 1.532,-17 0,-2.809 4.944,-5.085 10.92,-5.085 l 174.459,0 c 5.975,0 10.919,2.276 10.919,5.085 0.846,0 1.532,16.154 1.532,17 0,0.846 -0.686,17 -1.532,17 0,2.809 -4.944,5.085 -10.92,5.085 l -174.459,0 C 4.943,5.085 0,2.809 0,0"
                 style="fill:#fbad46;fill-opacity:1;fill-rule:nonzero;stroke:none"
                 id="path210"
                 inkscape:connector-curvature="0" /></g><g
               id="g212"
               transform="translate(23.5,486.0854)"><path
                 d="m 0,0 c 0,-2.87 4.95,-5.196 11.056,-5.196 l 176.888,0 C 194.05,-5.196 199,-2.87 199,0 l 0,31.608 c 0,2.87 -4.95,5.196 -11.056,5.196 l -176.888,0 C 4.95,36.804 0,34.478 0,31.608 L 0,0 Z"
                 style="fill:#fbae47;fill-opacity:1;fill-rule:nonzero;stroke:none"
                 id="path214"
                 inkscape:connector-curvature="0" /></g></g></g><g
           id="g220"
           transform="translate(123,550.3896)"><g
             id="g4865"><g
               transform="translate(-48.5,-48.5)"
               id="g216"
               style=""><path
                 inkscape:connector-curvature="0"
                 id="path218"
                 style="fill:none;stroke:#ffd400;stroke-width:7;stroke-linecap:butt;stroke-linejoin:miter;stroke-miterlimit:4;stroke-dasharray:none;stroke-opacity:1"
                 d="M 0,0 97,0" /></g><path
               inkscape:connector-curvature="0"
               id="path222"
               style="fill:none;stroke:#ffd400;stroke-width:7;stroke-linecap:butt;stroke-linejoin:miter;stroke-miterlimit:4;stroke-dasharray:none;stroke-opacity:1"
               d="M 0,0 0,-97" /></g></g></g><text
         id="text224"
         style="font-variant:normal;font-weight:normal;font-stretch:normal;font-size:99px;font-family:'Segoe UI';-inkscape-font-specification:SegoeUI;writing-mode:lr-tb;fill:#404977;fill-opacity:1;fill-rule:nonzero;stroke:#000000;stroke-opacity:1;stroke-width:0.4;stroke-miterlimit:4;stroke-dasharray:none"
         transform="matrix(1,0,0,-1,231,466.6064)"><tspan
           id="tspan226"
           sodipodi:role="line"
           y="0"
           x="0 51.777 103.554 138.006 185.229 237.006 295.31699 347.09399 371.052 398.17801 459.45901 517.47302 551.92499 610.13702 668.151 702.60303 752.89502 786.45599 810.414 868.42798">Perkedel Corporation</tspan></text>
</g><g
       id="g228"
       transform="translate(14.217943,-89.624679)"><g
         id="g230"
         clip-path="url(#clipPath232)"><g
           id="g236"
           transform="translate(257.3452,492.8066)"><path
             d="m 0,0 c 7.702,0 13.817,2.094 18.345,6.284 4.527,4.189 6.792,9.571 6.792,16.146 0,6.574 -2.039,11.665 -6.115,15.275 -4.078,3.609 -9.822,5.414 -17.233,5.414 l -19.046,0 0,-69.319 8.121,0 0,26.2 L 0,0 Z m 0.387,35.771 c 10.828,0 16.242,-4.576 16.242,-13.728 0,-4.673 -1.474,-8.29 -4.423,-10.853 C 9.257,8.629 4.979,7.348 -0.628,7.348 l -8.508,0 0,28.423 9.523,0 z"
             style="fill:none;stroke:#231f20;stroke-width:0.5;stroke-linecap:butt;stroke-linejoin:miter;stroke-miterlimit:4;stroke-dasharray:none;stroke-opacity:1"
             id="path238"
             inkscape:connector-curvature="0" /></g><g
           id="g240"
           transform="translate(330.5801,493.5317)"><path
             d="m 0,0 c 0,7.444 -1.773,13.261 -5.317,17.451 -3.546,4.189 -8.557,6.284 -15.034,6.284 -6.478,0 -11.9,-2.425 -16.266,-7.276 -4.368,-4.85 -6.55,-11.126 -6.55,-18.828 0,-8.153 1.997,-14.477 5.994,-18.973 3.995,-4.495 9.49,-6.743 16.484,-6.743 7.154,0 12.906,1.578 17.257,4.737 l 0,7.444 c -4.673,-3.674 -9.797,-5.511 -15.372,-5.511 -4.964,0 -8.863,1.499 -11.698,4.496 -2.837,2.997 -4.319,7.251 -4.448,12.762 L 0,-4.157 0,0 Z m -34.853,2.562 c 0.612,4.318 2.224,7.814 4.834,10.49 2.61,2.674 5.784,4.012 9.523,4.012 3.867,0 6.889,-1.273 9.063,-3.819 2.176,-2.546 3.279,-6.107 3.312,-10.683 l -26.732,0 z"
             style="fill:none;stroke:#231f20;stroke-width:0.5;stroke-linecap:butt;stroke-linejoin:miter;stroke-miterlimit:4;stroke-dasharray:none;stroke-opacity:1"
             id="path242"
             inkscape:connector-curvature="0" /></g><g
           id="g244"
           transform="translate(368.3818,516.2998)"><path
             d="m 0,0 c -1.096,0.451 -2.675,0.677 -4.737,0.677 -2.869,0 -5.463,-0.975 -7.783,-2.925 -2.32,-1.95 -4.045,-4.665 -5.172,-8.145 l -0.194,0 0,10.2 -7.927,0 0,-49.5 7.927,0 0,25.233 c 0,5.511 1.136,9.861 3.408,13.052 2.272,3.19 5.1,4.785 8.484,4.785 2.61,0 4.608,-0.531 5.994,-1.595 L 0,0 Z"
             style="fill:none;stroke:#231f20;stroke-width:0.5;stroke-linecap:butt;stroke-linejoin:miter;stroke-miterlimit:4;stroke-dasharray:none;stroke-opacity:1"
             id="path246"
             inkscape:connector-curvature="0" /></g><g
           id="g248"
           transform="translate(393.3252,492.2266)"><path
             d="m 0,0 22.961,23.88 -10.393,0 -20.786,-22.672 -0.193,0 0,46.455 -7.928,0 0,-73.283 7.928,0 0,23.783 0.193,0 21.85,-23.783 11.118,0 L 0,0 Z"
             style="fill:none;stroke:#231f20;stroke-width:0.5;stroke-linecap:butt;stroke-linejoin:miter;stroke-miterlimit:4;stroke-dasharray:none;stroke-opacity:1"
             id="path250"
             inkscape:connector-curvature="0" /></g><g
           id="g252"
           transform="translate(463.998,493.5317)"><path
             d="m 0,0 c 0,7.444 -1.773,13.261 -5.317,17.451 -3.546,4.189 -8.557,6.284 -15.034,6.284 -6.478,0 -11.9,-2.425 -16.266,-7.276 -4.368,-4.85 -6.55,-11.126 -6.55,-18.828 0,-8.153 1.997,-14.477 5.994,-18.973 3.995,-4.495 9.49,-6.743 16.484,-6.743 7.154,0 12.906,1.578 17.257,4.737 l 0,7.444 c -4.673,-3.674 -9.797,-5.511 -15.372,-5.511 -4.964,0 -8.863,1.499 -11.698,4.496 -2.837,2.997 -4.319,7.251 -4.448,12.762 L 0,-4.157 0,0 Z m -34.853,2.562 c 0.612,4.318 2.224,7.814 4.834,10.49 2.61,2.674 5.784,4.012 9.523,4.012 3.867,0 6.889,-1.273 9.063,-3.819 2.176,-2.546 3.279,-6.107 3.312,-10.683 l -26.732,0 z"
             style="fill:none;stroke:#231f20;stroke-width:0.5;stroke-linecap:butt;stroke-linejoin:miter;stroke-miterlimit:4;stroke-dasharray:none;stroke-opacity:1"
             id="path254"
             inkscape:connector-curvature="0" /></g><g
           id="g256"
           transform="translate(518.2354,539.8896)"><path
             d="m 0,0 -7.928,0 0,-30.647 -0.193,0 c -3.094,5.349 -8.041,8.024 -14.84,8.024 -6.865,0 -12.36,-2.465 -16.484,-7.396 -4.126,-4.931 -6.188,-11.489 -6.188,-19.674 0,-7.638 1.862,-13.673 5.583,-18.104 3.723,-4.431 8.693,-6.646 14.913,-6.646 7.67,0 13.342,3.19 17.016,9.571 l 0.193,0 0,-8.411 7.928,0 L 0,0 Z m -12.061,-62.987 c -2.755,-3.19 -6.341,-4.785 -10.755,-4.785 -4.48,0 -8.049,1.65 -10.707,4.955 -2.66,3.302 -3.989,7.806 -3.989,13.51 0,6.252 1.386,11.15 4.158,14.696 2.771,3.544 6.574,5.317 11.408,5.317 4.06,0 7.411,-1.386 10.054,-4.157 2.642,-2.772 3.964,-6.156 3.964,-10.152 l 0,-7.299 c 0,-4.867 -1.378,-8.894 -4.133,-12.085 z"
             style="fill:none;stroke:#231f20;stroke-width:0.5;stroke-linecap:butt;stroke-linejoin:miter;stroke-miterlimit:4;stroke-dasharray:none;stroke-opacity:1"
             id="path258"
             inkscape:connector-curvature="0" /></g><g
           id="g260"
           transform="translate(574.0679,493.5317)"><path
             d="m 0,0 c 0,7.444 -1.773,13.261 -5.317,17.451 -3.546,4.189 -8.557,6.284 -15.034,6.284 -6.478,0 -11.9,-2.425 -16.267,-7.276 -4.367,-4.85 -6.549,-11.126 -6.549,-18.828 0,-8.153 1.997,-14.477 5.994,-18.973 3.995,-4.495 9.49,-6.743 16.484,-6.743 7.154,0 12.906,1.578 17.257,4.737 l 0,7.444 c -4.673,-3.674 -9.797,-5.511 -15.372,-5.511 -4.964,0 -8.863,1.499 -11.698,4.496 -2.837,2.997 -4.319,7.251 -4.448,12.762 L 0,-4.157 0,0 Z m -34.853,2.562 c 0.612,4.318 2.224,7.814 4.834,10.49 2.61,2.674 5.784,4.012 9.523,4.012 3.867,0 6.888,-1.273 9.064,-3.819 2.175,-2.546 3.278,-6.107 3.311,-10.683 l -26.732,0 z"
             style="fill:none;stroke:#231f20;stroke-width:0.5;stroke-linecap:butt;stroke-linejoin:miter;stroke-miterlimit:4;stroke-dasharray:none;stroke-opacity:1"
             id="path262"
             inkscape:connector-curvature="0" /></g><path
           d="m 593.984,539.89 -7.928,0 0,-73.283 7.928,0 0,73.283 z"
           style="fill:none;stroke:#231f20;stroke-width:0.5;stroke-linecap:butt;stroke-linejoin:miter;stroke-miterlimit:4;stroke-dasharray:none;stroke-opacity:1"
           id="path264"
           inkscape:connector-curvature="0" /><g
           id="g266"
           transform="translate(685.3945,477.3862)"><path
             d="m 0,0 c -5.093,-3.094 -11.118,-4.641 -18.079,-4.641 -7.51,0 -13.576,2.506 -18.2,7.517 -4.625,5.011 -6.937,11.738 -6.937,20.182 0,8.895 2.473,16.001 7.42,21.318 4.946,5.317 11.4,7.976 19.36,7.976 5.995,0 11.473,-1.386 16.436,-4.157 l 0,8.653 c -4.319,1.901 -9.765,2.852 -16.339,2.852 -10.248,0 -18.708,-3.417 -25.378,-10.248 -6.672,-6.833 -10.007,-15.792 -10.007,-26.877 0,-10.313 2.965,-18.644 8.895,-24.992 5.929,-6.349 13.825,-9.523 23.686,-9.523 7.638,0 14.019,1.354 19.143,4.061 L 0,0 Z"
             style="fill:none;stroke:#231f20;stroke-width:0.5;stroke-linecap:butt;stroke-linejoin:miter;stroke-miterlimit:4;stroke-dasharray:none;stroke-opacity:1"
             id="path268"
             inkscape:connector-curvature="0" /></g><g
           id="g270"
           transform="translate(737.0938,472.5762)"><path
             d="m 0,0 c 4.463,4.753 6.695,11.078 6.695,18.974 0,8.056 -2.071,14.357 -6.212,18.901 -4.141,4.543 -9.902,6.815 -17.281,6.815 -7.734,0 -13.874,-2.336 -18.417,-7.009 -4.545,-4.673 -6.816,-11.166 -6.816,-19.481 0,-7.637 2.182,-13.769 6.55,-18.393 4.366,-4.625 10.207,-6.937 17.523,-6.937 7.509,0 13.494,2.376 17.958,7.13 z m -5.559,32.992 c 2.755,-3.352 4.133,-8.121 4.133,-14.308 0,-6.124 -1.378,-10.845 -4.133,-14.164 -2.755,-3.32 -6.695,-4.979 -11.819,-4.979 -5.027,0 -9.04,1.692 -12.036,5.076 -2.998,3.383 -4.496,8.008 -4.496,13.873 0,6.091 1.481,10.868 4.447,14.333 2.965,3.464 6.992,5.197 12.085,5.197 5.124,0 9.064,-1.677 11.819,-5.028 z"
             style="fill:none;stroke:#231f20;stroke-width:0.5;stroke-linecap:butt;stroke-linejoin:miter;stroke-miterlimit:4;stroke-dasharray:none;stroke-opacity:1"
             id="path272"
             inkscape:connector-curvature="0" /></g><g
           id="g274"
           transform="translate(782.2676,516.2998)"><path
             d="m 0,0 c -1.096,0.451 -2.676,0.677 -4.737,0.677 -2.869,0 -5.462,-0.975 -7.783,-2.925 -2.32,-1.95 -4.044,-4.665 -5.172,-8.145 l -0.194,0 0,10.2 -7.927,0 0,-49.5 7.927,0 0,25.233 c 0,5.511 1.136,9.861 3.408,13.052 2.272,3.19 5.1,4.785 8.484,4.785 2.61,0 4.608,-0.531 5.994,-1.595 L 0,0 Z"
             style="fill:none;stroke:#231f20;stroke-width:0.5;stroke-linecap:butt;stroke-linejoin:miter;stroke-miterlimit:4;stroke-dasharray:none;stroke-opacity:1"
             id="path276"
             inkscape:connector-curvature="0" /></g><g
           id="g278"
           transform="translate(813.834,465.4463)"><path
             d="m 0,0 c 6.992,0 12.503,2.489 16.531,7.469 4.029,4.978 6.043,11.609 6.043,19.891 0,7.445 -1.789,13.382 -5.365,17.814 -3.578,4.43 -8.557,6.646 -14.938,6.646 -7.509,0 -13.213,-3.287 -17.112,-9.861 l -0.193,0 0,8.701 -7.928,0 0,-72.268 7.928,0 0,29.922 0.193,0 C -11.36,2.771 -6.414,0 0,0 Z m -10.828,40.34 c 2.803,3.206 6.509,4.809 11.117,4.809 4.352,0 7.799,-1.563 10.346,-4.689 2.545,-3.126 3.818,-7.444 3.818,-12.955 0,-6.542 -1.362,-11.65 -4.085,-15.323 C 7.645,8.508 3.883,6.671 -0.919,6.671 c -4.093,0 -7.469,1.426 -10.127,4.278 -2.659,2.852 -3.988,6.324 -3.988,10.417 l 0,6.913 c 0,4.834 1.401,8.853 4.206,12.061 z"
             style="fill:none;stroke:#231f20;stroke-width:0.5;stroke-linecap:butt;stroke-linejoin:miter;stroke-miterlimit:4;stroke-dasharray:none;stroke-opacity:1"
             id="path280"
             inkscape:connector-curvature="0" /></g><g
           id="g282"
           transform="translate(887.7207,472.5762)"><path
             d="m 0,0 c 4.463,4.753 6.695,11.078 6.695,18.974 0,8.056 -2.071,14.357 -6.212,18.901 -4.141,4.543 -9.902,6.815 -17.281,6.815 -7.734,0 -13.874,-2.336 -18.417,-7.009 -4.545,-4.673 -6.816,-11.166 -6.816,-19.481 0,-7.637 2.182,-13.769 6.55,-18.393 4.366,-4.625 10.207,-6.937 17.523,-6.937 7.509,0 13.494,2.376 17.958,7.13 z m -5.559,32.992 c 2.755,-3.352 4.133,-8.121 4.133,-14.308 0,-6.124 -1.378,-10.845 -4.133,-14.164 -2.755,-3.32 -6.695,-4.979 -11.819,-4.979 -5.027,0 -9.04,1.692 -12.036,5.076 -2.998,3.383 -4.496,8.008 -4.496,13.873 0,6.091 1.481,10.868 4.447,14.333 2.965,3.464 6.992,5.197 12.085,5.197 5.124,0 9.064,-1.677 11.819,-5.028 z"
             style="fill:none;stroke:#231f20;stroke-width:0.5;stroke-linecap:butt;stroke-linejoin:miter;stroke-miterlimit:4;stroke-dasharray:none;stroke-opacity:1"
             id="path284"
             inkscape:connector-curvature="0" /></g><g
           id="g286"
           transform="translate(932.8945,516.2998)"><path
             d="m 0,0 c -1.096,0.451 -2.676,0.677 -4.737,0.677 -2.869,0 -5.462,-0.975 -7.783,-2.925 -2.32,-1.95 -4.044,-4.665 -5.172,-8.145 l -0.194,0 0,10.2 -7.927,0 0,-49.5 7.927,0 0,25.233 c 0,5.511 1.136,9.861 3.408,13.052 2.272,3.19 5.1,4.785 8.484,4.785 2.61,0 4.608,-0.531 5.994,-1.595 L 0,0 Z"
             style="fill:none;stroke:#231f20;stroke-width:0.5;stroke-linecap:butt;stroke-linejoin:miter;stroke-miterlimit:4;stroke-dasharray:none;stroke-opacity:1"
             id="path288"
             inkscape:connector-curvature="0" /></g><g
           id="g290"
           transform="translate(976.9316,498.8008)"><path
             d="m 0,0 c 0,12.31 -5.817,18.466 -17.45,18.466 -6.35,0 -11.957,-1.547 -16.822,-4.641 l 0,-8.121 c 4.801,4.061 10.182,6.091 16.145,6.091 6.799,0 10.199,-4.206 10.199,-12.617 L -22.768,-2.9 c -10.893,-1.516 -16.338,-6.897 -16.338,-16.146 0,-4.319 1.393,-7.783 4.181,-10.393 2.787,-2.61 6.647,-3.915 11.577,-3.915 6.702,0 11.779,2.964 15.227,8.894 l 0.193,0 0,-7.734 7.928,0 L 0,0 Z m -7.928,-12.085 c 0,-4.222 -1.28,-7.71 -3.843,-10.466 -2.561,-2.755 -5.808,-4.133 -9.74,-4.133 -2.869,0 -5.165,0.766 -6.888,2.296 -1.725,1.531 -2.586,3.505 -2.586,5.922 0,3.319 0.934,5.632 2.803,6.937 1.869,1.305 4.641,2.215 8.315,2.731 l 11.939,1.644 0,-4.931 z"
             style="fill:none;stroke:#231f20;stroke-width:0.5;stroke-linecap:butt;stroke-linejoin:miter;stroke-miterlimit:4;stroke-dasharray:none;stroke-opacity:1"
             id="path292"
             inkscape:connector-curvature="0" /></g><g
           id="g294"
           transform="translate(1014.832,473.8574)"><path
             d="m 0,0 c -1.451,-1.096 -3.175,-1.644 -5.173,-1.644 -2.61,0 -4.479,0.709 -5.607,2.127 -1.129,1.418 -1.693,3.787 -1.693,7.106 l 0,27.892 12.473,0 0,6.768 -12.473,0 0,14.647 -7.927,-2.562 0,-12.085 -8.508,0 0,-6.768 8.508,0 0,-29.293 c 0,-9.668 4.334,-14.502 13.004,-14.502 3.061,0 5.526,0.516 7.396,1.546 L 0,0 Z"
             style="fill:none;stroke:#231f20;stroke-width:0.5;stroke-linecap:butt;stroke-linejoin:miter;stroke-miterlimit:4;stroke-dasharray:none;stroke-opacity:1"
             id="path296"
             inkscape:connector-curvature="0" /></g><g
           id="g298"
           transform="translate(1033.1758,530.1733)"><path
             d="M 0,0 C 1.015,0.999 1.522,2.207 1.522,3.625 1.522,5.107 1.015,6.34 0,7.324 -1.016,8.306 -2.248,8.798 -3.698,8.798 -5.117,8.798 -6.325,8.306 -7.324,7.324 -8.323,6.34 -8.822,5.107 -8.822,3.625 c 0,-1.482 0.499,-2.707 1.498,-3.673 0.999,-0.967 2.207,-1.451 3.626,-1.451 C -2.248,-1.499 -1.016,-1 0,0 Z m 0.169,-14.067 -7.928,0 0,-49.5 7.928,0 0,49.5 z"
             style="fill:none;stroke:#231f20;stroke-width:0.5;stroke-linecap:butt;stroke-linejoin:miter;stroke-miterlimit:4;stroke-dasharray:none;stroke-opacity:1"
             id="path300"
             inkscape:connector-curvature="0" /></g><g
           id="g302"
           transform="translate(1088.041,472.5762)"><path
             d="m 0,0 c 4.463,4.753 6.695,11.078 6.695,18.974 0,8.056 -2.071,14.357 -6.212,18.901 -4.141,4.543 -9.902,6.815 -17.281,6.815 -7.734,0 -13.874,-2.336 -18.417,-7.009 -4.545,-4.673 -6.816,-11.166 -6.816,-19.481 0,-7.637 2.182,-13.769 6.55,-18.393 4.366,-4.625 10.207,-6.937 17.523,-6.937 7.509,0 13.494,2.376 17.958,7.13 z m -5.559,32.992 c 2.755,-3.352 4.133,-8.121 4.133,-14.308 0,-6.124 -1.378,-10.845 -4.133,-14.164 -2.755,-3.32 -6.695,-4.979 -11.819,-4.979 -5.027,0 -9.04,1.692 -12.036,5.076 -2.998,3.383 -4.496,8.008 -4.496,13.873 0,6.091 1.481,10.868 4.447,14.333 2.965,3.464 6.992,5.197 12.085,5.197 5.124,0 9.064,-1.677 11.819,-5.028 z"
             style="fill:none;stroke:#231f20;stroke-width:0.5;stroke-linecap:butt;stroke-linejoin:miter;stroke-miterlimit:4;stroke-dasharray:none;stroke-opacity:1"
             id="path304"
             inkscape:connector-curvature="0" /></g><g
           id="g306"
           transform="translate(1148.4902,496.8672)"><path
             d="m 0,0 c 0,6.606 -1.435,11.657 -4.303,15.154 -2.868,3.497 -7.009,5.245 -12.423,5.245 -7.089,0 -12.503,-3.126 -16.242,-9.378 l -0.193,0 0,8.218 -7.928,0 0,-49.5 7.928,0 0,28.231 c 0,4.544 1.297,8.306 3.891,11.287 2.594,2.98 5.874,4.472 9.837,4.472 7.669,0 11.505,-5.254 11.505,-15.759 l 0,-28.231 7.928,0 L 0,0 Z"
             style="fill:none;stroke:#231f20;stroke-width:0.5;stroke-linecap:butt;stroke-linejoin:miter;stroke-miterlimit:4;stroke-dasharray:none;stroke-opacity:1"
             id="path308"
             inkscape:connector-curvature="0" /></g></g></g><text
       transform="matrix(1,0,0,-1,73.2578,749.5928)"
       style="font-variant:normal;font-weight:normal;font-stretch:normal;font-size:72px;font-family:'Segoe UI';-inkscape-font-specification:SegoeUI;writing-mode:lr-tb;fill:#231f20;fill-opacity:1;fill-rule:nonzero;stroke:none"
       id="text310"><tspan
         x="0 35.136002 77.328003 102.384 122.112 146.52 187.272 224.92799 244.65601 267.19199 284.616 310.104 340.63199 365.04001 384.76801 409.17599 426.60001 488.59201 526.24799 541.87201"
         y="0"
         sodipodi:role="line"
         id="tspan312">For the first time, </tspan><tspan
         x="561.59998 587.30402 629.49597 667.15198"
         y="0"
         sodipodi:role="line"
         id="tspan314">Joel</tspan><tspan
         x="684.57599 704.30402 745.05603 781.70398 812.23199 831.96002 865.224 889.27197 926.92798 963.57599 987.40802 1025.064 1067.472"
         y="0"
         sodipodi:role="line"
         id="tspan316"> has created </tspan><tspan
         x="244.224 284.97601 302.39999 332.92801 352.65601 385.92001 428.112 490.104 531.50403 568.15198 608.90399 643.75201 663.47998 680.90399 723.09601 765.50403 807.69598"
         y="86.400002"
         sodipodi:role="line"
         id="tspan318">his company logo:</tspan><tspan
         x="34.560001 75.311996 105.84 123.264 164.01601 206.424 226.15199 272.59201 315 357.19199 399.52802 437.18399 456.91199 476.064 493.48801 510.91199 551.664 582.19202 606.59998 631.65601 668.30402 692.13599 734.328 759.38397 779.112 823.67999 861.91199 900.71997 920.448 962.784 1003.536 1027.944"
         y="408.02399"
         sodipodi:role="line"
         id="tspan320">using Adobe Illustrator CS4 but </tspan><tspan
         x="19.584 43.992001 84.744003 102.168 132.696 152.424 169.84801 212.03999 254.448 296.64001 316.36801 333.79199 364.32001 384.048 424.79999 466.992 491.39999 511.12799 548.784 581.83197 618.47998 651.74402 676.15198 693.57599 728.42401 748.15198 765.57599 807.76801 849.96002 885.74402 916.27197 936 953.42401 970.84802 1005.192 1042.848"
         y="494.42401"
         sodipodi:role="line"
         id="tspan322">this logo is not exactly looks like </tspan><tspan
         x="105.336 141.98399 172.51199 192.24001 244.29601 285.048 321.69601 346.104 365.832 406.58401 444.23999 463.96799 504.72 541.36798 583.776 603.50403 636.76801 678.96002 719.71198 752.97601 790.63202 832.96802 856.65601 894.31201 936.71997"
         y="580.82397"
         sodipodi:role="line"
         id="tspan324">as what he had concepted!</tspan></text>
<text
       transform="matrix(1,0,0,-1,210,127.124)"
       style="font-variant:normal;font-weight:normal;font-stretch:normal;font-size:24px;font-family:'Segoe UI';-inkscape-font-specification:SegoeUI;writing-mode:lr-tb;fill:#ed1c24;fill-opacity:1;fill-rule:nonzero;stroke:none"
       id="text326"><tspan
         x="0 11.304 23.52 34.608002 46.535999 56.712002"
         y="0"
         sodipodi:role="line"
         id="tspan328">Lacks:</tspan><tspan
         x="0 9.6000004 16.176001 23.688 37.751999 51.335999 59.472 64.68 71.255997 77.064003 85.199997 91.776001 101.952 115.536 129.60001 143.18401 148.992 163.12801 169.70399 183.81599 196.368 202.944 219.43201 233.54401 247.12801 260.71201 268.84799 282.43201 289.008 297 309.552 323.68799 337.272 343.07999 355.29599 363.64801 370.224 384.336 397.92001 406.056 412.63199 423.72 437.30399 451.36801 461.54401 474.09601 487.67999 494.25601 507 519.552 533.68799 547.75201 560.30402 566.88 583.36798"
         y="28.799999"
         sodipodi:role="line"
         id="tspan330">- font, it should be Ubuntu regular but chosen Segoe UI</tspan></text>
</g></svg>