<?xml version="1.0" encoding="UTF-8" standalone="no"?>
<svg xmlns="http://www.w3.org/2000/svg" height="331px" width="911px" version="1.1" xmlns:xlink="http://www.w3.org/1999/xlink" viewBox="0 0 911 331">
 <defs>
  <linearGradient id="g" y1=".61035%" x2="50%" x1="50%" y2="99.747%">
   <stop stop-color="#69BE5A" offset="0"/>
   <stop stop-color="#5FB356" offset=".0654"/>
   <stop stop-color="#2E9648" offset=".3605"/>
   <stop stop-color="#0A8D45" offset=".5153"/>
   <stop stop-color="#219246" offset=".6269"/>
   <stop stop-color="#42A04D" offset=".7969"/>
   <stop stop-color="#69BE5B" offset="1"/>
  </linearGradient>
  <path id="m" d="m182.91 68.497c-51.86 0-94.051 42.183-94.051 94.043 0 20.58 6.652 39.64 17.911 55.14l-11.747 34.93 36.137-11.58c14.86 9.82 32.64 15.55 51.75 15.55 51.85 0 94.04-42.18 94.04-94.04s-42.19-94.043-94.04-94.043zm-26.24 47.773c-1.81-4.36-3.2-4.51-6-4.64-0.96-0.05-2-0.09-3.14-0.09-3.61 0-7.34 1.06-9.6 3.36-2.74 2.81-9.59 9.38-9.59 22.87s9.82 26.53 11.19 28.36 19.16 29.92 46.84 41.39c21.61 8.94 28.02 8.15 32.95 7.07 7.18-1.57 16.18-6.85 18.47-13.25 2.28-6.4 2.28-11.89 1.6-13.03-0.69-1.15-2.52-1.83-5.26-3.21-2.74-1.37-16.23-8-18.74-8.91-2.51-0.92-4.84-0.64-6.77 2.04-2.67 3.69-5.23 7.48-7.36 9.73-1.67 1.77-4.35 2.02-6.66 1.04-3.03-1.3-11.58-4.28-22.05-13.61-8.15-7.27-13.65-16.25-15.25-18.99s-0.15-4.38 1.09-5.87c1.4-1.71 2.7-2.93 4.07-4.53s2.14-2.45 3.05-4.28c0.92-1.83 0.3-3.72-0.39-5.09-0.68-1.37-6.17-14.86-8.45-20.36z"/>
 </defs>
 <g fill-rule="evenodd">
  <rect y="0" x="0" fill="#254242" width="910.8" height="331"/>
  <path d="m182.91 50.683c-61.79 0-111.87 50.077-111.87 111.86 0.003 21.14 5.868 40.9 16.054 57.76l-20.188 60.02 61.934-19.84c16.02 8.87 34.45 13.92 54.07 13.92 61.77 0 111.85-50.08 111.85-111.86 0.01-61.78-50.08-111.86-111.85-111.86zm219.57 134.3h-0.22l-13.41-54.07h-16.15l-13.63 53.41h-0.22l-12.42-53.41h-17.25l20.77 78.46h17.47l13.08-53.4h0.22l13.29 53.4h17.15l21.1-78.46h-16.92l-12.86 54.07zm82.41-27.53c-1.54-2.01-3.64-3.58-6.31-4.72-2.68-1.14-6.1-1.7-10.28-1.7-2.93 0-5.93 0.75-9.01 2.25s-5.61 3.9-7.59 7.2h-0.32v-29.57h-15.61v78.46h15.61v-29.77c0-5.79 0.94-9.95 2.85-12.48s4.98-3.78 9.23-3.78c3.74 0 6.34 1.14 7.8 3.45 1.47 2.31 2.2 5.82 2.2 10.5v32.08h15.61v-34.93c0-3.52-0.31-6.73-0.93-9.62-0.63-2.9-1.71-5.35-3.25-7.37zm64.28 39.29v-29.56c0-3.44-0.76-6.21-2.31-8.3-1.53-2.08-3.51-3.72-5.93-4.89-2.41-1.17-5.09-1.96-8.02-2.36s-5.82-0.61-8.68-0.61c-3.15 0-6.29 0.32-9.39 0.94-3.12 0.62-5.92 1.66-8.42 3.13-2.48 1.47-4.54 3.41-6.14 5.82-1.62 2.42-2.53 5.46-2.76 9.13h15.61c0.29-3.08 1.32-5.28 3.08-6.6 1.75-1.32 4.17-1.98 7.25-1.98 1.39 0 2.69 0.1 3.9 0.28s2.27 0.55 3.19 1.09c0.91 0.56 1.65 1.33 2.2 2.31 0.54 1 0.82 2.33 0.82 4.02 0.07 1.61-0.41 2.84-1.43 3.68-1.03 0.84-2.41 1.48-4.18 1.92-1.75 0.44-3.77 0.77-6.04 0.99s-4.58 0.51-6.92 0.88c-2.35 0.37-4.67 0.86-6.98 1.48-2.31 0.63-4.36 1.56-6.15 2.81-1.8 1.25-3.27 2.91-4.4 5-1.13 2.08-1.7 4.74-1.7 7.96 0 2.94 0.49 5.46 1.49 7.58 0.98 2.13 2.35 3.89 4.11 5.28 1.76 1.4 3.81 2.42 6.16 3.08 2.34 0.66 4.87 0.98 7.58 0.98 3.51 0 6.96-0.51 10.32-1.53 3.37-1.03 6.31-2.83 8.8-5.39 0.07 0.95 0.2 1.89 0.38 2.81 0.19 0.91 0.42 1.81 0.72 2.68h15.82c-0.73-1.16-1.25-2.93-1.54-5.27s-0.44-4.79-0.44-7.36zm-15.6-9.34c0 0.88-0.09 2.05-0.28 3.52-0.18 1.46-0.67 2.9-1.48 4.33-0.8 1.43-2.06 2.66-3.73 3.68-1.69 1.03-4.07 1.55-7.15 1.55-1.24 0-2.45-0.12-3.62-0.33-1.18-0.22-2.2-0.61-3.08-1.16s-1.58-1.29-2.09-2.25c-0.51-0.95-0.77-2.12-0.77-3.51 0-1.47 0.26-2.68 0.77-3.63s1.19-1.74 2.04-2.36c0.84-0.63 1.83-1.12 2.96-1.49 1.14-0.37 2.29-0.66 3.46-0.88 1.24-0.22 2.5-0.4 3.74-0.55 1.25-0.14 2.44-0.33 3.57-0.54 1.14-0.23 2.2-0.5 3.19-0.83s1.81-0.78 2.47-1.37v5.82zm44.72-51.87h-15.6v17.03h-9.45v10.44h9.45v33.51c0 2.86 0.48 5.17 1.43 6.93s2.25 3.12 3.9 4.07 3.55 1.59 5.71 1.92 4.46 0.49 6.87 0.49c1.54 0 3.12-0.04 4.73-0.1 1.61-0.08 3.07-0.22 4.39-0.45v-12.08c-0.73 0.15-1.5 0.26-2.3 0.33-0.81 0.07-1.65 0.11-2.53 0.11-2.64 0-4.4-0.44-5.28-1.32-0.87-0.88-1.31-2.64-1.31-5.28v-28.13h11.42v-10.44h-11.42v-17.03h-0.01zm64.51 48.96c-1.03-1.79-2.39-3.3-4.07-4.51s-3.61-2.18-5.77-2.92c-2.16-0.72-4.38-1.34-6.65-1.86-2.2-0.51-4.35-0.99-6.48-1.43-2.12-0.44-4.01-0.93-5.66-1.48s-2.98-1.27-4.01-2.15c-1.03-0.87-1.53-2.01-1.53-3.4 0-1.17 0.28-2.1 0.87-2.81 0.59-0.69 1.3-1.22 2.14-1.59 0.85-0.36 1.78-0.6 2.8-0.71 1.03-0.11 1.98-0.17 2.86-0.17 2.79 0 5.2 0.54 7.26 1.6 2.05 1.06 3.18 3.09 3.4 6.1h14.84c-0.3-3.52-1.19-6.43-2.7-8.74-1.49-2.31-3.38-4.16-5.65-5.55s-4.86-2.38-7.75-2.97c-2.9-0.58-5.88-0.87-8.95-0.87-3.08 0-6.09 0.27-9.01 0.82-2.94 0.55-5.58 1.5-7.92 2.86-2.35 1.35-4.22 3.2-5.66 5.55-1.43 2.34-2.14 5.34-2.14 9.01 0 2.49 0.51 4.6 1.54 6.31 1.02 1.73 2.38 3.16 4.06 4.29 1.69 1.14 3.61 2.05 5.77 2.75s4.38 1.3 6.65 1.82c5.57 1.16 9.91 2.34 13.02 3.51 3.12 1.17 4.67 2.93 4.67 5.27 0 1.39-0.33 2.54-0.99 3.46-0.65 0.92-1.48 1.65-2.47 2.2s-2.09 0.95-3.29 1.21c-1.21 0.26-2.37 0.39-3.47 0.39-1.53 0-3.02-0.19-4.44-0.55-1.44-0.37-2.7-0.94-3.8-1.71s-2-1.76-2.69-2.97-1.05-2.65-1.05-4.33h-14.83c0.15 3.8 1.01 6.98 2.59 9.5 1.56 2.53 3.57 4.56 6.03 6.1s5.26 2.64 8.42 3.3c3.14 0.66 6.37 0.98 9.66 0.98 3.22 0 6.39-0.31 9.51-0.93 3.11-0.62 5.88-1.7 8.29-3.24 2.43-1.54 4.38-3.57 5.89-6.1 1.49-2.53 2.24-5.66 2.24-9.4 0-2.63-0.51-4.85-1.53-6.64zm30.98-53.58l-29.66 78.46h17.36l6.15-17.47h29.34l5.93 17.47h17.92l-29.34-78.46h-17.7zm-1.64 48.14l10.22-28.8h0.22l9.89 28.8h-20.33zm102.63-18.79c-2.12-2.79-4.79-5.02-8.02-6.71-3.23-1.68-7.07-2.52-11.53-2.52-3.53 0-6.75 0.69-9.68 2.08-2.94 1.39-5.34 3.63-7.25 6.71h-0.22v-7.26h-14.84v76.71h15.61v-26.92h0.21c1.91 2.78 4.35 4.88 7.32 6.31 2.96 1.43 6.2 2.14 9.72 2.14 4.18 0 7.82-0.8 10.93-2.41 3.12-1.61 5.72-3.78 7.81-6.49 2.09-2.7 3.64-5.82 4.67-9.33 1.02-3.52 1.54-7.19 1.54-10.99 0-4.03-0.52-7.9-1.54-11.6-1.03-3.7-2.6-6.94-4.73-9.72zm-9.99 27.58c-0.45 2.2-1.2 4.12-2.26 5.76-1.06 1.65-2.46 3-4.18 4.02s-3.86 1.54-6.43 1.54c-2.49 0-4.61-0.52-6.37-1.54s-3.17-2.37-4.23-4.02c-1.06-1.64-1.83-3.56-2.31-5.76-0.47-2.2-0.71-4.44-0.71-6.7 0-2.35 0.22-4.62 0.65-6.82 0.45-2.19 1.2-4.14 2.26-5.82 1.06-1.69 2.45-3.06 4.18-4.12 1.72-1.06 3.86-1.59 6.43-1.59 2.48 0 4.6 0.53 6.31 1.59 1.72 1.06 3.14 2.46 4.24 4.17 1.09 1.73 1.88 3.69 2.35 5.89 0.48 2.19 0.72 4.43 0.72 6.7 0 2.26-0.21 4.5-0.65 6.7zm76.91-17.86c-1.02-3.7-2.6-6.94-4.72-9.73-2.13-2.78-4.8-5.01-8.02-6.7-3.23-1.69-7.08-2.52-11.55-2.52-3.51 0-6.73 0.69-9.66 2.08-2.94 1.39-5.35 3.63-7.26 6.71h-0.21v-7.26h-14.84v76.71h15.6v-26.92h0.22c1.91 2.78 4.35 4.88 7.31 6.31 2.97 1.43 6.21 2.14 9.73 2.14 4.17 0 7.82-0.81 10.93-2.42 3.11-1.6 5.72-3.77 7.8-6.48 2.09-2.71 3.65-5.82 4.67-9.34 1.03-3.52 1.54-7.18 1.54-10.98 0-4.03-0.51-7.9-1.54-11.6zm-14.72 17.86c-0.44 2.2-1.19 4.12-2.25 5.76-1.07 1.65-2.46 3-4.18 4.02s-3.86 1.54-6.43 1.54c-2.49 0-4.61-0.52-6.37-1.54s-3.17-2.37-4.24-4.02c-1.05-1.64-1.83-3.56-2.3-5.76-0.48-2.2-0.72-4.44-0.72-6.7 0-2.35 0.23-4.62 0.67-6.82 0.43-2.19 1.19-4.14 2.25-5.82 1.06-1.69 2.46-3.06 4.17-4.12 1.72-1.06 3.87-1.59 6.43-1.59 2.49 0 4.6 0.53 6.32 1.59s3.13 2.46 4.23 4.17c1.11 1.73 1.89 3.69 2.37 5.89 0.48 2.19 0.71 4.43 0.71 6.7 0 2.26-0.22 4.5-0.66 6.7z" fill="#fff"/>
  <mask>
   <use xlink:href="#m"/>
  </mask>
  <use xlink:href="#m" fill="url(#g)"/>
 </g>
</svg>
