<?xml version="1.0" encoding="utf-8"?>
<!-- Generator: Adobe Illustrator 14.0.0, SVG Export Plug-In . SVG Version: 6.00 Build 43363)  -->
<!DOCTYPE svg PUBLIC "-//W3C//DTD SVG 1.1//EN" "http://www.w3.org/Graphics/SVG/1.1/DTD/svg11.dtd">
<svg version="1.1"
	 id="svg2963" inkscape:version="0.47 r22583" sodipodi:docname="Windows_3.0_logo.svg" xmlns:dc="http://purl.org/dc/elements/1.1/" xmlns:cc="http://creativecommons.org/ns#" xmlns:rdf="http://www.w3.org/1999/02/22-rdf-syntax-ns#" xmlns:svg="http://www.w3.org/2000/svg" xmlns:sodipodi="http://sodipodi.sourceforge.net/DTD/sodipodi-0.dtd" xmlns:inkscape="http://www.inkscape.org/namespaces/inkscape"
	 xmlns="http://www.w3.org/2000/svg" xmlns:xlink="http://www.w3.org/1999/xlink" x="0px" y="0px" width="199.783px"
	 height="233.859px" viewBox="0 0 199.783 233.859" enable-background="new 0 0 199.783 233.859" xml:space="preserve">
<sodipodi:namedview  id="namedview2995" inkscape:current-layer="svg2963" inkscape:window-y="0" inkscape:window-x="0" inkscape:window-height="481" inkscape:window-width="640" inkscape:pageshadow="2" inkscape:pageopacity="0" borderopacity="1" bordercolor="#666666" showgrid="false" pagecolor="#ffffff" guidetolerance="10" inkscape:cy="116.92875" gridtolerance="10" inkscape:cx="99.892504" objecttolerance="10" inkscape:zoom="0.97947661" inkscape:window-maximized="0">
	</sodipodi:namedview>
<defs>
	
	
		<inkscape:perspective  id="perspective2999" inkscape:vp_z="240.94501 : 120.4725 : 1" inkscape:vp_y="0 : 1000 : 0" inkscape:vp_x="0 : 120.4725 : 1" sodipodi:type="inkscape:persp3d" inkscape:persp3d-origin="120.4725 : 80.315002 : 1">
		</inkscape:perspective>
</defs>
<g id="g3001" transform="translate(-20.58,-3.5421946)">
	<g id="XMLID_1_">
		<g>
			<polygon fill="#231F20" points="220.361,234.441 220.361,237.401 219.821,237.401 219.821,235.122 219.022,237.401 
				218.482,237.401 217.542,235.122 217.542,237.401 217.142,237.401 217.142,234.441 217.812,234.441 218.752,236.731 
				219.562,234.441 			"/>
			<path fill="#231F20" d="M218.482,170.901l0.54,5.641h-0.939c0-1.21-0.271-2.15-0.54-2.42c-0.271-0.54-0.811-1.21-1.48-1.48
				c-0.53-0.27-1.34-0.54-2.55-0.54h-3.36v20.43c0,1.471,0,2.681,0.271,3.091c0.54,0.27,1.34,0.529,2.28,0.529h0.789
				c0.051,0.19,0.12,0.37,0.221,0.54h-10.811v-0.54h0.94c0.8,0,1.61-0.26,2.28-0.939c0-0.271,0.27-1.21,0.27-2.681v-20.43h-2.82
				c-1.21,0-2.02,0-2.42,0.271c-0.54,0.27-1.08,0.81-1.609,1.21c-0.271,0.81-0.67,1.75-0.67,2.96h-0.811l0.54-5.641H218.482z"/>
			<path fill="#231F20" d="M219.152,195.481c0,1.48-1.34,2.82-2.819,2.82v-0.53c1.21,0,2.29-1.08,2.29-2.29s-1.08-2.149-2.29-2.149
				v-0.13v-0.41C217.812,192.792,219.152,194.002,219.152,195.481z"/>
			<path fill="#231F20" d="M216.732,195.622l0.95,1.34h-0.54l-0.81-1.07v-0.27v-0.41c0.399,0,0.81,0,0.81-0.53
				c0-0.41-0.41-0.41-0.67-0.41l-0.07-0.2l0.07-0.199c0.83,0.029,1.07,0.3,1.07,0.939
				C217.542,195.352,217.272,195.622,216.732,195.622z"/>
			<path fill="#231F20" d="M216.732,14.512v130.86c-31.3-15.181-61.26-16.801-89.479-0.4v-18.74c9.109-4.27,19.27-7.07,29.83-8.94
				v-39.77c-8.96,0.67-18.86,3.07-29.83,8.4v-13.03c9.899-4.53,19.8-7.6,29.83-8.4v-41.65c-8.431,0.54-18.07,3.34-29.83,8.54v-18.35
				C156.012,0.541,185.702-0.269,216.732,14.512z M198.332,121.052v-41.38c-9.811-3.9-19.75-5.11-29.561-3.9v40.98
				C180.192,116.212,188.922,117.962,198.332,121.052z M198.332,67.712v-42.05c-9.811-4.16-19.75-5.64-29.561-4.7v42.59h11.82
				C185.832,63.552,194.432,66.231,198.332,67.712z"/>
			<polygon fill="#231F20" points="216.472,234.441 216.472,234.852 215.531,234.852 215.531,237.401 215.122,237.401 
				215.122,234.852 214.052,234.852 214.052,234.441 			"/>
			<polygon fill="#231F20" points="216.472,193.872 216.402,194.071 216.332,193.872 			"/>
			<polygon fill="#231F20" points="216.332,193.872 216.402,194.071 216.332,194.271 215.792,194.271 215.792,195.212 
				216.332,195.212 216.332,195.622 215.792,195.622 215.792,196.962 215.262,196.962 215.262,193.872 			"/>
			<path fill="#231F20" d="M216.332,197.771v0.53c-1.061,0-2.11-0.68-2.62-1.61h0.069v-0.54h-0.29
				c-0.069-0.22-0.109-0.439-0.109-0.67c0-1.609,1.47-2.819,2.95-2.819v0.13v0.41c-1.21,0-2.28,0.939-2.28,2.279
				C214.052,196.691,215.122,197.771,216.332,197.771z"/>
			<polygon fill="#231F20" points="215.662,148.052 215.662,151.012 215.122,151.012 215.122,148.592 214.321,151.012 
				213.781,151.012 212.842,148.592 212.842,151.012 212.442,151.012 212.442,148.052 213.111,148.052 214.052,150.342 
				214.852,148.052 			"/>
			<path fill="#231F20" d="M215.792,229.071c0,2.15-1.07,4.16-2.551,5.641c-1.75,1.35-4.159,2.42-6.579,2.42
				c-1.08,0-1.75-0.4-2.421-0.4c-0.399,0-1.34-0.27-2.819-0.67c-1.351-0.41-2.42-0.67-2.82-0.67c-0.27,0-0.68,0-0.68,0.26
				c0,0-0.26,0.811-0.26,1.48h-0.811v-9.811h0.811c0.26,2.15,0.67,3.5,1.34,4.57c0.67,1.08,1.75,2.021,2.819,2.42
				c1.341,0.67,2.82,1.08,4.17,1.08c1.74,0,3.49-0.68,4.561-1.479c0.939-0.681,1.35-2.021,1.35-3.091c0-0.67,0-1.35-0.41-2.149
				c-0.27-0.67-0.939-1.351-2.01-2.021c-0.399,0-2.149-1.069-4.569-2.42c-2.421-1.47-4.16-2.42-5.24-3.22
				c-1.07-0.94-1.75-1.75-2.42-2.69c-0.67-1.069-0.67-2.149-0.67-3.22c0-2.02,0.67-3.76,2.02-5.51c1.74-1.48,3.89-2.15,6.311-2.15
				c1.479,0,3.229,0.4,4.84,1.07c1.069,0.27,1.47,0.27,1.739,0.27c0.41,0,0.811,0,1.08,0c0-0.27,0.4-0.67,0.4-1.34h0.67v9.811h-0.67
				c0-1.75-0.67-3.5-1.07-4.57c-0.68-1.08-1.75-2.15-3.09-2.42c-1.08-0.67-2.42-1.48-3.5-1.48c-1.47,0-2.82,0.811-3.49,1.48
				c-1.069,1.08-1.75,2.02-1.75,3.09c0,0.67,0.271,1.75,1.08,2.42c0.67,1.08,2.69,2.55,5.91,4.3c2.69,1.341,4.84,2.42,5.51,3.091
				c1.07,0.67,1.75,1.75,2.42,2.819C215.392,227.052,215.792,228.002,215.792,229.071z"/>
			<path fill="#231F20" d="M213.781,196.151v0.54h-0.069c-0.101-0.17-0.17-0.35-0.221-0.54H213.781z"/>
			<polygon fill="#231F20" points="211.762,148.052 211.762,148.462 210.821,148.462 210.821,151.012 210.422,151.012 
				210.422,148.462 209.342,148.462 209.342,148.052 			"/>
			<path fill="#FEFE00" d="M198.332,79.672v41.38c-9.41-3.09-18.141-4.84-29.561-4.3v-40.98
				C178.582,74.561,188.522,75.771,198.332,79.672z"/>
			<path fill="#007F00" d="M198.332,25.662v42.05c-3.9-1.48-12.5-4.16-17.74-4.16h-11.82v-42.59
				C178.582,20.021,188.522,21.501,198.332,25.662z"/>
			<path fill="#231F20" d="M197.252,207.842l-0.4,0.67c-0.67,0-1.07,0-1.75,0.27c-0.399,0.41-1.07,0.811-1.07,1.75
				c-0.27,0.4-1.079,1.48-1.34,3.49l-8.739,23.11h-1.07l-5.91-18.141l-3.63,11.66l-1.61-0.5l4.16-13.569l-1.07-2.83l-0.68-2.15
				c-0.4-0.67-0.67-1.34-1.07-1.74c0-0.27-0.27-0.67-0.67-0.67c0-0.41-0.67-0.41-1.08-0.68c-0.27,0-0.67,0-0.939,0v-0.67h11.42v0.67
				h-1.07c-0.67,0-1.35,0.27-1.75,0.27c-0.27,0.41-0.27,1.08-0.27,1.48c0,0.67,0.27,2.02,0.67,3.76l5.649,15.72l5.91-15.989
				c0.271-1.471,0.67-2.82,0.67-3.49v-0.67c-0.399-0.4-0.67-0.811-1.069-0.811c-0.271-0.27-1.351-0.27-2.021-0.27v-0.67H197.252z"/>
			<path fill="#231F20" d="M194.832,170.632l0.68,5.37h-1.21c-0.271-0.94-0.811-1.88-1.08-2.42c-0.4-0.67-0.94-1.21-1.48-1.48
				c-0.529-0.26-1.47-0.26-2.819-0.26h-5.51v10.61h4.3c0.81,0,1.75-0.271,2.29-0.54c0.54-0.671,0.8-1.74,1.21-3.221h0.529v8.601
				h-0.529c0-0.94-0.41-1.88-0.67-2.15c-0.271-0.54-0.54-0.81-0.811-1.21c-0.54-0.27-1.479-0.27-2.02-0.27h-4.3v8.6
				c0,1.21,0.27,2.15,0.27,2.42c0,0.26,0.271,0.67,0.54,0.94c0.67,0.27,1.48,0.27,2.02,0.27h0.94v0.53h-10.89v-0.53h0.81
				c0.811,0,1.75-0.27,2.28-0.95c0.27-0.26,0.27-1.2,0.27-2.68v-17.2c0-1.21,0-2.149,0-2.42c-0.27-0.27-0.529-0.8-0.8-0.8
				c-0.54-0.41-1.21-0.68-1.75-0.68h-0.81v-0.53H194.832z"/>
			<path fill="#231F20" d="M173.202,173.852c2.289,2.69,3.63,5.91,3.63,9.54c0,3.9-1.341,7.39-3.63,9.811
				c-2.41,2.42-5.24,3.89-8.33,3.89l-0.061-0.601l0.061-0.6c2.02,0,4.029-0.95,5.38-2.689c1.479-2.021,2.279-5.11,2.279-9.271
				c0-4.44-0.8-7.93-2.55-10.08c-1.08-1.75-3.09-2.689-5.109-2.689l-0.061-0.601l0.061-0.609h0.27
				C168.232,169.952,170.792,171.432,173.202,173.852z"/>
			<path fill="#231F20" d="M173.342,230.651l-2.021,6.48h-1.34l-8.33-24.05c-0.81-1.74-1.08-2.82-1.479-2.82
				c0-0.67-0.67-1.07-1.07-1.48c-0.27-0.27-1.35-0.27-2.02-0.27v-0.67h11.149v0.67h-0.67c-0.67,0-1.479,0.27-1.75,0.27
				c-0.399,0.41-0.399,1.08-0.399,1.48c0,0.67,0.399,1.75,0.67,3.49l5.649,16.399L173.342,230.651z"/>
			<path fill="#231F20" d="M164.872,169.952l-0.061,0.609l-0.07-0.609C164.781,169.952,164.832,169.952,164.872,169.952z"/>
			<path fill="#231F20" d="M164.872,195.892l-0.061,0.6l-0.07-0.6C164.781,195.892,164.832,195.892,164.872,195.892z"/>
			<path fill="#231F20" d="M164.812,170.561l-0.07,0.601c-2.22,0.04-3.93,0.97-5.369,2.689c-1.48,2.15-2.29,5.38-2.29,9.54
				c0,4.43,0.81,7.79,2.29,10.08c1.439,1.44,3.149,2.38,5.369,2.42l0.07,0.6l-0.07,0.601c-3.359,0-6.18-1.47-8.46-3.89
				c-2.29-2.421-3.5-5.65-3.5-9.54c0-4.171,1.48-7.66,4.03-10.08c2.26-2.12,5.03-3.591,7.93-3.63L164.812,170.561z"/>
			<path fill="#231F20" d="M156.682,211.602c2.82,2.83,4.16,6.32,4.16,10.48c0,4.17-1.34,8.069-4.16,10.479
				c-2.82,2.83-6.18,4.57-9.94,4.57v-1.74c2.681,0,4.7-1.08,6.45-3.229c2.15-1.75,2.82-5.11,2.82-9.671
				c0-4.569-1.08-8.47-2.82-10.479c-1.75-2.021-3.77-3.09-6.45-3.09l0.131-1.48C150.852,207.472,154.292,208.811,156.682,211.602z"
				/>
			<path fill="#0000FE" d="M157.082,77.521v39.77c-10.561,1.87-20.721,4.67-29.83,8.94v-40.31
				C138.222,80.592,148.122,78.192,157.082,77.521z"/>
			<path fill="#FE0000" d="M157.082,22.842v41.65c-10.03,0.8-19.931,3.87-29.83,8.4v-41.51
				C139.012,26.182,148.652,23.382,157.082,22.842z"/>
			<path fill="#231F20" d="M151.042,187.021c0.529,0.8,0.8,2.01,0.8,2.95c0,1.75-0.8,3.5-2.28,4.97c-1.479,1.21-3.09,2.15-5.78,2.15
				c-0.54,0-1.069-0.26-1.75-0.26c-0.529,0-1.34-0.41-2.279-0.681c-1.07-0.529-2.28-0.8-2.55-0.8c0,0-0.271,0.271-0.54,0.271
				c0,0.27-0.271,0.8-0.271,1.47h-0.54v-8.59h0.54c0.271,1.739,0.54,3.489,1.08,4.16c0.67,1.079,1.47,1.75,2.68,2.279
				c1.08,0.681,2.29,0.95,3.63,0.95c1.48,0,2.96-0.27,3.49-1.21c0.811-0.94,1.48-2.02,1.48-2.96s-0.4-1.48-0.67-2.15
				c-0.271-0.54-0.811-1.479-1.341-1.75c-0.68-0.27-2.02-1.21-4.029-2.409c-2.021-1.48-3.771-2.29-4.57-2.96
				c-0.939-0.811-1.75-1.75-2.02-2.69c-0.67-0.53-0.94-1.74-0.94-2.68c0-2.021,0.94-3.5,2.021-4.98
				c1.479-1.2,3.489-2.149,5.51-2.149c1.069,0,2.819,0.68,4.3,1.479c0.53,0,1.07,0.41,1.34,0.41c0.4,0,0.67-0.41,0.94-0.41
				c0,0,0.27-0.53,0.54-1.479h0.529v8.739h-0.529c-0.271-1.609-0.54-3.09-1.08-3.899c-0.67-1.21-1.48-2.15-2.69-2.69
				c-0.8-0.67-2.28-0.939-3.35-0.939c-1.21,0-2.29,0.27-2.96,1.21c-0.811,0.939-1.34,1.75-1.34,2.96c0,0.939,0.27,1.75,0.8,2.149
				c0.54,0.8,2.29,2.28,5.24,4.16c2.289,1.21,3.899,2.29,4.84,2.96C149.832,185.142,150.772,186.082,151.042,187.021z"/>
			<path fill="#231F20" d="M146.872,207.441l-0.131,1.48v-1.48C146.781,207.441,146.832,207.441,146.872,207.441z"/>
			<path fill="#231F20" d="M146.741,235.392v1.74h-0.14c-4.16,0-7.39-1.48-10.07-4.16c-2.819-2.82-3.899-6.32-3.899-10.89
				c0-4.561,1.34-8.061,4.57-10.74c2.789-2.53,5.84-3.87,9.539-3.9v1.48l-0.14-0.141c-2.82,0-4.83,1.08-6.31,3.23
				c-1.75,2.01-3.09,5.51-3.09,10.07c0,4.569,1.34,8.069,3.09,10.479c1.739,1.75,3.89,2.83,6.31,2.83H146.741z"/>
			<path fill="#231F20" d="M130.212,173.852c2.279,2.69,3.63,5.91,3.63,9.54c0,3.9-1.351,7.39-3.63,9.811
				c-2.42,2.42-5.24,3.89-8.33,3.89l-0.061-0.601l0.061-0.6c2.02,0,4.03-0.95,5.37-2.689c1.479-2.021,2.29-5.11,2.29-9.271
				c0-4.44-0.811-7.93-2.551-10.08c-1.079-1.75-3.09-2.689-5.109-2.689l-0.061-0.601l0.061-0.609h0.27
				C125.241,169.952,127.792,171.432,130.212,173.852z"/>
			<path fill="#231F20" d="M131.821,222.082c0,3.899-1.34,7.39-3.76,9.81c-1.88,2.42-5.1,3.9-9,4.44v-2.021
				c1.88-0.54,3.49-1.479,4.84-2.82c2.011-2.02,3.09-5.51,3.09-9.409c0-3.761-1.079-6.98-3.09-9c-1.35-1.48-2.959-2.42-4.84-2.95
				v-1.88c2.15,0.26,3.9,0.8,5.101,1.34c2.149,0.67,4.17,2.42,5.649,4.43C131.152,216.582,131.821,218.991,131.821,222.082z"/>
			<path fill="#3E89D0" d="M127.252,85.922v40.31c-0.04,0.021-0.09,0.04-0.13,0.061V85.981
				C127.162,85.962,127.212,85.942,127.252,85.922z"/>
			<path fill="#F3652F" d="M127.252,31.382v41.51c-0.04,0.02-0.09,0.04-0.13,0.06v-41.51
				C127.162,31.422,127.212,31.402,127.252,31.382z"/>
			<polygon fill="#231F20" points="124.571,128.441 124.571,144.432 107.912,153.162 107.912,136.502 			"/>
			<polygon fill="#231F20" points="124.571,109.362 124.571,125.481 107.912,134.082 107.912,117.422 			"/>
			<polygon fill="#231F20" points="124.571,89.882 124.571,106.001 107.912,114.602 107.912,98.081 			"/>
			<polygon fill="#231F20" points="124.571,71.202 124.571,87.192 107.912,95.932 107.912,79.271 			"/>
			<polygon fill="#231F20" points="124.571,52.132 124.571,68.251 107.912,76.852 107.912,60.192 			"/>
			<polygon fill="#231F20" points="124.571,33.182 124.571,49.311 107.912,58.041 107.912,41.382 			"/>
			<polygon fill="#231F20" points="124.571,14.242 124.571,30.231 107.912,38.962 107.912,22.302 			"/>
			<path fill="#231F20" d="M121.882,169.952l-0.061,0.609l-0.069-0.609C121.792,169.952,121.842,169.952,121.882,169.952z"/>
			<path fill="#231F20" d="M121.882,195.892l-0.061,0.6l-0.069-0.6C121.792,195.892,121.842,195.892,121.882,195.892z"/>
			<path fill="#231F20" d="M121.821,170.561l-0.069,0.601c-2.22,0.04-3.93,0.97-5.38,2.689c-1.48,2.15-2.28,5.38-2.28,9.54
				c0,4.43,0.8,7.79,2.28,10.08c1.45,1.44,3.16,2.38,5.38,2.42l0.069,0.6l-0.069,0.601c-3.36,0-6.18-1.47-8.47-3.89
				c-2.28-2.421-3.49-5.65-3.49-9.54c0-4.171,1.48-7.66,4.03-10.08c2.25-2.12,5.03-3.591,7.93-3.63L121.821,170.561z"/>
			<path fill="#231F20" d="M119.062,234.311v2.021c-1.08,0.13-2.42,0.13-3.63,0.13h-12.9v-0.811h1.08c1.07,0,2.15-0.26,2.42-0.939
				c0.4-0.8,0.67-1.74,0.67-3.49v-17.87c0-2.01-0.27-3.09-0.67-3.76c-0.67-0.811-1.35-1.08-2.42-1.08h-0.4v-0.67h10.88
				c1.88,0,3.49,0.14,4.97,0.41v1.88c-1.08-0.271-2.42-0.54-3.9-0.54c-1.07,0-2.42,0.27-4.16,0.67v24.05c1.74,0.4,3.49,0.4,4.43,0.4
				C116.782,234.712,117.982,234.582,119.062,234.311z"/>
			<path fill="#231F20" d="M112.882,195.892v0.53h-6.85l-6.59-9.13v-4.03c0.81-0.41,1.48-0.81,2.02-1.35
				c1.48-0.94,2.01-2.681,2.01-4.16c0-1.75-0.53-3.23-1.47-4.44c-0.81-0.53-1.61-0.939-2.56-1.21v-1.34c1.48,0.14,2.69,0.27,3.5,0.4
				c1.34,0.27,2.55,1.21,3.09,2.42c1.21,0.939,1.47,2.42,1.47,3.5c0,1.88-0.26,3.09-1.47,4.159c-1.08,1.211-2.56,2.15-4.84,2.69
				l5.37,7.25c0.94,1.75,2.29,3.23,2.96,3.76C110.332,195.352,111.542,195.892,112.882,195.892z"/>
			<polygon fill="#231F20" points="104.552,133.552 104.552,148.592 89.102,156.382 89.102,141.342 			"/>
			<polygon fill="#0000FE" points="104.552,114.472 104.552,129.512 89.102,137.441 89.102,122.262 			"/>
			<polygon fill="#0000FE" points="104.552,96.061 104.552,111.112 89.102,119.041 89.102,103.852 			"/>
			<polygon fill="#231F20" points="104.552,76.852 104.552,91.902 89.102,99.822 89.102,84.642 			"/>
			<polygon fill="#FE0000" points="104.552,57.771 104.552,72.822 89.102,80.612 89.102,65.561 			"/>
			<polygon fill="#FE0000" points="104.552,39.501 104.552,54.552 89.102,62.342 89.102,47.291 			"/>
			<polygon fill="#231F20" points="104.552,20.282 104.552,35.331 89.102,43.132 89.102,28.081 			"/>
			<rect x="102.532" y="207.842" fill="#231F20" width="0.68" height="0.67"/>
			<path fill="#231F20" d="M102.532,207.842v0.67h-0.4c-1.34,0-2.01,0.27-2.69,1.35c-0.4,0.4-0.4,1.74-0.4,3.49v23.78h-0.67
				l-19.21-23.11v17.2c0,1.75,0.4,3.09,0.67,3.76c0.4,0.41,1.48,0.67,2.42,0.67h1.07v0.811h-5.5v-0.811h-1.08
				c-0.45,0-0.91,0-1.37-0.08c0.7-0.109,1.17-0.39,1.64-0.859c0.4-0.8,0.4-1.74,0.4-3.49v-18.94c-0.67-0.939-1.34-1.75-1.75-2.02
				c-0.32-0.32-0.81-0.56-1.55-0.85c0.72-0.671,1.39-0.9,2.63-0.9h1.08v-0.67h1.34l18.13,21.899v-16.39c0-2.01,0-3.09-0.67-3.76
				c-0.4-0.811-1.48-1.08-2.42-1.08h-1.07v-0.67H102.532z"/>
			<path fill="#231F20" d="M99.442,183.262v4.03l-1.74-2.69c-0.54,0-1.08,0.271-1.48,0.271c-0.27,0-0.54,0-0.54,0
				c-0.27,0-0.27-0.271-0.54-0.271v7.66c0,1.479,0.27,2.68,0.54,2.68c0.27,0.681,1.21,0.95,2.02,0.95h1.21v0.53h-10.89v-0.53h0.81
				c1.21,0,1.75-0.27,2.28-0.95c0.27-0.26,0.27-1.47,0.27-2.68v-1.08v-16.12c0-1.479,0-2.689-0.27-2.96
				c-0.35-0.439-0.88-0.71-1.43-0.84l-0.02-0.63h7.5c0.81,0,1.61,0.13,2.28,0.13v1.34c-0.4-0.13-0.94-0.26-1.47-0.26
				c-0.54,0-1.75,0.26-2.83,0.53v11.29c0.27,0,0.27,0,0.54,0c0,0,0.27,0,0.54,0C97.562,183.662,98.642,183.521,99.442,183.262z"/>
			<path fill="#231F20" d="M89.912,190.512l0.53,0.67c-1.07,2.021-2.55,3.5-4.3,4.44c-1.34,0.8-3.36,1.47-5.64,1.47
				c-3.76,0-7.26-1.74-9.27-4.83c-1.34-2.29-2.55-4.97-2.55-8.33c0-2.29,0.54-4.7,1.74-6.85c0.81-2.29,2.56-4.17,4.57-4.98
				c1.75-1.2,4.03-2.149,6.05-2.149c2.01,0,3.76,0.68,5.37,1.479c0.27,0,0.94,0.41,0.94,0.41c0.27,0,0.81-0.41,0.81-0.41
				c0.07-0.07,0.14-0.16,0.21-0.27h0.46c0.28,0,0.57,0.029,0.85,0.1l0.23,7.43h-0.27c-0.94-2.42-2.02-4.569-3.5-5.779
				c-1.07-1.07-2.82-1.75-4.83-1.75c-1.48,0-2.82,0.68-4.3,1.479c-1.21,0.67-2.29,2.15-2.82,4.17c-0.95,1.88-1.21,4.43-1.21,7.12
				c0,2.42,0.26,4.57,0.8,6.04c0.94,1.75,2.02,3.23,3.23,4.17c1.48,0.8,3.09,1.21,4.83,1.21c1.48,0,2.96-0.41,4.03-0.939
				C87.352,193.741,88.702,192.262,89.912,190.512z"/>
			<path fill="#231F20" d="M89.662,170.632l0.02,0.63c-0.28-0.07-0.57-0.1-0.85-0.1h-0.46c0.11-0.15,0.22-0.33,0.34-0.53H89.662z"/>
			<path fill="#231F20" d="M89.642,169.952l0.02,0.68h-0.95c0.12-0.21,0.24-0.43,0.39-0.68H89.642z"/>
			<path fill="#231F20" d="M88.022,170.632h0.69c-0.12,0.2-0.23,0.38-0.34,0.53h-0.35V170.632z"/>
			<polygon fill="#231F20" points="85.612,134.491 85.612,147.651 72.442,153.972 72.442,140.672 			"/>
			<polygon fill="#0000FE" points="85.612,115.412 85.612,128.712 72.442,134.892 72.442,121.722 			"/>
			<polygon fill="#0000FE" points="85.612,97.142 85.612,110.442 72.442,116.751 72.442,103.452 			"/>
			<polygon fill="#231F20" points="85.612,77.922 85.612,91.092 72.442,97.402 72.442,84.102 			"/>
			<polygon fill="#FE0000" points="85.612,58.852 85.612,72.012 72.442,78.331 72.442,65.021 			"/>
			<polygon fill="#FE0000" points="85.612,40.442 85.612,53.742 72.442,60.052 72.442,46.751 			"/>
			<polygon fill="#231F20" points="85.612,21.231 85.612,34.392 72.442,40.712 72.442,27.412 			"/>
			<path fill="#231F20" d="M77.822,235.651v0.811h-4.58v-0.811h1.08c0.4,0,0.75-0.02,1.05-0.08c0.46,0.08,0.92,0.08,1.37,0.08
				H77.822z"/>
			<path fill="#231F20" d="M77.822,207.842v0.67h-1.08c-1.24,0-1.91,0.229-2.63,0.9c-0.18-0.07-0.38-0.141-0.6-0.221
				c-0.27,0-0.93-0.41-1.74-0.41v-0.939H77.822z"/>
			<path fill="#231F20" d="M74.722,235.392c0.22,0.08,0.43,0.14,0.65,0.18c-0.3,0.061-0.65,0.08-1.05,0.08h-1.08v0.811h-8.32v-0.811
				h1.07c0.94,0,2.02-0.26,2.69-0.939c0.4-0.4,0.4-1.74,0.4-3.49v-17.87c0-1.75,0-2.82-0.4-3.09c0-0.4-0.27-0.67-0.67-1.07
				c-0.68-0.41-1.35-0.68-2.02-0.68h-1.07v-0.67h6.85v0.939c0.81,0,1.47,0.41,1.74,0.41c0.22,0.08,0.42,0.15,0.6,0.221
				c-0.06,0.06-0.13,0.119-0.19,0.18c-0.27,0.67-0.27,1.75-0.27,3.76v17.87c0,1.34,0,2.69,0,3.09
				C73.652,234.712,74.322,234.981,74.722,235.392z"/>
			<path fill="#231F20" d="M69.622,195.892v0.53h-8.87v-0.53h-0.94c-0.05,0-0.1,0-0.15,0c0.78-0.03,1.66-0.3,2.16-0.95
				c0.27-0.26,0.27-1.2,0.27-2.68v-17.2c0-1.21,0-2.149,0-2.42c-0.27-0.27-0.53-0.8-0.8-0.8c-0.54-0.41-1.48-0.68-1.75-0.68h-0.8
				v-0.53h10.88v0.53h-1.21c-0.81,0-1.75,0.27-2.29,0.939c0,0.54-0.26,1.48-0.26,2.96v17.2c0,1.21,0.26,2.15,0.26,2.42
				c0,0.26,0.27,0.67,0.54,0.94c0.67,0.27,1.21,0.27,1.75,0.27H69.622z"/>
			<path fill="#231F20" d="M69.082,200.861v0.94c-1.07,0-1.75,0.4-2.42,0.8c-0.67,0.271-1.07,0.94-1.74,1.75
				c0,0.67-0.68,2.42-1.35,4.43l-10.48,28.351h-1.07l-7.66-21.63l-4.45,13.77l-1.87-0.6l5.24-16.66l-1.47-3.5l-0.68-2.41
				c-0.26-0.81-0.67-1.75-1.34-2.56c0,0-0.4-0.271-0.67-0.67c-0.4-0.271-1.08-0.67-1.48-0.67c0,0-0.67-0.4-1.34-0.4v-0.94h13.57
				v0.94h-1.08c-0.67,0-1.74,0.4-2.01,0.8c-0.41,0.67-0.67,0.94-0.67,1.75c0,0.94,0.26,2.69,1.34,4.84l6.58,19.21l7.39-19.62
				c0.67-2.01,1.08-3.76,1.08-4.43c0-0.399,0-0.81-0.41-1.08c-0.27-0.399-0.67-0.67-1.07-0.67c-0.27-0.399-1.34-0.8-2.42-0.8v-0.94
				H69.082z"/>
			<polygon fill="#231F20" points="67.742,136.231 67.742,146.042 56.992,150.882 56.992,141.342 			"/>
			<polygon fill="#0000FE" points="67.742,117.152 67.742,126.962 56.992,131.932 56.992,122.262 			"/>
			<polygon fill="#0000FE" points="67.742,98.751 67.742,108.561 56.992,113.532 56.992,103.852 			"/>
			<polygon fill="#231F20" points="67.742,79.532 67.742,89.342 56.992,94.182 56.992,84.642 			"/>
			<polygon fill="#FE0000" points="67.742,60.322 67.742,70.271 56.992,75.102 56.992,65.561 			"/>
			<polygon fill="#FE0000" points="67.742,42.192 67.742,51.992 56.992,56.831 56.992,47.291 			"/>
			<polygon fill="#231F20" points="67.742,22.972 67.742,32.782 56.992,37.622 56.992,28.081 			"/>
			<path fill="#231F20" d="M60.752,195.892v0.53h-2.01v-0.53h0.8c0.04,0,0.08,0,0.12,0c0.05,0,0.1,0,0.15,0H60.752z"/>
			<path fill="#231F20" d="M60.752,166.462v0.54h-0.94c-1.48,0-2.28,0.27-2.82,1.21c-0.21,0.41-0.26,1.21-0.26,2.41
				c-0.01,0.369-0.01,0.779-0.01,1.22v19.34c0,2.021,0.27,3.23,0.54,3.76c0.51,0.65,1.39,0.92,2.4,0.95c-0.04,0-0.08,0-0.12,0h-0.8
				v0.53h-10.35v-0.53h1.08c1.2,0,2.01-0.27,2.55-1.21c0.4-0.54,0.67-1.75,0.67-3.5v-20.02l-1.85-0.91l1.85-3.79H60.752z"/>
			<path fill="#231F20" d="M52.692,171.162l-12.09,25.26h-0.54l-11.56-25.26v20.02c0,2.021,0.41,3.23,0.68,3.76
				c0.53,0.681,1.34,0.95,2.55,0.95h1.07v0.53h-10.21v-0.53h0.81c1.21,0,2.28-0.27,2.55-1.21c0.27-0.54,0.54-1.75,0.54-3.5v-19.34
				c0-1.48-0.27-2.69-0.54-3.09c0-0.54-0.27-1.08-0.8-1.48c-0.54,0-1.75-0.27-2.56-0.27v-0.54h8.6l10.21,23.109l9.44-19.319
				L52.692,171.162z"/>
			<polygon fill="#231F20" points="50.272,130.321 50.272,138.651 42.482,142.952 42.482,135.021 			"/>
			<polygon fill="#0000FE" points="50.272,111.242 50.272,119.572 42.482,124.012 42.482,115.942 			"/>
			<polygon fill="#0000FE" points="50.272,92.972 50.272,101.172 42.482,105.602 42.482,97.672 			"/>
			<polygon fill="#231F20" points="50.272,73.622 50.272,81.952 42.482,86.392 42.482,78.331 			"/>
			<polygon fill="#FE0000" points="50.272,54.552 50.272,62.882 42.482,67.311 42.482,59.251 			"/>
			<polygon fill="#FE0000" points="50.272,36.271 50.272,44.602 42.482,48.902 42.482,40.981 			"/>
			<polygon fill="#231F20" points="50.272,17.061 50.272,25.262 42.482,29.692 42.482,21.762 			"/>
			<path fill="#231F20" d="M39.912,229.271l-2.54,7.86h-1.48l-10.07-29.29c-0.67-2.15-1.35-3.49-1.35-3.89
				c-0.4-0.41-1.07-1.08-1.47-1.351c-0.68-0.399-1.35-0.8-2.42-0.8v-0.94h12.9v0.94h-0.68c-0.67,0-1.74,0.4-2.14,0.8
				c-0.27,0.67-0.68,0.94-0.68,1.75c0,0.67,0.41,2.01,1.08,4.43l6.98,19.891L39.912,229.271z"/>
			<polygon fill="#231F20" points="35.222,127.502 35.222,133.412 29.182,136.102 29.182,130.592 			"/>
			<polygon fill="#0000FE" points="35.222,108.561 35.222,114.331 29.182,117.021 29.182,111.512 			"/>
			<polygon fill="#0000FE" points="35.222,90.152 35.222,95.932 29.182,98.612 29.182,93.112 			"/>
			<polygon fill="#231F20" points="35.222,70.802 35.222,76.712 29.182,79.402 29.182,73.762 			"/>
			<polygon fill="#FE0000" points="35.222,51.862 35.222,57.771 29.182,60.322 29.182,54.682 			"/>
			<polygon fill="#FE0000" points="35.222,33.452 35.222,39.362 29.182,42.052 29.182,36.412 			"/>
			<polygon fill="#231F20" points="35.222,14.242 35.222,20.152 29.182,22.842 29.182,17.331 			"/>
		</g>
		<g>
		</g>
	</g>
</g>
</svg>
