<?xml version="1.0" encoding="UTF-8" standalone="no"?>
<!-- Created with Inkscape (http://www.inkscape.org/) -->

<svg
   xmlns:dc="http://purl.org/dc/elements/1.1/"
   xmlns:cc="http://creativecommons.org/ns#"
   xmlns:rdf="http://www.w3.org/1999/02/22-rdf-syntax-ns#"
   xmlns:svg="http://www.w3.org/2000/svg"
   xmlns="http://www.w3.org/2000/svg"
   xmlns:xlink="http://www.w3.org/1999/xlink"
   xmlns:sodipodi="http://sodipodi.sourceforge.net/DTD/sodipodi-0.dtd"
   xmlns:inkscape="http://www.inkscape.org/namespaces/inkscape"
   width="64"
   height="64"
   viewBox="0 0 64.000001 64.000001"
   id="svg4188"
   version="1.1"
   inkscape:version="0.91 r13725"
   sodipodi:docname="Vacuum noteskin center.svg">
  <defs
     id="defs4190">
    <linearGradient
       inkscape:collect="always"
       id="linearGradient4820">
      <stop
         style="stop-color:#0000ff;stop-opacity:1;"
         offset="0"
         id="stop4822" />
      <stop
         style="stop-color:#0000ff;stop-opacity:0;"
         offset="1"
         id="stop4824" />
    </linearGradient>
    <radialGradient
       inkscape:collect="always"
       xlink:href="#linearGradient4820"
       id="radialGradient4826"
       cx="32"
       cy="1020.3622"
       fx="32"
       fy="1020.3622"
       r="12.05"
       gradientUnits="userSpaceOnUse" />
  </defs>
  <sodipodi:namedview
     id="base"
     pagecolor="#ffffff"
     bordercolor="#666666"
     borderopacity="1.0"
     inkscape:pageopacity="0.0"
     inkscape:pageshadow="2"
     inkscape:zoom="11.2"
     inkscape:cx="19.680045"
     inkscape:cy="34.692744"
     inkscape:document-units="px"
     inkscape:current-layer="layer1"
     showgrid="true"
     units="px"
     inkscape:snap-bbox="true"
     inkscape:bbox-paths="true"
     inkscape:bbox-nodes="true"
     inkscape:snap-bbox-edge-midpoints="true"
     inkscape:snap-bbox-midpoints="true"
     inkscape:window-width="1366"
     inkscape:window-height="744"
     inkscape:window-x="0"
     inkscape:window-y="24"
     inkscape:window-maximized="1">
    <inkscape:grid
       type="xygrid"
       id="grid4736"
       empspacing="4" />
  </sodipodi:namedview>
  <metadata
     id="metadata4193">
    <rdf:RDF>
      <cc:Work
         rdf:about="">
        <dc:format>image/svg+xml</dc:format>
        <dc:type
           rdf:resource="http://purl.org/dc/dcmitype/StillImage" />
        <dc:title></dc:title>
      </cc:Work>
    </rdf:RDF>
  </metadata>
  <g
     inkscape:label="Layer 1"
     inkscape:groupmode="layer"
     id="layer1"
     transform="translate(0,-988.36216)">
    <path
       style="fill:none;fill-rule:evenodd;stroke:#000000;stroke-width:1px;stroke-linecap:butt;stroke-linejoin:miter;stroke-opacity:1"
       d="m -64,1000.8622 8,-8.00004 40,0 8.0000003,8.00004 0,40 -8.0000003,8 -40,0 -8,-8 z"
       id="path4738"
       inkscape:connector-curvature="0" />
    <path
       style="fill:none;fill-rule:evenodd;stroke:#00ff00;stroke-width:0.1;stroke-linecap:butt;stroke-linejoin:miter;stroke-opacity:1;stroke-miterlimit:4;stroke-dasharray:none"
       d="m 4,1000.3622 8,-8.00004 40,0 8,8.00004 0,40 -8,8 -40,0 -8,-8 z"
       id="path4847"
       inkscape:connector-curvature="0" />
    <circle
       style="opacity:1;fill:url(#radialGradient4826);fill-opacity:1;fill-rule:evenodd;stroke:#00ffff;stroke-width:0.1;stroke-linecap:square;stroke-linejoin:miter;stroke-miterlimit:4;stroke-dasharray:none;stroke-opacity:1"
       id="path4740"
       cx="32"
       cy="1020.3622"
       r="12" />
    <path
       style="fill:#ff0000;fill-rule:evenodd;stroke:#000000;stroke-width:1px;stroke-linecap:butt;stroke-linejoin:miter;stroke-opacity:1;fill-opacity:1"
       d="M 12 4 L 25.033203 22.248047 A 12 12 0 0 1 32 20 A 12 12 0 0 1 38.96875 22.242188 L 52 4 L 12 4 z "
       transform="translate(0,988.36216)"
       id="path4744" />
    <path
       style="fill:#ff0000;fill-rule:evenodd;stroke:#000000;stroke-width:1px;stroke-linecap:butt;stroke-linejoin:miter;stroke-opacity:1;fill-opacity:1"
       d="M 60 12 L 41.751953 25.033203 A 12 12 0 0 1 44 32 A 12 12 0 0 1 41.757812 38.96875 L 60 52 L 60 12 z "
       transform="translate(0,988.36216)"
       id="path4746" />
    <path
       style="fill:#ff0000;fill-rule:evenodd;stroke:#000000;stroke-width:1px;stroke-linecap:butt;stroke-linejoin:miter;stroke-opacity:1;fill-opacity:1"
       d="M 38.966797 41.751953 A 12 12 0 0 1 32 44 A 12 12 0 0 1 25.03125 41.757812 L 12 60 L 52 60 L 38.966797 41.751953 z "
       transform="translate(0,988.36216)"
       id="path4748" />
    <path
       style="fill:#ff0000;fill-rule:evenodd;stroke:#000000;stroke-width:1px;stroke-linecap:butt;stroke-linejoin:miter;stroke-opacity:1;fill-opacity:1"
       d="M 4 12 L 4 52 L 22.248047 38.966797 A 12 12 0 0 1 20 32 A 12 12 0 0 1 22.242188 25.03125 L 4 12 z "
       transform="translate(0,988.36216)"
       id="path4750" />
  </g>
</svg>
